<svg width="36" height="36" viewBox="0 0 36 36" fill="none" xmlns="http://www.w3.org/2000/svg">
<path d="M33.3025 23.0783L32.9796 8.13158C32.9639 7.41102 32.7208 6.96868 32.2949 6.88625C32.048 6.83778 31.8129 6.93815 31.6415 7.01143C28.7791 8.23272 25.94 9.60134 23.1997 11.0757L22.6325 11.381C21.2109 12.1516 19.7419 12.9477 18.192 13.4568C13.2629 10.7852 8.8697 8.63003 4.76348 6.86449C4.03338 6.55039 3.47235 6.60764 3.22313 7.02097C3.11626 7.19844 3.10252 7.40262 3.09184 7.56635L2.90521 10.3356C2.85903 11.0352 2.61668 21.0983 2.72125 23.0604C2.74186 23.4474 2.7785 23.821 3.00177 24.129C3.15176 24.3363 3.92461 24.7164 5.71533 25.5457C6.26797 25.8014 6.79007 26.0419 7.11829 26.2102L8.18692 26.7533C8.82734 27.0784 9.46814 27.4021 10.1017 27.7425C10.7242 28.0749 11.3386 28.4184 11.9516 28.7612C13.8079 29.7985 15.7277 30.8713 17.797 31.5793L17.8603 31.601L23.9893 29.0199C24.4736 28.8173 24.9728 28.6073 25.4228 28.3074C25.6106 28.1829 26.9399 27.5151 28.3474 26.8078C29.8263 26.0648 31.503 25.2225 32.1563 24.858C32.5853 24.6179 33.0574 24.3198 33.2276 23.818C33.3131 23.5695 33.3074 23.3085 33.3025 23.0783ZM10.2688 27.433C9.63301 27.0937 8.99031 26.7666 8.3476 26.4407L7.27897 25.8976C6.94464 25.7278 6.41986 25.485 5.86417 25.2274C4.89668 24.7794 3.43456 24.1019 3.28686 23.9237C3.11932 23.6924 3.08993 23.3749 3.07237 23.0417C2.97238 21.1693 3.21091 11.0406 3.25595 10.3589L3.43952 7.58964C3.4483 7.4572 3.45823 7.30683 3.5212 7.20226C3.60516 7.06295 3.75821 7.01639 3.92652 7.01639C4.19367 7.01639 4.49671 7.13356 4.62151 7.18737C8.71017 8.94527 13.0858 11.0936 17.9939 13.7518L17.684 31.1644C15.7311 30.4671 13.8984 29.447 12.1248 28.4547C11.5096 28.1112 10.8932 27.7666 10.2688 27.433ZM32.896 23.705C32.7655 24.0889 32.3579 24.3431 31.9861 24.5511C31.3396 24.9122 29.6668 25.7526 28.191 26.4941C26.7151 27.2357 25.435 27.878 25.2297 28.0158C24.8061 28.2978 24.3221 28.5012 23.8557 28.6982L18.0359 31.1453L18.3466 13.7713C19.9083 13.2522 21.3773 12.4584 22.7982 11.6886L23.3642 11.3833C26.0953 9.91467 28.926 8.5514 31.7774 7.33355C31.9453 7.26179 32.0945 7.20493 32.2262 7.23012C32.5586 7.29462 32.6197 7.82664 32.6262 8.13769L32.951 23.0856C32.9555 23.2966 32.9605 23.5149 32.896 23.705Z" fill="black"/>
<path d="M18.2534 12.202C15.7131 7.61409 10.4676 4.6139 5.24315 4.75435L5.23438 4.40285C10.6073 4.26583 15.9577 7.33319 18.561 12.0317L18.2534 12.202Z" fill="black"/>
<path d="M16.6635 11.8011C14.2522 9.92413 11.5192 7.79679 8.3125 7.15599L8.38158 6.8125C11.6695 7.46895 14.4373 9.62338 16.8795 11.5244L16.6635 11.8011Z" fill="#231F20"/>
<path d="M18.6765 11.9367L18.375 11.7627C19.4093 9.96891 21.158 8.42436 23.4323 7.29733C25.4459 6.29816 27.6179 5.71423 29.8521 5.15625L29.9365 5.49401C27.7229 6.04741 25.5696 6.62562 23.5869 7.60914C21.3744 8.70564 19.6764 10.2025 18.6765 11.9367Z" fill="#231F20"/>
<path d="M21.1493 11.1586L20.9375 10.88C22.165 9.94857 23.4818 9.14099 24.8685 8.4691C26.186 7.83135 27.4947 7.35543 28.758 7.05469L28.8385 7.3936C27.5997 7.68823 26.315 8.1569 25.022 8.78244C23.6557 9.44453 22.3585 10.2405 21.1493 11.1586Z" fill="#231F20"/>
<path d="M29.7851 14.0785L21.5156 17.3359L21.6432 17.6598L29.9127 14.4023L29.7851 14.0785Z" fill="black"/>
<path d="M13.2575 26.8353C10.982 24.8272 8.28602 23.3537 5.36719 22.5226L5.46184 22.1875C8.43131 23.0333 11.1739 24.533 13.4884 26.5765L13.2575 26.8353Z" fill="black"/>
<path d="M24.8638 21.5986C24.8405 21.8657 24.8187 22.1447 24.9138 22.3821C25.0741 22.784 25.5038 22.9275 25.8923 23.0038C26.3127 23.0858 26.7385 23.1368 27.1663 23.1565C27.4667 23.1706 27.7976 23.1565 28.0376 22.9359C28.3185 22.6756 28.3735 22.2271 28.4063 21.8291L28.5265 20.3631C28.6028 19.414 28.3094 19.3617 27.8777 18.8392C27.938 18.9125 26.4198 17.6786 26.4885 17.687C25.0943 17.5149 24.9657 20.4357 24.8638 21.5986Z" fill="#FFC945"/>
<path d="M28.5891 19.5294C28.5529 19.4301 28.451 19.2748 28.3319 19.0928C28.2433 18.9573 28.0079 18.5966 28.006 18.5283V18.4939L27.7331 18.4344L27.7243 18.4768C27.6811 18.6603 27.5847 18.8271 27.4472 18.9561C27.3787 18.2516 27.1965 17.5628 26.9076 16.9166L26.7854 16.6406L26.6507 16.9223C26.5129 17.2108 26.2782 17.4593 26.0271 17.7257C25.9244 17.8344 25.8183 17.947 25.7179 18.0638C25.2298 18.6363 24.6462 19.84 24.5264 20.9465C24.4715 21.4502 24.4924 22.3696 25.2489 22.8646C25.6315 23.1108 26.0716 23.2531 26.5259 23.2776C26.5618 23.2795 26.5973 23.2803 26.6324 23.2803C27.0046 23.2862 27.3701 23.1811 27.6823 22.9784C28.1987 22.6349 28.4342 22.0242 28.6059 21.5804C28.8647 20.9152 28.859 20.2625 28.5891 19.5294ZM26.5309 22.4563C26.6492 22.3799 26.7217 22.2578 26.7816 22.1601C26.857 22.0409 26.9255 21.9176 26.9869 21.7907C26.9946 21.8124 27.0011 21.8327 27.0064 21.8529C27.1152 22.2616 27.064 22.5891 26.8621 22.7746C26.7748 22.8542 26.6638 22.9031 26.5461 22.9137C26.4284 22.9243 26.3104 22.8961 26.2103 22.8333C26.1469 22.791 26.0942 22.7345 26.0565 22.6682C26.0189 22.602 25.9971 22.5278 25.9931 22.4517C26.1927 22.5563 26.3732 22.5593 26.5309 22.4563ZM27.1491 22.8921C27.3556 22.6162 27.4052 22.2101 27.2831 21.7533C27.2376 21.6012 27.1717 21.456 27.0873 21.3216L26.8965 20.9858L26.8224 21.3834C26.7843 21.5998 26.661 21.7998 26.5435 21.9941C26.4992 22.067 26.4488 22.1498 26.3908 22.1884C26.266 22.2708 26.0992 22.1639 25.953 22.0494L25.7698 21.9075L25.724 22.1544C25.6794 22.3941 25.7008 22.6124 25.7855 22.7921C25.6521 22.7388 25.5243 22.6726 25.4038 22.5944C24.7798 22.1861 24.7653 21.4029 24.8119 20.9724C24.9245 19.9351 25.4691 18.8088 25.9244 18.2756C26.0217 18.1611 26.1286 18.0489 26.2229 17.9493C26.4091 17.752 26.6011 17.5486 26.7541 17.3215C26.9994 17.9407 27.1427 18.5956 27.1785 19.2607L27.1919 19.5053L27.3907 19.3805C27.5818 19.2624 27.742 19.1004 27.8579 18.908C27.9166 19.0103 27.9945 19.1321 28.0949 19.2855C28.1888 19.4294 28.2956 19.5908 28.3201 19.6587C28.5601 20.311 28.567 20.8861 28.3414 21.4697C28.1392 21.9922 27.9392 22.4467 27.54 22.7135C27.4195 22.7924 27.2877 22.8527 27.1491 22.8921Z" fill="black"/>
</svg>
