<?xml version="1.0" encoding="UTF-8" standalone="no"?>
<svg
   version="1.1"
   id="svg237"
   width="2168.1252"
   height="480.18524"
   viewBox="0 0 2168.1252 480.18525"
   xmlns="http://www.w3.org/2000/svg"
   xmlns:svg="http://www.w3.org/2000/svg">
  <defs
     id="defs241" />
  <g
     id="g243"
     transform="translate(-348.95779,-428.94652)">
    <g
       id="g618"
       transform="translate(-5.2271232,47.044066)">
      
      <path
         style="fill:#c70019;stroke-width:0.32"
         d="m 1791.4659,861.67592 c -0.968,-0.0643 -4.064,-0.26835 -6.88,-0.45335 -71.6185,-4.70428 -134.6426,-37.6679 -174.6653,-91.35545 -12.0041,-16.10259 -21.2623,-32.82218 -29.0314,-52.42819 -2.9145,-7.35514 -3.5698,-8.57181 -5.7968,-10.76397 -5.5302,-5.44371 -14.8428,-5.44371 -20.373,0 -2.1456,2.11193 -2.8353,3.34211 -5.2972,9.44806 -19.1951,47.60733 -52.8349,84.78394 -99.2363,109.66983 -26.5539,14.24131 -58.7282,23.98044 -91.0832,27.57081 -14.7975,1.64205 -11.271,1.58029 -96.722,1.69469 -73.6951,0.0987 -80.7587,0.0633 -82.396,-0.41267 -3.7371,-1.08643 -6.6798,-3.66995 -8.4596,-7.42711 l -1.0192,-2.15145 -0.1723,-18.88 c -0.1682,-18.43354 -0.1889,-18.92429 -0.8739,-20.75235 -0.9782,-2.6105 -1.7538,-3.7641 -3.7693,-5.60608 -4.1087,-3.75511 -10.7702,-4.26829 -16.9738,-1.30762 -2.6125,1.24685 -2.9925,1.524 -43.0495,31.39811 -18.7653,13.99501 -34.7493,25.69971 -35.52,26.0105 -3.5717,1.44025 -6.9158,0.90118 -11.0319,-1.77831 -11.9531,-7.78118 -21.7608,-18.72857 -27.7934,-31.02307 -2.616,-5.33145 -3.8705,-8.60342 -5.6206,-14.65987 -1.3075,-4.52442 -1.9595,-5.61962 -3.5544,-5.96989 -1.9315,-0.42422 -2.9511,0.30551 -7.7609,5.55421 -20.75313,22.64682 -40.37815,35.95114 -64.44794,43.69091 -15.71069,5.05187 -32.19325,7.34899 -52.8721,7.36861 -16.24663,0.0154 -27.9073,-1.29341 -41.29152,-4.63466 -37.32007,-9.3166 -67.02944,-33.09606 -89.11841,-71.33049 -1.37267,-2.376 -3.148,-5.39251 -3.94515,-6.70333 -4.61299,-7.58566 -12.03635,-10.45914 -18.57257,-7.18922 -3.073,1.53735 -5.59376,4.22772 -9.71866,10.37255 -6.92563,10.31702 -12.72269,17.32854 -20.79741,25.1543 -29.78922,28.87075 -71.5969,46.92029 -115.91629,50.04429 -2.81808,0.19866 -46.68893,0.31683 -118.26193,0.31859 -103.64061,0.003 -113.93683,-0.0431 -115.52,-0.51209 -3.70128,-1.09655 -6.63171,-3.6832 -8.39888,-7.41364 l -1.0192,-2.15145 -0.0931,-222.24 c -0.0867,-207.05968 -0.0564,-222.37853 0.44317,-224.26816 1.31914,-4.98954 5.61635,-8.79655 10.90723,-9.66307 2.51156,-0.41133 210.86072,-0.39767 222.18267,0.0147 13.00822,0.47363 20.85046,1.22358 31.84,3.04489 65.34199,10.82919 105.21322,48.66547 112.45095,106.71175 5.07472,40.69894 -5.12775,71.13056 -32.4713,96.85443 -2.2768,2.14192 -5.56672,5.09392 -7.31091,6.56 -3.84707,3.2336 -4.49418,4.0552 -4.49418,5.70585 0,1.57114 1.18227,2.89981 3.48698,3.91876 13.14118,5.80995 23.46586,12.87865 32.65926,22.3599 4.44816,4.58746 7.09024,7.81702 10.9632,13.40106 5.15296,7.4296 8.72647,10.17251 13.66573,10.48947 6.00227,0.38521 9.57296,-2.17223 16.01027,-11.46711 5.55357,-8.01881 10.37498,-13.76105 17.73809,-21.12585 7.88384,-7.88567 14.2543,-13.15722 22.58192,-18.68647 26.41405,-17.53804 56.75379,-26.92604 93.6,-28.96249 3.56566,-0.19706 26.9817,-0.33037 58.88,-0.3352 34.5232,-0.005 53.44858,-0.12061 54.36338,-0.33152 3.7663,-0.86829 7.5666,-3.97882 9.2498,-7.57085 l 0.8669,-1.84998 v -16.16 c 0,-13.93213 -0.079,-16.66733 -0.5719,-19.84 -2.9821,-19.18983 -10.8625,-32.44276 -24.6252,-41.41335 -9.74733,-6.35337 -22.02448,-9.81997 -38.23623,-10.79645 -31.15277,-1.87641 -56.19245,9.85783 -67.71427,31.73268 -1.97114,3.74227 -3.58979,8.23632 -5.03207,13.97097 -1.41894,5.64199 -2.01654,6.9505 -4.25574,9.31834 -1.9064,2.01593 -4.40496,3.38534 -7.07837,3.87955 -2.64352,0.4887 -99.44909,0.4887 -102.09261,0 -5.05862,-0.93514 -8.88134,-4.59126 -10.23523,-9.78922 -1.38045,-5.2999 0.77107,-24.14745 4.37693,-38.34252 8.85974,-34.87786 29.21033,-61.73127 60.96243,-80.44221 5.06023,-2.98192 16.2913,-8.43488 22.18218,-10.76999 23.57987,-9.347 51.1207,-14.77443 83.52,-16.4592 7.92832,-0.41225 29.16109,-0.41558 36.48,-0.006 33.38878,1.86989 61.14838,8.39348 84.96008,19.9658 7.57,3.67904 11.6282,5.99785 18.56,10.60515 32.8798,21.85405 54.3759,55.60224 63.6671,99.9551 1.8991,9.06599 3.5921,21.2169 4.329,31.07104 0.1908,2.552 0.4277,5.216 0.5265,5.92 0.099,0.704 0.2735,34.472 0.3884,75.04 l 0.209,73.76 1.0126,2.13747 c 1.8324,3.86775 4.9955,6.40858 9.0997,7.30957 2.6137,0.57376 7.3584,0.26352 9.6777,-0.63277 3.4152,-1.3199 6.413,-4.45683 7.6545,-8.00988 0.3075,-0.87988 0.4279,-33.69101 0.5542,-150.88439 0.1535,-142.54006 0.1887,-149.82941 0.7301,-151.2 1.8537,-4.69321 5.877,-7.89625 10.9006,-8.67837 3.0279,-0.47139 155.646,-0.17785 161.9706,0.31156 23.788,1.84073 41.8763,4.96515 60.48,10.44681 68.5649,20.20307 120.0596,65.83421 145.1702,128.64 1.0555,2.64 2.3459,5.46983 2.8676,6.28851 5.7576,9.03584 19.1116,9.00656 24.9262,-0.0547 0.5446,-0.84877 1.7538,-3.5346 2.6872,-5.96852 6.0528,-15.7848 13.5116,-30.3134 22.7254,-44.26531 36.9987,-56.02553 97.459,-92.00867 168.5034,-100.28541 12.5171,-1.45824 16.0213,-1.63459 32.48,-1.63459 15.9424,0 18.6913,0.1312 30.72,1.46602 69.0855,7.66653 128.8393,41.87837 166.3509,95.24371 10.0591,14.3103 18.7339,30.47206 25.2114,46.97027 3.2937,8.38922 4.4026,10.23872 7.5624,12.6129 3.9605,2.9759 10.3085,3.54867 14.9378,1.34781 3.9055,-1.85684 6.2495,-4.72173 8.3427,-10.19687 11.7646,-30.77277 27.8771,-56.07053 50.055,-78.59024 40.5795,-41.20483 95.9209,-65.1512 158.8146,-68.71949 8.6454,-0.49049 30.0806,-0.21699 37.6852,0.48084 42.4857,3.89872 79.2246,16.05568 112.32,37.16691 21.3796,13.63779 41.1506,31.66624 56.8627,51.85107 25.6273,32.92256 42.0353,73.26077 47.4312,116.60707 1.337,10.74032 1.6909,16.35255 1.8567,29.44 0.2172,17.14067 -0.3818,27.19219 -2.5073,42.08 -6.315,44.23114 -24.2561,85.12711 -51.8196,118.12055 -38.4954,46.07888 -93.6746,74.95043 -156.7837,82.0343 -16.9938,1.90755 -37.8184,2.0807 -55.36,0.46029 -42.0249,-3.88199 -81.2594,-17.43072 -113.9456,-39.34851 -38.008,-25.48631 -66.4903,-61.05364 -83.4007,-104.14663 -1.1396,-2.904 -2.5141,-6.11405 -3.0546,-7.13344 -1.1985,-2.26073 -4.0816,-4.99849 -6.4374,-6.11296 -5.6214,-2.65939 -12.532,-1.44653 -16.7928,2.94727 -2.1799,2.24796 -2.8407,3.52057 -6.0062,11.56819 -22.7564,57.85225 -68.047,102.70659 -127.1627,125.93785 -22.9487,9.01834 -46.3849,14.31904 -73.6,16.64656 -5.5381,0.47364 -29.1411,0.89184 -33.6,0.59533 z M 939.8194,758.50158 c 33.66425,-2.65565 70.808,-25.57929 80.1,-49.43446 2.2229,-5.70685 2.2967,-6.48307 2.1959,-23.08659 l -0.089,-14.72093 -0.8589,-1.29747 c -0.5218,-0.78816 -1.4173,-1.56778 -2.2814,-1.98612 l -1.4226,-0.68864 -48.43855,0.10173 c -53.07558,0.11146 -49.95853,0.004 -58.51859,2.01779 -21.85808,5.14228 -35.93955,18.15834 -38.57776,35.65888 -0.54442,3.6114 -0.58483,7.35693 -0.12832,11.88743 2.14022,21.23923 14.68813,34.23789 38.06608,39.4336 8.73872,1.94214 21.08886,2.81411 29.95354,2.11478 z m 877.9354,-15.17181 c 28.1181,-3.06918 52.356,-14.46304 70.4341,-33.11001 18.99,-19.58752 29.7051,-43.9161 32.9234,-74.75264 0.611,-5.85431 0.5118,-22.2088 -0.1727,-28.48 -2.8243,-25.87527 -11.1792,-47.01191 -25.962,-65.67991 -2.8507,-3.5999 -10.3697,-11.30297 -14.0717,-14.41622 -17.3663,-14.60429 -37.7862,-23.22618 -61.92,-26.14448 -9.2591,-1.11958 -23.6461,-0.97082 -33.44,0.34582 -25.4155,3.41671 -48.2569,14.4048 -65.4055,31.464 -22.5535,22.43575 -34.5894,53.57031 -34.5937,89.48682 0,30.72643 8.8144,57.85146 25.914,79.71306 3.0473,3.89584 12.6635,13.7024 16.3252,16.64822 18.6749,15.02406 40.8192,23.4712 66.5418,25.38288 5.0675,0.37661 18.1207,0.12166 23.4271,-0.45754 z m 471.7911,0.44672 c 29.7389,-1.98713 55.4407,-13.09936 74.7292,-32.30937 24.0247,-23.92698 36.155,-57.70141 34.5163,-96.10384 -1.2176,-28.53322 -10.1662,-53.60106 -26.4077,-73.97616 -3.585,-4.49744 -11.7402,-12.65779 -16.2778,-16.28813 -20.714,-16.57235 -46.3655,-25.15187 -75.2,-25.15187 -28.8227,0 -54.4148,8.56022 -75.2,25.15344 -4.2484,3.39158 -12.5263,11.62528 -15.8913,15.80656 -14.4534,17.95917 -22.8041,38.54077 -26.0968,64.32 -0.6991,5.47331 -0.8067,26.61453 -0.1638,32.16 1.9058,16.43609 5.8174,30.35616 12.2296,43.52 11.9223,24.47577 31.3721,43.06432 56.0233,53.54253 17.3104,7.35798 37.7624,10.66166 57.739,9.32684 z M 585.57938,743.1411 c 9.25751,-0.73145 15.69985,-2.33856 22.38305,-5.58374 12.88208,-6.2552 19.67404,-17.42711 19.6552,-32.33024 -0.0186,-14.72618 -6.79885,-25.83997 -19.67178,-32.24506 -4.37014,-2.17443 -9.90394,-3.81437 -16.64,-4.93129 -3.31031,-0.54887 -6.78141,-0.58365 -58.2633,-0.58365 h -54.74333 l -1.33037,0.88035 c -0.73171,0.48419 -1.65721,1.49219 -2.05667,2.24 l -0.72634,1.35965 -0.0889,32.30656 c -0.0627,22.77286 0.016,32.81197 0.26669,34.01926 0.51945,2.50221 2.23638,4.32122 4.62217,4.89699 1.54189,0.3721 101.86244,0.34496 106.59354,-0.0288 z m 748.76652,0.003 c 26.0955,-1.63389 48.4725,-9.90486 67.3476,-24.89289 3.8242,-3.03661 13.5817,-12.78912 16.3377,-16.32925 9.6646,-12.4144 16.28,-25.14611 20.5854,-39.61779 3.6467,-12.25757 5.2517,-22.97892 5.5507,-37.07722 0.2515,-11.85805 -0.4462,-20.57062 -2.4893,-31.08339 -9.7695,-50.26963 -46.3419,-85.22387 -96.5493,-92.27725 -7.7982,-1.09552 -13.8653,-1.32278 -32.5428,-1.21898 -17.457,0.0971 -17.9531,0.1169 -19.2,0.76858 -0.7965,0.41629 -1.6427,1.25293 -2.24,2.21491 l -0.96,1.54589 -0.084,115.70512 c -0.061,83.00403 0.015,116.18538 0.2666,117.40438 0.5139,2.48746 2.236,4.30877 4.6177,4.88356 1.4786,0.35683 33.5854,0.3359 39.36,-0.0256 z M 574.93894,575.99173 c 16.34428,-2.62858 27.03817,-9.11024 32.67862,-19.80679 4.36423,-8.27632 5.25235,-20.09491 2.23034,-29.67917 -1.7057,-5.40944 -4.25271,-9.5088 -8.36602,-13.46489 -6.76368,-6.50512 -15.0095,-10.03114 -27.77603,-11.87728 -2.25923,-0.32672 -12.81239,-0.41648 -48.96,-0.41648 h -46.08001 l -1.28,0.66896 c -0.79638,0.41622 -1.64272,1.25299 -2.24,2.21472 l -0.96,1.54576 -0.0891,32.34528 c -0.0609,22.11472 0.0192,32.85136 0.2537,33.94528 0.55814,2.60502 1.99747,4.22304 4.42506,4.9744 0.46771,0.14477 21.51437,0.22845 46.77037,0.18598 41.91702,-0.0705 46.22275,-0.12592 49.39309,-0.63577 z"
         id="path620" />
    </g>
  </g>
</svg>
