<svg width="400" height="232" viewBox="0 0 400 232" fill="none" xmlns="http://www.w3.org/2000/svg">
<path d="M37.4434 128.992L43.4195 100.808H45.3087L39.3519 128.992H37.4434ZM60.7107 128.992L63.583 115.652C63.853 114.469 63.9879 113.467 63.9879 112.645C63.9879 111.616 63.7051 110.813 63.1398 110.235C62.5871 109.657 61.726 109.367 60.5564 109.367C59.1171 109.367 57.7612 109.798 56.489 110.658C55.2295 111.52 54.1628 112.728 53.2888 114.283C52.4278 115.825 51.7659 117.663 51.3032 119.796L49.337 128.992H47.4476L51.9008 108.037H53.4816L52.7683 112.298H52.884C54.9916 109.239 57.6648 107.71 60.9035 107.71C62.5742 107.71 63.8272 108.12 64.6626 108.943C65.4979 109.766 65.9156 110.948 65.9156 112.49C65.9156 113.39 65.7614 114.56 65.453 115.999L62.5999 128.992H60.7107ZM89.4714 129.301C86.5154 129.301 84.7226 127.893 84.0928 125.078H84.0158C83.8487 126.004 82.8912 130.47 81.1435 138.476H79.2348L85.7122 108.037H87.293L86.4254 113.319H86.5411C87.7106 111.352 88.9638 109.914 90.3002 109.001C91.6498 108.089 93.1212 107.632 94.7148 107.632C96.4499 107.632 97.7863 108.23 98.7246 109.425C99.6627 110.608 100.132 112.42 100.132 114.861C100.132 117.368 99.6691 119.751 98.7439 122.013C97.8186 124.275 96.5463 126.056 94.927 127.354C93.3204 128.651 91.5019 129.301 89.4714 129.301ZM94.2908 109.367C93.1727 109.367 92.0546 109.746 90.9364 110.505C89.8183 111.251 88.7774 112.323 87.8135 113.724C86.8624 115.125 86.1556 116.654 85.693 118.312C85.2302 119.957 84.999 121.293 84.999 122.322C84.999 123.928 85.391 125.22 86.1748 126.197C86.9718 127.16 88.0576 127.642 89.4328 127.642C91.0263 127.642 92.4722 127.103 93.7703 126.024C95.0682 124.944 96.122 123.383 96.9318 121.339C97.7414 119.283 98.1463 117.187 98.1463 115.054C98.1463 111.263 96.8611 109.367 94.2908 109.367ZM115.457 107.71C118.438 107.71 120.231 109.117 120.835 111.931H120.951L122.088 108.037H123.631L119.216 128.992H117.635L118.502 123.71H118.387C117.308 125.535 116.105 126.936 114.782 127.912C113.458 128.889 111.935 129.377 110.214 129.377C106.602 129.377 104.796 126.974 104.796 122.168C104.796 119.636 105.279 117.22 106.242 114.919C107.206 112.619 108.491 110.846 110.097 109.599C111.717 108.34 113.503 107.71 115.457 107.71ZM110.656 127.642C111.8 127.642 112.938 127.244 114.069 126.448C115.213 125.651 116.234 124.584 117.134 123.248C118.046 121.91 118.74 120.433 119.216 118.813C119.691 117.195 119.929 115.825 119.929 114.707C119.929 113.692 119.762 112.786 119.428 111.989C119.094 111.179 118.599 110.543 117.943 110.081C117.288 109.605 116.472 109.367 115.496 109.367C113.902 109.367 112.462 109.894 111.177 110.948C109.891 112.002 108.838 113.583 108.015 115.69C107.193 117.786 106.782 119.874 106.782 121.956C106.782 123.909 107.103 125.348 107.746 126.274C108.388 127.186 109.359 127.642 110.656 127.642ZM139.225 107.671C140.112 107.671 140.903 107.761 141.596 107.941L141.191 109.734C140.588 109.541 139.861 109.445 139.013 109.445C137.805 109.445 136.655 109.855 135.563 110.678C134.47 111.501 133.487 112.734 132.613 114.38C131.739 116.025 131.097 117.804 130.685 119.719L128.758 128.992H126.868L131.321 108.037H132.864L132.305 111.97H132.42C133.359 110.761 134.149 109.894 134.791 109.367C135.435 108.828 136.115 108.41 136.835 108.114C137.567 107.819 138.364 107.671 139.225 107.671ZM154.145 108.037L153.797 109.599H148.343L145.74 121.84C145.457 123.112 145.316 124.166 145.316 125.001C145.316 126.788 146.127 127.681 147.745 127.681C148.619 127.681 149.596 127.514 150.675 127.18V128.838C149.377 129.198 148.285 129.377 147.397 129.377C146.127 129.377 145.143 129.03 144.448 128.336C143.755 127.63 143.407 126.608 143.407 125.272C143.407 124.333 143.595 123.01 143.967 121.301L146.453 109.599H142.945L143.215 108.307L146.763 107.979L148.632 103.102H149.692L148.632 108.037H154.145ZM168.16 128.992L171.032 115.652C171.301 114.469 171.436 113.467 171.436 112.645C171.436 111.616 171.153 110.813 170.588 110.235C170.036 109.657 169.175 109.367 168.005 109.367C166.565 109.367 165.209 109.798 163.937 110.658C162.677 111.52 161.611 112.728 160.737 114.283C159.877 115.825 159.215 117.663 158.752 119.796L156.787 128.992H154.896L159.349 108.037H160.931L160.216 112.298H160.333C162.44 109.239 165.113 107.71 168.352 107.71C170.023 107.71 171.276 108.12 172.112 108.943C172.947 109.766 173.365 110.948 173.365 112.49C173.365 113.39 173.209 114.56 172.901 115.999L170.048 128.992H168.16ZM185.316 129.377C183.092 129.377 181.357 128.677 180.111 127.277C178.864 125.863 178.24 123.896 178.24 121.377C178.24 119.051 178.696 116.822 179.609 114.688C180.523 112.555 181.775 110.858 183.369 109.599C184.975 108.34 186.743 107.71 188.669 107.71C190.135 107.71 191.304 108.102 192.179 108.885C193.052 109.669 193.489 110.736 193.489 112.086C193.489 114.411 192.436 116.186 190.328 117.406C188.233 118.627 185.116 119.237 180.979 119.237H180.343C180.264 119.803 180.227 120.433 180.227 121.127C180.227 123.248 180.701 124.866 181.652 125.984C182.604 127.09 183.972 127.642 185.76 127.642C187.455 127.642 189.228 127.174 191.08 126.236V128.048C189.28 128.934 187.36 129.377 185.316 129.377ZM188.439 109.367C186.755 109.367 185.187 110.113 183.735 111.604C182.296 113.081 181.255 115.061 180.612 117.542H181.557C188.201 117.542 191.523 115.807 191.523 112.336C191.523 111.475 191.24 110.769 190.675 110.216C190.123 109.65 189.377 109.367 188.439 109.367ZM208.699 107.671C209.585 107.671 210.376 107.761 211.069 107.941L210.664 109.734C210.061 109.541 209.335 109.445 208.487 109.445C207.279 109.445 206.128 109.855 205.036 110.678C203.944 111.501 202.96 112.734 202.087 114.38C201.212 116.025 200.569 117.804 200.159 119.719L198.231 128.992H196.341L200.795 108.037H202.337L201.779 111.97H201.893C202.832 110.761 203.623 109.894 204.264 109.367C204.908 108.828 205.588 108.41 206.308 108.114C207.04 107.819 207.837 107.671 208.699 107.671ZM223.985 123.305C223.985 125.156 223.323 126.634 222 127.739C220.676 128.831 218.876 129.377 216.603 129.377C214.379 129.377 212.419 128.895 210.721 127.931V125.869C211.673 126.46 212.656 126.916 213.671 127.238C214.687 127.559 215.637 127.719 216.524 127.719C218.297 127.719 219.653 127.354 220.592 126.621C221.529 125.875 222 124.822 222 123.46C222 122.919 221.896 122.444 221.691 122.033C221.497 121.622 221.176 121.23 220.727 120.857C220.291 120.472 219.441 119.919 218.183 119.199C216.28 118.171 214.995 117.239 214.327 116.404C213.659 115.555 213.324 114.528 213.324 113.319C213.324 111.675 213.953 110.331 215.215 109.29C216.485 108.237 218.156 107.71 220.227 107.71C221.191 107.71 222.205 107.825 223.271 108.057C224.352 108.275 225.257 108.57 225.991 108.943L225.315 110.64C223.567 109.817 221.871 109.406 220.227 109.406C218.735 109.406 217.54 109.746 216.64 110.428C215.741 111.108 215.291 111.996 215.291 113.088C215.291 113.795 215.4 114.36 215.619 114.784C215.837 115.208 216.223 115.652 216.776 116.114C217.341 116.564 218.112 117.052 219.088 117.58C220.553 118.389 221.588 119.057 222.192 119.584C222.809 120.098 223.259 120.651 223.541 121.242C223.837 121.834 223.985 122.521 223.985 123.305ZM241.72 128.992L244.592 115.652C244.861 114.469 244.997 113.467 244.997 112.645C244.997 111.616 244.715 110.813 244.148 110.235C243.596 109.657 242.735 109.367 241.565 109.367C240.127 109.367 238.771 109.798 237.497 110.658C236.239 111.52 235.172 112.728 234.297 114.283C233.436 115.839 232.775 117.676 232.312 119.796L230.345 128.992H228.456L234.857 98.9961H236.707L235.049 106.919C234.484 109.49 234.06 111.282 233.777 112.298H233.892C234.895 110.846 236.091 109.72 237.479 108.924C238.88 108.114 240.357 107.71 241.912 107.71C243.507 107.71 244.739 108.128 245.615 108.963C246.488 109.798 246.924 110.974 246.924 112.49C246.924 113.39 246.771 114.56 246.461 115.999L243.609 128.992H241.72ZM253.189 128.992H251.299L255.753 108.037H257.604L253.189 128.992ZM256.581 102.659C256.581 101.952 256.724 101.386 257.007 100.962C257.289 100.538 257.675 100.326 258.163 100.326C258.895 100.326 259.261 100.789 259.261 101.714C259.261 102.447 259.12 103.025 258.837 103.449C258.555 103.873 258.188 104.085 257.739 104.085C257.365 104.085 257.077 103.963 256.871 103.719C256.677 103.462 256.581 103.109 256.581 102.659ZM269.401 129.301C266.445 129.301 264.652 127.893 264.023 125.078H263.945C263.779 126.004 262.82 130.47 261.073 138.476H259.164L265.641 108.037H267.223L266.355 113.319H266.471C267.64 111.352 268.893 109.914 270.229 109.001C271.579 108.089 273.051 107.632 274.644 107.632C276.379 107.632 277.716 108.23 278.655 109.425C279.592 110.608 280.061 112.42 280.061 114.861C280.061 117.368 279.599 119.751 278.673 122.013C277.748 124.275 276.476 126.056 274.856 127.354C273.249 128.651 271.431 129.301 269.401 129.301ZM274.22 109.367C273.101 109.367 271.984 109.746 270.865 110.505C269.748 111.251 268.707 112.323 267.743 113.724C266.792 115.125 266.085 116.654 265.623 118.312C265.16 119.957 264.928 121.293 264.928 122.322C264.928 123.928 265.32 125.22 266.104 126.197C266.901 127.16 267.987 127.642 269.363 127.642C270.956 127.642 272.401 127.103 273.699 126.024C274.997 124.944 276.052 123.383 276.861 121.339C277.671 119.283 278.076 117.187 278.076 115.054C278.076 111.263 276.791 109.367 274.22 109.367ZM309.959 128.992L308.803 115.767C308.623 112.889 308.532 111.179 308.532 110.64H308.417C307.98 111.822 307.055 113.686 305.641 116.23L298.777 128.992H296.523L296.136 108.037H297.911L298.161 123.864L298.104 126.891H298.219C299.003 125.169 299.967 123.26 301.111 121.166L308.301 108.037H309.785L311.02 121.166C311.2 123.054 311.289 124.963 311.289 126.891H311.405L311.868 125.715L313.815 121.166L319.984 108.037H321.835L312.041 128.992H309.959ZM324.821 128.992H322.932L327.385 108.037H329.236L324.821 128.992ZM328.215 102.659C328.215 101.952 328.356 101.386 328.639 100.962C328.921 100.538 329.307 100.326 329.795 100.326C330.527 100.326 330.895 100.789 330.895 101.714C330.895 102.447 330.753 103.025 330.471 103.449C330.188 103.873 329.821 104.085 329.371 104.085C328.997 104.085 328.709 103.963 328.504 103.719C328.311 103.462 328.215 103.109 328.215 102.659ZM344.812 108.037L344.465 109.599H339.009L336.407 121.84C336.124 123.112 335.983 124.166 335.983 125.001C335.983 126.788 336.792 127.681 338.411 127.681C339.285 127.681 340.263 127.514 341.341 127.18V128.838C340.043 129.198 338.951 129.377 338.064 129.377C336.792 129.377 335.809 129.03 335.116 128.336C334.421 127.63 334.075 126.608 334.075 125.272C334.075 124.333 334.26 123.01 334.633 121.301L337.12 109.599H333.611L333.881 108.307L337.428 107.979L339.299 103.102H340.357L339.299 108.037H344.812ZM358.825 128.992L361.699 115.652C361.968 114.469 362.103 113.467 362.103 112.645C362.103 111.616 361.82 110.813 361.255 110.235C360.701 109.657 359.84 109.367 358.672 109.367C357.232 109.367 355.876 109.798 354.604 110.658C353.344 111.52 352.277 112.728 351.404 114.283C350.543 115.839 349.881 117.676 349.417 119.796L347.452 128.992H345.563L351.963 98.9961H353.813L352.155 106.919C351.591 109.49 351.167 111.282 350.884 112.298H350.999C352.001 110.846 353.196 109.72 354.584 108.924C355.985 108.114 357.464 107.71 359.019 107.71C360.612 107.71 361.845 108.128 362.72 108.963C363.593 109.798 364.031 110.974 364.031 112.49C364.031 113.39 363.876 114.56 363.568 115.999L360.715 128.992H358.825Z" fill="black" fill-opacity="0.95"/>
<path d="M106.915 54.2734H106.819L106.915 63.9439H101.02V2.93494H106.915L106.819 29.3458H106.915C109.304 23.1524 115.844 19.4056 123.386 19.4056C136.736 19.4056 145.385 28.9895 145.385 42.0698C145.385 55.2366 136.736 64.9071 123.386 64.9071C115.94 64.9071 109.583 60.9002 106.915 54.2734ZM106.453 41.6363V42.6862C106.453 52.9731 113.445 60.12 123.202 60.12C133.326 60.12 139.673 52.453 139.673 42.0792C139.673 31.7923 133.326 24.2119 123.202 24.2119C113.542 24.2119 106.549 31.2722 106.453 41.6363Z" fill="#F0244D"/>
<path d="M177.661 64.4735C171.265 64.4735 167.365 60.0332 167.365 53.7532V2.93494H173.047V53.3102C173.047 57.057 175.176 59.5902 178.288 59.5902C179.531 59.5902 181.216 59.3302 183.527 58.1935V63.3371C181.301 64.2135 179.26 64.4735 177.661 64.4735Z" fill="#F0244D"/>
<path d="M304.533 42.1662C304.533 55.2369 295.644 64.917 282.303 64.917C268.876 64.917 259.976 55.2463 259.976 42.1662C259.976 29.0957 268.867 19.4154 282.303 19.4154C295.644 19.4154 304.533 29.0859 304.533 42.1662ZM265.601 42.1662C265.601 52.5398 272.132 60.1203 282.293 60.1203C292.368 60.1203 298.898 52.5398 298.898 42.1662C298.898 31.7926 292.368 24.2122 282.293 24.2122C272.141 24.2122 265.601 31.7926 265.601 42.1662Z" fill="#F0244D"/>
<path d="M242.6 42.1662C242.6 55.2369 233.71 64.917 220.37 64.917C206.943 64.917 198.043 55.2463 198.043 42.1662C198.043 29.0957 206.934 19.4154 220.37 19.4154C233.7 19.4154 242.6 29.0859 242.6 42.1662ZM203.668 42.1662C203.668 52.5398 210.199 60.1203 220.36 60.1203C230.435 60.1203 236.966 52.5398 236.966 42.1662C236.966 31.7926 230.435 24.2122 220.36 24.2122C210.199 24.2122 203.668 31.7926 203.668 42.1662Z" fill="#F0244D"/>
<path d="M399.304 37.9763V63.9537H393.13V38.3231C393.13 28.9126 388.4 24.3759 380.686 24.3759C370.851 24.3759 366.219 30.213 366.219 39.8063V63.9537H360.044V38.3231C360.044 28.9126 355.122 24.3759 347.407 24.3759C337.563 24.3759 332.939 30.213 332.939 39.8063V63.9537H326.766V20.3691H332.939V28.3925C335.734 22.3821 340.943 19.4154 347.984 19.4154C355.988 19.4154 361.97 22.8155 364.676 29.2594C367.567 22.4591 373.74 19.4154 381.263 19.4154C392.36 19.4154 399.304 25.8593 399.304 37.9763Z" fill="#F0244D"/>
<path d="M33.9239 68.0091C52.6595 68.0091 67.8476 52.821 67.8476 34.0854C67.8476 15.3496 52.6595 0.161499 33.9239 0.161499C15.1881 0.161499 0 15.3496 0 34.0854C0 52.821 15.1881 68.0091 33.9239 68.0091Z" fill="#F0244D"/>
<g clip-path="url(#clip0_8796_57288)">
<path d="M55.882 194.576C55.882 199.937 53.7939 204.978 50.0031 208.769C46.2115 212.561 41.1706 214.648 35.8089 214.648C30.4472 214.648 25.407 212.561 21.6154 208.769C17.8239 204.978 15.7365 199.937 15.7365 194.576V193.999H22.823V194.576C22.823 201.736 28.6487 207.561 35.8089 207.561C42.9698 207.561 48.7955 201.736 48.7955 194.576V193.999H55.882V194.576ZM52.6566 174.861C40.4263 174.861 36.109 184.531 35.8089 185.239C35.5095 184.531 31.1922 174.861 18.9619 174.861C8.87925 174.861 0.185791 183.338 0.185791 193.794C0.185791 214.2 19.765 230.741 35.8089 230.741C51.8534 230.741 71.4327 214.2 71.4327 193.794C71.4327 183.338 62.7392 174.861 52.6566 174.861" fill="#6E3EFF"/>
<path d="M370.625 219.513C361.583 219.513 355.413 212.625 355.413 202.866C355.413 193.108 361.583 186.219 370.625 186.219C379.666 186.219 385.836 193.108 385.836 202.866C385.836 212.625 379.666 219.513 370.625 219.513ZM370.625 174.881C354.121 174.881 342.067 186.793 342.067 202.866C342.067 218.939 354.121 230.85 370.625 230.85C387.128 230.85 399.183 218.939 399.183 202.866C399.183 186.506 387.128 174.881 370.625 174.881Z" fill="#6E3EFF"/>
<path d="M307.194 219.513C298.153 219.513 291.982 212.625 291.982 202.866C291.982 193.108 298.153 186.219 307.194 186.219C316.235 186.219 322.405 193.108 322.405 202.866C322.405 212.625 316.235 219.513 307.194 219.513ZM307.194 174.881C290.69 174.881 278.636 186.793 278.636 202.866C278.636 218.939 290.69 230.85 307.194 230.85C323.697 230.85 335.752 218.939 335.752 202.866C335.752 186.506 323.697 174.881 307.194 174.881Z" fill="#6E3EFF"/>
<path d="M118.48 218.939C108.721 218.939 103.124 211.907 103.124 202.866C103.124 193.682 108.578 186.219 118.336 186.219C127.664 186.219 133.548 193.682 133.548 202.866C133.548 211.907 128.238 218.939 118.48 218.939ZM121.924 174.882C113.027 174.882 106.425 178.757 102.55 185.358V160.244H90.4958V201.431C90.4958 218.939 100.828 230.85 118.623 230.85C133.261 230.85 146.894 220.374 146.894 202.579C146.894 187.51 137.853 174.882 121.924 174.882" fill="#6E3EFF"/>
<path d="M181.48 219.513C171.865 219.513 166.555 212.338 166.555 203.153C166.555 194.112 171.865 186.793 181.623 186.793C191.382 186.793 196.979 193.825 196.979 202.866C196.979 212.051 191.238 219.513 181.48 219.513ZM181.48 174.881C166.842 174.881 153.209 185.358 153.209 203.153C153.209 218.222 162.25 230.85 178.179 230.85C187.077 230.85 193.678 226.976 197.553 220.374V230.276H209.608V204.301C209.608 186.793 199.275 174.881 181.48 174.881Z" fill="#6E3EFF"/>
<path d="M244.337 218.939C234.578 218.939 229.268 211.907 229.268 202.866C229.268 193.682 235.152 186.219 244.48 186.219C254.239 186.219 259.692 193.538 259.692 202.866C259.692 211.907 254.095 218.939 244.337 218.939ZM260.266 160.244V185.358C256.392 178.757 249.79 174.882 240.893 174.882C224.963 174.882 215.922 187.51 215.922 202.579C215.922 220.661 228.694 230.85 243.619 230.85C261.414 230.85 272.321 218.939 272.321 201.431V160.244H260.266Z" fill="#6E3EFF"/>
</g>
<defs>
<clipPath id="clip0_8796_57288">
<rect width="399.307" height="70.6596" fill="white" transform="translate(0 160.414)"/>
</clipPath>
</defs>
</svg>
