<?xml version="1.0" encoding="UTF-8" standalone="no"?>
<svg
   width="400"
   height="232"
   viewBox="0 0 400 232"
   fill="none"
   version="1.1"
   id="svg1612"
   xml:space="preserve"
   sodipodi:docname="bumble_badoo_logo.svg"
   inkscape:version="1.2.2 (b0a84865, 2022-12-01)"
   xmlns:inkscape="http://www.inkscape.org/namespaces/inkscape"
   xmlns:sodipodi="http://sodipodi.sourceforge.net/DTD/sodipodi-0.dtd"
   xmlns="http://www.w3.org/2000/svg"
   xmlns:svg="http://www.w3.org/2000/svg"><sodipodi:namedview
     id="namedview432"
     pagecolor="#ffffff"
     bordercolor="#000000"
     borderopacity="0.25"
     inkscape:showpageshadow="2"
     inkscape:pageopacity="0.0"
     inkscape:pagecheckerboard="0"
     inkscape:deskcolor="#d1d1d1"
     showgrid="false"
     inkscape:zoom="1.0172414"
     inkscape:cx="202.50847"
     inkscape:cy="118.94915"
     inkscape:window-width="1728"
     inkscape:window-height="854"
     inkscape:window-x="0"
     inkscape:window-y="38"
     inkscape:window-maximized="0"
     inkscape:current-layer="svg1612" /><path
     d="m 37.4434,128.992 5.9761,-28.184 h 1.8892 l -5.9568,28.184 z m 23.2673,0 2.8723,-13.34 c 0.27,-1.183 0.4049,-2.185 0.4049,-3.007 0,-1.029 -0.2828,-1.832 -0.8481,-2.41 -0.5527,-0.578 -1.4138,-0.868 -2.5834,-0.868 -1.4393,0 -2.7952,0.431 -4.0674,1.291 -1.2595,0.862 -2.3262,2.07 -3.2002,3.625 -0.861,1.542 -1.5229,3.38 -1.9856,5.513 l -1.9662,9.196 h -1.8894 l 4.4532,-20.955 h 1.5808 l -0.7133,4.261 h 0.1157 c 2.1076,-3.059 4.7808,-4.588 8.0195,-4.588 1.6707,0 2.9237,0.41 3.7591,1.233 0.8353,0.823 1.253,2.005 1.253,3.547 0,0.9 -0.1542,2.07 -0.4626,3.509 l -2.8531,12.993 z m 28.7607,0.309 c -2.956,0 -4.7488,-1.408 -5.3786,-4.223 h -0.077 c -0.1671,0.926 -1.1246,5.392 -2.8723,13.398 h -1.9087 l 6.4774,-30.439 h 1.5808 l -0.8676,5.282 h 0.1157 c 1.1695,-1.967 2.4227,-3.405 3.7591,-4.318 1.3496,-0.912 2.821,-1.369 4.4146,-1.369 1.7351,0 3.0715,0.598 4.0098,1.793 0.9381,1.183 1.4074,2.995 1.4074,5.436 0,2.507 -0.4629,4.89 -1.3881,7.152 -0.9253,2.262 -2.1976,4.043 -3.8169,5.341 -1.6066,1.297 -3.4251,1.947 -5.4556,1.947 z m 4.8194,-19.934 c -1.1181,0 -2.2362,0.379 -3.3544,1.138 -1.1181,0.746 -2.159,1.818 -3.1229,3.219 -0.9511,1.401 -1.6579,2.93 -2.1205,4.588 -0.4628,1.645 -0.694,2.981 -0.694,4.01 0,1.606 0.392,2.898 1.1758,3.875 0.797,0.963 1.8828,1.445 3.258,1.445 1.5935,0 3.0394,-0.539 4.3375,-1.618 1.2979,-1.08 2.3517,-2.641 3.1615,-4.685 0.8096,-2.056 1.2145,-4.152 1.2145,-6.285 0,-3.791 -1.2852,-5.687 -3.8555,-5.687 z m 21.1662,-1.657 c 2.981,0 4.774,1.407 5.378,4.221 h 0.116 l 1.137,-3.894 h 1.543 l -4.415,20.955 h -1.581 l 0.867,-5.282 h -0.115 c -1.079,1.825 -2.282,3.226 -3.605,4.202 -1.324,0.977 -2.847,1.465 -4.568,1.465 -3.612,0 -5.418,-2.403 -5.418,-7.209 0,-2.532 0.483,-4.948 1.446,-7.249 0.964,-2.3 2.249,-4.073 3.855,-5.32 1.62,-1.259 3.406,-1.889 5.36,-1.889 z m -4.801,19.932 c 1.144,0 2.282,-0.398 3.413,-1.194 1.144,-0.797 2.165,-1.864 3.065,-3.2 0.912,-1.338 1.606,-2.815 2.082,-4.435 0.475,-1.618 0.713,-2.988 0.713,-4.106 0,-1.015 -0.167,-1.921 -0.501,-2.718 -0.334,-0.81 -0.829,-1.446 -1.485,-1.908 -0.655,-0.476 -1.471,-0.714 -2.447,-0.714 -1.594,0 -3.034,0.527 -4.319,1.581 -1.286,1.054 -2.339,2.635 -3.162,4.742 -0.822,2.096 -1.233,4.184 -1.233,6.266 0,1.953 0.321,3.392 0.964,4.318 0.642,0.912 1.613,1.368 2.91,1.368 z m 28.569,-19.971 c 0.887,0 1.678,0.09 2.371,0.27 l -0.405,1.793 c -0.603,-0.193 -1.33,-0.289 -2.178,-0.289 -1.208,0 -2.358,0.41 -3.45,1.233 -1.093,0.823 -2.076,2.056 -2.95,3.702 -0.874,1.645 -1.516,3.424 -1.928,5.339 l -1.927,9.273 h -1.89 l 4.453,-20.955 h 1.543 l -0.559,3.933 h 0.115 c 0.939,-1.209 1.729,-2.076 2.371,-2.603 0.644,-0.539 1.324,-0.957 2.044,-1.253 0.732,-0.295 1.529,-0.443 2.39,-0.443 z m 14.92,0.366 -0.348,1.562 h -5.454 l -2.603,12.241 c -0.283,1.272 -0.424,2.326 -0.424,3.161 0,1.787 0.811,2.68 2.429,2.68 0.874,0 1.851,-0.167 2.93,-0.501 v 1.658 c -1.298,0.36 -2.39,0.539 -3.278,0.539 -1.27,0 -2.254,-0.347 -2.949,-1.041 -0.693,-0.706 -1.041,-1.728 -1.041,-3.064 0,-0.939 0.188,-2.262 0.56,-3.971 l 2.486,-11.702 h -3.508 l 0.27,-1.292 3.548,-0.328 1.869,-4.877 h 1.06 l -1.06,4.935 z m 14.015,20.955 2.872,-13.34 c 0.269,-1.183 0.404,-2.185 0.404,-3.007 0,-1.029 -0.283,-1.832 -0.848,-2.41 -0.552,-0.578 -1.413,-0.868 -2.583,-0.868 -1.44,0 -2.796,0.431 -4.068,1.291 -1.26,0.862 -2.326,2.07 -3.2,3.625 -0.86,1.542 -1.522,3.38 -1.985,5.513 l -1.965,9.196 h -1.891 l 4.453,-20.955 h 1.582 l -0.715,4.261 h 0.117 c 2.107,-3.059 4.78,-4.588 8.019,-4.588 1.671,0 2.924,0.41 3.76,1.233 0.835,0.823 1.253,2.005 1.253,3.547 0,0.9 -0.156,2.07 -0.464,3.509 l -2.853,12.993 z m 17.156,0.385 c -2.224,0 -3.959,-0.7 -5.205,-2.1 -1.247,-1.414 -1.871,-3.381 -1.871,-5.9 0,-2.326 0.456,-4.555 1.369,-6.689 0.914,-2.133 2.166,-3.83 3.76,-5.089 1.606,-1.259 3.374,-1.889 5.3,-1.889 1.466,0 2.635,0.392 3.51,1.175 0.873,0.784 1.31,1.851 1.31,3.201 0,2.325 -1.053,4.1 -3.161,5.32 -2.095,1.221 -5.212,1.831 -9.349,1.831 h -0.636 c -0.079,0.566 -0.116,1.196 -0.116,1.89 0,2.121 0.474,3.739 1.425,4.857 0.952,1.106 2.32,1.658 4.108,1.658 1.695,0 3.468,-0.468 5.32,-1.406 v 1.812 c -1.8,0.886 -3.72,1.329 -5.764,1.329 z m 3.123,-20.01 c -1.684,0 -3.252,0.746 -4.704,2.237 -1.439,1.477 -2.48,3.457 -3.123,5.938 h 0.945 c 6.644,0 9.966,-1.735 9.966,-5.206 0,-0.861 -0.283,-1.567 -0.848,-2.12 -0.552,-0.566 -1.298,-0.849 -2.236,-0.849 z m 20.26,-1.696 c 0.886,0 1.677,0.09 2.37,0.27 l -0.405,1.793 c -0.603,-0.193 -1.329,-0.289 -2.177,-0.289 -1.208,0 -2.359,0.41 -3.451,1.233 -1.092,0.823 -2.076,2.056 -2.949,3.702 -0.875,1.645 -1.518,3.424 -1.928,5.339 l -1.928,9.273 h -1.89 l 4.454,-20.955 h 1.542 l -0.558,3.933 h 0.114 c 0.939,-1.209 1.73,-2.076 2.371,-2.603 0.644,-0.539 1.324,-0.957 2.044,-1.253 0.732,-0.295 1.529,-0.443 2.391,-0.443 z m 15.286,15.634 c 0,1.851 -0.662,3.329 -1.985,4.434 -1.324,1.092 -3.124,1.638 -5.397,1.638 -2.224,0 -4.184,-0.482 -5.882,-1.446 v -2.062 c 0.952,0.591 1.935,1.047 2.95,1.369 1.016,0.321 1.966,0.481 2.853,0.481 1.773,0 3.129,-0.365 4.068,-1.098 0.937,-0.746 1.408,-1.799 1.408,-3.161 0,-0.541 -0.104,-1.016 -0.309,-1.427 -0.194,-0.411 -0.515,-0.803 -0.964,-1.176 -0.436,-0.385 -1.286,-0.938 -2.544,-1.658 -1.903,-1.028 -3.188,-1.96 -3.856,-2.795 -0.668,-0.849 -1.003,-1.876 -1.003,-3.085 0,-1.644 0.629,-2.988 1.891,-4.029 1.27,-1.053 2.941,-1.58 5.012,-1.58 0.964,0 1.978,0.115 3.044,0.347 1.081,0.218 1.986,0.513 2.72,0.886 l -0.676,1.697 c -1.748,-0.823 -3.444,-1.234 -5.088,-1.234 -1.492,0 -2.687,0.34 -3.587,1.022 -0.899,0.68 -1.349,1.568 -1.349,2.66 0,0.707 0.109,1.272 0.328,1.696 0.218,0.424 0.604,0.868 1.157,1.33 0.565,0.45 1.336,0.938 2.312,1.466 1.465,0.809 2.5,1.477 3.104,2.004 0.617,0.514 1.067,1.067 1.349,1.658 0.296,0.592 0.444,1.279 0.444,2.063 z m 17.735,5.687 2.872,-13.34 c 0.269,-1.183 0.405,-2.185 0.405,-3.007 0,-1.029 -0.282,-1.832 -0.849,-2.41 -0.552,-0.578 -1.413,-0.868 -2.583,-0.868 -1.438,0 -2.794,0.431 -4.068,1.291 -1.258,0.862 -2.325,2.07 -3.2,3.625 -0.861,1.556 -1.522,3.393 -1.985,5.513 l -1.967,9.196 h -1.889 l 6.401,-29.9959 h 1.85 l -1.658,7.9229 c -0.565,2.571 -0.989,4.363 -1.272,5.379 h 0.115 c 1.003,-1.452 2.199,-2.578 3.587,-3.374 1.401,-0.81 2.878,-1.214 4.433,-1.214 1.595,0 2.827,0.418 3.703,1.253 0.873,0.835 1.309,2.011 1.309,3.527 0,0.9 -0.153,2.07 -0.463,3.509 l -2.852,12.993 z m 11.469,0 h -1.89 l 4.454,-20.955 h 1.851 z m 3.392,-26.333 c 0,-0.707 0.143,-1.273 0.426,-1.697 0.282,-0.424 0.668,-0.636 1.156,-0.636 0.732,0 1.098,0.463 1.098,1.388 0,0.733 -0.141,1.311 -0.424,1.735 -0.282,0.424 -0.649,0.636 -1.098,0.636 -0.374,0 -0.662,-0.122 -0.868,-0.366 -0.194,-0.257 -0.29,-0.61 -0.29,-1.06 z m 12.82,26.642 c -2.956,0 -4.749,-1.408 -5.378,-4.223 h -0.078 c -0.166,0.926 -1.125,5.392 -2.872,13.398 h -1.909 l 6.477,-30.439 h 1.582 l -0.868,5.282 h 0.116 c 1.169,-1.967 2.422,-3.405 3.758,-4.318 1.35,-0.912 2.822,-1.369 4.415,-1.369 1.735,0 3.072,0.598 4.011,1.793 0.937,1.183 1.406,2.995 1.406,5.436 0,2.507 -0.462,4.89 -1.388,7.152 -0.925,2.262 -2.197,4.043 -3.817,5.341 -1.607,1.297 -3.425,1.947 -5.455,1.947 z m 4.819,-19.934 c -1.119,0 -2.236,0.379 -3.355,1.138 -1.117,0.746 -2.158,1.818 -3.122,3.219 -0.951,1.401 -1.658,2.93 -2.12,4.588 -0.463,1.645 -0.695,2.981 -0.695,4.01 0,1.606 0.392,2.898 1.176,3.875 0.797,0.963 1.883,1.445 3.259,1.445 1.593,0 3.038,-0.539 4.336,-1.618 1.298,-1.08 2.353,-2.641 3.162,-4.685 0.81,-2.056 1.215,-4.152 1.215,-6.285 0,-3.791 -1.285,-5.687 -3.856,-5.687 z m 35.739,19.625 -1.156,-13.225 c -0.18,-2.878 -0.271,-4.588 -0.271,-5.127 h -0.115 c -0.437,1.182 -1.362,3.046 -2.776,5.59 l -6.864,12.762 h -2.254 l -0.387,-20.955 h 1.775 l 0.25,15.827 -0.057,3.027 h 0.115 c 0.784,-1.722 1.748,-3.631 2.892,-5.725 l 7.19,-13.129 h 1.484 l 1.235,13.129 c 0.18,1.888 0.269,3.797 0.269,5.725 h 0.116 l 0.463,-1.176 1.947,-4.549 6.169,-13.129 h 1.851 l -9.794,20.955 z m 14.862,0 h -1.889 l 4.453,-20.955 h 1.851 z m 3.394,-26.333 c 0,-0.707 0.141,-1.273 0.424,-1.697 0.282,-0.424 0.668,-0.636 1.156,-0.636 0.732,0 1.1,0.463 1.1,1.388 0,0.733 -0.142,1.311 -0.424,1.735 -0.283,0.424 -0.65,0.636 -1.1,0.636 -0.374,0 -0.662,-0.122 -0.867,-0.366 -0.193,-0.257 -0.289,-0.61 -0.289,-1.06 z m 16.597,5.378 -0.347,1.562 h -5.456 l -2.602,12.241 c -0.283,1.272 -0.424,2.326 -0.424,3.161 0,1.787 0.809,2.68 2.428,2.68 0.874,0 1.852,-0.167 2.93,-0.501 v 1.658 c -1.298,0.36 -2.39,0.539 -3.277,0.539 -1.272,0 -2.255,-0.347 -2.948,-1.041 -0.695,-0.706 -1.041,-1.728 -1.041,-3.064 0,-0.939 0.185,-2.262 0.558,-3.971 l 2.487,-11.702 h -3.509 l 0.27,-1.292 3.547,-0.328 1.871,-4.877 h 1.058 l -1.058,4.935 z m 14.013,20.955 2.874,-13.34 c 0.269,-1.183 0.404,-2.185 0.404,-3.007 0,-1.029 -0.283,-1.832 -0.848,-2.41 -0.554,-0.578 -1.415,-0.868 -2.583,-0.868 -1.44,0 -2.796,0.431 -4.068,1.291 -1.26,0.862 -2.327,2.07 -3.2,3.625 -0.861,1.556 -1.523,3.393 -1.987,5.513 l -1.965,9.196 h -1.889 l 6.4,-29.9959 h 1.85 l -1.658,7.9229 c -0.564,2.571 -0.988,4.363 -1.271,5.379 h 0.115 c 1.002,-1.452 2.197,-2.578 3.585,-3.374 1.401,-0.81 2.88,-1.214 4.435,-1.214 1.593,0 2.826,0.418 3.701,1.253 0.873,0.835 1.311,2.011 1.311,3.527 0,0.9 -0.155,2.07 -0.463,3.509 l -2.853,12.993 z"
     fill="#000000"
     fill-opacity="0.95"
     id="path1579" /><path
     d="m 106.915,54.2734 h -0.096 l 0.096,9.6705 H 101.02 V 2.93494 h 5.895 l -0.096,26.41086 h 0.096 c 2.389,-6.1934 8.929,-9.9402 16.471,-9.9402 13.35,0 21.999,9.5839 21.999,22.6642 0,13.1668 -8.649,22.8373 -21.999,22.8373 -7.446,0 -13.803,-4.0069 -16.471,-10.6337 z m -0.462,-12.6371 v 1.0499 c 0,10.2869 6.992,17.4338 16.749,17.4338 10.124,0 16.471,-7.667 16.471,-18.0408 0,-10.2869 -6.347,-17.8673 -16.471,-17.8673 -9.66,0 -16.653,7.0603 -16.749,17.4244 z"
     fill="#f0244d"
     id="path1581" /><path
     d="m 177.661,64.4735 c -6.396,0 -10.296,-4.4403 -10.296,-10.7203 V 2.93494 h 5.682 V 53.3102 c 0,3.7468 2.129,6.28 5.241,6.28 1.243,0 2.928,-0.26 5.239,-1.3967 v 5.1436 c -2.226,0.8764 -4.267,1.1364 -5.866,1.1364 z"
     fill="#f0244d"
     id="path1583" /><path
     d="m 304.533,42.1662 c 0,13.0707 -8.889,22.7508 -22.23,22.7508 -13.427,0 -22.327,-9.6707 -22.327,-22.7508 0,-13.0705 8.891,-22.7508 22.327,-22.7508 13.341,0 22.23,9.6705 22.23,22.7508 z m -38.932,0 c 0,10.3736 6.531,17.9541 16.692,17.9541 10.075,0 16.605,-7.5805 16.605,-17.9541 0,-10.3736 -6.53,-17.954 -16.605,-17.954 -10.152,0 -16.692,7.5804 -16.692,17.954 z"
     fill="#f0244d"
     id="path1585" /><path
     d="m 242.6,42.1662 c 0,13.0707 -8.89,22.7508 -22.23,22.7508 -13.427,0 -22.327,-9.6707 -22.327,-22.7508 0,-13.0705 8.891,-22.7508 22.327,-22.7508 13.33,0 22.23,9.6705 22.23,22.7508 z m -38.932,0 c 0,10.3736 6.531,17.9541 16.692,17.9541 10.075,0 16.606,-7.5805 16.606,-17.9541 0,-10.3736 -6.531,-17.954 -16.606,-17.954 -10.161,0 -16.692,7.5804 -16.692,17.954 z"
     fill="#f0244d"
     id="path1587" /><path
     d="M 399.304,37.9763 V 63.9537 H 393.13 V 38.3231 c 0,-9.4105 -4.73,-13.9472 -12.444,-13.9472 -9.835,0 -14.467,5.8371 -14.467,15.4304 v 24.1474 h -6.175 V 38.3231 c 0,-9.4105 -4.922,-13.9472 -12.637,-13.9472 -9.844,0 -14.468,5.8371 -14.468,15.4304 v 24.1474 h -6.173 V 20.3691 h 6.173 v 8.0234 c 2.795,-6.0104 8.004,-8.9771 15.045,-8.9771 8.004,0 13.986,3.4001 16.692,9.844 2.891,-6.8003 9.064,-9.844 16.587,-9.844 11.097,0 18.041,6.4439 18.041,18.5609 z"
     fill="#f0244d"
     id="path1589" /><path
     d="m 33.9239,68.0091 c 18.7356,0 33.9237,-15.1881 33.9237,-33.9237 C 67.8476,15.3496 52.6595,0.161499 33.9239,0.161499 15.1881,0.161499 0,15.3496 0,34.0854 0,52.821 15.1881,68.0091 33.9239,68.0091 Z"
     fill="#f0244d"
     id="path1591" /><defs
     id="defs1610" /><g
     style="fill:none"
     id="g509"
     transform="matrix(0.37465466,0,0,0.37465466,0.34397735,160.98508)"><path
       d="M 123.349,31.4148 H 60.3854 c -8.2326,0 -14.9137,-6.6682 -14.9137,-14.8989 0,-8.23063 6.6732,-14.8988 14.9137,-14.8988 h 62.9636 c 8.233,0 14.914,6.66817 14.914,14.8988 0,8.2307 -6.673,14.8989 -14.914,14.8989 z"
       fill="#343333"
       id="path488" /><path
       d="M 168.975,81.0835 H 14.7633 C 6.60986,81.0835 0,74.4153 0,66.1846 0,57.954 6.60986,51.2858 14.7633,51.2858 H 168.975 c 8.153,0 14.763,6.6682 14.763,14.8988 0,8.2307 -6.61,14.8989 -14.763,14.8989 z"
       fill="#343333"
       id="path490" /><path
       d="M 155.937,130.745 H 27.7924 c -8.1455,0 -14.7475,-6.668 -14.7475,-14.899 0,-8.231 6.602,-14.899 14.7475,-14.899 H 155.944 c 8.146,0 14.748,6.668 14.748,14.899 0,8.231 -6.602,14.899 -14.748,14.899 z"
       fill="#343333"
       id="path492" /><path
       d="M 116.35,180.403 H 67.4137 c -8.2326,0 -14.9137,-6.668 -14.9137,-14.899 0,-8.23 6.6732,-14.899 14.9137,-14.899 H 116.35 c 8.233,0 14.914,6.669 14.914,14.899 0,8.231 -6.673,14.899 -14.914,14.899 z"
       fill="#343333"
       id="path494" /><path
       d="m 956.315,107.659 c 1.25,-19.7336 17.031,-32.4737 40.575,-32.4737 22.29,0 38.07,12.7401 38.07,30.9737 0,0.75 -0.5,1.5 -1.76,1.5 z m 42.324,78.69 c 23.291,0 43.571,-9.496 55.351,-25.977 1.76,-2.495 2.75,-5.249 2.75,-7.996 0,-6.244 -4.75,-10.743 -11.01,-10.743 -4.01,0 -7.27,1.752 -11.52,6.243 -10.27,10.988 -21.04,15.985 -34.819,15.985 -25.048,0 -42.079,-14.485 -43.33,-36.721 h 101.679 c 2.76,0 4.26,-1.5 4.26,-3.994 v -2.747 c 0,-40.4697 -25.8,-66.9444 -65.371,-66.9444 -39.57,0 -67.871,26.7273 -67.871,66.9444 0,40.217 27.549,65.95 69.873,65.95 z m -96.67,0 c 8.017,0 13.778,-5.999 13.778,-13.987 V 13.9873 C 915.747,5.99117 909.732,3.05176e-5 901.969,3.05176e-5 894.205,3.05176e-5 888.19,5.99907 888.19,13.9873 V 172.362 c 0,7.996 6.015,13.987 13.779,13.987 z m -153.526,0 c 7.764,0 13.272,-5.999 13.272,-13.987 v -7.996 c 8.516,13.987 25.294,21.983 46.337,21.983 39.824,0 67.12,-27.224 67.12,-66.944 0,-39.7204 -27.051,-65.9504 -64.864,-65.9504 -21.289,0 -39.824,8.9907 -47.833,23.4831 V 13.9873 C 762.475,5.99117 756.46,3.05176e-5 748.697,3.05176e-5 740.933,3.05176e-5 734.918,5.99907 734.918,13.9873 V 172.362 c 0,7.996 5.762,13.987 13.525,13.987 z m 55.85,-22.48 c -27.05,0 -43.076,-16.237 -43.076,-43.967 0,-27.7299 16.026,-43.9668 43.076,-43.9668 27.051,0 43.33,16.2369 43.33,43.9668 0,27.73 -16.026,43.967 -43.33,43.967 z m -374.423,22.48 c 18.282,0 34.062,-7.996 41.573,-20.736 v 6.741 c 0,7.996 6.014,13.987 13.778,13.987 7.764,0 13.779,-5.999 13.779,-13.987 V 71.436 c 0,-7.9961 -6.015,-13.9873 -13.779,-13.9873 -7.764,0 -13.778,5.9991 -13.778,13.9873 v 60.448 c 0,21.486 -11.523,33.224 -32.559,33.224 -21.035,0 -32.811,-11.738 -32.811,-33.224 V 71.436 c 0,-7.9961 -6.015,-13.9873 -13.779,-13.9873 -7.764,0 -13.778,5.9991 -13.778,13.9873 v 61.948 c 0,33.973 18.281,52.957 51.338,52.957 z M 249.049,73.4409 V 25.2276 c 0,-1.0025 1.005,-1.9971 2.002,-1.9971 h 53.595 c 17.284,0 27.549,9.2433 27.549,24.9829 0,15.7395 -10.265,25.2275 -27.549,25.2275 z M 225.26,182.355 h 81.649 c 36.065,0 58.604,-20.484 58.604,-52.957 0,-25.48 -11.768,-39.9649 -36.318,-44.4642 19.532,-3.9941 30.802,-18.2339 30.802,-38.7175 0,-28.227 -21.036,-46.2162694824 -53.848,-46.2162694824 h -80.897 c -2.256,0 -4.005,1.7523494824 -4.005,3.9940994824 V 178.353 c 0,2.25 1.757,3.994 4.005,3.994 z m 23.789,-25.48 V 97.4213 h 56.602 c 19.785,0 31.806,11.7377 31.806,30.7217 0,18.983 -12.021,30.721 -31.806,30.721 h -54.6 c -1.005,0 -2.002,-1.002 -2.002,-1.997 z m 279.755,29.474 c 8.017,0 13.778,-5.999 13.778,-13.987 v -64.45 c 0,-20.4839 11.769,-33.2239 31.055,-33.2239 19.287,0 29.551,12.2427 29.551,33.2239 v 64.45 c 0,7.996 6.015,13.987 13.779,13.987 7.764,0 13.778,-5.999 13.778,-13.987 v -64.45 c 0,-20.4839 11.769,-33.2239 31.055,-33.2239 19.287,0 29.551,12.2427 29.551,33.2239 v 64.45 c 0,7.996 6.015,13.987 13.779,13.987 7.763,0 13.778,-5.999 13.778,-13.987 v -65.95 c 0,-33.2237 -18.535,-52.9574 -49.59,-52.9574 -20.537,0 -35.811,8.746 -44.081,24.9829 -8.262,-16.7342 -22.294,-24.9829 -42.823,-24.9829 -18.78,0 -32.305,6.9936 -39.824,20.7362 v -2.747 c 0,-7.996 -6.014,-13.9872 -13.778,-13.9872 -7.764,0 -13.778,5.9991 -13.778,13.9872 V 172.362 c 0,7.996 6.014,13.987 13.778,13.987 z"
       fill="#343333"
       id="path496" /></g></svg>
