<svg width="385" height="227" viewBox="0 0 385 227" fill="none" xmlns="http://www.w3.org/2000/svg">
<path d="M51.1307 125V97.873H53.0233V125H51.1307ZM75.0655 125V111.919C75.0655 109.89 74.6388 108.418 73.7852 107.503C72.9317 106.575 71.6082 106.111 69.8145 106.111C67.4024 106.111 65.6335 106.724 64.5079 107.948C63.3946 109.16 62.838 111.133 62.838 113.867V125H61.0011V104.831H62.5597L62.9122 107.596H63.0235C64.3347 105.493 66.6664 104.441 70.0186 104.441C74.5955 104.441 76.8839 106.897 76.8839 111.808V125H75.0655ZM103.434 125.371C100.329 125.371 98.0657 124.208 96.6431 121.883H96.5132L96.5689 123.441C96.6184 124.357 96.6431 125.359 96.6431 126.447V134.129H94.8062V104.831H96.3648L96.7173 107.707H96.8287C98.2141 105.53 100.428 104.441 103.471 104.441C106.193 104.441 108.265 105.338 109.687 107.132C111.122 108.913 111.839 111.511 111.839 114.925C111.839 118.24 111.085 120.813 109.576 122.644C108.079 124.462 106.032 125.371 103.434 125.371ZM103.397 123.738C105.463 123.738 107.058 122.971 108.184 121.438C109.322 119.904 109.891 117.757 109.891 114.999C109.891 109.074 107.751 106.111 103.471 106.111C101.121 106.111 99.3954 106.761 98.2945 108.06C97.1936 109.346 96.6431 111.449 96.6431 114.368V114.962C96.6431 118.116 97.1688 120.368 98.2203 121.716C99.2841 123.064 101.01 123.738 103.397 123.738ZM130.449 125L129.985 121.809H129.837C128.822 123.107 127.777 124.029 126.701 124.573C125.637 125.105 124.375 125.371 122.916 125.371C120.937 125.371 119.397 124.864 118.296 123.85C117.195 122.835 116.644 121.431 116.644 119.638C116.644 117.671 117.461 116.143 119.094 115.055C120.739 113.966 123.114 113.391 126.219 113.329L130.059 113.218V111.882C130.059 109.965 129.67 108.517 128.89 107.54C128.111 106.563 126.856 106.074 125.124 106.074C123.256 106.074 121.32 106.594 119.316 107.633L118.63 106.037C120.844 104.998 123.033 104.479 125.198 104.479C127.412 104.479 129.064 105.054 130.152 106.204C131.253 107.354 131.804 109.148 131.804 111.585V125H130.449ZM123.027 123.701C125.179 123.701 126.874 123.089 128.111 121.864C129.36 120.627 129.985 118.914 129.985 116.725V114.739L126.46 114.888C123.627 115.024 121.605 115.469 120.392 116.224C119.193 116.966 118.593 118.129 118.593 119.712C118.593 120.974 118.976 121.957 119.743 122.662C120.522 123.355 121.617 123.701 123.027 123.701ZM147.055 104.441C147.908 104.441 148.824 104.528 149.801 104.701L149.448 106.464C148.607 106.254 147.735 106.148 146.832 106.148C145.113 106.148 143.703 106.878 142.602 108.338C141.501 109.798 140.95 111.641 140.95 113.867V125H139.113V104.831H140.672L140.857 108.468H140.987C141.816 106.983 142.701 105.944 143.641 105.351C144.581 104.744 145.719 104.441 147.055 104.441ZM160.005 123.738C161.168 123.738 162.182 123.639 163.048 123.441V124.926C162.158 125.223 161.131 125.371 159.968 125.371C158.187 125.371 156.869 124.895 156.016 123.942C155.175 122.99 154.754 121.493 154.754 119.452V106.427H151.767V105.351L154.754 104.516L155.682 99.9512H156.628V104.831H162.547V106.427H156.628V119.192C156.628 120.739 156.9 121.883 157.445 122.625C157.989 123.367 158.842 123.738 160.005 123.738ZM182.233 125V111.919C182.233 109.89 181.806 108.418 180.953 107.503C180.099 106.575 178.776 106.111 176.982 106.111C174.57 106.111 172.801 106.724 171.675 107.948C170.562 109.16 170.005 111.133 170.005 113.867V125H168.168V104.831H169.727L170.08 107.596H170.191C171.502 105.493 173.834 104.441 177.186 104.441C181.763 104.441 184.051 106.897 184.051 111.808V125H182.233ZM199.488 125.371C196.556 125.371 194.268 124.468 192.623 122.662C190.99 120.856 190.174 118.326 190.174 115.073C190.174 111.857 190.965 109.284 192.549 107.354C194.132 105.412 196.266 104.441 198.95 104.441C201.325 104.441 203.199 105.27 204.572 106.928C205.945 108.585 206.632 110.837 206.632 113.682V115.166H192.103C192.128 117.937 192.771 120.052 194.033 121.512C195.307 122.971 197.125 123.701 199.488 123.701C200.638 123.701 201.647 123.621 202.512 123.46C203.391 123.299 204.498 122.953 205.834 122.421V124.091C204.696 124.586 203.644 124.92 202.679 125.093C201.715 125.278 200.651 125.371 199.488 125.371ZM198.95 106.074C197.008 106.074 195.449 106.717 194.274 108.004C193.099 109.278 192.413 111.121 192.215 113.533H204.683C204.683 111.195 204.176 109.371 203.162 108.06C202.148 106.736 200.744 106.074 198.95 106.074ZM220.899 104.441C221.753 104.441 222.668 104.528 223.646 104.701L223.293 106.464C222.452 106.254 221.58 106.148 220.677 106.148C218.957 106.148 217.547 106.878 216.446 108.338C215.345 109.798 214.795 111.641 214.795 113.867V125H212.958V104.831H214.517L214.702 108.468H214.832C215.661 106.983 216.545 105.944 217.485 105.351C218.425 104.744 219.563 104.441 220.899 104.441ZM241.031 119.749C241.031 121.555 240.344 122.947 238.971 123.924C237.598 124.889 235.65 125.371 233.126 125.371C230.43 125.371 228.29 124.957 226.706 124.128V122.143C228.735 123.157 230.875 123.664 233.126 123.664C235.118 123.664 236.627 123.336 237.654 122.681C238.693 122.013 239.212 121.128 239.212 120.027C239.212 119.013 238.798 118.16 237.969 117.467C237.153 116.774 235.804 116.094 233.924 115.426C231.908 114.696 230.491 114.071 229.675 113.552C228.859 113.02 228.24 112.426 227.82 111.771C227.411 111.103 227.207 110.292 227.207 109.34C227.207 107.831 227.838 106.637 229.1 105.759C230.374 104.881 232.149 104.441 234.425 104.441C236.602 104.441 238.668 104.85 240.622 105.666L239.936 107.336C237.957 106.52 236.12 106.111 234.425 106.111C232.78 106.111 231.475 106.383 230.51 106.928C229.545 107.472 229.063 108.227 229.063 109.191C229.063 110.243 229.434 111.084 230.176 111.715C230.931 112.346 232.396 113.051 234.573 113.83C236.392 114.486 237.715 115.079 238.544 115.611C239.373 116.131 239.991 116.725 240.4 117.393C240.82 118.061 241.031 118.846 241.031 119.749ZM261.05 125V111.919C261.05 109.89 260.624 108.418 259.77 107.503C258.916 106.575 257.593 106.111 255.799 106.111C253.387 106.111 251.618 106.724 250.493 107.948C249.379 109.16 248.823 111.133 248.823 113.867V125H246.986V96.1289H248.823V105.313L248.73 107.893H248.86C249.614 106.68 250.567 105.802 251.717 105.258C252.868 104.714 254.296 104.441 256.003 104.441C260.58 104.441 262.869 106.897 262.869 111.808V125H261.05ZM271.997 125H270.16V104.831H271.997V125ZM269.9 99.2275C269.9 98.04 270.29 97.4463 271.069 97.4463C271.453 97.4463 271.749 97.6009 271.96 97.9102C272.182 98.2194 272.294 98.6585 272.294 99.2275C272.294 99.7842 272.182 100.223 271.96 100.545C271.749 100.867 271.453 101.027 271.069 101.027C270.29 101.027 269.9 100.427 269.9 99.2275ZM288.157 125.371C285.052 125.371 282.789 124.208 281.366 121.883H281.236L281.292 123.441C281.341 124.357 281.366 125.359 281.366 126.447V134.129H279.529V104.831H281.088L281.44 107.707H281.552C282.937 105.53 285.151 104.441 288.194 104.441C290.916 104.441 292.988 105.338 294.41 107.132C295.845 108.913 296.562 111.511 296.562 114.925C296.562 118.24 295.808 120.813 294.299 122.644C292.802 124.462 290.755 125.371 288.157 125.371ZM288.12 123.738C290.186 123.738 291.782 122.971 292.907 121.438C294.045 119.904 294.614 117.757 294.614 114.999C294.614 109.074 292.474 106.111 288.194 106.111C285.844 106.111 284.118 106.761 283.018 108.06C281.917 109.346 281.366 111.449 281.366 114.368V114.962C281.366 118.116 281.892 120.368 282.943 121.716C284.007 123.064 285.733 123.738 288.12 123.738ZM329.681 125L325.265 111.511C324.981 110.595 324.616 109.253 324.17 107.484H324.059L323.669 108.857L322.834 111.548L318.344 125H316.526L310.755 104.831H312.722L315.951 116.521C316.705 119.415 317.2 121.543 317.435 122.903H317.546C318.276 120.009 318.808 118.085 319.142 117.133L323.298 104.831H324.968L328.92 117.096C329.811 120.003 330.355 121.926 330.553 122.866H330.664C330.763 122.062 331.258 119.91 332.149 116.409L335.229 104.831H337.084L331.611 125H329.681ZM343.652 125H341.815V104.831H343.652V125ZM341.555 99.2275C341.555 98.04 341.945 97.4463 342.724 97.4463C343.108 97.4463 343.405 97.6009 343.615 97.9102C343.838 98.2194 343.949 98.6585 343.949 99.2275C343.949 99.7842 343.838 100.223 343.615 100.545C343.405 100.867 343.108 101.027 342.724 101.027C341.945 101.027 341.555 100.427 341.555 99.2275ZM356.51 123.738C357.672 123.738 358.687 123.639 359.553 123.441V124.926C358.662 125.223 357.635 125.371 356.473 125.371C354.691 125.371 353.374 124.895 352.52 123.942C351.679 122.99 351.259 121.493 351.259 119.452V106.427H348.271V105.351L351.259 104.516L352.186 99.9512H353.133V104.831H359.052V106.427H353.133V119.192C353.133 120.739 353.405 121.883 353.949 122.625C354.493 123.367 355.347 123.738 356.51 123.738ZM378.737 125V111.919C378.737 109.89 378.311 108.418 377.457 107.503C376.604 106.575 375.28 106.111 373.486 106.111C371.074 106.111 369.305 106.724 368.18 107.948C367.067 109.16 366.51 111.133 366.51 113.867V125H364.673V96.1289H366.51V105.313L366.417 107.893H366.547C367.302 106.68 368.254 105.802 369.404 105.258C370.555 104.714 371.984 104.441 373.691 104.441C378.267 104.441 380.556 106.897 380.556 111.808V125H378.737Z" fill="black" fill-opacity="0.95"/>
<path d="M113.642 218.641C111.757 218.625 109.895 218.232 108.164 217.485C106.434 216.738 104.87 215.652 103.565 214.292C102.261 212.931 101.242 211.323 100.568 209.563C99.8941 207.803 99.5793 205.925 99.6421 204.041C99.5875 202.16 99.9079 200.286 100.585 198.529C101.261 196.772 102.281 195.168 103.584 193.809C104.887 192.45 106.447 191.364 108.174 190.614C109.901 189.865 111.76 189.466 113.642 189.441C121.452 189.441 127.552 195.111 127.552 204.041C127.552 212.971 121.452 218.641 113.642 218.641ZM115.102 181.541C108.492 181.541 102.392 185.021 99.6421 189.921V163.681C99.6707 163.077 99.5763 162.474 99.3649 161.907C99.1534 161.34 98.8291 160.823 98.4117 160.385C97.9942 159.947 97.4924 159.599 96.9364 159.361C96.3804 159.123 95.7819 159 95.1771 159C94.5723 159 93.9737 159.123 93.4178 159.361C92.8618 159.599 92.3598 159.947 91.9424 160.385C91.525 160.823 91.2007 161.34 90.9892 161.907C90.7777 162.474 90.6835 163.077 90.7121 163.681V222.071C90.6835 222.675 90.7777 223.279 90.9892 223.846C91.2007 224.412 91.525 224.93 91.9424 225.368C92.3598 225.806 92.8618 226.154 93.4178 226.392C93.9737 226.63 94.5723 226.753 95.1771 226.753C95.7819 226.753 96.3804 226.63 96.9364 226.392C97.4924 226.154 97.9942 225.806 98.4117 225.368C98.8291 224.93 99.1534 224.412 99.3649 223.846C99.5763 223.279 99.6707 222.675 99.6421 222.071V218.161C102.202 223.091 108.492 226.541 115.102 226.541C126.262 226.541 136.222 217.541 136.222 204.041C136.222 190.541 126.222 181.541 115.102 181.541" fill="#FFC629"/>
<path d="M291.132 218.641C289.247 218.625 287.385 218.232 285.654 217.485C283.924 216.738 282.36 215.652 281.055 214.292C279.751 212.931 278.732 211.323 278.058 209.563C277.384 207.803 277.069 205.925 277.132 204.041C277.077 202.16 277.398 200.286 278.075 198.529C278.751 196.772 279.771 195.168 281.074 193.809C282.377 192.45 283.937 191.364 285.664 190.614C287.391 189.865 289.25 189.466 291.132 189.441C298.952 189.441 305.052 195.111 305.052 204.041C305.052 212.971 298.952 218.641 291.132 218.641ZM292.592 181.541C285.982 181.541 279.892 185.021 277.142 189.921V163.681C277.171 163.077 277.076 162.474 276.865 161.907C276.653 161.34 276.329 160.823 275.912 160.385C275.494 159.947 274.992 159.599 274.436 159.361C273.88 159.123 273.282 159 272.677 159C272.072 159 271.474 159.123 270.918 159.361C270.362 159.599 269.86 159.947 269.442 160.385C269.025 160.823 268.701 161.34 268.489 161.907C268.278 162.474 268.183 163.077 268.212 163.681V222.071C268.183 222.675 268.278 223.279 268.489 223.846C268.701 224.412 269.025 224.93 269.442 225.368C269.86 225.806 270.362 226.154 270.918 226.392C271.474 226.63 272.072 226.753 272.677 226.753C273.282 226.753 273.88 226.63 274.436 226.392C274.992 226.154 275.494 225.806 275.912 225.368C276.329 224.93 276.653 224.412 276.865 223.846C277.076 223.279 277.171 222.675 277.142 222.071V218.161C279.702 223.091 285.982 226.541 292.592 226.541C303.762 226.541 313.722 217.541 313.722 204.041C313.722 190.541 303.722 181.541 292.592 181.541" fill="#FFC629"/>
<path d="M178.622 182.741C177.438 182.744 176.304 183.216 175.468 184.054C174.632 184.892 174.162 186.028 174.162 187.211V202.411C174.162 213.141 169.162 218.291 161.542 218.291C155.352 218.291 151.322 213.571 151.322 206.621V187.211C151.351 186.607 151.256 186.004 151.045 185.437C150.833 184.87 150.509 184.353 150.092 183.915C149.674 183.477 149.172 183.129 148.616 182.891C148.06 182.653 147.462 182.53 146.857 182.53C146.252 182.53 145.654 182.653 145.098 182.891C144.542 183.129 144.04 183.477 143.622 183.915C143.205 184.353 142.881 184.87 142.669 185.437C142.458 186.004 142.363 186.607 142.392 187.211V208.421C142.392 219.151 149.172 226.541 159.472 226.541C165.742 226.541 171.922 223.041 174.162 218.161V222.071C174.133 222.676 174.228 223.279 174.439 223.846C174.651 224.412 174.975 224.93 175.392 225.368C175.81 225.806 176.312 226.154 176.868 226.392C177.424 226.63 178.022 226.753 178.627 226.753C179.232 226.753 179.83 226.63 180.386 226.392C180.942 226.154 181.444 225.806 181.862 225.368C182.279 224.93 182.603 224.412 182.815 223.846C183.026 223.279 183.121 222.676 183.092 222.071V187.211C183.092 186.026 182.621 184.889 181.783 184.051C180.945 183.212 179.808 182.741 178.622 182.741" fill="#FFC629"/>
<path d="M244.032 181.541C237.032 181.541 231.212 184.541 228.142 190.081C225.782 184.861 220.072 181.541 213.972 181.541C211.162 181.605 208.42 182.412 206.023 183.878C203.625 185.345 201.659 187.419 200.322 189.891V187.211C200.351 186.607 200.256 186.003 200.045 185.437C199.833 184.87 199.509 184.352 199.092 183.915C198.674 183.477 198.172 183.129 197.616 182.891C197.06 182.653 196.462 182.53 195.857 182.53C195.252 182.53 194.654 182.653 194.098 182.891C193.542 183.129 193.04 183.477 192.622 183.915C192.205 184.352 191.881 184.87 191.669 185.437C191.458 186.003 191.363 186.607 191.392 187.211V222.071C191.363 222.675 191.458 223.279 191.669 223.846C191.881 224.412 192.205 224.93 192.622 225.368C193.04 225.805 193.542 226.154 194.098 226.392C194.654 226.63 195.252 226.753 195.857 226.753C196.462 226.753 197.06 226.63 197.616 226.392C198.172 226.154 198.674 225.805 199.092 225.368C199.509 224.93 199.833 224.412 200.045 223.846C200.256 223.279 200.351 222.675 200.322 222.071V204.211C200.322 194.681 204.792 189.791 211.662 189.791C217.152 189.791 221.282 193.731 221.282 200.001V222.071C221.253 222.675 221.348 223.279 221.559 223.846C221.771 224.412 222.095 224.93 222.512 225.368C222.93 225.805 223.432 226.154 223.988 226.392C224.544 226.63 225.142 226.753 225.747 226.753C226.352 226.753 226.95 226.63 227.506 226.392C228.062 226.154 228.564 225.805 228.982 225.368C229.399 224.93 229.723 224.412 229.935 223.846C230.146 223.279 230.241 222.675 230.212 222.071V204.211C230.212 194.681 234.762 189.791 241.712 189.791C247.212 189.791 251.332 193.731 251.332 200.001L251.242 222.071C251.213 222.675 251.308 223.279 251.519 223.846C251.731 224.412 252.055 224.93 252.472 225.368C252.89 225.805 253.392 226.154 253.948 226.392C254.504 226.63 255.102 226.753 255.707 226.753C256.312 226.753 256.91 226.63 257.466 226.392C258.022 226.154 258.524 225.805 258.942 225.368C259.359 224.93 259.683 224.412 259.895 223.846C260.106 223.279 260.201 222.675 260.172 222.071V198.201C260.172 188.201 252.872 181.541 244.032 181.541" fill="#FFC629"/>
<path d="M340.302 221.001C340.063 220.007 339.452 219.141 338.594 218.583C337.737 218.025 336.698 217.817 335.692 218.001C335.197 218.089 334.695 218.136 334.192 218.141C330.932 218.141 328.702 216.081 328.702 213.141V163.681C328.702 163.095 328.586 162.514 328.362 161.972C328.137 161.431 327.807 160.938 327.392 160.524C326.977 160.11 326.484 159.782 325.942 159.558C325.4 159.335 324.819 159.22 324.232 159.221V159.221C323.646 159.22 323.064 159.335 322.522 159.558C321.98 159.782 321.487 160.11 321.072 160.524C320.657 160.938 320.327 161.431 320.103 161.972C319.878 162.514 319.762 163.095 319.762 163.681V213.581C319.741 216.996 321.072 220.28 323.465 222.716C325.858 225.152 329.118 226.542 332.532 226.581C334.273 226.615 336.009 226.368 337.672 225.851C338.618 225.542 339.415 224.891 339.907 224.026C340.399 223.16 340.551 222.143 340.332 221.171L340.302 221.001Z" fill="#FFC629"/>
<path d="M350.232 199.831C350.842 196.853 352.476 194.182 354.852 192.284C357.227 190.385 360.192 189.38 363.232 189.441C369.072 189.441 373.962 192.881 375.342 199.831H350.232ZM384.322 203.571C383.622 197.231 380.192 181.571 363.202 181.571C351.202 181.571 341.132 190.571 341.132 204.161C341.132 217.751 351.262 226.571 362.852 226.571C370.252 226.571 376.492 223.821 380.542 218.341C380.879 217.92 381.128 217.434 381.273 216.914C381.417 216.394 381.455 215.85 381.384 215.315C381.313 214.78 381.134 214.265 380.859 213.801C380.583 213.336 380.217 212.933 379.781 212.614C379.346 212.295 378.85 212.068 378.324 211.946C377.798 211.824 377.253 211.809 376.722 211.903C376.19 211.997 375.683 212.198 375.231 212.493C374.779 212.789 374.392 213.172 374.092 213.621C371.092 217.811 366.952 218.841 362.852 218.841C356.582 218.841 350.852 214.121 349.972 206.221H381.972C382.303 206.22 382.631 206.15 382.933 206.014C383.236 205.878 383.506 205.681 383.727 205.433C383.947 205.186 384.114 204.895 384.214 204.58C384.315 204.264 384.349 203.931 384.312 203.601" fill="#FFC629"/>
<path d="M54.9221 197.141H21.2521C20.1382 197.141 19.0699 196.699 18.2822 195.911C17.4946 195.124 17.0521 194.055 17.0521 192.941C17.0521 191.828 17.4946 190.759 18.2822 189.972C19.0699 189.184 20.1382 188.741 21.2521 188.741H54.9221C56.036 188.741 57.1043 189.184 57.8919 189.972C58.6796 190.759 59.1221 191.828 59.1221 192.941C59.1221 194.055 58.6796 195.124 57.8919 195.911C57.1043 196.699 56.036 197.141 54.9221 197.141ZM43.2421 211.641H32.9221C31.8081 211.641 30.7399 211.199 29.9522 210.411C29.1646 209.624 28.7221 208.555 28.7221 207.441C28.7221 206.328 29.1646 205.259 29.9522 204.472C30.7399 203.684 31.8081 203.241 32.9221 203.241H43.2321C44.346 203.241 45.4143 203.684 46.2019 204.472C46.9896 205.259 47.4321 206.328 47.4321 207.441C47.4321 208.555 46.9896 209.624 46.2019 210.411C45.4143 211.199 44.346 211.641 43.2321 211.641H43.2421ZM28.7921 174.231H47.3821C48.496 174.231 49.5643 174.674 50.3519 175.462C51.1396 176.249 51.5821 177.318 51.5821 178.431C51.5821 179.545 51.1396 180.614 50.3519 181.401C49.5643 182.189 48.496 182.631 47.3821 182.631H28.7921C27.6781 182.631 26.6099 182.189 25.8222 181.401C25.0346 180.614 24.5921 179.545 24.5921 178.431C24.5921 177.318 25.0346 176.249 25.8222 175.462C26.6099 174.674 27.6781 174.231 28.7921 174.231V174.231ZM75.5621 190.431L58.9221 161.661C58.4944 160.923 57.8807 160.309 57.1421 159.881C56.4035 159.453 55.5657 159.225 54.7121 159.221H21.5021C20.6435 159.221 19.7999 159.446 19.0558 159.874C18.3117 160.303 17.6931 160.919 17.2621 161.661L0.652054 190.431C0.224815 191.175 0 192.018 0 192.876C0 193.734 0.224815 194.577 0.652054 195.321L17.2621 224.091C17.6931 224.834 18.3117 225.45 19.0558 225.878C19.7999 226.307 20.6435 226.532 21.5021 226.531H54.7121C55.5657 226.528 56.4035 226.3 57.1421 225.872C57.8807 225.444 58.4944 224.83 58.9221 224.091L75.532 195.321C75.9593 194.577 76.1841 193.734 76.1841 192.876C76.1841 192.018 75.9593 191.175 75.532 190.431" fill="#FFC629"/>
<path d="M102.906 52.0831H102.813L102.906 61.3909H97.2319V2.6698H102.906L102.813 28.0903H102.906C105.205 22.1292 111.5 18.5228 118.759 18.5228C131.608 18.5228 139.933 27.7473 139.933 40.337C139.933 53.0102 131.608 62.318 118.759 62.318C111.592 62.318 105.474 58.4614 102.906 52.0831ZM102.461 39.9198V40.9303C102.461 50.8315 109.191 57.7104 118.582 57.7104C128.326 57.7104 134.435 50.3309 134.435 40.3462C134.435 30.4451 128.326 23.149 118.582 23.149C109.284 23.149 102.553 29.9444 102.461 39.9198Z" fill="#F0244D"/>
<path d="M170.999 61.9008C164.843 61.9008 161.089 57.6269 161.089 51.5824V2.6698H166.558V51.1559C166.558 54.7623 168.607 57.2005 171.602 57.2005C172.798 57.2005 174.42 56.9502 176.645 55.8562V60.8068C174.503 61.6505 172.538 61.9008 170.999 61.9008Z" fill="#F0244D"/>
<path d="M293.114 40.4297C293.114 53.0101 284.557 62.3273 271.717 62.3273C258.793 62.3273 250.227 53.0194 250.227 40.4297C250.227 27.8492 258.784 18.5321 271.717 18.5321C284.557 18.5321 293.114 27.84 293.114 40.4297ZM255.641 40.4297C255.641 50.4143 261.927 57.7104 271.707 57.7104C281.405 57.7104 287.69 50.4143 287.69 40.4297C287.69 30.4451 281.405 23.149 271.707 23.149C261.936 23.149 255.641 30.4451 255.641 40.4297Z" fill="#F0244D"/>
<path d="M233.503 40.4297C233.503 53.0101 224.946 62.3273 212.106 62.3273C199.183 62.3273 190.616 53.0194 190.616 40.4297C190.616 27.8492 199.173 18.5321 212.106 18.5321C224.937 18.5321 233.503 27.84 233.503 40.4297ZM196.031 40.4297C196.031 50.4143 202.316 57.7104 212.097 57.7104C221.794 57.7104 228.08 50.4143 228.08 40.4297C228.08 30.4451 221.794 23.149 212.097 23.149C202.316 23.149 196.031 30.4451 196.031 40.4297Z" fill="#F0244D"/>
<path d="M384.33 36.3969V61.4002H378.387V36.7306C378.387 27.6731 373.835 23.3065 366.41 23.3065C356.944 23.3065 352.485 28.9247 352.485 38.1583V61.4002H346.542V36.7306C346.542 27.6731 341.805 23.3065 334.379 23.3065C324.904 23.3065 320.454 28.9247 320.454 38.1583V61.4002H314.512V19.4499H320.454V27.1725C323.143 21.3875 328.158 18.5321 334.935 18.5321C342.639 18.5321 348.396 21.8047 351.001 28.0068C353.783 21.4617 359.725 18.5321 366.966 18.5321C377.646 18.5321 384.33 24.7343 384.33 36.3969Z" fill="#F0244D"/>
<path d="M32.6517 65.3033C50.6847 65.3033 65.3033 50.6847 65.3033 32.6517C65.3033 14.6186 50.6847 0 32.6517 0C14.6186 0 0 14.6186 0 32.6517C0 50.6847 14.6186 65.3033 32.6517 65.3033Z" fill="#F0244D"/>
</svg>
