<svg width="310" height="118" viewBox="0 0 310 118" fill="none" xmlns="http://www.w3.org/2000/svg">
<path d="M83.0035 42.0102H82.9287L83.0035 49.5179H78.4271V2.15356H83.0035L82.9287 22.6577H83.0035C84.858 17.8495 89.9354 14.9406 95.7905 14.9406C106.155 14.9406 112.87 22.381 112.87 32.5359C112.87 42.758 106.155 50.2657 95.7905 50.2657C90.0102 50.2657 85.0748 47.155 83.0035 42.0102ZM82.6446 32.1994V33.0144C82.6446 41.0007 88.0734 46.5493 95.6484 46.5493C103.508 46.5493 108.435 40.5969 108.435 32.5433C108.435 24.557 103.508 18.672 95.6484 18.672C88.1482 18.672 82.7193 24.1532 82.6446 32.1994Z" fill="#F0244D"/>
<path d="M137.928 49.9292C132.962 49.9292 129.934 46.4819 129.934 41.6064V2.15356H134.346V41.2624C134.346 44.1713 135.998 46.1379 138.414 46.1379C139.378 46.1379 140.687 45.936 142.482 45.0537V49.0468C140.754 49.7273 139.169 49.9292 137.928 49.9292Z" fill="#F0244D"/>
<path d="M236.425 32.6107C236.425 42.7581 229.523 50.2733 219.166 50.2733C208.742 50.2733 201.833 42.7655 201.833 32.6107C201.833 22.4633 208.735 14.9481 219.166 14.9481C229.523 14.9481 236.425 22.4558 236.425 32.6107ZM206.2 32.6107C206.2 40.6643 211.27 46.5493 219.159 46.5493C226.981 46.5493 232.05 40.6643 232.05 32.6107C232.05 24.5571 226.981 18.6721 219.159 18.6721C211.277 18.6721 206.2 24.5571 206.2 32.6107Z" fill="#F0244D"/>
<path d="M188.343 32.6107C188.343 42.7581 181.441 50.2733 171.084 50.2733C160.66 50.2733 153.751 42.7655 153.751 32.6107C153.751 22.4633 160.653 14.9481 171.084 14.9481C181.434 14.9481 188.343 22.4558 188.343 32.6107ZM158.118 32.6107C158.118 40.6643 163.188 46.5493 171.077 46.5493C178.899 46.5493 183.969 40.6643 183.969 32.6107C183.969 24.5571 178.899 18.6721 171.077 18.6721C163.188 18.6721 158.118 24.5571 158.118 32.6107Z" fill="#F0244D"/>
<path d="M310 29.3578V49.5254H305.207V29.627C305.207 22.3212 301.535 18.7992 295.545 18.7992C287.911 18.7992 284.314 23.3307 284.314 30.7786V49.5254H279.52V29.627C279.52 22.3212 275.699 18.7992 269.71 18.7992C262.067 18.7992 258.478 23.3307 258.478 30.7786V49.5254H253.685V15.6884H258.478V21.9174C260.646 17.2513 264.692 14.9481 270.158 14.9481C276.372 14.9481 281.016 17.5878 283.117 22.5904C285.361 17.3111 290.154 14.9481 295.994 14.9481C304.608 14.9481 310 19.9508 310 29.3578Z" fill="#F0244D"/>
<path d="M26.3368 52.6735C40.8822 52.6735 52.6735 40.8822 52.6735 26.3368C52.6735 11.7914 40.8822 0 26.3368 0C11.7914 0 0 11.7914 0 26.3368C0 40.8822 11.7914 52.6735 26.3368 52.6735Z" fill="#F0244D"/>
<path d="M7.27509 116.168C6.74384 116.168 6.17938 116.063 5.58173 115.853V114.358C6.16831 114.535 6.7217 114.624 7.24188 114.624C8.21584 114.624 8.95738 114.331 9.46649 113.744C9.97561 113.158 10.3906 112.128 10.7116 110.656L14.7956 91.2988H11.3923L11.6247 90.1865L15.028 89.9541L15.6091 87.2979C15.9964 85.4385 16.6384 84.0882 17.5349 83.2471C18.4424 82.4059 19.7041 81.9854 21.32 81.9854C22.128 81.9854 23.0466 82.1569 24.0759 82.5L23.6608 83.8281C22.6979 83.5293 21.8845 83.3799 21.2204 83.3799C20.1579 83.3799 19.3057 83.6787 18.6638 84.2764C18.0329 84.863 17.5681 85.848 17.2692 87.2314L16.6882 89.9541H20.8054L20.5397 91.2988H16.4225L12.239 111.055C11.8737 112.837 11.2982 114.132 10.5124 114.939C9.72658 115.758 8.64748 116.168 7.27509 116.168Z" fill="black" fill-opacity="0.95"/>
<path d="M30.5 89.6055C32.4922 89.6055 34.0306 90.2087 35.1152 91.415C36.2109 92.6104 36.7588 94.265 36.7588 96.3789C36.7588 98.5592 36.3604 100.601 35.5635 102.505C34.7777 104.397 33.6986 105.842 32.3262 106.838C30.9538 107.834 29.3711 108.332 27.5781 108.332C25.5417 108.332 23.9922 107.729 22.9297 106.522C21.8783 105.305 21.3525 103.567 21.3525 101.31C21.3525 99.1956 21.7565 97.2145 22.5645 95.3662C23.3724 93.5179 24.4626 92.0957 25.835 91.0996C27.2074 90.1035 28.7624 89.6055 30.5 89.6055ZM30.3672 91.0332C28.9948 91.0332 27.7607 91.4704 26.665 92.3447C25.5693 93.208 24.695 94.4531 24.042 96.0801C23.389 97.696 23.0625 99.4115 23.0625 101.227C23.0625 105.012 24.6231 106.904 27.7441 106.904C29.1497 106.904 30.3949 106.478 31.4795 105.626C32.5752 104.763 33.444 103.501 34.0859 101.841C34.7389 100.17 35.0654 98.3379 35.0654 96.3457C35.0654 94.6413 34.6615 93.3298 33.8535 92.4111C33.0456 91.4925 31.8835 91.0332 30.3672 91.0332Z" fill="black" fill-opacity="0.95"/>
<path d="M50.9027 89.6387C51.6663 89.6387 52.347 89.7161 52.9447 89.8711L52.596 91.415C52.0758 91.249 51.4505 91.166 50.72 91.166C49.6797 91.166 48.6891 91.5202 47.7484 92.2285C46.8076 92.9368 45.9609 93.9993 45.2083 95.416C44.4557 96.8327 43.9023 98.3656 43.5482 100.015L41.888 108H40.2611L44.096 89.9541H45.4241L44.9427 93.3408H45.0423C45.8503 92.3005 46.5309 91.5534 47.0843 91.0996C47.6377 90.6348 48.2243 90.2751 48.8441 90.0205C49.4749 89.766 50.1611 89.6387 50.9027 89.6387Z" fill="black" fill-opacity="0.95"/>
<path d="M141.921 89.1071C139.99 89.0656 138.081 89.5263 136.382 90.4442C134.682 91.362 133.25 92.7055 132.226 94.3431V77.9542C132.248 77.5746 132.193 77.1944 132.063 76.8371C131.933 76.4797 131.731 76.1527 131.47 75.876C131.209 75.5994 130.895 75.379 130.546 75.2284C130.197 75.0777 129.82 75 129.44 75C129.06 75 128.684 75.0777 128.334 75.2284C127.985 75.379 127.671 75.5994 127.41 75.876C127.149 76.1527 126.947 76.4797 126.817 76.8371C126.687 77.1944 126.632 77.5746 126.654 77.9542V114.395C126.632 114.775 126.687 115.155 126.817 115.512C126.947 115.87 127.149 116.197 127.41 116.473C127.671 116.75 127.985 116.971 128.334 117.121C128.684 117.272 129.06 117.35 129.44 117.35C129.82 117.35 130.197 117.272 130.546 117.121C130.895 116.971 131.209 116.75 131.47 116.473C131.731 116.197 131.933 115.87 132.063 115.512C132.193 115.155 132.248 114.775 132.226 114.395V111.969C133.818 115.057 137.74 117.205 141.873 117.205C148.845 117.205 155.059 111.576 155.059 103.156C155.059 94.7363 148.845 89.1071 141.921 89.1071ZM140.962 112.266C139.785 112.257 138.623 112.012 137.542 111.546C136.461 111.08 135.485 110.403 134.67 109.554C133.855 108.705 133.218 107.702 132.797 106.603C132.375 105.504 132.178 104.332 132.216 103.156C132.182 101.981 132.382 100.81 132.804 99.7122C133.227 98.6147 133.864 97.6122 134.678 96.7634C135.492 95.9145 136.467 95.2362 137.546 94.768C138.625 94.2998 139.786 94.051 140.962 94.0362C145.843 94.0362 149.651 97.5749 149.651 103.156C149.651 108.737 145.843 112.266 140.962 112.266Z" fill="#FFC629"/>
<path d="M252.712 89.1071C250.789 89.0749 248.891 89.54 247.2 90.4574C245.51 91.3748 244.086 92.7133 243.065 94.3432V77.9542C243.065 77.5877 242.993 77.2249 242.852 76.8863C242.712 76.5477 242.507 76.2401 242.247 75.9809C241.988 75.7218 241.681 75.5162 241.342 75.376C241.004 75.2358 240.641 75.1636 240.274 75.1636C239.908 75.1636 239.545 75.2358 239.206 75.376C238.868 75.5162 238.56 75.7218 238.301 75.9809C238.042 76.2401 237.836 76.5477 237.696 76.8863C237.556 77.2249 237.484 77.5877 237.484 77.9542V114.395C237.484 114.762 237.556 115.125 237.696 115.463C237.836 115.802 238.042 116.11 238.301 116.369C238.56 116.628 238.868 116.833 239.206 116.974C239.545 117.114 239.908 117.186 240.274 117.186C240.641 117.186 241.004 117.114 241.342 116.974C241.681 116.833 241.988 116.628 242.247 116.369C242.507 116.11 242.712 115.802 242.852 115.463C242.993 115.125 243.065 114.762 243.065 114.395V111.969C244.666 115.057 248.589 117.205 252.712 117.205C259.684 117.205 265.908 111.576 265.908 103.156C265.908 94.7364 259.684 89.1071 252.712 89.1071ZM251.801 112.267C250.625 112.257 249.462 112.012 248.382 111.546C247.302 111.08 246.326 110.403 245.512 109.554C244.698 108.705 244.062 107.701 243.641 106.602C243.221 105.504 243.025 104.332 243.065 103.156C243.029 101.981 243.228 100.811 243.649 99.713C244.071 98.6155 244.707 97.613 245.52 96.764C246.334 95.915 247.308 95.2365 248.386 94.7682C249.465 94.2998 250.626 94.051 251.801 94.0363C256.682 94.0363 260.489 97.5749 260.489 103.156C260.489 108.737 256.682 112.267 251.801 112.267Z" fill="#FFC629"/>
<path d="M181.546 89.8551C180.806 89.8551 180.096 90.1491 179.573 90.6725C179.05 91.1958 178.756 91.9056 178.756 92.6457V102.14C178.756 108.852 175.649 112.055 170.873 112.055C167.037 112.055 164.496 109.102 164.496 104.767V92.6457C164.496 91.9056 164.202 91.1958 163.678 90.6725C163.155 90.1491 162.445 89.8551 161.705 89.8551C160.965 89.8551 160.255 90.1491 159.732 90.6725C159.208 91.1958 158.914 91.9056 158.914 92.6457V105.851C158.914 112.564 163.153 117.167 169.588 117.167C173.5 117.167 177.356 114.98 178.756 111.931V114.376C178.733 114.756 178.789 115.136 178.919 115.493C179.049 115.851 179.25 116.178 179.511 116.454C179.772 116.731 180.087 116.951 180.436 117.102C180.785 117.253 181.161 117.33 181.541 117.33C181.922 117.33 182.298 117.253 182.647 117.102C182.996 116.951 183.311 116.731 183.572 116.454C183.833 116.178 184.034 115.851 184.164 115.493C184.294 115.136 184.35 114.756 184.327 114.376V92.6457C184.329 92.2797 184.258 91.9171 184.118 91.5785C183.979 91.24 183.775 90.9323 183.516 90.673C183.258 90.4138 182.951 90.2081 182.613 90.0677C182.275 89.9274 181.912 89.8551 181.546 89.8551V89.8551Z" fill="#FFC629"/>
<path d="M222.389 89.107C217.987 89.107 214.382 90.9578 212.464 94.4389C211.647 92.803 210.383 91.4331 208.817 90.489C207.252 89.5449 205.45 89.0656 203.622 89.107C201.865 89.1476 200.15 89.6536 198.652 90.5735C197.154 91.4934 195.927 92.7941 195.097 94.343V92.6456C195.097 92.2791 195.024 91.9162 194.884 91.5777C194.744 91.2391 194.538 90.9315 194.279 90.6723C194.02 90.4132 193.712 90.2076 193.374 90.0674C193.035 89.9271 192.672 89.855 192.306 89.855C191.94 89.855 191.577 89.9271 191.238 90.0674C190.899 90.2076 190.592 90.4132 190.333 90.6723C190.074 90.9315 189.868 91.2391 189.728 91.5777C189.588 91.9162 189.515 92.2791 189.515 92.6456V114.414C189.515 115.155 189.809 115.864 190.333 116.388C190.856 116.911 191.566 117.205 192.306 117.205C193.046 117.205 193.756 116.911 194.279 116.388C194.803 115.864 195.097 115.155 195.097 114.414V103.262C195.097 97.3062 197.878 94.2567 202.174 94.2567C205.597 94.2567 208.177 96.7213 208.177 100.634V114.414C208.177 115.153 208.47 115.861 208.991 116.384C209.512 116.907 210.22 117.203 210.958 117.205V117.205C211.697 117.203 212.406 116.908 212.929 116.385C213.451 115.862 213.746 115.154 213.749 114.414V103.262C213.749 97.3062 216.626 94.2567 220.941 94.2567C224.374 94.2567 226.944 96.7213 226.944 100.634L226.887 114.414C226.889 115.154 227.184 115.862 227.707 116.385C228.23 116.908 228.938 117.203 229.677 117.205V117.205C230.417 117.203 231.125 116.908 231.648 116.385C232.171 115.862 232.466 115.154 232.468 114.414V99.5119C232.468 93.2306 227.913 89.107 222.389 89.107Z" fill="#FFC629"/>
<path d="M282.508 113.743C282.363 113.117 281.984 112.57 281.45 112.214C280.915 111.857 280.264 111.718 279.631 111.825C279.315 111.889 278.994 111.922 278.672 111.921C278.239 111.965 277.802 111.919 277.388 111.784C276.974 111.65 276.593 111.432 276.268 111.142C275.943 110.852 275.682 110.499 275.502 110.103C275.321 109.707 275.225 109.278 275.219 108.843V77.9542C275.219 77.2207 274.931 76.5166 274.416 75.9944C273.901 75.4721 273.201 75.1737 272.467 75.1636V75.1636C271.727 75.1636 271.017 75.4576 270.494 75.9809C269.97 76.5043 269.676 77.2141 269.676 77.9542V109.111C269.671 111.24 270.507 113.284 272.001 114.8C273.495 116.315 275.527 117.18 277.655 117.205C278.741 117.225 279.822 117.069 280.858 116.745C281.443 116.557 281.937 116.158 282.245 115.627C282.553 115.096 282.654 114.469 282.527 113.868L282.508 113.743Z" fill="#FFC629"/>
<path d="M309.992 102.869C309.551 98.908 307.412 89.1072 296.796 89.1072C289.297 89.1072 283.016 94.7364 283.016 103.204C283.016 111.672 289.345 117.205 296.585 117.205C301.208 117.205 305.101 115.489 307.633 112.065C308.023 111.531 308.186 110.864 308.084 110.21C307.982 109.556 307.625 108.97 307.091 108.579C306.557 108.189 305.89 108.027 305.236 108.128C304.582 108.23 303.996 108.587 303.605 109.121C301.735 111.73 299.146 112.382 296.585 112.382C292.673 112.382 289.077 109.428 288.54 104.499H308.534C308.74 104.497 308.944 104.453 309.131 104.368C309.319 104.283 309.487 104.16 309.624 104.006C309.761 103.853 309.865 103.672 309.928 103.476C309.992 103.28 310.013 103.073 309.992 102.869V102.869ZM288.703 100.529C289.083 98.6723 290.1 97.0073 291.578 95.8217C293.056 94.6361 294.902 94.0045 296.796 94.0363C300.45 94.0363 303.509 96.1845 304.363 100.529H288.703Z" fill="#FFC629"/>
<path d="M117.18 94.6598L106.813 76.6885C106.543 76.2253 106.157 75.8409 105.693 75.5734C105.228 75.3059 104.702 75.1646 104.166 75.1637H83.4234C82.8875 75.1646 82.3612 75.3059 81.8968 75.5734C81.4325 75.8409 81.0463 76.2253 80.7766 76.6885L70.4101 94.6598C70.1415 95.123 70 95.649 70 96.1845C70 96.72 70.1415 97.246 70.4101 97.7093L80.7766 115.671C81.0436 116.137 81.4289 116.525 81.8937 116.794C82.3585 117.064 82.8862 117.205 83.4234 117.205H104.166C104.703 117.205 105.231 117.064 105.696 116.794C106.161 116.525 106.546 116.137 106.813 115.671L117.18 97.7093C117.448 97.246 117.59 96.72 117.59 96.1845C117.59 95.649 117.448 95.123 117.18 94.6598V94.6598ZM87.9786 84.5425H99.5822C99.94 84.5209 100.298 84.5727 100.635 84.6947C100.972 84.8167 101.281 85.0064 101.542 85.2521C101.803 85.4977 102.011 85.7942 102.153 86.1232C102.295 86.4523 102.368 86.8069 102.368 87.1653C102.368 87.5238 102.295 87.8784 102.153 88.2074C102.011 88.5365 101.803 88.8329 101.542 89.0786C101.281 89.3243 100.972 89.514 100.635 89.636C100.298 89.758 99.94 89.8098 99.5822 89.7881H87.9786C87.3104 89.7477 86.6828 89.4538 86.224 88.9664C85.7651 88.4789 85.5096 87.8347 85.5096 87.1653C85.5096 86.4959 85.7651 85.8517 86.224 85.3643C86.6828 84.8769 87.3104 84.5829 87.9786 84.5425V84.5425ZM97.0026 107.903H90.5582C89.89 107.863 89.2625 107.569 88.8036 107.081C88.3448 106.594 88.0893 105.95 88.0893 105.28C88.0893 104.611 88.3448 103.967 88.8036 103.479C89.2625 102.992 89.89 102.698 90.5582 102.658H97.0026C97.3603 102.636 97.7188 102.688 98.0558 102.81C98.3928 102.932 98.7013 103.122 98.9623 103.367C99.2232 103.613 99.4312 103.909 99.5734 104.238C99.7155 104.567 99.7888 104.922 99.7888 105.28C99.7888 105.639 99.7155 105.994 99.5734 106.323C99.4312 106.652 99.2232 106.948 98.9623 107.194C98.7013 107.439 98.3928 107.629 98.0558 107.751C97.7188 107.873 97.3603 107.925 97.0026 107.903V107.903ZM104.3 98.8409H83.27C82.9122 98.8626 82.5538 98.8108 82.2168 98.6888C81.8798 98.5667 81.5713 98.377 81.3103 98.1314C81.0493 97.8857 80.8413 97.5892 80.6992 97.2602C80.557 96.9312 80.4837 96.5765 80.4837 96.2181C80.4837 95.8597 80.557 95.505 80.6992 95.176C80.8413 94.847 81.0493 94.5505 81.3103 94.3048C81.5713 94.0592 81.8798 93.8695 82.2168 93.7475C82.5538 93.6254 82.9122 93.5736 83.27 93.5953H104.3C104.969 93.6357 105.596 93.9296 106.055 94.4171C106.514 94.9045 106.769 95.5487 106.769 96.2181C106.769 96.8875 106.514 97.5317 106.055 98.0191C105.596 98.5066 104.969 98.8005 104.3 98.8409V98.8409Z" fill="#FFC629"/>
</svg>
