<?xml version="1.0" encoding="UTF-8"?><svg id="Layer_1" xmlns="http://www.w3.org/2000/svg" viewBox="0 0 400 69"><defs><style>.cls-1{fill:#fff;stroke-width:0px;}</style></defs><path class="cls-1" d="m107.33,54.3h-.1l.1,9.68h-5.9V2.93h5.9l-.1,26.43h.1c2.39-6.2,8.93-9.95,16.48-9.95,13.36,0,22.01,9.59,22.01,22.68s-8.65,22.85-22.01,22.85c-7.45,0-13.81-4.01-16.48-10.64Zm-.46-12.65v1.05c0,10.29,7,17.45,16.76,17.45s16.48-7.67,16.48-18.05-6.35-17.88-16.48-17.88-16.67,7.07-16.76,17.44Z"/><path class="cls-1" d="m178.13,64.51c-6.4,0-10.3-4.44-10.3-10.73V2.93h5.69v50.41c0,3.75,2.13,6.28,5.24,6.28,1.24,0,2.93-.26,5.24-1.4v5.15c-2.23.88-4.27,1.14-5.87,1.14Z"/><path class="cls-1" d="m305.09,42.19c0,13.08-8.9,22.77-22.25,22.77s-22.34-9.68-22.34-22.77,8.9-22.77,22.34-22.77,22.25,9.68,22.25,22.77Zm-38.96,0c0,10.38,6.54,17.97,16.7,17.97s16.62-7.59,16.62-17.97-6.54-17.97-16.62-17.97-16.7,7.59-16.7,17.97Z"/><path class="cls-1" d="m243.11,42.19c0,13.08-8.9,22.77-22.25,22.77s-22.34-9.68-22.34-22.77,8.9-22.77,22.34-22.77,22.25,9.68,22.25,22.77Zm-38.96,0c0,10.38,6.53,17.97,16.7,17.97s16.62-7.59,16.62-17.97-6.54-17.97-16.62-17.97-16.7,7.59-16.7,17.97Z"/><path class="cls-1" d="m399.92,38v26h-6.18v-25.65c0-9.42-4.73-13.96-12.45-13.96-9.84,0-14.48,5.84-14.48,15.44v24.16h-6.18v-25.65c0-9.42-4.92-13.96-12.65-13.96-9.85,0-14.48,5.84-14.48,15.44v24.16h-6.18V20.38h6.18v8.03c2.8-6.01,8.01-8.98,15.06-8.98,8.01,0,13.99,3.4,16.7,9.85,2.89-6.8,9.07-9.85,16.6-9.85,11.1,0,18.05,6.45,18.05,18.57Z"/><path class="cls-1" d="m34.29,68.05c18.75,0,33.95-15.2,33.95-33.95S53.04.15,34.29.15.35,15.35.35,34.1s15.2,33.95,33.95,33.95Z"/></svg>