<svg width="300" height="174" viewBox="0 0 300 174" fill="none" xmlns="http://www.w3.org/2000/svg">
<g clip-path="url(#clip0_10764_64091)">
<path d="M28.0825 96.744L32.5646 75.6061H33.9815L29.5139 96.744H28.0825ZM45.533 96.744L47.6872 86.7388C47.8897 85.8521 47.9909 85.1001 47.9909 84.4838C47.9909 83.7124 47.7788 83.11 47.3548 82.676C46.9403 82.2427 46.2945 82.0253 45.4173 82.0253C44.3378 82.0253 43.3209 82.3487 42.3667 82.9939C41.4221 83.6399 40.6221 84.5461 39.9666 85.7126C39.3208 86.869 38.8244 88.2474 38.4774 89.8472L37.0027 96.744H35.5857L38.9256 81.0279H40.1112L39.5762 84.2235H39.663C41.2437 81.9295 43.2486 80.7825 45.6776 80.7825C46.9306 80.7825 47.8704 81.0903 48.4969 81.7074C49.1234 82.3246 49.4367 83.2113 49.4367 84.3677C49.4367 85.0425 49.321 85.9199 49.0897 86.9991L46.9499 96.744H45.533ZM67.1035 96.9755C64.8865 96.9755 63.5419 95.9196 63.0696 93.8087H63.0118C62.8865 94.503 62.1684 97.8529 60.8576 103.857H59.4261L64.2841 81.0279H65.4697L64.819 84.9895H64.9058C65.7829 83.5144 66.7228 82.4352 67.7251 81.7511C68.7373 81.0669 69.8409 80.724 71.0361 80.724C72.3374 80.724 73.3397 81.1729 74.0434 82.069C74.747 82.9557 75.0988 84.3147 75.0988 86.1459C75.0988 88.0261 74.7518 89.8136 74.0579 91.51C73.3639 93.2064 72.4097 94.542 71.1952 95.5152C69.9903 96.4885 68.6264 96.9755 67.1035 96.9755ZM70.7181 82.0253C69.8795 82.0253 69.0409 82.3098 68.2023 82.8786C67.3637 83.4381 66.583 84.2422 65.8601 85.2934C65.1468 86.3438 64.6167 87.4908 64.2697 88.7344C63.9226 89.9679 63.7492 90.97 63.7492 91.7414C63.7492 92.9461 64.0432 93.9147 64.6311 94.6479C65.2288 95.3703 66.0432 95.7318 67.0746 95.7318C68.2697 95.7318 69.3541 95.3274 70.3277 94.5178C71.3011 93.7082 72.0915 92.537 72.6988 91.0043C73.306 89.4622 73.6097 87.8905 73.6097 86.2908C73.6097 83.4474 72.6458 82.0253 70.7181 82.0253ZM86.5929 80.7825C88.8285 80.7825 90.1734 81.8375 90.6261 83.9485H90.7134L91.5659 81.0279H92.723L89.4121 96.744H88.2261L88.8768 92.7825H88.7903C87.9807 94.1516 87.0791 95.202 86.0864 95.9344C85.0937 96.6669 83.9513 97.0331 82.6602 97.0331C79.9516 97.0331 78.5971 95.2308 78.5971 91.6261C78.5971 89.7272 78.9589 87.9147 79.6812 86.1895C80.4043 84.4643 81.3682 83.1342 82.5729 82.1991C83.7877 81.2547 85.1272 80.7825 86.5929 80.7825ZM82.9921 95.7318C83.85 95.7318 84.7033 95.4334 85.5518 94.8357C86.4098 94.2381 87.1757 93.4378 87.8505 92.4357C88.5347 91.4329 89.0552 90.3248 89.4121 89.11C89.7682 87.896 89.9467 86.869 89.9467 86.0305C89.9467 85.2692 89.8212 84.5898 89.5711 83.9921C89.3202 83.3843 88.9492 82.9074 88.4576 82.5607C87.9659 82.2038 87.3542 82.0253 86.6217 82.0253C85.4264 82.0253 84.3464 82.4204 83.3825 83.2113C82.4186 84.0014 81.6285 85.1874 81.0113 86.7677C80.395 88.3394 80.0864 89.9056 80.0864 91.4672C80.0864 92.9321 80.3272 94.0113 80.8095 94.7056C81.2911 95.3898 82.0189 95.7318 82.9921 95.7318ZM104.419 80.7536C105.084 80.7536 105.677 80.8207 106.197 80.9555L105.893 82.3004C105.441 82.1555 104.896 82.0838 104.26 82.0838C103.354 82.0838 102.491 82.3916 101.672 83.0087C100.853 83.6259 100.116 84.5508 99.4594 85.7851C98.8041 87.0186 98.3225 88.3534 98.0139 89.7895L96.5685 96.744H95.1511L98.4908 81.0279H99.6479L99.2287 83.9773H99.3152C100.019 83.0711 100.612 82.4204 101.093 82.0253C101.576 81.6209 102.086 81.3077 102.626 81.0856C103.175 80.8643 103.773 80.7536 104.419 80.7536ZM115.609 81.0279L115.348 82.1991H111.257L109.305 91.3799C109.093 92.3344 108.987 93.1246 108.987 93.7511C108.987 95.0913 109.595 95.7607 110.809 95.7607C111.464 95.7607 112.197 95.6352 113.006 95.3851V96.6287C112.033 96.8983 111.214 97.0331 110.548 97.0331C109.595 97.0331 108.857 96.7729 108.336 96.2524C107.816 95.7225 107.555 94.9557 107.555 93.9537C107.555 93.25 107.696 92.2573 107.975 90.9755L109.84 82.1991H107.209L107.411 81.2305L110.072 80.9843L111.474 77.3267H112.269L111.474 81.0279H115.609ZM126.12 96.744L128.274 86.7388C128.476 85.8521 128.577 85.1001 128.577 84.4838C128.577 83.7124 128.365 83.11 127.941 82.676C127.527 82.2427 126.881 82.0253 126.004 82.0253C124.924 82.0253 123.907 82.3487 122.953 82.9939C122.008 83.6399 121.208 84.5461 120.553 85.7126C119.908 86.869 119.411 88.2474 119.064 89.8472L117.59 96.744H116.172L119.512 81.0279H120.698L120.162 84.2235H120.25C121.83 81.9295 123.835 80.7825 126.264 80.7825C127.517 80.7825 128.457 81.0903 129.084 81.7074C129.71 82.3246 130.024 83.2113 130.024 84.3677C130.024 85.0425 129.907 85.9199 129.676 86.9991L127.536 96.744H126.12ZM138.987 97.0331C137.319 97.0331 136.018 96.5079 135.083 95.4575C134.148 94.397 133.68 92.922 133.68 91.0331C133.68 89.2885 134.022 87.6163 134.707 86.0157C135.392 84.416 136.331 83.1435 137.527 82.1991C138.731 81.2547 140.057 80.7825 141.502 80.7825C142.601 80.7825 143.478 81.0763 144.134 81.6638C144.789 82.2521 145.117 83.0523 145.117 84.0646C145.117 85.8085 144.327 87.1394 142.746 88.0549C141.175 88.9705 138.837 89.4279 135.734 89.4279H135.257C135.198 89.8526 135.17 90.3248 135.17 90.8453C135.17 92.4357 135.526 93.6498 136.239 94.4882C136.953 95.3173 137.979 95.7318 139.32 95.7318C140.591 95.7318 141.921 95.3804 143.31 94.6768V96.0357C141.96 96.7004 140.52 97.0331 138.987 97.0331ZM141.329 82.0253C140.066 82.0253 138.89 82.5848 137.801 83.703C136.722 84.8111 135.941 86.2955 135.459 88.1562H136.168C141.151 88.1562 143.642 86.855 143.642 84.2524C143.642 83.6064 143.43 83.0765 143.006 82.662C142.592 82.2373 142.033 82.0253 141.329 82.0253ZM156.524 80.7536C157.189 80.7536 157.782 80.8207 158.302 80.9555L157.998 82.3004C157.546 82.1555 157.001 82.0838 156.365 82.0838C155.459 82.0838 154.596 82.3916 153.777 83.0087C152.958 83.6259 152.22 84.5508 151.565 85.7851C150.909 87.0186 150.427 88.3534 150.119 89.7895L148.673 96.744H147.256L150.596 81.0279H151.753L151.334 83.9773H151.42C152.124 83.0711 152.717 82.4204 153.198 82.0253C153.681 81.6209 154.191 81.3077 154.731 81.0856C155.28 80.8643 155.878 80.7536 156.524 80.7536ZM167.989 92.4786C167.989 93.8672 167.492 94.9752 166.5 95.8043C165.507 96.6233 164.157 97.0331 162.452 97.0331C160.784 97.0331 159.314 96.6716 158.041 95.9485V94.4017C158.755 94.8451 159.492 95.1872 160.253 95.4287C161.015 95.6695 161.728 95.7895 162.393 95.7895C163.723 95.7895 164.74 95.5152 165.444 94.9659C166.147 94.4064 166.5 93.6163 166.5 92.5947C166.5 92.1895 166.422 91.8334 166.268 91.5248C166.123 91.2163 165.882 90.9225 165.545 90.6427C165.218 90.3537 164.581 89.9391 163.637 89.3991C162.21 88.6285 161.246 87.9295 160.745 87.303C160.244 86.6664 159.993 85.8957 159.993 84.9895C159.993 83.756 160.465 82.7485 161.411 81.9677C162.364 81.1775 163.617 80.7825 165.17 80.7825C165.893 80.7825 166.654 80.869 167.453 81.0427C168.264 81.2064 168.943 81.4277 169.493 81.7074L168.986 82.9799C167.675 82.3627 166.403 82.0542 165.17 82.0542C164.051 82.0542 163.155 82.3098 162.48 82.8209C161.806 83.3313 161.468 83.9968 161.468 84.8157C161.468 85.3464 161.55 85.7703 161.714 86.0882C161.878 86.4061 162.167 86.7388 162.582 87.0856C163.006 87.423 163.584 87.7892 164.316 88.1851C165.415 88.7921 166.191 89.2931 166.644 89.6882C167.107 90.0739 167.444 90.4885 167.656 90.9318C167.878 91.3752 167.989 91.8911 167.989 92.4786ZM181.29 96.744L183.444 86.7388C183.646 85.8521 183.748 85.1001 183.748 84.4838C183.748 83.7124 183.536 83.11 183.111 82.676C182.697 82.2427 182.051 82.0253 181.174 82.0253C180.095 82.0253 179.078 82.3487 178.123 82.9939C177.179 83.6399 176.379 84.5461 175.723 85.7126C175.077 86.8791 174.581 88.2568 174.234 89.8472L172.759 96.744H171.342L176.143 74.2471H177.53L176.287 80.1895C175.863 82.1173 175.545 83.4614 175.333 84.2235H175.419C176.171 83.1342 177.068 82.2903 178.109 81.6934C179.16 81.0856 180.268 80.7825 181.434 80.7825C182.63 80.7825 183.554 81.0957 184.211 81.7222C184.866 82.3487 185.193 83.2308 185.193 84.3677C185.193 85.0425 185.078 85.9199 184.846 86.9991L182.707 96.744H181.29ZM189.892 96.744H188.474L191.815 81.0279H193.203L189.892 96.744ZM192.436 76.9941C192.436 76.464 192.543 76.0399 192.755 75.7218C192.967 75.4038 193.256 75.2447 193.622 75.2447C194.171 75.2447 194.446 75.5917 194.446 76.2857C194.446 76.8351 194.34 77.2688 194.128 77.5869C193.916 77.905 193.641 78.0638 193.304 78.0638C193.024 78.0638 192.808 77.9725 192.653 77.7893C192.508 77.5966 192.436 77.3315 192.436 76.9941ZM202.051 96.9755C199.834 96.9755 198.489 95.9196 198.017 93.8087H197.959C197.834 94.503 197.115 97.8529 195.805 103.857H194.373L199.231 81.0279H200.417L199.766 84.9895H199.853C200.73 83.5144 201.67 82.4352 202.672 81.7511C203.684 81.0669 204.788 80.724 205.983 80.724C207.284 80.724 208.287 81.1729 208.991 82.069C209.694 82.9557 210.046 84.3147 210.046 86.1459C210.046 88.0261 209.699 89.8136 209.005 91.51C208.311 93.2064 207.357 94.542 206.142 95.5152C204.937 96.4885 203.573 96.9755 202.051 96.9755ZM205.665 82.0253C204.826 82.0253 203.988 82.3098 203.149 82.8786C202.311 83.4381 201.53 84.2422 200.807 85.2934C200.094 86.3438 199.564 87.4908 199.217 88.7344C198.87 89.9679 198.696 90.97 198.696 91.7414C198.696 92.9461 198.99 93.9147 199.578 94.6479C200.176 95.3703 200.99 95.7318 202.022 95.7318C203.217 95.7318 204.301 95.3274 205.274 94.5178C206.248 93.7082 207.039 92.537 207.646 91.0043C208.253 89.4622 208.557 87.8905 208.557 86.2908C208.557 83.4474 207.593 82.0253 205.665 82.0253ZM232.469 96.744L231.602 86.8253C231.467 84.6669 231.399 83.3843 231.399 82.9799H231.313C230.985 83.8666 230.291 85.2646 229.231 87.1729L224.083 96.744H222.392L222.102 81.0279H223.433L223.621 92.8978L223.578 95.1685H223.664C224.252 93.8765 224.975 92.4451 225.833 90.8742L231.226 81.0279H232.339L233.265 90.8742C233.4 92.2908 233.467 93.7222 233.467 95.1685H233.554L233.901 94.2864L235.361 90.8742L239.988 81.0279H241.376L234.031 96.744H232.469ZM243.616 96.744H242.199L245.539 81.0279H246.927L243.616 96.744ZM246.161 76.9941C246.161 76.464 246.267 76.0399 246.479 75.7218C246.691 75.4038 246.98 75.2447 247.346 75.2447C247.895 75.2447 248.171 75.5917 248.171 76.2857C248.171 76.8351 248.065 77.2688 247.853 77.5869C247.641 77.905 247.366 78.0638 247.028 78.0638C246.748 78.0638 246.532 77.9725 246.378 77.7893C246.233 77.5966 246.161 77.3315 246.161 76.9941ZM258.609 81.0279L258.349 82.1991H254.257L252.305 91.3799C252.093 92.3344 251.987 93.1246 251.987 93.7511C251.987 95.0913 252.594 95.7607 253.808 95.7607C254.464 95.7607 255.197 95.6352 256.006 95.3851V96.6287C255.032 96.8983 254.213 97.0331 253.548 97.0331C252.594 97.0331 251.857 96.7729 251.337 96.2524C250.816 95.7225 250.556 94.9557 250.556 93.9537C250.556 93.25 250.695 92.2573 250.975 90.9755L252.84 82.1991H250.208L250.411 81.2305L253.071 80.9843L254.474 77.3267H255.268L254.474 81.0279H258.609ZM269.119 96.744L271.274 86.7388C271.476 85.8521 271.577 85.1001 271.577 84.4838C271.577 83.7124 271.365 83.11 270.941 82.676C270.526 82.2427 269.88 82.0253 269.004 82.0253C267.924 82.0253 266.907 82.3487 265.953 82.9939C265.008 83.6399 264.208 84.5461 263.553 85.7126C262.907 86.8791 262.411 88.2568 262.063 89.8472L260.589 96.744H259.172L263.972 74.2471H265.36L264.116 80.1895C263.693 82.1173 263.375 83.4614 263.163 84.2235H263.249C264.001 83.1342 264.897 82.2903 265.938 81.6934C266.989 81.0856 268.098 80.7825 269.264 80.7825C270.459 80.7825 271.384 81.0957 272.04 81.7222C272.695 82.3487 273.023 83.2308 273.023 84.3677C273.023 85.0425 272.907 85.9199 272.676 86.9991L270.536 96.744H269.119Z" fill="black" fill-opacity="0.95"/>
<path d="M80.1865 40.705H80.114L80.1865 47.9579H75.7651V2.20117H80.1865L80.114 22.0093H80.1865C81.9779 17.3643 86.8831 14.5542 92.5395 14.5542C102.552 14.5542 109.039 21.7421 109.039 31.5523C109.039 41.4274 102.552 48.6803 92.5395 48.6803C86.9548 48.6803 82.1875 45.6751 80.1865 40.705ZM79.8398 31.2272V32.0146C79.8398 39.7298 85.0839 45.09 92.4016 45.09C99.9943 45.09 104.755 39.3397 104.755 31.5594C104.755 23.8442 99.9943 18.1589 92.4016 18.1589C85.1564 18.1589 79.9114 23.4541 79.8398 31.2272Z" fill="#F0244D"/>
<path d="M133.246 48.3551C128.449 48.3551 125.524 45.0249 125.524 40.3149V2.20117H129.785V39.9826C129.785 42.7927 131.382 44.6926 133.716 44.6926C134.648 44.6926 135.912 44.4976 137.645 43.6451V47.5028C135.976 48.1601 134.445 48.3551 133.246 48.3551Z" fill="#F0244D"/>
<path d="M228.4 31.6246C228.4 41.4276 221.733 48.6877 211.727 48.6877C201.657 48.6877 194.982 41.4347 194.982 31.6246C194.982 21.8217 201.65 14.5615 211.727 14.5615C221.733 14.5615 228.4 21.8144 228.4 31.6246ZM199.201 31.6246C199.201 39.4048 204.099 45.0902 211.72 45.0902C219.276 45.0902 224.174 39.4048 224.174 31.6246C224.174 23.8444 219.276 18.1591 211.72 18.1591C204.106 18.1591 199.201 23.8444 199.201 31.6246Z" fill="#F0244D"/>
<path d="M181.95 31.6246C181.95 41.4276 175.282 48.6877 165.277 48.6877C155.207 48.6877 148.532 41.4347 148.532 31.6246C148.532 21.8217 155.2 14.5615 165.277 14.5615C175.275 14.5615 181.95 21.8144 181.95 31.6246ZM152.751 31.6246C152.751 39.4048 157.649 45.0902 165.27 45.0902C172.826 45.0902 177.724 39.4048 177.724 31.6246C177.724 23.8444 172.826 18.1591 165.27 18.1591C157.649 18.1591 152.751 23.8444 152.751 31.6246Z" fill="#F0244D"/>
<path d="M299.478 28.4822V47.9652H294.847V28.7423C294.847 21.6844 291.3 18.2819 285.514 18.2819C278.138 18.2819 274.664 22.6597 274.664 29.8547V47.9652H270.033V28.7423C270.033 21.6844 266.341 18.2819 260.555 18.2819C253.172 18.2819 249.704 22.6597 249.704 29.8547V47.9652H245.074V15.2768H249.704V21.2943C251.8 16.7865 255.707 14.5615 260.988 14.5615C266.991 14.5615 271.477 17.1116 273.507 21.9445C275.675 16.8443 280.305 14.5615 285.947 14.5615C294.27 14.5615 299.478 19.3944 299.478 28.4822Z" fill="#F0244D"/>
<path d="M25.4429 51.0068C39.4946 51.0068 50.8857 39.6157 50.8857 25.564C50.8857 11.5122 39.4946 0.121094 25.4429 0.121094C11.3911 0.121094 0 11.5122 0 25.564C0 39.6157 11.3911 51.0068 25.4429 51.0068Z" fill="#F0244D"/>
<g clip-path="url(#clip1_10764_64091)">
<path d="M112.088 118.787C113.419 118.787 114.085 119.452 114.084 120.783V128.233C114.084 129.497 113.419 130.229 112.088 130.229H95.3251C94.0609 130.229 93.3291 130.894 93.3291 132.225V134.354C93.3291 135.618 94.0609 136.35 95.3251 136.35H106.303C107.633 136.35 108.298 137.015 108.298 138.346V145.796C108.298 147.06 107.633 147.792 106.303 147.792H95.322C94.0578 147.792 93.326 148.457 93.326 149.788V163.364C93.326 164.628 92.6609 165.36 91.33 165.36H83.4794C82.2152 165.36 81.4834 164.628 81.4834 163.364V120.783C81.4834 119.453 82.2152 118.787 83.4794 118.787H112.088Z" fill="#FD537F"/>
<path d="M154.277 161.767C155.208 163.496 154.144 165.36 152.082 165.36H144.499C143.833 165.36 143.235 165.027 142.969 164.428L136.049 151.055C135.916 150.855 135.716 150.723 135.517 150.723H132.858C131.66 150.723 130.795 151.587 130.795 152.785V163.297C130.795 164.494 129.93 165.36 128.733 165.36H121.282C120.084 165.36 119.22 164.494 119.22 163.297V120.847C119.22 119.649 120.084 118.784 121.282 118.784H135.852C147.695 118.784 152.485 123.841 152.485 134.751C152.485 140.94 150.955 145.264 147.429 147.789C147.163 147.988 147.096 148.321 147.229 148.654L154.277 161.767ZM132.858 130.231C131.66 130.231 130.795 131.095 130.795 132.294V137.217C130.795 138.414 131.66 139.279 132.858 139.279H136.251C139.444 139.279 141.041 138.88 141.041 134.754C141.041 130.629 139.444 130.231 136.251 130.231H132.858Z" fill="#FD537F"/>
<path d="M167.147 118.787C168.477 118.787 169.142 119.452 169.143 120.783V146.864C169.143 151.986 169.475 155.113 174.399 155.113C179.322 155.113 179.654 151.987 179.654 146.864V120.783C179.654 119.453 180.386 118.787 181.65 118.787H189.1C190.431 118.787 191.097 119.452 191.096 120.783V150.39C191.096 154.78 190.165 166.557 174.396 166.557C158.628 166.557 157.7 154.78 157.7 150.39V120.783C157.7 119.453 158.431 118.787 159.696 118.787H167.147Z" fill="#FD537F"/>
<path d="M205.812 118.787C207.143 118.787 207.808 119.452 207.808 120.783V163.364C207.808 164.628 207.143 165.36 205.812 165.36H198.494C197.23 165.36 196.498 164.628 196.498 163.364V120.783C196.498 119.453 197.23 118.787 198.494 118.787H205.812Z" fill="#FD537F"/>
<path d="M225.487 132.227C225.487 130.896 224.822 130.23 223.491 130.231H214.178C212.914 130.231 212.182 129.499 212.182 128.235V120.785C212.182 119.455 212.914 118.789 214.178 118.789H248.242C249.573 118.789 250.239 119.454 250.238 120.785V128.235C250.238 129.499 249.573 130.231 248.242 130.231H238.93C237.666 130.231 236.934 130.896 236.934 132.227V163.364C236.934 164.628 236.268 165.36 234.938 165.36H227.488C226.224 165.36 225.492 164.628 225.492 163.364L225.487 132.227Z" fill="#FD537F"/>
<path d="M255.22 165.36C252.892 165.36 251.425 162.845 252.574 160.818L268.858 132.085C268.965 131.896 269.021 131.682 269.02 131.465C269.018 131.248 268.96 131.035 268.851 130.847C268.742 130.66 268.585 130.504 268.397 130.396C268.209 130.288 267.995 130.231 267.778 130.231H256.292C255.763 130.231 255.256 130.02 254.882 129.646C254.507 129.272 254.296 128.764 254.296 128.235V120.785C254.296 119.455 255.028 118.789 256.292 118.789H285.878C288.222 118.789 289.685 121.327 288.51 123.355L271.849 152.051C271.741 152.24 271.683 152.454 271.683 152.672C271.683 152.889 271.74 153.104 271.849 153.292C271.958 153.481 272.115 153.638 272.303 153.747C272.492 153.856 272.705 153.913 272.923 153.914H285.769C286.297 153.915 286.804 154.127 287.177 154.501C287.55 154.876 287.759 155.383 287.758 155.912V163.362C287.758 164.626 287.093 165.358 285.762 165.358L255.22 165.36Z" fill="#FD537F"/>
<path d="M59.8399 110.459C58.5135 109.577 57.0522 108.917 55.5134 108.506C52.5537 107.713 49.4209 107.855 46.5453 108.913C44.3192 109.726 42.3164 111.052 40.7001 112.785C39.147 114.46 38.0013 116.47 37.3522 118.66C37.0657 119.63 37.0974 120.666 37.4427 121.617C37.7879 122.567 38.4285 123.382 39.2706 123.943C40.5969 124.824 42.0582 125.484 43.5971 125.894C46.5567 126.688 49.6895 126.546 52.5652 125.488C54.791 124.675 56.7936 123.349 58.4096 121.616C59.9633 119.942 61.1093 117.931 61.7583 115.741C62.0447 114.771 62.0131 113.735 61.6679 112.784C61.3226 111.834 60.682 111.019 59.8399 110.459Z" fill="white"/>
<path d="M64.6281 130.238C63.2791 128.03 61.4966 126.118 59.3882 124.618C57.4307 123.216 55.236 122.179 52.9097 121.558C50.4264 120.893 47.8654 120.73 45.5046 121.092C44.7785 121.202 44.0613 121.364 43.3588 121.579C42.9025 121.126 42.4181 120.702 41.9084 120.31C39.9512 118.797 37.54 117.629 34.9356 116.931C29.9944 115.607 24.9485 116.104 20.7268 118.328C18.2504 119.635 16.1015 121.503 14.3399 123.883C12.5061 126.361 11.0991 129.393 10.1601 132.901C8.84637 137.767 8.72662 142.878 9.81084 147.801C10.7173 151.972 12.4401 156.027 14.9328 159.864C16.9878 163.028 19.5169 165.939 22.2471 168.285C24.1096 169.885 26.9135 171.949 29.7081 172.697C30.8062 172.992 32.1301 173.13 33.6427 173.109C35.1445 173.077 36.6414 172.927 38.1197 172.661C41.7752 172.005 45.3201 170.838 48.65 169.193C52.7747 167.161 56.3399 164.521 59.2462 161.346C62.7291 157.543 65.1807 153.055 66.5334 148.006C68.7862 139.592 66.7413 133.7 64.6281 130.238Z" fill="white"/>
<path d="M41.7633 127.702C39.9605 120.918 20.0407 114.292 14.7263 134.127C9.91636 152.078 25.2535 166.612 30.9296 168.134C36.1997 169.546 56.9871 165.362 61.9655 146.784C66.8662 128.493 48.5219 121.835 41.7633 127.702Z" fill="#FF9F16"/>
<path d="M61.9655 146.781C66.8655 128.493 48.4955 121.828 41.7307 127.69C41.7027 127.587 41.6709 127.484 41.6352 127.38C35.1606 131.049 29.9828 138.915 28.0217 146.233C26.0435 153.616 26.6147 160.901 29.2952 167.478C29.2952 167.478 30.7635 168.345 32.4467 168.346C39.4041 168.772 57.3868 163.871 61.9655 146.781Z" fill="#FFBC1D"/>
<path d="M53.5487 136.932C53.7926 136.066 53.2878 135.166 52.4211 134.922C51.5543 134.677 50.6538 135.182 50.4098 136.048C50.1658 136.915 50.6707 137.815 51.5374 138.059C52.4041 138.303 53.3047 137.799 53.5487 136.932Z" fill="#FF9F16"/>
<path d="M50.1811 139.741C50.4251 138.875 49.9202 137.975 49.0535 137.731C48.1867 137.487 47.2862 137.991 47.0422 138.857C46.7983 139.724 47.3031 140.624 48.1699 140.868C49.0366 141.112 49.9371 140.608 50.1811 139.741Z" fill="#FF9F16"/>
<path d="M55.0618 141.049C55.3058 140.183 54.801 139.283 53.9342 139.039C53.0675 138.795 52.167 139.299 51.923 140.165C51.6789 141.032 52.1838 141.932 53.0506 142.176C53.9174 142.42 54.8178 141.916 55.0618 141.049Z" fill="#FF9F16"/>
<path d="M48.151 113.353C46.6572 113.892 45.3107 114.775 44.2202 115.929C43.1296 117.084 42.3253 118.479 41.8719 120.001C43.1947 120.875 44.7049 121.424 46.2799 121.604C47.8548 121.785 49.4501 121.592 50.9362 121.04C52.5938 120.437 54.0674 119.417 55.2139 118.076C56.132 117.002 56.8137 115.746 57.2145 114.391C55.8917 113.518 54.3817 112.968 52.8069 112.788C51.2322 112.608 49.6371 112.801 48.151 113.353Z" fill="#21C064"/>
<path d="M57.2137 114.379C55.8855 113.513 54.3738 112.969 52.7985 112.79C51.2232 112.61 49.6278 112.8 48.1388 113.344C46.6497 113.889 45.3081 114.773 44.2203 115.926C43.1325 117.08 42.3284 118.471 41.8719 119.989L57.2137 114.379Z" fill="url(#paint0_linear_10764_64091)"/>
<path d="M65.4044 131.014C64.5181 129.563 63.4441 128.242 62.214 127.08C61.3565 126.171 60.4113 125.346 59.3884 124.618C58.8987 124.267 58.3927 123.939 57.8751 123.635C58.3353 123.248 58.7738 122.833 59.1859 122.392C60.7395 120.718 61.8858 118.707 62.5345 116.517C62.8209 115.547 62.7891 114.511 62.4437 113.56C62.1426 112.732 61.618 112.007 60.9304 111.464C60.6239 111.075 60.2568 110.736 59.8393 110.459C58.513 109.577 57.0517 108.917 55.5128 108.506C54.2525 108.168 52.9604 108 51.6706 108C49.9314 108 48.1954 108.306 46.5447 108.913C44.319 109.726 42.316 111.052 40.6995 112.785C39.3406 114.25 38.2937 115.972 37.6186 117.846C36.7556 117.486 35.8577 117.178 34.935 116.931C33.1221 116.445 31.2945 116.204 29.4987 116.204C26.4015 116.204 23.3989 116.92 20.7262 118.328C18.2498 119.635 16.1009 121.503 14.3393 123.883C12.5055 126.361 11.0985 129.393 10.1595 132.9C8.84562 137.767 8.72611 142.878 9.81025 147.801C10.7167 151.972 12.4395 156.027 14.9322 159.864C16.5681 162.382 18.5052 164.74 20.6036 166.781C21.3866 167.587 22.1953 168.351 23.0226 169.061C24.8851 170.661 27.689 172.725 30.4835 173.473C31.5817 173.768 32.9056 173.906 34.4181 173.885C35.9198 173.853 37.4168 173.703 38.8952 173.437C42.5504 172.781 46.0954 171.614 49.4254 169.969C53.5502 167.937 57.1154 165.297 60.0217 162.122C63.5046 158.319 65.9562 153.831 67.3088 148.782C69.5617 140.368 67.5168 134.476 65.4036 131.014H65.4044ZM65.9336 147.846C64.6066 152.798 62.2024 157.199 58.7885 160.927C55.935 164.044 52.4311 166.638 48.3754 168.637C45.0966 170.256 41.6098 171.404 38.0097 172.05C36.5686 172.31 35.0948 172.457 33.6312 172.488C33.5327 172.489 33.4341 172.49 33.3371 172.49C32.0054 172.49 30.839 172.358 29.8689 172.097C27.1915 171.38 24.4668 169.373 22.6516 167.814C19.9649 165.506 17.4761 162.64 15.4529 159.525C13.0006 155.751 11.3065 151.762 10.4164 147.667C9.35782 142.863 9.47655 137.812 10.7594 133.061C11.6767 129.633 13.0495 126.67 14.8383 124.252C16.5441 121.949 18.6223 120.14 21.0157 118.877C23.5642 117.535 26.4977 116.825 29.4987 116.825C31.2526 116.825 33.0274 117.063 34.7743 117.531C35.6583 117.768 36.5352 118.067 37.3795 118.419L37.9818 118.671L38.2029 118.057C38.8548 116.249 39.8474 114.617 41.1535 113.209C42.6955 111.556 44.6333 110.272 46.7589 109.496C48.3366 108.916 49.9889 108.621 51.6706 108.621C52.913 108.621 54.1516 108.784 55.3522 109.106C56.829 109.5 58.2228 110.129 59.4947 110.975C60.232 111.466 60.7807 112.164 61.0833 112.996C61.386 113.828 61.4124 114.717 61.1617 115.565C60.5432 117.652 59.4334 119.598 57.9543 121.193C57.4925 121.688 56.9873 122.157 56.4542 122.587L55.7084 123.188L56.5613 123.624C57.4203 124.063 58.2499 124.567 59.0276 125.124C61.0794 126.583 62.7852 128.413 64.0975 130.561C66.1471 133.919 68.1291 139.644 65.9329 147.846H65.9336Z" fill="#DBDAE0"/>
</g>
</g>
<defs>
<linearGradient id="paint0_linear_10764_64091" x1="46.208" y1="116.677" x2="60.6905" y2="118.348" gradientUnits="userSpaceOnUse">
<stop stop-color="#70EB64"/>
<stop offset="0.48" stop-color="#4CD864"/>
<stop offset="1" stop-color="#21C064"/>
</linearGradient>
<clipPath id="clip0_10764_64091">
<rect width="300" height="174" fill="white"/>
</clipPath>
<clipPath id="clip1_10764_64091">
<rect width="280" height="66" fill="white" transform="translate(9 108)"/>
</clipPath>
</defs>
</svg>
