<svg width="415" height="71" viewBox="0 0 415 71" fill="none" xmlns="http://www.w3.org/2000/svg">
<path d="M111.36 56.34H111.26L111.36 66.38H105.24V3.04004H111.36L111.26 30.46H111.36C113.84 24.03 120.63 20.14 128.46 20.14C142.32 20.14 151.3 30.09 151.3 43.67C151.3 57.34 142.32 67.38 128.46 67.38C120.73 67.38 114.13 63.22 111.36 56.34ZM110.88 43.22V44.31C110.88 54.99 118.14 62.41 128.27 62.41C138.78 62.41 145.37 54.45 145.37 43.68C145.37 33 138.78 25.13 128.27 25.13C118.24 25.13 110.98 32.46 110.88 43.22Z" fill="#F0244D"/>
<path d="M184.81 66.93C178.17 66.93 174.12 62.32 174.12 55.8V3.04004H180.02V55.34C180.02 59.23 182.23 61.86 185.46 61.86C186.75 61.86 188.5 61.59 190.9 60.41V65.75C188.59 66.66 186.47 66.93 184.81 66.93Z" fill="#F0244D"/>
<path d="M316.53 43.7699C316.53 57.3399 307.3 67.3899 293.45 67.3899C279.51 67.3899 270.27 57.3499 270.27 43.7699C270.27 30.1999 279.5 20.1499 293.45 20.1499C307.3 20.1499 316.53 30.1899 316.53 43.7699ZM276.11 43.7699C276.11 54.5399 282.89 62.4099 293.44 62.4099C303.9 62.4099 310.68 54.5399 310.68 43.7699C310.68 32.9999 303.9 25.1299 293.44 25.1299C282.9 25.1299 276.11 32.9999 276.11 43.7699Z" fill="#F0244D"/>
<path d="M252.23 43.7699C252.23 57.3399 243 67.3899 229.15 67.3899C215.21 67.3899 205.97 57.3499 205.97 43.7699C205.97 30.1999 215.2 20.1499 229.15 20.1499C242.99 20.1499 252.23 30.1899 252.23 43.7699ZM211.81 43.7699C211.81 54.5399 218.59 62.4099 229.14 62.4099C239.6 62.4099 246.38 54.5399 246.38 43.7699C246.38 32.9999 239.6 25.1299 229.14 25.1299C218.59 25.1299 211.81 32.9999 211.81 43.7699Z" fill="#F0244D"/>
<path d="M414.92 39.4199V66.3899H408.51V39.7799C408.51 30.0099 403.6 25.2999 395.59 25.2999C385.38 25.2999 380.57 31.3599 380.57 41.3199V66.3899H374.16V39.7799C374.16 30.0099 369.05 25.2999 361.04 25.2999C350.82 25.2999 346.02 31.3599 346.02 41.3199V66.3899H339.61V21.1399H346.02V29.4699C348.92 23.2299 354.33 20.1499 361.64 20.1499C369.95 20.1499 376.16 23.6799 378.97 30.3699C381.97 23.3099 388.38 20.1499 396.19 20.1499C407.71 20.1499 414.92 26.8399 414.92 39.4199Z" fill="#F0244D"/>
<path d="M35.5799 70.5999C55.0313 70.5999 70.7999 54.8314 70.7999 35.3799C70.7999 15.9284 55.0313 0.159912 35.5799 0.159912C16.1284 0.159912 0.359863 15.9284 0.359863 35.3799C0.359863 54.8314 16.1284 70.5999 35.5799 70.5999Z" fill="#F0244D"/>
</svg>
