<svg width="385" height="228" viewBox="0 0 385 228" fill="none" xmlns="http://www.w3.org/2000/svg">
<path d="M34.7557 124L40.5077 96.873H42.326L36.5926 124H34.7557ZM57.1505 124L59.9151 111.16C60.1749 110.022 60.3048 109.057 60.3048 108.266C60.3048 107.276 60.0326 106.503 59.4884 105.946C58.9565 105.39 58.1277 105.111 57.002 105.111C55.6166 105.111 54.3116 105.526 53.087 106.354C51.8748 107.183 50.8481 108.346 50.0069 109.843C49.1781 111.327 48.5411 113.096 48.0958 115.149L46.2032 124H44.3848L48.671 103.831H50.1925L49.5059 107.932H49.6173C51.6459 104.988 54.2188 103.516 57.336 103.516C58.9441 103.516 60.1501 103.911 60.9542 104.703C61.7582 105.495 62.1602 106.633 62.1602 108.117C62.1602 108.983 62.0118 110.109 61.7149 111.494L58.9688 124H57.1505ZM84.8326 124.297C81.9875 124.297 80.2619 122.942 79.6558 120.233H79.5816C79.4208 121.124 78.4992 125.423 76.817 133.129H74.98L81.2144 103.831H82.7359L81.9009 108.915H82.0123C83.1379 107.022 84.344 105.637 85.6304 104.759C86.9293 103.881 88.3456 103.441 89.8795 103.441C91.5494 103.441 92.8358 104.017 93.7388 105.167C94.6418 106.305 95.0933 108.049 95.0933 110.399C95.0933 112.812 94.648 115.106 93.7574 117.283C92.8668 119.46 91.6422 121.174 90.0836 122.423C88.5373 123.672 86.787 124.297 84.8326 124.297ZM89.4713 105.111C88.3951 105.111 87.3189 105.476 86.2427 106.206C85.1666 106.924 84.1646 107.956 83.2369 109.305C82.3215 110.653 81.6412 112.125 81.1959 113.721C80.7505 115.304 80.5279 116.59 80.5279 117.58C80.5279 119.126 80.9052 120.369 81.6597 121.31C82.4267 122.237 83.4719 122.701 84.7955 122.701C86.3293 122.701 87.7209 122.182 88.9703 121.143C90.2196 120.104 91.2339 118.601 92.0132 116.634C92.7925 114.655 93.1822 112.638 93.1822 110.585C93.1822 106.936 91.9452 105.111 89.4713 105.111ZM109.844 103.516C112.713 103.516 114.439 104.87 115.02 107.579H115.132L116.226 103.831H117.711L113.462 124H111.94L112.775 118.916H112.664C111.625 120.673 110.468 122.021 109.194 122.961C107.92 123.901 106.454 124.371 104.797 124.371C101.321 124.371 99.5828 122.058 99.5828 117.432C99.5828 114.995 100.047 112.669 100.974 110.455C101.902 108.241 103.139 106.534 104.685 105.334C106.244 104.122 107.963 103.516 109.844 103.516ZM105.223 122.701C106.324 122.701 107.419 122.318 108.508 121.551C109.609 120.784 110.592 119.757 111.458 118.471C112.336 117.184 113.004 115.762 113.462 114.203C113.919 112.645 114.148 111.327 114.148 110.251C114.148 109.274 113.987 108.402 113.666 107.635C113.344 106.855 112.868 106.243 112.237 105.798C111.606 105.34 110.821 105.111 109.881 105.111C108.347 105.111 106.961 105.618 105.724 106.633C104.487 107.647 103.473 109.169 102.681 111.197C101.89 113.214 101.494 115.224 101.494 117.228C101.494 119.108 101.803 120.493 102.422 121.384C103.04 122.262 103.974 122.701 105.223 122.701ZM132.721 103.479C133.574 103.479 134.335 103.565 135.003 103.738L134.613 105.464C134.032 105.278 133.333 105.186 132.517 105.186C131.354 105.186 130.247 105.581 129.195 106.373C128.144 107.165 127.198 108.352 126.356 109.936C125.515 111.519 124.897 113.232 124.501 115.075L122.646 124H120.827L125.113 103.831H126.598L126.06 107.616H126.171C127.074 106.453 127.835 105.618 128.453 105.111C129.072 104.592 129.727 104.19 130.42 103.905C131.125 103.621 131.892 103.479 132.721 103.479ZM147.081 103.831L146.747 105.334H141.496L138.991 117.116C138.719 118.341 138.583 119.355 138.583 120.159C138.583 121.879 139.363 122.738 140.921 122.738C141.762 122.738 142.702 122.577 143.741 122.256V123.852C142.492 124.198 141.441 124.371 140.587 124.371C139.363 124.371 138.416 124.037 137.748 123.369C137.08 122.689 136.746 121.705 136.746 120.419C136.746 119.516 136.926 118.242 137.284 116.597L139.678 105.334H136.301L136.561 104.091L139.975 103.775L141.775 99.0811H142.795L141.775 103.831H147.081ZM160.57 124L163.335 111.16C163.594 110.022 163.724 109.057 163.724 108.266C163.724 107.276 163.452 106.503 162.908 105.946C162.376 105.39 161.547 105.111 160.421 105.111C159.036 105.111 157.731 105.526 156.506 106.354C155.294 107.183 154.267 108.346 153.426 109.843C152.598 111.327 151.96 113.096 151.515 115.149L149.623 124H147.804L152.09 103.831H153.612L152.925 107.932H153.037C155.065 104.988 157.638 103.516 160.755 103.516C162.363 103.516 163.57 103.911 164.374 104.703C165.178 105.495 165.58 106.633 165.58 108.117C165.58 108.983 165.431 110.109 165.134 111.494L162.388 124H160.57ZM177.083 124.371C174.943 124.371 173.273 123.697 172.073 122.349C170.873 120.988 170.273 119.095 170.273 116.671C170.273 114.432 170.712 112.286 171.591 110.232C172.469 108.179 173.675 106.546 175.209 105.334C176.755 104.122 178.456 103.516 180.311 103.516C181.721 103.516 182.847 103.893 183.688 104.647C184.529 105.402 184.95 106.429 184.95 107.728C184.95 109.966 183.936 111.674 181.907 112.849C179.891 114.024 176.891 114.611 172.908 114.611H172.296C172.221 115.156 172.184 115.762 172.184 116.43C172.184 118.471 172.642 120.029 173.557 121.105C174.473 122.169 175.79 122.701 177.51 122.701C179.142 122.701 180.849 122.25 182.631 121.347V123.091C180.899 123.944 179.05 124.371 177.083 124.371ZM180.089 105.111C178.468 105.111 176.959 105.829 175.561 107.264C174.176 108.686 173.174 110.591 172.555 112.979H173.465C179.86 112.979 183.057 111.309 183.057 107.969C183.057 107.14 182.785 106.46 182.241 105.928C181.709 105.383 180.992 105.111 180.089 105.111ZM199.589 103.479C200.442 103.479 201.203 103.565 201.871 103.738L201.481 105.464C200.9 105.278 200.201 105.186 199.385 105.186C198.222 105.186 197.115 105.581 196.063 106.373C195.012 107.165 194.066 108.352 193.225 109.936C192.383 111.519 191.765 113.232 191.369 115.075L189.514 124H187.695L191.981 103.831H193.466L192.928 107.616H193.039C193.942 106.453 194.703 105.618 195.321 105.111C195.94 104.592 196.595 104.19 197.288 103.905C197.993 103.621 198.76 103.479 199.589 103.479ZM214.302 118.526C214.302 120.308 213.665 121.73 212.391 122.794C211.117 123.845 209.385 124.371 207.196 124.371C205.056 124.371 203.169 123.907 201.536 122.979V120.994C202.452 121.563 203.398 122.002 204.375 122.312C205.352 122.621 206.268 122.775 207.121 122.775C208.828 122.775 210.133 122.423 211.036 121.718C211.939 121 212.391 119.986 212.391 118.675C212.391 118.155 212.292 117.698 212.094 117.302C211.908 116.906 211.599 116.529 211.166 116.17C210.746 115.799 209.929 115.267 208.717 114.574C206.886 113.585 205.649 112.688 205.006 111.884C204.363 111.067 204.041 110.078 204.041 108.915C204.041 107.332 204.647 106.039 205.86 105.037C207.084 104.023 208.692 103.516 210.684 103.516C211.612 103.516 212.589 103.627 213.615 103.85C214.655 104.06 215.527 104.344 216.232 104.703L215.582 106.336C213.9 105.544 212.267 105.148 210.684 105.148C209.249 105.148 208.099 105.476 207.233 106.132C206.367 106.787 205.934 107.641 205.934 108.692C205.934 109.373 206.039 109.917 206.249 110.325C206.46 110.733 206.831 111.16 207.363 111.605C207.907 112.038 208.649 112.508 209.589 113.016C210.999 113.795 211.995 114.438 212.576 114.945C213.17 115.44 213.603 115.972 213.875 116.541C214.16 117.11 214.302 117.772 214.302 118.526ZM231.372 124L234.136 111.16C234.396 110.022 234.526 109.057 234.526 108.266C234.526 107.276 234.254 106.503 233.709 105.946C233.178 105.39 232.349 105.111 231.223 105.111C229.838 105.111 228.533 105.526 227.308 106.354C226.096 107.183 225.069 108.346 224.228 109.843C223.399 111.34 222.762 113.108 222.317 115.149L220.424 124H218.606L224.766 95.1289H226.547L224.952 102.755C224.407 105.229 223.999 106.954 223.727 107.932H223.838C224.803 106.534 225.954 105.451 227.29 104.685C228.638 103.905 230.06 103.516 231.557 103.516C233.091 103.516 234.278 103.918 235.12 104.722C235.961 105.526 236.381 106.658 236.381 108.117C236.381 108.983 236.233 110.109 235.936 111.494L233.19 124H231.372ZM242.411 124H240.592L244.879 103.831H246.66L242.411 124ZM245.676 98.6543C245.676 97.974 245.813 97.4297 246.085 97.0215C246.357 96.6133 246.728 96.4092 247.198 96.4092C247.903 96.4092 248.256 96.8545 248.256 97.7451C248.256 98.4502 248.12 99.0068 247.847 99.415C247.575 99.8232 247.223 100.027 246.79 100.027C246.431 100.027 246.153 99.9098 245.955 99.6748C245.769 99.4274 245.676 99.0872 245.676 98.6543ZM258.015 124.297C255.17 124.297 253.444 122.942 252.838 120.233H252.764C252.603 121.124 251.681 125.423 249.999 133.129H248.162L254.396 103.831H255.918L255.083 108.915H255.194C256.32 107.022 257.526 105.637 258.812 104.759C260.111 103.881 261.528 103.441 263.061 103.441C264.731 103.441 266.018 104.017 266.921 105.167C267.824 106.305 268.275 108.049 268.275 110.399C268.275 112.812 267.83 115.106 266.939 117.283C266.049 119.46 264.824 121.174 263.266 122.423C261.719 123.672 259.969 124.297 258.015 124.297ZM262.653 105.111C261.577 105.111 260.501 105.476 259.425 106.206C258.349 106.924 257.347 107.956 256.419 109.305C255.504 110.653 254.823 112.125 254.378 113.721C253.933 115.304 253.71 116.59 253.71 117.58C253.71 119.126 254.087 120.369 254.842 121.31C255.609 122.237 256.654 122.701 257.978 122.701C259.511 122.701 260.903 122.182 262.152 121.143C263.402 120.104 264.416 118.601 265.195 116.634C265.975 114.655 266.364 112.638 266.364 110.585C266.364 106.936 265.127 105.111 262.653 105.111ZM297.052 124L295.939 111.271C295.766 108.501 295.679 106.855 295.679 106.336H295.568C295.147 107.474 294.257 109.268 292.896 111.717L286.29 124H284.12L283.748 103.831H285.456L285.697 119.064L285.641 121.978H285.752C286.507 120.32 287.435 118.483 288.536 116.467L295.456 103.831H296.885L298.073 116.467C298.246 118.285 298.332 120.122 298.332 121.978H298.444L298.889 120.846L300.763 116.467L306.701 103.831H308.482L299.056 124H297.052ZM311.357 124H309.539L313.825 103.831H315.606L311.357 124ZM314.623 98.6543C314.623 97.974 314.759 97.4297 315.031 97.0215C315.303 96.6133 315.674 96.4092 316.144 96.4092C316.849 96.4092 317.202 96.8545 317.202 97.7451C317.202 98.4502 317.066 99.0068 316.794 99.415C316.522 99.8232 316.169 100.027 315.736 100.027C315.377 100.027 315.099 99.9098 314.901 99.6748C314.716 99.4274 314.623 99.0872 314.623 98.6543ZM330.598 103.831L330.264 105.334H325.013L322.508 117.116C322.236 118.341 322.1 119.355 322.1 120.159C322.1 121.879 322.879 122.738 324.437 122.738C325.279 122.738 326.219 122.577 327.258 122.256V123.852C326.008 124.198 324.957 124.371 324.103 124.371C322.879 124.371 321.933 124.037 321.265 123.369C320.597 122.689 320.263 121.705 320.263 120.419C320.263 119.516 320.442 118.242 320.801 116.597L323.194 105.334H319.817L320.077 104.091L323.491 103.775L325.291 99.0811H326.311L325.291 103.831H330.598ZM344.086 124L346.851 111.16C347.111 110.022 347.24 109.057 347.24 108.266C347.24 107.276 346.968 106.503 346.424 105.946C345.892 105.39 345.063 105.111 343.938 105.111C342.552 105.111 341.247 105.526 340.023 106.354C338.81 107.183 337.784 108.346 336.943 109.843C336.114 111.34 335.477 113.108 335.031 115.149L333.139 124H331.32L337.481 95.1289H339.262L337.666 102.755C337.122 105.229 336.714 106.954 336.442 107.932H336.553C337.518 106.534 338.668 105.451 340.004 104.685C341.352 103.905 342.775 103.516 344.272 103.516C345.805 103.516 346.993 103.918 347.834 104.722C348.675 105.526 349.096 106.658 349.096 108.117C349.096 108.983 348.947 110.109 348.651 111.494L345.904 124H344.086Z" fill="black" fill-opacity="0.95"/>
<path d="M113.642 219.641C111.757 219.625 109.895 219.232 108.164 218.485C106.434 217.738 104.87 216.652 103.565 215.292C102.261 213.931 101.242 212.323 100.568 210.563C99.8941 208.803 99.5793 206.925 99.6421 205.041C99.5875 203.16 99.9079 201.286 100.585 199.529C101.261 197.772 102.281 196.168 103.584 194.809C104.887 193.45 106.447 192.364 108.174 191.614C109.901 190.865 111.76 190.466 113.642 190.441C121.452 190.441 127.552 196.111 127.552 205.041C127.552 213.971 121.452 219.641 113.642 219.641ZM115.102 182.541C108.492 182.541 102.392 186.021 99.6421 190.921V164.681C99.6707 164.077 99.5763 163.474 99.3649 162.907C99.1534 162.34 98.8291 161.823 98.4117 161.385C97.9942 160.947 97.4924 160.599 96.9364 160.361C96.3804 160.123 95.7819 160 95.1771 160C94.5723 160 93.9737 160.123 93.4178 160.361C92.8618 160.599 92.3598 160.947 91.9424 161.385C91.525 161.823 91.2007 162.34 90.9892 162.907C90.7777 163.474 90.6835 164.077 90.7121 164.681V223.071C90.6835 223.675 90.7777 224.279 90.9892 224.846C91.2007 225.412 91.525 225.93 91.9424 226.368C92.3598 226.806 92.8618 227.154 93.4178 227.392C93.9737 227.63 94.5723 227.753 95.1771 227.753C95.7819 227.753 96.3804 227.63 96.9364 227.392C97.4924 227.154 97.9942 226.806 98.4117 226.368C98.8291 225.93 99.1534 225.412 99.3649 224.846C99.5763 224.279 99.6707 223.675 99.6421 223.071V219.161C102.202 224.091 108.492 227.541 115.102 227.541C126.262 227.541 136.222 218.541 136.222 205.041C136.222 191.541 126.222 182.541 115.102 182.541" fill="#FFC629"/>
<path d="M291.132 219.641C289.247 219.625 287.385 219.232 285.654 218.485C283.924 217.738 282.36 216.652 281.055 215.292C279.751 213.931 278.732 212.323 278.058 210.563C277.384 208.803 277.069 206.925 277.132 205.041C277.077 203.16 277.398 201.286 278.075 199.529C278.751 197.772 279.771 196.168 281.074 194.809C282.377 193.45 283.937 192.364 285.664 191.614C287.391 190.865 289.25 190.466 291.132 190.441C298.952 190.441 305.052 196.111 305.052 205.041C305.052 213.971 298.952 219.641 291.132 219.641ZM292.592 182.541C285.982 182.541 279.892 186.021 277.142 190.921V164.681C277.171 164.077 277.076 163.474 276.865 162.907C276.653 162.34 276.329 161.823 275.912 161.385C275.494 160.947 274.992 160.599 274.436 160.361C273.88 160.123 273.282 160 272.677 160C272.072 160 271.474 160.123 270.918 160.361C270.362 160.599 269.86 160.947 269.442 161.385C269.025 161.823 268.701 162.34 268.489 162.907C268.278 163.474 268.183 164.077 268.212 164.681V223.071C268.183 223.675 268.278 224.279 268.489 224.846C268.701 225.412 269.025 225.93 269.442 226.368C269.86 226.806 270.362 227.154 270.918 227.392C271.474 227.63 272.072 227.753 272.677 227.753C273.282 227.753 273.88 227.63 274.436 227.392C274.992 227.154 275.494 226.806 275.912 226.368C276.329 225.93 276.653 225.412 276.865 224.846C277.076 224.279 277.171 223.675 277.142 223.071V219.161C279.702 224.091 285.982 227.541 292.592 227.541C303.762 227.541 313.722 218.541 313.722 205.041C313.722 191.541 303.722 182.541 292.592 182.541" fill="#FFC629"/>
<path d="M178.622 183.741C177.438 183.744 176.304 184.216 175.468 185.054C174.632 185.892 174.162 187.028 174.162 188.211V203.411C174.162 214.141 169.162 219.291 161.542 219.291C155.352 219.291 151.322 214.571 151.322 207.621V188.211C151.351 187.607 151.256 187.004 151.045 186.437C150.833 185.87 150.509 185.353 150.092 184.915C149.674 184.477 149.172 184.129 148.616 183.891C148.06 183.653 147.462 183.53 146.857 183.53C146.252 183.53 145.654 183.653 145.098 183.891C144.542 184.129 144.04 184.477 143.622 184.915C143.205 185.353 142.881 185.87 142.669 186.437C142.458 187.004 142.363 187.607 142.392 188.211V209.421C142.392 220.151 149.172 227.541 159.472 227.541C165.742 227.541 171.922 224.041 174.162 219.161V223.071C174.133 223.676 174.228 224.279 174.439 224.846C174.651 225.412 174.975 225.93 175.392 226.368C175.81 226.806 176.312 227.154 176.868 227.392C177.424 227.63 178.022 227.753 178.627 227.753C179.232 227.753 179.83 227.63 180.386 227.392C180.942 227.154 181.444 226.806 181.862 226.368C182.279 225.93 182.603 225.412 182.815 224.846C183.026 224.279 183.121 223.676 183.092 223.071V188.211C183.092 187.026 182.621 185.889 181.783 185.051C180.945 184.212 179.808 183.741 178.622 183.741" fill="#FFC629"/>
<path d="M244.032 182.541C237.032 182.541 231.212 185.541 228.142 191.081C225.782 185.861 220.072 182.541 213.972 182.541C211.162 182.605 208.42 183.412 206.023 184.878C203.625 186.345 201.659 188.419 200.322 190.891V188.211C200.351 187.607 200.256 187.003 200.045 186.437C199.833 185.87 199.509 185.352 199.092 184.915C198.674 184.477 198.172 184.129 197.616 183.891C197.06 183.653 196.462 183.53 195.857 183.53C195.252 183.53 194.654 183.653 194.098 183.891C193.542 184.129 193.04 184.477 192.622 184.915C192.205 185.352 191.881 185.87 191.669 186.437C191.458 187.003 191.363 187.607 191.392 188.211V223.071C191.363 223.675 191.458 224.279 191.669 224.846C191.881 225.412 192.205 225.93 192.622 226.368C193.04 226.805 193.542 227.154 194.098 227.392C194.654 227.63 195.252 227.753 195.857 227.753C196.462 227.753 197.06 227.63 197.616 227.392C198.172 227.154 198.674 226.805 199.092 226.368C199.509 225.93 199.833 225.412 200.045 224.846C200.256 224.279 200.351 223.675 200.322 223.071V205.211C200.322 195.681 204.792 190.791 211.662 190.791C217.152 190.791 221.282 194.731 221.282 201.001V223.071C221.253 223.675 221.348 224.279 221.559 224.846C221.771 225.412 222.095 225.93 222.512 226.368C222.93 226.805 223.432 227.154 223.988 227.392C224.544 227.63 225.142 227.753 225.747 227.753C226.352 227.753 226.95 227.63 227.506 227.392C228.062 227.154 228.564 226.805 228.982 226.368C229.399 225.93 229.723 225.412 229.935 224.846C230.146 224.279 230.241 223.675 230.212 223.071V205.211C230.212 195.681 234.762 190.791 241.712 190.791C247.212 190.791 251.332 194.731 251.332 201.001L251.242 223.071C251.213 223.675 251.308 224.279 251.519 224.846C251.731 225.412 252.055 225.93 252.472 226.368C252.89 226.805 253.392 227.154 253.948 227.392C254.504 227.63 255.102 227.753 255.707 227.753C256.312 227.753 256.91 227.63 257.466 227.392C258.022 227.154 258.524 226.805 258.942 226.368C259.359 225.93 259.683 225.412 259.895 224.846C260.106 224.279 260.201 223.675 260.172 223.071V199.201C260.172 189.201 252.872 182.541 244.032 182.541" fill="#FFC629"/>
<path d="M340.302 222.001C340.063 221.007 339.452 220.141 338.594 219.583C337.737 219.025 336.698 218.817 335.692 219.001C335.197 219.089 334.695 219.136 334.192 219.141C330.932 219.141 328.702 217.081 328.702 214.141V164.681C328.702 164.095 328.586 163.514 328.362 162.972C328.137 162.431 327.807 161.938 327.392 161.524C326.977 161.11 326.484 160.782 325.942 160.558C325.4 160.335 324.819 160.22 324.232 160.221V160.221C323.646 160.22 323.064 160.335 322.522 160.558C321.98 160.782 321.487 161.11 321.072 161.524C320.657 161.938 320.327 162.431 320.103 162.972C319.878 163.514 319.762 164.095 319.762 164.681V214.581C319.741 217.996 321.072 221.28 323.465 223.716C325.858 226.152 329.118 227.542 332.532 227.581C334.273 227.615 336.009 227.368 337.672 226.851C338.618 226.542 339.415 225.891 339.907 225.026C340.399 224.16 340.551 223.143 340.332 222.171L340.302 222.001Z" fill="#FFC629"/>
<path d="M350.232 200.831C350.842 197.853 352.476 195.182 354.852 193.284C357.227 191.385 360.192 190.38 363.232 190.441C369.072 190.441 373.962 193.881 375.342 200.831H350.232ZM384.322 204.571C383.622 198.231 380.192 182.571 363.202 182.571C351.202 182.571 341.132 191.571 341.132 205.161C341.132 218.751 351.262 227.571 362.852 227.571C370.252 227.571 376.492 224.821 380.542 219.341C380.879 218.92 381.128 218.434 381.273 217.914C381.417 217.394 381.455 216.85 381.384 216.315C381.313 215.78 381.134 215.265 380.859 214.801C380.583 214.336 380.217 213.933 379.781 213.614C379.346 213.295 378.85 213.068 378.324 212.946C377.798 212.824 377.253 212.809 376.722 212.903C376.19 212.997 375.683 213.198 375.231 213.493C374.779 213.789 374.392 214.172 374.092 214.621C371.092 218.811 366.952 219.841 362.852 219.841C356.582 219.841 350.852 215.121 349.972 207.221H381.972C382.303 207.22 382.631 207.15 382.933 207.014C383.236 206.878 383.506 206.681 383.727 206.433C383.947 206.186 384.114 205.895 384.214 205.58C384.315 205.264 384.349 204.931 384.312 204.601" fill="#FFC629"/>
<path d="M54.9221 198.141H21.2521C20.1382 198.141 19.0699 197.699 18.2822 196.911C17.4946 196.124 17.0521 195.055 17.0521 193.941C17.0521 192.828 17.4946 191.759 18.2822 190.972C19.0699 190.184 20.1382 189.741 21.2521 189.741H54.9221C56.036 189.741 57.1043 190.184 57.8919 190.972C58.6796 191.759 59.1221 192.828 59.1221 193.941C59.1221 195.055 58.6796 196.124 57.8919 196.911C57.1043 197.699 56.036 198.141 54.9221 198.141ZM43.2421 212.641H32.9221C31.8081 212.641 30.7399 212.199 29.9522 211.411C29.1646 210.624 28.7221 209.555 28.7221 208.441C28.7221 207.328 29.1646 206.259 29.9522 205.472C30.7399 204.684 31.8081 204.241 32.9221 204.241H43.2321C44.346 204.241 45.4143 204.684 46.2019 205.472C46.9896 206.259 47.4321 207.328 47.4321 208.441C47.4321 209.555 46.9896 210.624 46.2019 211.411C45.4143 212.199 44.346 212.641 43.2321 212.641H43.2421ZM28.7921 175.231H47.3821C48.496 175.231 49.5643 175.674 50.3519 176.462C51.1396 177.249 51.5821 178.318 51.5821 179.431C51.5821 180.545 51.1396 181.614 50.3519 182.401C49.5643 183.189 48.496 183.631 47.3821 183.631H28.7921C27.6781 183.631 26.6099 183.189 25.8222 182.401C25.0346 181.614 24.5921 180.545 24.5921 179.431C24.5921 178.318 25.0346 177.249 25.8222 176.462C26.6099 175.674 27.6781 175.231 28.7921 175.231V175.231ZM75.5621 191.431L58.9221 162.661C58.4944 161.923 57.8807 161.309 57.1421 160.881C56.4035 160.453 55.5657 160.225 54.7121 160.221H21.5021C20.6435 160.221 19.7999 160.446 19.0558 160.874C18.3117 161.303 17.6931 161.919 17.2621 162.661L0.652054 191.431C0.224815 192.175 0 193.018 0 193.876C0 194.734 0.224815 195.577 0.652054 196.321L17.2621 225.091C17.6931 225.834 18.3117 226.45 19.0558 226.878C19.7999 227.307 20.6435 227.532 21.5021 227.531H54.7121C55.5657 227.528 56.4035 227.3 57.1421 226.872C57.8807 226.444 58.4944 225.83 58.9221 225.091L75.532 196.321C75.9593 195.577 76.1841 194.734 76.1841 193.876C76.1841 193.018 75.9593 192.175 75.532 191.431" fill="#FFC629"/>
<path d="M102.906 52.0829H102.813L102.906 61.3908H97.2319V2.66968H102.906L102.813 28.0901H102.906C105.205 22.129 111.5 18.5227 118.759 18.5227C131.608 18.5227 139.933 27.7472 139.933 40.3369C139.933 53.01 131.608 62.3179 118.759 62.3179C111.592 62.3179 105.474 58.4612 102.906 52.0829ZM102.461 39.9197V40.9302C102.461 50.8314 109.191 57.7103 118.582 57.7103C128.326 57.7103 134.435 50.3308 134.435 40.3461C134.435 30.4449 128.326 23.1488 118.582 23.1488C109.284 23.1488 102.553 29.9443 102.461 39.9197Z" fill="#F0244D"/>
<path d="M170.999 61.9006C164.843 61.9006 161.089 57.6268 161.089 51.5823V2.66968H166.558V51.1558C166.558 54.7621 168.607 57.2003 171.602 57.2003C172.798 57.2003 174.42 56.9501 176.645 55.8561V60.8067C174.503 61.6503 172.538 61.9006 170.999 61.9006Z" fill="#F0244D"/>
<path d="M293.114 40.4298C293.114 53.0103 284.557 62.3274 271.717 62.3274C258.793 62.3274 250.227 53.0195 250.227 40.4298C250.227 27.8494 258.784 18.5322 271.717 18.5322C284.557 18.5322 293.114 27.8401 293.114 40.4298ZM255.641 40.4298C255.641 50.4144 261.927 57.7106 271.707 57.7106C281.405 57.7106 287.69 50.4144 287.69 40.4298C287.69 30.4452 281.405 23.1491 271.707 23.1491C261.936 23.1491 255.641 30.4452 255.641 40.4298Z" fill="#F0244D"/>
<path d="M233.503 40.4298C233.503 53.0103 224.946 62.3274 212.106 62.3274C199.183 62.3274 190.616 53.0195 190.616 40.4298C190.616 27.8494 199.173 18.5322 212.106 18.5322C224.937 18.5322 233.503 27.8401 233.503 40.4298ZM196.031 40.4298C196.031 50.4144 202.316 57.7106 212.097 57.7106C221.794 57.7106 228.08 50.4144 228.08 40.4298C228.08 30.4452 221.794 23.1491 212.097 23.1491C202.316 23.1491 196.031 30.4452 196.031 40.4298Z" fill="#F0244D"/>
<path d="M384.33 36.397V61.4003H378.387V36.7308C378.387 27.6732 373.835 23.3067 366.41 23.3067C356.944 23.3067 352.485 28.9248 352.485 38.1585V61.4003H346.542V36.7308C346.542 27.6732 341.805 23.3067 334.379 23.3067C324.904 23.3067 320.454 28.9248 320.454 38.1585V61.4003H314.512V19.4501H320.454V27.1726C323.143 21.3876 328.158 18.5322 334.935 18.5322C342.639 18.5322 348.396 21.8048 351.001 28.007C353.783 21.4618 359.725 18.5322 366.966 18.5322C377.646 18.5322 384.33 24.7344 384.33 36.397Z" fill="#F0244D"/>
<path d="M32.6517 65.3033C50.6847 65.3033 65.3033 50.6847 65.3033 32.6517C65.3033 14.6186 50.6847 0 32.6517 0C14.6186 0 0 14.6186 0 32.6517C0 50.6847 14.6186 65.3033 32.6517 65.3033Z" fill="#F0244D"/>
</svg>
