<svg width="1062" height="187" viewBox="0 0 1062 187" fill="none" xmlns="http://www.w3.org/2000/svg">
<path d="M123.349 31.4148H60.3854C52.1528 31.4148 45.4717 24.7466 45.4717 16.5159C45.4717 8.28527 52.1449 1.6171 60.3854 1.6171H123.349C131.582 1.6171 138.263 8.28527 138.263 16.5159C138.263 24.7466 131.59 31.4148 123.349 31.4148Z" fill="#343333"/>
<path d="M168.975 81.0835H14.7633C6.60986 81.0835 0 74.4153 0 66.1846C0 57.954 6.60986 51.2858 14.7633 51.2858H168.975C177.128 51.2858 183.738 57.954 183.738 66.1846C183.738 74.4153 177.128 81.0835 168.975 81.0835Z" fill="#343333"/>
<path d="M155.937 130.745H27.7924C19.6469 130.745 13.0449 124.077 13.0449 115.846C13.0449 107.615 19.6469 100.947 27.7924 100.947H155.944C164.09 100.947 170.692 107.615 170.692 115.846C170.692 124.077 164.09 130.745 155.944 130.745H155.937Z" fill="#343333"/>
<path d="M116.35 180.403H67.4137C59.1811 180.403 52.5 173.735 52.5 165.504C52.5 157.274 59.1732 150.605 67.4137 150.605H116.35C124.583 150.605 131.264 157.274 131.264 165.504C131.264 173.735 124.591 180.403 116.35 180.403Z" fill="#343333"/>
<path d="M956.315 107.659C957.565 87.9254 973.346 75.1853 996.89 75.1853C1019.18 75.1853 1034.96 87.9254 1034.96 106.159C1034.96 106.909 1034.46 107.659 1033.2 107.659H956.315ZM998.639 186.349C1021.93 186.349 1042.21 176.853 1053.99 160.372C1055.75 157.877 1056.74 155.123 1056.74 152.376C1056.74 146.132 1051.99 141.633 1045.73 141.633C1041.72 141.633 1038.46 143.385 1034.21 147.876C1023.94 158.864 1013.17 163.861 999.391 163.861C974.343 163.861 957.312 149.376 956.061 127.14H1057.74C1060.5 127.14 1062 125.64 1062 123.146V120.399C1062 79.9293 1036.2 53.4546 996.629 53.4546C957.059 53.4546 928.758 80.1819 928.758 120.399C928.758 160.616 956.307 186.349 998.631 186.349H998.639ZM901.969 186.349C909.986 186.349 915.747 180.35 915.747 172.362V13.9873C915.747 5.99117 909.732 3.05176e-05 901.969 3.05176e-05C894.205 3.05176e-05 888.19 5.99907 888.19 13.9873V172.362C888.19 180.358 894.205 186.349 901.969 186.349ZM748.443 186.349C756.207 186.349 761.715 180.35 761.715 172.362V164.366C770.231 178.353 787.009 186.349 808.052 186.349C847.876 186.349 875.172 159.125 875.172 119.405C875.172 79.6846 848.121 53.4546 810.308 53.4546C789.019 53.4546 770.484 62.4453 762.475 76.9377V13.9873C762.475 5.99117 756.46 3.05176e-05 748.697 3.05176e-05C740.933 3.05176e-05 734.918 5.99907 734.918 13.9873V172.362C734.918 180.358 740.68 186.349 748.443 186.349ZM804.293 163.869C777.243 163.869 761.217 147.632 761.217 119.902C761.217 92.1721 777.243 75.9352 804.293 75.9352C831.344 75.9352 847.623 92.1721 847.623 119.902C847.623 147.632 831.597 163.869 804.293 163.869ZM429.87 186.349C448.152 186.349 463.932 178.353 471.443 165.613V172.354C471.443 180.35 477.457 186.341 485.221 186.341C492.985 186.341 499 180.342 499 172.354V71.436C499 63.4399 492.985 57.4487 485.221 57.4487C477.457 57.4487 471.443 63.4478 471.443 71.436V131.884C471.443 153.37 459.92 165.108 438.884 165.108C417.849 165.108 406.073 153.37 406.073 131.884V71.436C406.073 63.4399 400.058 57.4487 392.294 57.4487C384.53 57.4487 378.516 63.4478 378.516 71.436V133.384C378.516 167.357 396.797 186.341 429.854 186.341L429.87 186.349ZM249.049 73.4409V25.2276C249.049 24.2251 250.054 23.2305 251.051 23.2305H304.646C321.93 23.2305 332.195 32.4738 332.195 48.2134C332.195 63.9529 321.93 73.4409 304.646 73.4409H249.049ZM225.26 182.355H306.909C342.974 182.355 365.513 161.871 365.513 129.398C365.513 103.918 353.745 89.4331 329.195 84.9338C348.727 80.9397 359.997 66.6999 359.997 46.2163C359.997 17.9893 338.961 3.05176e-05 306.149 3.05176e-05H225.252C222.996 3.05176e-05 221.247 1.75238 221.247 3.99413V178.353C221.247 180.603 223.004 182.347 225.252 182.347L225.26 182.355ZM249.049 156.875V97.4213H305.651C325.436 97.4213 337.457 109.159 337.457 128.143C337.457 147.126 325.436 158.864 305.651 158.864H251.051C250.046 158.864 249.049 157.862 249.049 156.867V156.875ZM528.804 186.349C536.821 186.349 542.582 180.35 542.582 172.362V107.912C542.582 87.4281 554.351 74.6881 573.637 74.6881C592.924 74.6881 603.188 86.9308 603.188 107.912V172.362C603.188 180.358 609.203 186.349 616.967 186.349C624.731 186.349 630.745 180.35 630.745 172.362V107.912C630.745 87.4281 642.514 74.6881 661.8 74.6881C681.087 74.6881 691.351 86.9308 691.351 107.912V172.362C691.351 180.358 697.366 186.349 705.13 186.349C712.893 186.349 718.908 180.35 718.908 172.362V106.412C718.908 73.1883 700.373 53.4546 669.318 53.4546C648.781 53.4546 633.507 62.2006 625.237 78.4375C616.975 61.7033 602.943 53.4546 582.414 53.4546C563.634 53.4546 550.109 60.4482 542.59 74.1908V71.4438C542.59 63.4478 536.576 57.4566 528.812 57.4566C521.048 57.4566 515.034 63.4557 515.034 71.4438V172.362C515.034 180.358 521.048 186.349 528.812 186.349H528.804Z" fill="#343333"/>
</svg>
