<svg xmlns="http://www.w3.org/2000/svg" viewBox="0 0 250.27 43.84"><defs><style>.cls-1{fill:#ffc629;}</style></defs><g id="Layer_2" data-name="Layer 2"><g id="Layer_1-2" data-name="Layer 1"><g id="Bumble_Logo_Yellow" data-name="Bumble Logo Yellow"><path class="cls-1" d="M75,14.54A11.63,11.63,0,0,0,64.89,20V2.91a2.91,2.91,0,1,0-5.81,0v38a2.91,2.91,0,1,0,5.81,0V38.38c1.66,3.22,5.75,5.46,10.06,5.46,7.27,0,13.75-5.87,13.75-14.65S82.22,14.54,75,14.54ZM74,38.69a9.2,9.2,0,0,1-9.12-9.5A9.24,9.24,0,0,1,74,19.68c5.09,0,9.06,3.69,9.06,9.51S79.09,38.69,74,38.69Z"/><path class="cls-1" d="M190.53,14.54A11.64,11.64,0,0,0,180.47,20V2.91a2.91,2.91,0,1,0-5.82,0v38a2.91,2.91,0,1,0,5.82,0V38.38c1.67,3.22,5.76,5.46,10.06,5.46,7.27,0,13.76-5.87,13.76-14.65S197.8,14.54,190.53,14.54Zm-.95,24.15a9.19,9.19,0,0,1-9.11-9.5,9.23,9.23,0,0,1,9.11-9.51c5.09,0,9.06,3.69,9.06,9.51S194.67,38.69,189.58,38.69Z"/><path class="cls-1" d="M116.32,15.32a2.91,2.91,0,0,0-2.91,2.91v9.9c0,7-3.24,10.34-8.22,10.34-4,0-6.65-3.08-6.65-7.6V18.23a2.91,2.91,0,0,0-5.82,0V32c0,7,4.42,11.8,11.13,11.8,4.08,0,8.1-2.28,9.56-5.46v2.55a2.91,2.91,0,1,0,5.81,0V18.23A2.9,2.9,0,0,0,116.32,15.32Z"/><path class="cls-1" d="M158.91,14.54c-4.59,0-8.35,1.93-10.35,5.56a10.05,10.05,0,0,0-9.22-5.56A10.36,10.36,0,0,0,130.45,20V18.23a2.91,2.91,0,1,0-5.82,0v22.7a2.91,2.91,0,0,0,5.82,0V29.3c0-6.21,2.9-9.39,7.38-9.39,3.57,0,6.26,2.57,6.26,6.65l0,14.37a2.91,2.91,0,0,0,2.9,2.91h0a2.92,2.92,0,0,0,2.91-2.91l0-11.63c0-6.21,3-9.39,7.5-9.39,3.58,0,6.26,2.57,6.26,6.65l-.06,14.37a2.92,2.92,0,0,0,2.91,2.91h0a2.92,2.92,0,0,0,2.91-2.91V25.39C169.42,18.84,164.67,14.54,158.91,14.54Z"/><path class="cls-1" d="M221.6,40.23a2.63,2.63,0,0,0-3-2,5,5,0,0,1-1,.1A3.27,3.27,0,0,1,214,35.12V2.91A2.91,2.91,0,0,0,211.13,0h0a2.91,2.91,0,0,0-2.91,2.91V35.4a8.42,8.42,0,0,0,8.32,8.44,10.54,10.54,0,0,0,3.34-.48,2.59,2.59,0,0,0,1.74-3Z"/><path class="cls-1" d="M250.26,28.89c-.46-4.13-2.69-14.35-13.76-14.35-7.82,0-14.37,5.87-14.37,14.7s6.6,14.6,14.15,14.6c4.82,0,8.88-1.79,11.52-5.36a2.6,2.6,0,1,0-4.2-3.07c-1.95,2.72-4.65,3.4-7.32,3.4-4.08,0-7.83-3.08-8.39-8.22h20.85A1.54,1.54,0,0,0,250.26,28.89Zm-22.2-2.44a8.47,8.47,0,0,1,8.44-6.77c3.81,0,7,2.24,7.89,6.77Z"/><path class="cls-1" d="M49.2,20.33,38.39,1.59A3.2,3.2,0,0,0,35.63,0H14a3.2,3.2,0,0,0-2.76,1.59L.43,20.33a3.17,3.17,0,0,0,0,3.18L11.24,42.24A3.18,3.18,0,0,0,14,43.84H35.63a3.18,3.18,0,0,0,2.76-1.6L49.2,23.51A3.17,3.17,0,0,0,49.2,20.33ZM18.75,9.78h12.1a2.74,2.74,0,1,1,0,5.47H18.75a2.74,2.74,0,0,1,0-5.47Zm9.41,24.36H21.44a2.74,2.74,0,0,1,0-5.47h6.72a2.74,2.74,0,1,1,0,5.47Zm7.61-9.45H13.84a2.74,2.74,0,1,1,0-5.47H35.77a2.74,2.74,0,0,1,0,5.47Z"/></g></g></g></svg>