<svg width="36" height="36" viewBox="0 0 36 36" fill="none" xmlns="http://www.w3.org/2000/svg">
<path d="M10.099 9.13096C9.98767 9.05714 9.86527 9.00161 9.73641 8.96647C9.10286 8.7787 8.00217 8.90121 7.52587 9.41339C6.97629 10.005 6.87209 11.4117 7.31634 12.0659C7.53198 12.3838 7.86592 12.5975 8.18155 12.8166C9.4943 13.7294 10.627 14.8769 11.5226 16.2015C11.7985 15.1523 12.5816 14.3211 13.3671 13.5727C14.1525 12.8242 14.991 12.0785 15.4372 11.0896C15.8833 10.1007 15.8131 8.78175 14.9647 8.1066C14.5006 7.73831 13.8659 7.61808 13.2827 7.72495C12.0519 7.94974 11.1115 9.03021 10.984 10.2618L10.4696 9.54086C10.3665 9.39621 10.2604 9.24889 10.1173 9.14356L10.099 9.13096Z" fill="#FAB9A1"/>
<path d="M11.8264 15.7628L11.6577 15.5452C10.8199 14.4666 9.77789 13.5636 8.59109 12.8878L8.42622 12.7954C8.03731 12.579 7.63505 12.3554 7.34843 11.9939C7.04997 11.6173 6.89044 11.0894 6.90304 10.5055C6.91601 9.82768 7.16447 9.25252 7.58467 8.92736C8.03655 8.57776 8.722 8.50334 9.37425 8.73271C10.0032 8.95407 10.5146 9.35519 10.87 9.7025C11.3585 8.63386 12.5538 7.87055 13.8056 7.85567C14.0636 7.85262 14.2663 7.88429 14.443 7.95528C14.6345 8.03677 14.8062 8.15862 14.9464 8.31251C15.5048 8.90293 15.691 9.84714 15.4322 10.7776C15.2006 11.6111 14.6834 12.313 14.1594 12.9473C13.8888 13.2752 13.5702 13.558 13.2618 13.8347C12.9969 14.0713 12.7229 14.3156 12.4905 14.5797C12.2199 14.8869 12.0393 15.1804 11.9218 15.5025L11.8264 15.7628ZM8.61132 8.90636C8.31707 8.90636 8.01518 8.9785 7.76901 9.16894C7.4217 9.4361 7.21637 9.92729 7.20531 10.5131C7.19538 11.0249 7.33011 11.4841 7.58505 11.8054C7.83389 12.1195 8.20906 12.3283 8.57201 12.5306L8.73918 12.6244C9.88577 13.2769 10.9021 14.1354 11.7371 15.1567C11.8749 14.8748 12.0513 14.6134 12.2611 14.3801C12.5053 14.1026 12.7862 13.8518 13.058 13.6095C13.358 13.3423 13.6686 13.0649 13.924 12.7553C14.4266 12.1466 14.922 11.476 15.1384 10.6975C15.4135 9.70746 15.1048 8.92468 14.7243 8.52204C14.6141 8.40005 14.479 8.30309 14.3281 8.23771C14.19 8.18198 14.0251 8.15794 13.8075 8.16138C12.5939 8.17511 11.4413 8.9598 11.0654 10.0273L10.9825 10.2635L10.8112 10.0807C10.4822 9.72883 9.94788 9.25939 9.27197 9.02162C9.0597 8.94671 8.83642 8.90776 8.61132 8.90636Z" fill="#010101"/>
<path d="M4.14782 21.8939L4.22682 19.7948C4.22949 19.7303 4.22682 19.6295 4.22224 19.512C4.21957 19.4307 4.2169 19.3418 4.21499 19.2513C3.14063 19.3277 1.90636 19.2742 1.34724 18.4437C1.10947 18.0892 1.08428 17.6503 1.06443 17.2988C0.937723 15.0352 0.807197 12.7136 0.819028 10.4202C0.819028 10.2782 0.819028 10.0855 0.815975 9.85613C0.796892 7.70093 0.815975 5.35261 1.30945 4.76486C1.78843 4.19238 2.75478 4.24276 3.52954 4.28283C3.75052 4.29428 3.95661 4.30459 4.13484 4.30039L4.49627 4.29085C6.53659 4.23513 8.64676 4.17635 10.7249 4.23284C11.7477 4.25917 12.7984 4.20039 13.8163 4.14315C15.6925 4.03781 17.6328 3.92904 19.5151 4.3439C19.8762 4.42328 20.2471 4.53472 20.5147 4.80494C20.9059 5.19995 20.9433 5.79228 20.9479 6.31629C20.9666 8.4837 20.9128 10.6851 20.8612 12.8143C20.8204 14.499 20.7776 16.2405 20.7715 17.9522C20.7715 18.1048 20.7715 18.2915 20.7006 18.472C20.4754 19.0513 19.7701 19.141 19.259 19.159C16.9237 19.2353 14.5101 19.3166 12.1316 19.2445C11.4729 19.2246 10.8149 19.1933 10.1566 19.1616C8.84522 19.099 7.48806 19.0345 6.15799 19.0677L6.11716 19.0704C6.04226 19.1827 5.97616 19.3006 5.91946 19.4231C5.87671 19.5093 5.83359 19.5956 5.78664 19.678C5.69104 19.8387 5.58509 19.9929 5.46949 20.1398L4.14782 21.8939ZM4.6058 18.8269L4.60237 19.0422C4.60008 19.1948 4.60542 19.3578 4.60962 19.4979C4.61382 19.6269 4.61725 19.7372 4.61458 19.8082L4.58367 20.6692L5.15844 19.9059C5.26377 19.7721 5.36065 19.6319 5.4485 19.486C5.49201 19.4097 5.53132 19.3311 5.57025 19.2517C5.63555 19.1099 5.71213 18.9736 5.79924 18.8441C5.81565 18.8212 5.83282 18.7998 5.85 18.7792L5.90419 18.714L6.04846 18.6834L6.14693 18.6785C7.49264 18.6449 8.85667 18.7101 10.1734 18.7731C10.8294 18.8044 11.4851 18.8357 12.1412 18.8555C14.5074 18.9277 16.9161 18.8475 19.2445 18.7704C19.8819 18.7494 20.2288 18.6101 20.3368 18.3323C20.3777 18.2277 20.3811 18.1033 20.3815 17.9506C20.3876 16.2332 20.43 14.4909 20.4712 12.8044C20.5227 10.6786 20.5761 8.48027 20.5574 6.31934C20.5532 5.85105 20.5258 5.36978 20.2368 5.0782C20.0506 4.89004 19.7789 4.79997 19.43 4.72326C17.5981 4.31947 15.6856 4.42672 13.8369 4.53243C12.8118 4.59006 11.75 4.64693 10.7146 4.6225C8.64562 4.56869 6.54194 4.62518 4.50657 4.68052L4.14515 4.69044C3.95432 4.69387 3.74059 4.68395 3.50931 4.67212C2.8189 4.63624 1.9617 4.59197 1.60753 5.01561C1.16595 5.54267 1.19267 8.565 1.20412 9.85384C1.20603 10.0851 1.20793 10.2802 1.20717 10.4233C1.19534 12.7033 1.32587 15.0207 1.45143 17.2618C1.47051 17.5961 1.4896 17.9602 1.66974 18.2258C2.15215 18.9414 3.37688 18.9345 4.39284 18.8456L4.6058 18.8269Z" fill="black"/>
<path d="M32.4445 32.107L32.0697 31.8085C31.2332 31.1411 30.4559 30.4028 29.7462 29.6018C28.4463 29.5747 27.1211 29.6369 25.8403 29.6984C25.1839 29.7297 24.5267 29.761 23.8695 29.7808C21.4929 29.8522 19.0816 29.7728 16.7485 29.6961C16.2306 29.6789 15.5253 29.5892 15.3002 29.0091C15.2307 28.8309 15.2299 28.6412 15.2292 28.4893C15.2231 26.7768 15.1807 25.0342 15.1395 23.3492C15.1059 21.947 15.0704 20.4971 15.0559 19.0701L15.4448 19.0662C15.4593 20.4906 15.494 21.939 15.5284 23.3408C15.5692 25.0281 15.612 26.7726 15.6177 28.4885C15.6177 28.621 15.6177 28.758 15.6624 28.8702C15.7704 29.1476 16.1177 29.287 16.7547 29.3083C19.0881 29.3847 21.4933 29.4644 23.858 29.3931C24.5125 29.3732 25.1675 29.3423 25.822 29.3106C27.1372 29.248 28.497 29.1828 29.8404 29.216L29.9255 29.2183L29.9816 29.282C30.5846 29.9681 31.2381 30.6081 31.9365 31.1968L31.7075 29.3946L31.9411 29.4087C33.2265 29.485 33.9837 29.2801 34.331 28.7637C34.4974 28.516 34.5272 28.2 34.5485 27.8126C34.6752 25.5586 34.8054 23.2408 34.7939 20.9608C34.7939 20.8165 34.7939 20.62 34.797 20.3864C34.8084 19.0975 34.8351 16.0798 34.3936 15.5531C34.039 15.1299 33.1811 15.1738 32.4918 15.2096C32.2605 15.2218 32.0445 15.2329 31.8563 15.2279L31.4941 15.218C29.4584 15.1631 27.354 15.1062 25.2862 15.1604C24.2503 15.1871 23.1871 15.128 22.1638 15.0699C21.6471 15.0409 21.1299 15.0119 20.6139 14.9936L20.6273 14.6055C21.1463 14.6242 21.6662 14.6532 22.1856 14.6818C23.2023 14.7383 24.253 14.7963 25.277 14.7711C27.3547 14.7173 29.4653 14.7738 31.5048 14.8291L31.8674 14.8387C32.0449 14.8432 32.2517 14.8326 32.4723 14.8211C33.2475 14.7803 34.2138 14.731 34.6924 15.3031C35.1844 15.8905 35.2054 18.2365 35.1867 20.3894C35.1867 20.6207 35.1828 20.8158 35.1836 20.9585C35.195 23.2507 35.0641 25.5742 34.9382 27.8218C34.918 28.1859 34.8939 28.6233 34.6546 28.9801C34.1348 29.753 33.028 29.8392 32.1529 29.8075L32.4445 32.107Z" fill="black"/>
<path d="M22.4655 17.8029L22.4471 18.1914L31.9272 18.6385L31.9455 18.25L22.4655 17.8029Z" fill="black"/>
<path d="M32.3785 21.5338C27.2216 21.2586 21.9914 21.1995 16.8322 21.359L16.8199 20.9701C21.9906 20.811 27.2319 20.8694 32.3991 21.1457L32.3785 21.5338Z" fill="black"/>
<path d="M17.0501 23.6893L17.043 24.0781L31.9372 24.3511L31.9443 23.9623L17.0501 23.6893Z" fill="black"/>
<path d="M18.0877 26.6893L18.082 27.0781L31.4908 27.2724L31.4965 26.8835L18.0877 26.6893Z" fill="black"/>
</svg>
