<svg width="245" height="247" viewBox="0 0 245 247" fill="none" xmlns="http://www.w3.org/2000/svg">
<path d="M225.917 200.38C223.266 207.751 220.548 215.257 215.962 221.441C206.294 234.469 190.257 239.267 175.247 241.738C152.367 245.502 129.232 245.684 106.212 245.86C97.5731 245.924 88.8217 245.975 80.522 243.639C73.5473 241.674 67.101 238.078 60.318 235.479C53.0429 232.698 45.3695 231.043 38.3267 227.65C17.5581 217.644 5.08083 193.381 1.95565 168.632C-1.16954 143.884 3.70038 118.515 9.70789 94.0856C14.7269 73.6729 20.6173 53.3308 29.7841 34.5845C32.7516 28.5161 36.1367 22.5225 40.9044 17.9964C48.4521 10.8242 58.6883 8.08416 68.5325 7.4724C78.3768 6.86065 88.1911 8.11411 98.0396 7.76759C121.669 6.92482 145.689 -3.14141 168.496 2.79223C187.362 7.70128 202.261 22.9011 214.394 39.2112C224.549 52.8581 233.486 67.8355 238.828 84.5306C245.258 104.622 245.539 126.635 241.63 147.985C237.721 169.334 225.917 200.38 225.917 200.38Z" fill="#F8D5D8"/>
<path d="M80.5262 76.7317C79.9047 76.3183 79.2215 76.0071 78.5024 75.8098C74.966 74.7574 68.8222 75.444 66.1635 78.3145C63.0959 81.63 62.5143 89.5144 64.9918 93.1807C66.1976 94.9625 68.0616 96.1582 69.8234 97.3882C77.1509 102.504 83.4734 108.936 88.4723 116.359C90.0125 110.477 94.3839 105.82 98.7681 101.623C103.152 97.4267 107.833 93.2513 110.323 87.7198C112.813 82.1883 112.421 74.7809 107.677 71.0012C105.085 68.9371 101.544 68.2633 98.2888 68.8622C91.4185 70.12 86.1694 76.1777 85.4579 83.0803L82.5862 79.0397C82.011 78.229 81.4188 77.4033 80.6199 76.8108L80.5262 76.7317Z" fill="#FAB9A1"/>
<path d="M90.1703 113.89L89.2287 112.671C84.549 106.625 78.7298 101.565 72.103 97.7765C71.7984 97.6033 71.4895 97.43 71.1806 97.2589C69.0098 96.0461 66.7666 94.7926 65.1667 92.7669C63.5008 90.6557 62.6103 87.6975 62.6806 84.4248C62.7531 80.6259 64.1399 77.4024 66.4854 75.5799C69.0077 73.6206 72.8337 73.2035 76.4745 74.489C79.9852 75.7297 82.8399 77.9778 84.8232 79.9243C87.55 73.935 94.2222 69.657 101.21 69.5714C102.65 69.5543 103.781 69.734 104.765 70.1318C105.835 70.5879 106.795 71.2709 107.577 72.134C110.694 75.4409 111.733 80.735 110.289 85.9499C108.996 90.6194 106.109 94.5552 103.184 98.1102C101.674 99.9455 99.8931 101.533 98.1739 103.083C96.6955 104.41 95.1659 105.779 93.8686 107.259C92.3582 108.981 91.3505 110.623 90.6944 112.431L90.1703 113.89ZM72.2181 75.4623C70.5756 75.4623 68.8905 75.8644 67.5165 76.9339C65.5779 78.4312 64.4296 81.1842 64.3678 84.4654C64.3146 87.336 65.0666 89.9092 66.4982 91.7103C67.8871 93.4707 69.9812 94.6407 72.0072 95.7744C72.3203 95.9498 72.6314 96.1231 72.9403 96.3006C79.3413 99.9585 85.0144 104.772 89.674 110.499C90.4427 108.919 91.4272 107.454 92.5989 106.147C93.9623 104.589 95.5302 103.186 97.047 101.826C98.7214 100.328 100.456 98.7754 101.879 97.0407C104.686 93.629 107.449 89.8707 108.659 85.5071C110.195 79.9564 108.472 75.5714 106.348 73.3147C105.733 72.63 104.978 72.0865 104.135 71.7211C103.366 71.4088 102.443 71.2741 101.231 71.2933C94.4565 71.3703 88.023 75.7682 85.9246 81.751L85.4623 83.0751L84.5058 82.0505C82.6694 80.0783 79.687 77.4473 75.9142 76.1147C74.727 75.6917 73.4777 75.4712 72.2181 75.4623Z" fill="#010101"/>
<path d="M47.3081 148.248L47.7491 136.484C47.764 136.122 47.7491 135.557 47.7236 134.899C47.7108 134.443 47.6959 133.945 47.6852 133.438C41.6862 133.866 34.7967 133.566 31.678 128.912C30.3486 126.924 30.2102 124.465 30.0994 122.494C29.3921 109.827 28.6635 96.8049 28.7275 83.9622C28.7275 83.1665 28.7275 82.0841 28.7104 80.8007C28.606 68.7217 28.7104 55.5603 31.4671 52.2662C34.1406 49.0577 39.5346 49.34 43.8591 49.5646C45.0926 49.6288 46.243 49.6866 47.2378 49.663L49.2553 49.6074C60.644 49.2973 72.4204 48.9785 84.0221 49.2844C89.7314 49.432 95.5962 49.1026 101.278 48.7818C111.75 48.1914 122.581 47.5818 133.088 49.9069C135.103 50.3518 137.172 50.9764 138.667 52.4908C140.849 54.7047 141.059 58.0245 141.085 60.9592C141.189 73.1088 140.889 85.4467 140.601 97.3803C140.373 106.822 140.135 116.582 140.101 126.176C140.101 127.031 140.101 128.077 139.705 129.089C138.446 132.336 134.511 132.839 131.658 132.939C118.623 133.367 105.151 133.823 91.8724 133.418C88.1954 133.307 84.5249 133.13 80.8501 132.954C73.5303 132.603 65.9527 132.242 58.5307 132.428L58.3006 132.443C57.8817 133.075 57.5127 133.738 57.1971 134.428C56.9585 134.911 56.7178 135.395 56.4557 135.857C55.9221 136.757 55.3307 137.622 54.6854 138.445L47.3081 148.248ZM49.8645 131.059L49.8454 132.266C49.8326 133.121 49.8624 134.034 49.8858 134.819C49.9093 135.54 49.9284 136.161 49.9135 136.556L49.7367 141.403L52.9471 137.125C53.5356 136.376 54.0764 135.59 54.5662 134.772C54.809 134.345 55.0263 133.902 55.2457 133.459C55.6098 132.664 56.0372 131.9 56.5239 131.175C56.6134 131.044 56.7114 130.926 56.8073 130.811L57.1098 130.443L57.915 130.274L58.4646 130.246C65.974 130.056 73.5899 130.424 80.9374 130.777C84.5994 130.952 88.2615 131.128 91.9235 131.237C105.132 131.643 118.574 131.194 131.573 130.762C135.129 130.642 137.067 129.863 137.67 128.306C137.898 127.72 137.917 127.023 137.919 126.167C137.953 116.542 138.19 106.779 138.418 97.3268C138.708 85.4124 139.006 73.0917 138.901 60.9784C138.878 58.356 138.725 55.6566 137.112 54.0223C136.072 52.9699 134.556 52.4651 132.608 52.0331C122.383 49.77 111.706 50.3732 101.389 50.9635C95.6665 51.2865 89.7399 51.6053 83.9604 51.4684C72.4097 51.1668 60.6674 51.4833 49.3085 51.7913L47.2911 51.847C46.2259 51.8684 45.033 51.8106 43.742 51.7464C39.8882 51.5454 35.1035 51.2972 33.1266 53.6715C30.6618 56.6277 30.8109 73.5644 30.8748 80.79C30.8748 82.0863 30.8961 83.1793 30.8919 83.9814C30.8258 96.7578 31.5523 109.746 32.2553 122.306C32.3597 124.18 32.4683 126.221 33.4738 127.712C36.1644 131.729 43.0006 131.679 48.6673 131.192L49.8645 131.059Z" fill="black"/>
<path d="M205.263 205.496L203.169 203.821C198.499 200.08 194.158 195.943 190.193 191.455C182.937 191.303 175.543 191.652 168.393 191.996C164.727 192.172 161.059 192.347 157.392 192.458C144.127 192.858 130.668 192.413 117.645 191.983C114.754 191.887 110.828 191.384 109.55 188.133C109.162 187.134 109.158 186.073 109.153 185.222C109.119 175.624 108.881 165.857 108.653 156.414C108.463 148.555 108.267 140.429 108.186 132.431L110.357 132.41C110.436 140.39 110.632 148.51 110.824 156.367C111.052 165.823 111.288 175.601 111.322 185.218C111.322 185.96 111.322 186.728 111.571 187.357C112.174 188.914 114.111 189.695 117.668 189.812C130.691 190.24 144.118 190.689 157.318 190.289C160.971 190.178 164.627 190.003 168.281 189.827C175.62 189.477 183.212 189.111 190.711 189.297L191.186 189.31L191.516 189.658C194.882 193.503 198.529 197.091 202.428 200.39L201.139 190.289L202.445 190.366C209.617 190.794 213.846 189.648 215.785 186.751C216.713 185.365 216.88 183.594 216.999 181.421C217.704 168.79 218.433 155.8 218.369 143.021C218.369 142.213 218.369 141.111 218.386 139.8C218.45 132.579 218.599 115.665 216.132 112.714C214.155 110.341 209.366 110.587 205.519 110.788C204.228 110.857 203.022 110.917 201.97 110.891L199.948 110.835C188.585 110.525 176.838 110.209 165.298 110.51C159.516 110.662 153.581 110.329 147.87 110.006C144.985 109.843 142.099 109.68 139.217 109.578L139.293 107.402C142.191 107.505 145.092 107.67 147.991 107.83C153.667 108.147 159.531 108.472 165.247 108.331C176.842 108.029 188.623 108.346 200.01 108.656L202.033 108.709C203.024 108.733 204.179 108.675 205.41 108.611C209.737 108.382 215.131 108.106 217.802 111.312C220.546 114.604 220.665 127.753 220.559 139.817C220.559 141.115 220.54 142.206 220.542 143.008C220.606 155.853 219.877 168.878 219.174 181.472C219.061 183.515 218.925 185.964 217.591 187.964C214.69 192.298 208.512 192.781 203.627 192.604L205.263 205.496Z" fill="black"/>
<path d="M149.555 125.342L149.453 127.52L202.369 130.025L202.471 127.848L149.555 125.342Z" fill="black"/>
<path d="M204.888 146.243C176.103 144.699 146.907 144.369 118.112 145.255L118.043 143.075C146.903 142.183 176.161 142.511 205.003 144.057L204.888 146.243Z" fill="black"/>
<path d="M119.326 158.325L119.286 160.504L202.423 162.034L202.463 159.855L119.326 158.325Z" fill="black"/>
<path d="M125.12 175.137L125.088 177.316L199.934 178.405L199.965 176.226L125.12 175.137Z" fill="black"/>
</svg>
