<svg width="170" height="51" viewBox="0 0 170 51" fill="none" xmlns="http://www.w3.org/2000/svg">
<g clip-path="url(#clip0_12054_30653)">
<path d="M60.577 31.7849C59.8535 32.7156 58.9177 33.4635 57.8462 33.9673C56.7746 34.4711 55.5978 34.7164 54.412 34.6833C53.4105 34.6948 52.4163 34.5138 51.4844 34.1505C50.6289 33.8204 49.8526 33.3169 49.2053 32.6721C48.5579 32.0274 48.054 31.2558 47.7257 30.4068C47.3627 29.4834 47.1828 28.4993 47.196 27.5084C47.1856 26.5224 47.3615 25.5432 47.7144 24.6211C48.0432 23.7623 48.5445 22.9784 49.1881 22.3169C49.8345 21.6573 50.6128 21.1386 51.4732 20.7938C52.4022 20.4179 53.3972 20.2283 54.4007 20.2358C55.5427 20.2242 56.6766 20.4267 57.7424 20.8328C58.7976 21.2522 59.7015 21.9751 60.3375 22.9083L57.9087 25.3325C57.5361 24.8261 57.0635 24.4 56.5196 24.0799C55.9582 23.759 55.3193 23.5951 54.6712 23.6057C54.1381 23.5935 53.6081 23.6884 53.113 23.8847C52.6732 24.0626 52.2793 24.3363 51.9606 24.6853C51.6457 25.0364 51.4026 25.4447 51.245 25.8876C50.9049 26.8637 50.9049 27.9244 51.245 28.9004C51.4079 29.3483 51.6588 29.7598 51.9832 30.1111C52.3051 30.4571 52.698 30.731 53.1356 30.9145C53.6125 31.1086 54.1247 31.2036 54.6402 31.1935C55.3233 31.2228 56.0025 31.0778 56.6126 30.7723C57.1885 30.4285 57.6925 29.9787 58.0975 29.4472L60.5657 31.7486" fill="white"/>
<path d="M68.2126 34.6639C67.2265 34.6708 66.2491 34.481 65.3386 34.106C64.4852 33.7596 63.7088 33.2506 63.0535 32.608C62.4021 31.9552 61.8904 31.1791 61.5489 30.3261C60.8275 28.4665 60.8275 26.4083 61.5489 24.5488C61.8864 23.6965 62.3968 22.9219 63.0487 22.2727C63.7005 21.6235 64.4799 21.1136 65.3386 20.7744C66.2524 20.4131 67.2287 20.2321 68.2126 20.2416C69.201 20.2326 70.1819 20.4136 71.1007 20.7744C71.9566 21.1121 72.7334 21.62 73.383 22.2668C74.0311 22.9205 74.5399 23.6965 74.8792 24.5488C75.5974 26.4089 75.5974 28.4659 74.8792 30.3261C74.5385 31.1776 74.0299 31.9533 73.383 32.608C72.7314 33.2538 71.9552 33.7632 71.1007 34.106C70.1851 34.4805 69.2032 34.6702 68.2126 34.6639ZM68.2126 31.2494C68.7107 31.2589 69.2046 31.1578 69.6581 30.9537C70.0704 30.7585 70.4348 30.4768 70.726 30.128C71.0254 29.7713 71.2513 29.36 71.3909 28.9173C71.6952 27.9537 71.6952 26.9211 71.3909 25.9575C71.2494 25.5181 71.0236 25.1099 70.726 24.7552C70.4344 24.4104 70.0698 24.1333 69.6581 23.9434C69.2026 23.7466 68.711 23.6449 68.214 23.6449C67.7171 23.6449 67.2254 23.7466 66.77 23.9434C66.3582 24.1333 65.9937 24.4104 65.7021 24.7552C65.4032 25.1132 65.1773 25.5254 65.0371 25.9687C64.7329 26.9323 64.7329 27.9649 65.0371 28.9285C65.1767 29.3712 65.4026 29.7825 65.7021 30.1392C65.9965 30.4892 66.3649 30.7711 66.7812 30.9649C67.2317 31.1613 67.7205 31.2566 68.2126 31.2439V31.2494Z" fill="white"/>
<path d="M77.3796 20.624H80.8876L84.2519 26.605L87.5542 20.624H91.0818L91.7271 34.3351H88.0106L87.6781 26.2981L85.2493 30.9847H83.2347L80.5354 26.2981L80.2649 34.3351H76.7344L77.3796 20.624Z" fill="white"/>
<path d="M93.8924 20.624H97.4004L100.765 26.605L104.067 20.624H107.597L108.24 34.3351H104.523L104.191 26.2981L101.762 30.9847H99.7475L97.0482 26.2981L96.7777 34.3351H93.25L93.8924 20.624Z" fill="white"/>
<path d="M109.887 20.624H113.55V28.6609C113.522 29.3177 113.708 29.9661 114.08 30.5105C114.435 30.9903 115.018 31.2302 115.835 31.2302C116.652 31.2302 117.244 30.9875 117.579 30.4993C117.942 29.9555 118.124 29.3124 118.098 28.6609V20.624H121.814V28.9929C121.827 29.8046 121.679 30.611 121.38 31.3669C121.104 32.0483 120.682 32.6622 120.143 33.1662C119.598 33.6673 118.955 34.0519 118.253 34.296C117.482 34.5635 116.671 34.6957 115.855 34.6865C115.036 34.6947 114.222 34.5626 113.449 34.296C112.744 34.0564 112.097 33.6767 111.547 33.1801C111.006 32.6825 110.584 32.0716 110.313 31.392C110.011 30.6298 109.863 29.8168 109.876 28.9985V20.6296" fill="white"/>
<path d="M123.875 20.624H127.22L132.534 28.2704V20.624H136.168V34.3351H133.032L127.51 26.4627V34.3351H123.875V20.624Z" fill="white"/>
<path d="M142.026 20.624H138.352V34.3351H142.026V20.624Z" fill="white"/>
<path d="M147.95 23.8098H143.695V20.624H155.884V23.8098H151.669V34.3351H147.95V23.8098Z" fill="white"/>
<path d="M161.381 28.8674L156.461 20.624H160.676L163.375 25.517L165.909 20.624H170L165.058 28.8451V34.3351H161.381V28.8674Z" fill="white"/>
<path d="M47.8047 37.5566H56.1224V39.2472H49.7094V43.2559H54.5924V44.9268H49.7094V50.6651H47.8047V37.5566Z" fill="white"/>
<path d="M57.5499 37.5566H59.4519V45.2225C59.4479 45.7667 59.5007 46.3099 59.6096 46.8433C59.7012 47.2984 59.8874 47.7297 60.1563 48.1098C60.4203 48.4684 60.7763 48.7506 61.1875 48.9272C61.7088 49.1314 62.2672 49.2264 62.8274 49.2061C63.3802 49.2253 63.931 49.1303 64.4447 48.9272C64.8564 48.7513 65.2126 48.469 65.476 48.1098C65.7461 47.7304 65.9323 47.2988 66.0226 46.8433C66.1315 46.3099 66.1844 45.7667 66.1804 45.2225V37.5566H68.0879V45.6745C68.0931 46.3841 67.9857 47.0901 67.7696 47.7667C67.5727 48.3913 67.2443 48.9675 66.8059 49.4572C66.3523 49.9501 65.7929 50.3362 65.1689 50.587C63.6564 51.1374 61.9956 51.1374 60.4831 50.587C59.8615 50.3402 59.3035 49.9589 58.8501 49.4709C58.3966 48.9828 58.0593 48.4006 57.8627 47.7667C57.6475 47.0899 57.541 46.3839 57.5471 45.6745V37.5566" fill="white"/>
<path d="M70.0938 37.5566H72.021L79.2455 47.7974V37.5566H81.1108V50.6651H79.206L71.9619 40.4076V50.6651H70.0938V37.5566Z" fill="white"/>
<path d="M83.0547 37.5564H87.484C88.4602 37.5462 89.4329 37.6749 90.3721 37.9385C91.208 38.1692 91.983 38.5776 92.6431 39.1353C93.2929 39.6981 93.803 40.4016 94.1337 41.1912C94.5121 42.1271 94.6942 43.1294 94.669 44.1371C94.6917 45.1229 94.5095 46.1028 94.1337 47.016C93.801 47.8013 93.2911 48.5007 92.6431 49.0608C91.9785 49.6206 91.2002 50.0325 90.3609 50.2687C89.4188 50.5385 88.4421 50.671 87.4615 50.662H83.0547V37.5508M87.422 48.9687C89.0769 48.9687 90.3646 48.5661 91.285 47.7608C92.2055 46.9556 92.6647 45.7597 92.6629 44.1734C92.6629 42.574 92.2196 41.3521 91.3329 40.5078C90.4463 39.6635 89.123 39.2413 87.3629 39.2413H84.9622V48.9687H87.422Z" fill="white"/>
<path d="M16.9219 3.36708C16.9219 1.83279 17.5868 0 19.0661 0C20.0992 0 21.355 1.61055 22.8333 4.83164C21.3265 6.8266 20.0151 8.95914 18.9168 11.2004C17.5868 7.76075 16.9219 5.19708 16.9219 3.36708Z" fill="white"/>
<path d="M39.6939 34.5518C38.688 36.5297 37.3581 37.679 35.3322 37.679C33.0386 37.679 31.858 36.1614 31.5622 34.4012C30.3055 35.8685 28.6769 36.3539 26.9779 35.8462C25.1295 35.2632 23.8784 33.5252 23.8784 30.744C23.8784 26.9361 26.0199 22.0961 28.4599 20.0569L27.3132 17.5463C27.1723 17.8838 26.1382 19.8867 25.6226 20.7208L24.0926 20.0653C24.0926 20.0653 25.1577 17.7471 25.3943 17.2561C27.7302 12.3575 30.4013 7.86345 30.4013 4.86181C30.4013 3.61763 29.5306 2.75843 28.7981 2.7389C26.5073 2.67474 23.0501 7.61238 19.652 14.8598C16.947 20.5869 15.4058 24.6877 15.1691 27.6921L13.5912 28.2752C11.5343 25.2931 8.48845 23.0558 4.80578 23.0558C1.70637 23.0558 0.0157782 24.5175 0.0157782 25.5469C0.00168999 26.501 0.962508 26.8636 1.48096 27.0115C5.98919 28.1831 7.76149 31.8403 9.16468 37.3331C11.2357 45.3142 16.5582 50.6564 24.318 50.6564C32.3737 50.6564 40.0602 43.7771 39.6939 34.5546M17.1893 39.3612L19.1053 38.474C20.9875 43.9724 26.4087 45.4788 31.4241 42.89L32.2018 44.773C25.6254 48.4721 19.5083 46.1121 17.1893 39.3612Z" fill="white"/>
<path d="M32.872 20.5625C29.6824 19.1036 25.7969 26.0609 25.7969 30.7447C25.7969 33.2358 26.9042 34.1731 28.2341 34.1648C29.9247 34.1648 31.728 31.9163 32.9847 28.2535C34.5372 24.4513 34.4161 21.2795 32.872 20.5625ZM28.6991 32.3738C28.359 32.3744 28.0264 32.275 27.7434 32.0884C27.4604 31.9017 27.2396 31.6362 27.1091 31.3253C26.9786 31.0144 26.9442 30.6722 27.0102 30.3419C27.0762 30.0116 27.2396 29.7081 27.4799 29.4699C27.7201 29.2316 28.0264 29.0693 28.3599 29.0034C28.6934 28.9375 29.0391 28.971 29.3533 29.0997C29.6676 29.2285 29.9362 29.4466 30.1251 29.7265C30.3141 30.0064 30.415 30.3355 30.415 30.6721C30.4154 30.8955 30.3713 31.1167 30.2852 31.3231C30.1991 31.5296 30.0728 31.7172 29.9134 31.8752C29.754 32.0333 29.5647 32.1587 29.3564 32.2442C29.148 32.3298 28.9246 32.3738 28.6991 32.3738Z" fill="white"/>
<path d="M38.3648 24.7412C36.7391 24.7412 34.5751 28.0358 33.7608 31.1825C33.2452 32.9399 33.1156 35.8467 35.333 35.8467C37.6576 35.8467 39.5426 32.4294 40.0611 29.3525C40.5062 26.7191 39.8413 24.7412 38.3705 24.7412M36.1164 34.2594C35.8102 34.26 35.5107 34.1706 35.2559 34.0025C35.0011 33.8344 34.8024 33.5952 34.6849 33.3153C34.5675 33.0353 34.5366 32.7272 34.5962 32.4298C34.6558 32.1325 34.8032 31.8593 35.0197 31.645C35.2362 31.4306 35.5121 31.2847 35.8124 31.2257C36.1128 31.1667 36.424 31.1973 36.7068 31.3135C36.9896 31.4298 37.2311 31.6265 37.4009 31.8788C37.5707 32.1311 37.661 32.4276 37.6604 32.7307C37.6604 32.9326 37.62 33.1326 37.5416 33.319C37.4631 33.5054 37.3481 33.6745 37.2032 33.8166C37.0583 33.9588 36.8864 34.0711 36.6975 34.1471C36.5085 34.2231 36.3062 34.2613 36.1023 34.2594H36.1164Z" fill="white"/>
<path d="M34.7434 4.82893C34.5317 4.82959 34.322 4.78882 34.1263 4.70897C33.9406 4.63045 33.7721 4.51673 33.6304 4.37422C33.4899 4.2318 33.3781 4.06424 33.3008 3.88045C33.1393 3.48981 33.1393 3.05202 33.3008 2.66138C33.3774 2.47724 33.4893 2.30955 33.6304 2.16762C33.773 2.02686 33.9413 1.91421 34.1263 1.83565C34.3224 1.75361 34.5333 1.71185 34.7462 1.71291C34.9521 1.71194 35.156 1.75166 35.3462 1.82974C35.5363 1.90782 35.7088 2.02269 35.8536 2.16762C35.9956 2.3094 36.1085 2.47708 36.186 2.66138C36.3475 3.05202 36.3475 3.48981 36.186 3.88045C36.1077 4.06437 35.9949 4.23191 35.8536 4.37422C35.7129 4.51794 35.5442 4.63183 35.3576 4.70897C35.163 4.7891 34.9542 4.82989 34.7434 4.82893ZM34.7434 4.52765C34.9871 4.53042 35.2258 4.45917 35.4273 4.32349C35.6288 4.18782 35.7835 3.99425 35.8705 3.76887C35.9945 3.45114 35.9945 3.09906 35.8705 2.78134C35.8124 2.63291 35.7253 2.49733 35.6141 2.38242C35.5026 2.26568 35.3696 2.17101 35.2224 2.10346C35.0689 2.03668 34.9026 2.00338 34.7349 2.00582C34.5664 2.00342 34.3992 2.03671 34.2447 2.10346C34.0974 2.17101 33.9645 2.26568 33.853 2.38242C33.74 2.49645 33.6518 2.63222 33.5938 2.78134C33.4698 3.09906 33.4698 3.45114 33.5938 3.76887C33.6509 3.91672 33.7374 4.0517 33.8483 4.16576C33.9591 4.27982 34.092 4.37063 34.239 4.4328C34.3986 4.49891 34.5704 4.53122 34.7434 4.52765ZM34.1968 2.47727H34.811C34.8975 2.47517 34.9835 2.48937 35.0646 2.51911C35.1301 2.54412 35.1903 2.58101 35.2421 2.62791C35.286 2.67073 35.3205 2.722 35.3436 2.77855C35.3633 2.83028 35.3738 2.88504 35.3746 2.94035C35.3769 3.03865 35.3504 3.13552 35.2985 3.21931C35.2432 3.30631 35.1598 3.37219 35.0618 3.40622L35.4506 4.0562H35.1069L34.7519 3.44527H34.5011V4.0562H34.1968V2.47727ZM34.7969 3.20257C34.8708 3.20752 34.9437 3.18346 34.9998 3.13562C35.0434 3.08651 35.0657 3.02236 35.0618 2.95708C35.0643 2.92509 35.0595 2.89294 35.0478 2.86301C35.0361 2.83308 35.0178 2.80612 34.9942 2.78413C34.9324 2.73931 34.8562 2.71847 34.78 2.72555H34.4983V3.20257H34.7969Z" fill="white"/>
</g>
<defs>
<clipPath id="clip0_12054_30653">
<rect width="170" height="51" fill="white"/>
</clipPath>
</defs>
</svg>
