<svg width="50" height="51" viewBox="0 0 50 51" fill="none" xmlns="http://www.w3.org/2000/svg">
<path d="M31.2115 47.4807C23.7985 48.4745 16.3988 47.859 10.0116 43.7733C5.24742 40.7269 2.37563 34.0514 2.57196 27.5892C2.76829 21.1271 5.80475 15.0761 10.1462 11.3676C12.6031 9.2688 15.4323 7.87022 18.3233 6.82497C23.7884 4.84986 29.7871 4.11746 35.2186 6.42927C40.6502 8.74107 45.3281 14.6025 45.7927 21.5118C46.0885 25.9137 44.7184 30.1976 43.06 34.0953C41.3763 38.0519 39.3049 41.8883 36.3438 44.5239L31.2115 47.4807Z" fill="#FFBFA4"/>
<path d="M16.6733 35.8949C15.3756 35.9115 14.0801 35.793 12.8126 35.5416C12.3737 35.448 11.9232 35.3199 11.6036 35.0093C11.1416 34.559 11.0902 33.8997 11.0902 33.2635C11.0684 30.6736 11.1339 28.0434 11.1993 25.4986C11.2494 23.486 11.302 21.4054 11.3097 19.3594C11.2995 19.1603 11.3272 18.9611 11.3918 18.7705C11.6485 18.1205 12.5033 18.02 13.1194 18.0004C16.0213 17.908 19.0234 17.8122 21.9753 17.8988C22.5426 17.9149 23.5155 17.8895 24.636 17.8607C29.8212 17.7279 34.5418 17.7013 35.326 18.8236C35.6097 19.2289 35.6392 19.7393 35.6623 20.1492C35.8202 22.8371 35.9832 25.6163 35.9678 28.3597C35.9678 28.5295 35.9678 28.7616 35.9678 29.0364C35.9934 31.7832 35.9395 34.4135 35.3748 35.0624C34.8101 35.7113 33.6203 35.6605 32.6705 35.6131C32.3933 35.5993 32.1302 35.5843 31.9133 35.5912L31.4525 35.6039C28.9202 35.6686 26.3006 35.7367 23.7221 35.672C22.4489 35.6409 21.1411 35.7113 19.8717 35.7794C18.8167 35.8371 17.7425 35.8949 16.6733 35.8949ZM19.5265 18.1667C17.3805 18.1667 15.2294 18.2348 13.1309 18.3017C12.3069 18.3283 11.8552 18.5096 11.7076 18.8791C11.6568 19.0368 11.636 19.2012 11.646 19.3652C11.6383 21.4135 11.5856 23.4964 11.5343 25.5101C11.4701 28.0503 11.406 30.6806 11.4265 33.2658C11.4265 33.8431 11.4688 34.4377 11.85 34.8084C12.1221 35.0716 12.529 35.1755 12.8896 35.2517C15.1742 35.7355 17.5563 35.6074 19.8602 35.4827C21.1334 35.4134 22.4502 35.343 23.7375 35.3753C26.3045 35.4388 28.9202 35.3753 31.4486 35.306L31.9094 35.2945C32.1417 35.2945 32.41 35.3014 32.6936 35.3153C33.5664 35.358 34.6509 35.4134 35.1155 34.88C35.6854 34.2264 35.652 30.594 35.6379 29.0433C35.6379 28.7662 35.6379 28.5341 35.6379 28.3632C35.652 25.6279 35.489 22.8533 35.3324 20.1653C35.3093 19.7704 35.2837 19.3224 35.0475 18.9853C34.2992 17.9161 28.2605 18.0708 24.6514 18.1632C23.5219 18.1921 22.5478 18.2175 21.9702 18.2001C21.1501 18.177 20.3351 18.1667 19.5201 18.1667H19.5265Z" fill="black"/>
<path d="M21.3616 23.7344L21.3359 28.8917L23.3597 27.9069C23.6508 27.7646 23.9419 27.6236 24.2382 27.4925C25.2641 27.0432 26.3581 26.7437 27.3559 26.2319C26.4196 25.9623 25.6886 25.3769 24.7755 25.0387C24.3459 24.8789 23.8893 24.7803 23.4866 24.5644C23.3097 24.4695 23.1442 24.3522 22.9634 24.2648C22.7832 24.1828 22.5961 24.116 22.4042 24.0651C22.0503 23.9615 21.7091 23.838 21.3616 23.7344Z" fill="#231F20"/>
<path d="M9.04328 32.7109C8.96377 33.3936 9.00224 34.1126 9.32158 34.7254C9.96281 35.9636 11.521 36.4166 12.9125 36.7486C14.8041 37.2005 16.8728 37.6373 18.6349 36.8298C19.3487 36.5014 19.9555 35.9875 20.3883 35.3448C20.821 34.7021 21.063 33.9555 21.0874 33.1874C21.1118 32.4194 20.9177 31.6597 20.5266 30.9922C20.1355 30.3246 19.5625 29.7752 18.8708 29.4046C14.749 27.1916 9.70375 27.0318 9.04328 32.7109Z" fill="#D9CE90"/>
<path d="M15.0598 36.0307C13.0835 36.0307 11.4766 34.5329 11.4766 32.6794C11.4766 30.8259 13.0835 29.3281 15.0598 29.3281C17.0361 29.3281 18.6443 30.8321 18.6443 32.6794C18.6443 34.5267 17.0361 36.0307 15.0598 36.0307ZM15.0598 29.7587C13.3272 29.7587 11.9177 31.0693 11.9177 32.6794C11.9177 34.2895 13.3285 35.6013 15.0598 35.6013C16.7911 35.6013 18.2018 34.2908 18.2018 32.6794C18.2018 31.068 16.7924 29.7587 15.0598 29.7587Z" fill="#010101"/>
<path d="M8.24548 30.7518L8.14844 31.1719L10.0578 31.5896L10.1549 31.1695L8.24548 30.7518Z" fill="#010101"/>
<path d="M12.2229 35.7128L11.5 36.9453L11.8843 37.1588L12.6072 35.9263L12.2229 35.7128Z" fill="#010101"/>
<path d="M18.6043 35.6934L18.2344 35.9297L19.0648 37.161L19.4347 36.9247L18.6043 35.6934Z" fill="#010101"/>
<path d="M20.7957 30.7534L19.1875 31.1719L19.3018 31.5879L20.9099 31.1694L20.7957 30.7534Z" fill="#010101"/>
<path d="M15.2784 26.4062H14.8359V28.2285H15.2784V26.4062Z" fill="#010101"/>
</svg>
