<svg width="36" height="36" viewBox="0 0 36 36" fill="none" xmlns="http://www.w3.org/2000/svg">
<path d="M11.4534 27.861C10.1005 27.861 8.7437 27.7633 7.41135 27.4496C6.95336 27.3415 6.48164 27.1916 6.14693 26.8301C5.65993 26.3069 5.61414 25.5398 5.60765 24.7986C5.5836 21.7862 5.65306 18.7249 5.72024 15.7648C5.77367 13.4226 5.82901 11.0002 5.83702 8.61987C5.83702 8.41759 5.83702 8.16608 5.92289 7.93289C6.19807 7.17683 7.08618 7.0589 7.73079 7.036C10.7672 6.92876 13.9075 6.81808 17.005 6.91769C17.5988 6.93716 18.6144 6.90815 19.7911 6.87418C25.2201 6.72152 30.1599 6.68908 30.9816 7.99434C31.2777 8.4653 31.309 9.05992 31.3338 9.53699L31.1583 9.54653H31.3342C31.4987 12.6723 31.6685 15.9045 31.6537 19.0909C31.6537 19.2894 31.6537 19.5596 31.6575 19.8802C31.6838 23.0758 31.6269 26.1367 31.0365 26.8901C30.4377 27.6534 29.2 27.5858 28.205 27.5312C27.9157 27.5152 27.6428 27.4992 27.4127 27.5064L26.9307 27.5202C24.2793 27.5965 21.5368 27.6755 18.8396 27.6007C17.5061 27.5625 16.1367 27.6453 14.812 27.7251C13.7022 27.793 12.5778 27.861 11.4534 27.861ZM14.438 7.23179C12.1908 7.23179 9.94019 7.31118 7.743 7.38903C6.88085 7.41957 6.40721 7.631 6.25455 8.05464C6.1912 8.22867 6.19081 8.43629 6.19005 8.62102C6.18204 11.0052 6.12708 13.4299 6.07365 15.7728C6.00609 18.7303 5.93663 21.7885 5.96106 24.7959C5.9664 25.468 6.00495 26.1603 6.40454 26.5897C6.66025 26.8656 7.02397 26.9954 7.49187 27.1053C9.88408 27.669 12.3771 27.519 14.7895 27.3744C16.1215 27.2938 17.4992 27.2118 18.848 27.2488C21.5368 27.3251 24.274 27.245 26.9204 27.1687L27.4024 27.1549C27.6451 27.1492 27.9272 27.1637 28.2241 27.1801C29.1366 27.2301 30.2736 27.2946 30.7591 26.6733C31.3552 25.9126 31.3205 21.6873 31.3056 19.8833C31.3029 19.5604 31.3006 19.2886 31.3018 19.0894C31.3166 15.9129 31.1468 12.686 30.9827 9.56523V9.55569C30.9587 9.0977 30.9316 8.57522 30.6835 8.18173C29.9011 6.9383 23.5786 7.11768 19.8014 7.22759C18.6182 7.26118 17.5985 7.29133 16.9947 7.27072C16.144 7.24324 15.291 7.23179 14.438 7.23179Z" fill="black"/>
<path d="M16.3513 14.6562L16.3253 20.2082L18.4378 19.1487C18.7431 18.996 19.0484 18.8434 19.3591 18.7025C20.435 18.219 21.5796 17.8919 22.6249 17.345C21.6444 17.0553 20.8773 16.4245 19.922 16.0607C19.4717 15.889 18.9931 15.7829 18.571 15.5501C18.3855 15.4478 18.213 15.3211 18.0233 15.2272C17.8344 15.1394 17.6384 15.0675 17.4375 15.0123C17.0737 14.9005 16.7165 14.7677 16.3513 14.6562Z" fill="#231F20"/>
<path d="M3.44642 24.3142C3.36322 25.0497 3.40329 25.8233 3.73877 26.4828C4.41697 27.8159 6.04243 28.3036 7.49539 28.6582C9.47656 29.1479 11.6444 29.6192 13.4897 28.7486C14.9781 28.0475 16.0112 26.4736 16.0635 24.8302C16.1158 23.1868 15.1838 21.5506 13.7435 20.7564C9.42465 18.3738 4.13798 18.2016 3.44642 24.3142Z" fill="#D9CE90"/>
<path d="M9.74518 27.891C7.67509 27.891 5.99084 26.2724 5.99084 24.2832C5.99084 22.294 7.67509 20.6758 9.74518 20.6758C11.8153 20.6758 13.4999 22.294 13.4999 24.2832C13.4999 26.2724 11.8157 27.891 9.74518 27.891ZM9.74518 21.1387C7.93041 21.1387 6.45417 22.5509 6.45417 24.2832C6.45417 26.0155 7.93041 27.4276 9.74518 27.4276C11.5599 27.4276 13.0366 26.0155 13.0366 24.2832C13.0366 22.5509 11.5603 21.1387 9.74518 21.1387Z" fill="#010101"/>
<path d="M2.60874 22.2085L2.5072 22.6602L4.50752 23.1098L4.60906 22.6582L2.60874 22.2085Z" fill="#010101"/>
<path d="M6.77802 27.545L6.021 28.8711L6.42338 29.1008L7.18041 27.7747L6.77802 27.545Z" fill="#010101"/>
<path d="M13.4628 27.5309L13.0754 27.7852L13.9458 29.1112L14.3332 28.8569L13.4628 27.5309Z" fill="#010101"/>
<path d="M15.8598 22.2733L14.1687 22.7266L14.2892 23.176L15.9803 22.7227L15.8598 22.2733Z" fill="#010101"/>
<path d="M9.97688 17.5273H9.51355V19.4887H9.97688V17.5273Z" fill="#010101"/>
</svg>
