<svg width="3966" height="1080" viewBox="0 0 3966 1080" fill="none" xmlns="http://www.w3.org/2000/svg">
<path d="M1507.36 260C1524.51 260 1533.09 268.573 1533.08 285.72V381.72C1533.08 398.01 1524.51 407.44 1507.36 407.44H1291.36C1275.07 407.44 1265.64 416.01 1265.64 433.16V460.59C1265.64 476.88 1275.07 486.31 1291.36 486.31H1432.82C1449.96 486.31 1458.53 494.883 1458.53 512.03V608.03C1458.53 624.32 1449.96 633.75 1432.82 633.75H1291.32C1275.03 633.75 1265.6 642.32 1265.6 659.47V834.4C1265.6 850.69 1257.03 860.12 1239.88 860.12H1138.72C1122.43 860.12 1113 850.69 1113 834.4V285.72C1113 268.58 1122.43 260 1138.72 260H1507.36Z" fill="#FD537F"/>
<path d="M2051 813.82C2063 836.11 2049.28 860.12 2022.71 860.12H1925C1916.42 860.12 1908.71 855.83 1905.28 848.12L1816.12 675.8C1814.4 673.22 1811.83 671.51 1809.26 671.51H1775C1759.56 671.51 1748.42 682.65 1748.42 698.08V833.54C1748.42 848.97 1737.27 860.12 1721.84 860.12H1625.84C1610.4 860.12 1599.26 848.97 1599.26 833.54V286.54C1599.26 271.11 1610.4 259.96 1625.84 259.96H1813.58C1966.19 259.96 2027.91 325.12 2027.91 465.71C2027.91 545.45 2008.19 601.17 1962.76 633.71C1959.33 636.28 1958.47 640.57 1960.18 644.85L2051 813.82ZM1775 407.46C1759.56 407.46 1748.42 418.6 1748.42 434.04V497.48C1748.42 512.91 1759.56 524.05 1775 524.05H1818.72C1859.87 524.05 1880.44 518.91 1880.44 465.75C1880.44 412.59 1859.87 407.46 1818.72 407.46H1775Z" fill="#FD537F"/>
<path d="M2216.84 260C2233.98 260 2242.55 268.573 2242.56 285.72V621.79C2242.56 687.79 2246.84 728.09 2310.28 728.09C2373.72 728.09 2378 687.8 2378 621.79V285.72C2378 268.58 2387.43 260 2403.72 260H2499.72C2516.87 260 2525.45 268.573 2525.44 285.72V667.22C2525.44 723.8 2513.44 875.55 2310.25 875.55C2107.06 875.55 2095.1 723.8 2095.1 667.22V285.72C2095.1 268.58 2104.53 260 2120.82 260H2216.84Z" fill="#FD537F"/>
<path d="M2715.07 260C2732.22 260 2740.79 268.573 2740.79 285.72V834.4C2740.79 850.69 2732.22 860.12 2715.07 860.12H2620.77C2604.48 860.12 2595.05 850.69 2595.05 834.4V285.72C2595.05 268.58 2604.48 260 2620.77 260H2715.07Z" fill="#FD537F"/>
<path d="M2968.59 433.18C2968.59 416.027 2960.02 407.453 2942.87 407.46H2822.87C2806.58 407.46 2797.15 398.03 2797.15 381.74V285.74C2797.15 268.6 2806.58 260.02 2822.87 260.02H3261.81C3278.96 260.02 3287.54 268.593 3287.53 285.74V381.74C3287.53 398.03 3278.96 407.46 3261.81 407.46H3141.81C3125.52 407.46 3116.09 416.03 3116.09 433.18V834.4C3116.09 850.69 3107.51 860.12 3090.37 860.12H2994.37C2978.08 860.12 2968.65 850.69 2968.65 834.4L2968.59 433.18Z" fill="#FD537F"/>
<path d="M3351.72 860.12C3321.72 860.12 3302.82 827.72 3317.63 801.6L3527.46 431.35C3528.84 428.916 3529.56 426.163 3529.54 423.365C3529.52 420.567 3528.77 417.822 3527.37 415.405C3525.96 412.987 3523.94 410.982 3521.51 409.588C3519.09 408.193 3516.34 407.46 3513.54 407.46H3365.54C3358.72 407.457 3352.18 404.747 3347.36 399.924C3342.53 395.101 3339.82 388.561 3339.82 381.74V285.74C3339.82 268.6 3349.25 260.02 3365.54 260.02H3746.77C3776.97 260.02 3795.82 292.73 3780.68 318.86L3566 688.63C3564.6 691.061 3563.86 693.819 3563.86 696.626C3563.86 699.433 3564.59 702.191 3566 704.623C3567.4 707.055 3569.42 709.075 3571.85 710.48C3574.28 711.886 3577.03 712.627 3579.84 712.63H3745.36C3752.17 712.651 3758.7 715.374 3763.51 720.202C3768.31 725.03 3771.01 731.567 3771 738.38V834.38C3771 850.67 3762.43 860.1 3745.28 860.1L3351.72 860.12Z" fill="#FD537F"/>
<path d="M834.108 152.681C817.017 141.317 798.187 132.818 778.358 127.521C740.22 117.297 699.852 119.131 662.798 132.771C634.113 143.238 608.306 160.332 587.478 182.661C567.465 204.238 552.702 230.144 544.338 258.361C540.647 270.859 541.055 284.211 545.504 296.461C549.952 308.711 558.207 319.213 569.058 326.431C586.148 337.793 604.979 346.288 624.808 351.581C662.945 361.808 703.313 359.978 740.368 346.341C769.05 335.873 794.854 318.779 815.678 296.451C835.698 274.876 850.465 248.97 858.828 220.751C862.519 208.252 862.111 194.9 857.663 182.65C853.214 170.401 844.959 159.898 834.108 152.681V152.681Z" fill="white"/>
<path d="M895.808 407.551C878.425 379.097 855.456 354.462 828.288 335.131C803.064 317.065 774.783 303.707 744.808 295.701C712.808 287.131 679.808 285.041 649.388 289.701C640.031 291.116 630.79 293.211 621.738 295.971C615.858 290.133 609.616 284.672 603.048 279.621C577.828 260.131 546.758 245.081 513.198 236.081C449.528 219.021 384.508 225.431 330.108 254.081C298.198 270.921 270.508 295.001 247.808 325.661C224.178 357.591 206.048 396.661 193.948 441.861C177.02 504.566 175.477 570.431 189.448 633.861C201.128 687.611 223.328 739.861 255.448 789.301C281.928 830.071 314.518 867.591 349.698 897.821C373.698 918.431 409.828 945.031 445.838 954.671C459.988 958.471 477.048 960.251 496.538 959.971C515.89 959.562 535.179 957.633 554.228 954.201C601.331 945.75 647.01 930.709 689.918 909.521C743.068 883.331 789.008 849.311 826.458 808.401C871.338 759.401 902.928 701.561 920.358 636.511C949.388 528.091 923.038 452.161 895.808 407.551Z" fill="white"/>
<path d="M601.178 374.871C577.948 287.451 321.268 202.081 252.788 457.661C190.808 688.971 388.438 876.261 461.578 895.871C529.488 914.061 797.348 860.151 861.498 620.761C924.648 385.071 688.268 299.271 601.178 374.871Z" fill="#FF9F16"/>
<path d="M861.498 620.721C924.638 385.071 687.928 299.181 600.758 374.721C600.398 373.391 599.988 372.061 599.528 370.721C516.098 418.001 449.378 519.361 424.108 613.661C398.618 708.791 405.978 802.661 440.518 887.411C440.518 887.411 459.438 898.591 481.128 898.601C570.778 904.091 802.498 840.941 861.498 620.721Z" fill="#FFBC1D"/>
<path d="M753.042 493.813C756.186 482.65 749.681 471.05 738.512 467.904C727.343 464.758 715.74 471.258 712.596 482.421C709.451 493.585 715.957 505.185 727.126 508.331C738.294 511.477 749.898 504.977 753.042 493.813Z" fill="#FF9F16"/>
<path d="M709.647 530.012C712.792 518.848 706.286 507.248 695.117 504.102C683.948 500.956 672.345 507.456 669.201 518.62C666.057 529.783 672.562 541.383 683.731 544.529C694.9 547.675 706.503 541.175 709.647 530.012Z" fill="#FF9F16"/>
<path d="M772.539 546.865C775.683 535.702 769.178 524.102 758.009 520.956C746.84 517.81 735.237 524.31 732.093 535.473C728.948 546.637 735.454 558.237 746.623 561.383C757.792 564.529 769.395 558.029 772.539 546.865Z" fill="#FF9F16"/>
<path d="M683.488 189.971C664.239 196.923 646.889 208.296 632.837 223.176C618.784 238.055 608.42 256.025 602.578 275.641C619.623 286.898 639.083 293.976 659.377 296.303C679.671 298.63 700.228 296.138 719.378 289.031C740.737 281.266 759.725 268.11 774.498 250.841C786.329 236.995 795.113 220.814 800.278 203.351C783.233 192.097 763.775 185.021 743.483 182.696C723.191 180.371 702.637 182.864 683.488 189.971Z" fill="#21C064"/>
<path d="M800.268 203.2C783.153 192.044 763.673 185.031 743.375 182.717C723.076 180.403 702.518 182.851 683.331 189.867C664.143 196.883 646.855 208.275 632.838 223.137C618.821 238 608.46 255.925 602.578 275.49L800.268 203.2Z" fill="url(#paint0_linear_3588_7803)"/>
<path d="M905.81 417.55C894.39 398.86 880.55 381.83 864.7 366.86C853.65 355.15 841.47 344.51 828.29 335.13C821.98 330.61 815.46 326.39 808.79 322.47C814.72 317.48 820.37 312.14 825.68 306.45C845.7 284.88 860.47 258.97 868.83 230.75C872.52 218.25 872.11 204.9 867.66 192.65C863.78 181.98 857.02 172.63 848.16 165.63C844.21 160.63 839.48 156.25 834.1 152.68C817.01 141.32 798.18 132.82 778.35 127.52C762.11 123.17 745.46 121 728.84 121C706.43 121 684.06 124.94 662.79 132.77C634.11 143.24 608.3 160.33 587.47 182.66C569.96 201.54 556.47 223.72 547.77 247.87C536.65 243.23 525.08 239.27 513.19 236.08C489.83 229.82 466.28 226.72 443.14 226.72C403.23 226.72 364.54 235.94 330.1 254.08C298.19 270.92 270.5 295 247.8 325.66C224.17 357.59 206.04 396.66 193.94 441.86C177.01 504.57 175.47 570.43 189.44 633.86C201.12 687.61 223.32 739.86 255.44 789.3C276.52 821.75 301.48 852.13 328.52 878.43C338.61 888.82 349.03 898.66 359.69 907.82C383.69 928.43 419.82 955.03 455.83 964.67C469.98 968.47 487.04 970.25 506.53 969.97C525.88 969.56 545.17 967.63 564.22 964.2C611.32 955.75 657 940.71 699.91 919.52C753.06 893.33 799 859.31 836.45 818.4C881.33 769.4 912.92 711.56 930.35 646.51C959.38 538.09 933.03 462.16 905.8 417.55H905.81ZM912.63 634.44C895.53 698.25 864.55 754.96 820.56 803C783.79 843.17 738.64 876.59 686.38 902.35C644.13 923.21 599.2 938.01 552.81 946.33C534.24 949.68 515.25 951.58 496.39 951.97C495.12 951.99 493.85 952 492.6 952C475.44 952 460.41 950.3 447.91 946.94C413.41 937.7 378.3 911.83 354.91 891.75C320.29 862 288.22 825.07 262.15 784.94C230.55 736.3 208.72 684.9 197.25 632.14C183.61 570.23 185.14 505.15 201.67 443.93C213.49 399.76 231.18 361.57 254.23 330.42C276.21 300.74 302.99 277.43 333.83 261.16C366.67 243.86 404.47 234.72 443.14 234.72C465.74 234.72 488.61 237.78 511.12 243.81C522.51 246.87 533.81 250.72 544.69 255.26L552.45 258.5L555.3 250.59C563.7 227.29 576.49 206.27 593.32 188.12C613.19 166.82 638.16 150.28 665.55 140.28C685.88 132.8 707.17 129 728.84 129C744.85 129 760.81 131.1 776.28 135.25C795.31 140.33 813.27 148.44 829.66 159.34C839.16 165.66 846.23 174.66 850.13 185.38C854.03 196.1 854.37 207.55 851.14 218.48C843.17 245.37 828.87 270.45 809.81 291C803.86 297.38 797.35 303.42 790.48 308.97L780.87 316.71L791.86 322.32C802.93 327.98 813.62 334.48 823.64 341.65C850.08 360.46 872.06 384.04 888.97 411.72C915.38 454.99 940.92 528.75 912.62 634.44H912.63Z" fill="#DBDAE0"/>
<defs>
<linearGradient id="paint0_linear_3588_7803" x1="658.451" y1="232.807" x2="845.069" y2="254.34" gradientUnits="userSpaceOnUse">
<stop stop-color="#70EB64"/>
<stop offset="0.48" stop-color="#4CD864"/>
<stop offset="1" stop-color="#21C064"/>
</linearGradient>
</defs>
</svg>
