<svg width="400" height="71" viewBox="0 0 400 71" fill="none" xmlns="http://www.w3.org/2000/svg">
<g clip-path="url(#clip0_8796_57313)">
<path d="M55.9789 34.2209C55.9789 39.5919 53.8872 44.6416 50.0898 48.439C46.2917 52.2372 41.242 54.3281 35.871 54.3281C30.5 54.3281 25.451 52.2372 21.6529 48.439C17.8547 44.6416 15.7638 39.5919 15.7638 34.2209V33.6431H22.8625V34.2209C22.8625 41.3936 28.6983 47.2294 35.871 47.2294C43.0444 47.2294 48.8802 41.3936 48.8802 34.2209V33.6431H55.9789V34.2209ZM52.7479 14.4719C40.4964 14.4719 36.1716 24.1584 35.871 24.8677C35.5711 24.1584 31.2463 14.4719 18.9947 14.4719C8.89459 14.4719 0.186035 22.9637 0.186035 33.4384C0.186035 53.8789 19.7993 70.4489 35.871 70.4489C51.9434 70.4489 71.5566 53.8789 71.5566 33.4384C71.5566 22.9637 62.8481 14.4719 52.7479 14.4719" fill="#6E3EFF"/>
<path d="M371.268 59.2016C362.211 59.2016 356.03 52.3012 356.03 42.5258C356.03 32.7505 362.211 25.85 371.268 25.85C380.325 25.85 386.506 32.7505 386.506 42.5258C386.506 52.3012 380.325 59.2016 371.268 59.2016ZM371.268 14.4926C354.736 14.4926 342.66 26.425 342.66 42.5258C342.66 58.6266 354.736 70.5583 371.268 70.5583C387.8 70.5583 399.875 58.6266 399.875 42.5258C399.875 26.1371 387.8 14.4926 371.268 14.4926Z" fill="#6E3EFF"/>
<path d="M307.727 59.2016C298.67 59.2016 292.489 52.3012 292.489 42.5258C292.489 32.7505 298.67 25.85 307.727 25.85C316.784 25.85 322.965 32.7505 322.965 42.5258C322.965 52.3012 316.784 59.2016 307.727 59.2016ZM307.727 14.4926C291.195 14.4926 279.12 26.425 279.12 42.5258C279.12 58.6266 291.195 70.5583 307.727 70.5583C324.259 70.5583 336.335 58.6266 336.335 42.5258C336.335 26.1371 324.259 14.4926 307.727 14.4926Z" fill="#6E3EFF"/>
<path d="M118.685 58.6265C108.91 58.6265 103.303 51.5825 103.303 42.5257C103.303 33.3253 108.766 25.8499 118.542 25.8499C127.886 25.8499 133.78 33.3253 133.78 42.5257C133.78 51.5825 128.461 58.6265 118.685 58.6265ZM122.135 14.4931C113.223 14.4931 106.609 18.3744 102.728 24.987V-0.170608H90.6528V41.0879C90.6528 58.6265 101.003 70.5582 118.829 70.5582C133.493 70.5582 147.149 60.0643 147.149 42.2378C147.149 27.1434 138.093 14.4931 122.135 14.4931" fill="#6E3EFF"/>
<path d="M181.795 59.2016C172.163 59.2016 166.844 52.014 166.844 42.8129C166.844 33.7561 172.163 26.425 181.939 26.425C191.714 26.425 197.321 33.469 197.321 42.5258C197.321 51.7262 191.57 59.2016 181.795 59.2016ZM181.795 14.4926C167.132 14.4926 153.475 24.9872 153.475 42.8129C153.475 57.9081 162.531 70.5583 178.489 70.5583C187.401 70.5583 194.015 66.6771 197.896 60.0644V69.9834H209.972V43.9636C209.972 26.425 199.621 14.4926 181.795 14.4926Z" fill="#6E3EFF"/>
<path d="M244.761 58.6265C234.986 58.6265 229.667 51.5825 229.667 42.5257C229.667 33.3253 235.561 25.8499 244.905 25.8499C254.681 25.8499 260.143 33.181 260.143 42.5257C260.143 51.5825 254.536 58.6265 244.761 58.6265ZM260.718 -0.170608V24.987C256.837 18.3744 250.224 14.4931 241.311 14.4931C225.354 14.4931 216.297 27.1434 216.297 42.2378C216.297 60.3515 229.092 70.5582 244.043 70.5582C261.868 70.5582 272.794 58.6265 272.794 41.0879V-0.170608H260.718Z" fill="#6E3EFF"/>
</g>
<defs>
<clipPath id="clip0_8796_57313">
<rect width="400" height="70.7823" fill="white"/>
</clipPath>
</defs>
</svg>
