<svg width="400" height="95" viewBox="0 0 400 95" fill="none" xmlns="http://www.w3.org/2000/svg">
<g clip-path="url(#clip0_10755_64094)">
<path d="M147.268 15.4102C149.17 15.4102 150.121 16.3606 150.12 18.2616V28.9046C150.12 30.7106 149.17 31.7561 147.268 31.7561H123.321C121.515 31.7561 120.47 32.7062 120.47 34.6075V37.6485C120.47 39.4545 121.515 40.5 123.321 40.5H139.004C140.905 40.5 141.855 41.4504 141.855 43.3514V53.9944C141.855 55.8004 140.905 56.8459 139.004 56.8459H123.317C121.511 56.8459 120.466 57.796 120.466 59.6973V79.0909C120.466 80.8969 119.515 81.9423 117.614 81.9423H106.399C104.593 81.9423 103.548 80.8969 103.548 79.0909V18.2616C103.548 16.3614 104.593 15.4102 106.399 15.4102H147.268Z" fill="#FD537F"/>
<path d="M207.539 76.8093C208.869 79.2805 207.348 81.9424 204.402 81.9424H193.57C192.619 81.9424 191.764 81.4667 191.384 80.612L181.499 61.5078C181.308 61.2217 181.023 61.0322 180.738 61.0322H176.94C175.228 61.0322 173.993 62.2672 173.993 63.9778V78.9956C173.993 80.7062 172.757 81.9424 171.047 81.9424H160.404C158.692 81.9424 157.457 80.7062 157.457 78.9956V18.3525C157.457 16.6419 158.692 15.4058 160.404 15.4058H181.217C198.136 15.4058 204.979 22.6297 204.979 38.2162C204.979 47.0565 202.793 53.2339 197.756 56.8415C197.376 57.1264 197.281 57.602 197.47 58.0765L207.539 76.8093ZM176.94 31.7583C175.228 31.7583 173.993 32.9933 173.993 34.7051V41.7384C173.993 43.449 175.228 44.684 176.94 44.684H181.787C186.349 44.684 188.63 44.1142 188.63 38.2206C188.63 32.327 186.349 31.7583 181.787 31.7583H176.94Z" fill="#FD537F"/>
<path d="M225.925 15.4102C227.825 15.4102 228.775 16.3606 228.776 18.2616V55.5199C228.776 62.837 229.251 67.3048 236.284 67.3048C243.317 67.3048 243.792 62.8381 243.792 55.5199V18.2616C243.792 16.3614 244.837 15.4102 246.643 15.4102H257.286C259.187 15.4102 260.139 16.3606 260.137 18.2616V60.5565C260.137 66.8292 258.807 83.6529 236.281 83.6529C213.754 83.6529 212.428 66.8292 212.428 60.5565V18.2616C212.428 16.3614 213.473 15.4102 215.279 15.4102H225.925Z" fill="#FD537F"/>
<path d="M281.161 15.4102C283.062 15.4102 284.012 16.3606 284.012 18.2616V79.0909C284.012 80.8969 283.062 81.9423 281.161 81.9423H270.706C268.9 81.9423 267.855 80.8969 267.855 79.0909V18.2616C267.855 16.3614 268.9 15.4102 270.706 15.4102H281.161Z" fill="#FD537F"/>
<path d="M309.267 34.6097C309.267 32.708 308.317 31.7575 306.416 31.7583H293.112C291.306 31.7583 290.26 30.7128 290.26 28.9068V18.2638C290.26 16.3636 291.306 15.4124 293.112 15.4124H341.775C343.676 15.4124 344.627 16.3628 344.626 18.2638V28.9068C344.626 30.7128 343.676 31.7583 341.775 31.7583H328.471C326.665 31.7583 325.62 32.7084 325.62 34.6097V79.0908C325.62 80.8968 324.669 81.9423 322.768 81.9423H312.125C310.319 81.9423 309.274 80.8968 309.274 79.0908L309.267 34.6097Z" fill="#FD537F"/>
<path d="M351.743 81.9423C348.417 81.9423 346.321 78.3503 347.963 75.4545L371.226 34.4068C371.379 34.137 371.459 33.8318 371.457 33.5216C371.455 33.2114 371.371 32.907 371.216 32.6391C371.06 32.371 370.836 32.1487 370.566 31.9942C370.298 31.8395 369.993 31.7583 369.683 31.7583H353.275C352.519 31.7579 351.794 31.4575 351.259 30.9228C350.724 30.3881 350.423 29.663 350.423 28.9068V18.2638C350.423 16.3636 351.469 15.4124 353.275 15.4124H395.54C398.888 15.4124 400.978 19.0387 399.299 21.9356L375.499 62.9301C375.344 63.1996 375.262 63.5054 375.262 63.8166C375.262 64.1278 375.343 64.4335 375.499 64.7032C375.654 64.9728 375.878 65.1967 376.147 65.3525C376.417 65.5084 376.722 65.5905 377.033 65.5908H395.384C396.139 65.5932 396.863 65.8951 397.396 66.4303C397.928 66.9656 398.227 67.6903 398.226 68.4456V79.0886C398.226 80.8946 397.276 81.9401 395.375 81.9401L351.743 81.9423Z" fill="#FD537F"/>
<path d="M72.6283 3.51231C70.7335 2.25244 68.6459 1.3102 66.4476 0.722954C62.2194 -0.410527 57.744 -0.207202 53.6361 1.30499C50.4559 2.46541 47.5948 4.36054 45.2857 6.83604C43.067 9.22816 41.4303 12.1002 40.503 15.2285C40.0938 16.6141 40.139 18.0944 40.6323 19.4524C41.1254 20.8105 42.0406 21.9748 43.2436 22.7751C45.1383 24.0347 47.226 24.9765 49.4243 25.5633C53.6523 26.6971 58.1277 26.4942 62.2358 24.9824C65.4157 23.8218 68.2764 21.9267 70.5851 19.4513C72.8046 17.0594 74.4417 14.1874 75.3689 11.0589C75.7781 9.67318 75.7328 8.19291 75.2397 6.83482C74.7465 5.47683 73.8313 4.31242 72.6283 3.51231Z" fill="white"/>
<path d="M79.4687 31.7684C77.5415 28.6139 74.9951 25.8827 71.9831 23.7396C69.1867 21.7367 66.0513 20.2558 62.7281 19.3682C59.1805 18.4181 55.5219 18.1864 52.1494 18.703C51.112 18.8599 50.0875 19.0921 49.084 19.3981C48.4321 18.7509 47.7401 18.1455 47.0119 17.5855C44.2159 15.4247 40.7714 13.7562 37.0507 12.7584C29.992 10.8671 22.7836 11.5777 16.7525 14.754C13.2148 16.621 10.145 19.2906 7.62835 22.6897C5.00861 26.2296 2.99863 30.5611 1.65717 35.5722C-0.219547 42.524 -0.390612 49.8261 1.15828 56.8582C2.45318 62.8172 4.91438 68.6099 8.47535 74.091C11.4111 78.611 15.0241 82.7706 18.9244 86.1221C21.5851 88.407 25.5907 91.356 29.5829 92.4247C31.1516 92.846 33.043 93.0434 35.2037 93.0123C37.3492 92.967 39.4877 92.7531 41.5995 92.3726C46.8216 91.4357 51.8858 89.7682 56.6428 87.4192C62.5352 84.5157 67.6283 80.744 71.7802 76.2086C76.7558 70.7762 80.2581 64.3638 82.1904 57.152C85.4088 45.1321 82.4875 36.7141 79.4687 31.7684Z" fill="white"/>
<path d="M46.8047 28.1453C44.2293 18.4535 15.7725 8.98898 8.18052 37.3238C1.30912 62.9679 23.2193 83.7318 31.328 85.9058C38.8568 87.9225 68.553 81.9457 75.665 55.4058C82.6661 29.2761 56.4599 19.7639 46.8047 28.1453Z" fill="#FF9F16"/>
<path d="M75.6649 55.4015C82.6649 29.2763 56.4221 19.7541 46.758 28.1288C46.7181 27.9814 46.6727 27.8339 46.6217 27.6853C37.3722 32.927 29.9753 44.1643 27.1738 54.6188C24.3478 65.1654 25.1638 75.5723 28.9931 84.9681C28.9931 84.9681 31.0906 86.2075 33.4953 86.2086C43.4343 86.8173 69.1239 79.8162 75.6649 55.4015Z" fill="#FFBC1D"/>
<path d="M63.6409 41.3319C63.9895 40.0943 63.2683 38.8082 62.03 38.4595C60.7918 38.1107 59.5054 38.8313 59.1569 40.0689C58.8082 41.3066 59.5295 42.5926 60.7677 42.9414C62.0059 43.2902 63.2923 42.5695 63.6409 41.3319Z" fill="#FF9F16"/>
<path d="M58.8301 45.3449C59.1787 44.1072 58.4575 42.8212 57.2192 42.4724C55.981 42.1236 54.6946 42.8442 54.346 44.0819C53.9975 45.3195 54.7187 46.6055 55.9569 46.9543C57.1952 47.3031 58.4815 46.5825 58.8301 45.3449Z" fill="#FF9F16"/>
<path d="M65.8025 47.2134C66.1511 45.9759 65.4299 44.6898 64.1917 44.341C62.9534 43.9923 61.667 44.7129 61.3185 45.9505C60.9698 47.1882 61.6911 48.4742 62.9293 48.823C64.1676 49.1718 65.454 48.4511 65.8025 47.2134Z" fill="#FF9F16"/>
<path d="M55.93 7.64649C53.796 8.41722 51.8725 9.67808 50.3146 11.3278C48.7566 12.9773 47.6076 14.9695 46.96 17.1443C48.8497 18.3923 51.0071 19.177 53.257 19.435C55.5069 19.6929 57.7859 19.4167 59.909 18.6288C62.2769 17.7679 64.382 16.3093 66.0198 14.3948C67.3315 12.8598 68.3053 11.0659 68.8779 9.12986C66.9882 7.88219 64.831 7.09771 62.5814 6.83995C60.3317 6.58219 58.053 6.85857 55.93 7.64649Z" fill="#21C064"/>
<path d="M68.8768 9.11318C66.9794 7.87638 64.8197 7.09888 62.5694 6.84234C60.3189 6.5858 58.0398 6.8572 55.9126 7.63503C53.7853 8.41285 51.8687 9.67582 50.3147 11.3235C48.7607 12.9713 47.6121 14.9585 46.96 17.1276L68.8768 9.11318Z" fill="url(#paint0_linear_10755_64094)"/>
<path d="M80.5775 32.8769C79.3114 30.8049 77.7771 28.9169 76.0199 27.2572C74.7948 25.959 73.4445 24.7794 71.9833 23.7395C71.2837 23.2384 70.5609 22.7705 69.8214 22.3359C70.4788 21.7827 71.1052 21.1907 71.6939 20.5599C73.9134 18.1685 75.5509 15.296 76.4777 12.1674C76.8868 10.7816 76.8414 9.30155 76.348 7.94346C75.9179 6.76053 75.1684 5.72395 74.1862 4.94789C73.7482 4.39357 73.2238 3.90798 72.6274 3.51219C70.7327 2.25277 68.6451 1.31042 66.4467 0.722838C64.6462 0.240576 62.8004 0 60.9578 0C58.4733 0 55.9933 0.436808 53.6352 1.30488C50.4556 2.46563 47.5941 4.36031 45.2848 6.83592C43.3436 8.92905 41.848 11.388 40.8835 14.0654C39.6507 13.551 38.368 13.112 37.0498 12.7583C34.46 12.0643 31.8491 11.7206 29.2837 11.7206C24.8591 11.7206 20.5697 12.7428 16.7516 14.7539C13.2139 16.6208 10.144 19.2905 7.6274 22.6896C5.00767 26.2295 2.99769 30.561 1.65622 35.5721C-0.220716 42.5244 -0.391448 49.8259 1.15733 56.8581C2.45223 62.8171 4.91343 68.6098 8.47441 74.0909C10.8114 77.6885 13.5786 81.0565 16.5764 83.9723C17.695 85.1242 18.8502 86.2151 20.0321 87.2306C22.6928 89.5155 26.6984 92.4645 30.6906 93.5333C32.2593 93.9545 34.1507 94.1519 36.3114 94.1208C38.4567 94.0754 40.5952 93.8614 42.7072 93.4812C47.9289 92.5444 52.9932 90.8769 57.7505 88.5277C63.6429 85.6242 68.736 81.8526 72.8879 77.3171C77.8635 71.8847 81.3658 65.4723 83.2981 58.2605C86.5165 46.2406 83.5952 37.8226 80.5764 32.8769H80.5775ZM81.3336 56.9224C79.4378 63.9967 76.0032 70.2838 71.1263 75.6098C67.0498 80.0632 62.0443 83.7683 56.2505 86.6242C51.5664 88.9368 46.5853 90.5776 41.4423 91.5C39.3835 91.8714 37.2782 92.082 35.1873 92.1253C35.0465 92.1275 34.9057 92.1286 34.7671 92.1286C32.8647 92.1286 31.1984 91.9401 29.8125 91.5676C25.9877 90.5432 22.0952 87.6752 19.5021 85.449C15.664 82.1508 12.1086 78.0565 9.21831 73.6075C5.71498 68.2151 3.2948 62.5166 2.02319 56.6674C0.510991 49.8038 0.680613 42.5887 2.51321 35.8016C3.82363 30.9047 5.78483 26.6707 8.34026 23.2173C10.7771 19.9268 13.746 17.3426 17.1651 15.5388C20.8059 13.6208 24.9966 12.6075 29.2837 12.6075C31.7893 12.6075 34.3247 12.9468 36.8203 13.6153C38.0831 13.9545 39.3358 14.3814 40.542 14.8847L41.4023 15.2439L41.7183 14.367C42.6496 11.7838 44.0675 9.45344 45.9334 7.44124C48.1363 5.07982 50.9046 3.24612 53.9411 2.13747C56.195 1.3082 58.5553 0.886918 60.9578 0.886918C62.7327 0.886918 64.5021 1.11973 66.2172 1.57982C68.327 2.14302 70.3181 3.04213 72.1352 4.25055C73.1884 4.95122 73.9722 5.949 74.4046 7.13747C74.8369 8.32594 74.8746 9.59534 74.5165 10.8071C73.6329 13.7882 72.0476 16.5687 69.9345 18.847C69.2748 19.5543 68.5531 20.2239 67.7915 20.8392L66.7261 21.6973L67.9445 22.3193C69.1717 22.9468 70.3569 23.6674 71.4678 24.4623C74.399 26.5477 76.8358 29.1619 78.7105 32.2306C81.6385 37.0277 84.47 45.2051 81.3325 56.9224H81.3336Z" fill="#DBDAE0"/>
</g>
<defs>
<linearGradient id="paint0_linear_10755_64094" x1="53.1543" y1="12.3956" x2="73.8437" y2="14.7828" gradientUnits="userSpaceOnUse">
<stop stop-color="#70EB64"/>
<stop offset="0.48" stop-color="#4CD864"/>
<stop offset="1" stop-color="#21C064"/>
</linearGradient>
</defs>
</svg>
