<svg width="36" height="36" viewBox="0 0 36 36" fill="none" xmlns="http://www.w3.org/2000/svg">
<path d="M23.5373 11.943C24.1922 11.6759 24.9227 11.5679 25.6467 11.4931C27.147 11.3385 28.6581 11.3179 30.1621 11.4316C30.2827 11.4408 30.4212 11.4598 30.4834 11.5461C30.5361 11.619 30.5117 11.7129 30.4716 11.7907C30.2831 12.1583 29.8171 12.3632 29.3846 12.5415C27.7752 13.2025 26.12 13.8746 24.3315 14.0192C23.864 14.0574 23.3774 14.0574 22.9419 13.9127C21.3993 13.4044 22.5622 12.3392 23.5373 11.943Z" fill="#D9CE90"/>
<path d="M23.507 11.6605C23.652 11.1979 23.6017 10.7109 23.5505 10.2354C23.4788 9.56975 23.4017 8.88812 23.0544 8.28587C22.7525 7.76377 22.2647 7.33402 21.785 6.91191L18.4005 3.94531C18.1833 5.59368 18.6875 7.24204 19.1874 8.84728C19.4813 9.7915 19.7847 10.7536 20.4232 11.5731C21.2446 12.6272 22.9792 13.3432 23.507 11.6605Z" fill="#D9CE90"/>
<path d="M11.7689 17.0304C11.5186 16.3858 11.2319 15.7415 10.7663 15.1847C9.68928 13.8962 7.82757 13.2512 6.06738 12.6719C6.58033 13.0684 6.52957 13.7344 6.5704 14.313C6.65246 15.4789 7.2841 16.6121 8.30235 17.4212C9.03742 18.0051 9.96789 18.4158 10.9598 18.607C11.4292 18.6974 11.93 18.8741 12.0994 18.4967C12.2731 18.1124 11.909 17.391 11.7689 17.0304Z" fill="#D9CE90"/>
<path d="M12.946 11.8568C13.4131 11.9735 13.9337 11.8464 14.3199 11.601C14.7062 11.3556 14.9779 11.0053 15.192 10.6427C15.8473 9.53286 16.0317 8.25928 15.8897 7.02997C15.7477 5.80066 15.2909 4.60875 14.7161 3.46875C14.7619 3.55997 12.925 5.40832 12.7513 5.65105C12.3098 6.26742 11.7617 6.97959 11.5579 7.68489C11.256 8.73329 11.3816 11.4652 12.946 11.8568Z" fill="#D9CE90"/>
<path d="M17.5167 33.0208L17.1533 32.9907C17.22 32.4859 17.259 31.9777 17.2701 31.4687C17.3209 30.081 17.369 28.7704 19.2272 24.6405C19.3906 24.2779 19.6043 23.9279 19.8108 23.5894C19.9516 23.3604 20.097 23.12 20.2233 22.8818C22.1587 19.2439 22.1736 16.833 22.19 14.2805C22.1934 13.6969 22.1969 13.0935 22.2236 12.4688L22.5892 12.4783C22.5625 13.0989 22.5591 13.6996 22.5553 14.2816C22.5392 16.8627 22.524 19.3004 20.5615 22.9898C20.4317 23.2341 20.284 23.476 20.1417 23.7104C19.939 24.042 19.7299 24.3851 19.573 24.7336C17.7327 28.8226 17.6846 30.1126 17.6357 31.4778C17.6243 31.9939 17.5845 32.5091 17.5167 33.0208Z" fill="#231F20"/>
<path d="M19.3434 25.2386L18.9801 25.2077C19.0946 24.4062 18.6572 23.765 18.2351 23.1467L18.1588 23.0349C15.7898 19.5321 13.967 15.811 12.7393 11.9746L13.0942 11.9062C14.3151 15.719 16.128 19.4191 18.4835 22.9036L18.5599 23.0151C18.9854 23.6402 19.469 24.3509 19.3434 25.2386Z" fill="#231F20"/>
<path d="M13.2198 12.0428C12.9868 12.0428 12.759 11.974 12.5649 11.8451C11.5672 11.1898 11.2726 9.138 11.2425 8.90634C11.0818 7.67436 11.4882 6.47749 12.3569 5.62411C12.3893 5.59167 12.4233 5.55923 12.4576 5.52717C12.6836 5.31802 12.9385 5.12185 13.1847 4.93255C13.7423 4.50319 14.2686 4.09787 14.4842 3.5586L14.875 2.57812L14.8415 3.60401C14.8254 4.08909 15.0743 4.56769 15.3147 5.03064C15.367 5.13139 15.4189 5.23177 15.4674 5.33176C15.7403 5.88087 15.944 6.46174 16.0738 7.06104C16.249 7.87969 16.2379 8.57659 16.0402 9.19181C15.8551 9.7643 14.7506 11.7027 13.537 12.005C13.4332 12.0304 13.3267 12.0431 13.2198 12.0428ZM12.7385 5.70731C12.7061 5.73708 12.6748 5.76685 12.6447 5.79738C11.8333 6.59504 11.455 7.71748 11.6062 8.87771C11.7107 9.67652 12.0798 11.1554 12.8011 11.6294C12.8914 11.6912 12.9941 11.7325 13.102 11.7504C13.21 11.7683 13.3205 11.7625 13.4259 11.7333C14.4216 11.4856 15.5078 9.67575 15.6864 9.12121C15.8719 8.54415 15.8815 7.88503 15.7143 7.10493C15.589 6.5247 15.3921 5.96229 15.1281 5.43061C15.0792 5.33176 15.0277 5.23291 14.9754 5.13406C14.8067 4.81004 14.6346 4.47915 14.543 4.13451C14.2518 4.50853 13.8423 4.82378 13.4423 5.13177C13.2019 5.31688 12.9534 5.50847 12.7382 5.70731H12.7385Z" fill="#231F20"/>
<path d="M17.9248 29.1405L17.5752 29.0589C18.0908 27.7326 19.3953 26.311 21.1532 25.161C21.5043 24.932 21.9409 24.6454 22.4424 24.4618C22.8306 24.3191 23.2439 24.2401 23.6458 24.1634L28.0608 23.3203L28.1485 23.5947L23.7336 24.4382C23.3519 24.5115 22.9539 24.5866 22.5989 24.7172C22.1409 24.8851 21.7242 25.158 21.3895 25.377C19.6838 26.4934 18.4213 27.8647 17.9248 29.1405Z" fill="#231F20"/>
<path d="M22.4736 24.6362L22.3408 24.3732C22.94 24.1896 23.3965 23.787 23.838 23.3969L23.9995 23.2553C24.872 22.4951 25.8658 21.8138 26.8272 21.1562L27.0695 21.3681C26.1154 22.0215 25.1307 22.6966 24.2731 23.4443L24.1132 23.5847C23.6415 23.9984 23.1553 24.4278 22.4736 24.6362Z" fill="#231F20"/>
<path d="M17.1654 21.4935C16.9872 21.1206 16.5826 20.595 16.1544 20.3103C14.89 19.4707 13.4515 18.8322 11.8799 18.4078L12.0005 18.1406C13.616 18.5765 15.0942 19.2341 16.3933 20.0951C16.8895 20.4248 17.3204 20.9992 17.5093 21.3927L17.1654 21.4935Z" fill="#231F20"/>
<path d="M11.4213 18.7486C10.897 18.7486 10.2294 18.5265 9.68787 18.244C8.93258 17.8502 8.33491 17.2723 7.85593 16.8079C7.41436 16.3808 6.86363 15.8488 6.63922 15.2248C6.52472 14.9122 6.49572 14.5843 6.46595 14.2672C6.42282 13.8042 6.38198 13.3672 6.10185 12.9963L5.85645 12.6719L6.31672 12.7921C7.84028 13.1848 9.5501 13.7317 10.6771 14.8114C11.4213 15.524 11.9499 16.5098 12.2488 17.741C12.3564 18.183 12.2526 18.4871 11.9435 18.6455C11.7798 18.7199 11.601 18.7552 11.4213 18.7486ZM9.89206 18.0097C10.6325 18.3959 11.4271 18.5669 11.7412 18.4078C11.9602 18.2959 11.9427 18.0112 11.8896 17.7918C11.6023 16.6086 11.0985 15.6633 10.3947 14.9878C9.42262 14.0569 7.96814 13.5375 6.60411 13.1654C6.76287 13.5115 6.7976 13.884 6.8331 14.247C6.86134 14.55 6.89035 14.8633 6.99339 15.1484C7.18422 15.6751 7.60862 16.1133 8.14408 16.6312C8.62916 17.1048 9.18333 17.6391 9.89206 18.0097Z" fill="#231F20"/>
<path d="M22.3153 12.7413C22.2988 12.7413 22.2824 12.7413 22.266 12.7413C21.2783 12.6967 20.4497 11.3464 19.7017 9.89343L19.5811 9.66215C19.1002 8.75687 18.7796 7.91265 18.6002 7.08064C18.5708 6.94439 18.5712 6.50396 18.5754 5.79485C18.5785 5.2819 18.5827 4.57966 18.5518 4.48081L18.6976 4.45371L18.822 4.3125C18.8239 4.31374 18.8259 4.31477 18.8281 4.31555C19.4864 4.66324 19.9986 5.12848 20.5516 5.65631C22.0439 7.07911 23.5201 8.62252 23.7465 10.4621C23.8228 11.0937 23.7152 11.6258 23.4228 12.0437C23.0984 12.5066 22.7248 12.7413 22.3153 12.7413ZM18.938 4.73156C18.9441 4.94414 18.9441 5.27427 18.941 5.79523C18.938 6.31619 18.9346 6.91042 18.9605 7.03293C19.1353 7.84395 19.449 8.66832 19.9196 9.55185L20.0414 9.78619C20.4119 10.5056 21.3958 12.4162 22.2874 12.4578C22.5545 12.473 22.837 12.2853 23.1015 11.9074C23.3583 11.5399 23.453 11.0621 23.3824 10.4873C23.1656 8.72633 21.7248 7.22262 20.2677 5.8311C19.8272 5.41319 19.4147 5.03421 18.938 4.73156Z" fill="#231F20"/>
<path d="M23.8267 14.2035C23.4012 14.2035 22.9825 14.1413 22.6768 13.9745C22.3837 13.8146 22.2215 13.5802 22.1948 13.2776C22.1184 12.4162 23.8874 11.6746 24.5748 11.4628C25.6736 11.1228 26.9055 11.1163 27.9921 11.1106C28.768 11.1071 29.5714 11.1025 30.3549 11.2334L30.5458 11.2651L30.4946 11.4094C30.1282 12.4368 28.7749 12.9852 27.6364 13.3482C26.7052 13.6451 25.7861 13.8932 24.9034 14.0856C24.5496 14.1622 24.1887 14.2017 23.8267 14.2035ZM24.7106 11.7258C23.9855 11.9502 22.5035 12.6208 22.5596 13.2589C22.5787 13.4753 22.6856 13.6337 22.8875 13.7436C23.3924 14.0188 24.3286 13.9172 24.8022 13.8138C25.6713 13.623 26.5773 13.3799 27.4952 13.0887C28.4986 12.7688 29.679 12.3002 30.0786 11.4819C29.3951 11.3884 28.6852 11.3922 27.994 11.3953C26.9403 11.401 25.7457 11.4071 24.7118 11.7273L24.7106 11.7258Z" fill="#231F20"/>
<path d="M26.6199 19.4987C26.5467 19.2953 26.4638 19.0651 26.2952 18.8743C26.1359 18.6942 25.9189 18.5752 25.6815 18.5377C25.8261 18.4022 25.9522 18.2482 26.0566 18.0797C26.1291 17.9618 26.1681 17.7893 26.0921 17.6687C26.0705 17.6366 26.0423 17.6095 26.0094 17.5893C25.9765 17.569 25.9396 17.556 25.9013 17.5511C25.8212 17.5412 25.74 17.5487 25.6631 17.5732C25.2277 17.6877 24.8445 17.9244 24.5945 18.2247C24.2441 17.8507 23.5843 17.6729 23.0091 17.8003C22.9793 17.8072 22.9492 17.8145 22.9198 17.8229L22.8564 17.8408L22.874 17.8912C22.9996 18.256 23.3465 18.5697 23.79 18.7262C23.5083 19.0384 23.2381 19.4788 23.4114 19.9055C23.4218 19.9367 23.4392 19.9651 23.4622 19.9885C23.4852 20.012 23.5133 20.0299 23.5442 20.041C23.6024 20.0563 23.6635 20.0563 23.7217 20.041C23.9621 19.9964 24.238 19.9387 24.4724 19.8162C24.6017 19.7483 24.7264 19.6718 24.8456 19.5872C25.0777 19.4273 25.1071 19.4071 25.6742 19.6082C26.0112 19.7277 26.4345 19.7727 26.6123 19.5411L26.6283 19.5201L26.6199 19.4987Z" fill="#EF539E"/>
<path d="M29.902 23.3003C30.1653 23.0988 30.3691 22.8083 30.152 22.598L30.1321 22.5789L30.1008 22.5767C29.8291 22.558 29.5211 22.5385 29.231 22.5915C28.9559 22.6434 28.7322 22.7618 28.6074 22.9171C28.4862 22.7557 28.3451 22.6102 28.1876 22.4839C28.0704 22.39 27.8754 22.3011 27.7029 22.3137C27.6632 22.3148 27.6241 22.324 27.588 22.3407C27.5519 22.3573 27.5196 22.3811 27.493 22.4106C27.4536 22.4623 27.4334 22.5259 27.4357 22.5908C27.4228 22.9472 27.5716 23.3075 27.8475 23.593C27.2712 23.7147 26.8236 24.13 26.7747 24.591C26.7724 24.6151 26.7709 24.6395 26.7705 24.6639V24.7158L26.8377 24.7212C27.3231 24.7593 27.825 24.6185 28.1708 24.3529C28.4486 24.6666 28.886 25.0177 29.4635 25.0429C29.5245 25.0456 29.6135 25.0429 29.6741 24.9948C29.7116 24.9622 29.7346 24.9161 29.7383 24.8666C29.7688 24.6758 29.7963 24.4567 29.731 24.2437C29.6931 24.1228 29.6445 24.0054 29.586 23.893C29.4741 23.6674 29.4585 23.6399 29.902 23.3003Z" fill="#EF539E"/>
<path d="M28.5054 20.945C28.4718 20.902 28.4272 20.8688 28.3764 20.8488C28.0673 20.7058 27.7259 20.6468 27.3867 20.6778C27.5012 20.3447 27.3238 19.9653 26.9578 19.768C26.9387 19.7577 26.9196 19.7478 26.8986 19.7386L26.8555 19.7188L26.8261 19.75C26.6124 19.979 26.5406 20.2813 26.6326 20.5534C26.2666 20.5744 25.8097 20.6607 25.572 20.9393C25.5468 20.9687 25.5155 21.0156 25.5338 21.0626C25.5517 21.0977 25.5809 21.1258 25.6166 21.1423C25.7632 21.229 25.9365 21.3255 26.1384 21.3713C26.2527 21.3979 26.3686 21.4176 26.4853 21.4305C26.7143 21.4591 26.7433 21.4629 26.8597 21.8121C26.9291 22.019 27.0944 22.2319 27.3513 22.2003L27.3745 22.1976L27.3883 22.1831C27.5058 22.0545 27.639 21.9087 27.7024 21.7434C27.7324 21.6737 27.7446 21.5976 27.738 21.522C27.7313 21.4464 27.706 21.3736 27.6642 21.3102C27.8383 21.3107 28.0121 21.2947 28.1833 21.2625C28.3054 21.2396 28.4531 21.1755 28.5073 21.0851C28.5209 21.0642 28.5279 21.0397 28.5276 21.0147C28.5273 20.9898 28.5195 20.9655 28.5054 20.945Z" fill="#EF539E"/>
<path d="M22.0978 24.9751L21.8799 24.7461C22.6375 24.3106 23.0382 23.5881 23.3912 22.9523C23.6817 22.4283 23.982 21.8867 24.1675 21.3314C24.2872 20.9756 24.3616 20.6062 24.3889 20.2319C24.4015 20.0536 24.4034 19.8658 24.3328 19.6975L24.6805 19.6094C24.7694 19.8208 24.7682 20.0403 24.7537 20.2456C24.7252 20.6389 24.6472 21.027 24.5217 21.4009C24.329 21.9768 24.0229 22.5286 23.7275 23.0622C23.3741 23.7011 22.9344 24.4942 22.0978 24.9751Z" fill="#231F20"/>
</svg>
