<svg width="445" height="444" viewBox="0 0 445 444" fill="none" xmlns="http://www.w3.org/2000/svg">
<g clip-path="url(#clip0_521_5549)">
<path d="M283.71 3.40003C213 -5.87997 134.12 1.89003 82.37 51C50.75 81 33.28 122.6 16.67 162.9C8.30995 183.18 -0.190047 204.15 -4.65445e-05 226.09C0.109953 238.68 3.10995 251.09 7.15995 263.01C24 312.55 59 354.15 98.61 388.35C121.61 408.24 147.07 426.35 176.13 435.43C204.82 444.43 235.53 444.16 265.53 442.24C311.27 439.33 361.6 430.11 389.73 393.92C401.85 378.32 408.47 359.24 414.73 340.51C431.87 289.41 448.29 236.32 443.51 182.64C435.8 95.9 371.1 14.87 283.71 3.40003Z" fill="#E1E6FC"/>
<path d="M175.22 320.65V318.78H173.34C171.34 318.78 169.34 318.78 167.34 318.78C167.651 313.286 167.125 307.776 165.78 302.44C163.19 291.44 158.51 282.83 151.87 276.98C143.79 269.84 132.44 267.45 123.63 270.98C120.292 272.42 117.243 274.453 114.63 276.98C110.053 281.067 106.553 286.219 104.44 291.98C101.44 300.68 102.44 310.06 103.5 318.43C101.013 318.43 98.5466 318.43 96.0999 318.43H94.2999L94.2399 320.23C94.2399 321.64 94.1299 323.1 94.0699 324.6C93.6399 335.07 93.1599 346.94 96.0699 356.29C99.8599 368.38 108.07 377.71 117.88 381.29C123.01 383.13 128.56 383.44 133.31 383.49H134.67C139.372 383.623 144.065 383.019 148.58 381.7C159.08 378.3 167.78 368.59 171.85 355.75C175.46 344.44 175.33 331.8 175.22 320.65ZM108 293.25C109.906 288.071 113.063 283.444 117.19 279.78C119.477 277.568 122.147 275.789 125.07 274.53C132.6 271.53 142.39 273.62 149.43 279.83C155.43 285.16 159.75 293.07 162.17 303.34C163.451 308.397 163.937 313.623 163.61 318.83C154.07 318.83 144.3 318.74 134.77 318.65C125.7 318.56 116.41 318.47 107.3 318.47C106.26 310.38 105.19 301.29 108 293.25ZM168.31 354.68C164.61 366.37 156.81 375.16 147.46 378.2C142.86 379.69 137.77 379.84 133.39 379.79C129.01 379.74 123.8 379.46 119.19 377.79C110.42 374.64 103.19 366.21 99.6899 355.23C96.9599 346.51 97.4299 334.99 97.8399 324.82C97.8399 323.94 97.9099 323.07 97.9399 322.22C109.94 322.14 122.54 322.22 134.73 322.38C146.92 322.54 159.5 322.62 171.51 322.54C171.58 333 171.5 344.49 168.28 354.68H168.31Z" fill="black"/>
<path d="M134.23 333.84C132.677 333.84 131.161 334.316 129.887 335.205C128.613 336.093 127.643 337.351 127.106 338.809C126.57 340.266 126.494 341.854 126.888 343.356C127.282 344.858 128.127 346.203 129.31 347.21C128.785 349.843 128.573 352.528 128.68 355.21C128.68 356.09 128.68 356.89 128.68 357.52C128.489 359.038 128.689 360.58 129.26 362C129.613 362.776 130.174 363.439 130.879 363.917C131.585 364.395 132.409 364.669 133.26 364.71C133.693 364.71 134.122 364.636 134.53 364.49C137.18 363.49 137.44 360.34 137.53 359.29L138.3 349.74C138.347 349.117 138.331 348.49 138.25 347.87C139.634 346.993 140.696 345.691 141.279 344.16C141.862 342.629 141.934 340.95 141.484 339.375C141.034 337.799 140.086 336.412 138.782 335.42C137.478 334.428 135.888 333.884 134.25 333.87L134.23 333.84ZM134.53 349.45L133.76 359C133.62 360.73 133.25 361 133.26 361C133.121 360.959 132.993 360.889 132.885 360.794C132.776 360.699 132.689 360.582 132.63 360.45C132.36 359.581 132.281 358.663 132.4 357.76C132.4 357.06 132.4 356.18 132.4 355.26C132.4 352.68 132.4 349.15 133.23 347.26L133.84 345.86L134.26 347.37C134.463 348.044 134.554 348.747 134.53 349.45V349.45ZM135.48 345.05L133.89 345.6L132.42 344.81C131.641 344.395 131.029 343.725 130.686 342.912C130.344 342.099 130.292 341.193 130.539 340.345C130.786 339.498 131.317 338.762 132.043 338.261C132.769 337.76 133.646 337.524 134.525 337.593C135.405 337.662 136.234 338.031 136.873 338.64C137.512 339.248 137.922 340.058 138.034 340.933C138.146 341.809 137.953 342.696 137.488 343.445C137.023 344.195 136.314 344.762 135.48 345.05Z" fill="black"/>
<path d="M364.93 273.41C363.93 260.13 362.81 246.41 362.78 233.04C362.78 220.04 363.78 206.74 364.68 193.91V193.79C365.85 177.88 367.07 161.42 366.39 145.15C366.316 141.925 365.958 138.712 365.32 135.55L365.27 134.35H365.04C364.745 133.202 364.371 132.076 363.92 130.98C361.67 125.56 357.5 121.27 353.81 117.47L308.41 70.74C302.41 64.55 296.19 58.16 288.56 53.5C270.89 42.72 249.08 43.5 234.21 44.99C215.54 46.88 196.98 46.42 179.04 45.99C169.79 45.76 159.31 45.5 149.04 45.62C145.18 45.62 140.82 45.73 136.91 47.75C128.14 52.31 126.8 63.64 126.62 73L123 262.58C124.445 262.054 125.925 261.629 127.43 261.31L131 73.09C131.16 64.95 132.2 55.16 139 51.67C142 50.13 145.79 50.09 149.16 50.04C150.98 50.04 152.79 50.04 154.61 50.04C162.89 50.04 171.05 50.24 179.02 50.44C197.08 50.87 215.75 51.33 234.67 49.44C252.14 47.67 265.89 48.78 277.03 52.89C275.616 78.0462 276.244 103.276 278.91 128.33C279.1 130.03 279.4 132.88 281.51 134.71C283.065 135.857 284.938 136.493 286.87 136.53C305.16 138.36 323.77 139.29 342.18 139.29H342.29C348.67 139.29 355.11 139.17 361.49 138.95C361.79 141.09 361.92 143.27 362.01 145.39C362.67 161.39 361.47 177.73 360.3 193.6C359.3 206.53 358.3 219.89 358.39 233.09C358.39 246.64 359.5 260.47 360.54 273.85C362.86 303.48 365.26 334.12 356.13 362.4C354.8 366.53 352.94 371.02 349.32 373.04C346.64 374.53 343.14 374.55 340.06 374.57C282.96 374.97 225.34 373.77 168.55 371.06C167.65 372.55 166.69 373.98 165.69 375.34C216.23 377.8 267.49 379.06 318.24 379.06C325.49 379.06 332.84 379.06 340.1 378.98C343.54 378.98 347.81 378.92 351.47 376.89C356.47 374.13 358.73 368.7 360.32 363.75C369.71 334.6 367.28 303.51 364.93 273.41ZM287.3 132.09C286.278 132.1 285.273 131.834 284.39 131.32C283.65 130.68 283.44 129.24 283.29 127.81C280.704 103.507 280.055 79.0362 281.35 54.63C283.036 55.4223 284.678 56.3035 286.27 57.27C293.42 61.64 299.44 67.83 305.27 73.82L350.66 120.55C354.23 124.23 357.93 128.03 359.86 132.68C360.11 133.28 360.32 133.89 360.51 134.51C336.08 135.322 311.623 134.514 287.3 132.09V132.09Z" fill="black"/>
<path d="M167.72 187.19L167.37 183.46C196.06 180.7 225.72 177.84 255.11 178.01C276.05 178.13 297.24 179.79 317.74 181.39L317.44 185.13C297.02 183.53 275.9 181.88 255.09 181.76C226 181.6 196.33 184.44 167.72 187.19Z" fill="black"/>
<path d="M239.831 234.703L239.687 238.45L310.764 241.181L310.908 237.433L239.831 234.703Z" fill="black"/>
<path d="M260.78 278.94C252.833 278.94 244.903 278.79 236.99 278.49L237.13 274.74C260.282 275.62 283.464 275.21 306.57 273.51L306.85 277.26C291.58 278.38 276.16 278.94 260.78 278.94Z" fill="black"/>
<path d="M263.79 320C256.197 320 248.623 319.83 241.07 319.49L241.24 315.74C262.109 316.672 283.016 316.308 303.84 314.65L304.14 318.39C290.77 319.42 277.27 320 263.79 320Z" fill="black"/>
</g>
<defs>
<clipPath id="clip0_521_5549">
<rect width="444.37" height="443.32" fill="white"/>
</clipPath>
</defs>
</svg>
