<svg xmlns="http://www.w3.org/2000/svg" viewBox="0 0 450 450"><defs><style>.cls-1{fill:#f3d6d8;}.cls-2{fill:none;}</style></defs><g id="Layer_2" data-name="Layer 2"><g id="matitas"><path class="cls-1" d="M326.49,11.07c13.74,2.36,27.75,4.82,40,11.19,25.92,13.43,39.56,41.5,48.79,68.48,14.06,41.12,22,83.92,29.8,126.56,2.95,16,5.9,32.2,4.54,48.39-1.15,13.61-5.32,26.8-7.64,40.27-2.48,14.45-2.85,29.24-6.47,43.47-10.67,41.95-49,73.45-91.15,87.78s-88.1,14.05-132.74,11.33c-37.28-2.27-74.74-6.17-110.48-16.7C89.61,428.43,78,424.22,68.57,417c-15-11.53-23.14-29.56-27.43-47.6s-5.31-36.67-9.15-54.8C22.78,271-2.67,230,.23,185.65,2.62,149,24.3,116.11,48.8,88c20.51-23.53,43.74-45.26,71.14-60.92,33-18.85,71.34-27,109.9-27.08S326.49,11.07,326.49,11.07Z"/><path d="M388.05,144.65c-.55-13-2.41-25.9-12.23-32.62-6.37-4.36-14.46-4.69-21-5l-3.18-.13q-16.73-.67-33.6-1.31c0-.64,0-1.28,0-1.93a13.77,13.77,0,0,0-.56-4.07,6.36,6.36,0,0,0-3.46-4,8.26,8.26,0,0,0-3-.49c-4.87-.1-9.81-.12-14.69-.06a3.16,3.16,0,0,0-1.95.63,3.08,3.08,0,0,0-1.09,2.1,57.9,57.9,0,0,0-.47,6.93c-46.72-1.41-94-1.72-141.19,1.66,0-.91,0-1.82,0-2.73a14.06,14.06,0,0,0-.56-4.07,6.36,6.36,0,0,0-3.46-4,8.28,8.28,0,0,0-3-.49c-4.87-.1-9.81-.12-14.68-.06a3.16,3.16,0,0,0-1.95.63,3.1,3.1,0,0,0-1.09,2.1,66,66,0,0,0-.44,10.76c-11.55,1.17-23.09,2.58-34.6,4.3-8.27,1.23-17.51,3.16-22.5,10.45-3,4.34-3.65,9.52-4.13,14.89-2.14,24-1,46.81.24,71,.17,3.43.35,6.87.51,10.32l4.61,96.69a67.61,67.61,0,0,1-.33,8.08c-.68,8.66-1.45,18.48,6.81,24.6,4.1,3,9.15,3.67,14.39,4.09,25.59,2.07,51.43,2.74,77.16,2.74,24.67,0,49.25-.62,73.43-1.23l2.76-.07c23.87-.6,48-.8,71.37-1,15.16-.12,30.85-.25,46.35-.49,8.44-.13,18.65-1.31,22.74-9.39,1.57-3.1,1.77-6.51,2-9.52C390.61,274.69,390.92,212.73,388.05,144.65Zm-90.4-45c4.4,0,8.85,0,13.24.07a4.51,4.51,0,0,1,1.37.15,2,2,0,0,1,.86,1.17,10.17,10.17,0,0,1,.33,2.79,178.29,178.29,0,0,1-.63,22.35,4,4,0,0,1-.14.89s-.26.36-2.19.36H299.64a4.23,4.23,0,0,1-1.36-.11,3.35,3.35,0,0,1-.19-1.47l0-3.24c0-2.63-.19-5.28-.34-7.85A92,92,0,0,1,297.65,99.69Zm-166.48,0c4.4,0,8.85,0,13.24.07a4.44,4.44,0,0,1,1.36.15,1.92,1.92,0,0,1,.87,1.17,9.89,9.89,0,0,1,.33,2.79,178.29,178.29,0,0,1-.63,22.35,4.37,4.37,0,0,1-.14.89s-.26.36-2.19.36H133.16a4.23,4.23,0,0,1-1.36-.11,3.35,3.35,0,0,1-.19-1.47l-.05-3.24c0-2.64-.19-5.29-.34-7.85A92,92,0,0,1,131.17,99.69Zm-61.49,39c.42-4.74,1-9.28,3.34-12.71,4-5.77,12.08-7.42,19.39-8.51,11.42-1.7,22.78-3.09,34.13-4.26,0,.63.07,1.26.1,1.89.15,2.52.3,5.12.34,7.66l0,3.24c0,1.14.06,3.27,1.63,4.73a6.19,6.19,0,0,0,4.38,1.37h.12l10.86,0c1.27,0,4.66,0,6.17-2.69a6.54,6.54,0,0,0,.71-2.72c.48-5.14.71-10.39.74-15.67,26.55-1.94,53-2.69,79.67-2.69,20.38,0,40.87.44,61.54,1.08.06,1.92.17,3.83.28,5.72.14,2.51.29,5.11.33,7.65l.05,3.24c0,1.14.06,3.27,1.63,4.73a6.2,6.2,0,0,0,4.39,1.37h.11l10.86,0c1.27,0,4.66,0,6.17-2.69a6.39,6.39,0,0,0,.71-2.72c.5-5.38.74-10.88.75-16.41q16.58.61,33.35,1.3l3.19.13c5.92.24,13.28.53,18.57,4.15,8.15,5.59,9.73,17.25,10.23,29,.42,10,.77,19.92,1,29.7l-315.91,2A341.07,341.07,0,0,1,69.68,138.66ZM382.53,333.8c-.16,2.7-.32,5.48-1.47,7.73-3,5.89-11.57,6.77-18.72,6.88-15.49.24-31.16.36-46.32.49-23.37.19-47.53.39-71.44,1l-2.77.07c-49.27,1.25-100.21,2.53-150.1-1.49-4.73-.39-8.9-.89-12-3.21-6.22-4.61-5.62-12.36-5-20.57a70.52,70.52,0,0,0,.33-8.64l-4.6-96.7c-.17-3.45-.34-6.9-.52-10.33-.47-9.46-.94-18.72-1.2-27.91l315.93-2C386.13,233.79,385.43,284.69,382.53,333.8Z"/><path d="M232.37,315.58l-2.29-2.95a141.11,141.11,0,0,0-41.62-36.05l-2.24-1.26c-5.28-2.93-10.73-6-14.62-10.87-4-5.11-6.19-12.27-6-20.17.17-9.2,3.54-17,9.25-21.41,6.12-4.74,15.42-5.75,24.27-2.64,8.54,3,15.48,8.45,20.3,13.16,6.62-14.51,22.84-24.87,39.82-25.06a22.15,22.15,0,0,1,8.65,1.35,19.68,19.68,0,0,1,6.83,4.85c7.57,8,10.1,20.82,6.59,33.44-3.14,11.31-10.16,20.83-17.27,29.44a113.29,113.29,0,0,1-12.18,12,123.47,123.47,0,0,0-10.46,10.11h0a38.68,38.68,0,0,0-7.71,12.52Zm-43.61-93a18.41,18.41,0,0,0-11.43,3.57c-4.71,3.64-7.5,10.29-7.65,18.23-.14,6.95,1.69,13.17,5.15,17.53s8.47,7.09,13.39,9.83l2.27,1.27a145.46,145.46,0,0,1,40.67,34.37,45.74,45.74,0,0,1,7.11-10.53,123.92,123.92,0,0,1,10.81-10.46,109.91,109.91,0,0,0,11.75-11.59c6.82-8.25,13.53-17.35,16.47-27.91,3.74-13.44-.45-24.05-5.61-29.51a15.72,15.72,0,0,0-5.38-3.86,18.28,18.28,0,0,0-7.06-1.05c-16.47.18-32.11,10.83-37.2,25.31l-1.13,3.2-2.32-2.48c-4.46-4.77-11.71-11.14-20.88-14.36A27.4,27.4,0,0,0,188.76,222.56Z"/><rect class="cls-2" width="450" height="450"/></g></g></svg>