<svg xmlns="http://www.w3.org/2000/svg" viewBox="0 0 450 450"><defs><style>.cls-1{fill:#d7cd97;}.cls-2{fill:#ffeae1;}.cls-3{fill:none;}</style></defs><g id="Layer_2" data-name="Layer 2"><g id="matitas"><path class="cls-1" d="M279.71.57c-45.77-3.51-91.3,9.58-133.66,27.26C121.34,38.15,97,50.24,76.54,67.47,18.69,116.08.09,197.56,0,273.1c0,16.2,1.05,33.57,10.94,46.4,5,6.42,11.8,11.2,16.68,17.68,10,13.21,10.3,31.25,17.23,46.27,7.55,16.35,22.45,28.12,38,37.27,59.26,34.95,135.73,38.91,198.29,10.26,13-5.93,25.46-13.21,39.26-16.78,21.39-5.54,44.8-1.89,65.25-10.24,12.67-5.17,23.19-14.63,31.82-25.25,41.07-50.54,39.81-125.12,15.49-185.53-5.24-13-11.47-25.71-19.95-36.89-8.11-10.68-18.24-19.92-24.79-31.63-6.75-12.06-9.28-25.95-13.86-39C356.52,35,304-1.22,250.31.08"/><path class="cls-2" d="M157.16,98.13c-.7,6.13-.36,12.59,2.43,18.09,5.66,11.12,19.22,15.19,31.34,18.16,16.53,4.06,34.62,8,50,.73a37.45,37.45,0,0,0,2.12-66.68C207,48.56,162.92,47.12,157.16,98.13Z"/><path class="cls-2" d="M49.12,266a48.79,48.79,0,0,0,.79,41.14,32.91,32.91,0,0,0,10.21,12.53c6.7,4.71,15.24,5.82,23.42,6.34a220.78,220.78,0,0,0,37.08-.76c13.31-1.4,28.49-5.51,33.85-17.78,5.27-12.08-1.69-25.71-8.46-37-5.52-9.23-11.33-18.78-20.29-24.73C101.17,229.39,61.25,239,49.12,266Z"/><path class="cls-2" d="M295.53,260.71c-.31,13.06,4.08,25.76,8.41,38.15,2.21,6.33,4.46,12.73,8.28,18.32,11.52,16.86,37.17,22.67,56.06,13.7s29.48-30.83,25.8-50.64C386.68,240.44,297.13,194.08,295.53,260.71Z"/><path d="M104,310.8c-17.27,0-31.32-13.5-31.32-30.09s14-30.1,31.32-30.1,31.32,13.5,31.32,30.1S121.28,310.8,104,310.8Zm0-56.33c-15.14,0-27.46,11.77-27.46,26.24S88.87,306.94,104,306.94s27.46-11.77,27.46-26.23S119.15,254.47,104,254.47Z"/><rect x="64.91" y="241.32" width="3.86" height="13.57" transform="translate(-164.62 136.52) rotate(-49.18)"/><rect x="109.82" y="235.04" width="14.09" height="3.86" transform="matrix(0.31, -0.95, 0.95, 0.31, -144.72, 274.22)"/><rect x="140.14" y="286.82" width="12.3" height="3.86"/><rect x="113.83" y="318.93" width="3.86" height="10.8" transform="matrix(0.98, -0.2, 0.2, 0.98, -63.5, 30.3)"/><rect x="48.92" y="295.31" width="18.66" height="3.86" transform="translate(-112.04 46.75) rotate(-23.12)"/><path d="M209.07,127.44c-17.27,0-31.32-13.5-31.32-30.09s14.05-30.1,31.32-30.1,31.32,13.5,31.32,30.1S226.34,127.44,209.07,127.44Zm0-56.33c-15.14,0-27.46,11.77-27.46,26.24s12.32,26.23,27.46,26.23,27.46-11.77,27.46-26.23S224.21,71.11,209.07,71.11Z"/><rect x="155.52" y="75.25" width="3.86" height="17.1" transform="translate(41.15 219.04) rotate(-77.33)"/><rect x="176.47" y="129.11" width="12.74" height="3.86" transform="translate(-21.61 224.87) rotate(-60.28)"/><rect x="240.16" y="124.43" width="3.86" height="13.23" transform="translate(-32.2 154.32) rotate(-33.28)"/><rect x="245.47" y="81.88" width="14.54" height="3.86" transform="translate(-13.07 68.15) rotate(-14.97)"/><rect x="207.14" y="41" width="3.87" height="16.36"/><path d="M345.35,307.68c-17.27,0-31.32-13.5-31.32-30.1s14.05-30.09,31.32-30.09,31.33,13.5,31.33,30.09S362.62,307.68,345.35,307.68Zm0-56.33c-15.14,0-27.46,11.77-27.46,26.23s12.32,26.24,27.46,26.24,27.46-11.77,27.46-26.24S360.49,251.35,345.35,251.35Z"/><rect x="309.74" y="239.24" width="3.86" height="15.39" transform="translate(-84.72 215.41) rotate(-33.84)"/><rect x="298.35" y="290.36" width="13.57" height="3.86" transform="translate(-67.61 93.28) rotate(-15.67)"/><rect x="343.42" y="315.92" width="3.87" height="14.39"/><rect x="384.94" y="284.6" width="3.86" height="15.37" transform="translate(10.87 598.43) rotate(-76.22)"/><rect x="364.63" y="238.46" width="14.34" height="3.87" transform="translate(0.34 481.32) rotate(-65.85)"/><path d="M366.32,202.33c-7.69-46.58-40.89-88.27-84.58-106.19l1.47-3.57c44.9,18.42,79,61.25,86.92,109.13Z"/><path d="M216,377.63c-31,0-62.17-11.28-84.82-32.68l2.66-2.8c35.6,33.63,92.89,41.45,136.22,18.6,12.25-6.45,20.33-13.79,24.72-22.42l3.45,1.75c-4.77,9.37-13.39,17.25-26.36,24.09A119.91,119.91,0,0,1,216,377.63Z"/><path d="M73.85,212.4c-.84-17.74,4.51-37.07,15.47-55.9C99,139.94,111.69,125.41,125,110.76l2.86,2.59c-13.14,14.5-25.72,28.85-35.18,45.1-10.58,18.18-15.75,36.77-15,53.77Z"/><polygon points="376.7 181.45 350.16 188.56 369.59 207.98 376.7 181.45"/><polygon points="155.33 345.34 128.44 339.7 137 365.8 155.33 345.34"/><polygon points="134.73 107.08 107.63 111.53 125.04 132.77 134.73 107.08"/><rect class="cls-3" width="450" height="450"/></g></g></svg>