<svg xmlns="http://www.w3.org/2000/svg" viewBox="0 0 595.65 261.93"><defs><style>.cls-1{fill:none;}.cls-2{fill:#f6ecfb;}.cls-3{fill:#b985d1;}.cls-4{fill:#eb5ea0;}.cls-5{fill:#304f25;}</style></defs><g id="Layer_2" data-name="Layer 2"><g id="matitas"><rect class="cls-1" width="595.65" height="261.93"/><path class="cls-2" d="M327.05,145.24a30.77,30.77,0,0,1-1.26,4.76c-1.79,4.89-5.41,9.79-10.27,14.8s-10.95,10.12-14.95,17.26L296,184.24c-5.7-9.72-6.47-16.84-7.26-23.06s-1.59-11.56-1.38-15.17,1.43-5.48,2-8.23a23.4,23.4,0,0,0-.46-10.38,35.17,35.17,0,0,0-1.71-5.07c7.82-7.44,7.75-11.43,8.42-14.88a25.9,25.9,0,0,1,4.38-9.8c2.31-3.43,5.52-7.38,7.73-10.56s3.42-5.58,4.67-6.72,2.51-1,3.4.23,1.39,3.64,2.22,6.67,2,6.69,3.24,10.34a98.1,98.1,0,0,1,3.32,10.83,34.52,34.52,0,0,1,.55,10.65c-.37,3.67-1.27,7.56-.43,11.53S328.11,138.66,327.05,145.24Z"/><path class="cls-3" d="M295.56,185.54l-.47-.79c-5.64-9.64-6.53-16.71-7.32-22.94l-.39-3.08c-.67-5.14-1.24-9.58-1.06-12.77a20,20,0,0,1,1.25-5.69,24,24,0,0,0,.8-2.7,22.52,22.52,0,0,0-.45-9.93,33.53,33.53,0,0,0-1.66-4.92l-.27-.64.5-.47c6.78-6.46,7.4-10.07,7.94-13.25.06-.38.12-.74.19-1.1a26.74,26.74,0,0,1,4.53-10.17c1.29-1.92,2.85-4,4.36-6,1.24-1.64,2.4-3.18,3.38-4.59.83-1.19,1.51-2.27,2.12-3.22a19.39,19.39,0,0,1,2.69-3.67,3.38,3.38,0,0,1,2.67-1A3.14,3.14,0,0,1,316.59,80a17.78,17.78,0,0,1,1.94,5.35c.14.52.28,1.07.44,1.63.78,2.84,1.89,6.4,3.22,10.29l.52,1.53a80,80,0,0,1,2.82,9.41,35.18,35.18,0,0,1,.57,11c-.08.83-.19,1.67-.3,2.52a25.71,25.71,0,0,0-.14,8.71,29.92,29.92,0,0,0,1,3.25c1,3.16,2.23,6.73,1.42,11.73v0a31.9,31.9,0,0,1-1.3,4.91C325,155,321.59,160,316.24,165.49q-1.56,1.6-3.26,3.25c-4.16,4.09-8.46,8.32-11.54,13.81l-.15.28Zm-7.19-63a35.72,35.72,0,0,1,1.49,4.57,24.48,24.48,0,0,1,.46,10.84,25.36,25.36,0,0,1-.85,2.92,18,18,0,0,0-1.15,5.16c-.17,3,.39,7.36,1,12.4l.4,3.09c.74,5.87,1.57,12.5,6.6,21.39l3.5-1.66c3.2-5.61,7.73-10,11.72-14,1.11-1.09,2.2-2.15,3.23-3.21,5.15-5.31,8.43-10,10-14.45a28.51,28.51,0,0,0,1.21-4.58c.73-4.52-.37-7.84-1.34-10.77a30.58,30.58,0,0,1-1-3.47,27,27,0,0,1,.11-9.38c.1-.83.21-1.65.29-2.46a33.42,33.42,0,0,0-.53-10.35,79.48,79.48,0,0,0-2.76-9.17l-.53-1.54C319,94,317.83,90.41,317,87.53c-.16-.57-.3-1.12-.44-1.64A17.24,17.24,0,0,0,315,81.18a1.31,1.31,0,0,0-.8-.6,1.62,1.62,0,0,0-1.11.52,18.69,18.69,0,0,0-2.35,3.27c-.62,1-1.32,2.07-2.17,3.3-1,1.43-2.18,3-3.42,4.64-1.49,2-3,4-4.3,5.9a24.7,24.7,0,0,0-4.23,9.43c-.06.35-.12.69-.18,1C295.85,111.93,295.17,116,288.37,122.58Z"/><path class="cls-2" d="M300.57,182.06c4-7.14,10.09-12.26,14.95-17.26s8.48-9.91,10.27-14.8,1.73-9.81,2.91-13.86,3.58-7.24,5.45-9.72,3.2-4.26,6.56-5.87,8.75-3.08,13.82-8.87c.52,6.18-.43,8.65-.45,11.42s.89,5.86.59,9.89-1.8,9-4.51,14.48a77.13,77.13,0,0,1-11.39,16.83,57.93,57.93,0,0,1-17.27,13.42C314.63,181.16,306.54,183.35,300.57,182.06Z"/><path class="cls-3" d="M304.28,183.42a18.56,18.56,0,0,1-3.92-.38l-1.32-.29.66-1.18c3.21-5.74,7.82-10.27,11.88-14.26,1.11-1.09,2.2-2.15,3.23-3.21,5.15-5.31,8.43-10,10-14.45a40.28,40.28,0,0,0,1.79-8.1,43.46,43.46,0,0,1,1.1-5.69c1.22-4.22,3.76-7.59,5.61-10s3.35-4.45,6.93-6.17c.63-.31,1.34-.61,2.1-.93,3.31-1.41,7.42-3.15,11.4-7.7l1.55-1.77.2,2.35a37.69,37.69,0,0,1-.22,8.8,22.53,22.53,0,0,0-.23,2.71,26.94,26.94,0,0,0,.28,3.42,32.42,32.42,0,0,1,.31,6.53c-.31,4.24-1.91,9.38-4.61,14.86a78.36,78.36,0,0,1-11.55,17,58.26,58.26,0,0,1-17.57,13.66C315.71,181.74,309.4,183.42,304.28,183.42Zm-2.11-2.11c5.06.59,12-1,18.88-4.48a56.47,56.47,0,0,0,17-13.2A76.07,76.07,0,0,0,349.26,147a40.1,40.1,0,0,0,4.42-14.12,29.64,29.64,0,0,0-.31-6.14,29.81,29.81,0,0,1-.29-3.68,22.87,22.87,0,0,1,.25-2.94,36.7,36.7,0,0,0,.34-6.11,31.75,31.75,0,0,1-10.5,6.52c-.74.31-1.41.6-2,.89C338,123,336.79,124.57,335,127s-4.17,5.53-5.29,9.4a39.36,39.36,0,0,0-1,5.43,42.44,42.44,0,0,1-1.89,8.49C325,155,321.59,160,316.24,165.49q-1.56,1.6-3.26,3.25C309.14,172.52,305.18,176.41,302.17,181.31Z"/><path class="cls-2" d="M296,184.24c-5.7-9.72-6.47-16.84-7.26-23.06s-1.59-11.56-1.38-15.17,1.43-5.48,2-8.23a23.4,23.4,0,0,0-.46-10.38,31.76,31.76,0,0,0-5.13-11.1c-2.15-2.74-4.5-3.86-7-5.64a29.28,29.28,0,0,1-6.67-6.28c-1.45-2.08-1.66-3.82-3.66-6.23s-5.81-5.49-10.26-3.57c2.79,17.85,2,32.58,4.1,44.76a63.61,63.61,0,0,0,12.83,29.11C278.87,175.75,285.5,180.69,296,184.24Z"/><path class="cls-3" d="M298.18,186.06l-2.55-.87c-10.11-3.44-17.09-8.26-23.33-16.11a64.42,64.42,0,0,1-13-29.57,170.49,170.49,0,0,1-1.72-19,252.65,252.65,0,0,0-2.39-25.79l-.12-.77.71-.3c5.46-2.35,9.81,1.91,11.43,3.85a16.77,16.77,0,0,1,2.39,3.91,15.79,15.79,0,0,0,1.32,2.39,28.21,28.21,0,0,0,6.42,6c.58.41,1.16.79,1.72,1.16a20.65,20.65,0,0,1,5.51,4.68,32.72,32.72,0,0,1,5.31,11.47,24.48,24.48,0,0,1,.46,10.84,25.36,25.36,0,0,1-.85,2.92,18,18,0,0,0-1.15,5.16c-.17,3,.39,7.36,1,12.4l.4,3.09c.76,6,1.62,12.9,7.06,22.18ZM257.27,95.23c1.39,9.22,1.87,17.68,2.28,25.18a172.69,172.69,0,0,0,1.7,18.77,62.41,62.41,0,0,0,12.62,28.65,44.29,44.29,0,0,0,19.91,14.56c-4.48-8.45-5.29-14.87-6-20.58l-.39-3.08c-.67-5.14-1.24-9.58-1.06-12.77a20,20,0,0,1,1.25-5.69,24,24,0,0,0,.8-2.7,22.52,22.52,0,0,0-.45-9.93A30.91,30.91,0,0,0,283,116.92a18.87,18.87,0,0,0-5-4.25c-.58-.38-1.17-.77-1.77-1.19a30.69,30.69,0,0,1-6.91-6.53,16.9,16.9,0,0,1-1.48-2.67,15.15,15.15,0,0,0-2.13-3.49C264.4,97.29,261.18,94.08,257.27,95.23Z"/><path class="cls-2" d="M287.18,122.33c7.82-7.44,7.75-11.43,8.42-14.88a23.94,23.94,0,0,1,3.4-8.27c-5.71-6.5-7.64-10.48-9-12.05s-2.24-.72-3.08.47-1.65,2.74-2.86,4.72-2.83,4.4-3.33,6.83.12,4.87-4.12,11.38l.18.13c2.51,1.78,4.86,2.9,7,5.64A26.63,26.63,0,0,1,287.18,122.33Z"/><path class="cls-3" d="M286.83,124.05l-.57-1.33a26.39,26.39,0,0,0-3.28-5.8,18.87,18.87,0,0,0-5-4.25c-.58-.38-1.17-.77-1.77-1.19l-1-.69.52-.8c3.25-5,3.53-7.46,3.75-9.44.06-.55.12-1.06.23-1.6a21.29,21.29,0,0,1,3.08-6.54l.37-.61c.47-.77.88-1.46,1.25-2.1.6-1,1.12-1.91,1.65-2.67a3.34,3.34,0,0,1,2.37-1.75,2.85,2.85,0,0,1,2.28,1.19A25.46,25.46,0,0,1,292.5,89a81.26,81.26,0,0,0,7.25,9.55l.49.55-.39.63a23.09,23.09,0,0,0-3.27,7.94c-.06.35-.12.69-.18,1-.57,3.32-1.27,7.45-8.53,14.37Zm-8.9-13.79L279,111a20.65,20.65,0,0,1,5.51,4.68,26.32,26.32,0,0,1,3,4.94c5.83-5.85,6.4-9.24,6.92-12.26.06-.38.12-.74.19-1.1a24.4,24.4,0,0,1,3.14-8,83,83,0,0,1-6.93-9.2,23.36,23.36,0,0,0-1.62-2.28c-.45-.51-.66-.52-.67-.52h0s-.25,0-.84.89-1,1.55-1.56,2.54c-.38.65-.79,1.36-1.27,2.13l-.39.63a19.72,19.72,0,0,0-2.81,5.88c-.09.45-.15.92-.2,1.42C281.24,102.85,281,105.41,277.93,110.26Z"/><path class="cls-2" d="M324.46,108c0,.15.06.3.1.45a34.52,34.52,0,0,1,.55,10.65c-.37,3.67-1.27,7.56-.43,11.53s3.43,8,2.37,14.62c.62-3.24.85-6.36,1.65-9.1,1.17-4,3.58-7.24,5.45-9.72s3.2-4.26,6.56-5.87c.61-.29,1.29-.58,2-.89,1.42-6,1.06-6.82.5-8.11a18.6,18.6,0,0,1-1.62-5.71c-.32-2.7-.21-6.37-1.77-6.93-4.91.42-6.59,2.73-8.72,4.17S326.41,105.11,324.46,108Z"/><path class="cls-3" d="M328,145.43l-2-.35c.73-4.52-.37-7.84-1.34-10.78a30.58,30.58,0,0,1-1-3.47,27,27,0,0,1,.11-9.38c.1-.83.21-1.65.29-2.46a33.42,33.42,0,0,0-.53-10.35l-.19-.85.24-.36a12.39,12.39,0,0,1,5.06-4.1,18.67,18.67,0,0,0,1.87-1.08c.43-.28.84-.62,1.28-1a13.14,13.14,0,0,1,7.92-3.37H340l.21.07c1.84.66,2,3.26,2.26,6,.05.6.09,1.2.16,1.75a17.46,17.46,0,0,0,1.55,5.43c.69,1.6,1,2.72-.45,8.74l-.12.49-.46.2c-.71.3-1.38.58-2,.87C338,123,336.79,124.57,335,127s-4.17,5.53-5.29,9.4a39.5,39.5,0,0,0-1,5.42C328.44,143,328.26,144.21,328,145.43Zm-2.5-37.22v0a35.18,35.18,0,0,1,.57,11c-.08.83-.19,1.67-.3,2.52a25.71,25.71,0,0,0-.14,8.71,29.92,29.92,0,0,0,1,3.25c.31.94.63,1.91.91,3,.06-.25.13-.51.21-.76,1.22-4.22,3.76-7.59,5.61-10s3.35-4.45,6.93-6.17c.49-.24,1-.47,1.59-.71,1.21-5.21.91-5.93.45-7a19.6,19.6,0,0,1-1.71-6c-.07-.57-.11-1.2-.16-1.82-.11-1.32-.29-3.68-.82-4.19a11,11,0,0,0-6.53,2.9c-.46.36-.93.74-1.42,1.07a20.61,20.61,0,0,1-2.06,1.19A10.79,10.79,0,0,0,325.53,108.21Z"/><circle class="cls-4" cx="390.37" cy="42.04" r="7.1"/><circle class="cls-4" cx="361.18" cy="49.13" r="7.1"/><circle class="cls-4" cx="388.14" cy="65.55" r="7.1"/><circle class="cls-4" cx="486.08" cy="29.21" r="7.1"/><circle class="cls-4" cx="458.98" cy="16.23" r="7.1"/><circle class="cls-4" cx="459.48" cy="46" r="7.1"/><path class="cls-5" d="M595.34,252.44C589,218.08,576.26,182,552.48,156.37c0,0-6.74-5.66-9.4-7.39-4.79-3.12-9-7-13.59-10.42-7.85-5.9-16.62-10.45-25.34-15a97,97,0,0,0-11.09-5.16c-5.73-2.1-11.8-3.09-17.83-4a142.23,142.23,0,0,0-18.51-1.86c-14.24-.26-28.36,3.31-41.45,8.92-25,10.69-47.42,30-56.34,55.72l.93.18c-7.09-.66-14,4-17.16,10.43s-2.79,14.11-.29,20.78a14.9,14.9,0,0,0,4.76,7,19,19,0,0,0,5.05,2.32c11.45,3.95,32.94,11.86,37.31,13.09,7,2,27.2,6.86,42.8,8,53.24,3.81,103.61,7.14,155.23,20.68,2.2.58,4.79,1.11,6.55-.33S595.79,254.88,595.34,252.44ZM382.08,199.69a42.52,42.52,0,0,1-4.2,13.46,5.32,5.32,0,0,1-3-2.11l-6.49-7.4a25.25,25.25,0,0,1-4.95-7.18c-1.26-3.24-1.14-6.83-1-10.31a6.33,6.33,0,0,1,.8-3.41c1.28-1.84,4-1.79,6.22-1.54l-1.83-2a14.35,14.35,0,0,1,11.68,6.92A21.28,21.28,0,0,1,382.08,199.69Zm2.07-30.93a5.88,5.88,0,0,1-3.7-6.42l.19-.41c-1-2.72,1.47-5.42,3.83-7.12A72.34,72.34,0,0,1,410.58,143a86.49,86.49,0,0,0,8.75-2.13c3.46-1.19,6.66-3.09,10.18-4.14a206.89,206.89,0,0,1-36,29.49C390.71,168.05,387.33,169.87,384.15,168.76Zm74,52.78c-1.07,2.14-4.1,2.06-6.43,1.58-8.81-1.8-17.45-4.91-24.84-10s-13.47-12.37-16.27-20.91a13.8,13.8,0,0,1-.8-6.56,6.28,6.28,0,0,1,3.92-5l-.4,1.94c7.85-2.76,16.79,0,23.44,4.94s11.47,12,16.17,18.84c2.72,4,5.54,8.27,5.59,13.09A4.54,4.54,0,0,1,458.19,221.54Zm27.58-17.87c-1.95-1.77-4-3.66-4.79-6.17s0-5.75,2.49-6.68l-.07,0,.09,0h0c13.76,5.66,28.42,12.08,36.13,24.8a35.32,35.32,0,0,1,5,15.46C509.73,225.31,497.55,214.41,485.77,203.67ZM540,161.72c-1.56,4.71-7.54,5.93-12.48,6.37l-34.37,3.07a115.37,115.37,0,0,1-12.73.67c-16.9-.38-34.13-8.15-50.19-2.87l-.92-.78c-.45-6.87,4.22-13.28,10.11-16.86s12.85-4.86,19.64-6c12.08-2,24.27-3.8,36.52-3.68s24.63,2.16,35.67,7.46a19.91,19.91,0,0,1,6.85,4.79C539.91,156.05,540.9,159.06,540,161.72Z"/><path class="cls-5" d="M184.64,179c-10-3.09-20-6.2-30.41-7s-21.3.8-30,6.56-15.42,13.62-14.15,24l-.11,2.13c-.51,16,9.47,31.39,23.5,39.08s31.4,8.09,46.51,2.85,28-15.75,37.94-28.32c7.8-9.9,13.95-21.21,23.15-29.82C222,190.44,203,184.71,184.64,179Zm-59.22,13.54a28.46,28.46,0,0,1,4.89-6.18,10.68,10.68,0,0,1,7.14-2.95.75.75,0,0,1,.57.2.8.8,0,0,1,.09.46,18.25,18.25,0,0,1-12.55,16.36l-1.94.51C122.17,198.32,123.79,195.09,125.42,192.56Zm-6.65,24.38c-.56-3.35-1-6.73-1.3-10.11l.17-.75q1.48,2.35,3,4.72a20.4,20.4,0,0,1,2.75,5.6,6.9,6.9,0,0,1-1,6C120.08,222,119.15,219.25,118.77,216.94ZM126,229.08a4.37,4.37,0,0,1,6.09-3.71,3.36,3.36,0,0,1,1.67,1.94,3.14,3.14,0,0,1-2.18,3.74,3.8,3.8,0,0,1-4.13-1.76ZM164.26,227c2.23,2,4.54,4.23,5.46,7.11s-.16,6.63-3,7.59c-1.79.6-3.73,0-5.52-.6a36.8,36.8,0,0,1-5.86-2.36,35.93,35.93,0,0,1-5.48-3.95c-3.6-3-7.23-6-10-9.74s-4.59-8.4-4.1-13l0-.28c4.12-1.16,8.61-.14,12.38,1.87s7,4.94,10.12,7.84Zm25.37-9.3c1.76,1.54,3.5,4,2.38,6-.89,1.62-3,2-4.89,2.05-2.51.15-5,.23-7.56.26-3.46,0-7.1-.09-10.09-1.83-4-2.32-5.89-6.92-7.56-11.2l-1.4-.32a6.28,6.28,0,0,1,4.55-4.09,14,14,0,0,1,6.35.11A39.35,39.35,0,0,1,189.63,217.69Zm-29.9-17.08a6.79,6.79,0,0,1-3.33,1.49,17.42,17.42,0,0,1-11.74-1.74l-1.24-.73a118.19,118.19,0,0,1,11.72-12.38c2.81-2.58,6.66-5.18,10.15-3.63a1.31,1.31,0,0,1,.84.8,1.46,1.46,0,0,1-.1.82q-2,6.22-4.45,12.27A8.4,8.4,0,0,1,159.73,200.61Zm41.41-6.51-12.9,5.35c-2.87,1.19-5.82,2.39-8.93,2.5a6.22,6.22,0,0,1-4.07-1,3.14,3.14,0,0,1-1-3.8l0,.31a53.92,53.92,0,0,1,23.44-4.49C198.87,193,200.3,193.12,201.14,194.1Z"/><path class="cls-5" d="M85.36,109.76c13.17,14.77,26.47,29.68,42.54,41.21s35.41,19.57,55.17,18.73,38.41-7,46.49-25.09l2.26-3.37c16.49-25.49,15.36-60.3.09-86.53S188.8,10.78,159.1,4.5s-61-1.87-89.4,8.86C47.32,21.81,26.24,34.16,2.85,39.15,35.87,54.62,61.1,82.54,85.36,109.76Zm109.53,36c-4.5,2.21-9.09,4.35-14,5.26s-10.27.47-14.49-2.21a1,1,0,0,1-.43-1.71,34.62,34.62,0,0,1,36.43-14.3l3.65,1.07C205.81,139.6,200,143.25,194.89,145.77Zm34.69-33.11q-3.57,9-7.8,17.71l-1,1c-.06-3.52-.11-7-.17-10.55-.07-4-.12-8,1-11.8s3.68-7.39,7.4-8.78C232.45,103.09,231.22,108.54,229.58,112.66Zm.17-26.81c-2.75,4.68-10.74,4.72-13.54.07a6.4,6.4,0,0,1-.83-4.8,6,6,0,0,1,7.22-3.94,7.22,7.22,0,0,1,5,6.91ZM165.49,51.74c-1.62-5.5-3.24-11.31-1.91-16.89s6.76-10.62,12.36-9.38c3.49.78,6.06,3.67,8.38,6.4a69,69,0,0,1,7.22,9.57,68.3,68.3,0,0,1,5,11.8c3,8.34,5.9,16.8,6.69,25.61s-.77,18.15-6.1,25.21l-.23.49c-7.83-2.16-14.12-8.22-18.29-15.18s-6.49-14.86-8.77-22.65ZM115.13,42c-1.34-4.22-1.8-9.86,2-12.09,3-1.78,6.85-.2,10,1.44q6.35,3.35,12.54,7c5.66,3.34,11.45,7.1,14.61,12.87,4.18,7.65,2.81,17,1.32,25.61l1.95,1.89c-2.93,2.8-7.51,3.32-11.4,2.19s-7.22-3.67-10.21-6.41A74.78,74.78,0,0,1,115.13,42ZM147,99.06a13,13,0,0,1,6.87.85,33,33,0,0,1,17.37,14.33l1.31,2.4a224.48,224.48,0,0,1-31.19,8.65c-7.09,1.43-15.9,1.88-20.05-4.06a2.55,2.55,0,0,1-.59-2.12,2.84,2.84,0,0,1,1-1.23Q131,109.71,141,102.3A15.86,15.86,0,0,1,147,99.06Zm-73.69-30,26.2,4c5.83.88,11.82,1.81,17,4.68,2.37,1.33,4.61,3.16,5.59,5.69s.31,5.84-2,7.2l.39-.46a102.45,102.45,0,0,1-42.5-15.66C75.89,73.15,73.72,71.48,73.32,69.08Z"/></g></g></svg>