<svg xmlns="http://www.w3.org/2000/svg" viewBox="0 0 595.91 275.7"><defs><style>.cls-1{fill:#f6c651;}.cls-2{fill:#304f25;}.cls-3{fill:#7f7e35;}.cls-4{fill:#fff;}.cls-5{fill:none;}</style></defs><g id="Layer_2" data-name="Layer 2"><g id="drawing"><path class="cls-1" d="M355.09,77.78a16.74,16.74,0,0,0,6.47,13.35,7.73,7.73,0,0,0,1.9,1.12,9.75,9.75,0,0,0,1.94.44c15.24,2.24,30.67-1.74,45.3-6.56a42.1,42.1,0,0,0,9.71-4.19,15.27,15.27,0,0,0,6.61-8c.91-2.92.62-6.07.24-9.11a12.74,12.74,0,0,0-.93-3.87c-1.12-2.35-3.53-3.81-5.94-4.79-9.94-4-21.18-2-31.68.24-3.61.75-7.22,1.52-10.76,2.56a72.07,72.07,0,0,0-16.5,7.2C357.23,68.67,355.17,72.77,355.09,77.78Z"/><path d="M364.44,73.06a1.77,1.77,0,1,0,2.1,1.36A1.77,1.77,0,0,0,364.44,73.06Z"/><path d="M433.71,60.92a15.27,15.27,0,0,1-8.38-1.74c-6.11-7.73-18.77-6.88-32.27-4.31l.06-.06c6.44-7.79,6.54-26.67,3.77-36.24A18.52,18.52,0,0,0,393.16,11c-2.06-2.22-4.75-2.89-7.05-1.75l0,0c-2.93,1.48-4.64,5.54-5.27,8.85a42,42,0,0,0-.21,10.9c.13,1.69.51,6,1.27,10.81-2.94-7.2-7.63-14.31-11.66-18.31a18.6,18.6,0,0,0-6.93-4.77c-2.88-.94-5.57-.2-7,1.94-1.84,2.71-1.37,7.09-.3,10.29a41.43,41.43,0,0,0,5.11,9.63c2,3,10.95,16.21,17.31,19.56-14.28,4-27.05,10.45-24.3,23.3C355.68,89,360.4,93.08,368.52,94c6.81.82,15.5-.58,26.46-2.92,9.89-2.12,17.4-4.07,23-6.88.8-.4,1.56-.82,2.29-1.25,6.3-3.77,9.05-8.74,8.38-15.15a13.29,13.29,0,0,1,1.63-2.25c1.23-1.4,2.65-2.64,3.79-4.12a.43.43,0,0,0,.13-.35C434.2,60.92,433.92,60.9,433.71,60.92ZM412.85,69c.89,4.15.27,12-1.39,15.84q-2.34.8-4.83,1.5A80.19,80.19,0,0,0,406,70.48c-1.11-5.16-3.43-11.54-6.54-14.69q3.27-.47,6.2-.65C408.69,56.48,411.84,64.28,412.85,69ZM382.52,28.92a39.89,39.89,0,0,1,.19-10.41c.68-3.58,2.34-6.52,4.24-7.48h0c1.52-.76,3.3-.26,4.77,1.33A16.66,16.66,0,0,1,395,19.1c2.59,9,2.54,27.28-3.41,34.48-.91,1.1-1.7,1.55-2.36,1.34C386.1,53.92,383.43,40.77,382.52,28.92Zm-24.73-.51c-1.15-3.47-1.13-6.84.06-8.6,1-1.42,2.77-1.86,4.83-1.18a16.7,16.7,0,0,1,6.17,4.3c6.61,6.57,15.48,22.6,13.78,31.78-.26,1.41-.74,2.19-1.41,2.33-3.26.66-12-9.53-18.54-19.45A40.06,40.06,0,0,1,357.79,28.41Zm26.73,26.66a16.29,16.29,0,0,0,.23-3.47A11.49,11.49,0,0,0,387.44,56c-1.13.25-2.28.5-3.42.77A8.06,8.06,0,0,0,384.52,55.07ZM356,81.11c-1.28-6,1.11-10.76,7.29-14.7a34.52,34.52,0,0,1,3.28-1.84,75.19,75.19,0,0,1,14.54-5.08C384,61.7,387,69.55,388,74.4a40.57,40.57,0,0,1-.76,16.3c-7.39,1.37-13.52,2-18.52,1.43C361.45,91.26,357.39,87.76,356,81.11Zm37.68,8.32a84.73,84.73,0,0,0-.74-16.23c-1.12-5.23-3.44-11.7-6.51-15l1.46-.32c2.33-.5,4.56-.95,6.71-1.33a3,3,0,0,1-.92.24c3.08,1.44,6.36,9.81,7.44,14.86a38.1,38.1,0,0,1-1,16.33c-1.86.44-3.72.84-5.53,1.23Zm25.68-8.1c-.44.27-.91.52-1.39.78a57.9,57.9,0,0,0-.2-14.29c-1-4.77-3-9.82-6-12.68,7.84.58,12.94,3.7,14.74,10.89C427.9,72.71,425.63,77.57,419.33,81.33Z"/></g><g id="matitas"><path class="cls-2" d="M248.59,119.44c.76-4.16,3.56-10.39,5.37-16a45.8,45.8,0,0,0,2.45-15.89,32.74,32.74,0,0,0-4.17-15.4A38.52,38.52,0,0,0,241.06,60c-3.82-2.52-6.94-3-8.84-2.43s-2.55,2-2.46,5.2,1,8,1.73,13.38,1.48,11.31,2.19,16,1.4,8.13.18,10.76-4.38,4.43-6.9,4.88-4.41-.46-5.42-2.44-1.16-5-1.24-9-.13-8.92-.18-13.6-.13-9.13-1.29-13.69a47.45,47.45,0,0,0-6-13.32,50.44,50.44,0,0,0-9.47-11,99.38,99.38,0,0,0-12.36-9,41.1,41.1,0,0,0-8.31-4.16A44.32,44.32,0,0,0,176.79,30c-1.35-.27-1.83-.29-2,0s0,.85.57,2.22a67.6,67.6,0,0,0,3.48,6.73,85.52,85.52,0,0,1,6.46,12.52,97.93,97.93,0,0,1,4.47,17.08c1,5.56,1.58,10.37,2.13,14.76s1.06,8.37.47,11.63-2.27,5.81-4.16,6.82-3.95.51-6-.87a14.18,14.18,0,0,1-5.46-7.25c-1.32-3.63-1.88-8.67-2.32-12.56s-.75-6.62-1.38-12.26-1.6-14.16-3.66-20.67a36.18,36.18,0,0,0-8.92-14.81A64.71,64.71,0,0,0,148,23.5a69.7,69.7,0,0,0-14.35-7,38.1,38.1,0,0,0-13.26-1.95c-4.09.12-7.85.89-9.81,2.21s-2.12,3.17,0,5.69,6.59,5.68,10.64,9.41A76.34,76.34,0,0,1,132,44.22c3.06,4.39,5.53,8.87,7.92,13.13s4.72,8.3,6.12,12.6,1.91,8.88,1.15,12a8.18,8.18,0,0,1-5.29,5.89,11.38,11.38,0,0,1-8,.47c-2.45-.91-4.31-3.1-5.78-6.74s-2.55-8.73-4.55-13.41-4.92-9-8.16-13.69a130.25,130.25,0,0,0-10.7-14.2,47.31,47.31,0,0,0-12.59-10,31.11,31.11,0,0,0-13.74-3.92A26,26,0,0,0,66.5,28.93c-2.81,1.46-4,3.17-1.73,6.65s7.86,8.75,12.35,13.5,7.85,9,11.18,12.39,6.66,5.92,9.45,8.65,5.07,5.64,6.06,9.18.69,7.69-1.2,10.14-5.4,3.19-8.42,2.58-5.56-2.57-8-5.45a81.3,81.3,0,0,1-7.51-10.9c-2.56-4.23-5.22-8.9-8.19-12.06s-6.25-4.83-10.88-6.28S49,54.63,43.81,55.79s-9.42,4.72-13.21,7.77S23.52,69.16,20,70.45s-7.22,1.34-10.26,1.92-5.4,1.69-7,3.86S.37,81.6,1,86.93s2.79,12.78,3.66,19.71.48,13.34,1.06,18a17.86,17.86,0,0,0,5,10.76,68.75,68.75,0,0,0,10.69,9.1,49.81,49.81,0,0,0,11,6,38,38,0,0,0,14.15,3c5.09-.07,10.3-1.61,15.34-2.87a126.14,126.14,0,0,1,13.92-2.75,63.36,63.36,0,0,1,9.93-.46c2.84.07,5.45.24,6.67,1.33s1.07,3.11-.23,5.34a14.85,14.85,0,0,1-7.38,6.12c-3.68,1.46-8.6,2-14.39,2.27s-12.45.4-18.88,1.4-12.64,2.89-15.63,5.58-2.76,6.19-2,9.27,2.17,5.73,6.12,8.61,10.45,6,16.2,6.64,10.74-1.11,17.44-3.68,15.1-5.93,22.21-8a56.54,56.54,0,0,1,18.67-2.65c5.72.24,11.34,1.52,13.7,3.13s1.44,3.52-.09,5.4-3.68,3.71-8.53,4.85-12.4,1.59-19.66,3.08A103.32,103.32,0,0,0,79.26,203c-6.54,2.88-12.64,6.11-15.94,9.68s-3.8,7.5-1.22,11,8.23,6.56,15.65,7.71a60.72,60.72,0,0,0,24.61-1.87c8-2.26,14.79-6,21.53-10.2s13.45-8.71,17.94-11.56,6.78-4,8.48-3.61,2.8,2.34,2.38,5-2.37,6-4.86,9.39a52.6,52.6,0,0,1-9.43,10.05A41.79,41.79,0,0,1,125.09,236c-4.58,1.39-8.92,1.34-13.53,1.87s-9.49,1.64-12.31,5-3.59,8.94-1.89,12.5,5.88,5.1,10.91,5.59a64.16,64.16,0,0,0,17-1.13,75.36,75.36,0,0,0,17.95-5.26,43.86,43.86,0,0,0,14.44-10.32c3.8-4.22,6.39-9.15,8.73-12.53s4.45-5.24,6.34-5.76a3.45,3.45,0,0,1,4.34,2.26c.79,2,.68,5.1.24,8.15a18.82,18.82,0,0,1-3.33,8.92,29.73,29.73,0,0,1-8.85,7.51c-3.31,1.89-6.48,2.89-9.85,4.47a53.47,53.47,0,0,0-8.58,5c-1.63,1.28-1.31,1.66.53,3a26.32,26.32,0,0,0,10.43,4.68,48.54,48.54,0,0,0,17.54,0,20.1,20.1,0,0,0,11-5.75,68,68,0,0,0,7.59-9.59c2.31-3.33,4.43-6.51,5.36-10.63s.66-9.18.72-13.4.45-7.59,1.41-10,2.48-4,3.87-4.42,2.62.15,3.85,1.42a9.46,9.46,0,0,1,2.67,5.72c.23,2.52-.52,5.63-.85,9a94,94,0,0,0-.2,9.92c0,2.83,0,4.82,1.16,6.07s3.56,1.75,7.08,1.17a39.41,39.41,0,0,0,13.49-5.46c5.3-3.22,11.23-8,15-13.32a34.67,34.67,0,0,0,5.85-16.07c.54-4.84.06-8.63-1.81-12.48a41.32,41.32,0,0,0-8.25-10.78,89.89,89.89,0,0,0-9.12-7.46c-2.95-2.23-5.82-4.49-8.06-6.52s-3.82-3.8-.5-4.37,11.57.09,19-1.56a38.3,38.3,0,0,0,19.09-10.88,45.8,45.8,0,0,0,10.78-19.27,72.51,72.51,0,0,0,2.69-21.56A26.35,26.35,0,0,0,273.46,107a67.65,67.65,0,0,0-6.81-10.52c-2.16-2.58-3.81-3.49-4.81-3.18s-1.36,1.85-1.18,4.85.87,7.48,1.24,11a23.85,23.85,0,0,1-.34,9c-.74,3-2.26,6.35-4.26,8a5.46,5.46,0,0,1-6.32.66C249.11,125.7,247.83,123.6,248.59,119.44ZM163.45,98.55c.27-1.51.56-2.85.84-4.15a43.54,43.54,0,0,0,1.15-7.19,41.51,41.51,0,0,0-1.65-13.42c-1.27-4.2-3.17-7.7-6.47-13.08-1-1.56-2-3.25-3.32-5.33-2.95-4.73-7-11.21-13.9-22.55l.27-.17c6.9,11.35,10.95,17.82,13.9,22.55,1.3,2.08,2.36,3.78,3.32,5.34,3.31,5.4,5.23,8.91,6.5,13.15a41.65,41.65,0,0,1,1.67,13.53,44,44,0,0,1-1.16,7.24c-.28,1.29-.57,2.63-.83,4.13a68.75,68.75,0,0,0-.93,15.23c.32,5.56,1.53,10.62,7.22,22.85l-.28.13c-5.69-12.2-6.94-17.49-7.26-23A69.25,69.25,0,0,1,163.45,98.55Zm-15.95,5.82c.17-2.44.7-4.29,1.66-5s2.35-.25,3.81.5a10.32,10.32,0,0,1,3.83,3.05,5.53,5.53,0,0,1,.57,4.49,18.56,18.56,0,0,1-2.53,5.74c-1.21,1.88-2.7,3.57-4,3.48s-2.23-1.93-2.82-4.37A27.7,27.7,0,0,1,147.5,104.37ZM121,84.58c-.14-1.13-.25-2.1-.39-3-.87-5.76-2.67-8.69-4.48-11a76.4,76.4,0,0,0-7.74-7.88l-2.18-2.05-1.54-1.45c-5-4.75-11.24-10.66-14.85-13.06l.18-.26c3.63,2.41,9.88,8.33,14.89,13.08l1.54,1.46,2.18,2a77,77,0,0,1,7.77,7.91c1.84,2.34,3.66,5.31,4.55,11.14.13.91.25,1.88.38,3,.66,5.49,1.75,14.67,8,37.87l-.31.08C122.73,99.28,121.63,90.07,121,84.58ZM31,73c-.76-1.58-.52-2.67.62-3.2a8.94,8.94,0,0,1,4.87-.13A12.37,12.37,0,0,1,41,71.61a15.92,15.92,0,0,1,3.54,3.26c1,1.25,1.69,2.64,1.2,4a4.41,4.41,0,0,1-4.09,2.56c-1.93,0-4.11-1.34-6.08-3A19.19,19.19,0,0,1,31,73Zm-1.28,43.93a5.24,5.24,0,0,1,3.09-4.18,20.43,20.43,0,0,1,7.66-1.61,50.55,50.55,0,0,1,8.82.17,17.06,17.06,0,0,1,6.48,1.77,3,3,0,0,1,1.47,3.4A8.8,8.8,0,0,1,55,120.73c-1.06,1-2.26,1.28-4.08,1.48s-4.27.34-6.66.41-4.73.06-6.86-.1A11.13,11.13,0,0,1,32,121.1,4.89,4.89,0,0,1,29.75,116.94ZM163.2,215.3c-.83,1.78-1.6,3.46-2.42,5a41.35,41.35,0,0,1-8.33,11.21c-.52.5-1.06,1-1.66,1.52-3.54,3-9.27,6.4-25,11.58l-.1-.3c18.37-6,23-9.61,26.56-13a41,41,0,0,0,8.26-11.12c.82-1.58,1.6-3.26,2.42-5a79.5,79.5,0,0,1,4.7-9.13,74.94,74.94,0,0,1,6.74-8.73c1.14-1.34,2.33-2.73,3.51-4.21,3.72-4.62,7.5-10.18,12.88-27.3l.31.1c-5.4,17.17-9.2,22.76-12.94,27.4-1.19,1.48-2.37,2.87-3.52,4.22a74.26,74.26,0,0,0-6.71,8.69A78.14,78.14,0,0,0,163.2,215.3Zm27.16-16.82a9.6,9.6,0,0,1,2,5.7,11.88,11.88,0,0,1-2.33,6.56,4.89,4.89,0,0,1-4.62,2.15c-1.62-.25-3.2-1.49-4.18-3.76a17.39,17.39,0,0,1-1-8.21,9.09,9.09,0,0,1,2.51-5.54,3.13,3.13,0,0,1,3.73-.69A11.46,11.46,0,0,1,190.36,198.48Zm5.16,16.79c-1.67,9-3.51,14.78-6.79,21.33-3.64,7.28-8.62,14.31-21.1,25l-.21-.24c12.44-10.61,17.4-17.61,21-24.85,3.27-6.52,5.1-12.28,6.75-21.25,2-10.65,3.32-24.25,4.49-45.48l.32,0C198.83,191,197.49,204.61,195.52,215.27Zm32.17,7-.31,0c-2.85-26.92-6.84-36.88-19.38-48.47l.21-.24C220.83,185.29,224.83,195.29,227.69,222.3Zm-45.64-67.44c-7,6.25-13.32,11.74-18.94,16.53-10.49,9-18.68,15.48-25.09,20.05a127.39,127.39,0,0,1-18.8,11.13l-3.38,1.72c-1.37.7-2.79,1.45-4.28,2.24A221,221,0,0,1,89.1,217.21l-.12-.3a221.48,221.48,0,0,0,22.43-10.66c1.49-.79,2.91-1.54,4.28-2.24l3.38-1.72a126.78,126.78,0,0,0,18.76-11.11c9.83-7,23.8-18.59,43.89-36.46l-30.31-12.81a43.43,43.43,0,0,1-17.22,8.42,57.66,57.66,0,0,1-6.93,1.13,33.28,33.28,0,0,0-7.28,1.43c-3.8,1.34-7.83,4.11-12.09,7.06L106,161.24A169.52,169.52,0,0,1,88.26,172c-7.41,3.88-16.6,7.94-32,7l0-.32c15.31.93,24.46-3.11,31.83-7A167.27,167.27,0,0,0,105.83,161l1.88-1.3c4.28-3,8.33-5.74,12.16-7.09a33.56,33.56,0,0,1,7.35-1.44,58.81,58.81,0,0,0,6.89-1.13,43.11,43.11,0,0,0,17-8.25l-58-24.52c-6.68,2.71-11.43,5-14.46,7.09a27.4,27.4,0,0,0-2.68,2.07,11,11,0,0,1-2.85,1.93c-1.47.65-4.8,1.68-10.54,1.24L61,129.44c-4.66-.45-11.7-1.13-31.28,3.55l-.08-.31c19.63-4.69,26.71-4,31.39-3.55l1.55.14c4.13.31,7.92-.13,10.38-1.22a10.73,10.73,0,0,0,2.77-1.88,28.08,28.08,0,0,1,2.71-2.09c3-2,7.68-4.34,14.22-7l-70-29.57C57,98.78,76,107.36,96.18,115.67l.15-.07.06.15,3.47,1.42c14.09,5.71,29.27,11.37,53.63,22.52l0,0,.11.11c8.51,3.9,18.14,8.47,29.23,13.93l0,0,.11.12c5.89,2.91,12.19,6.06,18.95,9.51Zm-59,10.17c-.23-1.24.56-2.76,1.6-4a9.46,9.46,0,0,1,4.15-2.88,26.83,26.83,0,0,1,6.29-1.32,11.72,11.72,0,0,1,5.23.34,4.67,4.67,0,0,1,3,3.12,5,5,0,0,1-1.6,4.92c-1.59,1.42-4.36,2.31-7.22,2.71a22.46,22.46,0,0,1-7.94-.2C124.54,167.21,123.31,166.27,123.09,165Zm53.3-35.37c-1.17-2.23-1.86-4.47-1.23-7a14.18,14.18,0,0,1,4.84-7,11.46,11.46,0,0,1,7-2.62,6.61,6.61,0,0,1,4.8,2.07,5.39,5.39,0,0,1,1.37,4.11,44.58,44.58,0,0,1-1,5.85c-.38,2.14-.64,4.39-.85,6.52s-.37,4.15-1,5.34-1.7,1.52-3.36,1.27a13.2,13.2,0,0,1-5.86-2.61A18.75,18.75,0,0,1,176.39,129.66Zm16.93,19.57a249.28,249.28,0,0,0,12.31-36.68c1.93-7.57,2.75-11.4,2.54-16.26s-1.38-10.67-7-38.72l.32-.06c5.62,28.07,6.79,33.91,7,38.76s-.62,8.75-2.56,16.35a245.94,245.94,0,0,1-12.32,36.73Zm29.13-19.18a10.35,10.35,0,0,1-2.4,5.11,7.54,7.54,0,0,1-4,2.91,6.37,6.37,0,0,1-4.86-1A5,5,0,0,1,209,132.6a10.86,10.86,0,0,1,2.44-5.85,8.28,8.28,0,0,1,4.51-2.68c1.78-.49,3.88-.81,5.15.29S222.73,128,222.45,130.05Zm33.9,13.36c-9.2,7.84-13.79,10.93-18.77,12.86-3.62,1.39-7.53,2.21-14,3.57-3.86.81-8.68,1.81-14.93,3.26l-.07-.31c6.26-1.45,11.07-2.45,14.94-3.26,6.46-1.36,10.36-2.17,14-3.56,5.69-2.2,10.88-5.94,23.15-16.67l.21.24C259.21,141,257.73,142.23,256.35,143.41Zm-24.86-11.5c-5,5.65-13.22,13.55-26.69,25.63l-.21-.24c13.46-12.07,21.68-20,26.66-25.6,5.62-6.36,7.48-10.43,9.53-17.13,2.16-7.06,4.6-17.49,4.95-25.56h.32c-.36,8.11-2.8,18.56-5,25.64C239,121.41,237.15,125.5,231.49,131.91Z"/><path class="cls-3" d="M216.45,162.65c30.86,19.89,48.87,26.25,63.41,33.47s25.61,15.29,40,23.9,32.07,17.75,47.34,23.66c30.55,11.81,51.44,10.67,64.27,9.87a94.7,94.7,0,0,0,16.82-2.06c6-1.35,13.61-3.75,26.43-7.15s30.87-7.83,51.21-20,43-32,55.17-44.85,14-18.72,14.56-30c-10.95-14-42.63-14.78-71.34-14.85s-54.47.58-80.34.52-51.85-.85-71.82.65-33.93,5.3-49,11.4-31.12,14.5-48.62,19.15S238.18,172,216.45,162.65Z"/><path class="cls-2" d="M419.06,254.28c-12.5,0-29.62-1.73-52-10.37-14.06-5.43-31.33-14.06-47.38-23.67-4.87-2.92-9.38-5.79-13.74-8.56a277.82,277.82,0,0,0-26.23-15.34c-3.5-1.74-7.27-3.45-11.25-5.27a367.58,367.58,0,0,1-52.19-28.21l.23-.44c18.83,8.06,37.24,9.26,58,3.75,12.31-3.28,23.83-8.37,35-13.29,4.72-2.08,9.17-4,13.61-5.85a152.43,152.43,0,0,1,49-11.42c15.13-1.14,33.56-1,53.06-.78,6.15,0,12.5.11,18.78.13,12.64,0,25.06-.11,38.2-.25,13.5-.15,27.46-.3,42.14-.27,31.59.08,60.84,1.28,71.54,14.95l.06.07v.1c-.58,11.08-2.07,16.91-14.63,30.14s-35.22,33-55.22,44.89c-19.37,11.56-36.7,16.14-49.34,19.48l-1.94.51c-5.58,1.48-10.1,2.75-14.08,3.87-5,1.41-9,2.52-12.36,3.29a95.41,95.41,0,0,1-16.86,2.06C428,254,423.87,254.28,419.06,254.28ZM218.93,163.94a366.58,366.58,0,0,0,49.78,26.68c4,1.82,7.75,3.53,11.26,5.27a277.62,277.62,0,0,1,26.28,15.37c4.35,2.77,8.86,5.63,13.73,8.55,16,9.59,33.27,18.21,47.3,23.64,30.84,11.92,51.7,10.63,64.16,9.85a95.44,95.44,0,0,0,16.78-2.05c3.39-.76,7.34-1.87,12.34-3.28,4-1.12,8.5-2.39,14.09-3.87l1.93-.52c12.62-3.33,29.9-7.9,49.21-19.42,20-11.91,42.57-31.57,55.12-44.8s13.91-18.85,14.49-29.74c-10.61-13.42-39.69-14.6-71.09-14.68-14.69,0-28.64.12-42.13.27-13.15.14-25.57.28-38.21.25-6.28,0-12.64-.08-18.78-.13-19.5-.19-37.91-.36-53,.78a151.82,151.82,0,0,0-48.88,11.38c-4.44,1.8-8.88,3.77-13.6,5.85-11.16,4.93-22.71,10-35.05,13.31C254.75,171.93,237,171.08,218.93,163.94Z"/><path class="cls-4" d="M405.24,198.8c-25.32,0-59.12-2.08-106.67-9.26l.08-.5c72.78,11,113.33,10,140.53,8,28.27-2.15,50.49-6.3,76.69-14.32,26.75-8.18,51.32-18.47,79.67-33.35l.23.44c-28.38,14.9-53,25.2-79.75,33.39-26.24,8-48.49,12.18-76.8,14.34C429.77,198.21,418.71,198.8,405.24,198.8Z"/><rect class="cls-5" width="595.65" height="275.7"/></g></g></svg>