<svg width="450" height="450" viewBox="0 0 450 450" fill="none" xmlns="http://www.w3.org/2000/svg">
<g clip-path="url(#clip0_13807_5920)">
<path d="M279.71 0.569753C233.94 -2.94025 188.41 10.1498 146.05 27.8298C121.34 38.1498 97 50.2398 76.54 67.4698C18.69 116.08 0.09 197.56 0 273.1C0 289.3 1.05 306.67 10.94 319.5C15.94 325.92 22.74 330.7 27.62 337.18C37.62 350.39 37.92 368.43 44.85 383.45C52.4 399.8 67.3 411.57 82.85 420.72C142.11 455.67 218.58 459.63 281.14 430.98C294.14 425.05 306.6 417.77 320.4 414.2C341.79 408.66 365.2 412.31 385.65 403.96C398.32 398.79 408.84 389.33 417.47 378.71C458.54 328.17 457.28 253.59 432.96 193.18C427.72 180.18 421.49 167.47 413.01 156.29C404.9 145.61 394.77 136.37 388.22 124.66C381.47 112.6 378.94 98.7098 374.36 85.6598C356.52 34.9998 304 -1.22025 250.31 0.0797527" fill="#FFBFA4"/>
<path d="M157.16 98.1301C156.46 104.26 156.8 110.72 159.59 116.22C165.25 127.34 178.81 131.41 190.93 134.38C207.46 138.44 225.55 142.38 240.93 135.11C247.175 132.169 252.485 127.56 256.275 121.791C260.065 116.022 262.186 109.318 262.406 102.419C262.625 95.5203 260.933 88.695 257.518 82.697C254.102 76.699 249.095 71.7616 243.05 68.4301C207 48.5601 162.92 47.1201 157.16 98.1301Z" fill="#FFEAE1"/>
<path d="M49.1201 266C46.2473 272.501 44.8296 279.551 44.966 286.657C45.1025 293.763 46.7899 300.754 49.9101 307.14C52.219 312.1 55.7281 316.407 60.1201 319.67C66.8201 324.38 75.3601 325.49 83.5401 326.01C95.8996 326.797 108.303 326.543 120.62 325.25C133.93 323.85 149.11 319.74 154.47 307.47C159.74 295.39 152.78 281.76 146.01 270.47C140.49 261.24 134.68 251.69 125.72 245.74C101.17 229.39 61.2501 239 49.1201 266Z" fill="#FFEAE1"/>
<path d="M295.53 260.71C295.22 273.77 299.61 286.47 303.94 298.86C306.15 305.19 308.4 311.59 312.22 317.18C323.74 334.04 349.39 339.85 368.28 330.88C387.17 321.91 397.76 300.05 394.08 280.24C386.68 240.44 297.13 194.08 295.53 260.71Z" fill="#FFEAE1"/>
<path d="M104 310.799C86.7297 310.799 72.6797 297.299 72.6797 280.709C72.6797 264.119 86.6797 250.609 104 250.609C121.32 250.609 135.32 264.109 135.32 280.709C135.32 297.309 121.28 310.799 104 310.799ZM104 254.469C88.8597 254.469 76.5397 266.239 76.5397 280.709C76.5397 295.179 88.8697 306.939 104 306.939C119.13 306.939 131.46 295.169 131.46 280.709C131.46 266.249 119.15 254.469 104 254.469Z" fill="black"/>
<path d="M62.9568 242.224L60.4336 245.146L70.7029 254.016L73.2261 251.095L62.9568 242.224Z" fill="black"/>
<path d="M116.98 229.367L112.612 242.753L116.279 243.95L120.647 230.564L116.98 229.367Z" fill="black"/>
<path d="M152.44 286.819H140.14V290.679H152.44V286.819Z" fill="black"/>
<path d="M115.623 319.313L111.84 320.085L114 330.669L117.783 329.897L115.623 319.313Z" fill="black"/>
<path d="M66.0685 291.806L48.9072 299.133L50.4229 302.683L67.5842 295.356L66.0685 291.806Z" fill="black"/>
<path d="M209.07 127.44C191.8 127.44 177.75 113.94 177.75 97.35C177.75 80.76 191.8 67.25 209.07 67.25C226.34 67.25 240.39 80.75 240.39 97.35C240.39 113.95 226.34 127.44 209.07 127.44ZM209.07 71.11C193.93 71.11 181.61 82.88 181.61 97.35C181.61 111.82 193.93 123.58 209.07 123.58C224.21 123.58 236.53 111.81 236.53 97.35C236.53 82.89 224.21 71.11 209.07 71.11Z" fill="black"/>
<path d="M149.525 80.0455L148.679 83.8115L165.362 87.5622L166.209 83.7962L149.525 80.0455Z" fill="black"/>
<path d="M184.32 124.557L178.004 135.621L181.356 137.535L187.672 126.471L184.32 124.557Z" fill="black"/>
<path d="M240.079 124.441L236.853 126.56L244.112 137.62L247.339 135.502L240.079 124.441Z" fill="black"/>
<path d="M259.266 80.0869L245.22 83.8428L246.217 87.5718L260.263 83.8159L259.266 80.0869Z" fill="black"/>
<path d="M211.01 41H207.14V57.36H211.01V41Z" fill="black"/>
<path d="M345.35 307.68C328.08 307.68 314.03 294.18 314.03 277.58C314.03 260.98 328.08 247.49 345.35 247.49C362.62 247.49 376.68 260.99 376.68 277.58C376.68 294.17 362.62 307.68 345.35 307.68ZM345.35 251.35C330.21 251.35 317.89 263.12 317.89 277.58C317.89 292.04 330.21 303.82 345.35 303.82C360.49 303.82 372.81 292.05 372.81 277.58C372.81 263.11 360.49 251.35 345.35 251.35Z" fill="black"/>
<path d="M308.982 239.485L305.775 241.635L314.346 254.418L317.552 252.268L308.982 239.485Z" fill="black"/>
<path d="M311.142 288.599L298.076 292.265L299.119 295.981L312.184 292.316L311.142 288.599Z" fill="black"/>
<path d="M347.29 315.92H343.42V330.31H347.29V315.92Z" fill="black"/>
<path d="M379.888 288.61L378.969 292.359L393.896 296.02L394.816 292.272L379.888 288.61Z" fill="black"/>
<path d="M372.976 233.078L367.109 246.163L370.641 247.746L376.508 234.661L372.976 233.078Z" fill="black"/>
<path d="M366.32 202.329C358.63 155.749 325.43 114.059 281.74 96.1393L283.21 92.5693C328.11 110.989 362.21 153.819 370.13 201.699L366.32 202.329Z" fill="black"/>
<path d="M216 377.63C185 377.63 153.83 366.35 131.18 344.95L133.84 342.15C169.44 375.78 226.73 383.6 270.06 360.75C282.31 354.3 290.39 346.96 294.78 338.33L298.23 340.08C293.46 349.45 284.84 357.33 271.87 364.17C254.613 373.119 235.439 377.738 216 377.63Z" fill="black"/>
<path d="M73.8503 212.4C73.0103 194.66 78.3603 175.33 89.3203 156.5C99.0003 139.94 111.69 125.41 125 110.76L127.86 113.35C114.72 127.85 102.14 142.2 92.6803 158.45C82.1003 176.63 76.9303 195.22 77.6803 212.22L73.8503 212.4Z" fill="black"/>
<path d="M376.7 181.45L350.16 188.56L369.59 207.98L376.7 181.45Z" fill="black"/>
<path d="M155.33 345.34L128.44 339.7L137 365.8L155.33 345.34Z" fill="black"/>
<path d="M134.73 107.08L107.63 111.53L125.04 132.77L134.73 107.08Z" fill="black"/>
</g>
<defs>
<clipPath id="clip0_13807_5920">
<rect width="450" height="450" fill="white"/>
</clipPath>
</defs>
</svg>
