<svg width="192" height="191" viewBox="0 0 192 191" fill="none" xmlns="http://www.w3.org/2000/svg">
<path d="M126.941 188.713C94.1758 193.106 61.469 190.385 33.2377 172.327C12.1799 158.861 -0.513444 129.356 0.354317 100.793C1.22208 72.2302 14.6432 45.485 33.8323 29.0935C44.6918 19.8167 57.1969 13.635 69.9751 9.01497C94.1309 0.28496 120.645 -2.95222 144.653 7.26596C168.66 17.4841 189.336 43.3916 191.39 73.9307C192.698 93.3872 186.642 112.322 179.311 129.55C171.87 147.038 162.714 163.995 149.626 175.644L126.941 188.713Z" fill="#FFBFA4"/>
<path d="M94.5198 75.8099C94.2499 75.6311 93.9531 75.4967 93.6406 75.412C92.105 74.9563 89.4367 75.2516 88.2815 76.4951C86.9498 77.9295 86.6962 81.3407 87.7729 82.9259C88.2959 83.6977 89.1062 84.2096 89.8716 84.7471C93.0543 86.9599 95.8008 89.7417 97.9727 92.9525C98.6402 90.4094 100.54 88.3941 102.445 86.5794C104.349 84.7647 106.382 82.9564 107.463 80.5593C108.545 78.1622 108.375 74.9612 106.315 73.3262C105.191 72.4341 103.649 72.142 102.236 72.4004C99.2515 72.9443 96.9715 75.5645 96.6619 78.5504L95.4151 76.8031C95.1827 76.4396 94.8947 76.1147 94.5616 75.8404L94.5198 75.8099Z" fill="#F3D6D8"/>
<path d="M106.451 73.668C106.088 73.2711 105.644 72.957 105.149 72.747C104.625 72.5572 104.07 72.4684 103.513 72.4855C100.536 72.5191 97.6321 74.2825 96.3277 76.8176C95.33 75.8567 94.1446 75.1122 92.8459 74.6307C91.1932 74.0498 89.4475 74.244 88.2923 75.1393C87.2157 75.9704 86.5819 77.4289 86.5482 79.1506C86.5209 80.6139 86.922 81.9472 87.6794 82.9019C88.4062 83.8197 89.3978 84.3717 90.3621 84.9044C90.4937 84.9782 90.6252 85.0536 90.7584 85.1258C93.6096 86.751 96.114 88.9201 98.1295 91.5101L98.7922 92.3669L99.1628 91.3497C99.4639 90.5445 99.9177 89.8052 100.499 89.1723C101.08 88.541 101.697 87.9442 102.348 87.3849C103.135 86.7162 103.871 85.9895 104.549 85.2108C105.833 83.6512 107.107 81.9248 107.68 79.863C108.328 77.5332 107.856 75.1586 106.451 73.668ZM104.702 73.8573C105.037 74.0032 105.337 74.2187 105.582 74.4895C106.462 75.4201 107.173 77.2364 106.532 79.5453C106.02 81.3889 104.835 82.9918 103.63 84.4487C102.987 85.1863 102.289 85.875 101.544 86.5089C100.861 87.0947 100.215 87.721 99.6073 88.3845C99.1653 88.8781 98.7814 89.4207 98.4633 90.0019C96.4626 87.6224 94.056 85.6162 91.3553 84.0764L90.9477 83.847C90.0877 83.3656 89.1988 82.8746 88.6212 82.1478C88.0436 81.421 87.7275 80.3491 87.7516 79.1618C87.774 77.8124 88.2409 76.6909 89.0352 76.0812C89.5859 75.6779 90.2558 75.4706 90.9381 75.4923C91.4573 75.4944 91.9725 75.5833 92.4624 75.7554C94.0541 76.317 95.3216 77.4289 96.103 78.2633L96.7785 78.9853L97.0994 78.0531C97.9787 75.5533 100.682 73.7209 103.532 73.684C103.929 73.6609 104.326 73.7199 104.698 73.8573H104.702Z" fill="#231F20"/>
<path d="M119.94 65.157C119.247 64.4623 118.318 64.1767 117.404 63.9809C112.804 62.9685 108.086 63.2332 103.497 63.4916C101.044 63.6279 98.5106 63.7707 96.0477 63.7066C90.9822 63.575 85.8751 63.7066 80.9364 63.8478L80.0587 63.8702C79.6384 63.8863 79.1763 63.8574 78.6147 63.8285C76.678 63.7306 74.2825 63.6039 73.0422 65.0784C71.8019 66.553 71.7442 72.066 71.7923 77.5727V78.0268C71.7923 78.383 71.7923 78.6927 71.7923 78.9366C71.7634 84.4641 72.0763 90.0831 72.3828 95.5143V95.6202C72.4325 96.5043 72.4951 97.6034 73.1096 98.5084C74.5328 100.628 77.676 100.726 80.0266 100.585C80.0266 100.666 80.0266 100.745 80.0347 100.822V101.064C80.0427 101.307 80.0491 101.512 80.0443 101.648L79.8261 107.473L83.4651 102.637C83.7516 102.272 84.0142 101.89 84.2513 101.491C84.3604 101.3 84.4615 101.1 84.5802 100.862C84.699 100.608 84.8329 100.362 84.9814 100.124C88.1631 100.034 91.4155 100.198 94.5587 100.349H94.6357C96.3285 100.429 97.8592 100.501 99.43 100.549C105.166 100.726 110.982 100.533 116.598 100.347H116.725C118.028 100.304 119.83 100.07 120.427 98.5372C120.573 98.1054 120.637 97.6498 120.614 97.1943C120.629 92.9728 120.736 88.5989 120.831 84.7417C120.956 79.5896 121.086 74.2594 121.041 68.979C121.046 67.6713 120.95 66.1775 119.94 65.157ZM81.4145 103.06L81.4675 101.705C81.4675 101.53 81.4675 101.255 81.4547 100.939V100.822C81.4466 100.512 81.437 100.169 81.4418 99.8433L81.4531 99.0667L80.6797 99.1325C78.2825 99.3459 75.3848 99.3668 74.2905 97.727C73.891 97.1333 73.8413 96.2685 73.7995 95.4919C73.4963 90.0654 73.1802 84.4545 73.2091 78.9398C73.2091 78.6895 73.2091 78.3766 73.2091 78.0124V77.5551C73.1834 74.7199 73.1144 67.1899 74.1333 65.9737C74.9211 65.0319 76.9364 65.1378 78.5569 65.2244C79.0864 65.2501 79.6432 65.2806 80.1149 65.2677L80.9926 65.2437C85.9072 65.1041 91.0063 64.9741 96.0156 65.1041C98.5828 65.1618 101.251 65.0174 103.603 64.8859C108.073 64.6324 112.691 64.3708 117.102 65.3448C117.904 65.5245 118.533 65.7282 118.944 66.147C119.586 66.7888 119.645 67.912 119.656 68.9966C119.701 74.2546 119.571 79.5703 119.446 84.7128V84.9968C119.348 88.9952 119.25 93.1284 119.236 97.1911C119.254 97.4745 119.223 97.7589 119.145 98.0318C118.92 98.6078 118.143 98.8999 116.661 98.9496C111.029 99.1357 105.206 99.3299 99.4926 99.1534C97.9298 99.1068 96.4087 99.0362 94.7143 98.9528C91.5165 98.8004 88.2096 98.6463 84.938 98.7234L84.6653 98.741L84.2369 98.8309L84.0155 99.0972C83.9834 99.1373 83.9513 99.179 83.9208 99.2224C83.6953 99.5555 83.4973 99.9064 83.3287 100.272C83.2405 100.448 83.1538 100.628 83.0544 100.798C82.8474 101.145 82.618 101.478 82.3676 101.794L81.4145 103.06Z" fill="#231F20"/>
<path d="M96.4211 142.174C98.4486 142.174 100.092 140.53 100.092 138.503C100.092 136.475 98.4486 134.832 96.4211 134.832C94.3936 134.832 92.75 136.475 92.75 138.503C92.75 140.53 94.3936 142.174 96.4211 142.174Z" fill="#231F20"/>
<path d="M125.694 36.9702H67.1436C64.6449 36.9732 62.2494 37.9671 60.4825 39.734C58.7157 41.5008 57.7217 43.8964 57.7188 46.3951V140.458C57.7213 142.957 58.715 145.353 60.4819 147.121C62.2487 148.888 64.6445 149.883 67.1436 149.886H125.694C128.193 149.883 130.59 148.889 132.357 147.121C134.125 145.354 135.119 142.957 135.122 140.458V46.3951C135.118 43.8959 134.124 41.5002 132.356 39.7333C130.589 37.9665 128.193 36.9728 125.694 36.9702ZM133.285 140.461C133.284 142.474 132.484 144.405 131.061 145.829C129.637 147.254 127.707 148.055 125.694 148.057H67.1436C65.1312 148.055 63.2018 147.254 61.7789 145.831C60.3561 144.408 59.556 142.478 59.5543 140.466V46.3951C59.5569 44.3832 60.3573 42.4545 61.7801 41.032C63.2029 39.6095 65.1317 38.8095 67.1436 38.8074H79.5433C79.8818 40.4023 80.7868 43.2294 83.0058 43.5936H109.827C112.274 43.1797 113.081 40.3846 113.345 38.8074H125.694C127.706 38.8095 129.635 39.6095 131.058 41.0319C132.481 42.4543 133.282 44.3831 133.285 46.3951V140.461Z" fill="#231F20"/>
</svg>
