<svg xmlns="http://www.w3.org/2000/svg" viewBox="0 0 595.65 262.57"><defs><style>.cls-1{fill:#353e18;}.cls-2{fill:#fff;}.cls-3{fill:#7f7e35;}.cls-4{fill:#304f25;}.cls-5{fill:#f7d1e4;}.cls-6{fill:#eb5ea0;}.cls-7{fill:none;}</style></defs><g id="Layer_2" data-name="Layer 2"><g id="matitas"><path class="cls-1" d="M189.91,216c-1.62,11.8,2,18.56,6.28,23.32a36.41,36.41,0,0,0,13.7,9.25,24.43,24.43,0,0,0,11.36,2c3.55-.28,7.13-1.5,13.08-4.26s14.27-7,22.79-9.64,17.22-3.48,25.84-3.81,17.15-.11,22.57-.49a30.55,30.55,0,0,0,10.88-2.58c3.15-1.23,7.14-2.7,9.73-4.51s3.78-3.95,3.79-5.44-1.14-2.3-2.27-3.79-2.22-3.66-3.9-6.48-3.95-6.32-4.65-10.4.15-8.72,1.67-10.36c4.35,3.8,7.89,5.44,10.28,7a14,14,0,0,1,4.65,4.89,15.31,15.31,0,0,1,2.05,6c.27,2.32.05,5,3.74,11.82,46.56-2.39,81.37-8.08,104.22-15.15s33.75-15.5,41.29-21.35,11.72-9.08,13.24-11.25.34-3.26-.66-3.64-1.86,0-4.73-2.5a90,90,0,0,1-11.67-13.19,104.84,104.84,0,0,1-9-15.1c-2.1-4.24-3.34-7.25-3.27-9.07s1.45-2.47,3.57-2.15a15.73,15.73,0,0,1,7.14,3.44c2.14,1.84,3.56,4.21,7.36,9.31a197.67,197.67,0,0,1,18.29,28.44c26.92-15.21,39.86-22.52,50.93-34s20.28-27,27-39.74,10.87-22.54,9.43-33.93S586.14,34.41,575.76,24,551.67,5.59,537.59,3s-28.53,0-43,4.34-28.81,10.17-43.61,17-30,14.43-41.21,19A121.77,121.77,0,0,1,386,50.35c-5.47,1.13-9.22,1.94-12.09,3.31S369,57,368.4,59.87s.1,6.72,2.6,11,6.78,9.07,10.32,12.7S387.67,89.74,392,94s10.22,10.23,11.25,11.12c-7.13,4-17.59-2-24.72-7.07s-10.95-9.17-13-12.72-2.35-6.54-3.13-9.57a33.85,33.85,0,0,0-3.17-8.06c-1.15-2-2.19-2.9-5.23-1.18s-8.09,6.07-14.22,10.28a102.6,102.6,0,0,1-19.31,10.6c-5.95,2.32-10.63,2.86-14,4s-5.54,2.73-5.43,6,2.49,8.3,5.35,12.29,6.23,7,10,10.68,8,8.08,10.63,10.82,3.48,3.84,2.93,4.4-2.58.61-4.72,0a41.53,41.53,0,0,1-7-3.41,46.84,46.84,0,0,1-9.89-6.69,131.27,131.27,0,0,1-12.7-13.3,52.61,52.61,0,0,1-4.77-6.8c-.95-1.4-2.08-2.56-3.8,0s-4.05,8.84-5.77,15.07S278.46,132.8,276.6,137s-4.45,6.48-8.53,8.85-9.64,4.85-16.25,8.65A163.4,163.4,0,0,0,230.75,169C224,174.53,218,180.49,210,189.22S191.91,209.47,189.91,216Z"/><path class="cls-2" d="M204.08,217.88l-.07-.5c43.73-6.3,60.65-19.3,77-31.87l4.25-3.27C301.42,169.82,318.11,157,335.81,147c19.24-10.86,39.7-18.34,70.68-29.66l.15-.06C437.5,106,479.78,90.53,580.49,29.12l.26.43C480,91,437.69,106.44,406.81,117.73l-.15.06c-31,11.31-51.4,18.78-70.6,29.63-17.67,10-34.35,22.81-50.47,35.22l-4.25,3.27C264.92,198.52,247.94,211.55,204.08,217.88Z"/><path class="cls-3" d="M350.07,262.31c-44.11-5-65.72-12-84.81-16s-35.65-5.09-55.68-7.94-43.53-7.46-62.26-13c-37.46-11.07-55.83-25.81-67-34.94-5.6-4.56-9.41-7.72-13.88-12.75s-9.6-11.94-18.75-23.09S25.34,128,16.13,105.1,1.67,51.74.54,33.65,2.39,9.84,10.7.69C31.81-2.92,61.64,17.47,88.17,36.46S137.94,73,161.85,90.13s48.48,33.71,65.71,48.13,27.12,26.61,36.18,41.32,17.3,31.9,29.77,47.12S322.7,255.14,350.07,262.31Z"/><path class="cls-4" d="M350,262.57a517.58,517.58,0,0,1-70.32-12.67c-5.11-1.23-9.92-2.39-14.52-3.37-12.61-2.66-24.09-4-36.26-5.47-6.2-.73-12.61-1.5-19.4-2.46-22.37-3.17-45.08-7.92-62.32-13-37.94-11.22-56.22-26.11-67.14-35-5.74-4.67-9.48-7.79-13.92-12.79-2.53-2.84-5.3-6.33-8.82-10.75-2.79-3.51-5.95-7.49-9.93-12.34L46,153c-9-11-21.41-26-30.18-47.85C6.79,82.64,1.4,52.31.23,33.67S2.28,9.54,10.46.53l.07-.07.11,0C31.27-3.1,59.18,15.37,88.37,36.26,101.93,46,114.68,55.33,127,64.39c12,8.83,23.36,17.18,35.05,25.54,5.81,4.15,11.72,8.32,17.43,12.36,18.13,12.79,35.24,24.87,48.3,35.78C243.5,151.23,254,163.22,264,179.46c2.68,4.34,5.24,8.82,7.95,13.57,6.4,11.22,13,22.82,21.8,33.52,14.78,18,32.7,29.31,56.4,35.52ZM10.88.93C.6,12.27,0,19.27.85,33.64,2,52.25,7.39,82.52,16.43,105c8.74,21.76,21.08,36.76,30.1,47.72l1.38,1.68c4,4.86,7.14,8.84,9.94,12.35,3.5,4.41,6.27,7.9,8.79,10.73,4.41,5,8.14,8.07,13.86,12.73,10.88,8.86,29.1,23.69,66.92,34.88,17.2,5.08,39.88,9.82,62.21,13,6.78,1,13.19,1.72,19.39,2.46,12.18,1.44,23.68,2.81,36.32,5.48,4.61,1,9.43,2.14,14.53,3.37a516.71,516.71,0,0,0,66.84,12.26c-22.23-6.41-39.28-17.53-53.45-34.81-8.81-10.74-15.44-22.36-21.86-33.6-2.7-4.74-5.26-9.22-7.94-13.55-10-16.19-20.44-28.15-36.12-41.26-13-10.9-30.14-23-48.25-35.76-5.72-4-11.63-8.2-17.44-12.36C150,82,138.61,73.62,126.6,64.78,114.27,55.73,101.53,46.36,88,36.65,59,15.89,31.22-2.47,10.88.93Z"/><path class="cls-2" d="M253.18,228.77C177.37,189,140.7,161.35,117.23,141.69c-24.41-20.45-41.66-38.43-59.54-62.07C39.45,55.5,24.87,31.19,10.42.79L11,.59C25.42,31,40,55.25,58.21,79.34c17.86,23.6,35.08,41.56,59.45,62,23.45,19.65,60.09,47.29,135.85,87Z"/><path class="cls-5" d="M288,125.59c-3.08-3.47-6.34-7.06-10.69-8.66s-10.11-.39-12.08,3.81a14.1,14.1,0,0,0-1,5q-1.47,19.06-2.95,38.13c-.41,5.29-.81,10.67.2,15.88,3,15.44,18.47,26.32,34.13,27.69s31.1-5.13,44-14.07c7.22-5,14.63-13,12.05-21.39a11.86,11.86,0,0,0-14.65-7.41c7.27,2.17,15.8-3.53,16.58-11.08s-6.41-14.87-14-14.23"/><path class="cls-6" d="M299.83,208.08c-1.4,0-2.81-.06-4.22-.18-19.45-1.7-32.12-15.42-34.58-28.09-1-5.32-.61-10.76-.2-16l2.94-38.13a14.73,14.73,0,0,1,1-5.14c2.16-4.58,8.27-5.68,12.7-4.06s7.93,5.46,10.89,8.79l-.74.67c-2.89-3.25-6.16-6.93-10.49-8.52-4-1.47-9.6-.4-11.45,3.55a13.36,13.36,0,0,0-1,4.79l-2.95,38.12c-.4,5.2-.81,10.57.19,15.75,2.39,12.31,14.73,25.64,33.69,27.29,17.22,1.51,33.27-6.77,43.7-14,4.53-3.13,14.74-11.43,11.85-20.83a10.87,10.87,0,0,0-5.58-6.35,11.57,11.57,0,0,0-1.8-.74,12.5,12.5,0,0,1-6.94,0l-1.48-.45,1.46-.5a11.5,11.5,0,0,1,7-.1,14,14,0,0,0,3.64-1.74,12.38,12.38,0,0,0-7.78-22.5l-.09-1a13.22,13.22,0,0,1,8.43,24.33,15.45,15.45,0,0,1-2.72,1.44l.76.35a11.94,11.94,0,0,1,6.09,6.95c3.08,10-7.53,18.69-12.24,22C330.26,200.45,315.72,208.08,299.83,208.08Zm40-43.59c.38,0,.78,0,1.17,0A9.1,9.1,0,0,0,339.83,164.49Z"/><path class="cls-5" d="M333.05,145.84c7.22-4.65,8.22-16.44,1.89-22.24a22.83,22.83,0,0,0-6.71-4,60.84,60.84,0,0,0-24.63-4.76c-4.32.07-8.85.69-12.34,3.25s-5.49,7.54-3.5,11.38"/><path class="cls-6" d="M333.33,146.26l-.55-.84A14.26,14.26,0,0,0,334.6,124a22.48,22.48,0,0,0-6.56-3.89,60.6,60.6,0,0,0-24.43-4.72c-3.4.06-8.36.45-12.05,3.15-3.11,2.29-5.28,7-3.36,10.75l-.88.46c-2.2-4.23.13-9.43,3.65-12,3.92-2.88,9.08-3.29,12.63-3.35a61.31,61.31,0,0,1,24.82,4.8,23.6,23.6,0,0,1,6.86,4.07,15.28,15.28,0,0,1-1.95,23Z"/><path class="cls-5" d="M316.78,147.45a10.29,10.29,0,0,1,.37,4.43,3.53,3.53,0,0,1-2.93,3,5.12,5.12,0,0,1-3.37-1.56q-3.78-3.09-7.35-6.43a8.33,8.33,0,0,1-2.72-3.79c-.72-2.9,1.93-5.78,4.86-6.4s5.93.38,8.73,1.43c4.15,1.57,8.34,3.34,11.63,6.32A20.06,20.06,0,0,1,332.4,161a3.39,3.39,0,0,1-2.6,3.43,27.58,27.58,0,0,1-38-26.93,5.11,5.11,0,0,1,.62-2.56c.81-1.29,2.47-1.71,4-2,7.7-1.31,15.86-.95,23,2.21s13.16,9.35,15,17c1,4.2.67,8.92-1.84,12.44.48,14.28-12.58,27.55-22.74,35.26-1.64,1.24-2.93,2.91-4.65,4-3.49,2.24-8,1.78-12.09,1.24a20.69,20.69,0,0,1-5.79-1.34,48.42,48.42,0,0,1-10.94-7.35c-2.87-2.89-2.8-7.08-2.86-11.27-.25-17.3,1.63-40.09,19.3-48.94"/><path class="cls-6" d="M298.44,206a41.4,41.4,0,0,1-5.44-.45,21,21,0,0,1-5.93-1.38A48.84,48.84,0,0,1,276,196.73c-2.89-2.92-2.94-7.08-3-11.11v-.51c-.23-16.51,1.45-39.33,18.42-48.78a4.32,4.32,0,0,1,.59-1.69c.91-1.44,2.69-1.91,4.3-2.19,8.6-1.46,16.66-.68,23.3,2.25,7.78,3.44,13.49,9.9,15.29,17.29,1.15,4.75.48,9.37-1.83,12.71.42,16-15.89,30.16-22.94,35.51a23.12,23.12,0,0,0-2,1.74,17.65,17.65,0,0,1-2.71,2.29A12.55,12.55,0,0,1,298.44,206Zm-7.16-68.45c-15.93,9.4-17.53,31.5-17.3,47.54v.52c.06,4,.1,7.78,2.71,10.41a47.21,47.21,0,0,0,10.79,7.24,20.12,20.12,0,0,0,5.65,1.3c4.35.57,8.52.92,11.76-1.16a16.65,16.65,0,0,0,2.56-2.17,25.58,25.58,0,0,1,2.05-1.82c7-5.27,23.07-19.22,22.55-34.85v-.16l.1-.14c2.22-3.11,2.86-7.5,1.76-12-1.72-7.09-7.22-13.3-14.72-16.61-6.46-2.86-14.31-3.61-22.72-2.18-1.4.24-2.93.63-3.63,1.74a2.31,2.31,0,0,0-.26.55l.43.88-.68.35,0,.54a27.08,27.08,0,0,0,37.32,26.44,3.92,3.92,0,0,0,1.72-1.11,3.79,3.79,0,0,0,.57-1.91,19.55,19.55,0,0,0-6.23-16.14c-3.33-3-7.67-4.79-11.48-6.22-2.75-1-5.67-2-8.45-1.41a6.27,6.27,0,0,0-3.9,2.71,4,4,0,0,0-.57,3.08,7.79,7.79,0,0,0,2.57,3.54c2.36,2.21,4.83,4.36,7.33,6.42a4.73,4.73,0,0,0,3,1.44,3.07,3.07,0,0,0,2.47-2.56,10,10,0,0,0-.37-4.21l1-.23a10.57,10.57,0,0,1,.38,4.64,4,4,0,0,1-3.39,3.36,5.69,5.69,0,0,1-3.72-1.67c-2.52-2.07-5-4.24-7.37-6.46a8.57,8.57,0,0,1-2.86-4,4.91,4.91,0,0,1,.69-3.85,7.33,7.33,0,0,1,4.54-3.17c3.05-.64,6.12.37,9,1.45,3.9,1.47,8.34,3.29,11.8,6.42a20.57,20.57,0,0,1,6.55,17,4.66,4.66,0,0,1-.76,2.41,4.88,4.88,0,0,1-2.14,1.44,28.1,28.1,0,0,1-38.71-27.32Z"/><rect class="cls-7" y="0.64" width="595.65" height="261.93"/></g></g></svg>