<svg xmlns="http://www.w3.org/2000/svg" viewBox="0 0 1150.06 1150.06"><defs><style>.cls-1{fill:#f3d6d8;}.cls-2{fill:none;}.cls-3{fill:#7f7e35;}.cls-4{fill:#304f25;}.cls-5{fill:#fff;}</style></defs><g id="Layer_2" data-name="Layer 2"><g id="background"><path class="cls-1" d="M170.06,157.56c-33.44,22.76-65.83,48.42-88.48,81.88-23.2,34.27-34.92,74.81-45.52,114.79C16.68,427.28-.23,501.81,0,577.38c.5,163.93,80.74,316.17,164.76,457.06,19.68,33,41,67.16,74.31,86.47,28.42,16.49,62.3,20.18,95.08,22.74a2109.14,2109.14,0,0,0,321.8.52c98.56-7.38,203.48-24.86,275.37-92.5,22.52-21.19,40.78-46.48,62.64-68.33,47.44-47.43,106.7-70.72,127.53-134.41,32.83-100.38,39-193.32,9.82-290-33.18-109.71-94.47-180.25-106.3-280.52C1012.35,171.21,1008.27,101,902.56,48.54,840.56,17.78,779-1.76,709.58.13,518.3,5.33,329.74,48.86,170.06,157.56Z"/><rect class="cls-2" width="1150.06" height="1150.06"/></g><g id="matitas"><path d="M278.71,184.55c.12,0,.54,0,.53-.19s-.39-.23-.51-.23-.54,0-.53.18.39.24.51.24Z"/><path d="M359.27,503.36c-21.12,14.32-35.68,35.9-45.66,59.06-11.4,26.46-17.43,55-22.14,83.31-5.29,31.77-9.22,63.79-13.63,95.69l-13.41,97.15q-6.68,48.36-13.36,96.71l-1.7,12.31c0-.17,4.8-.44,5-1.66l13.29-96.27Q274.32,801.3,281,753c4.39-31.77,8.49-63.59,13.29-95.29,4.42-29.18,9.78-58.62,20.08-86.37,8.83-23.76,21.8-46.83,41.57-63.18,2.49-2.06,5.09-4,7.76-5.8.88-.6-.87-.27-1.06-.23a10.08,10.08,0,0,0-3.36,1.28Z"/><path d="M250,948c-4.22,17.23-13.12,32.72-23.63,46.86-10.77,14.51-23.11,27.74-34.77,41.52-10.31,12.17-21,25-26.83,40-2.64,6.82-4.19,14.57-1.48,21.61,2.6,6.76,9.1,11.7,15.26,15.06,13.3,7.26,29.2,10.13,44.21,10.65,8.69.3,17.85-.21,25.39-5,8.48-5.35,16.12-11.93,23.5-18.69,3.69-3.38,7.33-6.82,11-10.23a109.41,109.41,0,0,1,11.11-9.41c7.8-5.49,16.48-9.55,25.29-13.12,16.88-6.84,34.62-12,49.78-22.46,7.15-4.91,13.63-10.87,18.3-18.23,5.33-8.41,7.77-18.19,9.05-28,2.39-18.39,2.62-38.28-4.79-55.64a59.39,59.39,0,0,0-6.69-11.75c-.62-.87-1.93-2-3.09-1.87s-.83,1.26-.33,1.94C392.12,946.2,394,965.44,393,983.25c-.54,9.74-1.59,19.71-4.69,29a53.57,53.57,0,0,1-14.31,22c-12.86,12.11-29.76,18.52-46,24.63-8.77,3.29-17.57,6.6-25.93,10.87a96.45,96.45,0,0,0-11.81,7.06,104.2,104.2,0,0,0-10.68,8.89c-7.25,6.71-14.35,13.6-22,19.9a128,128,0,0,1-11.82,8.8,32,32,0,0,1-13.51,5.09,86.83,86.83,0,0,1-21.61-.25,106.14,106.14,0,0,1-22.16-4.84,61,61,0,0,1-9.78-4.24,33.23,33.23,0,0,1-7.46-5.39,15.88,15.88,0,0,1-4.47-7.75,24.36,24.36,0,0,1,.09-10.2c1.49-7.64,5.18-14.76,9.24-21.32a184.3,184.3,0,0,1,13.58-18.6c11.09-13.67,23.16-26.53,34.2-40.25,10.78-13.4,20.62-27.77,26.75-43.94a102.77,102.77,0,0,0,3.76-12.11c.41-1.64-3.92-4.48-4.37-2.6Z"/><path d="M389.21,937c9.68-18.43,18.79-37.16,27.12-56.23s16-38.74,22.62-58.62a552.41,552.41,0,0,0,16.28-59.56A449.35,449.35,0,0,0,464,701.3a381.86,381.86,0,0,0-.5-61.62q-.36-3.87-.79-7.72a7.38,7.38,0,0,0-1.49-2.87c-.14-.21-1.44-1.65-1.39-1.28a378,378,0,0,1,1.76,61.66A439,439,0,0,1,454,750.35a537.33,537.33,0,0,1-15.61,60.52c-6.31,19.78-13.64,39.22-21.76,58.32s-17.09,38-26.64,56.52c-1.18,2.31-2.38,4.6-3.59,6.9-.29.56.78,2,1.07,2.42.1.16,1.64,2.19,1.74,2Z"/><path d="M462.07,642.36a3.48,3.48,0,0,0,3-2c.37-1.23-.76-1.62-1.75-1.62a3.47,3.47,0,0,0-3,2c-.37,1.23.76,1.63,1.76,1.63Z"/><path d="M345.27,518.07c-12.61-19-38.88-21.1-58.59-13.26-24.81,9.87-39,35.24-49.44,58.35-13.2,29.29-25.36,59.25-35.82,89.63a658.46,658.46,0,0,0-24.75,96.39c-5.94,32.49-10.31,65.23-15.46,97.84-2.57,16.31-5.33,32.59-8.58,48.78-3.08,15.32-5.94,31.22-13.15,45.25-11.41,22.22-31.44,38.16-50,54.12-9.43,8.1-18.81,16.34-27.11,25.63-8.66,9.68-17.25,21-19.82,34-2.4,12.15,2.09,24,13,30.26,9.84,5.6,21.82,6.31,32.89,6.08,13.44-.28,28.13-.93,40.5-6.73,13.5-6.32,21.63-19.75,35.16-26.13a56.88,56.88,0,0,1,20.69-5.3c3-.2,3.35-4.93,0-4.7a62.27,62.27,0,0,0-37.57,16.12c-5.35,4.8-10.19,10.25-16.41,14-6,3.61-13,5.35-19.89,6.36-12.17,1.79-25.26,2.66-37.48.88-10.55-1.54-21.65-6.14-25.37-17-4.62-13.49,4.06-27.8,12.09-38.06,7.34-9.37,15.95-17.64,24.84-25.51,17.81-15.79,37.33-30.28,51.28-49.84,7.81-11,12.91-23.09,16.24-36.11,3.92-15.32,6.73-31,9.46-46.54,5.5-31.45,9.72-63.11,14.78-94.64s10.95-62.86,19.73-93.52c8.86-31,20.45-61.07,32.86-90.76,5.48-13.12,10.85-26.36,17.21-39.1,5.93-11.88,13-23.4,22.57-32.7,8.31-8.06,18.35-13.73,29.82-15.73,10.48-1.83,22-.84,31.29,4.68A33.34,33.34,0,0,1,341,521c1.64,2.46,6-.5,4.31-3Z"/><path d="M396.09,915.18a146.07,146.07,0,0,0,53.85,47.21c12.13,6.12,25.09,10,38.18,13.42,13.74,3.64,27.55,7,41.51,9.74,27.39,5.33,55.19,7.85,83,5.31a253,253,0,0,0,75.9-19,233.88,233.88,0,0,0,34.76-18.34c7.43-4.77,15.58-9.42,21.47-16.15,1.19-1.36,2.3-2.79,3.4-4.23.55-.73-3.37-4.13-3.68-3.73a56,56,0,0,1-6.63,7.55,81.19,81.19,0,0,1-9.55,7.13,271.32,271.32,0,0,1-32.9,19.25A249,249,0,0,1,622,985.6c-26.51,3.75-53.23,3-79.66-1-13.81-2.11-27.48-5-41.05-8.31s-27.24-6.59-40.33-11.4a130,130,0,0,1-56.64-40.55q-2.7-3.41-5.17-7a9.75,9.75,0,0,0-2.6-2.64c-.7-.45-1.06-.35-.49.48Z"/><path d="M655.5,744.74c-18.2-20.08-37-39.57-56-58.9s-38-38.64-57.12-57.86S504,589.71,484.44,571q-14.73-14.07-29.75-27.86c-9-8.25-18-16.62-27.67-24-18.12-13.82-44.21-27.58-66.95-16.58a27.56,27.56,0,0,0-6.7,4.56c-.52.47,1.82.37,1.91.36a5.83,5.83,0,0,0,3.11-.94,24.18,24.18,0,0,1,14.16-6.38c6.2-.55,12.54.87,18.38,2.85,11.1,3.76,21.24,9.79,30.56,16.83s18.08,15.17,26.78,23.13q14.52,13.26,28.74,26.84c19.06,18.14,37.79,36.63,56.37,55.27s37,37.41,55.51,56.17,36.75,37.54,54.54,56.87q3.47,3.76,6.91,7.56c.52.58,2,.21,2.67.1.17,0,2.73-.73,2.49-1Z"/><path d="M720,719.81q-39.19,3.13-78.5,4.33-11.19.33-22.39.51c-1.07,0-1.26.88-.61,1.59a4.74,4.74,0,0,0,3.45,1.33q39.31-.63,78.56-3.21,11.18-.74,22.33-1.62c1-.09,1.3-.84.62-1.6a4.72,4.72,0,0,0-3.46-1.33Z"/><path d="M377.4,917.07c-25.93-2.2-52.27-4.47-77-13a140.1,140.1,0,0,1-20.06-8.65c-.83-.45-2.43.29-3.19.64-.25.11-2.14,1.05-1.43,1.43,23.26,12.33,49.54,17,75.45,19.73,7.41.79,14.83,1.43,22.25,2.06a6.61,6.61,0,0,0,3.45-1c.36-.2,1.68-1.12.56-1.22Z"/><path d="M237.28,924.9c-20.46,2.36-40.43-4.29-58.89-12.47-5.31-2.36-10.55-4.86-15.79-7.37-1-.47.14.9.29,1.07a9.66,9.66,0,0,0,2.73,2.32c18.36,8.83,37.43,17.9,57.94,20.09a78.43,78.43,0,0,0,17.26,0c.58-.06-.84-1.49-1-1.63-.43-.45-1.8-2.06-2.56-2Z"/><path d="M581.05,335.8q-10.95,23-20.7,46.6t-18.17,47.52q-8.49,24.1-15.72,48.64t-13.07,49.18q-5.91,24.87-10.5,50-.57,3.12-1.12,6.23c-.24,1.37,4.61.08,4.88-1.43q4.39-25.07,10.12-49.87t12.73-49.27q7-24.33,15.23-48.29t17.83-47.65q9.56-23.64,20.36-46.76c.89-1.91,1.8-3.81,2.7-5.72s-4-.47-4.57.78Z"/><path d="M486.56,459.77c-9,20-19.12,39.49-27.69,59.69-2.47,5.84-4.84,11.72-7,17.69-.9,2.51,4.18,3.75,5.1,1.19,7.54-21.1,17.6-41.23,27.24-61.42,2.37-5,4.72-9.94,7-14.95a2.11,2.11,0,0,0-1.21-2.85c-.94-.45-2.92-.54-3.46.65Z"/><path d="M530.72,145.71c-1.67,8-2.24,16.31-2.74,24.42-.81,12.87-1,25.94,1.06,38.71a130,130,0,0,0,29.78,63.76A128,128,0,0,0,586.31,297a65.65,65.65,0,0,0,33.62,10.65,87.66,87.66,0,0,0,34.58-6.28,94.87,94.87,0,0,0,29.72-18.22c17.22-15.73,29.14-37,37.32-58.66,1-2.53,1.87-5.09,2.73-7.66.41-1.22-1-2-2-1.93a3.22,3.22,0,0,0-2.9,2.21c-7,21-17.57,41.7-32.69,58S650.3,302,628.16,303.38a61.44,61.44,0,0,1-32.47-6.53c-10.47-5.44-19.78-13.46-27.89-22a127.82,127.82,0,0,1-32.42-60.15c-2.66-12-3.21-24.35-2.86-36.65a237.63,237.63,0,0,1,2.61-29.78c.15-1,.3-1.92.5-2.87.61-2.92-4.42-2.08-4.91.28Z"/><path d="M584.44,149.93c-9.74-4.13-17.84-2.81-23.5-1.8a78.37,78.37,0,0,0-11.75,2.68c-2.87,1-5.39,2.26-8.57,3.64s-7,2.86-13.48,6c3.35-.37,6.68-1.62,10.29-2.91a109.16,109.16,0,0,1,11-3.45,59.24,59.24,0,0,1,9.9-1.46,56,56,0,0,1,9.42,0,31.67,31.67,0,0,1,7.5,1.77,36.22,36.22,0,0,0,5.87,1.92,6.85,6.85,0,0,0,4.9-.83c1.29-.87,2.08-2.34-1.49-5.52l0,0Z"/><path d="M628.64,154.06c4.34-1.92,10.57-2.49,15.75-2.85a77.19,77.19,0,0,1,13.69,0c4.38.46,9,1.51,23.17,8-12.55-2.12-20.38-3.53-25.64-3.73s-8,.82-11.1,1.55S637.81,158.22,628.64,154.06Z"/><path d="M619.46,214.77a24.57,24.57,0,0,1-8.18,12.47c-.62.51-.91-1.12-.93-1.39-.06-.72-.08-1.92.58-2.45a22.42,22.42,0,0,0,4.53-5A20.13,20.13,0,0,0,617,215.7c.24-.5.45-1,.65-1.54l.27-.75c.17-.49-.09.3.06-.2,0-.15.09-.3.14-.46.12-.44.56-1.44,1.07-.71a3.69,3.69,0,0,1,.24,2.73Z"/><path d="M584.77,218.74a24.57,24.57,0,0,0,11.75,9.2c.75.28.51-1.35.44-1.62-.18-.7-.55-1.85-1.34-2.14a22.22,22.22,0,0,1-5.89-3.23,20.16,20.16,0,0,1-2.37-2.1c-.38-.4-.75-.82-1.11-1.25l-.49-.63c-.32-.41.17.26-.13-.17l-.27-.39c-.26-.37-1-1.18-1.25-.33a3.68,3.68,0,0,0,.66,2.66Z"/><path d="M629.72,176c11.91,5.69,25.29,2.47,37.41-.72.66-.17,1.51-.72,1.44-1.51s-.93-1-1.57-.87c-11.36,3-24.07,6.29-35.27.94-1.3-.62-3.63,1.39-2,2.16Z"/><path d="M542.31,179.48a16.09,16.09,0,0,0,8.1,1.82,97.34,97.34,0,0,0,10-.25c6.16-.53,12.27-2.25,16.87-6.57a1,1,0,0,0-.12-1.67,1.91,1.91,0,0,0-2.13.48c-4,3.77-9.64,5-15,5.37-2.84.2-5.7.21-8.54.18a13.77,13.77,0,0,1-7.15-1.51c-1.25-.74-3.57,1.23-2,2.15Z"/><path d="M718.85,173.05c3-6.59,8.33-13.17,15-16.24a10.73,10.73,0,0,1,10.67.51,14.38,14.38,0,0,1,5.53,8.74c1,4.16.89,8.61.71,12.86a54.91,54.91,0,0,1-1.69,11.89c-1.86,6.95-5.71,13.72-11.85,17.73-6.4,4.19-15.37,4.08-21.38-.79-.64-.52-3.3,1-2.65,1.49,6,4.9,14.77,4.86,21.67,1.86,7.37-3.21,12.85-9.64,15.74-17a47.15,47.15,0,0,0,2.9-13.52,58.22,58.22,0,0,0-.27-14.27c-.69-4-2.5-7.92-5.9-10.32s-7.69-2.33-11.52-1.09c-8.9,2.88-16.09,10.81-19.88,19.13-.25.55,1.14.24,1.28.2a2.58,2.58,0,0,0,1.61-1.13Z"/><path d="M730.67,351.93c14.14-5.31,29.89-6.17,43.66,2.68,11.95,7.68,20.87,20.4,28,33.19,17.71,31.66,29.65,67.58,36.11,103.55,6.8,37.84,8.3,76.51,11.1,114.69s5.77,76.12,8.24,114.2c2.74,42.39,4.4,84.92,1.84,127.1a2.65,2.65,0,0,0,1.6,2.51c17.82,7.43,36,16.34,49.28,32.29,12.43,15,19.11,35,14.2,54.31-4.27,16.85-16,30.68-30.71,36.77-17.15,7.08-37,4.42-54-4-19.17-9.5-35.15-25.5-48.91-42.9-.92-1.16-4.68-2.3-4.91,0-1.56,15.52-20.32,20.34-30.71,10.58-15.47-14.53-12.7-40.29-6.44-58,3.7-10.49,8.71-20.28,12.84-30.54,2-4.83,3.24-9.6,2.36-15.06-1-6.27-3.54-12.47-5.42-18.51q-11.58-37.2-21.64-74.9-20.12-75.37-34-152.23c-4.54-25-8.68-50.2-12.06-75.41-3.15-23.46-5.4-47.24-3.89-70.72a235.57,235.57,0,0,1,4.65-32.12c1.66-8.1,3.2-16.27,5.46-24.16,3.83-13.34,10.58-23.84,22.44-29.42a69.93,69.93,0,0,1,10.91-3.92c1.25-.35,1.29-1.82.57-2.81a3.6,3.6,0,0,0-3.83-1.14c-13.36,3.73-25.25,10.78-31.55,24.67-3,6.64-4.86,13.86-6.47,21.09-2.17,9.72-4.36,19.55-5.83,29.46-3.52,23.62-2.53,48,.07,72,2.81,25.94,7.07,51.8,11.53,77.53q14,80.63,34.79,159.91,10.41,39.57,22.5,78.65c2,6.36,4.37,12.72,5.88,19.2,1.56,6.66,0,11.91-2.46,17.78-4.32,10.36-9.35,20.34-12.94,31.09-6.12,18.37-7.32,43.13,7.33,58.43,10.28,10.74,28.63,12,37.68,0a19.44,19.44,0,0,0,3.67-9.8l-4.91,0c25.78,32.58,63.41,61.93,103.38,51.59,16.83-4.36,30.83-16.87,37.73-34.29,7.45-18.83,3.91-39.9-7.19-57-13.83-21.34-35.73-32.85-57.16-41.79l1.6,2.51c2.33-38.47,1.22-77.23-1.06-115.91-2.34-39.64-5.54-79.27-8.45-118.89-1.45-19.85-2.85-39.71-4.37-59.57-1.55-20.13-3.4-40.29-6.84-60.24C838,457.44,825.89,420.57,807.91,388c-8-14.4-17.89-28.34-31.36-36.82-15.47-9.74-33.25-9.19-49.14-3.23-3.14,1.18,1,4.78,3.26,3.95Z"/><path d="M708.17,244.16c-5.57,13.16-2.51,29.64,3,43.57,5.28,13.44,12.22,26.08,19,38.55q5.14,9.53,10.38,19c.66,1.19,2.6-.05,2-1.22-6.25-11.31-12.49-22.64-18.44-34.18-3.18-6.18-6.28-12.44-9.06-18.89-3.17-7.35-5.89-15.08-7-23.14s-.66-16.34,2.25-23.2a1,1,0,0,0-.6-1.32,1.26,1.26,0,0,0-1.39.86Z"/><path d="M588.94,254.47c11.87,8.23,29.26,9,40.73-.44.84-.68-3.56-3-4.6-2.12-8.67,7.11-22.68,9.36-32.25,2.72a6.61,6.61,0,0,0-3.49-1.26c-.88,0-1.26.5-.39,1.1Z"/><path d="M593.84,336.93c26.93,8.57,55.38,17.16,83.75,10.51a71.67,71.67,0,0,0,21.79-8.92c1.07-.68,2-1.95,1.45-3.26a2.21,2.21,0,0,0-3.15-.88c-23.82,14.95-53.37,11.77-79.24,4.76-7.6-2.06-15.1-4.45-22.6-6.83-2.66-.85-5,3.66-2,4.62Z"/><path d="M776.37,836.72a64.43,64.43,0,0,1,45.13-8.42,59.32,59.32,0,0,1,12.56,3.75,3.34,3.34,0,0,0,3.93-1.18,2.15,2.15,0,0,0-1-3.25,70.32,70.32,0,0,0-50.15-1.23,68.84,68.84,0,0,0-13.31,6.34c-1.14.7-2,2.17-1.1,3.41a3,3,0,0,0,3.91.58Z"/><path d="M610,96.44c8.75,14.83,24.17,23.65,39.69,29.93,8.38,3.39,17,6.18,25.59,8.93a231.09,231.09,0,0,0,30.27,7.93c11.39,2,23.11,2.53,34.51.34a4.76,4.76,0,0,0,2.87-2.18c.32-.52.82-2-.38-1.76-20.37,3.92-40.95-1-60.38-7.09-8.69-2.71-17.39-5.51-25.89-8.77a121.37,121.37,0,0,1-23-11.28,60.49,60.49,0,0,1-19.45-19.66c-.68-1.14-4.69,2.1-3.8,3.61Z"/><path d="M613,55.07c12.53-6,26.65-6,40.09-3.82,13.09,2.13,26.36,5.66,38.3,11.5C714.1,73.87,729.7,95.53,739,118.49c6.11,15.06,9.86,31,12.73,46.93.27,1.51,5.29,2.53,5,.91-5-27.87-13-56.18-30.91-78.71a94.48,94.48,0,0,0-29.07-24.74c-12.45-6.66-26.33-10.62-40.14-13.3-15.72-3.06-32.83-3.93-47.64,3.11-1,.49-.2,1.32.46,1.72.84.5,2.55,1.13,3.54.66Z"/><path d="M628.59,72.21c19-3.07,38.53.7,55.81,8.93,17.5,8.34,32.46,21.1,45,35.78a220.85,220.85,0,0,1,19.41,26.89c1.32,2.11,5.45-1.09,4.1-3.27-10.5-16.91-22.91-32.72-38.12-45.64-15-12.73-32.82-22.26-52.18-26.23a91.34,91.34,0,0,0-32.76-.88,3.41,3.41,0,0,0-2.89,2.31,1.59,1.59,0,0,0,1.67,2.11Z"/><path d="M641.79,89.85c4.39,4.66,10.26,7.43,15.86,10.35s11.27,5.82,17,8.52c11.22,5.27,22.89,9.91,35.08,12.4a91.76,91.76,0,0,0,20.71,1.9c1.16,0,.47-1.93.19-2.42-.51-.93-1.49-2.07-2.66-2-24.38.61-47.1-10-68.27-21-5.7-3-12.26-5.6-16.73-10.35-.52-.56-1.82-1.47-2.38-.51s.62,2.52,1.19,3.13Z"/><path d="M604.75,91.14a207.75,207.75,0,0,1-68.69,48.42,208.93,208.93,0,0,1-22.23,8.16c-1.12.34.42,1.11.79,1.23a6.2,6.2,0,0,0,3.59.15,209.41,209.41,0,0,0,74-40.29,206.45,206.45,0,0,0,17.49-16.62c.63-.67-1.36-1.16-1.69-1.23-.76-.16-2.62-.52-3.27.18Z"/><path d="M614.33,51.24c-28.82-3.17-57.51,7.66-80,25.38-10.75,8.49-20.65,18.64-26.86,31a69.32,69.32,0,0,0-6.22,21.05c-1.2,8-1.88,16.08-2.41,24.14-2.1,32.3-.17,64.69,2.86,96.87,1.52,16.12,3.33,32.21,5.09,48.31,1.73,15.82,3.95,31.63,2.84,47.57A135.27,135.27,0,0,1,506,368.61c-1.78,7.25-3.93,14.4-5.67,21.66a104.82,104.82,0,0,0-3.23,22c-.16,7.81,1.47,15.41,2.34,23.13a48,48,0,0,1,0,11.73c-.4,2.9,4.58,4,5,.8,1.06-7.8-.48-15.57-1.55-23.29a75.86,75.86,0,0,1,.16-22c2.23-14.71,7.68-28.71,10.09-43.4A141.45,141.45,0,0,0,515,336.42a217,217,0,0,0-1.59-22.92c-1.66-15.86-3.48-31.71-5.14-47.57-3.31-31.77-5.94-63.7-5.15-95.68q.3-11.88,1.27-23.75c.65-7.73,1.29-15.59,3-23.16,3.08-13.62,11-25.08,21-34.64,20.14-19.3,47.17-32.89,75.43-33.22a86.28,86.28,0,0,1,10.29.52c3.37.37,3.28-4.42.21-4.76Z"/><path d="M546.23,64.54C522.74,73.82,504.37,93,493,115.25c-13,25.35-16.78,54.42-16.07,82.61.8,31.91,7.44,63.25,12.61,94.63A154.35,154.35,0,0,1,491.93,314a140.49,140.49,0,0,1-1.13,20.09c-1.61,13.22-4.59,26.21-7.15,39.26s-4.66,26.36-4.59,39.75A130.64,130.64,0,0,0,481,433.64c1.15,7.06,2.51,14.2,2.35,21.38a41.44,41.44,0,0,1-1.59,10.49c-.74,2.56,3.83,4.72,4.69,1.71,4-13.93-.48-28.17-2-42.1-1.47-13.2-.19-26.48,2-39.53,4.36-26,12.25-51.95,9.8-78.64-.7-7.58-2.17-15.1-3.46-22.59-1.35-7.91-2.75-15.81-4.09-23.72-2.68-15.86-5.11-31.79-6.33-47.84-2.17-28.59-.45-58.3,10.52-85.1,9.34-22.82,25.72-43.53,47.85-55A89.09,89.09,0,0,1,549,68.92c2.7-1.07-.25-5.36-2.76-4.38Z"/><path d="M520.38,152.27c-7.07,15-6.52,32.35-6,48.57A411.79,411.79,0,0,0,520,255.92c1.51,8.92,3.42,17.73,5.36,26.56s3.79,17.95,4.25,27.11c.88,17.53-3.25,34.5-6.1,51.65-3,17.88-3.2,36.37-2.13,54.43q.2,3.4.48,6.79c.09,1.19,4.61-1,4.51-2.32a268.76,268.76,0,0,1,.67-54.4c1.06-8.65,3-17.15,4.46-25.73a174.36,174.36,0,0,0,2.71-25.58c.38-18.17-5-35.62-8.35-53.31a410.68,410.68,0,0,1-6.58-54.72c-.46-8.78-.75-17.61-.48-26.4.24-8,1.09-16.13,3.63-23.79a51.66,51.66,0,0,1,2.26-5.63c.48-1-.91-.67-1.41-.48a5.61,5.61,0,0,0-2.87,2.17Z"/><path d="M541.66,251.18c-.32,9,2,17.74,4.36,26.34a164.92,164.92,0,0,1,5.43,25.64c1.95,17.09.93,34.46-1.45,51.45-1.32,9.38-3.08,18.7-5.16,27.94-.36,1.61,4.75,2.76,5.12,1.13a300.22,300.22,0,0,0,7.34-50.51c.86-17.16-.44-34.21-5-50.8-2.7-9.83-5.9-19.75-5.53-30.07.06-1.78-5.06-2.61-5.12-1.12Z"/><path d="M594,74a226.1,226.1,0,0,1-57.12,45.7q-9.06,5.09-18.55,9.32a2,2,0,0,0-.54,3,3,3,0,0,0,3.52,1,229.74,229.74,0,0,0,61.86-40.74q7.72-7.11,14.76-14.93c2-2.2-2.12-5.38-3.93-3.36Z"/><path d="M589.11,64C583.31,65,578,67.7,573,70.62c-4.8,2.76-9.5,5.72-14.08,8.84a222.15,222.15,0,0,0-26.09,20.77c-4.63,4.3-9.06,8.81-13.31,13.48-2,2.19,2.16,5.32,4,3.33a217.64,217.64,0,0,1,50.15-41c5.47-3.24,11.1-6.51,17.42-7.7a1.88,1.88,0,0,0,1.38-2.64A3.07,3.07,0,0,0,589.11,64Z"/><path class="cls-3" d="M790.18,347.12c6.92-31.87,14.26-47.17,18.88-60.83s6.51-25.68,10.15-40.11,9-31.28,14.93-44.58c11.8-26.59,25.66-39,34.22-46.52a85.05,85.05,0,0,1,11.87-9.25c4.63-2.92,10.91-6.18,21.11-12.08s24.32-14.45,44.73-19.57,47.09-6.84,62.82-6.41,20.53,3,28,9.72c1.89,15.68-17.53,36-35.55,54.1s-34.62,33.79-50.84,50.06-32.07,33.06-45.58,44.64A134.22,134.22,0,0,1,867,289.83c-13.28,5.6-28.67,10.41-42.59,18.46S798,327.63,790.18,347.12Z"/><path class="cls-4" d="M790.42,347.22l-.5-.16A327.12,327.12,0,0,1,805,296.57c1.37-3.64,2.66-7.07,3.77-10.36a244.49,244.49,0,0,0,6.87-26.09c1-4.48,2-9.12,3.28-14A291.87,291.87,0,0,1,833.9,201.5c12-26.94,25.94-39.26,34.29-46.62a86.21,86.21,0,0,1,11.9-9.28c2.62-1.65,5.81-3.43,9.84-5.69,3.21-1.79,6.84-3.82,11.28-6.39l1.54-.89c10-5.84,23.82-13.83,43.25-18.71,20.09-5,46.68-6.86,62.9-6.41s21,3.32,28.14,9.79l.07.06v.1c1.85,15.33-15.8,34.44-35.62,54.31-9.21,9.23-18.09,17.89-26.67,26.26-8.35,8.15-16.25,15.86-24.18,23.81-3.93,3.95-7.89,8-11.71,11.85-12.16,12.35-23.64,24-33.88,32.8a135.14,135.14,0,0,1-38,23.58c-3.93,1.66-8,3.21-12.23,4.86-10.1,3.9-20.54,7.93-30.33,13.59C808,318.05,797.19,330.35,790.42,347.22Zm159.4-233.67c-1.25.28-2.48.58-3.69.88-19.36,4.86-33.1,12.83-43.12,18.65l-1.53.89c-4.45,2.57-8.08,4.61-11.29,6.4-4,2.25-7.21,4-9.82,5.68a84.33,84.33,0,0,0-11.83,9.23c-8.32,7.33-22.25,19.59-34.16,46.43a291.21,291.21,0,0,0-14.91,44.53c-1.24,4.89-2.27,9.51-3.28,14a249.25,249.25,0,0,1-6.88,26.15c-1.12,3.29-2.41,6.73-3.78,10.38a326.18,326.18,0,0,0-14.47,47.59c6.87-15.62,17.47-27.2,33.18-36.28,9.82-5.69,20.28-9.72,30.4-13.63,4.27-1.64,8.3-3.2,12.21-4.85a134.31,134.31,0,0,0,37.87-23.5c10.22-8.76,21.69-20.42,33.84-32.77,3.83-3.88,7.78-7.9,11.72-11.85,7.93-7.95,15.83-15.66,24.19-23.81,8.58-8.38,17.45-17,26.66-26.26,19.69-19.74,37.22-38.7,35.48-53.78-9.2-8.28-15.23-9.24-27.72-9.59C993.67,107.61,969.31,109.19,949.82,113.55Z"/><path class="cls-5" d="M825.34,279l-.42-.31c38.9-52.61,65-77.46,83.47-93.24a294.8,294.8,0,0,1,57.29-39.15c22-11.65,43.91-20.6,71.11-29l.15.5c-27.17,8.43-49.07,17.37-71,29a294.33,294.33,0,0,0-57.2,39.09C890.32,201.59,864.21,226.42,825.34,279Z"/><path class="cls-3" d="M797.52,349.89C825,332.25,841,326.63,853.88,320.23s22.76-13.55,35.55-21.18,28.5-15.73,42.07-21c27.15-10.46,45.7-9.42,57.1-8.7a85.13,85.13,0,0,1,14.93,1.85c5.33,1.21,12.08,3.34,23.47,6.38s27.41,7,45.46,17.79,38.14,28.46,49,39.9S1133.8,352,1134.32,362c-9.75,12.42-37.88,13.08-63.39,13.11s-48.38-.58-71.35-.55-46.06.7-63.79-.66a134.43,134.43,0,0,1-43.48-10.18c-13.34-5.43-27.63-12.91-43.16-17.06S816.83,341.64,797.52,349.89Z"/><path class="cls-4" d="M1115.1,372.24c-12.11,2.71-27.78,3.07-44.17,3.09-13,0-25.44-.14-37.42-.28-11.68-.15-22.71-.28-33.93-.27-5.58,0-11.23.05-16.68.1-17.33.14-33.69.27-47.13-.76a135.18,135.18,0,0,1-43.55-10.2c-4-1.6-7.9-3.36-12.09-5.21-9.89-4.39-20.12-8.92-31-11.84-18.39-4.91-34.74-3.88-51.46,3.26l-.25-.46a326.61,326.61,0,0,1,46.4-25c3.54-1.61,6.88-3.13,10-4.67a244.83,244.83,0,0,0,23.31-13.59c3.88-2.46,7.89-5,12.22-7.59a292.27,292.27,0,0,1,42.12-21c27.5-10.59,46.09-9.42,57.2-8.71a85.34,85.34,0,0,1,15,1.85c3,.69,6.53,1.68,11,2.94,3.54,1,7.55,2.13,12.5,3.45l1.71.46c11.24,3,26.62,7.06,43.82,17.35,17.75,10.63,37.85,28.16,49,39.95s12.47,17.17,13,26.81v.1l-.06.08C1130.56,367.18,1123.73,370.31,1115.1,372.24ZM811.5,345.06c12.11-2.71,24.38-2.26,37.71,1.3,11,2.93,21.22,7.48,31.13,11.87,4.19,1.85,8.14,3.6,12.07,5.21a134.83,134.83,0,0,0,43.4,10.16c13.41,1,29.77.89,47.08.75,5.46,0,11.11-.08,16.69-.09,11.23,0,22.26.12,33.93.26,12,.15,24.38.3,37.42.29,27.88,0,53.68-1.05,63.12-12.94-.65-12.36-4.23-17.3-12.82-26.38-11.14-11.77-31.19-29.26-48.9-39.86-17.13-10.25-32.48-14.32-43.68-17.3l-1.72-.45c-5-1.33-9-2.46-12.5-3.46-4.44-1.25-7.95-2.24-11-2.93a85.15,85.15,0,0,0-14.89-1.84c-11.07-.7-29.59-1.87-57,8.68a292.1,292.1,0,0,0-42,20.94c-4.33,2.59-8.33,5.13-12.21,7.58A244.64,244.64,0,0,1,854,320.47c-3.12,1.54-6.46,3.06-10,4.67a326.13,326.13,0,0,0-43.88,23.42A78.43,78.43,0,0,1,811.5,345.06Z"/><path class="cls-5" d="M1134.2,362.19c-25.17-13.25-47-22.42-70.72-29.71a294,294,0,0,0-68.09-12.8c-24.16-1.88-60.18-2.79-124.83,6.9l-.08-.52c64.71-9.69,100.77-8.78,124.95-6.91a295,295,0,0,1,68.2,12.83c23.78,7.3,45.61,16.48,70.81,29.75Z"/></g></g></svg>