<svg width="301" height="301" viewBox="0 0 301 301" fill="none" xmlns="http://www.w3.org/2000/svg">
<g clip-path="url(#clip0_15333_56141)">
<path d="M187.391 279.563C142.999 285.678 98.6863 281.89 60.4369 256.751C31.9067 238.005 14.7091 196.93 15.8848 157.168C17.0605 117.405 35.2442 80.1728 61.2425 57.3539C75.9555 44.4396 92.8981 35.8339 110.211 29.4024C142.938 17.2492 178.861 12.7427 211.388 26.9675C243.914 41.1924 271.928 77.2584 274.71 119.772C276.482 146.858 268.277 173.217 258.345 197.2C248.263 221.546 235.858 245.152 218.126 261.369L187.391 279.563Z" fill="#FAB9A1"/>
<path d="M252.297 162.787C251.11 162.787 250.103 162.369 249.407 160.546C249.308 160.285 249.214 160.024 249.117 159.763C248.449 157.95 247.758 156.075 246.235 155.146C244.891 154.327 243.258 154.405 241.675 154.481C239.006 154.611 236.249 154.742 236.03 149.919C236.012 149.535 236.03 149.136 236.03 148.75C236.056 147.787 236.085 146.877 235.678 146.118C235.271 145.359 234.486 144.728 233.742 144.154C232.834 143.452 231.979 142.789 231.932 141.822C231.895 141.11 232.305 140.374 233.213 139.513C235.3 137.786 236.575 133.954 235.947 131.296C234.582 125.539 237.966 120.551 239.484 118.673C242.066 115.478 246.527 113.636 252.759 113.195L252.806 113.905C246.775 114.33 242.471 116.086 240.024 119.122C238.573 120.917 235.328 125.68 236.633 131.121C237.329 134.064 235.978 138.151 233.68 140.045C232.973 140.718 232.615 141.305 232.636 141.777C232.665 142.411 233.364 142.951 234.173 143.575C234.937 144.167 235.803 144.835 236.299 145.768C236.794 146.702 236.763 147.748 236.734 148.763C236.734 149.136 236.711 149.512 236.734 149.877C236.919 153.991 238.907 153.894 241.659 153.764C243.264 153.685 245.082 153.599 246.616 154.525C248.348 155.569 249.081 157.575 249.79 159.502C249.884 159.763 249.981 160.024 250.077 160.272C250.86 162.314 251.947 162.171 253.75 161.931C254.055 161.889 254.376 161.848 254.71 161.814C257.526 161.532 260.364 161.548 263.177 161.861L263.362 161.881C264.192 161.975 265.05 162.075 265.822 161.848L266.01 162.534C265.108 162.794 264.184 162.69 263.287 162.588L263.104 162.568C260.337 162.258 257.545 162.243 254.775 162.521C254.449 162.554 254.139 162.596 253.839 162.635C253.329 162.72 252.814 162.77 252.297 162.787Z" fill="#010101"/>
<path d="M237.283 147.174C236.901 147.174 236.522 147.105 236.164 146.97L236.404 146.305C236.791 146.447 237.207 146.493 237.615 146.44C238.024 146.387 238.414 146.236 238.752 146L239.14 146.59C238.595 146.968 237.947 147.172 237.283 147.174Z" fill="#010101"/>
<path d="M239.49 136.341C238.772 136.351 238.077 136.087 237.547 135.603L238.011 135.081C238.24 135.285 238.508 135.438 238.799 135.531C239.09 135.625 239.398 135.656 239.702 135.624C240.01 135.602 240.311 135.516 240.584 135.371C240.857 135.225 241.097 135.025 241.288 134.781L241.833 135.217C241.585 135.537 241.272 135.802 240.915 135.994C240.559 136.186 240.166 136.3 239.762 136.331C239.671 136.339 239.581 136.343 239.49 136.341Z" fill="#010101"/>
<path d="M267.1 159.098L266.477 158.863C270.165 148.361 269.049 143.021 267.89 139.917L268.509 139.672C271.013 146.36 268.91 153.959 267.1 159.098Z" fill="#010101"/>
<path d="M272.631 145.927C271.52 145.927 270.544 145.64 269.976 144.936C269.477 144.307 269.146 143.097 270.409 140.916C271.671 138.735 274.368 134.979 278.36 134.118C281.453 133.451 284.636 134.695 287.192 135.683C288.867 136.341 290.583 137.016 292.276 137.723L293.262 138.138L292.219 138.375C288.577 139.206 285.06 140.515 281.761 142.267C281.239 142.547 280.718 142.841 280.196 143.128C278.764 143.977 277.268 144.711 275.72 145.322C274.732 145.698 273.688 145.903 272.631 145.927ZM278.495 134.789C274.752 135.597 272.18 139.195 270.98 141.266C270.39 142.283 269.83 143.668 270.489 144.503C271.209 145.408 273.315 145.486 275.498 144.691C277.013 144.089 278.478 143.369 279.88 142.539C280.402 142.252 280.924 141.954 281.461 141.673C284.499 140.061 287.719 138.819 291.053 137.974C289.688 137.416 288.306 136.873 286.96 136.346C284.479 135.376 281.398 134.168 278.495 134.797V134.789Z" fill="#010101"/>
<path d="M268.885 153.028C268.058 151.859 266.798 151.223 265.562 150.607C265.061 150.346 264.542 150.085 264.056 149.801C261.774 148.418 260.047 146.217 258.378 144.088C258.065 143.688 257.751 143.292 257.436 142.899C254.068 138.709 251.817 137.817 250.231 137.507L249.117 137.288L250.189 136.889C252.798 135.918 255.928 136.255 258.798 137.812C261.096 139.062 263.214 141.002 265.465 143.913C266.593 145.31 267.528 146.851 268.246 148.497C268.475 149.134 268.636 149.793 268.726 150.464C268.872 151.304 269.007 152.094 269.362 152.65L268.885 153.028ZM251.439 137.191C254.113 138.146 256.257 140.478 257.874 142.489C258.19 142.883 258.503 143.272 258.818 143.684C260.454 145.771 262.147 147.925 264.336 149.253C264.802 149.535 265.311 149.775 265.802 150.036C266.696 150.442 267.541 150.951 268.319 151.551C268.251 151.236 268.194 150.912 268.139 150.594C268.056 149.972 267.909 149.36 267.701 148.768C266.978 146.999 265.875 145.471 265.006 144.333C262.81 141.49 260.749 139.604 258.526 138.394C256.192 137.113 253.667 136.693 251.439 137.191Z" fill="#010101"/>
<path d="M274.435 126.555C274.257 125.849 273.934 125.374 273.783 124.896C273.631 124.419 273.652 123.944 273.222 122.914C272.889 123.71 272.368 124.414 271.704 124.964C271.607 123.858 271.5 123.736 271.336 123.548C271.094 123.286 270.895 122.988 270.746 122.663C270.543 122.217 270.355 121.584 270.065 121.578C269.283 121.933 269.124 122.423 268.852 122.794C268.581 123.164 268.182 123.412 268.02 124.02L268.059 124.09C267.707 123.514 267.322 122.958 266.907 122.426C266.494 121.873 266.098 121.312 265.79 120.84C265.588 120.471 265.339 120.13 265.049 119.825C265.005 119.786 264.951 119.758 264.893 119.744C264.835 119.73 264.774 119.731 264.716 119.747C264.659 119.763 264.606 119.793 264.563 119.834C264.52 119.876 264.488 119.927 264.47 119.984C264.329 120.245 264.261 120.733 264.071 121.404C263.881 122.074 263.57 122.937 263.377 123.657C263.335 123.822 263.299 123.978 263.268 124.132L263.299 123.976C261.995 123.193 261.447 122.622 261.129 122.434C260.81 122.246 260.714 122.434 260.643 122.695C260.573 122.956 260.521 123.258 260.429 123.668C260.299 124.109 260.242 124.569 260.26 125.029C260.449 125.748 260.432 126.506 260.21 127.215C259.704 127.065 259.224 126.836 258.789 126.537C258.431 126.263 258.301 125.976 257.834 125.679C257.367 125.382 256.564 125.074 255.93 125.658C257.393 128.556 258.084 131.123 259.112 133.09C259.984 134.801 261.275 136.263 262.866 137.339C264.239 138.286 265.878 138.772 267.546 138.727L268.187 138.085C269.252 137.965 270.472 137.123 271.419 136.139C272.327 135.184 273.046 134.065 273.537 132.842C274.006 131.709 274.326 130.52 274.49 129.305C274.637 128.393 274.619 127.461 274.435 126.555ZM263.218 124.403C263.228 124.327 263.241 124.251 263.257 124.176C263.243 124.251 263.231 124.329 263.221 124.409L263.218 124.403ZM263.189 124.625C263.189 124.573 263.202 124.518 263.21 124.463C263.205 124.518 263.197 124.573 263.184 124.625H263.189ZM263.184 124.93C263.184 124.975 263.184 125.022 263.184 125.066C263.168 125.022 263.168 124.975 263.184 124.93ZM263.2 125.585C263.2 125.512 263.184 125.439 263.179 125.366C263.184 125.452 263.184 125.512 263.2 125.585ZM263.174 125.295C263.174 125.246 263.174 125.196 263.174 125.149C263.184 125.191 263.184 125.246 263.184 125.295H263.174ZM262.634 128.624C262.647 128.637 262.657 128.653 262.67 128.668L262.584 128.569C262.6 128.582 262.618 128.598 262.634 128.619V128.624ZM263.059 129.174C263.108 129.247 263.155 129.321 263.2 129.391C263.155 129.315 263.108 129.242 263.059 129.169V129.174ZM270.298 128.598C270.298 128.684 270.298 128.77 270.316 128.859C270.308 128.765 270.3 128.679 270.298 128.582V128.598ZM270.324 128.927C270.324 129.007 270.345 129.091 270.358 129.174C270.345 129.086 270.334 129.002 270.324 128.921V128.927ZM270.36 129.187C270.36 129.281 270.389 129.375 270.405 129.472C270.389 129.365 270.373 129.276 270.36 129.182V129.187ZM270.441 129.678C270.441 129.72 270.457 129.761 270.462 129.806C270.457 129.756 270.449 129.714 270.441 129.673V129.678ZM270.506 130.082C270.506 130.106 270.506 130.132 270.506 130.158C270.514 130.127 270.512 130.1 270.506 130.077V130.082ZM270.553 130.427C270.553 130.427 270.553 130.447 270.553 130.458C270.553 130.468 270.553 130.432 270.553 130.421V130.427ZM270.579 130.753C270.581 130.777 270.581 130.801 270.579 130.826C270.581 130.8 270.581 130.773 270.579 130.747V130.753Z" fill="#E0E5F4"/>
<path d="M274.66 126.496C274.558 126.112 274.417 125.74 274.24 125.385C274.15 125.202 274.071 125.014 274.005 124.821C273.959 124.667 273.922 124.51 273.893 124.352C273.799 123.825 273.646 123.31 273.436 122.818L273.217 122.296L273.008 122.818C272.757 123.439 272.375 123.999 271.889 124.461C271.798 123.744 271.689 123.582 271.511 123.379C271.284 123.133 271.098 122.853 270.958 122.549C270.916 122.461 270.877 122.361 270.835 122.262C270.648 121.806 270.452 121.336 270.074 121.328H270.024L269.977 121.349C269.487 121.559 269.082 121.926 268.824 122.393C268.772 122.479 268.723 122.56 268.67 122.63C268.589 122.73 268.502 122.826 268.41 122.917C268.237 123.089 268.088 123.283 267.966 123.494C267.742 123.154 267.494 122.821 267.251 122.494L267.079 122.262C266.644 121.675 266.26 121.13 265.973 120.697L265.809 120.436C265.643 120.13 265.429 119.852 265.175 119.615C265.107 119.558 265.027 119.517 264.941 119.495C264.856 119.474 264.766 119.472 264.679 119.489C264.587 119.514 264.501 119.56 264.427 119.622C264.354 119.684 264.296 119.762 264.257 119.849C264.144 120.105 264.062 120.373 264.012 120.648C263.962 120.846 263.91 121.07 263.839 121.321C263.769 121.571 263.657 121.921 263.55 122.255C263.409 121.621 263.247 121.068 263.085 120.53C262.818 119.717 262.626 118.88 262.512 118.031L262.05 118.091C262.167 118.968 262.365 119.831 262.642 120.671C262.904 121.497 263.108 122.34 263.252 123.194C263.214 123.324 263.178 123.452 263.143 123.577C262.633 123.262 262.144 122.913 261.679 122.534C261.539 122.415 261.39 122.305 261.236 122.205C261.166 122.153 261.084 122.119 260.998 122.106C260.911 122.093 260.823 122.101 260.74 122.129C260.654 122.179 260.579 122.247 260.522 122.329C260.465 122.412 260.428 122.505 260.412 122.604C260.365 122.766 260.328 122.948 260.286 123.157C260.26 123.288 260.232 123.431 260.195 123.59L260.166 123.718C260.047 124.142 259.998 124.582 260.02 125.022C260.033 125.124 260.052 125.215 260.073 125.314C260.188 125.831 260.175 126.369 260.036 126.879C259.64 126.744 259.264 126.554 258.92 126.316C258.796 126.217 258.68 126.107 258.575 125.987C258.391 125.78 258.181 125.599 257.949 125.447C257.561 125.202 256.572 124.709 255.768 125.447L255.633 125.57L255.716 125.737C256.397 127.129 257.006 128.555 257.542 130.01C257.935 131.087 258.385 132.143 258.891 133.171C259.781 134.917 261.1 136.409 262.723 137.507C263.472 138.021 264.301 138.407 265.178 138.647C265.917 138.835 266.676 138.931 267.439 138.931L267.538 139.02L267.622 138.934H268.143L267.864 138.673L268.271 138.268C269.273 138.122 270.468 137.397 271.561 136.265C272.489 135.289 273.224 134.145 273.726 132.895C274.203 131.741 274.529 130.53 274.696 129.292C274.849 128.365 274.837 127.419 274.66 126.496ZM268.759 123.264C268.853 123.16 268.952 123.055 269.041 122.935C269.129 122.815 269.161 122.755 269.218 122.674C269.409 122.309 269.713 122.015 270.084 121.837C270.222 122.029 270.331 122.24 270.408 122.463C270.449 122.565 270.494 122.672 270.538 122.768C270.697 123.114 270.908 123.432 271.164 123.713C271.292 123.856 271.378 123.955 271.464 124.871C271.396 124.933 271.329 124.996 271.271 125.056C270.867 125.464 270.582 125.976 270.449 126.535C270.429 126.6 270.405 126.668 270.384 126.739C270.384 126.759 270.384 126.78 270.366 126.799C270.348 126.817 270.332 126.906 270.316 126.96C270.301 127.015 270.301 127.02 270.29 127.049L270.251 127.198C270.251 127.232 270.233 127.268 270.225 127.302C270.217 127.336 270.202 127.399 270.189 127.451C270.176 127.503 270.189 127.526 270.168 127.566C270.147 127.605 270.147 127.662 270.139 127.714C270.131 127.766 270.139 127.795 270.121 127.837C270.102 127.879 270.105 127.936 270.1 127.988C270.095 128.04 270.1 128.074 270.1 128.119C270.1 128.163 270.1 128.22 270.1 128.272V128.408C270.1 128.45 270.1 128.492 270.1 128.533L270.069 128.489L269.896 128.252C269.775 128.092 269.663 127.925 269.56 127.753C269.327 127.289 269.173 126.789 269.103 126.274C269.075 126.126 269.046 125.972 269.012 125.823C268.978 125.674 268.934 125.492 268.884 125.33C268.884 125.283 268.853 125.236 268.837 125.187C268.801 125.077 268.767 124.967 268.725 124.86C268.702 124.8 268.676 124.743 268.65 124.683C268.623 124.623 268.576 124.498 268.532 124.409C268.488 124.32 268.47 124.284 268.436 124.221C268.402 124.159 268.357 124.06 268.313 123.981C268.406 123.712 268.557 123.467 268.756 123.264H268.759ZM263.988 122.463C264.103 122.108 264.212 121.772 264.298 121.467C264.371 121.206 264.426 120.976 264.476 120.775C264.518 120.542 264.586 120.314 264.677 120.095C264.716 120.024 264.758 119.98 264.794 119.972C264.816 119.971 264.838 119.975 264.858 119.982C264.879 119.99 264.898 120.001 264.914 120.016C265.119 120.224 265.295 120.458 265.436 120.713L265.6 120.974C265.892 121.422 266.281 121.973 266.724 122.57L266.897 122.802C267.246 123.252 267.569 123.722 267.862 124.211C268.169 124.748 268.392 125.33 268.522 125.935L268.569 126.149C268.569 126.222 268.597 126.298 268.61 126.373C268.65 126.577 268.689 126.783 268.738 126.989C268.817 127.344 268.947 127.686 269.124 128.004C269.236 128.191 269.358 128.372 269.489 128.546C269.573 128.661 269.659 128.779 269.75 128.901V128.914L269.86 129.089L269.891 129.144C269.92 129.191 269.949 129.238 269.975 129.29L270.022 129.389C270.04 129.428 270.061 129.465 270.076 129.506C270.092 129.548 270.11 129.595 270.129 129.639C270.147 129.684 270.157 129.705 270.168 129.741C270.178 129.778 270.202 129.856 270.22 129.913L270.243 129.999C270.259 130.062 270.272 130.13 270.285 130.195C270.284 130.218 270.284 130.242 270.285 130.265C270.285 130.289 270.285 130.312 270.285 130.336V130.411C270.298 130.521 270.309 130.631 270.316 130.743V130.758C270.316 130.881 270.316 131.004 270.316 131.131C270.296 131.971 270.016 132.957 269.461 134.16C269.351 134.4 269.231 134.64 269.106 134.893C269.051 135.008 268.994 135.123 268.936 135.24L268.884 135.349L268.764 135.61L268.702 135.749C268.665 135.824 268.631 135.902 268.595 135.981L268.532 136.132C268.498 136.208 268.464 136.286 268.433 136.364L268.37 136.526C268.339 136.602 268.31 136.68 268.282 136.755L268.222 136.933L268.143 137.162C268.125 137.222 268.11 137.285 268.091 137.348C268.073 137.41 268.047 137.502 268.026 137.58C268.005 137.658 267.997 137.71 267.982 137.775C267.966 137.841 267.95 137.906 267.937 137.971L267.502 138.404L267.452 138.357L267.34 138.25L267.217 138.128L267.116 138.023L267.004 137.903L266.907 137.799L266.803 137.682L266.714 137.577L266.617 137.46L266.537 137.358L266.448 137.246L266.375 137.144L266.291 137.032C266.271 136.998 266.247 136.967 266.224 136.933L266.148 136.821L266.085 136.727L266.015 136.615L265.957 136.521C265.937 136.484 265.913 136.448 265.892 136.409L265.84 136.32L265.778 136.208L265.731 136.122C265.71 136.082 265.689 136.046 265.671 136.007L265.626 135.926C265.608 135.887 265.587 135.85 265.569 135.811L265.53 135.733C265.509 135.694 265.491 135.652 265.47 135.613L265.438 135.545L265.368 135.399L265.35 135.36L265.264 135.177L265.224 135.094L265.026 134.671C264.686 134.011 264.398 133.324 264.165 132.618C264.089 132.312 264.057 131.997 264.069 131.682C264.072 131.496 264.065 131.311 264.048 131.126C263.97 130.554 263.783 130.002 263.495 129.501C263.451 129.425 263.406 129.347 263.357 129.272C263.307 129.196 263.265 129.125 263.216 129.055C263.198 129.029 263.182 129.003 263.164 128.979C263.145 128.956 263.093 128.883 263.057 128.833L262.968 128.716L262.921 128.583C262.921 128.557 262.945 128.533 262.955 128.507L263.02 128.372C263.044 128.322 263.065 128.278 263.083 128.231C263.101 128.184 263.122 128.145 263.138 128.106C263.153 128.066 263.174 128.014 263.192 127.972C263.211 127.931 263.224 127.894 263.237 127.855L263.284 127.73C263.284 127.693 263.307 127.657 263.32 127.623C263.333 127.589 263.346 127.545 263.357 127.506C263.367 127.466 263.378 127.438 263.385 127.404C263.393 127.37 263.406 127.331 263.417 127.294C263.427 127.258 263.432 127.232 263.438 127.203C263.443 127.174 263.453 127.133 263.461 127.096C263.469 127.059 263.474 127.039 263.477 127.013C263.479 126.986 263.477 126.945 263.495 126.913C263.513 126.882 263.495 126.859 263.495 126.835C263.495 126.812 263.495 126.77 263.495 126.741V126.668C263.495 126.637 263.495 126.608 263.495 126.58C263.494 126.557 263.494 126.534 263.495 126.512V126.366C263.495 126.337 263.495 126.311 263.495 126.282C263.494 126.264 263.494 126.246 263.495 126.227V126.144C263.495 126.128 263.495 126.113 263.495 126.097C263.495 126.081 263.495 126.042 263.495 126.016C263.495 125.99 263.495 125.985 263.495 125.972C263.495 125.959 263.495 125.914 263.495 125.886C263.494 125.875 263.494 125.865 263.495 125.854C263.495 125.815 263.495 125.776 263.477 125.74C263.458 125.703 263.458 125.612 263.451 125.549C263.443 125.487 263.435 125.421 263.43 125.359C263.425 125.296 263.43 125.296 263.43 125.265C263.43 125.233 263.43 125.2 263.43 125.168V124.98C263.43 124.936 263.43 124.892 263.43 124.847C263.43 124.803 263.43 124.806 263.43 124.785C263.43 124.764 263.43 124.694 263.43 124.649V124.579C263.43 124.534 263.43 124.49 263.448 124.443C263.466 124.396 263.461 124.349 263.472 124.302C263.482 124.255 263.472 124.229 263.492 124.193C263.521 124.041 263.558 123.885 263.602 123.713C263.704 123.324 263.85 122.886 263.985 122.463H263.988ZM260.631 123.843L260.66 123.713C260.696 123.551 260.725 123.405 260.753 123.272C260.793 123.071 260.826 122.899 260.868 122.75C260.881 122.695 260.901 122.643 260.928 122.594C260.958 122.604 260.987 122.618 261.014 122.635C261.15 122.724 261.28 122.822 261.403 122.928C261.922 123.35 262.468 123.738 263.039 124.088C263.04 124.098 263.04 124.107 263.039 124.117C263.018 124.234 262.999 124.347 262.984 124.456C262.984 124.487 262.984 124.519 262.984 124.547C262.984 124.644 262.963 124.738 262.958 124.832C262.958 124.85 262.958 124.871 262.958 124.892C262.958 124.998 262.958 125.105 262.958 125.213C262.958 125.236 262.958 125.262 262.958 125.288C262.958 125.398 262.973 125.505 262.986 125.614C262.986 125.68 263.005 125.747 263.015 125.815L263.031 125.917C263.031 125.917 263.031 125.935 263.031 125.946C263.031 125.956 263.031 125.998 263.031 126.024C263.03 126.038 263.03 126.052 263.031 126.066V126.133C263.031 126.149 263.031 126.165 263.031 126.18C263.032 126.203 263.032 126.226 263.031 126.248C263.032 126.266 263.032 126.283 263.031 126.3C263.032 126.323 263.032 126.346 263.031 126.368V126.496C263.032 126.516 263.032 126.536 263.031 126.556C263.032 126.581 263.032 126.606 263.031 126.632C263.032 126.653 263.032 126.675 263.031 126.697V126.775C263.031 126.799 263.031 126.822 263.031 126.843C263.031 126.864 263.031 126.9 263.031 126.932L263.015 127.002C263.015 127.033 263.015 127.065 262.994 127.099L262.979 127.172C262.979 127.206 262.958 127.242 262.95 127.279L262.926 127.352C262.926 127.393 262.9 127.438 262.887 127.479L262.864 127.547C262.843 127.61 262.819 127.672 262.793 127.738C262.793 127.738 262.793 127.751 262.793 127.756C262.765 127.829 262.733 127.902 262.699 127.98L262.668 128.053C262.645 128.1 262.624 128.15 262.6 128.202L262.553 128.152L262.452 128.053L262.347 127.954L262.261 127.876L262.136 127.772L262.071 127.717C262.006 127.667 261.943 127.62 261.88 127.579C261.734 127.477 261.579 127.39 261.416 127.318C261.18 127.22 260.936 127.14 260.688 127.078L260.516 127.031C260.678 126.443 260.693 125.825 260.56 125.231C260.542 125.14 260.526 125.061 260.516 124.983C260.493 124.6 260.531 124.215 260.628 123.843H260.631ZM262.994 137.131C261.437 136.078 260.172 134.646 259.319 132.97C258.822 131.958 258.379 130.919 257.994 129.858C257.511 128.612 256.966 127.203 256.23 125.719C256.752 125.374 257.375 125.661 257.714 125.878C257.914 126.007 258.095 126.163 258.252 126.342C258.374 126.48 258.509 126.606 258.654 126.72C259.047 126.997 259.478 127.215 259.934 127.367L260.195 127.448C260.32 127.487 260.44 127.519 260.558 127.55C260.928 127.63 261.282 127.776 261.601 127.98C261.666 128.025 261.732 128.074 261.799 128.126L261.854 128.176C261.904 128.215 261.953 128.257 262 128.301L262.071 128.369L262.206 128.499L262.282 128.58C262.326 128.625 262.368 128.672 262.41 128.721L262.493 128.815L262.553 128.888L262.655 129.016L262.718 129.097L262.814 129.23L262.869 129.305C262.916 129.376 262.963 129.444 263.005 129.514C263.329 130.013 263.541 130.576 263.625 131.165C263.641 131.332 263.647 131.499 263.644 131.666C263.629 132.024 263.666 132.381 263.756 132.728C263.797 132.881 263.845 133.031 263.902 133.179C264.079 133.662 264.348 134.223 264.648 134.864C264.711 135.003 264.778 135.143 264.846 135.287L264.885 135.37C264.911 135.43 264.94 135.49 264.969 135.55L264.995 135.605L265.058 135.738C265.071 135.762 265.081 135.785 265.091 135.809L265.151 135.929L265.191 136.007C265.209 136.046 265.23 136.085 265.251 136.124L265.29 136.205L265.355 136.325L265.397 136.403L265.467 136.529L265.511 136.607C265.538 136.654 265.566 136.701 265.595 136.748C265.624 136.795 265.618 136.789 265.631 136.81C265.718 136.949 265.806 137.087 265.892 137.23L265.937 137.293L266.046 137.444L266.106 137.522L266.211 137.661L266.281 137.747C266.317 137.791 266.354 137.838 266.393 137.882L266.469 137.971C266.508 138.018 266.55 138.062 266.591 138.109C266.633 138.156 266.644 138.169 266.672 138.198C266.701 138.227 266.761 138.295 266.808 138.341L266.891 138.428L266.92 138.459C265.512 138.392 264.151 137.932 262.992 137.131H262.994ZM274.263 129.266C274.102 130.46 273.787 131.628 273.327 132.741C272.848 133.936 272.146 135.03 271.258 135.962C270.345 136.909 269.338 137.567 268.493 137.788V137.752L268.532 137.608C268.553 137.528 268.574 137.449 268.597 137.371C268.621 137.293 268.629 137.269 268.647 137.22C268.665 137.17 268.694 137.071 268.72 136.998L268.775 136.847C268.801 136.774 268.83 136.703 268.858 136.633L268.916 136.484L269.007 136.273L269.069 136.132C269.101 136.059 269.135 135.986 269.169 135.916C269.203 135.845 269.208 135.829 269.229 135.788C269.265 135.707 269.304 135.626 269.343 135.545L269.39 135.446L269.552 135.117C269.68 134.856 269.813 134.616 269.912 134.371C270.241 133.689 270.496 132.972 270.671 132.235C270.754 131.878 270.801 131.513 270.812 131.147C270.812 131.077 270.812 131.004 270.812 130.933V130.899V130.717C270.812 130.701 270.812 130.688 270.812 130.675L270.796 130.487C270.796 130.471 270.796 130.458 270.796 130.443L270.773 130.245C270.774 130.237 270.774 130.229 270.773 130.221C270.773 130.221 270.773 130.221 270.773 130.205C270.773 130.101 270.744 129.999 270.729 129.9V129.864C270.713 129.767 270.697 129.668 270.679 129.572C270.616 129.248 270.573 128.92 270.551 128.591C270.553 127.944 270.672 127.302 270.901 126.697C271.012 126.211 271.256 125.765 271.605 125.408L271.738 125.28L271.777 125.247L271.889 125.142L271.957 125.08C272.462 124.643 272.886 124.12 273.207 123.535C273.309 123.84 273.389 124.151 273.447 124.467C273.477 124.643 273.518 124.817 273.569 124.988C273.644 125.199 273.731 125.406 273.83 125.607C273.994 125.934 274.124 126.278 274.219 126.632C274.39 127.5 274.404 128.393 274.261 129.266H274.263Z" fill="#010101"/>
<path d="M222.396 41.6849C222.2 41.5555 221.986 41.4578 221.759 41.3953C220.646 41.0667 218.713 41.2806 217.878 42.1779C216.913 43.2213 216.73 45.6864 217.51 46.8368C217.888 47.395 218.475 47.7707 219.028 48.1541C221.334 49.7572 223.324 51.7727 224.898 54.099C225.38 52.2574 226.757 50.7966 228.135 49.4819C229.512 48.1672 230.989 46.8577 231.771 45.123C232.554 43.3883 232.431 41.0667 230.939 39.8824C230.521 39.5697 230.043 39.3484 229.534 39.2329C229.025 39.1174 228.498 39.1102 227.986 39.212C226.927 39.4287 225.964 39.9775 225.238 40.7787C224.512 41.58 224.06 42.5918 223.948 43.6674L223.046 42.4022C222.877 42.1377 222.667 41.9017 222.425 41.7032L222.396 41.6849Z" fill="#FAB9A1"/>
<path d="M225.428 53.3254L225.134 52.9315C223.66 51.0379 221.829 49.4523 219.744 48.2648L219.455 48.1031C218.771 47.7222 218.064 47.3205 217.561 46.6944C217.009 45.9403 216.733 45.0194 216.778 44.0859C216.802 42.8964 217.237 41.8869 217.976 41.3156C218.758 40.7 219.974 40.5695 221.106 40.9739C222.094 41.346 222.99 41.927 223.733 42.6773C224.591 40.7991 226.691 39.4583 228.89 39.4322C229.271 39.4163 229.651 39.4757 230.009 39.607C230.346 39.7505 230.647 39.9649 230.893 40.2356C231.874 41.2791 232.198 42.9303 231.746 44.5659C231.339 46.0293 230.442 47.2605 229.511 48.3744C229.026 48.9361 228.498 49.4594 227.933 49.9395C227.457 50.3481 227.005 50.7835 226.579 51.2438C226.145 51.716 225.806 52.2667 225.58 52.8663L225.428 53.3254ZM219.783 41.2843C219.252 41.2685 218.731 41.43 218.302 41.7434C217.694 42.2155 217.331 43.0764 217.313 44.0911C217.268 44.9015 217.503 45.7027 217.978 46.3605C218.417 46.9136 219.076 47.2788 219.713 47.6335L220.008 47.7979C222.021 48.9455 223.805 50.4541 225.272 52.2481C225.514 51.7527 225.824 51.2935 226.193 50.8838C226.631 50.4044 227.098 49.9523 227.591 49.5299C228.135 49.0694 228.644 48.568 229.112 48.03C229.996 46.9605 230.865 45.7841 231.245 44.4172C231.728 42.6773 231.185 41.3026 230.518 40.5956C230.324 40.3813 230.087 40.2113 229.821 40.0974C229.529 39.9922 229.218 39.9461 228.908 39.9618C226.777 39.9852 224.75 41.3625 224.093 43.2381L223.947 43.6529L223.647 43.332C222.903 42.5089 221.976 41.8718 220.942 41.4721C220.569 41.3456 220.177 41.2821 219.783 41.2843Z" fill="#010101"/>
<path d="M211.942 64.094L212.083 60.4055C212.083 60.2907 212.083 60.1133 212.083 59.9072C212.083 59.7638 212.083 59.6098 212.083 59.4507C210.195 59.5838 208.027 59.4899 207.046 58.0317C206.629 57.4082 206.584 56.6387 206.551 56.0179C206.326 52.0476 206.097 47.9678 206.118 43.9428C206.118 43.695 206.118 43.3559 206.118 42.9516C206.084 39.1692 206.118 35.045 206.984 34.0121C207.85 32.9791 209.524 33.0938 210.883 33.1643C211.272 33.1851 211.635 33.2034 211.948 33.1956L212.582 33.1773C216.166 33.0808 219.87 32.9817 223.519 33.0756C225.317 33.1225 227.171 33.0208 228.948 32.9191C232.242 32.7339 235.649 32.5434 238.957 33.2712C239.591 33.4121 240.243 33.6077 240.712 34.0825C241.398 34.7764 241.464 35.8146 241.471 36.7354C241.505 40.5439 241.411 44.4098 241.32 48.1478C241.25 51.1059 241.174 54.1658 241.164 57.1708C241.179 57.4803 241.137 57.79 241.038 58.0838C240.642 59.1012 239.405 59.2603 238.508 59.289C234.405 59.4246 230.161 59.5655 225.987 59.4377C224.829 59.4038 223.673 59.349 222.518 59.2942C220.214 59.182 217.822 59.0699 215.495 59.1273H215.422C215.291 59.3259 215.175 59.5343 215.075 59.7507C215 59.902 214.924 60.0533 214.843 60.1968C214.675 60.4791 214.489 60.7501 214.285 61.008L211.942 64.094ZM212.748 58.7073V59.0855C212.748 59.3464 212.748 59.6412 212.762 59.8864C212.775 60.1316 212.762 60.3063 212.762 60.4315L212.704 61.9445L213.714 60.6011C213.902 60.3659 214.077 60.1193 214.235 59.8629C214.311 59.7298 214.379 59.602 214.449 59.4507C214.564 59.2024 214.699 58.9634 214.851 58.736C214.879 58.6961 214.91 58.6578 214.942 58.6212L215.036 58.5064L215.297 58.4543H215.472C217.835 58.3969 220.227 58.5116 222.541 58.6212C223.694 58.676 224.847 58.7308 225.997 58.7673C230.155 58.8925 234.384 58.7516 238.474 58.616C239.593 58.5795 240.201 58.3343 240.391 57.8465C240.459 57.6306 240.485 57.4042 240.47 57.1787C240.47 54.1658 240.556 51.1033 240.626 48.1426C240.717 44.4072 240.811 40.5465 240.78 36.751C240.78 35.9293 240.723 35.0842 240.217 34.5729C239.888 34.2416 239.413 34.0851 238.8 33.9494C235.581 33.2399 232.224 33.4277 228.976 33.6129C227.176 33.7121 225.311 33.8164 223.498 33.7695C219.865 33.6756 216.168 33.7695 212.595 33.8712L211.961 33.8895C211.629 33.8895 211.251 33.8895 210.844 33.8581C209.631 33.7929 208.126 33.7173 207.503 34.4607C206.72 35.3868 206.775 40.6926 206.796 42.9568C206.796 43.3637 206.796 43.7055 206.796 43.9585C206.775 47.96 207.004 52.032 207.224 55.9579C207.257 56.5448 207.294 57.1839 207.607 57.6508C208.455 58.9081 210.604 58.8925 212.389 58.7412L212.748 58.7073Z" fill="black"/>
<path d="M261.643 82.0309L260.985 81.5092C259.516 80.3377 258.15 79.0416 256.903 77.6355C254.618 77.5859 252.291 77.6955 250.042 77.8024C248.889 77.8598 247.736 77.9146 246.581 77.9485C242.407 78.0737 238.173 77.9355 234.075 77.7998C233.165 77.7685 231.926 77.612 231.532 76.5947C231.435 76.3006 231.392 75.9911 231.407 75.6817C231.407 72.674 231.321 69.6142 231.25 66.6561C231.19 64.1936 231.128 61.645 231.102 59.1408H231.785C231.811 61.6424 231.871 64.1858 231.931 66.6456C232.004 69.609 232.08 72.674 232.09 75.6869C232.077 75.9124 232.103 76.1385 232.168 76.3547C232.359 76.8425 232.967 77.0877 234.086 77.1242C238.184 77.2599 242.41 77.4007 246.56 77.2729C247.71 77.239 248.861 77.1842 250.011 77.1294C252.32 77.0199 254.706 76.9051 257.054 76.9625H257.205L257.302 77.0747C258.362 78.2796 259.51 79.4036 260.737 80.4371L260.33 77.2703L260.743 77.2964C262.999 77.4294 264.329 77.0694 264.94 76.1643C265.232 75.7286 265.284 75.173 265.321 74.4922C265.542 70.535 265.772 66.463 265.751 62.4589C265.751 62.198 265.751 61.8615 265.751 61.4494C265.772 59.1878 265.819 53.8846 265.044 52.9611C264.421 52.2203 262.913 52.296 261.703 52.3586C261.298 52.3794 260.92 52.4003 260.586 52.3925L259.95 52.3742C256.376 52.2777 252.68 52.1786 249.048 52.2725C247.222 52.3194 245.365 52.2151 243.57 52.1134C242.663 52.0638 241.744 52.0116 240.847 51.9803L240.871 51.2969C241.784 51.3308 242.697 51.3804 243.607 51.4325C245.394 51.5316 247.241 51.636 249.035 51.589C252.687 51.4951 256.392 51.589 259.973 51.6908L260.61 51.709C260.923 51.709 261.285 51.709 261.674 51.6777C263.036 51.6073 264.731 51.5186 265.571 52.5255C266.411 53.5324 266.474 57.6748 266.44 61.4572C266.44 61.8641 266.44 62.2059 266.44 62.4563C266.461 66.4813 266.231 70.5637 266.009 74.5104C265.973 75.1495 265.931 75.9191 265.511 76.5451C264.598 77.9016 262.642 78.0529 261.118 77.9981L261.643 82.0309Z" fill="black"/>
<path d="M244.11 56.9111L244.078 57.5938L260.728 58.379L260.761 57.6963L244.11 56.9111Z" fill="black"/>
<path d="M261.528 63.4634C252.471 62.9808 243.286 62.8765 234.224 63.1556L234.203 62.4748C243.284 62.193 252.489 62.2974 261.564 62.7826L261.528 63.4634Z" fill="black"/>
<path d="M234.606 67.2464L234.594 67.9297L260.751 68.4091L260.763 67.7258L234.606 67.2464Z" fill="black"/>
<path d="M236.432 72.5119L236.422 73.1953L259.969 73.5365L259.979 72.8531L236.432 72.5119Z" fill="black"/>
<path d="M74.1535 44.9514C75.2621 44.4062 76.5012 44.1845 77.7194 44.0306C80.2535 43.7151 82.8142 43.6731 85.3573 43.9054C85.4597 43.8999 85.562 43.9182 85.6562 43.9589C85.7503 43.9997 85.8338 44.0617 85.8998 44.1402C85.9351 44.2197 85.9515 44.3062 85.9479 44.393C85.9443 44.4799 85.9207 44.5647 85.879 44.641C85.5607 45.3923 84.773 45.8123 84.053 46.1749C81.3297 47.5261 78.5333 48.9008 75.5073 49.1982C74.7185 49.3118 73.9139 49.2367 73.1596 48.9791C70.538 47.9408 72.5049 45.7601 74.1535 44.9514Z" fill="#D9CE90"/>
<path d="M74.0972 44.3625C74.3424 43.4182 74.2563 42.4217 74.1702 41.4487C74.0503 40.0871 73.9094 38.6941 73.3303 37.4629C72.8086 36.396 71.9947 35.5169 71.1835 34.6561L65.4629 28.5859C65.0951 31.9562 65.9481 35.3265 66.7932 38.6106C67.2889 40.541 67.8028 42.5078 68.8801 44.1851C70.2704 46.3398 73.2051 47.8032 74.0972 44.3625Z" fill="#D9CE90"/>
<path d="M54.2506 55.3431C53.828 54.0258 53.3428 52.7059 52.555 51.5685C50.7291 48.9339 47.5857 47.614 44.6094 46.4297C45.478 47.2409 45.3919 48.6026 45.4598 49.7869C45.5795 51.8569 46.3677 53.8321 47.7059 55.4159C49.0442 56.9996 50.8602 58.1064 52.8811 58.5699C53.6637 58.7551 54.5219 59.1125 54.8088 58.343C55.0958 57.5735 54.4984 56.0814 54.2506 55.3431Z" fill="#D9CE90"/>
<path d="M56.2394 44.7685C56.6411 44.8685 57.0606 44.8734 57.4645 44.7829C57.8685 44.6923 58.2457 44.5087 58.5662 44.2468C59.2019 43.715 59.7063 43.0437 60.0401 42.2851C61.1487 40.0157 61.4617 37.4123 61.2191 34.8977C60.9765 32.383 60.207 29.9414 59.234 27.6172C59.3123 27.8024 56.2055 31.5822 55.9133 32.0778C55.1647 33.3378 54.2386 34.7959 53.8943 36.2515C53.383 38.3801 53.5943 43.9676 56.2394 44.7685Z" fill="#D9CE90"/>
<path d="M63.9724 88.0369L63.3594 87.9743C63.4976 86.7666 63.5289 85.7988 63.5576 84.8623C63.6411 82.0242 63.7246 79.3426 66.8653 70.8987C67.1545 70.1643 67.4846 69.4467 67.8539 68.7492C68.0913 68.2771 68.3365 67.7893 68.5504 67.3015C71.8241 59.8619 71.8476 54.9317 71.8763 49.712C71.8763 48.5172 71.8763 47.2834 71.9337 46.0078L72.5519 46.0261C72.505 47.2964 72.4998 48.5251 72.4945 49.7146C72.4659 54.9917 72.4398 59.9767 69.1217 67.5232C68.9026 68.0214 68.6521 68.5171 68.4122 68.9944C68.0536 69.672 67.7322 70.3687 67.4496 71.0813C64.3376 79.4417 64.2593 82.079 64.1759 84.8701C64.1498 85.8249 64.1159 86.8083 63.9724 88.0369Z" fill="#231F20"/>
<path d="M67.0631 72.1266L66.4501 72.064C66.6405 70.4259 65.9023 69.1138 65.1901 67.846L65.0623 67.6164C61.0706 60.4912 57.9918 52.8919 55.8984 44.9976L56.4984 44.8594C58.5806 52.7079 61.6418 60.2634 65.6101 67.3478L65.7379 67.5773C66.4579 68.8581 67.2822 70.3111 67.0631 72.1266Z" fill="#231F20"/>
<path d="M56.7052 45.1472C56.3009 45.1442 55.9101 45.0013 55.5992 44.7428C53.9115 43.402 53.4132 39.2075 53.3637 38.7432C53.0898 36.2233 53.7784 33.7869 55.2471 32.0287L55.4166 31.8305C55.8001 31.4027 56.2305 31.0009 56.6479 30.6149C57.5895 29.7358 58.4738 28.9089 58.8443 27.8029L59.5042 25.7969L59.4494 27.8837C59.4208 28.875 59.8407 29.8532 60.2477 30.8001C60.3364 31.0062 60.425 31.2122 60.5085 31.4157C60.9772 32.5557 61.3235 33.7423 61.5415 34.9555C61.8389 36.6276 61.8206 38.0545 61.4841 39.3118C61.1711 40.4857 59.3034 44.4455 57.253 45.0637C57.0756 45.1185 56.891 45.1466 56.7052 45.1472ZM55.8914 32.1905L55.7323 32.3757C54.3628 34.006 53.7211 36.2885 53.9767 38.6727C54.1541 40.3083 54.7775 43.3316 55.9983 44.302C56.141 44.4257 56.3134 44.5102 56.4986 44.5472C56.6838 44.5843 56.8755 44.5726 57.0548 44.5133C58.7373 44.0072 60.5763 40.3057 60.8763 39.171C61.192 37.9919 61.2076 36.6433 60.9233 35.0494C60.7149 33.8759 60.3827 32.7278 59.932 31.6244C59.8486 31.4235 59.7625 31.2201 59.6712 31.0192C59.363 30.3621 59.1176 29.6774 58.9382 28.9741C58.4042 29.7277 57.7795 30.4128 57.0783 31.014C56.6713 31.3922 56.2514 31.7966 55.8862 32.1905H55.8914Z" fill="#231F20"/>
<path d="M64.6755 80.1138L64.0859 79.9468C64.9572 77.2339 67.164 74.328 70.1352 71.9751C70.7996 71.4094 71.5322 70.9292 72.3159 70.5456C72.9731 70.2775 73.6544 70.0731 74.3506 69.9352L81.8163 68.2109L81.965 68.7718L74.4993 70.496C73.843 70.6266 73.2003 70.8178 72.5794 71.0673C71.845 71.4313 71.1581 71.8843 70.5343 72.4159C67.644 74.6984 65.5076 77.5052 64.6755 80.1138Z" fill="#231F20"/>
<path d="M72.3598 70.9L72.1328 70.3626C73.1449 69.987 73.9171 69.1627 74.6631 68.3671L74.924 68.0775C76.432 66.5527 78.0286 65.1181 79.7055 63.7812L80.115 64.2143C78.4559 65.535 76.8767 66.953 75.3857 68.461L75.1248 68.7479C74.3266 69.5957 73.5127 70.4748 72.3598 70.9Z" fill="#231F20"/>
<path d="M63.3692 64.4777C62.9901 63.5527 62.4049 62.7266 61.658 62.0622C59.5034 60.339 57.0544 59.0204 54.4297 58.1702L54.6332 57.625C57.3314 58.4973 59.8494 59.8513 62.0649 61.6213C62.8905 62.3493 63.5369 63.258 63.9535 64.2768L63.3692 64.4777Z" fill="#231F20"/>
<path d="M53.6695 58.8517C52.7826 58.8517 51.6557 58.3978 50.7375 57.8083C49.4619 57.0022 48.4524 55.8205 47.6411 54.871C46.8925 53.9972 45.9638 52.912 45.583 51.6338C45.4168 50.9937 45.318 50.338 45.2882 49.6774C45.2152 48.7305 45.1473 47.8357 44.6726 47.0688L44.2578 46.4062L45.0404 46.6488C47.6176 47.4523 50.5184 48.5714 52.4148 50.7782C53.6721 52.2364 54.5668 54.2502 55.0729 56.7779C55.2529 57.6804 55.0729 58.3039 54.5512 58.6273C54.2836 58.7821 53.9785 58.8597 53.6695 58.8517ZM51.0844 57.3387C52.3365 58.1213 53.6799 58.4787 54.2147 58.1526C54.5851 57.9256 54.5538 57.3439 54.4755 56.8953C53.9903 54.4719 53.1373 52.5416 51.9452 51.1564C50.3018 49.2548 47.842 48.1905 45.536 47.4314C45.7688 48.1467 45.8979 48.8916 45.9195 49.6435C45.9412 50.2657 46.0287 50.8839 46.1803 51.4877C46.5012 52.5624 47.2237 53.4598 48.1263 54.5189C48.9506 55.484 49.8871 56.5796 51.087 57.3361L51.0844 57.3387Z" fill="#231F20"/>
<path d="M72.0836 46.5733H72.0002C70.3281 46.4794 68.9273 43.7195 67.6621 40.7484L67.4587 40.2736C66.6959 38.5875 66.1389 36.8157 65.7996 34.9965C65.7501 34.7174 65.7501 33.8174 65.7579 32.3671C65.7579 31.3237 65.7709 29.8811 65.7188 29.6803L65.964 29.6229L66.1752 29.3359C67.2891 30.0481 68.1551 30.9976 69.089 32.0775C71.6141 34.9887 74.1105 38.145 74.4913 41.9066C74.6244 43.2109 74.4392 44.2856 73.9435 45.1386C73.4062 46.0933 72.7775 46.5733 72.0836 46.5733ZM66.3709 30.1942C66.3709 30.6298 66.3709 31.3054 66.3709 32.3697C66.3709 33.434 66.3709 34.6496 66.4048 34.9C66.7372 36.677 67.2819 38.4076 68.0273 40.0545L68.2308 40.5345C68.8595 42.0057 70.5211 45.9133 72.0315 45.9942C72.4827 46.0255 72.9601 45.642 73.4062 44.8699C73.8522 44.0978 74.0009 43.1404 73.8809 41.9666C73.5157 38.3642 71.0793 35.2887 68.6142 32.4479C67.944 31.6233 67.1924 30.8682 66.3709 30.1942Z" fill="#231F20"/>
<path d="M74.6465 49.5655C73.9674 49.598 73.2932 49.436 72.7031 49.0986C72.4628 48.944 72.2631 48.734 72.121 48.4861C71.9789 48.2382 71.8985 47.9598 71.8866 47.6743C71.7614 45.9135 74.756 44.3979 75.9116 43.9623C77.7715 43.2684 79.8532 43.2554 81.6896 43.2423C82.9939 43.2423 84.3608 43.2267 85.6859 43.5032L86.0068 43.5658L85.9207 43.8606C85.2998 45.9631 83.0121 47.0848 81.087 47.8256C79.5753 48.4134 78.0322 48.9167 76.4646 49.3333C75.8708 49.487 75.2599 49.565 74.6465 49.5655ZM76.149 44.4997C74.923 44.9588 72.4188 46.3257 72.5127 47.6299C72.517 47.8277 72.5697 48.0215 72.6661 48.1942C72.7625 48.367 72.8997 48.5136 73.0657 48.6212C73.9213 49.1846 75.5047 48.976 76.3055 48.7647C77.8489 48.3526 79.3685 47.8562 80.8575 47.2778C82.5556 46.6257 84.5512 45.6657 85.2268 43.9936C84.0592 43.8354 82.8803 43.776 81.7026 43.8162C79.921 43.8162 77.8994 43.8397 76.149 44.4945V44.4997Z" fill="#231F20"/>
<path d="M77.8281 60.5098C78.3055 60.7159 78.9863 60.8437 79.255 60.4212C79.1535 59.9804 78.977 59.5604 78.7333 59.1795C78.6007 58.9844 78.4243 58.8232 78.2182 58.7086C78.0121 58.594 77.782 58.5292 77.5464 58.5195C77.8598 58.1997 78.1235 57.8348 78.329 57.437C78.4933 57.1135 78.5246 56.5996 78.149 56.5214C78.036 56.5064 77.921 56.5208 77.8151 56.5631C77.0485 56.8069 76.395 57.3179 75.9735 58.003C75.6678 57.5704 75.2319 57.2467 74.7293 57.0792C74.2268 56.9117 73.6838 56.9091 73.1797 57.0718C73.2997 57.4598 73.5086 57.8144 73.7899 58.1074C74.0711 58.4004 74.4168 58.6237 74.7996 58.7595C74.2466 59.4612 73.8084 60.3559 74.0875 61.1881C74.0971 61.231 74.1158 61.2714 74.1424 61.3065C74.1689 61.3416 74.2027 61.3706 74.2414 61.3915C74.3136 61.4137 74.3909 61.4137 74.4631 61.3915C74.895 61.3152 75.3106 61.1652 75.6917 60.9481C76.7638 60.2568 76.43 59.9125 77.8281 60.5098Z" fill="#EF539E"/>
<path d="M73.2817 56.9179C73.7644 56.7929 74.2727 56.8079 74.7471 56.9613C75.2216 57.1146 75.6425 57.4 75.9607 57.784C76.4009 57.1553 77.0349 56.688 77.7658 56.4536C77.8933 56.403 78.0318 56.3868 78.1675 56.4067C78.2364 56.4195 78.3015 56.4481 78.3576 56.4902C78.4137 56.5323 78.4593 56.5867 78.491 56.6492C78.5442 56.7848 78.5666 56.9304 78.5567 57.0757C78.5468 57.2209 78.5047 57.3622 78.4336 57.4892C78.2614 57.8253 78.0485 58.139 77.7997 58.4231C78.2227 58.5108 78.5961 58.7573 78.8431 59.1117C79.0972 59.5038 79.2833 59.9359 79.3935 60.3899L79.4066 60.4369L79.3805 60.4812C79.0805 60.9534 78.3631 60.8621 77.7945 60.6169C76.8345 60.2047 76.785 60.2465 76.3937 60.5751C76.1938 60.7445 75.9829 60.9005 75.7624 61.0421C75.3681 61.2661 74.9385 61.4213 74.492 61.5012C74.3945 61.5325 74.2896 61.5325 74.1921 61.5012C74.1366 61.4745 74.0877 61.4358 74.0489 61.388C74.0101 61.3402 73.9824 61.2844 73.9677 61.2247C73.6756 60.3508 74.1321 59.4508 74.6094 58.8144C74.2416 58.6607 73.912 58.428 73.6443 58.1327C73.3765 57.8374 73.177 57.4868 73.0599 57.1057L73.0312 57.0014L73.1382 56.9649L73.2817 56.9179ZM75.9711 58.2379L75.8589 58.0631C75.5799 57.671 75.188 57.3733 74.7355 57.2097C74.2829 57.0461 73.7912 57.0244 73.326 57.1475C73.4513 57.4938 73.6517 57.8082 73.9129 58.068C74.174 58.3277 74.4894 58.5265 74.8364 58.65L74.9903 58.7048L74.8938 58.83C74.4216 59.4274 73.9182 60.3169 74.1973 61.1516C74.2234 61.2281 74.2521 61.2725 74.2834 61.2847C74.3303 61.2973 74.3798 61.2973 74.4268 61.2847C74.8435 61.2105 75.2447 61.0668 75.6137 60.8595C75.8265 60.7254 76.0288 60.5754 76.2189 60.4108C76.6858 60.0221 76.8215 59.9569 77.891 60.4108C78.3214 60.596 78.8927 60.6977 79.1301 60.4108C79.0313 59.9995 78.8618 59.6085 78.6292 59.2552C78.508 59.0775 78.3476 58.93 78.1603 58.8242C77.9731 58.7184 77.764 58.657 77.5493 58.6448H77.2623L77.4554 58.4492C77.7567 58.141 78.01 57.7893 78.2066 57.4057C78.2613 57.31 78.2951 57.2039 78.3059 57.0942C78.3167 56.9845 78.3042 56.8738 78.2692 56.7692C78.2548 56.7391 78.2333 56.7128 78.2065 56.6928C78.1796 56.6728 78.1484 56.6597 78.1153 56.6545C78.0267 56.6453 77.9372 56.6579 77.8545 56.691C77.1171 56.9269 76.4887 57.4192 76.0833 58.0787L75.9711 58.2379Z" fill="#EF539E"/>
<path d="M84.8367 68.0809C85.2097 67.7339 85.5775 67.1835 85.2489 66.8001C84.7738 66.7369 84.2918 66.7457 83.8194 66.8261C83.5888 66.8655 83.3709 66.9592 83.1835 67.0993C82.9962 67.2395 82.8449 67.4221 82.742 67.6322C82.5246 67.2422 82.2523 66.8855 81.9334 66.5731C81.6725 66.3123 81.1639 66.1062 80.9526 66.4062C80.8981 66.4993 80.8719 66.6062 80.8769 66.714C80.8559 67.4951 81.1361 68.2545 81.6595 68.8347C81.1472 68.9183 80.6784 69.1734 80.3301 69.5582C79.9817 69.9431 79.7744 70.4348 79.7422 70.9529C80.1559 70.9912 80.5729 70.9371 80.9631 70.7946C81.3534 70.652 81.707 70.4245 81.9986 70.1286C82.5203 70.8616 83.2455 71.5607 84.1767 71.6102C84.2222 71.6183 84.2688 71.6168 84.3137 71.6061C84.3586 71.5953 84.4007 71.5754 84.4376 71.5476C84.4833 71.4923 84.5099 71.4237 84.5132 71.352C84.5915 70.9444 84.5915 70.5257 84.5132 70.1182C84.2054 68.9234 83.7437 69.1034 84.8367 68.0809Z" fill="#EF539E"/>
<path d="M79.6354 70.8047C79.6957 70.3212 79.9013 69.8673 80.225 69.5031C80.5487 69.1389 80.9753 68.8814 81.4484 68.7648C80.9825 68.1845 80.7359 67.4585 80.7519 66.7145C80.7476 66.5851 80.7811 66.4573 80.8484 66.3467C80.8885 66.2888 80.9413 66.2408 81.0028 66.2064C81.0643 66.1721 81.1328 66.1522 81.2032 66.1484C81.3558 66.1494 81.5068 66.1806 81.6474 66.2401C81.7879 66.2997 81.9153 66.3864 82.0223 66.4954C82.2953 66.7606 82.5345 67.0584 82.7344 67.3823C82.9888 67.0339 83.3667 66.7959 83.7909 66.7171C84.276 66.6327 84.7712 66.6222 85.2595 66.6858H85.3143L85.3482 66.7249C85.7134 67.1553 85.369 67.7475 84.923 68.1622C84.1743 68.8561 84.1978 68.9135 84.3882 69.3726C84.486 69.6057 84.5671 69.8454 84.6308 70.09C84.7171 70.5095 84.7215 70.9417 84.6439 71.3629C84.6389 71.4595 84.6012 71.5515 84.5369 71.6238C84.487 71.6635 84.4297 71.6927 84.3683 71.7097C84.3069 71.7267 84.2427 71.7312 84.1795 71.7229C83.2039 71.6708 82.4631 70.9534 81.9936 70.3091C81.6906 70.584 81.3338 70.793 80.9459 70.9228C80.5579 71.0525 80.1472 71.1003 79.7398 71.063H79.625V70.956C79.6258 70.9054 79.6293 70.8549 79.6354 70.8047ZM81.9049 68.9161L81.691 68.9526C81.226 69.0324 80.799 69.2595 80.473 69.6005C80.147 69.9415 79.9393 70.3784 79.8806 70.8465C80.2561 70.8663 80.6316 70.8069 80.9826 70.672C81.3336 70.5372 81.6523 70.33 81.9179 70.0639L82.0249 69.9517L82.1162 70.0795C82.5466 70.703 83.2587 71.4569 84.203 71.5064C84.2592 71.5159 84.3169 71.5067 84.3674 71.4803C84.3917 71.4411 84.4052 71.3961 84.4065 71.3499C84.4821 70.957 84.4821 70.5533 84.4065 70.1604C84.3466 69.925 84.2681 69.6947 84.1717 69.4717C83.95 68.9292 83.9317 68.7857 84.7665 68.0109C85.1056 67.6979 85.4082 67.2284 85.1995 66.9232C84.7562 66.8656 84.3066 66.8762 83.8665 66.9545C83.6559 66.9908 83.4566 67.0757 83.2845 67.2025C83.1125 67.3293 82.9723 67.4944 82.8753 67.6849L82.7787 67.9457L82.6483 67.711C82.441 67.3299 82.1772 66.9825 81.8658 66.6806C81.7038 66.5122 81.4835 66.4123 81.2501 66.4015C81.2165 66.4027 81.1836 66.4118 81.1541 66.4281C81.1246 66.4444 81.0994 66.4675 81.0806 66.4954C81.0372 66.5751 81.0182 66.6658 81.0258 66.7562C81.0092 67.5086 81.2819 68.2387 81.7875 68.7961L81.9049 68.9161Z" fill="#EF539E"/>
<path d="M79.8605 65.1059C79.9596 65.4607 80.2022 65.8885 80.5883 65.8363C80.8108 65.577 80.9872 65.2814 81.11 64.9625C81.1686 64.8041 81.1855 64.6333 81.159 64.4666C81.1325 64.2998 81.0635 64.1427 80.9587 64.0103C81.3089 64.0289 81.66 63.9991 82.0021 63.9216C82.2812 63.8564 82.6151 63.6321 82.4847 63.3999C82.4401 63.33 82.3769 63.274 82.3021 63.2382C81.7699 62.9336 81.1491 62.8213 80.5439 62.92C80.6702 62.5596 80.6652 62.1661 80.5296 61.8091C80.3941 61.4521 80.1367 61.1545 79.8031 60.9688C79.6226 61.203 79.5027 61.4781 79.454 61.7698C79.4053 62.0615 79.4293 62.3607 79.524 62.6408C78.8301 62.6721 78.0684 62.8547 77.698 63.3973C77.6759 63.4213 77.6595 63.4499 77.65 63.4811C77.6405 63.5122 77.6382 63.5451 77.6432 63.5773C77.6658 63.6266 77.7032 63.6676 77.7501 63.6947C78.0056 63.8956 78.2943 64.0501 78.6031 64.1512C79.5187 64.4068 79.5735 64.0677 79.8605 65.1059Z" fill="#EF539E"/>
<path d="M79.945 60.9507C80.2458 61.146 80.4776 61.4309 80.6078 61.7651C80.7379 62.0993 80.7597 62.4659 80.6702 62.8132C81.2513 62.751 81.8372 62.8733 82.3449 63.1627C82.4342 63.206 82.5093 63.2739 82.5614 63.3584C82.5851 63.4029 82.5976 63.4527 82.5976 63.5032C82.5976 63.5537 82.5851 63.6034 82.5614 63.6479C82.4989 63.7419 82.4182 63.8224 82.3242 63.8846C82.2301 63.9469 82.1245 63.9897 82.0136 64.0105C81.7252 64.0764 81.4303 64.1088 81.1345 64.107C81.2054 64.2426 81.2476 64.3913 81.2584 64.544C81.2692 64.6966 81.2483 64.8498 81.1971 64.994C81.0747 65.3202 80.8983 65.6235 80.6754 65.8913L80.6519 65.9226H80.6128C80.1772 65.9826 79.8981 65.5522 79.7807 65.14C79.5824 64.4253 79.5329 64.4175 79.1468 64.3575C78.9485 64.3302 78.7524 64.2893 78.5599 64.2349C78.241 64.1306 77.9427 63.9717 77.6782 63.7653C77.6148 63.7277 77.5661 63.6698 77.5399 63.601C77.5284 63.5555 77.5284 63.5079 77.5397 63.4624C77.5511 63.4168 77.5736 63.3749 77.6051 63.3401C78.0068 62.7689 78.779 62.5915 79.3972 62.5576C79.3216 62.2768 79.312 61.9824 79.369 61.6974C79.426 61.4123 79.5481 61.1442 79.7259 60.9142L79.7755 60.8516L79.8485 60.8907L79.945 60.9507ZM80.3937 63.0375L80.4511 62.8967C80.5637 62.5689 80.5629 62.2127 80.4489 61.8854C80.3349 61.5581 80.1143 61.2785 79.8224 61.0915C79.6689 61.3115 79.5693 61.5644 79.5316 61.83C79.494 62.0956 79.5195 62.3663 79.6059 62.6202L79.6424 62.7271H79.5224C78.9303 62.7532 78.1425 62.8993 77.7564 63.4445C77.7225 63.494 77.7069 63.5306 77.7147 63.554C77.7225 63.5775 77.7616 63.6088 77.7877 63.6271C78.0357 63.82 78.3144 63.9699 78.612 64.0705C78.7963 64.1208 78.9837 64.1591 79.1729 64.1853C79.632 64.2557 79.7389 64.2975 79.9554 65.0931C80.0441 65.4139 80.2502 65.7713 80.5424 65.7609C80.7467 65.5183 80.909 65.2432 81.0223 64.947C81.075 64.8018 81.0904 64.6458 81.0672 64.4931C81.0439 64.3404 80.9828 64.196 80.8893 64.0731L80.7537 63.9218H80.965C81.3031 63.9382 81.6418 63.9083 81.9719 63.8331C82.1409 63.8035 82.2922 63.7101 82.3944 63.5723C82.4066 63.5513 82.413 63.5274 82.413 63.5032C82.413 63.4789 82.4066 63.4551 82.3944 63.434C82.3575 63.3787 82.306 63.3345 82.2458 63.3062C81.7327 63.0146 81.1354 62.9069 80.5528 63.001L80.3937 63.0375Z" fill="#EF539E"/>
<path d="M71.7194 71.5862L71.3516 71.1219C72.6324 70.2323 73.3106 68.7533 73.908 67.449C74.4298 66.381 74.8659 65.2732 75.2122 64.1361C75.4153 63.4018 75.5404 62.6481 75.5853 61.8876C75.6265 61.5215 75.5946 61.1508 75.4913 60.7972L76.0809 60.6172C76.2061 61.0398 76.2478 61.4829 76.2035 61.9215C76.1553 62.7207 76.0242 63.5127 75.8122 64.2848C75.454 65.4487 75.0048 66.5825 74.4688 67.6759C73.8871 68.9802 73.1436 70.6028 71.7194 71.5862Z" fill="#231F20"/>
<path d="M33.1059 148.45C30.4684 148.487 27.8353 148.22 25.2594 147.652C24.3673 147.44 23.4517 147.151 22.8021 146.449C21.863 145.432 21.7587 143.942 21.7587 142.505C21.7144 136.654 21.8474 130.712 21.9804 124.962C22.0822 120.416 22.1891 115.715 22.2048 111.093C22.184 110.643 22.2404 110.193 22.3717 109.762C22.8934 108.294 24.6307 108.067 25.8828 108.022C31.7808 107.814 37.8822 107.597 43.8819 107.793C45.0349 107.829 47.0122 107.772 49.2894 107.707C59.828 107.407 69.4223 107.347 71.0161 109.882C71.5926 110.798 71.6526 111.951 71.6996 112.877C72.0204 118.95 72.3517 125.228 72.3204 131.426C72.3204 131.81 72.3204 132.334 72.3204 132.955C72.3726 139.161 72.263 145.103 71.1152 146.569C69.9675 148.035 67.5493 147.92 65.619 147.813C65.0556 147.782 64.5208 147.748 64.08 147.764L63.1435 147.792C57.9968 147.938 52.6727 148.092 47.4321 147.946C44.8444 147.876 42.1863 148.035 39.6065 148.189C37.4622 148.319 35.2789 148.45 33.1059 148.45ZM38.9048 108.398C34.5432 108.398 30.1713 108.552 25.9063 108.703C24.2316 108.763 23.3134 109.173 23.0134 110.007C22.9103 110.364 22.8679 110.735 22.8882 111.106C22.8726 115.733 22.7656 120.439 22.6613 124.988C22.5308 130.727 22.4004 136.669 22.4421 142.51C22.4421 143.814 22.5282 145.158 23.303 145.995C23.856 146.59 24.6829 146.825 25.4159 146.997C30.0591 148.09 34.9006 147.8 39.583 147.518C42.1707 147.362 44.8471 147.203 47.4634 147.276C52.6806 147.419 57.9968 147.276 63.1357 147.119L64.0721 147.093C64.5443 147.093 65.0895 147.109 65.666 147.14C67.4398 147.237 69.644 147.362 70.5883 146.157C71.7465 144.68 71.6787 136.474 71.65 132.971C71.65 132.344 71.65 131.82 71.65 131.434C71.6787 125.254 71.3474 118.986 71.0292 112.913C70.9822 112.021 70.93 111.009 70.4501 110.247C68.9293 107.832 56.656 108.181 49.3207 108.39C47.0252 108.455 45.0453 108.513 43.8715 108.474C42.2046 108.421 40.5482 108.398 38.8917 108.398H38.9048Z" fill="black"/>
<path d="M42.6069 122.812L42.5547 133.591L46.671 131.533C47.2631 131.236 47.8553 130.941 48.4579 130.667C50.5447 129.728 52.7698 129.102 54.7993 128.032C52.895 127.469 51.4081 126.245 49.5508 125.538C48.677 125.205 47.7483 124.998 46.9292 124.547C46.5693 124.349 46.2328 124.104 45.865 123.921C45.4985 123.75 45.118 123.61 44.7276 123.504C44.0077 123.287 43.3138 123.029 42.6069 122.812Z" fill="#231F20"/>
<path d="M17.5565 141.566C17.3948 142.993 17.473 144.496 18.1226 145.777C19.4269 148.364 22.5963 149.311 25.4265 150.005C29.2742 150.949 33.4818 151.862 37.0659 150.175C38.5179 149.488 39.7521 148.414 40.6323 147.071C41.5126 145.728 42.0047 144.168 42.0543 142.562C42.104 140.957 41.7093 139.369 40.9137 137.974C40.1182 136.579 38.9527 135.431 37.5459 134.656C29.162 130.031 18.8999 129.697 17.5565 141.566Z" fill="#D9CE90"/>
<path d="M29.7805 148.5C25.7607 148.5 22.4922 145.37 22.4922 141.496C22.4922 137.622 25.7607 134.492 29.7805 134.492C33.8003 134.492 37.0714 137.636 37.0714 141.496C37.0714 145.357 33.8003 148.5 29.7805 148.5ZM29.7805 135.392C26.2563 135.392 23.3895 138.131 23.3895 141.496C23.3895 144.861 26.2589 147.603 29.7805 147.603C33.3021 147.603 36.1715 144.864 36.1715 141.496C36.1715 138.129 33.3047 135.392 29.7805 135.392Z" fill="#010101"/>
<path d="M15.9318 137.466L15.7344 138.344L19.6181 139.217L19.8155 138.339L15.9318 137.466Z" fill="#010101"/>
<path d="M24.0173 147.838L22.5469 150.414L23.3284 150.86L24.7988 148.284L24.0173 147.838Z" fill="#010101"/>
<path d="M37.0024 147.803L36.25 148.297L37.939 150.87L38.6914 150.376L37.0024 147.803Z" fill="#010101"/>
<path d="M41.4585 137.477L38.1875 138.352L38.42 139.221L41.691 138.346L41.4585 137.477Z" fill="#010101"/>
<path d="M30.2359 128.383H29.3359V132.191H30.2359V128.383Z" fill="#010101"/>
<path d="M204.831 225.099C203.391 225.101 201.958 224.92 200.563 224.562L200.762 223.805C202.985 224.382 205.303 224.489 207.57 224.12C209.837 223.751 212.002 222.914 213.927 221.663C215.853 220.411 217.497 218.773 218.754 216.851C220.012 214.929 220.855 212.767 221.231 210.501C221.635 208.083 221.492 205.577 221.307 203.01C219.706 181.445 215.469 160.157 208.692 139.622C207.839 137.039 206.967 134.527 205.666 132.193C203.962 129.135 201.542 126.472 199.405 124.216C197.84 122.575 196.014 120.699 193.972 119.22C191.22 117.238 188.021 115.905 184.928 114.616L173.638 109.921C171.812 109.162 169.915 108.52 168.079 107.899C166.308 107.302 164.479 106.683 162.705 105.956C161.654 105.571 160.661 105.045 159.752 104.391C158.845 103.664 158.129 102.728 157.667 101.661C157.204 100.595 157.009 99.4321 157.1 98.2734L157.882 98.3439C157.8 99.372 157.971 100.405 158.381 101.351C158.79 102.298 159.425 103.13 160.23 103.775C161.089 104.379 162.026 104.863 163.016 105.215C164.766 105.93 166.584 106.545 168.342 107.14C170.192 107.766 172.104 108.41 173.951 109.18L185.241 113.875C188.371 115.18 191.616 116.531 194.444 118.571C196.549 120.089 198.409 121.996 199.984 123.663C202.152 125.953 204.612 128.658 206.36 131.796C207.695 134.191 208.582 136.752 209.446 139.361C216.244 159.96 220.492 181.315 222.097 202.947C222.293 205.556 222.431 208.12 222.014 210.624C221.344 214.688 219.245 218.38 216.095 221.034C212.945 223.688 208.95 225.129 204.831 225.099Z" fill="#231F20"/>
<path d="M145.731 257.801C139.606 257.801 131.068 255.886 127.283 254.563C122.705 252.962 108.452 243.9 104.886 241.56C97.1936 236.518 90.2993 230.352 84.4326 223.268C83.9839 222.728 83.5431 222.183 83.0996 221.635C81.9884 220.263 80.838 218.844 79.625 217.548L80.1963 217.026C81.4275 218.33 82.5857 219.773 83.7074 221.155C84.1482 221.701 84.5891 222.246 85.0352 222.781C88.4697 226.934 92.2652 230.775 96.3772 234.258C108.251 230.345 118.881 223.514 129.162 216.906C136.677 212.078 144.448 207.085 152.719 203.201C160.138 199.716 169.659 199.862 178.184 203.597C185.394 206.754 192.075 212.32 198.035 220.141C199.809 222.465 201.726 225.272 202.496 228.446C203.461 232.414 202.603 236.945 200.148 240.879C198.101 244.155 194.962 247.077 190.82 249.568C181.745 255.022 170.943 255.797 160.498 256.543C156.554 256.825 152.477 257.117 148.548 257.657C147.614 257.768 146.672 257.816 145.731 257.801ZM97.0815 234.822C99.7099 237.002 102.458 239.032 105.314 240.905C108.864 243.234 123.039 252.25 127.544 253.825C131.77 255.304 142.674 257.649 148.441 256.856C152.396 256.311 156.486 256.019 160.441 255.737C170.794 254.996 181.5 254.229 190.413 248.871C194.451 246.445 197.501 243.607 199.48 240.438C201.828 236.682 202.647 232.37 201.734 228.603C200.996 225.572 199.126 222.851 197.409 220.587C191.53 212.876 184.956 207.39 177.869 204.286C169.545 200.634 160.269 200.49 153.051 203.882C144.826 207.745 137.076 212.725 129.574 217.54C119.395 224.087 108.864 230.854 97.0815 234.822Z" fill="#231F20"/>
<path d="M134.629 276.196C131.892 276.196 128.673 275.708 124.888 274.759C121.296 273.856 117.65 271.347 114.125 268.918C111.919 267.4 109.834 265.965 107.831 264.956C106.13 264.1 104.476 263.148 102.875 262.227C100.217 260.693 97.4672 259.097 94.4673 257.959C90.4736 256.428 86.3469 255.351 82.3584 254.307C76.5987 252.805 70.6408 251.253 65.0819 248.308C64.5863 248.047 63.5533 247.648 62.2438 247.144C56.8702 245.081 46.8663 241.236 40.5302 234.563C37.139 230.979 28.9221 221.8 26.2692 214.005C25.1083 210.588 25.1631 206.803 26.4309 203.049C27.6425 199.473 29.8354 196.309 32.7593 193.919C38.4537 189.36 44.5343 187.922 51.8878 189.443L51.7313 190.21C44.6125 188.739 38.7381 190.119 33.2444 194.551C27.4378 199.246 24.8136 207.314 27.0048 213.76C29.6133 221.411 37.7233 230.486 41.091 234.034C47.3072 240.579 57.2041 244.379 62.5203 246.422C63.9054 246.943 64.9071 247.34 65.4445 247.624C70.9225 250.525 76.8335 252.059 82.5514 253.556C86.5608 254.6 90.7084 255.682 94.7412 257.229C97.8011 258.4 100.577 260.002 103.261 261.549C104.847 262.464 106.49 263.411 108.173 264.256C110.223 265.3 112.328 266.74 114.558 268.274C118.025 270.663 121.602 273.131 125.068 274.012C131.261 275.578 135.883 275.838 139.202 274.795C142.381 273.817 144.549 271.665 146.023 268.013C147.405 264.58 146.545 261.095 143.414 257.652L143.996 257.13C147.319 260.813 148.243 264.575 146.738 268.31C144.599 273.655 140.876 276.196 134.629 276.196Z" fill="#231F20"/>
<path d="M61.2774 247.037C58.2254 247.037 55.1681 246.88 52.1865 246.726L49.8388 246.609C46.8442 246.465 43.6696 246.158 40.7532 244.892C37.5343 243.494 35.21 241.079 34.3727 238.264C33.3997 234.99 34.7875 231.317 37.5317 229.898L37.889 230.592C35.4683 231.844 34.2553 235.116 35.124 238.042C35.8935 240.633 38.0586 242.868 41.0636 244.172C43.8678 245.391 46.9564 245.688 49.8754 245.826L52.2231 245.944C56.2011 246.15 60.3096 246.361 64.3503 246.205L64.3842 246.987C63.3564 247.022 62.3208 247.038 61.2774 247.037Z" fill="#231F20"/>
<path d="M177.452 197.795L176.67 197.73C177.775 184.247 177.151 170.679 174.812 157.354L175.595 157.219C177.942 170.61 178.567 184.246 177.452 197.795Z" fill="#231F20"/>
<path d="M118.544 223.268L117.889 223.111C110.742 221.494 80.0649 217.263 69.9958 215.875C68.1959 215.614 66.9543 215.455 66.4717 215.385L66.2813 215.359L66.1874 215.187C57.7434 199.958 50.5516 188.078 43.5451 177.801L43.0781 177.117L43.905 177.19C44.312 177.227 84.7864 180.889 101.507 183.485L101.705 183.516L101.797 183.693C104.927 189.839 117.477 219.838 118.345 222.613L118.544 223.268ZM66.7612 214.639L70.0871 215.098C80.9127 216.593 109.143 220.484 117.357 222.201C115.455 217.099 104.142 190.163 101.184 184.228C85.7072 181.847 50.4943 178.581 44.6537 178.046C51.5038 188.149 58.5495 199.806 66.7612 214.639Z" fill="#231F20"/>
<path d="M118.089 223.107L117.828 222.367C119.07 221.947 121.118 221.135 123.097 220.35L124.829 219.664L125.116 220.392L123.387 221.075C121.407 221.866 119.352 222.682 118.089 223.107Z" fill="#231F20"/>
<path d="M165.547 201.419L165.375 200.655L166.158 200.477C169.322 199.765 172.311 199.092 175.337 198.015C184.302 194.842 193.839 193.608 203.317 194.394L203.251 195.177C193.885 194.399 184.46 195.619 175.601 198.756C172.53 199.849 169.517 200.524 166.33 201.242L165.547 201.419Z" fill="#231F20"/>
<path d="M150.75 205.104C145.773 204.525 141.24 202.195 136.855 199.944C133.482 198.212 129.994 196.42 126.329 195.439C121.028 194.02 112.418 195.134 107.477 196.976L107.203 196.243C112.368 194.315 121.01 193.206 126.53 194.678C130.276 195.679 133.803 197.49 137.225 199.243C141.547 201.462 146.016 203.758 150.852 204.321L150.75 205.104Z" fill="#231F20"/>
<path d="M111.512 192.812C110.075 183.071 110.858 173.13 113.805 163.734L114.551 163.969C111.641 173.252 110.867 183.073 112.287 192.697L111.512 192.812Z" fill="#231F20"/>
<path d="M96.8919 183.209L96.1094 183.118C97.3484 172.402 100.463 164.445 104.058 155.245C104.801 153.349 105.568 151.384 106.351 149.326C107.832 145.413 109.363 141.388 111.495 137.697C113.178 134.852 115.12 132.168 117.296 129.679C120.917 125.432 127.43 119.852 132.786 116.414L133.211 117.071C127.91 120.463 121.472 125.99 117.891 130.187C115.746 132.64 113.832 135.285 112.173 138.089C110.086 141.725 108.552 145.732 107.081 149.605C106.298 151.666 105.529 153.63 104.785 155.532C101.212 164.68 98.1154 172.579 96.8919 183.209Z" fill="#231F20"/>
<path d="M117.688 220.474L117.359 219.759L123.195 217.164C124.642 216.519 125.735 216.1 126.792 215.693C127.848 215.286 128.923 214.871 130.355 214.234L130.673 214.949C129.223 215.593 128.13 216.016 127.074 216.423C126.017 216.83 124.942 217.245 123.513 217.879L117.688 220.474Z" fill="#231F20"/>
<path d="M136.61 117.138C125.205 117.138 119.067 107.119 118.35 105.888C114.045 98.3969 111.204 90.1563 109.977 81.6045L110.759 81.4949C111.973 89.9465 114.782 98.0905 119.036 105.494C119.78 106.78 126.661 118.015 139.443 116.144C144.459 115.414 150.203 111.626 153.101 107.142C156.021 102.619 157.538 97.3333 157.463 91.95C157.411 91.86 157.392 91.7545 157.411 91.6522C157.43 91.55 157.484 91.4577 157.565 91.3918L158.222 90.6979V91.0318C158.459 90.8648 158.801 90.617 159.286 90.2492C163.429 87.1398 161.921 78.3725 161.029 76.9821C160.061 75.4717 158.003 74.6187 156.025 74.8953C154.168 75.1561 153.803 75.6439 152.593 77.2273L152.512 77.3212L152.019 77.7907L151.481 77.2221L151.969 76.7525C153.221 75.117 153.74 74.4388 155.913 74.1205C158.219 73.784 160.541 74.7596 161.689 76.5465C162.163 77.2873 162.844 79.9819 162.831 82.9166C162.818 85.4964 162.276 88.971 159.753 90.8622C159.015 91.4153 158.551 91.7596 158.24 91.9474C158.312 97.4761 156.751 102.903 153.753 107.549C150.743 112.205 144.77 116.139 139.55 116.901C138.577 117.051 137.594 117.13 136.61 117.138Z" fill="#231F20"/>
<path d="M107.019 82.4901C103.746 72.7732 108.324 59.5948 117.193 53.1151C125.365 47.1572 137.208 45.9207 147.363 49.964C147.663 50.104 147.92 50.322 148.107 50.5953C148.211 50.756 148.351 50.89 148.516 50.9865C152.63 52.8125 156.173 56.4019 158.492 61.0895C160.362 64.8693 161.486 69.2647 162.031 74.9149L161.249 74.9879C160.727 69.4265 159.616 65.1197 157.79 61.4234C155.549 56.9001 152.142 53.4412 148.196 51.6909C147.914 51.5449 147.672 51.3327 147.491 51.0726C147.392 50.9168 147.258 50.7864 147.1 50.6918C137.187 46.745 125.639 47.9424 117.681 53.7464C109.046 60.0409 104.601 72.8228 107.768 82.2397L107.019 82.4901Z" fill="#231F20"/>
<path d="M157.095 58.9494C156.543 58.9534 156.005 58.7765 155.564 58.4459L156.039 57.8225C156.291 58.0063 156.588 58.121 156.898 58.1553C157.209 58.1896 157.523 58.1423 157.81 58.0181C158.03 57.0846 158.088 56.1202 157.982 55.167C157.983 54.9421 157.907 54.7237 157.765 54.5487C157.606 54.4624 157.425 54.4235 157.244 54.4366H156.824C156.341 54.4608 155.856 54.4204 155.384 54.3166C154.586 54.1105 153.98 53.5471 153.847 52.8819C153.811 52.67 153.801 52.4546 153.816 52.2402C153.845 52.04 153.82 51.8359 153.746 51.648C153.597 51.3872 153.224 51.3872 152.637 51.4211C152 51.4446 151.278 51.4759 150.837 50.8994C150.597 50.5309 150.498 50.0882 150.558 49.6525C150.572 49.4509 150.56 49.2483 150.521 49.0499C150.48 48.9344 150.414 48.8291 150.328 48.7409C150.243 48.6528 150.139 48.5839 150.025 48.5387C149.911 48.4936 149.788 48.4733 149.666 48.4791C149.543 48.4849 149.423 48.5168 149.314 48.5725C148.695 48.9638 148.81 50.0099 149.178 50.8211L148.466 51.1446C147.944 49.9994 147.874 48.5543 148.894 47.91C149.108 47.7886 149.346 47.7166 149.592 47.6994C149.837 47.6821 150.083 47.7201 150.312 47.8104C150.541 47.9007 150.747 48.041 150.914 48.2212C151.082 48.4014 151.207 48.6168 151.281 48.8517C151.338 49.1207 151.357 49.3964 151.338 49.6707C151.298 49.9273 151.339 50.1899 151.455 50.422C151.638 50.6594 152.029 50.662 152.606 50.6385C153.234 50.6124 154.019 50.5811 154.419 51.2463C154.578 51.5612 154.639 51.9162 154.596 52.2663C154.586 52.4204 154.592 52.5751 154.614 52.728C154.7 53.1532 155.159 53.4505 155.579 53.5575C155.987 53.6435 156.405 53.6759 156.821 53.654H157.262C157.458 53.6301 157.658 53.6499 157.846 53.712C158.034 53.7742 158.206 53.8771 158.349 54.0134C158.493 54.1498 158.605 54.3162 158.676 54.5007C158.748 54.6853 158.778 54.8834 158.764 55.0809C158.887 56.1858 158.809 57.3039 158.532 58.3807L158.491 58.5398L158.35 58.6233C157.967 58.8406 157.535 58.9531 157.095 58.9494Z" fill="#231F20"/>
<path d="M176.861 105.989C175.168 105.989 173.441 104.862 172.426 103.083C171.722 101.844 171.383 100.43 171.148 99.0816C170.957 99.648 170.897 100.25 170.971 100.843C171.045 101.436 171.252 102.005 171.576 102.507L171.821 102.882L171.414 103.075C169.964 103.764 168.208 103.803 166.197 103.195C161.157 101.672 158.426 99.4729 157.344 96.0687L158.087 95.8314C159.086 98.9616 161.656 101.004 166.434 102.447C168.093 102.948 169.492 102.968 170.694 102.535C170.297 101.764 170.119 100.899 170.18 100.034C170.241 99.1687 170.538 98.3367 171.039 97.6287L171.594 96.8696L171.74 97.8008C172.001 99.4807 172.262 101.218 173.115 102.697C173.71 103.798 174.697 104.636 175.88 105.045C174.422 103.281 173.848 100.631 174.333 97.7069C174.623 95.9618 175.217 94.2793 175.797 92.6541C176.159 91.629 176.535 90.5673 176.824 89.5239C179.034 81.5104 176.668 72.7978 174.278 65.2643C173.125 61.6305 171.931 58.1116 169.969 55.0387C167.778 51.6006 164.83 49.1955 161.666 48.2564C158.014 47.1765 153.971 48.2564 151.84 50.865L151.234 50.372C153.559 47.5234 157.941 46.347 161.888 47.5026C165.232 48.4886 168.336 51.0137 170.629 54.6109C172.638 57.7646 173.853 61.3332 175.024 65.0217C177.448 72.6647 179.845 81.5078 177.581 89.7247C177.281 90.8073 176.9 91.882 176.537 92.9176C175.974 94.5114 175.387 96.16 175.111 97.8373C174.706 100.276 175.051 103.514 177.231 105.285L178.043 105.947L176.999 105.981L176.861 105.989Z" fill="#231F20"/>
<path d="M144.522 79.0188C140.87 79.0188 137.127 78.5701 135.945 77.8971C130.775 74.9495 125.428 71.9053 122.062 66.7325L122.717 66.3047C125.975 71.3183 131.242 74.3234 136.331 77.2111C138.272 78.3171 149.171 78.7919 151.539 77.2111L151.975 77.8606C150.757 78.6771 147.679 79.0188 144.522 79.0188Z" fill="#231F20"/>
<path d="M107.519 82.7325L107.258 81.9917C110.719 80.7716 113.852 78.7683 116.412 76.138C118.972 73.5077 120.889 70.3215 122.014 66.8281L122.763 67.0603C121.6 70.6699 119.619 73.9622 116.975 76.6806C114.331 79.399 111.095 81.4701 107.519 82.7325Z" fill="#231F20"/>
<path d="M143.389 129.397C143.084 129.397 142.779 129.384 142.479 129.355C141.129 129.202 139.812 128.833 138.579 128.262C137.703 127.876 136.589 127.313 135.751 126.387C134.872 125.411 134.476 124.17 134.69 123.066L135.457 123.215C135.29 124.078 135.616 125.07 136.333 125.863C137.05 126.656 138.089 127.19 138.895 127.545C140.049 128.085 141.282 128.438 142.547 128.589C146.008 128.922 149.851 127.052 152.574 123.71C155.089 120.627 156.503 116.827 157.872 113.148L158.605 113.409C157.215 117.145 155.775 121.011 153.182 124.193C150.487 127.501 146.887 129.397 143.389 129.397Z" fill="#231F20"/>
<path d="M128.805 215.083C127.648 215.103 126.496 214.936 125.393 214.587C124.284 214.177 123.212 213.672 122.19 213.077C120.713 212.271 119.32 211.511 117.622 211.311L117.466 211.292C115.979 211.115 114.575 210.951 113.785 212.023L113.156 211.558C114.218 210.118 115.992 210.33 117.557 210.515L117.713 210.533C119.56 210.75 121.089 211.577 122.565 212.391C123.549 212.962 124.58 213.45 125.646 213.849C128.435 214.803 132.88 214.11 135.397 212.912L135.731 213.619C133.92 214.477 131.265 215.083 128.805 215.083Z" fill="#231F20"/>
<path d="M119.016 85.5098C117.044 85.3168 115.669 86.0055 114.715 86.5037C114.037 86.8317 113.385 87.2119 112.766 87.641C112.307 87.9775 111.929 88.3453 111.436 88.7705C110.943 89.1957 110.34 89.6783 109.367 90.5965C109.965 90.2965 110.527 89.9289 111.042 89.5009C111.61 89.0591 112.202 88.6473 112.813 88.2671C113.352 87.9482 113.916 87.6751 114.501 87.4506C115.046 87.2262 115.609 87.0473 116.183 86.9158C116.657 86.8237 117.141 86.7887 117.623 86.8115C118.007 86.8501 118.394 86.8554 118.779 86.8272C119.098 86.7946 119.394 86.6439 119.608 86.4046C119.791 86.175 119.848 85.8672 119.032 85.4994H119.016V85.5098Z" fill="#010101"/>
<path d="M126.641 83.2875C127.452 82.7423 128.694 82.4058 129.732 82.1501C130.641 81.9046 131.571 81.7405 132.51 81.6597C133.415 81.5971 134.391 81.6467 137.495 82.4632C134.886 82.4814 133.235 82.4631 132.16 82.6197C131.394 82.735 130.653 82.9746 129.964 83.3292C129.361 83.5874 128.647 83.8039 126.641 83.2875Z" fill="#010101"/>
<path d="M128.632 95.8411C128.627 96.794 128.326 97.722 127.771 98.4966C127.682 98.6192 127.549 98.3401 127.534 98.2905C127.487 98.1627 127.424 97.9488 127.515 97.8209C127.764 97.4798 127.958 97.1023 128.092 96.7019C128.156 96.5149 128.205 96.3229 128.238 96.128C128.256 96.0263 128.269 95.9219 128.28 95.8176C128.28 95.768 128.28 95.7184 128.28 95.6689C128.28 95.5724 128.28 95.7263 128.28 95.6298C128.28 95.6011 128.28 95.5698 128.28 95.5411C128.28 95.455 128.311 95.2515 128.439 95.3585C128.557 95.4912 128.62 95.6636 128.616 95.8411H128.632Z" fill="#010101"/>
<path d="M121.305 97.7015C122.095 98.3734 123.074 98.7835 124.107 98.8754C124.268 98.891 124.133 98.5832 124.107 98.5337C124.034 98.4058 123.901 98.2024 123.731 98.1867C123.274 98.1483 122.826 98.041 122.401 97.8685C122.201 97.7881 122.009 97.6922 121.824 97.5815C121.728 97.5241 121.631 97.4615 121.54 97.3963C121.496 97.365 121.451 97.3337 121.409 97.2998C121.323 97.2372 121.456 97.3416 121.373 97.2737L121.3 97.2111C121.229 97.1511 121.039 97.0337 121.039 97.2111C121.061 97.401 121.154 97.5754 121.3 97.6989L121.305 97.7015Z" fill="#010101"/>
<path d="M128.585 89.5274C131.018 89.9683 133.28 88.7266 135.31 87.5528C135.422 87.4875 135.55 87.3467 135.497 87.2058C135.482 87.1775 135.462 87.1527 135.436 87.1331C135.411 87.1134 135.382 87.0995 135.351 87.092C135.32 87.0846 135.287 87.084 135.256 87.0901C135.224 87.0962 135.195 87.109 135.169 87.1276C133.264 88.2284 131.131 89.4518 128.843 89.037C128.582 88.9901 128.256 89.4674 128.582 89.5274H128.585Z" fill="#010101"/>
<path d="M112.953 93.7835C113.472 93.8982 114.012 93.8739 114.518 93.713C115.123 93.5644 115.719 93.3851 116.305 93.1757C117.393 92.7766 118.413 92.1662 119.029 91.1566C119.047 91.1319 119.058 91.1031 119.063 91.0729C119.067 91.0426 119.064 91.0117 119.054 90.9828C119.044 90.9539 119.028 90.9278 119.005 90.9067C118.983 90.8857 118.956 90.8703 118.927 90.8619C118.854 90.8532 118.78 90.8671 118.715 90.9016C118.651 90.9361 118.598 90.9896 118.564 91.0549C118.027 91.9314 117.07 92.4348 116.125 92.7635C115.622 92.9383 115.105 93.0818 114.591 93.2174C114.151 93.3647 113.679 93.3917 113.225 93.2957C112.964 93.2226 112.64 93.6948 112.964 93.7835H112.953Z" fill="#010101"/>
<path d="M125.076 106.926C127.628 107.828 130.815 107.103 132.414 104.839C132.532 104.672 131.632 104.476 131.478 104.682C130.262 106.394 127.841 107.492 125.783 106.769C125.563 106.684 125.323 106.664 125.092 106.714C124.933 106.756 124.889 106.866 125.076 106.931V106.926Z" fill="#010101"/>
<path d="M108.497 263.014L108.469 262.231C108.88 262.176 109.271 262.021 109.609 261.78C111.046 260.924 112.898 259.75 114.455 258.25C116.013 256.75 117.106 255.091 117.68 253.367L118.423 253.61C117.82 255.462 116.67 257.215 115.006 258.814C113.391 260.379 111.492 261.576 110.018 262.45C109.569 262.767 109.045 262.961 108.497 263.014Z" fill="#231F20"/>
</g>
<defs>
<clipPath id="clip0_15333_56141">
<rect width="300" height="300" fill="white" transform="translate(0.5 0.5)"/>
</clipPath>
</defs>
</svg>
