<svg xmlns="http://www.w3.org/2000/svg" viewBox="0 0 450.85 436.12"><defs><style>.cls-1{fill:#ffbfa4;}.cls-2{fill:#ffeae1;}</style></defs><g id="Layer_2" data-name="Layer 2"><g id="matitas"><path class="cls-1" d="M152.22,4.2C229.46-5.86,306.56.43,373.14,42c49.66,31,79.62,98.88,77.61,164.57s-33.61,127.18-78.82,164.85c-25.58,21.32-55.06,35.53-85.18,46.13-56.95,20-119.44,27.46-176.06,3.94S5.31,338.34.43,268.1c-3.11-44.75,11.14-88.28,28.4-127.9C46.35,100,67.91,61,98.76,34.23Z"/><path d="M175.23,372.81c-7.75,0-14.33-2.64-18.88-14.19-.64-1.62-1.26-3.27-1.89-4.92-4.36-11.48-8.87-23.35-18.82-29.23-8.79-5.19-19.46-4.7-29.8-4.21-17.43.82-35.45,1.66-36.88-28.9-.12-2.43,0-4.91,0-7.4.18-6.09.36-11.84-2.29-16.66-2.77-5.05-7.79-8.81-12.65-12.44-5.93-4.44-11.53-8.63-11.84-14.76-.22-4.51,2.44-9.16,8.38-14.62,13.67-10.92,22-35.19,17.85-52-8.9-36.45,13.2-68,23.12-79.93,16.87-20.23,46.05-31.89,86.73-34.66l.31,4.49C139.19,66.05,111.07,77.17,95,96.42c-9.47,11.36-30.61,41.52-22.19,76,4.55,18.64-4.29,44.51-19.3,56.5-4.63,4.26-7,8-6.81,11,.2,4,4.76,7.42,10,11.37,5,3.74,10.66,8,13.9,13.89s3,12.53,2.84,19c-.07,2.37-.14,4.74,0,7,1.22,26.06,14.19,25.43,32.17,24.61,10.48-.49,22.36-1,32.3,4.83,11.31,6.69,16.1,19.31,20.74,31.51q.93,2.46,1.87,4.86c5.1,13,12.22,12,24,10.51,2-.26,4.09-.53,6.27-.74a270.67,270.67,0,0,1,55.33.3l1.2.13c5.42.6,11,1.22,16.07-.21l1.23,4.33c-5.89,1.67-11.94,1-17.79.36l-1.2-.13a265.25,265.25,0,0,0-54.41-.3c-2.13.21-4.17.47-6.12.72A78.45,78.45,0,0,1,175.23,372.81Z"/><path d="M77.15,274a21.19,21.19,0,0,1-7.3-1.29l1.56-4.22a17.2,17.2,0,0,0,15.39-1.92l2.54,3.72A21.7,21.7,0,0,1,77.15,274Z"/><path d="M91.6,205.37a18.78,18.78,0,0,1-12.68-4.67l3-3.34a15.42,15.42,0,0,0,21.48-1.88l3.56,2.75a19.09,19.09,0,0,1-13.52,7.06C92.84,205.35,92.22,205.37,91.6,205.37Z"/><path d="M272,349.43,267.9,348c24.11-66.5,16.82-100.31,9.24-120l4-1.56C297.53,268.82,283.76,316.93,272,349.43Z"/><path d="M308.08,266.05c-7.26,0-13.69-1.81-17.34-6.27-3.27-4-5.43-11.65,2.82-25.46s25.87-37.59,51.94-43c20.21-4.23,41,3.67,57.7,10,10.94,4.15,22.22,8.43,33.22,12.9l6.44,2.63-6.79,1.5A283,283,0,0,0,367.74,243c-3.42,1.77-6.89,3.64-10.24,5.45-9.34,5.05-19,10.27-29.25,13.89A62.43,62.43,0,0,1,308.08,266.05Zm38.31-70.53c-24.46,5.12-41.26,27.9-49.11,41-3.84,6.43-7.51,15.21-3.19,20.49,4.7,5.74,18.46,6.24,32.71,1.19,9.93-3.52,19.44-8.66,28.64-13.63,3.37-1.82,6.85-3.7,10.32-5.48a288.22,288.22,0,0,1,62.66-23.47c-8.91-3.54-17.94-7-26.72-10.3-16.21-6.15-36.34-13.8-55.31-9.82Z"/><path d="M283.65,311c-5.4-7.41-13.69-11.44-21.71-15.33-3.27-1.6-6.66-3.24-9.83-5.1-14.91-8.76-26.19-22.69-37.1-36.17-2-2.53-4.09-5-6.15-7.53-22-26.53-36.71-32.18-47.07-34.15l-7.29-1.38,7-2.53c17-6.14,37.51-4,56.22,5.85,15,7.91,28.85,20.19,43.54,38.63h0c5.89,7.39,13.27,17.36,18.18,29,1.6,3.81,2.38,8.21,3.14,12.46.94,5.3,1.83,10.31,4.15,13.83ZM169.71,210.68c17.47,6,31.48,20.81,42,33.53,2.07,2.49,4.12,5,6.17,7.56C228.61,265,239.67,278.64,254,287c3,1.79,6.36,3.4,9.57,5,5.66,2.75,11.45,5.57,16.46,9.59-.46-2-.82-4-1.18-6.06-.72-4-1.45-8.18-2.88-11.55-4.71-11.2-11.88-20.88-17.6-28.06C244,237.91,230.54,226,216,218.3,200.72,210.24,184.23,207.59,169.71,210.68Z"/><path class="cls-2" d="M319.86,143.4c-1.15-4.48-3.26-7.49-4.25-10.51s-.85-6-3.67-12.55c-2.78,6.67-6.86,10.26-9.92,13l0,0c-.64-7-1.34-7.79-2.41-9a21.19,21.19,0,0,1-3.85-5.6c-1.33-2.82-2.55-6.83-4.44-6.87-5.18,2.25-6.16,5.36-7.94,7.7s-4.37,3.91-5.44,7.76l.27.44a111.73,111.73,0,0,0-7.54-10.53c-2.68-3.5-5.28-7.06-7.29-10s-3.42-5.39-4.84-6.42-2.85-.7-3.78,1-1.37,4.75-2.61,9-3.28,9.7-4.53,14.26c-.28,1-.52,2-.72,3,.06-.33.13-.65.21-1-8.56-5-12.11-8.57-14.19-9.76s-2.7,0-3.17,1.63-.79,3.57-1.39,6.16-1.46,5.81-1.12,8.62,1.91,5.24-.32,13.85a33.21,33.21,0,0,1-9.28-4.31c-2.33-1.72-3.18-3.53-6.24-5.41s-8.3-3.84-12.43-.14c9.54,18.35,14.07,34.6,20.78,47.06a73,73,0,0,0,24.52,26.9c8.94,5.79,17.94,8.74,30.57,8.78l4.21-4c6.95-.78,14.92-6.11,21.11-12.34A65.88,65.88,0,0,0,314,183.16a88.19,88.19,0,0,0,6.22-22.4C321.19,153.82,321,147.87,319.86,143.4ZM246.6,129.77c.08-.47.16-1,.26-1.44C246.76,128.82,246.68,129.3,246.6,129.77Zm-.18,1.41c0-.34.08-.69.13-1C246.5,130.49,246.45,130.84,246.42,131.18Zm-.14,1.92c0,.29,0,.58,0,.87C246.26,133.68,246.27,133.39,246.28,133.1Zm.09-1.42c0,.3-.05.6-.07.9C246.32,132.28,246.34,132,246.37,131.68Zm.11,5.57c-.07-.47-.11-.93-.15-1.39C246.37,136.32,246.41,136.78,246.48,137.25Zm-.17-1.83c0-.31,0-.62,0-.93C246.27,134.8,246.29,135.11,246.31,135.42ZM241.6,155.2l-.55-.55Zm1.17,1.26.24.28-.57-.63Zm-2.59-2.64-.53-.49Zm-1.48-1.29-.45-.37Zm4.73,4.7c.23.28.47.56.7.85C243.9,157.79,243.66,157.51,243.43,157.23Zm2.11,2.72c.33.45.64.91.94,1.37C246.18,160.86,245.87,160.4,245.54,160Zm-1-1.37c.24.3.47.61.7.93C245,159.19,244.76,158.88,244.52,158.58Zm48.32-2.29c0,.55.07,1.1.13,1.66C292.91,157.39,292.86,156.84,292.84,156.29Zm.18,2.08c.06.52.13,1,.21,1.58C293.15,159.42,293.08,158.89,293,158.37Zm.22,1.66c.1.59.2,1.19.31,1.8C293.44,161.22,293.34,160.62,293.24,160Zm.54,3.11c.05.27.09.53.14.8C293.87,163.67,293.83,163.4,293.78,163.14Zm.43,2.55c0,.16.05.32.07.48C294.26,166,294.24,165.85,294.21,165.69Zm.3,2.18a1.36,1.36,0,0,0,0,.2A1.36,1.36,0,0,1,294.51,167.87Zm.17,2.07,0,.46ZM301.24,134l-.25.23Z"/><path d="M321.33,143a36.57,36.57,0,0,0-2.74-7,32.22,32.22,0,0,1-1.54-3.56,28.59,28.59,0,0,1-.72-3,43.82,43.82,0,0,0-3-9.69l-1.42-3.29-1.38,3.3a29.28,29.28,0,0,1-7.31,10.41c-.58-4.54-1.3-5.56-2.47-6.85a20,20,0,0,1-3.6-5.24c-.27-.58-.54-1.2-.81-1.83-1.22-2.88-2.5-5.86-5-5.91h-.33l-.31.13a15.3,15.3,0,0,0-7.52,6.68c-.35.53-.67,1-1,1.5a23.89,23.89,0,0,1-1.61,1.82,18.62,18.62,0,0,0-2.9,3.63c-1.47-2.14-3.08-4.26-4.67-6.32l-1.12-1.46c-2.85-3.73-5.35-7.18-7.23-10l-1.07-1.6c-1.54-2.35-2.76-4.2-4.14-5.2a3.91,3.91,0,0,0-3.24-.79,4.2,4.2,0,0,0-2.76,2.28,22.11,22.11,0,0,0-1.61,5c-.31,1.25-.66,2.67-1.12,4.25-.53,1.8-1.19,3.8-1.9,5.92-.91-4-2-7.51-3-10.92a86.51,86.51,0,0,1-3.76-15.81l-3,.37a90,90,0,0,0,3.87,16.34,112.87,112.87,0,0,1,4,16c-.26.82-.5,1.64-.71,2.42a.25.25,0,0,0,0,.07A93,93,0,0,1,236.6,118a27.15,27.15,0,0,0-2.9-2.09,3.59,3.59,0,0,0-3.23-.48c-1.44.57-1.9,2.15-2.15,3-.3,1-.54,2.18-.82,3.51-.17.83-.36,1.74-.59,2.74l-.19.8c-.58,2.47-1.3,5.55-.95,8.35a16.29,16.29,0,0,0,.34,1.85c.43,2,.95,4.46-.25,9.85a29.71,29.71,0,0,1-7.28-3.57,17.37,17.37,0,0,1-2.26-2.07,19.78,19.78,0,0,0-4.09-3.42c-2.53-1.56-9-4.68-14.25,0l-.88.79.55,1.05a289.3,289.3,0,0,1,12,27.07,199.71,199.71,0,0,0,8.81,20,74,74,0,0,0,25,27.45,53.81,53.81,0,0,0,16,7.22,61,61,0,0,0,14.77,1.79l.64.56.56-.54H279l-1.83-1.59,2.66-2.56c6.55-.92,14.35-5.52,21.49-12.7a67.31,67.31,0,0,0,14.16-21.33,90.16,90.16,0,0,0,6.33-22.8C322.7,154,322.55,147.78,321.33,143Zm-38.55-20.47a25,25,0,0,0,1.84-2.08c.42-.55.8-1.14,1.16-1.7a12.32,12.32,0,0,1,5.67-5.3c.65.54,1.59,2.73,2.11,4,.27.65.56,1.32.85,1.94a22.83,22.83,0,0,0,4.1,6c.82.92,1.38,1.54,1.95,7.33l-.08.07c-.44.4-.87.79-1.26,1.17-3.32,3.24-4.22,5.94-5.36,9.37-.14.41-.28.85-.43,1.3,0,.12-.08.25-.11.37-.11.34-.22.67-.33,1l-.16.56-.27.94c-.06.22-.11.44-.17.66s-.15.61-.23.93l-.15.73c-.06.31-.13.62-.18.94s-.08.52-.12.78-.1.64-.14,1,0,.55-.07.82,0,.65-.07,1,0,.56,0,.85,0,.53,0,.8a2.83,2.83,0,0,0-.2-.28L290,154.15a38,38,0,0,1-2.2-3.15c-1.7-2.88-2.35-6.18-3-9.37-.19-.94-.38-1.92-.59-2.86s-.53-2.1-.84-3.11c-.09-.31-.21-.61-.31-.91-.24-.7-.46-1.4-.73-2.07-.15-.38-.33-.75-.49-1.13-.25-.58-.49-1.16-.77-1.73-.19-.4-.42-.79-.63-1.18s-.52-1-.81-1.53A12.28,12.28,0,0,1,282.78,122.55Zm-31.16-5.07c.75-2.25,1.46-4.37,2-6.31.48-1.64.84-3.09,1.16-4.38a21,21,0,0,1,1.32-4.31,1.53,1.53,0,0,1,.76-.78,1.12,1.12,0,0,1,.79.29,20.59,20.59,0,0,1,3.4,4.41c.34.52.7,1.07,1.08,1.63,1.91,2.84,4.45,6.34,7.34,10.12l1.12,1.46a89.19,89.19,0,0,1,6.32,8.92,37.85,37.85,0,0,1,4.31,10.92c.11.45.2.9.3,1.36s.18.93.28,1.41c.25,1.29.51,2.6.84,3.9a23.54,23.54,0,0,0,2.5,6.42,38.75,38.75,0,0,0,2.39,3.44c.55.73,1.11,1.47,1.65,2.24l.06.1c.24.36.49.72.72,1.1l.21.35c.18.3.36.6.53.91s.21.43.31.64.25.48.37.74.22.56.33.84.18.42.26.65.23.72.33,1.09c.06.18.12.36.17.55.1.39.18.81.26,1.23,0,.15.06.29.09.45s.05.3.07.45,0,.31,0,.47c.09.69.16,1.39.2,2.1a.34.34,0,0,1,0,.1c0,.78.06,1.56,0,2.35-.13,5.32-1.95,11.6-5.58,19.18-.73,1.52-1.5,3-2.32,4.66-.36.71-.74,1.44-1.11,2.19-.11.22-.22.46-.34.68-.26.53-.52,1-.78,1.59-.14.29-.28.59-.41.88-.24.49-.47,1-.7,1.47-.14.31-.28.64-.42,1-.21.48-.43,1-.64,1.46-.14.34-.27.69-.41,1-.2.49-.39,1-.58,1.46s-.26.74-.39,1.11-.34,1-.5,1.46-.23.78-.35,1.17-.29,1-.42,1.47-.2.82-.29,1.24-.21.82-.29,1.25l-2.84,2.74-.33-.3-.73-.68-.8-.77c-.23-.23-.46-.45-.68-.68l-.74-.75c-.21-.22-.42-.44-.62-.67s-.46-.49-.68-.74l-.58-.66-.62-.73-.53-.64L268,211l-.49-.63-.53-.72-.45-.62-.49-.71-.41-.6-.46-.71c-.13-.2-.26-.39-.38-.59l-.43-.71-.34-.56-.41-.72-.31-.54-.39-.72c-.09-.17-.19-.34-.28-.52l-.38-.72c-.08-.17-.17-.33-.25-.49s-.26-.52-.39-.77l-.21-.43c-.16-.31-.31-.62-.46-.92l-.12-.25-.56-1.16-.25-.52-1.31-2.69c-2.54-5.21-4.73-9.71-5.62-13a20.13,20.13,0,0,1-.63-5.91,28.9,28.9,0,0,0-.14-3.53A27.27,27.27,0,0,0,248.65,162c-.29-.49-.58-1-.9-1.47s-.6-.91-.93-1.37l-.34-.48c-.22-.3-.45-.61-.69-.91l-.58-.75-.62-.75c.09-.16.16-.31.24-.47s.28-.58.42-.87.28-.59.41-.89.24-.53.35-.79.24-.57.36-.84.2-.5.29-.74.2-.53.3-.79.17-.46.24-.68.17-.5.24-.75.14-.42.2-.63.13-.47.19-.71l.15-.58c.05-.22.1-.44.14-.66s.08-.37.11-.54.07-.42.11-.63,0-.33.07-.5.05-.39.07-.59,0-.31,0-.46,0-.38,0-.56,0-.29,0-.43v-.92c0-.18,0-.35,0-.53s0-.23,0-.35,0-.35,0-.52l0-.3c0-.18,0-.35-.06-.52l0-.27c0-.19,0-.37-.08-.56l0-.2c0-.24-.07-.48-.11-.72l-.18-1.19c0-.41-.09-.82-.13-1.22l0-.6,0-.6c0-.25,0-.5,0-.75s0-.3,0-.45l0-.83,0-.4c0-.29.05-.57.08-.86s0-.3,0-.45.07-.56.12-.85.1-.59.15-.89.09-.46.14-.69c.19-1,.43-2,.73-3C249.8,122.94,250.72,120.16,251.62,117.48Zm-21.94,8.74.19-.82c.24-1,.43-2,.61-2.8.26-1.27.49-2.36.76-3.28a4,4,0,0,1,.38-1,2,2,0,0,1,.57.26,25.18,25.18,0,0,1,2.54,1.85,94.63,94.63,0,0,0,10.69,7.34,1.48,1.48,0,0,0,0,.19c-.15.74-.27,1.45-.37,2.14,0,.2-.05.4-.07.59-.07.61-.13,1.21-.16,1.79,0,.13,0,.26,0,.38,0,.69,0,1.36,0,2l0,.49c0,.68.09,1.37.18,2.06.06.42.12.84.19,1.27,0,.21.07.43.1.65l0,.17c0,.17.05.33.07.5l0,.26c0,.15,0,.29.05.44l0,.3,0,.43c0,.1,0,.21,0,.32s0,.29,0,.44v.35c0,.15,0,.3,0,.46s0,.25,0,.37l0,.48c0,.14,0,.27,0,.41l-.06.51-.06.43c0,.18-.06.36-.1.55s0,.3-.08.45-.09.4-.14.6-.07.31-.11.47l-.19.67c-.05.16-.09.32-.14.48s-.18.53-.27.8-.09.28-.14.43c-.14.39-.3.79-.46,1.21l0,.11c-.18.46-.38.93-.6,1.42l-.21.46c-.15.31-.29.62-.45.94-.1-.11-.2-.2-.31-.3s-.44-.44-.66-.64l-.68-.63c-.19-.16-.37-.33-.56-.48s-.55-.46-.82-.67l-.43-.34c-.41-.32-.83-.61-1.24-.88a19,19,0,0,0-3-1.61,33.49,33.49,0,0,0-4.77-1.51h0l-1.12-.31c1.41-6.21.77-9.18.3-11.38a16,16,0,0,1-.3-1.58C228.5,131.24,229.13,128.57,229.68,126.22Zm15.45,84.13a71.05,71.05,0,0,1-24-26.34,195.6,195.6,0,0,1-8.67-19.7c-3.16-7.9-6.72-16.82-11.52-26.21,3.43-2.18,7.48-.37,9.71,1a16.82,16.82,0,0,1,3.5,3,21.07,21.07,0,0,0,2.63,2.4,33.05,33.05,0,0,0,8.35,4.08v0l1.64.51c.82.25,1.61.45,2.37.65a21.45,21.45,0,0,1,6.9,2.72c.41.28.84.59,1.28.93l.37.3c.32.26.64.52,1,.81l.46.42c.29.26.58.54.87.83l.51.51c.28.29.55.58.83.89l.54.6.4.47.66.8.41.51.63.85c.12.16.24.31.35.47.31.44.61.88.9,1.33a25.34,25.34,0,0,1,4,10.44,26.16,26.16,0,0,1,.12,3.18,23.19,23.19,0,0,0,.73,6.72c.25.89.57,1.85,1,2.87,1.16,3,2.92,6.65,4.87,10.66.43.87.86,1.77,1.3,2.68l.25.52c.19.38.37.76.56,1.15.05.11.11.22.16.34l.42.84.22.45.39.77c.08.16.16.32.25.48s.25.5.39.75l.27.51c.13.25.27.5.41.75l.28.51c.15.26.3.53.46.79l.28.49.55.89c.08.13.16.27.25.4.55.87,1.14,1.76,1.78,2.66l.3.4.7.95.4.51.69.86c.15.19.3.37.46.55s.47.57.72.86l.51.57.78.86.54.57c.28.3.58.6.88.9l.55.56.18.18A50.08,50.08,0,0,1,245.13,210.35Zm73.62-49.8a86.67,86.67,0,0,1-6.12,22A64.17,64.17,0,0,1,299.12,203c-6,6-12.55,10.16-18.07,11.51a1.55,1.55,0,0,0,.05-.23l.25-.91c.14-.5.28-1,.44-1.5.1-.32.2-.64.31-1,.16-.47.31-.94.48-1.4l.36-1c.18-.45.35-.9.54-1.35l.39-.93c.19-.45.39-.9.59-1.35.13-.29.26-.59.4-.89.21-.46.43-.92.65-1.38l.39-.8c.25-.52.5-1,.76-1.54l.3-.62,1.06-2.09c.83-1.63,1.61-3.17,2.35-4.72a66,66,0,0,0,5-13.53,34.19,34.19,0,0,0,.91-6.88c0-.46,0-.91,0-1.35a1.77,1.77,0,0,1,0-.23c0-.39,0-.77-.05-1.16a2.11,2.11,0,0,1,0-.26c0-.4-.06-.79-.1-1.18l0-.28c-.05-.42-.1-.84-.16-1.26,0,0,0-.09,0-.14h0a.36.36,0,0,1,0-.1c-.09-.65-.19-1.3-.3-1.93a1.85,1.85,0,0,0,0-.23c-.1-.62-.21-1.24-.32-1.85a47.59,47.59,0,0,1-.84-6.21c-.19-4.54,1.18-8.67,2.29-12s1.8-5.42,4.59-8.14c.27-.26.56-.54.87-.82l.25-.22.74-.65.09-.09.44-.39h0a35.91,35.91,0,0,0,8.17-9.78,40.66,40.66,0,0,1,1.55,5.9,30.54,30.54,0,0,0,.82,3.33,32.54,32.54,0,0,0,1.68,3.92,34.47,34.47,0,0,1,2.54,6.48C319.51,148.16,319.64,154,318.75,160.55Z"/></g></g></svg>