<svg xmlns="http://www.w3.org/2000/svg" viewBox="0 0 450 450.98"><defs><style>.cls-1{fill:#e1e6fc;}.cls-2{fill:none;}</style></defs><g id="Layer_2" data-name="Layer 2"><g id="matitas"><path class="cls-1" d="M287.3,3.46C215.68-6,135.82,1.92,83.42,51.87,51.39,82.4,0,139.22,0,230S59.74,360.26,99.86,395.05c23.34,20.24,49.07,38.65,78.5,47.9,29,9.14,60.16,8.88,90.54,6.93,46.32-3,97.28-12.35,125.76-49.16,12.28-15.87,19-35.28,25.35-54.33,17.35-52,34-106,29.14-160.6C441.32,97.55,375.8,15.12,287.3,3.46Z"/><path d="M164,330.3l0-1.87-1.87,0-6,0a54.19,54.19,0,0,0-1.55-16.34c-2.6-11.05-7.28-19.62-13.91-25.47-8.09-7.13-19.44-9.53-28.25-6a30.14,30.14,0,0,0-9,6,37.37,37.37,0,0,0-10.19,15c-3,8.7-2,18.08-.94,26.45l-7.4,0H83.1L83,330c0,1.41-.1,2.87-.16,4.37-.43,10.48-.91,22.35,2,31.69,3.79,12.09,11.94,21.43,21.81,25,5.13,1.85,10.68,2.15,15.42,2.2h1.37a45.38,45.38,0,0,0,13.91-1.78c10.5-3.41,19.2-13.11,23.26-26C164.27,354.09,164.14,341.45,164,330.3ZM96.79,302.9A33.55,33.55,0,0,1,106,289.43a26.43,26.43,0,0,1,7.89-5.24c7.52-3.05,17.31-.92,24.36,5.29,6,5.33,10.32,13.24,12.73,23.52a50.23,50.23,0,0,1,1.45,15.49c-9.55,0-19.32-.1-28.85-.19-9.07-.09-18.35-.17-27.47-.18C95.07,320,94,310.94,96.79,302.9Zm60.31,61.43c-3.71,11.69-11.5,20.48-20.85,23.52-4.61,1.49-9.7,1.64-14.07,1.59s-9.6-.32-14.2-2c-8.77-3.14-16.06-11.57-19.5-22.55-2.74-8.72-2.27-20.25-1.85-30.41,0-.88.07-1.75.1-2.6,12-.08,24.59,0,36.79.15s24.76.24,36.78.16C160.39,342.61,160.32,354.15,157.1,364.33Z"/><path d="M123.05,343.5a7.58,7.58,0,0,0-4.92,13.36,33.57,33.57,0,0,0-.64,8c0,.89,0,1.68,0,2.31a9.25,9.25,0,0,0,.58,4.48,4.65,4.65,0,0,0,4,2.71,3.86,3.86,0,0,0,1.27-.22c2.65-1,2.9-4.15,3-5.19l.76-9.56a9,9,0,0,0,0-1.86,7.59,7.59,0,0,0-4-14Zm.29,15.6-.76,9.56c-.14,1.72-.52,1.95-.51,2h0a1,1,0,0,1-.63-.56,6,6,0,0,1-.23-2.68c0-.71,0-1.58,0-2.51,0-2.58,0-6.11.83-8l.62-1.4.41,1.51A6.46,6.46,0,0,1,123.34,359.1Zm1-4.39-1.59.55-1.47-.79a3.84,3.84,0,1,1,3.06.24Z"/><path d="M353.74,283.07c-1-13.29-2.11-27-2.14-40.38,0-13,.95-26.3,1.9-39.13v-.12c1.18-15.91,2.39-32.37,1.71-48.63a55,55,0,0,0-1.06-9.61l0-1.2h-.23a25.46,25.46,0,0,0-1.12-3.36c-2.25-5.43-6.42-9.72-10.11-13.52L297.24,80.4c-6-6.18-12.22-12.58-19.86-17.24-17.66-10.77-39.48-10-54.35-8.5-18.67,1.88-37.23,1.43-55.17,1-9.24-.23-19.73-.48-30-.36-3.85.05-8.22.1-12.13,2.12C117,62,115.61,73.29,115.43,82.65l-3.67,189.58A32.55,32.55,0,0,1,116.2,271l3.64-188.23c.16-8.14,1.21-17.92,8-21.41,3-1.54,6.78-1.59,10.15-1.63,1.82,0,3.64,0,5.45,0,8.28,0,16.45.2,24.41.4,18.06.44,36.73.89,55.66-1,17.47-1.76,31.21-.66,42.36,3.45a464.87,464.87,0,0,0,1.88,75.45c.18,1.7.48,4.54,2.6,6.37a9.2,9.2,0,0,0,5.35,1.82c18.29,1.83,36.9,2.76,55.32,2.76h.11c6.38,0,12.82-.12,19.19-.34a64.2,64.2,0,0,1,.52,6.44c.67,16-.54,32.34-1.71,48.22-1,12.92-1.94,26.28-1.91,39.49,0,13.55,1.11,27.38,2.16,40.75,2.32,29.63,4.72,60.27-4.41,88.55-1.34,4.13-3.19,8.62-6.82,10.64-2.67,1.49-6.17,1.52-9.26,1.54-57.09.39-114.72-.8-171.5-3.51-.91,1.49-1.87,2.91-2.86,4.28,50.53,2.45,101.8,3.71,152.55,3.71,7.25,0,14.6,0,21.86-.07,3.43,0,7.7-.06,11.36-2.1,5-2.76,7.26-8.19,8.86-13.14C358.53,344.25,356.1,313.17,353.74,283.07ZM276.11,141.75a5.7,5.7,0,0,1-2.91-.78c-.73-.63-.94-2.08-1.1-3.5a459.86,459.86,0,0,1-1.93-73.19,50.43,50.43,0,0,1,4.92,2.65c7.15,4.36,13.17,10.55,19,16.55l45.4,46.72c3.57,3.68,7.26,7.48,9.2,12.14.24.59.45,1.2.64,1.82A553.14,553.14,0,0,1,276.11,141.75Z"/><path d="M156.54,196.85l-.36-3.74c28.69-2.76,58.35-5.61,87.74-5.44,21,.11,42.14,1.77,62.63,3.37l-.29,3.74c-20.43-1.59-41.55-3.24-62.36-3.36C214.76,191.26,185.14,194.1,156.54,196.85Z"/><rect x="262.23" y="212.03" width="3.75" height="71.13" transform="translate(6.57 502.01) rotate(-87.8)"/><path d="M249.6,288.6q-11.92,0-23.8-.46l.14-3.75a626.15,626.15,0,0,0,69.45-1.22l.27,3.74C280.4,288,265,288.6,249.6,288.6Z"/><path d="M252.61,329.61q-11.38,0-22.72-.51l.17-3.75a504.73,504.73,0,0,0,62.59-1.08L293,328C279.58,329.08,266.08,329.61,252.61,329.61Z"/><rect class="cls-2" width="450" height="450"/></g></g></svg>