<svg xmlns="http://www.w3.org/2000/svg" viewBox="0 0 1395.61 990.15"><defs><style>.cls-1{fill:#f6c651;}.cls-2{fill:#7f7e35;}.cls-3{fill:#304f25;}.cls-4{fill:#fff;}</style></defs><g id="Layer_2" data-name="Layer 2"><g id="background"><path class="cls-1" d="M842.28,1.26c-100.67-7.73-200.82,21.07-294,60-54.35,22.7-107.81,49.31-152.89,87.21-127.24,107-168.15,286.25-168.35,452.47,0,35.63,2.31,73.87,24.07,102.08,10.9,14.12,25.95,24.64,36.68,38.9,21.89,29.08,22.65,68.76,37.9,101.82,16.61,36,49.37,61.87,83.51,82,130.36,76.9,298.54,85.61,436.15,22.58,28.51-13.07,56-29.07,86.36-36.94,47-12.18,98.52-4.15,143.51-22.52,27.86-11.38,51-32.18,70-55.55,90.33-111.22,87.56-275.31,34.07-408.23-11.52-28.62-25.24-56.59-43.88-81.17-17.84-23.52-40.11-43.85-54.53-69.61-14.85-26.53-20.4-57.09-30.49-85.78C1011.21,77.08,895.69-2.67,777.61.19"/><path d="M725.34,904.87c-61.82,0-165.18-5.88-212-19.49-29.16-8.48-55.06-16.58-76.85-29.83-26.22-15.94-40.69-36.41-44.26-62.57-1.84-13.49,1.36-25,9.52-34.11,9.23-10.34,24.45-17.45,45.24-21.15a159.42,159.42,0,0,1,28.23-2.47c4.62-.16,197.13-7,254.18-7,58.9,0,220.65,3.16,247.68,4,53.56,1.68,74.4,15.52,74.34,49.37,0,29.94-17,55.43-50.36,75.78-20.86,12.71-47.21,23-80.57,31.49-37.22,9.46-127.76,15.67-190.31,16ZM474.42,740.25c-6.44,0-50,.8-68.92,22-7.13,8-9.92,18.12-8.29,30.1h0c7.68,56.31,68.6,74,117.56,88.27,28.63,8.32,114.38,19.79,215.42,19.28,62.25-.33,152.25-6.48,189.1-15.85,32.87-8.34,58.77-18.46,79.2-30.91,31.78-19.38,47.91-43.44,48-71.52.07-35.12-26.54-43-69.5-44.36-27-.84-188.66-4-247.52-4-57.37,0-252.11,7-254.07,7h-.94Z"/><path d="M418.79,751.64a152.13,152.13,0,0,1-47-12.59c-30.8-14.29-46.09-37.56-44.21-67.3,3.11-49,40.52-62.67,58.49-69.21,20.63-7.51,69-15.53,129.37-21.47,66.1-6.51,136-9.61,196.81-8.75,28.71.4,59.63.46,89.54.52,102.09.2,207.66.4,250.11,14.33,21.78,7.14,36.48,16.29,46.24,28.81s14.94,28.77,16.36,51.26c1.69,26.94-12.63,49.3-41.42,64.67A155.19,155.19,0,0,1,1029.24,747l-.78-4.94a152.69,152.69,0,0,0,42.41-14.6c27.25-14.58,40.26-34.72,38.68-59.89-2.64-41.85-18.67-62.35-59.17-75.63-41.69-13.68-146.86-13.88-248.56-14.08-29.92-.06-60.86-.12-89.6-.52-129.15-1.84-283,14.85-324.31,29.89-18.37,6.68-52.39,19.07-55.3,64.85-1.76,27.86,12.1,48.86,41.21,62.4,22.11,10.28,45.12,12.18,45.35,12.2Z"/><path d="M378.47,609.27a117,117,0,0,1-38.68-20.73c-17.53-14.13-38.16-39.79-36.89-81.84.61-20.31,9.18-40.24,24.13-56.12,16.5-17.54,40.43-30,69.19-36.15C441.16,404.87,675.54,401.3,720,401.3c41.91,0,279.44,1.51,322.81,8.2,15.62,2.41,38,8.36,55.75,23,18.82,15.5,28.36,37.14,28.36,64.31,0,36.5-13.61,62.71-25,78.27-12.39,16.88-24.66,25-25.18,25.37l-2.74-4.18c.2-.13,12.19-8.16,24-24.33,10.92-14.92,23.93-40.08,23.93-75.13,0-26.16-10.38-71.65-79.88-82.37-42.95-6.63-286.74-8.14-322-8.14-44.36,0-278.16,3.54-322.73,13-27.76,5.9-50.79,17.89-66.59,34.68-14.11,15-22.2,33.77-22.78,52.85-1,32,10.78,58.18,34.9,77.68a113.82,113.82,0,0,0,37,19.91Zm696.87-10.91-1.37-2.09h0Z"/><path d="M381.67,423a59,59,0,0,1-21-15c-9.15-10-19.37-28-16.14-56.76,6.88-61.44,53.28-72.2,90.56-80.85,3.06-.7,6.06-1.4,9-2.11,41.82-10.16,194.39-24.77,270.87-23.88,153.14,1.72,247.26,7.62,279.74,17.55,25,7.62,45.16,14.43,59.34,26.75,15.53,13.49,22,32.43,20.3,59.59-2.67,43.18-29.21,64.77-30.34,65.67l-3.11-3.92,1.56,2-1.56-2c.26-.21,25.93-21.21,28.46-62.07,3.35-54.18-26.74-66.17-76.11-81.25-32-9.79-125.68-15.62-278.34-17.33-76.19-.86-228,13.64-269.62,23.74-2.95.71-6,1.41-9,2.12C398.6,284,356,293.84,349.48,351.77c-2.4,21.51,2.54,39.22,14.71,52.65A55,55,0,0,0,383.4,418.3Z"/><path d="M443.13,272.66c-.9-.69-21.82-17.31-6.23-55.39,8.78-21.44,47.89-54.41,95.12-80.16,34.52-18.82,104.2-50.45,183-50.8h1.27c75,0,142.31,29.41,175.83,47C938,157.41,975.7,187.72,983.8,207c14.52,34.55-1.12,55.15-1.8,56L978.07,260c.59-.77,14.44-19.28,1.12-51-6.49-15.47-39.3-44.9-89.42-71.21C856.47,120.27,789.46,90.94,715,91.31c-133.25.59-258.5,91.26-273.48,127.86-14.07,34.37,3.88,48.93,4.66,49.53Z"/><path d="M483.55,587.39s.77-59.4.38-66.6,11.54-35.1,47.07-36.93c34.85-1.79,46.82,22.18,47.31,30.61L582,577.55Z"/><path d="M1299.5,672.66c-13.08,0-28.82-3.29-49.15-8.49-22.5-5.76-39.93-11.19-51.84-19-14.18-9.28-19.16-21.25-15.24-36.59,3.54-13.84,13.82-21.76,30.57-23.55,13.3-1.41,30.76.81,55,7,38,9.71,74.46,22,67.1,55.51l0,.06c-3.94,15.41-14.07,23.54-31,24.85C1303.16,672.6,1301.36,672.66,1299.5,672.66Zm-77.45-84a73.55,73.55,0,0,0-7.79.39c-15.12,1.61-24,8.34-27.11,20.56-3.5,13.66.81,23.91,13.56,32.26,11.44,7.49,28.52,12.8,50.63,18.45,17.88,4.57,38.22,9.34,53.26,8.18s23.87-8.11,27.39-21.81c5.92-27.07-20.17-39.49-64.19-50.75C1248.6,591,1233.79,588.63,1222.05,588.63Z"/><circle cx="1209.4" cy="606.01" r="3.67"/><path d="M1234,658.58c6.86-5.52,16.4-22.09,18.91-31.88,2.72-10.65,4.48-29.69.11-35.33,2.48,1.13,10.26-.37,11.26,2.16,3.43,8.78,1.72,24.05-1.2,35.46-2.1,8.21-13,31.52-15,32.55C1248.07,661.54,1237.65,660.05,1234,658.58Z"/><path d="M1261,664.69c6.82-5.34,16.24-21.46,18.68-31,2.65-10.37,4.29-28.94-.1-34.47,2.48,1.12,10.24-.3,11.25,2.18,3.48,8.59,1.86,23.47-1,34.59-2,8-12.73,30.67-14.74,31.66C1275.08,667.66,1264.66,666.14,1261,664.69Z"/><path d="M1285.83,668.45c6.7-4.92,15.85-19.93,18.13-28.86,2.49-9.71,3.83-27.15-.63-32.42,2.49,1.1,10.75,4.17,10.75,4.17,3.6,8.12,2.71,20.16.05,30.57-1.92,7.49-11.73,26.71-13.71,27.61C1300.42,669.52,1289.53,669.87,1285.83,668.45Z"/><path d="M1334.5,643.59l-4.15,12.56c2.12-3.23,5.63-5.3,9.21-6.76s7.36-2.45,10.84-4.15c.24-.11.5-.26.56-.52.1-.43-.4-.73-.81-.89a31.6,31.6,0,0,1-14.89-12.29q-.51-.79-1-1.62"/><path d="M1256.87,592.27a6.22,6.22,0,0,1-1.64-.22c-12.25-3.27-18.32-47.72-19.42-56.6h0c-.89-7.28-1.68-15-.61-22.61,1-6.91,4.13-15.48,10.06-18.83,4.66-2.63,10.34-1.53,14.83,2.89,3.32,3.28,6.09,8.26,8.46,15.24,6.65,19.57,8.26,58.69-4.34,75.43C1261.86,590.7,1259.4,592.27,1256.87,592.27ZM1239.78,535c3,24.47,9.82,51.44,16.48,53.22,1.37.36,3-.65,4.75-3,11.65-15.48,10-53.43,3.75-71.74-2.16-6.38-4.61-10.85-7.48-13.68-3.21-3.16-7-4-10-2.26-3.84,2.17-7,8.41-8.07,15.91-1,7.11-.24,14.55.62,21.57Z"/><path d="M1275,596.36a6.41,6.41,0,0,1-4.61-1.79c-9.11-8.82,7.18-50.61,10.54-58.9h0c2.76-6.8,5.83-13.95,10.46-20.06,4.21-5.57,11.14-11.52,17.95-11.57,5.35,0,9.77,3.7,11.55,9.74,1.31,4.48,1.3,10.18,0,17.43-3.7,20.33-21.3,55.3-40.46,63.81A13.45,13.45,0,0,1,1275,596.36ZM1309.4,508h-.05c-4.41,0-10.21,3.95-14.78,10-4.33,5.73-7.29,12.6-9.94,19.15h0c-9.26,22.85-16.43,49.73-11.47,54.52,1,1,2.91.88,5.62-.33,17.7-7.86,34.68-41.84,38.15-60.87,1.2-6.62,1.24-11.72.11-15.58C1315.78,510.6,1312.92,508,1309.4,508Z"/><path d="M159.62,436.59a84.92,84.92,0,0,1-15.37-1.24c-16.67-3.07-25.9-12.18-28.22-27.84-4.84-32.64,36.17-43,72.44-48.38,38.78-5.75,77.16-8.54,83.35,25.21v.06c2.34,15.73-3.85,27.15-18.92,34.9-12.6,6.48-29.82,10-53.52,13.48C184.06,435.05,170.86,436.59,159.62,436.59Zm66.29-76.86c-10.6,0-23,1.3-36.86,3.36-24.21,3.59-40.75,8.16-52,14.38-13.31,7.34-18.89,17-17,29.45,2.07,13.95,10,21.73,25,24.49,13.46,2.48,31.26.76,53.83-2.59,18.26-2.7,38.86-6.17,52.28-13.08S270,399,267.88,385C264.41,366.2,249.57,359.73,225.91,359.73Z"/><circle cx="139.12" cy="395.02" r="3.67"/><path d="M182.12,434c4.18-7.75,6.57-26.73,5.09-36.72-1.62-10.87-7.37-29.11-13.58-32.62,2.73.09,9.32-4.32,11.22-2.36,6.56,6.76,10.89,21.5,12.62,33.15,1.24,8.38.26,34.08-1.2,35.81C196.27,431.24,186.08,433.9,182.12,434Z"/><path d="M209.39,429.15c4.21-7.57,6.66-26.07,5.22-35.81C213,382.76,207.36,365,201.17,361.6c2.72.08,9.33-4.24,11.22-2.34,6.53,6.57,10.8,20.91,12.49,32.26,1.21,8.17.13,33.22-1.34,34.9C223.54,426.42,213.35,429.06,209.39,429.15Z"/><path d="M233.76,423c4.28-7.13,6.9-24.51,5.55-33.63-1.47-9.91-7-26.51-13.14-29.64,2.72,0,11.52-.32,11.52-.32,6.47,6.09,10.31,17.53,11.89,28.16,1.13,7.65-.47,29.17-2,30.77C247.63,418.33,237.72,422.87,233.76,423Z"/><path d="M269,381.23l1,13.19c.7-3.81,3.14-7.07,5.87-9.81s5.84-5.1,8.39-8a.91.91,0,0,0,.31-.7c-.07-.43-.65-.51-1.08-.5a31.6,31.6,0,0,1-18.49-5.57c-.52-.36-1-.73-1.52-1.12"/><path d="M175.13,364.46c-12.71,0-34.63-37.13-39-44.72h0c-3.65-6.37-7.37-13.2-9.32-20.62-1.77-6.75-2.19-15.87,2-21.26,3.28-4.23,8.95-5.4,14.8-3.07,4.33,1.74,8.81,5.26,13.7,10.78,13.7,15.47,30.34,50.9,25.2,71.22-1.16,4.62-3.36,7.17-6.54,7.61A5.83,5.83,0,0,1,175.13,364.46ZM137.79,277.6a7.1,7.1,0,0,0-5.81,2.71c-2.71,3.49-3.21,10.47-1.28,17.79,1.83,6.95,5.41,13.52,8.92,19.65h0c12,20.95,28.28,42.71,35.37,42.72a3,3,0,0,0,.43,0c1.41-.19,2.49-1.75,3.22-4.63,4.74-18.77-11.5-53.12-24.33-67.59-4.46-5-8.45-8.22-12.19-9.71A11.69,11.69,0,0,0,137.79,277.6Z"/><path d="M193.19,361.29a6.27,6.27,0,0,1-2.28-.43c-11.82-4.61-13-49.45-13.09-58.39h0c-.09-7.34,0-15.12,1.88-22.55,1.73-6.76,5.81-14.93,12.07-17.61,4.92-2.11,10.44-.38,14.42,4.51,2.94,3.61,5.14,8.87,6.73,16.07,4.46,20.18,1.77,59.24-12.59,74.5C197.88,360,195.49,361.29,193.19,361.29ZM196,265.43a6.72,6.72,0,0,0-2.69.56c-4.06,1.73-7.89,7.59-9.76,14.92-1.78,7-1.85,14.44-1.76,21.51h0c.31,24.65,4.11,52.21,10.54,54.71,1.32.51,3-.32,5.06-2.48,13.27-14.11,15.77-52,11.6-70.9-1.46-6.57-3.4-11.29-5.94-14.41C201,266.79,198.5,265.43,196,265.43Z"/></g><g id="matitas"><path class="cls-2" d="M306.17,619.21c-31.23-6.58-47.82-6.16-61.86-7.51s-25.54-4.47-39.88-7-31.54-4.47-45.77-4.53c-28.46-.11-45.07,7.29-55.24,11.91a84.22,84.22,0,0,0-13,6.89c-4.45,3-9.88,7.27-19.24,14S48.53,648.9,35.78,665.06s-25,39.3-30.88,53.53-5.54,19.52-2.53,28.86c13.24,8,39.2-1.22,62.53-10.07s44-17.37,65.06-25.33,42.36-15.39,58.11-22.81a131.15,131.15,0,0,0,36.21-24.44c10.31-9.61,20.77-21.42,33.53-30.62S285.63,618.39,306.17,619.21Z"/><path class="cls-3" d="M15.55,750.78c-5.17,0-9.68-.94-13.31-3.12l-.08,0,0-.09c-2.9-9-3.54-14.45,2.53-29s18.38-37.69,30.91-53.58c12.15-15.39,24.79-24.48,34-31.12l1.41-1c4.07-2.93,7.33-5.36,10.22-7.5,3.63-2.7,6.5-4.84,9-6.51a81.7,81.7,0,0,1,13-6.91c9.83-4.48,26.25-11.94,54.68-11.94h.66a285.77,285.77,0,0,1,45.81,4.53c4.86.86,9.41,1.79,13.8,2.68a239.23,239.23,0,0,0,26.06,4.32c3.38.33,7,.55,10.77.79A319.4,319.4,0,0,1,306.22,619l-.06.5c-17.78-.72-33.09,4-48.2,14.92-9,6.47-16.75,14.18-24.27,21.63-3.19,3.16-6.19,6.14-9.24,9a132.41,132.41,0,0,1-36.28,24.48c-11.93,5.62-26.94,11.19-42.84,17.09-5,1.86-10.18,3.78-15.28,5.72-10.27,3.89-20.3,7.85-30.93,12-10.91,4.31-22.2,8.77-34.13,13.29C46.51,744.62,28.83,750.78,15.55,750.78Zm-13-3.5c12.78,7.59,36.73-.46,62.23-10.14,11.93-4.52,23.22-9,34.13-13.28,10.62-4.19,20.66-8.15,30.93-12.05,5.11-1.93,10.28-3.86,15.29-5.71C161,700.2,176.05,694.63,188,689a131.61,131.61,0,0,0,36.15-24.39c3-2.83,6-5.81,9.23-9,7.53-7.47,15.32-15.19,24.33-21.68,14.21-10.25,28.61-15.09,45.05-15.09h.69a319.18,319.18,0,0,0-48.34-6.15c-3.81-.24-7.4-.46-10.79-.79a239.74,239.74,0,0,1-26.11-4.33c-4.39-.89-8.93-1.82-13.79-2.68a284.63,284.63,0,0,0-45.72-4.52H158c-28.33,0-44.68,7.44-54.48,11.89a83.73,83.73,0,0,0-13,6.87c-2.51,1.67-5.37,3.8-9,6.5-2.89,2.14-6.16,4.57-10.23,7.5l-1.41,1c-9.21,6.62-21.82,15.68-33.92,31-12.51,15.86-24.76,38.83-30.85,53.46C-.88,733.13-.32,738.27,2.58,747.28Z"/><path class="cls-4" d="M2.56,747.61l-.37-.33c18.42-20.9,35.2-36.89,54.39-51.84A288.27,288.27,0,0,1,114.49,660c21.46-10.13,54.11-23.51,116.66-37.17l.11.49c-62.5,13.65-95.12,27-116.56,37.13a288.48,288.48,0,0,0-57.81,35.4C37.72,710.77,21,726.73,2.56,747.61Z"/><path class="cls-2" d="M1084.06,388.92c18.73-25.84,31.32-36.66,40.82-47.08s15.93-20.45,24.87-32,20.38-24.47,30.89-34.07c21-19.18,38.31-24.84,48.95-28.24a82.75,82.75,0,0,1,14.27-3.62c5.29-.8,12.2-1.25,23.66-2.53s27.47-3.39,47.77,0,44.88,12.38,58.81,19,17.21,10.77,21.24,19.71c-4.46,14.78-29.87,25.39-53.11,34.49s-44.3,16.68-65.24,24.88-41.73,17-58.38,22.09a131.53,131.53,0,0,1-43.24,6.19c-14.09-.21-29.78-1.94-45.42-.2S1098.73,374.53,1084.06,388.92Z"/><path class="cls-3" d="M1084.23,389.1l-.38-.32a319.34,319.34,0,0,1,33.4-39.3c2.65-2.73,5.16-5.3,7.45-7.81A240.36,240.36,0,0,0,1141.11,321c2.66-3.62,5.41-7.36,8.44-11.26a286.34,286.34,0,0,1,30.92-34.1c21.3-19.44,38.67-25,49-28.29a82.94,82.94,0,0,1,14.32-3.64c3-.45,6.53-.79,11-1.23,3.58-.35,7.64-.74,12.64-1.3l1.72-.19c11.3-1.28,26.78-3,46.11.23,20,3.37,44.52,12.2,58.88,19s17.48,11.21,21.36,19.82l0,.09,0,.09c-4.37,14.45-27.68,24.64-53.26,34.65-11.88,4.66-23.23,8.92-34.2,13.05-10.7,4-20.8,7.83-31,11.84-5.09,2-10.21,4-15.17,6-15.74,6.29-30.62,12.23-43.23,16.07a132.24,132.24,0,0,1-43.32,6.2c-4.17-.06-8.4-.26-12.87-.46-10.58-.47-21.52-1-32.52.26C1111.47,369.88,1096.93,376.64,1084.23,389.1Zm208.63-149.25a202.62,202.62,0,0,0-23.58,1.62l-1.73.2c-5,.55-9.06,1-12.64,1.3-4.49.43-8,.78-11,1.22a84,84,0,0,0-14.23,3.62c-10.34,3.3-27.64,8.82-48.86,28.19a284.5,284.5,0,0,0-30.87,34c-3,3.89-5.77,7.63-8.43,11.25A244,244,0,0,1,1125.07,342c-2.3,2.51-4.81,5.09-7.47,7.82a319,319,0,0,0-31.71,37c12.31-11.32,26.38-17.54,44-19.51,11-1.23,22-.74,32.59-.26,4.47.2,8.69.4,12.85.46a131.83,131.83,0,0,0,43.17-6.18c12.6-3.83,27.46-9.77,43.2-16.06,5-2,10.08-4,15.16-6,10.24-4,20.34-7.81,31-11.83,11-4.13,22.32-8.4,34.2-13.05,25.4-9.95,48.56-20.05,52.94-34.25-5-11-10-14.27-21.08-19.49-14.34-6.76-38.83-15.57-58.75-18.93A133.5,133.5,0,0,0,1292.86,239.85Z"/><path class="cls-4" d="M1142.34,341.68l-.25-.43c55.54-31.85,88.73-43.85,111.43-50.74a288.37,288.37,0,0,1,66.73-12.57c24.26-1.8,47.43-1.2,75.12,1.93l-.06.49c-27.65-3.12-50.79-3.72-75-1.92A287.85,287.85,0,0,0,1253.67,291C1231,297.87,1197.83,309.86,1142.34,341.68Z"/></g></g></svg>