<?xml version="1.0" encoding="utf-8"?>
<!-- Generator: Adobe Illustrator 24.2.3, SVG Export Plug-In . SVG Version: 6.00 Build 0)  -->
<svg version="1.1" id="Layer_1" xmlns="http://www.w3.org/2000/svg" xmlns:xlink="http://www.w3.org/1999/xlink" x="0px" y="0px"
	 viewBox="0 0 465.1 433.9" style="enable-background:new 0 0 465.1 433.9;" xml:space="preserve">
<style type="text/css">
	.st0{fill:#F3D6D8;}
</style>
<g id="matitas">
	<path class="st0" d="M337.5,10.7c14.2,2.3,28.7,4.6,41.4,10.8c26.8,12.9,40.9,40,50.4,66c14.5,39.7,22.7,80.9,30.8,122.1
		c3,15.4,6.1,31,4.7,46.7c-1.2,13.1-5.5,25.9-7.9,38.8c-2.6,14-2.9,28.2-6.7,42c-11,40.5-50.6,70.8-94.2,84.6s-91,13.5-137.2,10.9
		c-38.6-2.2-77.3-6-114.2-16.1c-12-3.3-23.9-7.3-33.7-14.4C55.4,391,47,373.6,42.5,356.2s-5.5-35.4-9.5-52.8
		c-9.5-42-35.8-81.6-32.8-124.3c2.5-35.3,24.9-67,50.2-94.1C71.6,62.2,95.7,41.2,124,26.1C158.1,7.9,197.7,0.1,237.6,0
		S337.5,10.7,337.5,10.7z"/>
	<path d="M403.6,127.2c-0.5-13-2.4-25.9-12.2-32.6c-6.4-4.4-14.5-4.7-21-5l-3.2-0.1c-11.2-0.5-22.4-0.9-33.6-1.3c0-0.7,0-1.3,0-1.9
		c0-1.4-0.2-2.7-0.6-4.1c-0.5-1.8-1.8-3.2-3.5-4c-1-0.4-2-0.5-3-0.5c-4.9-0.1-9.8-0.1-14.7,0c-1.6-0.1-2.9,1.1-3,2.7
		c-0.3,2.3-0.5,4.6-0.5,6.9c-46.7-1.4-94-1.7-141.2,1.7c0-0.9,0-1.8,0-2.7c0-1.4-0.2-2.7-0.6-4.1c-0.5-1.8-1.8-3.2-3.5-4
		c-1-0.4-2-0.5-3-0.5c-4.9-0.1-9.8-0.1-14.7,0c-1.6-0.1-2.9,1.2-3,2.7c-0.4,3.6-0.6,7.2-0.4,10.8c-11.6,1.2-23.1,2.6-34.6,4.3
		c-8.5,1.2-17.7,3.2-22.7,10.4c-3,4.3-3.7,9.5-4.1,14.9c-2.1,24-1,46.8,0.2,71c0.2,3.4,0.3,6.9,0.5,10.3l4.6,96.7
		c0.1,2.7-0.1,5.4-0.3,8.1c-0.7,8.7-1.4,18.5,6.8,24.6c4.1,3,9.2,3.7,14.4,4.1c25.6,2.1,51.4,2.7,77.2,2.7c24.7,0,49.2-0.6,73.4-1.2
		l2.8-0.1c23.9-0.6,48-0.8,71.4-1c15.2-0.1,30.9-0.2,46.4-0.5c8.4-0.1,18.6-1.3,22.7-9.4c1.6-3.1,1.8-6.5,2-9.5
		C406.2,257.2,406.5,195.3,403.6,127.2z M313.2,82.2c4.4,0,8.9,0,13.2,0.1c0.5,0,0.9,0,1.4,0.2c0.4,0.3,0.7,0.7,0.9,1.2
		c0.2,0.9,0.4,1.8,0.3,2.8c0.3,7.5,0,14.9-0.6,22.4c0,0.3-0.1,0.6-0.1,0.9c0,0-0.3,0.4-2.2,0.4h-10.9c-0.5,0-0.9,0-1.4-0.1
		c-0.2-0.5-0.2-1-0.2-1.5l0-3.2c0-2.6-0.2-5.3-0.3-7.8C312.8,92.3,312.8,87.2,313.2,82.2L313.2,82.2z M146.7,82.2
		c4.4,0,8.9,0,13.2,0.1c0.5,0,0.9,0,1.4,0.2c0.4,0.3,0.7,0.7,0.9,1.2c0.2,0.9,0.4,1.8,0.3,2.8c0.3,7.5,0,14.9-0.6,22.4
		c0,0.3-0.1,0.6-0.1,0.9c0,0-0.3,0.4-2.2,0.4h-10.9c-0.5,0-0.9,0-1.4-0.1c-0.2-0.5-0.2-1-0.2-1.5l-0.1-3.2c0-2.6-0.2-5.3-0.3-7.8
		C146.4,92.3,146.3,87.2,146.7,82.2L146.7,82.2z M85.2,121.2c0.4-4.7,1-9.3,3.3-12.7c4-5.8,12.1-7.4,19.4-8.5
		c11.4-1.7,22.8-3.1,34.1-4.3c0,0.6,0.1,1.3,0.1,1.9c0.1,2.5,0.3,5.1,0.3,7.7v3.2c-0.1,1.7,0.5,3.4,1.6,4.7c1.2,1,2.8,1.5,4.4,1.4
		h0.1h10.9c1.3,0,4.7,0,6.2-2.7c0.4-0.8,0.7-1.8,0.7-2.7c0.5-5.2,0.7-10.4,0.7-15.7c26.6-1.9,53-2.7,79.7-2.7
		c20.4,0,40.9,0.4,61.5,1.1c0.1,1.9,0.2,3.8,0.3,5.7c0.1,2.5,0.3,5.1,0.3,7.7l0,3.2c-0.1,1.7,0.5,3.4,1.6,4.7c1.2,1,2.8,1.5,4.4,1.4
		h0.1H326c1.3,0,4.7,0,6.2-2.7c0.4-0.8,0.7-1.8,0.7-2.7c0.5-5.4,0.7-10.9,0.8-16.4c11,0.4,22.2,0.8,33.4,1.3l3.2,0.1
		c5.9,0.2,13.3,0.5,18.6,4.2c8.1,5.6,9.7,17.2,10.2,29c0.4,10,0.8,19.9,1,29.7l-315.9,2C83.8,146.4,84.2,133.8,85.2,121.2
		L85.2,121.2z M398.1,316.4c-0.2,2.7-0.3,5.5-1.5,7.7c-3,5.9-11.6,6.8-18.7,6.9c-15.5,0.2-31.2,0.4-46.3,0.5
		c-23.4,0.2-47.5,0.4-71.4,1l-2.8,0.1c-49.3,1.2-100.2,2.5-150.1-1.5c-4.7-0.4-8.9-0.9-12-3.2c-6.2-4.6-5.6-12.4-5-20.6
		c0.3-2.9,0.4-5.8,0.3-8.6L86,201.9c-0.2-3.5-0.3-6.9-0.5-10.3c-0.5-9.5-0.9-18.7-1.2-27.9l315.9-2
		C401.7,216.3,401,267.2,398.1,316.4z"/>
	<path d="M247.9,298.1l-2.3-3c-11.4-14.6-25.5-26.9-41.7-36l-2.2-1.2c-5.3-2.9-10.7-6-14.6-10.9c-4-5.1-6.2-12.3-6-20.2
		c0.2-9.2,3.5-17,9.2-21.4c6.1-4.7,15.4-5.8,24.3-2.6c8.5,3,15.5,8.4,20.3,13.2c6.6-14.5,22.8-24.9,39.8-25.1
		c2.9-0.1,5.9,0.3,8.6,1.4c2.6,1.1,4.9,2.8,6.8,4.9c7.6,8,10.1,20.8,6.6,33.4c-3.1,11.3-10.2,20.8-17.3,29.4
		c-3.8,4.3-7.8,8.3-12.2,12c-3.7,3.2-7.2,6.5-10.5,10.1l0,0c-3.3,3.6-6,7.9-7.7,12.5L247.9,298.1z M204.3,205.1
		c-4.1-0.1-8.1,1.1-11.4,3.6c-4.7,3.6-7.5,10.3-7.6,18.2c-0.1,6.9,1.7,13.2,5.1,17.5s8.5,7.1,13.4,9.8c0.8,0.4,1.5,0.8,2.3,1.3
		c15.6,8.9,29.3,20.5,40.7,34.4c1.9-3.8,4.3-7.4,7.1-10.5c3.4-3.7,7-7.2,10.8-10.5c4.2-3.6,8.1-7.4,11.8-11.6
		c6.8-8.3,13.5-17.4,16.5-27.9c3.7-13.4-0.5-24-5.6-29.5c-1.5-1.7-3.3-3-5.4-3.9c-2.3-0.8-4.7-1.2-7.1-1.1
		c-16.5,0.2-32.1,10.8-37.2,25.3l-1.1,3.2l-2.3-2.5c-4.5-4.8-11.7-11.1-20.9-14.4C210.4,205.6,207.4,205.1,204.3,205.1L204.3,205.1z
		"/>
</g>
</svg>
