<svg width="80" height="79" viewBox="0 0 80 79" fill="none" xmlns="http://www.w3.org/2000/svg">
<g clip-path="url(#clip0_15333_56243)">
<path d="M52.8947 78.051C39.2425 79.868 25.6147 78.7426 13.8516 71.2735C5.07756 65.7038 -0.211331 53.5002 0.150236 41.6862C0.511804 29.8723 6.10394 18.8101 14.0994 12.0304C18.6242 8.19337 23.8346 5.63654 29.1589 3.72564C39.2238 0.114796 50.2714 -1.22414 60.2747 3.00223C70.2776 7.22858 78.8926 17.9442 79.7484 30.5756C80.2934 38.6231 77.7701 46.4547 74.7155 53.5804C71.6151 60.8137 67.8001 67.8273 62.3468 72.6455L52.8947 78.051Z" fill="#D7CD97" fill-opacity="0.7"/>
<path d="M39.38 31.3538C39.2675 31.2799 39.1439 31.2243 39.0137 31.1893C38.3738 31.0008 37.262 31.1229 36.7807 31.6372C36.2258 32.2305 36.1202 33.6414 36.5688 34.2971C36.7867 34.6163 37.1243 34.828 37.4432 35.0504C38.7694 35.9656 39.9137 37.1162 40.8187 38.4442C41.0968 37.3924 41.8884 36.5588 42.6822 35.8082C43.4755 35.0576 44.3226 34.3097 44.773 33.3182C45.2238 32.3268 45.153 31.0028 44.2947 30.3265C43.8263 29.9576 43.1838 29.8367 42.5951 29.9436C41.3515 30.1686 40.4015 31.2523 40.2725 32.4873L39.753 31.7646C39.6562 31.6143 39.5362 31.4799 39.3974 31.3664L39.38 31.3538Z" fill="#FFBFA4"/>
<path d="M44.3559 30.4665C44.2046 30.3024 44.0196 30.1724 43.8134 30.0856C43.595 30.0071 43.3638 29.9703 43.1317 29.9774C41.8913 29.9913 40.6813 30.7207 40.1378 31.7692C39.7221 31.3718 39.2282 31.0639 38.6871 30.8647C37.9985 30.6244 37.2711 30.7048 36.7898 31.0751C36.3412 31.4188 36.0771 32.0221 36.063 32.7342C36.0517 33.3394 36.2188 33.8909 36.5344 34.2858C36.8372 34.6654 37.2504 34.8937 37.6522 35.114C37.707 35.1446 37.7618 35.1757 37.8173 35.2056C39.0053 35.8778 40.0488 36.775 40.8886 37.8462L41.1647 38.2006L41.3191 37.7799C41.4446 37.4469 41.6337 37.1411 41.8759 36.8793C42.118 36.6182 42.375 36.3713 42.6463 36.14C42.9742 35.8634 43.2809 35.5628 43.5634 35.2408C44.0984 34.5957 44.6292 33.8816 44.868 33.0288C45.138 32.0652 44.9413 31.083 44.3559 30.4665ZM43.6271 30.5448C43.7667 30.6052 43.8917 30.6943 43.9938 30.8063C44.3605 31.1912 44.6567 31.9425 44.3896 32.8974C44.1763 33.66 43.6825 34.323 43.1805 34.9256C42.9125 35.2306 42.6217 35.5155 42.3113 35.7777C42.0267 36.02 41.7575 36.279 41.5043 36.5534C41.3202 36.7576 41.1602 36.982 41.0277 37.2224C40.194 36.2382 39.1913 35.4084 38.066 34.7716L37.8962 34.6767C37.5378 34.4776 37.1675 34.2745 36.9268 33.9739C36.6861 33.6733 36.5544 33.2299 36.5645 32.7388C36.5738 32.1807 36.7683 31.7168 37.0993 31.4646C37.3288 31.2978 37.6079 31.2121 37.8922 31.2211C38.1085 31.2219 38.3232 31.2587 38.5273 31.3299C39.1905 31.5622 39.7186 32.0221 40.0442 32.3672L40.3257 32.6658L40.4594 32.2803C40.8258 31.2463 41.9521 30.4884 43.1396 30.4731C43.305 30.4636 43.4705 30.488 43.6255 30.5448H43.6271Z" fill="#231F20"/>
<path d="M49.9724 26.9504C49.6836 26.6631 49.2966 26.5449 48.9157 26.4639C46.9991 26.0452 45.0332 26.1547 43.1211 26.2616C42.0991 26.3179 41.0435 26.377 40.0173 26.3505C37.9066 26.2961 35.7787 26.3505 33.7209 26.4089L33.3552 26.4182C33.1801 26.4248 32.9875 26.4129 32.7535 26.4009C31.9466 26.3604 30.9484 26.308 30.4316 26.9179C29.9149 27.5278 29.8908 29.808 29.9109 32.0857V32.2735C29.9109 32.4208 29.9109 32.5489 29.9109 32.6498C29.8988 34.9361 30.0292 37.2601 30.1569 39.5066V39.5504C30.1776 39.916 30.2037 40.3706 30.4597 40.745C31.0527 41.6216 32.3624 41.6622 33.3418 41.6039C33.3418 41.6374 33.3418 41.67 33.3452 41.7019V41.802C33.3485 41.9025 33.3512 41.9873 33.3492 42.0435L33.2583 44.4528L34.7745 42.4526C34.8939 42.3016 35.0033 42.1436 35.1021 41.9786C35.1476 41.8996 35.1897 41.8169 35.2391 41.7184C35.2886 41.6134 35.3444 41.5116 35.4063 41.4132C36.732 41.376 38.0872 41.4438 39.3969 41.5063H39.4289C40.1343 41.5393 40.7721 41.5691 41.4266 41.589C43.8166 41.6622 46.2399 41.5824 48.5799 41.5054H48.6328C49.1757 41.4876 49.9266 41.3909 50.1753 40.7569C50.2361 40.5783 50.2628 40.3898 50.2532 40.2014C50.2595 38.4554 50.3041 36.6463 50.3436 35.0509C50.3957 32.9199 50.4499 30.7153 50.4311 28.5312C50.4332 27.9903 50.3932 27.3725 49.9724 26.9504ZM33.9201 42.6276L33.9422 42.0671C33.9422 41.9947 33.9422 41.881 33.9369 41.7503V41.7019C33.9335 41.5737 33.9295 41.4318 33.9315 41.2971L33.9362 40.9759L33.6139 41.0031C32.6151 41.0914 31.4077 41.1 30.9518 40.4218C30.7853 40.1762 30.7646 39.8185 30.7472 39.4973C30.6209 37.2528 30.4891 34.9321 30.5012 32.6511C30.5012 32.5476 30.5012 32.4182 30.5012 32.2676V32.0784C30.4905 30.9057 30.4617 27.7912 30.8863 27.2882C31.2145 26.8987 32.0542 26.9425 32.7294 26.9783C32.9501 26.9889 33.1821 27.0015 33.3786 26.9962L33.7443 26.9863C35.7921 26.9285 37.9167 26.8747 40.0039 26.9285C41.0736 26.9524 42.1853 26.8927 43.1653 26.8383C45.0278 26.7334 46.952 26.6252 48.7899 27.0281C49.1241 27.1024 49.3861 27.1867 49.5574 27.3599C49.8249 27.6253 49.8495 28.0899 49.8541 28.5385C49.8728 30.7133 49.8186 32.9119 49.7666 35.0389V35.1564C49.7257 36.8102 49.6849 38.5197 49.6791 40.2001C49.6866 40.3173 49.6736 40.435 49.6411 40.5478C49.5474 40.7861 49.2236 40.9069 48.6061 40.9274C46.2595 41.0044 43.8332 41.0847 41.4526 41.0117C40.8015 40.9925 40.1677 40.9633 39.4617 40.9288C38.1293 40.8657 36.7514 40.802 35.3882 40.8339L35.2746 40.8412L35.0961 40.8783L35.0039 40.9885C34.9905 41.0051 34.9771 41.0223 34.9644 41.0403C34.8704 41.178 34.7879 41.3232 34.7177 41.4744C34.6809 41.5472 34.6448 41.6216 34.6034 41.692C34.5171 41.8355 34.4216 41.9732 34.3172 42.1039L33.9201 42.6276Z" fill="#231F20"/>
<path d="M40.1781 58.8024C41.0229 58.8024 41.7076 58.1224 41.7076 57.284C41.7076 56.4452 41.0229 55.7656 40.1781 55.7656C39.3333 55.7656 38.6484 56.4452 38.6484 57.284C38.6484 58.1224 39.3333 58.8024 40.1781 58.8024Z" fill="#231F20"/>
<path d="M52.3699 15.2891H27.9739C26.9328 15.2903 25.9346 15.7014 25.1984 16.4322C24.4622 17.163 24.0481 18.1538 24.0469 19.1873V58.0929C24.0479 59.1265 24.462 60.1176 25.1982 60.8488C25.9343 61.5797 26.9326 61.9912 27.9739 61.9925H52.3699C53.4111 61.9912 54.4099 61.5801 55.1461 60.8488C55.8828 60.118 56.297 59.1265 56.2982 58.0929V19.1873C56.2965 18.1536 55.8824 17.1627 55.1457 16.4319C54.4095 15.7011 53.4111 15.2901 52.3699 15.2891ZM55.5328 58.0942C55.5324 58.9268 55.199 59.7254 54.6061 60.3144C54.0128 60.9038 53.2086 61.2351 52.3699 61.236H27.9739C27.1354 61.2351 26.3315 60.9038 25.7386 60.3153C25.1458 59.7267 24.8124 58.9284 24.8117 58.0962V19.1873C24.8127 18.3552 25.1463 17.5574 25.7391 16.9691C26.3319 16.3807 27.1356 16.0498 27.9739 16.049H33.1404C33.2815 16.7086 33.6585 17.8779 34.5831 18.0286H45.7586C46.7782 17.8574 47.1145 16.7013 47.2245 16.049H52.3699C53.2082 16.0498 54.012 16.3807 54.6049 16.969C55.1978 17.5574 55.5315 18.3551 55.5328 19.1873V58.0942Z" fill="#231F20"/>
</g>
<defs>
<clipPath id="clip0_15333_56243">
<rect width="80" height="79" fill="white"/>
</clipPath>
</defs>
</svg>
