<svg xmlns="http://www.w3.org/2000/svg" viewBox="0 0 337.99 340.15"><defs><style>.cls-1{fill:#f7b7a1;}.cls-2{fill:#010101;}.cls-3{fill:#c46516;}</style></defs><g id="Layer_2" data-name="Layer 2"><g id="Capa_1" data-name="Capa 1"><path class="cls-1" d="M93.62,24.05C58.84,40.83,32.91,84.26,19.93,120.26,5.42,160.47,3.22,207.45,21.09,247.64c7.79,17.54,19.09,33.26,31.56,47.65,11,12.69,23.2,24.63,37.67,32.49,22.23,12.09,48,13.58,72.42,11.68,42.88-3.32,85.42-16.79,118.68-44.12s56.32-69.49,56.56-114.7c.22-39.6-17-78.87-42.89-108.87C270.92,43.82,239.15,24.88,208.24,7c-31.15-18-79,3.35-108.27,14.34C97.82,22.13,95.71,23,93.62,24.05Z"/><path class="cls-2" d="M310.2,163.57a48.65,48.65,0,0,0-5-14.73c-1.23-2.21-2.36-4.47-3.43-6.76a147.29,147.29,0,0,0-20.89-33.3A144.81,144.81,0,0,0,260,88.15a130.52,130.52,0,0,0-36.43-19.82c-8.31-3-17-4.57-25.58-6.73a83.76,83.76,0,0,0-20.8-2.28c-8,0-15.95.32-23.91,1.1A154,154,0,0,0,116.56,69,227.61,227.61,0,0,0,88.5,81.63,168.7,168.7,0,0,0,67.5,94C60,99.33,52.83,105,46.71,112s-11.21,14.13-14,23a100.15,100.15,0,0,0-3.64,15.49,3.84,3.84,0,0,1-.62,1.61c-3.62,5.33-7.33,10.59-10.9,16A160.79,160.79,0,0,0,4.8,191.28a51.9,51.9,0,0,0-4.79,18A2.5,2.5,0,0,0,1.21,212,20.7,20.7,0,0,0,5.76,214c6.2,1.5,12,0,17.48-2.9,4-2.13,7.19-5.23,10.36-8.38l3.49-4.29,1.45-2.38.68,1.14,1.47,1.92.93,1.14.56.64,7.74,7.76.64.55a4.67,4.67,0,0,1,.33,1.31,96.26,96.26,0,0,0,.5,19.86c.7,5.86,2.66,11.35,4.57,16.87.37,1.08,1,1.67,2.22,1.41A38,38,0,0,0,64,247.44c8-3,14-8.24,17.5-16.16.52-2.14,1.15-4.26,1.49-6.43a27.07,27.07,0,0,0,0-4.41h2l1.55-.12,1.43-.16,1-.13,1.13-.2.66-.1.83-.16.95-.16.55-.12.65-.14,6.77-2,.76-.29,3.41-1.5.51-.25,1.86-1,.85-.48,1.23-.74.26-.16.63-.43.25-.17.66-.45,1.78-1.3.59-.5,1.19-1,.59-.5,2.38-2.18,4.42-4.45,1.89-2.07.78-.91,1-1.17L126,197l.43-.54.47-.63.41-.56.49-.63.41-.56.46-.67a.21.21,0,0,1,.14-.23l.75-1.25.5-.82.29-.58c.4-.83.81-1.66,1.22-2.49l.31-.81c.42-1.64.82-3.29,1.28-4.92.07-.22.43-.37.65-.55l.69-.1,1.1-.21.68-.12,7.64-2.28,1.41-.6,4.23-2.13.88-.5.61-.37.32-.19.58-.39.31-.2.58-.45,3.07-3.06.71-.93.21-.28.43-.56.2-.31.39-.59.19-.31.38-.62.17-.29,1.76-4.65.09-.69c0-.58,0-1.16,0-1.73l-.09-.69c-.49-1.48-1-3-1.5-4.58l6.79-2,.8-.35,1.28-.55,2.94-1.47,3-2.24a2,2,0,0,0,0-.24.39.39,0,0,1,0,.24h0c-.1.39-.19.79-.29,1.19l-.36.39-.32.85-.18.24c-.33,1.08-.67,2.16-1,3.23a16.06,16.06,0,0,0-.68,8.33l.09,1.22c.54,3.36,1.1,6.72,1.6,10.09a8.6,8.6,0,0,1-.08,1.82l-.26.18-.91.72-.58.45-3.43,3.46-.48.57-.69.92-.2.26-.7.93-.19.28a3.46,3.46,0,0,0-.52.49,36,36,0,0,0-5.73,15.45,15,15,0,0,0,0,1.9c0,.9,0,1.8,0,2.7a12.76,12.76,0,0,0,0,1.75,18.91,18.91,0,0,0,3.85,9.89l.16.25.45.63.17.26c.25.3.49.61.73.91l.2.27,1.9,2.1,1.81,1.8,1.2,1,.24.19,1,.69.27.19.62.41.29.18c3,2.29,6.61,3,10.27,3.44v.3l-2.55,1.59-.29.15-3.91,2.51-.25.17-.93.73-1.79,1.81-.47.61-.16.24a7.89,7.89,0,0,0-2.06,5.09l0,1.8c.29,1.13.59,2.25.88,3.38l.57,1,.67,1,.18.25,1.95,1.95.26.18,1.52,1,.29.15a13.75,13.75,0,0,0,7.72,2.11h3.29l2.48-.24.49-.06,1.6-.23.49-.08a31.65,31.65,0,0,0,13.37-5.06l.29-.16,2.1-1.32.28-.17,2.08-1.33.29-.21.94-.66.26-.19.93-.7.25-.21,1.23-1,.26-.18.91-.72c.29-.25.59-.49.89-.73l1.23-1,.25-.19,1.22-1,.56-.47,1.52-1.32.87-.72.89-.78c1-1,2-2,3-3,.35-.39.69-.79,1-1.18l.48-.58,1-1.2.18-.26,1-1.23.45-.58.72-.91.19-.27,1-1.51.15-.28,1-1.83.23-.51.15-.37c1.23-3.54-.73-6-3.22-8.6a71.25,71.25,0,0,0,18.39-5.24,4.92,4.92,0,0,1-.43,1.43c-1,2.24-2,4.44-2.84,6.71a15.61,15.61,0,0,0-.76,8.21,8.65,8.65,0,0,0,7.81,7.41c3.73.48,7-.82,10.27-2.4,5.73-2.81,9.7-7.42,12.92-12.79,3.47-5.79,5.66-12.11,7.72-18.49.16-.49.3-1,.48-1.54a22.23,22.23,0,0,1,4.67,6.52c2.57,5.9,2.3,11.9.55,17.91-2.13,7.34-6.31,13.53-11.22,19.26A103.68,103.68,0,0,1,257.87,257q-11.43,8.06-22.81,16.16a30.73,30.73,0,0,0-6.53,6.05c-2.52,3.23-3.27,9.87-.59,13.77a13.27,13.27,0,0,0,11.14,6.1,40.06,40.06,0,0,0,14.47-2.27c10.69-3.75,19.35-10.56,27.22-18.44,2.86-2.86,5.17-6.27,7.8-9.37a137.45,137.45,0,0,0,11.36-15.25,85,85,0,0,0,13.5-41.7A199.06,199.06,0,0,0,310.2,163.57Zm-274.38,32c-1,1.07-1.89,2.23-2.84,3.35l-1.77,2.18-.27.22c-4.7,5-10.18,8.61-17,9.94a18.48,18.48,0,0,1-10.5-.93,1.49,1.49,0,0,1-1.12-1.89A67.06,67.06,0,0,1,9,188.8c.37-.79.71-1.6,1.11-2.38L16,175.05l2.91-4.94c1.3-2.2,2.57-4.42,3.93-6.59.8-1.28,1.74-2.47,2.62-3.7h0l2.34-3.59.48.15L28,158.68c.14,3.45.11,6.92.47,10.35A53.75,53.75,0,0,0,36,191.85C36.84,193.26,36.93,194.31,35.82,195.53Zm43.4,34.33-.93,2.19c-3,6.15-8,10.08-14,12.87a14.26,14.26,0,0,1-6.13,1.48,69.29,69.29,0,0,1-3.5-17.47l-.17-4.27-.18-3.18c-.42-3,.15-5.89.11-9.2.79.45,1.25.69,1.69.95a52,52,0,0,0,17.92,6.9,41,41,0,0,0,5.32.43c.87,0,1.2.29,1.27,1.19A18.9,18.9,0,0,1,79.22,229.86Zm76.88-65.23-.76,1.4-.43.67-1.83,2.49-1.85,1.75-2.47,1.76c-.62.38-1.22.82-1.87,1.15A49.41,49.41,0,0,1,135,178c-.33.07-.68.06-1.18.11,0-.61,0-1.14,0-1.66a38.22,38.22,0,0,0-1-11.63,1.58,1.58,0,0,1,.64-1.9c1.13-.86,2.2-1.8,3.3-2.71l1.13-.93,2.12-1.59,3.88-2.27,1-.44.84-.37,3-1,.91-.2,2.08-.08a4,4,0,0,1,4.26,2.36c.27.61.55,1.21.82,1.82l.18.61.12.58c0,1,0,2,0,3Zm17.59-16.37h0Zm132.36,86.41a82.9,82.9,0,0,1-11.18,21.91,200.49,200.49,0,0,1-16.49,19.74l-3.81,4.12-1.23,1.15c-.37.35-.75.69-1.13,1l-3.54,3-4.49,3.24c-2.74,1.5-5.41,3.14-8.23,4.47a36.22,36.22,0,0,1-16.88,3.41,11,11,0,0,1-8.39-3.82,9.62,9.62,0,0,1-.65-11.82,22.3,22.3,0,0,1,4.27-4.3c3.38-2.57,6.92-4.93,10.39-7.39l4.22-2.83,1.66-1.14,3.33-2.27,4.57-3.25c2.64-2,5.3-4,7.92-6,8.49-6.61,15.81-14.28,21.1-23.74a41.23,41.23,0,0,0,4.87-14.12c1.1-7.24-1-13.51-5.49-19.12a21.54,21.54,0,0,0-1.67-2.09c-1.12-1.07-1.2-2.29-1.17-3.76.09-4.31,0-8.62-.09-12.93a3,3,0,0,0-.11-.73c-.18-.69-.58-1.19-1.35-1.13s-1.09.63-1.15,1.33c-.05.44,0,.89,0,1.34-.15,4.75-.07,9.52-.51,14.25-.41,4.42-2.25,8.5-4,12.54l-1.22,2.86-.31.68-.42.87-1.22,2.38-2,3.29a23.09,23.09,0,0,1-6.88,7.79l-5.35,3a11.11,11.11,0,0,1-6.87,1.32,5.12,5.12,0,0,1-5.24-4.73l-.15-1.17c0-.6,0-1.2,0-1.8.37-1.61.64-3.25,1.15-4.81a36.83,36.83,0,0,1,1.72-3.87c.4-.78.79-1.57,1.19-2.36l1.59-2.65,1.83-2.67,1.2-1.49,1.75-1.49c.77-1.34-.08-2.24-.86-3.15a32,32,0,0,1-7.46-16,71.82,71.82,0,0,1-.26-20.6,36.23,36.23,0,0,1,3.06-11.14,63.59,63.59,0,0,1,3.34-5.6c.43-.71.88-1.4,1.45-2.3a2.84,2.84,0,0,0-2.46,1.18,28,28,0,0,0-5.46,9,47.12,47.12,0,0,0-2.9,14.38,79.63,79.63,0,0,0,.23,13.81,34.78,34.78,0,0,0,7.11,17.87,1.44,1.44,0,0,1-.06,2.26,10.88,10.88,0,0,0-1.73,2.22,7.29,7.29,0,0,1-4.1,3.19A74.11,74.11,0,0,1,223,211.38c-1.68.06-1.89.24-2.16,2a23,23,0,0,0,2.76,0,3.88,3.88,0,0,1,3.53,1,40.24,40.24,0,0,1,3.33,3.33,3.76,3.76,0,0,1,.22,4.58,51.64,51.64,0,0,1-9.5,11.57,75.05,75.05,0,0,1-14.14,10.58,5.65,5.65,0,0,1-.67.29l-1.48.88L202.6,247l-2.74,1.29-7.13,2.44-.91.19L191,251l-.63.12-1.46.17-.92.12c-4.69.61-9.14.09-12.94-3-2.38-1.93-3.63-4.42-3-7.59l.18-.61c.21-.5.41-1,.62-1.48a11.83,11.83,0,0,1,1.26-2.13,24.11,24.11,0,0,1,9.19-6l4.67-2,1.25-1.72a4.14,4.14,0,0,0-1.45-.56c-11.94.19-20.57-7.14-24.43-16.27a20.64,20.64,0,0,1-.88-12,37.66,37.66,0,0,1,10-19.24,10.31,10.31,0,0,1,.75-.73,2.93,2.93,0,0,1,.51-.28,8.45,8.45,0,0,1,.55,1,57,57,0,0,0,20.83,25.57c3.34,2.29,7,4.15,10.5,6.16.74.42,1.77,1,2.32-.14s-.58-1.51-1.35-1.9c-7.29-3.72-14.07-8.16-19.58-14.29-1.78-2-3.3-4.18-4.94-6.29a41.92,41.92,0,0,1-6.12-11.56c-.22-.62-.34-1.28-.51-1.92l-.51-.79c-.16-.74-.31-1.48-.47-2.22l-.1-.47-.21-1-.09-.48c0-.29-.09-.58-.14-.87l-.11-.56c-.09-.55-.17-1.11-.26-1.66l-.07-.48-.21-1.61-.1-1.07-.17-2.06c0-1.57,0-3.13-.07-4.7l.27-2.83.11-.55.45-2.36.18-.76h0l1.29-3.71h-.91l-.57.25-.09,0a.91.91,0,0,1,0,.23c.77.19.6.47.38.76.22-.29.39-.57-.38-.76l-1.09.38h0l-.88.55-.05,0-.54.3h0l-.88.55-.05,0-.54.29,0,0-.57.29h0l-.57.29h0l-.58.29h0l-.58.28h0c-3.05,1.1-6.09,2.21-9.16,3.27a1.29,1.29,0,0,1-1-.33c-2.12-2-4.68-2-7.25-1.58a26.77,26.77,0,0,0-11.2,5.2c-.55.4-1.13.77-1.7,1.16L132.17,162a48.68,48.68,0,0,0-7.32-14.21,3.7,3.7,0,0,1,.91-.06,40,40,0,0,0,16.38-.23c.39-.07.78-.1,1.17-.16,1.65-.59,3.35-1.06,4.93-1.79,3.07-1.4,5.82-3.25,7.37-6.4a11.13,11.13,0,0,0,1-2.79,6.52,6.52,0,0,0-2.37-6.64,10.07,10.07,0,0,0-5.64-2.46,59.08,59.08,0,0,0-6.52,0,4.5,4.5,0,0,0-1.37.51l0,.78,1.44.44h3l4.15.62a6.8,6.8,0,0,1,4.3,2.61,3.69,3.69,0,0,1,.33,4.41l-.47,1-.5.76-1.9,1.91a6.69,6.69,0,0,1-1.52,1.12c-2.54.93-5.11,1.77-7.68,2.64l-.59.1-.86.18-4.47.51-3.28.1-2.69-.13a13,13,0,0,1-11.86-6.87,28.11,28.11,0,0,1-3.12-9.72c-.24-1.36-.41-2.73-.64-4.26-1.68,4.28-.72,8.39.23,12.5l-.26.19-1.47-1.08c-1-.69-1.85-.7-2.4,0s-.39,1.52.5,2.35c2.53,2.37,5.23,4.58,7.57,7.12,6.36,6.89,10.89,14.78,11.93,24.29.78,7.13.08,14.08-3.56,20.47a51.12,51.12,0,0,1-7.77,9.94,59.32,59.32,0,0,1-13.39,11c-6.91,3.92-14.4,5.68-22.26,6.38-10.43.92-19.67-2.36-27.94-8.23a56.14,56.14,0,0,1-21.16-27.87,53.58,53.58,0,0,1-2.53-26.83c.83-4.88,1.79-9.75,2.93-14.57,2.2-9.23,7.09-17.06,13.17-24.21s13.27-12.78,20.73-18.22a160.71,160.71,0,0,1,21.86-13A239,239,0,0,1,119,71.43,144.65,144.65,0,0,1,151.55,64c9.29-1,18.61-.82,27.93-1,7.89-.15,15.45,1.38,23,3.26,7.08,1.75,14.24,3.18,21.09,5.72a145.5,145.5,0,0,1,21.06,10A115.38,115.38,0,0,1,261,93.36a156.1,156.1,0,0,1,19.31,19.34,132.54,132.54,0,0,1,16.29,24.47c1.6,3,3.05,6.13,4.69,9.13,3.1,5.65,4.54,11.81,5.7,18.07a192.18,192.18,0,0,1,3.54,35.48C310.5,211.65,309.89,223.38,306.05,234.67Z"/><path class="cls-2" d="M106.2,163.56l-1.2.61-.44.51c-.82,1.59-.53,3.28-.33,4.92.07.54.17.76-.35,1.16-.84.65-1.49,1.56-2.29,2.28-.24.21-.73.15-1.11.22l-3.27,0-4.41.76-.58.42a2.3,2.3,0,0,0,.22.83c1.5,1.91,3,3.85,4.59,5.64.94,1,1.9,2.2,3.45,2.44l.78-.65.57-1.19.66-2.66a15.33,15.33,0,0,0-.13-2.8c-.33-1.49.46-2.3,1.47-3.07L105.2,172c.69-1.11,1.45-.05,2.18-.09l2.62.21,1.86-.43,1.51-1.43a4.6,4.6,0,0,0-2.08-4.48c-1.16-.81-2.44-1.48-3.66-2.21Zm-6.15,17.31-.52.34-5.1-5.67c1.84-.13,3.54-.28,5.24-.38.6,0,.81.35.9.94A9.43,9.43,0,0,1,100.05,180.87Zm11.76-12.37c.51,1.14.23,1.64-1,1.56a20.65,20.65,0,0,1-3.9-.66c-1.36-.36-.88-1.69-1.15-2.48,0-1.63.83-2.29,2.16-1.66C109.5,166,111.05,166.82,111.81,168.5Z"/><path class="cls-2" d="M77.83,176.06c-2-1.71-4.08-3.45-6.1-5.2a21.81,21.81,0,0,0-8.78-5l-.33.25a46.79,46.79,0,0,0,2.48,4c2.8,3.71,6.53,6.46,10.1,9.36,1.55,1.25,2.77,1.24,3.64.13S79.35,177.34,77.83,176.06Z"/><path class="cls-2" d="M108.54,202.06c-1.41-1.17-2.86-2.3-4.26-3.48a8.84,8.84,0,0,0-5.72-2,7.69,7.69,0,0,0,2.63,4.59c1.68,1.38,3.4,2.73,5.12,4.08a4.93,4.93,0,0,0,1,.64,1.78,1.78,0,0,0,2.28-.5,1.74,1.74,0,0,0,0-2.33A6.46,6.46,0,0,0,108.54,202.06Z"/><path class="cls-2" d="M84.09,157.67a1.35,1.35,0,0,0-.15,2.12l.77.11c1.07-.34,1.21-1.07.84-2Z"/><path class="cls-2" d="M96.32,166.71a6.3,6.3,0,0,0,.5-1.5c0-.15-.55-.44-.89-.53-.66-.16-1,.27-1.08.84A1.31,1.31,0,0,0,96.32,166.71Z"/><path class="cls-2" d="M92.9,159.5a3.31,3.31,0,0,0,.83.24c.49-.37,1-.77.58-1.46s-1-.54-1.55-.36C91.91,158.53,92.09,159.06,92.9,159.5Z"/><path class="cls-2" d="M88.09,163.93a.75.75,0,0,0,1.08.69l-.12-1Z"/><path class="cls-2" d="M109.37,187.85l.11,1.47.78.21.68-.56.06-1-1-.43Z"/><path class="cls-2" d="M112.34,177.91c-.6.08-1.47-.13-1.43.84s.84,1.06,1.53,1.08a3.85,3.85,0,0,0,1.21-.41C113.83,178.38,113.18,178.05,112.34,177.91Z"/><path class="cls-2" d="M115.93,186.07c.77-.38.88-.83.09-1.33h-.58c-.7.41-.69,1-.31,1.58A6.8,6.8,0,0,0,115.93,186.07Z"/><path class="cls-2" d="M107,181.2c.15.07.49-.29,1-.6-.48-.36-.74-.68-1-.74s-.67.46-.63.54A1.64,1.64,0,0,0,107,181.2Z"/><path class="cls-2" d="M111.27,182.25c-.31.05-.56.38-1,.74.49.31.83.67,1,.6s.49-.51.73-.78C111.73,182.61,111.46,182.22,111.27,182.25Z"/><path class="cls-3" d="M258.89,169.76c0,16.17-7.07,26.49-18.83,35.8-8.67,6.86-19.63,6.39-31.54,6.39-15.8,0-32.08-5.52-41.41-16.82-7.25-8.79-9.44-20.06-9.44-32.35s6.52-23.07,13.78-31.86c9.32-11.3,21.27-19,37.07-19,18.72,0,35.08,8,43.91,23C256.84,142.49,258.89,160.4,258.89,169.76Z"/><path class="cls-2" d="M212.81,212.88h-4.29a65.67,65.67,0,0,1-23.47-4.24,45.08,45.08,0,0,1-18.65-12.92c-6.59-8-9.66-18.45-9.66-32.94,0-10.43,4.57-21.05,14-32.45a56.54,56.54,0,0,1,16.38-14A44.32,44.32,0,0,1,208.52,111c19.67,0,36,8.56,44.71,23.49,4.49,7.67,6.59,25.58,6.59,35.27,0,15-5.74,25.89-19.18,36.53C232.78,212.51,223.1,212.88,212.81,212.88Zm-4.29-100A42.47,42.47,0,0,0,188,118a54.9,54.9,0,0,0-15.84,13.51C163,142.57,158.6,152.8,158.6,162.78c0,14,2.93,24.12,9.23,31.76a43.33,43.33,0,0,0,17.9,12.37A63.68,63.68,0,0,0,208.52,211h2.18c10.75,0,20.9,0,28.78-6.19,13-10.25,18.48-20.74,18.48-35.07,0-9.86-2.2-27.28-6.33-34.33C243.23,121.09,227.52,112.86,208.52,112.86Z"/><path class="cls-2" d="M189.57,132.64l1.17,1.23a1.75,1.75,0,0,0,1.83.32A2.9,2.9,0,0,0,194,132.5a5.3,5.3,0,0,0,.17-2.79l-.26-.85a3.45,3.45,0,0,0-.88-1.28l-1.18-1.22A1.75,1.75,0,0,0,190,126a2.9,2.9,0,0,0-1.38,1.69,5.29,5.29,0,0,0-.17,2.79l.26.85a3.26,3.26,0,0,0,.89,1.27Z"/><path class="cls-2" d="M245.34,156.59l.59.32a1.23,1.23,0,0,0,.94,0,1.37,1.37,0,0,0,.87-.45,2.53,2.53,0,0,0,.65-.94,3.39,3.39,0,0,0,.39-1.24l.06-1a5.09,5.09,0,0,0-.37-1.81l-.39-.72a2.4,2.4,0,0,0-1.06-.91l-.59-.31a1.21,1.21,0,0,0-1-.05,1.37,1.37,0,0,0-.87.45,2.54,2.54,0,0,0-.64,1,3.28,3.28,0,0,0-.39,1.24l-.06,1a5.12,5.12,0,0,0,.36,1.81l.39.72a2.41,2.41,0,0,0,1.07.9Z"/><path class="cls-2" d="M222.25,159.85c3.19,0,3.05-7.21-.17-7.21s-3.05,7.21.17,7.21Z"/><path class="cls-2" d="M179.57,155.33c3.18,0,3.05-7.21-.18-7.21s-3,7.21.18,7.21Z"/><path class="cls-2" d="M238,184.14h.3a1.32,1.32,0,0,0,.91-.34,1.87,1.87,0,0,0,.74-.76,3.12,3.12,0,0,0,.46-1.17,3.88,3.88,0,0,0,.17-1.4l-.11-.95a4.3,4.3,0,0,0-.65-1.58l-.49-.55a1.79,1.79,0,0,0-1.21-.46h-.3a1.32,1.32,0,0,0-.9.33,1.81,1.81,0,0,0-.74.76,3.06,3.06,0,0,0-.46,1.18,3.62,3.62,0,0,0-.17,1.39l.1,1a4.43,4.43,0,0,0,.65,1.57l.49.55a1.82,1.82,0,0,0,1.21.47Z"/><path class="cls-2" d="M198.88,173.42l.07,0-.63.15a1.4,1.4,0,0,1,.5,0l-.63-.11a1.35,1.35,0,0,1,.47.18l-.58-.35a1.09,1.09,0,0,1,.17.13,1.79,1.79,0,0,0,1.84.32,2.87,2.87,0,0,0,1.37-1.7,5.16,5.16,0,0,0,.17-2.78,3.91,3.91,0,0,0-1.14-2.13,4.25,4.25,0,0,0-.81-.51,1.28,1.28,0,0,0-.37-.14,4,4,0,0,0-.91-.13,3.81,3.81,0,0,0-1,.19,1.84,1.84,0,0,0-.79.67,2.47,2.47,0,0,0-.58,1,3.71,3.71,0,0,0-.25,1.35,4.12,4.12,0,0,0,.08,1.44,3.58,3.58,0,0,0,1.14,2.12l.57.35a1.58,1.58,0,0,0,1.26,0Z"/><path class="cls-2" d="M170.59,187h.3a1.32,1.32,0,0,0,.9-.33,1.86,1.86,0,0,0,.75-.77,3.29,3.29,0,0,0,.46-1.17,3.85,3.85,0,0,0,.17-1.39l-.11-1a4.37,4.37,0,0,0-.65-1.58l-.49-.55a1.81,1.81,0,0,0-1.21-.46h-.3a1.32,1.32,0,0,0-.9.33,1.86,1.86,0,0,0-.75.77,3.29,3.29,0,0,0-.46,1.17,4.08,4.08,0,0,0-.17,1.39l.11,1a4.37,4.37,0,0,0,.65,1.58l.49.55a1.81,1.81,0,0,0,1.21.46Z"/><path class="cls-2" d="M224.06,131.32h.3a1.33,1.33,0,0,0,.9-.33,1.83,1.83,0,0,0,.74-.77,3,3,0,0,0,.46-1.17,3.64,3.64,0,0,0,.17-1.39l-.1-1a4.56,4.56,0,0,0-.65-1.58l-.49-.55a1.81,1.81,0,0,0-1.21-.46h-.3a1.36,1.36,0,0,0-.91.33,1.83,1.83,0,0,0-.74.77,3.12,3.12,0,0,0-.46,1.17,3.82,3.82,0,0,0-.17,1.39l.11,1a4.09,4.09,0,0,0,.65,1.57l.49.56a1.79,1.79,0,0,0,1.21.46Z"/><path class="cls-2" d="M216.52,202.92l1.5.31a1.25,1.25,0,0,0,.95,0,1.37,1.37,0,0,0,.87-.45,3.83,3.83,0,0,0,1-2.18,5.07,5.07,0,0,0-.31-2.78l-.38-.72a2.53,2.53,0,0,0-1.07-.9l-1.5-.31a1.25,1.25,0,0,0-1,0,1.37,1.37,0,0,0-.86.45,3.78,3.78,0,0,0-1,2.18,5.16,5.16,0,0,0,.31,2.78l.39.72a2.45,2.45,0,0,0,1.06.9Z"/></g></g></svg>