<svg width="1029" height="1049" viewBox="0 0 1029 1049" fill="none" xmlns="http://www.w3.org/2000/svg">
<path d="M973.66 696.48C1042 591.37 1044.55 452.41 993.94 334C943.33 215.59 843.84 117.69 727.7 51.4501C692 31.0801 654 13.2601 613.59 5.57012C569.04 -2.90988 523.34 1.26011 479.59 9.93011C353 35.0001 236.93 98.4301 152.15 188.76C67.37 279.09 14.35 395.91 2.58001 518.24C-1.41999 559.3 -0.749986 601.24 9.27001 641.99C30.27 727.06 91.49 801.3 165.76 854.99C240.03 908.68 326.88 943.76 414.38 972.99C446.6 983.74 479.44 993.85 513.14 996.61C567.94 1001.08 621.65 985.82 670.91 965.04C820.98 901.76 942.64 784.17 1006.3 640.87" fill="#F6C651"/>
<path d="M837.88 866.25C851.72 878.22 866.66 888.85 882.5 898C898.37 907.17 914.73 915.47 931.5 922.86C946.72 929.66 963.62 936.97 972.89 951.63C977.01 958.15 979.59 965.761 978.75 973.541C977.86 980.371 974.53 986.65 969.38 991.22C958.58 1001.13 943.38 1005.13 929.29 1007.58C913.56 1010.38 897.53 1011.02 881.63 1009.5C866.09 1008.09 850.9 1004.03 836.73 997.5C829.8 994.21 823.24 990.19 817.17 985.5C815.66 984.33 814.17 983.12 812.73 981.86C812.03 981.26 811.37 980.6 810.65 980.01C809.56 979.11 808.19 979.01 806.84 978.75C802.29 977.87 797.72 977.061 793.15 976.281C784.15 974.741 775.2 973.28 766.28 971.46C761.583 970.66 756.983 969.36 752.56 967.59C749.039 966.01 745.766 963.931 742.84 961.421C736.969 956.281 732.299 949.91 729.16 942.76C725.84 935.37 724.08 927.301 722.35 919.421C721.53 915.701 720.76 911.981 719.89 908.281C719.23 905.471 714.25 905.33 715.01 908.59C716.91 916.69 718.41 924.891 720.7 932.901C722.842 940.891 726.376 948.44 731.14 955.21C735.936 962.03 742.347 967.551 749.8 971.281C754.239 973.281 758.902 974.751 763.69 975.651C768.49 976.651 773.32 977.571 778.16 978.431C788.42 980.251 798.71 981.86 808.94 983.88L807.69 983.33C825.6 999.82 848.92 1009.33 872.78 1013.05C884.99 1014.93 897.36 1015.49 909.69 1014.73C921.92 1014.1 934.04 1012.15 945.84 1008.9C956.58 1005.83 967.42 1001.05 975.18 992.791C978.93 988.861 981.61 984.041 982.99 978.791C984.42 972.751 984.14 966.421 982.18 960.531C973.46 933.391 943.83 923.881 920.56 912.921C895.07 900.921 870.33 886.99 848.36 869.25C845.69 867.11 843.08 864.911 840.52 862.651C840.03 862.231 839.4 862.02 838.76 862.06C838.11 862.1 837.51 862.39 837.08 862.87C836.21 864.03 836.92 865.42 837.85 866.24L837.88 866.25Z" fill="black"/>
<path d="M700.88 864.76C732.023 863.51 762.829 857.83 792.37 847.89C800.68 845.09 808.87 841.953 816.93 838.48C817.29 838.33 814.81 833.8 813.82 834.23C785.21 846.504 755.002 854.64 724.1 858.39C715.36 859.45 706.583 860.16 697.77 860.51C697.42 860.51 698.77 862.79 698.91 862.93C699.3 863.47 700.1 864.8 700.91 864.76H700.88Z" fill="black"/>
<path d="M546.58 807.84C557.441 820.002 570.548 829.954 585.18 837.15C599.959 844.466 615.933 849.062 632.34 850.72C641.749 851.668 651.231 851.622 660.63 850.58C661.22 850.52 663.25 850.25 663.15 849.32C663.05 848.39 660.94 848.53 660.43 848.59C644.762 850.287 628.915 849.012 613.72 844.83C598.469 840.704 584.087 833.864 571.26 824.64C564.064 819.435 557.464 813.452 551.58 806.8C550.89 806.02 549.17 806.24 548.28 806.43C547.87 806.52 545.9 807.08 546.58 807.84Z" fill="black"/>
<path d="M424 242.42C400.49 234.03 374.71 228.05 349.73 232.55C339.702 234.329 330.067 237.867 321.27 243C311.35 248.79 302.79 256.57 294.85 264.81C276.863 283.71 262.51 305.761 252.51 329.86C247.453 342.029 243.318 354.561 240.14 367.35C236.465 381.371 231.885 395.14 226.43 408.57C215.97 435.05 203.72 460.93 196.43 488.57C195.51 492.07 194.67 495.593 193.91 499.14C193.884 499.712 193.979 500.283 194.19 500.815C194.4 501.348 194.72 501.83 195.13 502.23C195.34 502.48 196.99 504.07 197.2 503.05C203.2 474.99 214.92 448.77 225.75 422.35C231.16 409.17 236.32 395.88 240.41 382.23C242.41 375.59 243.96 368.84 245.86 362.17C247.65 355.92 249.66 349.72 251.92 343.62C260.97 319.17 274 296.13 291.16 276.44C299.06 267.37 307.75 258.6 317.6 251.65C325.774 245.841 334.892 241.49 344.55 238.79C367.69 232.4 392.43 236.28 414.96 243.22C418.547 244.333 422.11 245.523 425.65 246.79C426.73 247.17 426.51 245.79 426.28 245.22C425.889 244.031 425.059 243.037 423.96 242.44L424 242.42Z" fill="black"/>
<path d="M193.06 500.39C184.11 522.61 175.39 544.92 167.38 567.49C158.372 592.416 150.632 617.781 144.19 643.49C138.68 666.07 134.63 689.03 133.86 712.29C133.15 733.54 134.97 755.02 140.33 775.63C145.58 795.81 154.39 815.19 167.1 831.78C173.676 840.374 181.219 848.182 189.58 855.05C199.085 862.63 209.311 869.27 220.11 874.86C243.765 887.4 269.136 896.4 295.41 901.56C320.26 906.49 346.22 908.8 371.49 906.13C395.99 903.53 420.04 897.13 443.56 890.01C467.08 882.89 490.01 874.78 513.29 867.3C518.41 865.66 523.54 864.05 528.69 862.52C528.956 862.47 529.205 862.35 529.417 862.18C529.629 862.02 529.797 861.8 529.908 861.55C530.019 861.31 530.069 861.04 530.053 860.77C530.038 860.5 529.958 860.23 529.82 860C529.12 858.88 527.42 858.72 526.28 859.06C503.92 865.7 481.95 873.55 459.76 880.71C436.34 888.27 412.65 895.41 388.4 899.71C377.378 901.81 366.205 903.01 354.99 903.32C315.485 903.76 276.334 895.84 240.11 880.07C218.28 870.41 197.17 858.07 180.67 840.64C166.5 825.64 156.08 807.38 149.38 787.92C142.57 768.11 139.44 747.17 139.02 726.27C138.57 704.36 141.15 682.58 145.55 661.14C150.8 635.53 158.25 610.4 166.55 585.63C174.39 562.3 183.09 539.28 192.16 516.42C194.1 511.507 196.057 506.607 198.03 501.72C199.03 499.18 193.94 498.09 193.03 500.34L193.06 500.39Z" fill="black"/>
<path d="M609.24 238.35C609.69 238.35 610.18 237.91 609.46 237.91C609 237.91 608.52 238.35 609.24 238.35Z" fill="black"/>
<path d="M548 135C541.63 129.16 535 128 530.35 127.23C527.103 126.614 523.813 126.242 520.51 126.12C518.02 126.12 515.71 126.41 512.86 126.61C510.01 126.81 506.62 126.92 500.75 127.61C503.644 128.118 506.586 128.299 509.52 128.15C512.676 128.087 515.834 128.187 518.98 128.45C521.706 128.741 524.402 129.263 527.04 130.01C529.537 130.641 531.976 131.484 534.33 132.53C536.231 133.442 538.012 134.588 539.63 135.94C540.873 137.076 542.212 138.103 543.63 139.01C544.831 139.729 546.257 139.975 547.63 139.7C548.87 139.37 549.9 138.45 548.03 135.02L548 135Z" fill="black"/>
<path d="M576.27 146.891C580.17 146.891 585.01 148.581 588.99 150.061C592.522 151.287 595.936 152.83 599.19 154.671C602.28 156.491 605.36 158.831 613.6 168.461C605 162.651 599.68 158.971 595.83 157.051C593.057 155.706 590.08 154.831 587.02 154.461C584.43 154.001 581.62 153.081 576.27 146.891Z" fill="black"/>
<path d="M558.66 195.78C555.919 198.984 552.267 201.276 548.19 202.35C547.55 202.52 547.9 201.21 547.98 201C548.19 200.44 548.6 199.53 549.27 199.36C551.075 198.896 552.801 198.165 554.39 197.19C555.143 196.738 555.859 196.227 556.53 195.66C556.883 195.36 557.217 195.05 557.53 194.73L558 194.26L558.12 194.13L558.38 193.83C558.62 193.55 559.31 192.95 559.43 193.66C559.447 194.442 559.165 195.2 558.64 195.78H558.66Z" fill="black"/>
<path d="M531.43 187.09C532.099 191.194 534.049 194.982 537 197.91C537.46 198.37 537.85 197.07 537.89 196.85C538.01 196.26 538.14 195.28 537.65 194.8C536.348 193.512 535.252 192.032 534.4 190.41C534.008 189.646 533.674 188.854 533.4 188.04C533.26 187.61 533.13 187.17 533.01 186.73C532.96 186.52 532.91 186.31 532.87 186.1C532.77 185.69 532.87 186.35 532.87 185.93C532.87 185.8 532.87 185.67 532.8 185.55C532.74 185.18 532.48 184.33 531.99 184.88C531.569 185.535 531.408 186.323 531.54 187.09H531.43Z" fill="black"/>
<path d="M573.86 166.21C579.92 174.99 590.76 177.96 600.54 180.48C600.918 180.594 601.321 180.6 601.703 180.498C602.084 180.395 602.43 180.188 602.7 179.9C602.808 179.789 602.886 179.652 602.925 179.502C602.964 179.352 602.963 179.195 602.923 179.045C602.882 178.896 602.804 178.76 602.694 178.65C602.585 178.54 602.449 178.461 602.3 178.42C592.93 176.01 582.48 173.29 576.65 164.87C575.87 163.73 572.96 164.87 573.86 166.21Z" fill="black"/>
<path d="M513.34 143.58C514.719 145.314 516.529 146.656 518.59 147.47C521.022 148.64 523.511 149.685 526.05 150.6C531.05 152.34 536.27 152.84 541.34 151.14C541.74 151 542.52 150.62 542.21 150.14C541.9 149.66 540.56 150.14 540.21 150.23C535.78 151.72 530.85 150.28 526.67 148.62C524.67 147.83 522.67 146.96 520.67 146C518.893 145.242 517.345 144.032 516.18 142.49C515.71 141.82 512.75 142.78 513.31 143.6L513.34 143.58Z" fill="black"/>
<path d="M336.37 353.37C351.04 357.64 365.37 362.87 379.92 367.62C393.99 372.22 408.25 376.2 422.7 379.42C451.243 385.839 480.385 389.221 509.64 389.51C537.92 389.71 566.76 387.25 594.15 379.94C619.93 373.05 644.51 362.06 667.44 348.47C690.297 334.847 711.65 318.845 731.14 300.73C733.48 298.563 735.793 296.373 738.08 294.16C739.46 292.82 736.44 288.56 735.29 289.68C716.399 308.067 695.67 324.466 673.43 338.62C650.96 352.84 626.82 364.62 601.43 372.56C574.65 380.89 546.43 384.17 518.43 384.76C489.192 385.328 459.978 382.727 431.3 377C416.98 374.16 402.83 370.61 388.85 366.35C374.4 361.96 360.22 356.76 345.85 352.16C342.277 351.02 338.687 349.923 335.08 348.87C332.86 348.22 334.79 352.96 336.38 353.42L336.37 353.37Z" fill="black"/>
<path d="M417.25 243.5C451.56 249.82 485.38 258.41 519.67 264.79C529.63 266.637 539.63 268.333 549.67 269.88C560.35 271.53 571.31 272.69 581.96 270.17C591.74 267.86 600.37 262.45 608.96 257.38C618.021 251.99 627.346 247.057 636.9 242.6C655.99 233.719 675.91 226.741 696.37 221.77C716.9 216.77 738.24 213.28 759.42 213.65C779.42 214 799.85 218.02 816.17 230.26C829.72 240.42 840.54 255.43 842.52 272.58C843.52 280.79 842.38 289.58 837.82 296.65C832.82 304.41 824.46 307.1 815.63 307.73C805.57 308.44 795.48 306.73 785.54 305.39C779.74 304.62 773.95 303.82 768.15 303.04C762.56 302.28 756.01 302.26 750.85 299.79C746.54 297.73 742.72 294.73 738.61 292.32C737.559 291.631 736.378 291.165 735.14 290.95C734.38 290.88 733.98 290.95 734.92 291.52C739.36 294.11 743.49 297.22 748.11 299.52C752.653 301.723 757.523 303.179 762.53 303.83C774.657 305.537 786.8 307.157 798.95 308.69C808.16 309.85 817.65 310.85 826.83 308.95C831.03 308.186 834.97 306.331 838.23 303.57C841.49 300.809 843.97 297.24 845.42 293.22C851.66 276.81 844.96 257.98 834.47 244.91C822.76 230.31 805.82 220.91 787.96 216.03C766.96 210.28 744.96 210.73 723.55 213.65C701.887 216.622 680.587 221.82 659.99 229.16C639.744 236.452 620.258 245.702 601.81 256.78C592.29 262.45 582.63 267.78 571.45 269.13C559.73 270.52 548 268.23 536.45 266.34C500.61 260.49 465.45 251.61 429.84 244.58C424.593 243.54 419.337 242.54 414.07 241.58C413.07 241.4 413.23 241.63 413.85 242.15C414.888 242.857 416.07 243.325 417.31 243.52L417.25 243.5Z" fill="black"/>
<path d="M729.37 217.35C737.724 230.103 742.794 244.724 744.13 259.91C744.508 264.27 744.582 268.651 744.35 273.02C744.26 274.82 748.51 277.69 748.64 275.12C749.416 258.986 746.162 242.912 739.17 228.35C737.155 224.199 734.86 220.19 732.3 216.35C731.78 215.55 730.3 214.41 729.3 214.83C728.3 215.25 728.97 216.74 729.4 217.39L729.37 217.35Z" fill="black"/>
<path d="M794 308.94C802.12 317.094 809 326.389 814.44 336.53C817.14 341.558 819.45 346.782 821.36 352.16C823.6 358 825.03 364.115 825.63 370.34C825.95 375.28 825.28 380.234 823.65 384.91C822.03 389.585 819.48 393.887 816.16 397.56C809.88 404.77 801.59 410.06 793.16 414.34C783.53 419.21 773.32 422.8 763.16 426.34C751.16 430.493 739.01 434.29 726.71 437.73C701.939 444.687 676.783 450.193 651.37 454.22C626.141 458.223 600.702 460.767 575.18 461.84C572.027 461.973 568.877 462.083 565.73 462.17C564.55 462.17 565.73 463.39 566.09 463.66C567.075 464.405 568.266 464.827 569.5 464.87C595.443 464.131 621.32 461.877 647 458.12C672.615 454.379 697.991 449.154 723 442.47C735.46 439.137 747.82 435.443 760.08 431.39C770.97 427.78 781.94 424.12 792.4 419.39C809 411.87 827.62 399.81 830.29 380.16C831.93 368.05 827.47 355.53 822.51 344.67C817.7 334.117 811.38 324.318 803.75 315.58C801.89 313.453 799.96 311.387 797.96 309.38C797.03 308.507 795.84 307.962 794.57 307.83C793.57 307.76 793.34 308.25 794.06 308.96L794 308.94Z" fill="black"/>
<path d="M566.84 461.43C557.382 475.594 544.773 487.375 530 495.85C515.08 504.555 498.439 509.896 481.24 511.5C476.918 511.891 472.578 512.031 468.24 511.92C463.68 511.955 459.13 511.468 454.68 510.47C445.54 508.08 440.49 499.14 437.22 490.92C433.826 482.266 432.432 472.956 433.142 463.686C433.852 454.417 436.647 445.427 441.32 437.39C450.234 422.737 464.556 412.18 481.19 408C483.168 407.493 485.17 407.089 487.19 406.79C488.05 406.66 488.99 406.391 489.29 405.461C489.389 405.049 489.343 404.616 489.161 404.234C488.979 403.852 488.672 403.543 488.29 403.36C485.543 401.809 482.665 400.501 479.69 399.45C477.199 398.593 474.911 397.232 472.97 395.45C471.45 393.92 470.24 391.711 470.89 389.521C471.28 388.221 472.89 385.84 474.37 386.29C475.49 386.63 477.15 386.6 477.78 385.41C478.41 384.22 477.36 383.101 476.31 382.781C474.721 382.255 473.009 382.228 471.405 382.703C469.8 383.178 468.379 384.133 467.333 385.439C466.287 386.746 465.666 388.341 465.552 390.011C465.439 391.681 465.84 393.345 466.7 394.781C470.55 401.701 479.02 402.43 485.17 406.24L486.31 402.81C467.986 405.492 451.444 415.255 440.24 430C428.53 445.52 424.89 466.26 429.96 485C432.43 494.11 436.89 504.12 444.54 510C448.81 513.3 454.02 514.66 459.3 515.26C464.074 515.787 468.878 516.004 473.68 515.91C492.087 515.531 510.175 511.037 526.62 502.76C542.819 494.737 556.944 483.077 567.89 468.69C569.23 466.92 570.5 465.1 571.72 463.25C573.22 460.97 568.21 459.41 566.84 461.48V461.43Z" fill="black"/>
<path d="M547.31 389.5C564.42 394.72 578.31 409.12 582.47 426.59C583.644 431.451 584.016 436.47 583.57 441.45C583.523 442.078 583.618 442.708 583.846 443.295C584.074 443.882 584.431 444.41 584.89 444.84C585.41 445.32 586.89 446 587.01 444.74C589.01 424.31 578.3 403.99 561.68 392.35C556.982 389.06 551.795 386.529 546.31 384.85C545.17 384.5 544.94 385.75 545.12 386.6C545.23 387.222 545.486 387.809 545.867 388.313C546.247 388.818 546.742 389.224 547.31 389.5Z" fill="black"/>
<path d="M265.21 714.15C270.418 695.601 276.764 677.39 284.21 659.62C299.149 623.924 318.305 590.144 341.27 559C352.821 543.333 365.286 528.36 378.6 514.16C391.882 499.991 406.004 486.633 420.89 474.16C422.757 472.587 424.64 471.033 426.54 469.5C427.34 468.85 427.73 467.65 426.68 467.03C426.082 466.793 425.43 466.724 424.795 466.832C424.16 466.939 423.567 467.219 423.08 467.64C377.309 504.888 338.561 550.014 308.66 600.89C298.816 617.609 289.99 634.907 282.23 652.69C274.489 670.414 267.85 688.598 262.35 707.14C261.67 709.43 261.01 711.74 260.35 714.04C259.59 716.76 264.64 716.17 265.2 714.15H265.21Z" fill="black"/>
<path d="M675.32 457.191C691.107 483.571 706.897 509.951 722.69 536.331C737.69 561.441 752.57 586.721 764.69 613.331C776.41 639.051 784.69 665.971 791.3 693.431C797.83 720.651 802.87 748.201 808.93 775.521C814.93 802.671 822 829.691 832.38 855.521C833.65 858.691 834.98 861.841 836.38 864.981C837.38 867.301 842.07 864.871 841.03 862.491C829.79 836.841 822.15 809.841 815.86 782.591C809.57 755.341 804.54 727.771 798.3 700.481C792.06 673.191 784.56 646.351 773.67 620.631C762.26 593.631 747.76 568.171 732.85 543.041C717.26 516.761 701.48 490.591 685.79 464.371L680 454.711C678.67 452.501 674 455.001 675.35 457.191H675.32Z" fill="black"/>
<path d="M777.41 423.58C793.08 444.46 801.54 470.11 803.15 496.06C804.81 522.8 799 549.48 788.42 573.98C782.25 588.096 774.698 601.566 765.87 614.19C765.31 614.98 767.64 614.9 767.87 614.88C768.87 614.78 770.32 614.52 770.93 613.64C786.56 591.13 798.76 565.95 804.69 539.09C810.37 513.37 809.99 486.38 802.14 461.15C797.8 447.115 791.09 433.925 782.3 422.15C781.52 421.15 776.62 422.57 777.4 423.6L777.41 423.58Z" fill="black"/>
<path d="M526.24 554.34C531.02 578.66 541.17 601.45 553.01 623.09C565.29 645.51 579.18 667.09 592.35 688.95C606.257 712.09 619.923 735.377 633.35 758.81C646.683 782.144 659.777 805.6 672.63 829.18C685.483 852.76 698.11 876.58 710.51 900.64C712.037 903.6 713.56 906.56 715.08 909.52C715.72 910.77 720.5 908.58 719.92 907.45C707.62 883.45 695.06 859.6 682.24 835.89C669.42 812.184 656.39 788.694 643.15 765.42C629.817 741.954 616.22 718.62 602.36 695.42C589.11 673.26 575.2 651.42 562.36 629.05C550.12 607.62 539.09 585.18 533.05 561.13C532.31 558.18 531.66 555.22 531.05 552.23C530.84 551.23 525.9 552.78 526.2 554.3L526.24 554.34Z" fill="black"/>
<path d="M738.12 294.13C746.65 301.92 758.12 304.58 769.06 307.13C780.39 309.79 791.98 310.62 803.59 310.94C810.79 311.174 817.99 310.987 825.17 310.38C828.17 310.1 826.84 305.04 823.98 305.3C811.74 306.242 799.44 306.108 787.23 304.9C776.95 303.95 766.803 301.939 756.94 298.9C750.834 297.213 745.188 294.171 740.42 290C740.186 289.803 739.912 289.658 739.617 289.577C739.322 289.495 739.013 289.478 738.71 289.528C738.408 289.577 738.12 289.692 737.866 289.863C737.613 290.034 737.399 290.258 737.24 290.52C736.954 291.129 736.885 291.817 737.045 292.471C737.206 293.124 737.585 293.703 738.12 294.11V294.13Z" fill="black"/>
<path d="M421.38 244.5C422.27 244.5 420.7 242.73 420.58 242.6C419.9 241.92 418.81 240.91 417.77 240.91C416.73 240.91 418.44 242.69 418.56 242.81C419.24 243.49 420.34 244.5 421.38 244.5Z" fill="black"/>
<path d="M417.43 243.7C437.543 248.567 457.733 253.09 478 257.27C498.267 261.45 518.6 265.28 539 268.76C550.36 270.69 562 273.47 573.51 271.84C574.23 271.74 576.27 271.41 576.51 270.58C576.75 269.75 574.8 270.05 574.51 270.09C569.597 270.677 564.624 270.542 559.75 269.69C554.75 268.94 549.75 268.07 544.75 267.23C534.71 265.53 524.69 263.743 514.69 261.87C494.763 258.136 474.907 254.077 455.12 249.69C443.927 247.197 432.76 244.603 421.62 241.91C420.398 241.739 419.152 241.934 418.04 242.47C417.63 242.65 416.25 243.47 417.36 243.7H417.43Z" fill="black"/>
<path d="M673.76 829.05C673.66 853.87 685.2 877.39 697.23 898.46C703.89 910.14 711.12 921.46 718.23 932.87C725.02 943.7 732.46 954.53 737.33 966.39C745.88 987.18 748.4 1017.22 729.68 1033.52C713.9 1047.26 689.38 1048 670.95 1039.65C647.7 1029.12 631.81 1007.86 616.87 988.04C609.04 977.66 601.13 967.32 592.04 958.04C583.321 948.99 573.188 941.43 562.04 935.63C552.17 930.56 541.29 926.5 532.86 919.08C528.537 915.39 525.301 910.59 523.5 905.2C521.653 898.86 521.416 892.15 522.81 885.69C525.36 872.3 532.74 860.81 539.55 849.25C543.116 843.447 546.231 837.379 548.87 831.1C551.416 824.594 553.026 817.759 553.65 810.8C554.38 803.36 554.29 795.87 554.32 788.4C554.32 782.6 554.44 776.8 554.49 770.99C554.61 758.94 554.77 746.88 555.27 734.83C556.27 710.59 558.27 685.83 565.6 662.55C567.206 657.389 569.164 652.344 571.46 647.45C572.35 645.57 567.87 642.84 567.05 644.56C556.73 666.38 553.41 691.13 551.61 714.96C549.74 739.65 549.68 764.51 549.61 789.26C549.767 796.851 549.433 804.443 548.61 811.99C547.662 819.111 545.639 826.047 542.61 832.56C536.77 845.15 528.2 856.3 522.72 869.07C517.61 880.98 514.89 894.79 520.11 907.15C524.66 917.95 534.6 924.89 544.59 930.23C555.24 935.93 566.39 940.38 576.09 947.73C586.59 955.73 595.36 965.73 603.5 975.97C619.65 996.34 634.03 1018.72 655.5 1034.05C665.16 1040.94 676.08 1046.13 687.86 1048.05C698.404 1049.8 709.22 1048.84 719.29 1045.26C728.75 1041.8 737.21 1035.45 742.09 1026.52C748.09 1015.52 749.37 1002.68 747.92 990.43C746.256 977.7 742.006 965.45 735.43 954.43C728.64 942.76 721.31 931.43 714.17 919.97C700.34 897.76 685.72 874.33 680.27 848.39C679.062 842.76 678.448 837.019 678.44 831.26C678.44 829.34 673.77 827.09 673.76 829.13V829.05Z" fill="black"/>
<path d="M153.44 623.14C170.564 629.655 188.153 634.874 206.06 638.75C223.35 642.37 240.939 644.379 258.6 644.75C269.16 644.98 279.72 644.64 290.26 643.84C292.26 643.69 290.15 638.94 288.35 639.08C270.218 640.522 251.993 640.358 233.89 638.59C216.371 636.729 199.053 633.312 182.14 628.38C172.08 625.48 162.14 622.12 152.35 618.46C151.22 618.04 151.04 619.46 151.22 620.2C151.346 620.819 151.611 621.401 151.996 621.902C152.381 622.402 152.874 622.809 153.44 623.09V623.14Z" fill="black"/>
<path d="M518.79 214.26C521.55 220.26 526.91 224.37 533 226.57C539.63 228.97 547.26 229.96 554 227.41C554.46 227.24 552.41 226.59 552.3 226.56C551.48 226.35 549.94 225.79 549.08 226.12C544.63 227.8 539.62 228.21 535.21 226.24C530.279 224.096 526.285 220.248 523.96 215.4C523.68 214.79 522.05 214.59 521.47 214.47C520.59 214.335 519.701 214.265 518.81 214.26H518.79Z" fill="black"/>
<path d="M587.5 99.9C586.86 106.9 589.39 113.6 592.65 119.69C595.77 125.51 599.39 131.11 602.95 136.69C609.9 147.53 617.63 158.16 627.8 166.21C633.38 170.64 640.33 175.21 647.8 173.38C648.957 173.011 650.04 172.442 651 171.7C651.24 171.53 652.56 170.51 651.55 170.76C644.77 172.4 638.19 168.08 633.08 164.13C628.138 160.256 623.635 155.853 619.65 151C615.635 146.086 611.912 140.94 608.5 135.59C604.92 130.09 601.37 124.51 598.15 118.8C594.47 112.24 591.4 105.03 592.09 97.35C592.09 97.13 589.76 98.2 589.59 98.3C589.08 98.59 587.59 99.24 587.5 99.94V99.9Z" fill="black"/>
<path d="M591.82 95.7203C580.103 103.003 567.352 108.471 554 111.94C541.11 115.25 527.24 117.18 513.94 115.86C507.2 115.19 500.28 113.38 494.79 109.24C493.79 108.48 492.3 107.98 491.22 108.95C491.006 109.173 490.841 109.438 490.736 109.729C490.631 110.019 490.588 110.328 490.609 110.636C490.631 110.944 490.717 111.245 490.862 111.517C491.007 111.79 491.207 112.03 491.45 112.22C502.75 120.74 517.24 121.45 530.85 120.52C545.316 119.492 559.535 116.226 573 110.84C580.502 107.841 587.726 104.191 594.59 99.9303C597.31 98.2503 594.16 94.2403 591.78 95.7203H591.82Z" fill="black"/>
<path d="M597.75 97.8705C602.1 118.101 615.55 135.871 633.44 146.191C638.445 149.063 643.781 151.316 649.33 152.901C650.24 153.161 651.65 152.641 652.54 152.421C652.82 152.351 654.54 151.751 654.26 151.681C634.41 146.021 617.56 131.431 608.51 112.941C605.992 107.794 604.109 102.361 602.9 96.7605C602.81 96.3405 597.65 97.4305 597.75 97.8705Z" fill="black"/>
<path d="M586.66 92.7301C575.02 96.5031 563.227 99.7561 551.28 102.49C545.427 103.823 539.55 105.033 533.65 106.12C527.65 107.21 521.5 108.59 515.4 108.68C512.772 108.799 510.163 108.183 507.866 106.901C505.569 105.618 503.676 103.72 502.4 101.42C502.02 100.7 499.99 100.55 499.28 100.47C499 100.47 497.04 100.22 497.35 100.8C499.93 105.61 505.14 108.12 510.28 109.25C517.14 110.76 523.96 109.85 530.8 108.72C543.973 106.553 557.02 103.75 569.94 100.31C577.22 98.3701 584.447 96.2401 591.62 93.9201C592.26 93.7101 590.01 92.9201 589.93 92.9201C588.879 92.5741 587.756 92.5051 586.67 92.7201L586.66 92.7301Z" fill="black"/>
<path d="M603.8 92.2801C598.33 88.0601 590.8 86.5001 584.14 85.4201C575.882 84.0441 567.487 83.6781 559.14 84.3301C550.339 85.1191 541.766 87.5621 533.87 91.5301C525.6 95.6101 518.37 101.28 511.42 107.28C508 110.176 504.974 113.507 502.42 117.19C499.867 121.013 497.639 125.044 495.76 129.24C491.91 137.57 488.99 146.3 485.29 154.69C483.239 159.166 481.605 163.823 480.41 168.6C479.291 173.481 478.558 178.443 478.22 183.44C477.509 192.768 478.01 202.15 479.71 211.35C481.172 219.355 484.203 226.991 488.63 233.82C490.87 237.184 493.353 240.379 496.06 243.38C498.983 246.804 502.265 249.905 505.85 252.63C513.652 258.402 522.661 262.33 532.2 264.12C537.06 264.862 541.99 265.037 546.89 264.64C552.013 264.366 557.111 263.744 562.15 262.78C571.503 260.994 580.54 257.837 588.97 253.41C597.19 249.06 604.35 243.41 611.23 237.16C618.83 230.29 626.15 222.94 631.81 214.35C634.701 209.758 637.254 204.962 639.45 200C641.901 194.919 643.948 189.652 645.57 184.25C648.68 173.45 648.72 162.39 646.57 151.39C645.511 145.833 643.982 140.377 642 135.08C640.39 130.453 638.337 125.992 635.87 121.76C632.05 115.59 626.49 110.48 621.06 105.76C616.34 101.64 611.4 97.7601 606.33 94.0701C605.5 93.4701 604.68 92.87 603.84 92.29C603.316 92.029 602.736 91.899 602.15 91.913C601.565 91.927 600.991 92.084 600.48 92.37C600.05 92.56 598.21 93.72 599.15 94.37C608.078 100.43 616.4 107.339 624 115C626.368 117.365 628.523 119.935 630.44 122.68C632.92 126.36 634.62 130.68 636.25 134.79C640.421 145.035 642.734 155.942 643.08 167C643.31 177.74 640.08 188.21 635.74 197.94C631.4 207.67 626.33 216.53 619.33 224.43C616.12 228.05 612.64 231.43 609.09 234.72C605.7 237.84 602.28 240.959 598.65 243.799C591.913 249.066 584.409 253.272 576.4 256.27C567.798 259.41 558.782 261.269 549.64 261.79C544.957 262.228 540.238 262.121 535.58 261.47C531.054 260.674 526.641 259.331 522.44 257.47C514.118 253.975 506.743 248.557 500.92 241.66C495.72 235.85 491.17 229.51 488.24 222.25C485.02 214.25 483.66 205.66 483.13 197.13C482.509 187.834 483.161 178.498 485.07 169.38C487.02 160.38 491.18 152.14 494.52 143.6C497.77 135.3 500.96 126.86 505.72 119.27C507.907 115.66 510.601 112.383 513.72 109.54C517.13 106.54 520.61 103.59 524.24 100.85C531.141 95.5991 538.933 91.636 547.24 89.15C550.542 88.155 553.942 87.5181 557.38 87.2501C561.185 86.9431 565.006 86.8761 568.82 87.0501C576.601 87.1951 584.32 88.4621 591.74 90.8101C594.395 91.6091 596.899 92.8421 599.15 94.4601C600.07 95.1601 601.55 94.8101 602.51 94.3801C603 94.0801 604.71 93.0001 603.8 92.2801Z" fill="black"/>
<path d="M489.67 249.36C514.97 261.62 544.05 267.86 571.67 259.88C579.287 257.703 586.561 254.468 593.28 250.27C593.95 249.85 594.67 248.9 593.64 248.48C592.61 248.06 590.98 248.78 590.11 249.33C567.93 263.27 540.04 263.01 515.68 255.53C508.34 253.257 501.185 250.421 494.28 247.05C493.734 246.861 493.154 246.796 492.58 246.858C492.006 246.92 491.453 247.109 490.96 247.41C490.64 247.57 488.72 248.88 489.71 249.36H489.67Z" fill="black"/>
<path d="M650.72 230.27C661.455 215.777 669.605 199.538 674.81 182.27C679.937 165.033 681.092 146.858 678.19 129.11C676.703 120.333 674.067 111.789 670.35 103.7C666.609 95.9882 662.29 88.5712 657.43 81.5102C652.927 74.4942 647.632 68.0182 641.65 62.2102C636.035 56.9522 629.66 52.5692 622.74 49.2102C607.601 41.8392 590.968 38.0512 574.13 38.1402C556.019 38.3542 538.296 43.4132 522.8 52.7902C509.57 60.7202 498.64 71.6302 488.55 83.1602C482.579 89.7522 477.028 96.7122 471.93 104C466.758 111.782 462.69 120.242 459.84 129.14C456.79 138.38 454.49 147.89 452.32 157.36C450.1 167.08 448.42 176.98 448.77 186.99C449.12 197 451.35 206.68 454.18 216.16C456.92 225.336 460.308 234.305 464.32 243C466.32 247.267 468.44 251.46 470.68 255.58C471.55 257.17 476.44 255.37 475.74 254.1C466.74 237.61 459.56 219.64 455.74 201.17C453.727 191.639 453.295 181.842 454.46 172.17C455.66 162.52 458.09 153.03 460.46 143.61C462.75 134.61 465.31 125.61 469.12 117.09C472.85 108.74 478.12 101.18 483.86 94.0902C493.5 82.0902 503.86 70.1602 516.11 60.6902C528.768 50.7532 543.768 44.2382 559.67 41.7702C576.5 39.3402 594 41.8502 609.85 47.8602C616.624 50.3042 623.059 53.6002 629 57.6702C635.572 62.4372 641.413 68.1372 646.34 74.5902C651.308 81.1202 655.838 87.9712 659.9 95.1002C664.381 102.56 667.918 110.548 670.43 118.88C675.245 135.798 676.013 153.611 672.67 170.88C669.239 188.247 662.624 204.83 653.16 219.79C650.913 223.41 648.53 226.944 646.01 230.39C645.32 231.39 646.66 231.69 647.38 231.68C648.005 231.688 648.624 231.565 649.199 231.321C649.774 231.077 650.292 230.715 650.72 230.26V230.27Z" fill="black"/>
<path d="M459 119.32C448.89 138.59 438.75 157.92 426.5 175.94C415.5 192.18 402.62 207.36 387.27 219.7C378.803 226.581 369.52 232.392 359.63 237C358.63 237.47 359.86 238.13 360.39 238.32C361.534 238.799 362.805 238.88 364 238.55C381.67 230.41 397.12 218.2 410.3 203.98C424.61 188.56 436.19 170.88 446.6 152.67C452.72 141.97 458.44 131.05 464.17 120.14C464.53 119.45 459.69 117.97 458.96 119.36L459 119.32Z" fill="black"/>
<path d="M402.4 128.33C403.47 123.85 406.88 117.24 409.18 111.2C411.374 105.742 412.589 99.94 412.77 94.06C412.981 88.178 411.726 82.337 409.12 77.06C406.343 71.7 402.44 67.003 397.68 63.29C393.68 60.29 390.29 59.66 388.2 60.13C386.11 60.6 385.3 62.19 385.2 65.64C385.1 69.09 385.77 74.4 386.3 80.3C386.83 86.2 387.3 92.68 387.75 97.82C388.2 102.96 388.81 106.74 387.33 109.53C385.85 112.32 382.33 114.1 379.54 114.44C376.75 114.78 374.77 113.69 373.78 111.44C372.79 109.19 372.78 105.9 372.96 101.56C373.14 97.22 373.34 91.85 373.55 86.76C373.76 81.67 373.95 76.82 372.95 71.76C371.805 66.572 369.862 61.592 367.19 57C364.597 52.393 361.346 48.189 357.54 44.52C353.511 40.685 349.192 37.168 344.62 34C341.889 32.005 338.94 30.327 335.83 29C333.778 28.161 331.674 27.456 329.53 26.89C328.07 26.52 327.53 26.47 327.36 26.77C327.19 27.07 327.28 27.69 327.85 29.22C328.839 31.785 329.971 34.292 331.24 36.73C333.724 41.214 335.831 45.897 337.54 50.73C339.399 56.876 340.694 63.179 341.41 69.56C342.19 75.67 342.53 80.93 342.87 85.74C343.21 90.55 343.54 94.9 342.71 98.41C341.88 101.92 339.89 104.6 337.79 105.59C335.69 106.58 333.46 105.91 331.28 104.3C328.595 102.24 326.659 99.356 325.77 96.09C324.55 92.09 324.23 86.55 323.98 82.3C323.73 78.05 323.55 75.05 323.19 68.89C322.83 62.73 322.28 53.39 320.41 46.19C318.847 40.018 315.814 34.316 311.57 29.57C307.727 25.254 303.36 21.434 298.57 18.2C293.845 14.797 288.745 11.948 283.37 9.71C278.811 7.911 273.97 6.933 269.07 6.82C264.61 6.72 260.47 7.33998 258.27 8.64998C256.07 9.95998 255.78 11.98 257.97 14.84C260.16 17.7 264.81 21.41 268.97 25.7C273.135 29.989 276.823 34.717 279.97 39.8C283.05 44.75 285.47 49.8 287.83 54.54C290.19 59.28 292.47 63.84 293.75 68.6C295.03 73.36 295.31 78.37 294.3 81.74C293.884 83.192 293.107 84.514 292.04 85.583C290.972 86.652 289.651 87.432 288.2 87.85C285.383 88.91 282.277 88.91 279.46 87.85C276.85 86.71 274.95 84.23 273.56 80.19C272.17 76.15 271.3 70.54 269.39 65.33C267.48 60.12 264.56 55.33 261.31 49.97C258.074 44.381 254.466 39.015 250.51 33.91C246.829 29.325 242.396 25.399 237.4 22.3C232.954 19.491 227.914 17.759 222.68 17.24C218.223 16.89 213.747 17.603 209.62 19.32C206.48 20.74 205.12 22.53 207.35 26.45C209.58 30.37 215.4 36.45 220 41.86C224.6 47.27 228 52.1 231.44 55.98C234.88 59.86 238.33 62.8 241.21 65.93C244.09 69.06 246.39 72.36 247.21 76.26C248.03 80.16 247.53 84.68 245.32 87.26C243.11 89.84 239.27 90.41 236.02 89.57C232.77 88.73 230.12 86.45 227.57 83.18C224.732 79.294 222.214 75.183 220.04 70.89C217.51 66.14 214.88 60.89 211.84 57.3C208.8 53.71 205.32 51.68 200.37 49.83C195.42 47.98 188.99 46.28 183.37 47.24C177.75 48.2 172.85 51.83 168.55 54.93C164.25 58.03 160.55 60.6 156.63 61.8C152.71 63 148.69 62.8 145.36 63.29C142.03 63.78 139.36 64.82 137.54 67.08C135.72 69.34 134.62 72.78 135.03 78.62C135.44 84.46 137.32 92.68 137.86 100.27C138.4 107.86 137.6 114.8 137.96 119.92C138.145 124.35 139.838 128.585 142.76 131.92C146.088 135.8 149.808 139.325 153.86 142.44C157.412 145.311 161.309 147.727 165.46 149.63C170.231 151.923 175.398 153.281 180.68 153.63C186.22 153.86 191.97 152.49 197.53 151.41C202.585 150.393 207.693 149.666 212.83 149.23C216.433 148.967 220.051 148.99 223.65 149.3C226.74 149.54 229.57 149.88 230.84 151.14C232.11 152.4 231.84 154.59 230.28 156.93C228.248 159.874 225.297 162.061 221.89 163.15C217.81 164.54 212.42 164.8 206.1 164.79C199.78 164.78 192.55 164.5 185.5 165.21C178.45 165.92 171.58 167.62 168.17 170.37C164.76 173.12 164.81 176.95 165.51 180.37C166.21 183.79 167.51 186.73 171.66 190.09C175.81 193.45 182.66 197.2 188.9 198.26C195.14 199.32 200.65 197.67 208.08 195.26C215.51 192.85 224.84 189.68 232.7 187.83C239.368 186.09 246.281 185.482 253.15 186.03C259.36 186.62 265.4 188.34 267.87 190.23C270.34 192.12 269.23 194.15 267.46 196.1C265.69 198.05 263.24 199.92 257.9 200.87C252.56 201.82 244.33 201.87 236.34 203.08C228.473 204.36 220.763 206.468 213.34 209.37C206.07 212.12 199.25 215.27 195.45 218.97C191.65 222.67 190.88 226.9 193.45 230.85C196.02 234.8 202.02 238.46 210.03 240.15C218.04 241.84 228.03 241.55 236.89 239.54C245.75 237.53 253.33 233.83 260.89 229.7C268.45 225.57 276.01 221.01 281.06 218.17C286.11 215.33 288.67 214.17 290.49 214.74C292.31 215.31 293.41 217.45 292.8 220.29C292.19 223.13 289.87 226.66 286.96 230.23C283.819 234.152 280.174 237.642 276.12 240.61C271.639 243.927 266.589 246.398 261.22 247.9C256.16 249.15 251.45 248.84 246.4 249.14C241.35 249.44 235.98 250.37 232.72 253.85C229.46 257.33 228.29 263.36 229.94 267.33C231.59 271.3 236.03 273.21 241.47 274.05C247.634 274.791 253.869 274.707 260.01 273.8C266.788 273.07 273.449 271.501 279.84 269.13C285.924 266.813 291.471 263.277 296.14 258.74C300.52 254.37 303.62 249.17 306.36 245.62C309.1 242.07 311.5 240.19 313.59 239.73C314.069 239.604 314.569 239.574 315.06 239.642C315.551 239.711 316.024 239.875 316.45 240.127C316.877 240.379 317.25 240.714 317.547 241.111C317.844 241.507 318.059 241.959 318.18 242.44C318.92 244.62 318.63 248.02 317.97 251.32C317.425 254.788 315.999 258.059 313.83 260.82C311.013 264.015 307.591 266.618 303.76 268.48C300.06 270.33 296.56 271.24 292.76 272.77C289.402 274.127 286.181 275.801 283.14 277.77C281.29 279.06 281.62 279.49 283.54 281.04C286.771 283.727 290.554 285.669 294.62 286.73C300.863 288.217 307.325 288.556 313.69 287.73C318.325 287.189 322.666 285.181 326.08 282C329.315 278.942 332.264 275.595 334.89 272C337.6 268.5 340.08 265.17 341.33 260.75C342.58 256.33 342.59 250.75 342.9 246.22C343.21 241.69 343.83 237.99 345.01 235.39C346.19 232.79 347.94 231.22 349.48 230.8C351.02 230.38 352.32 231.12 353.59 232.57C355.151 234.34 356.058 236.592 356.16 238.95C356.26 241.71 355.26 245.04 354.71 248.71C354.257 252.284 353.989 255.879 353.91 259.48C353.78 262.57 353.62 264.73 354.82 266.16C356.02 267.59 358.59 268.26 362.46 267.84C367.737 267.07 372.824 265.324 377.46 262.69C383.41 259.5 390.14 254.69 394.52 249.08C398.332 244.082 400.835 238.211 401.8 232C402.67 226.76 402.37 222.61 400.56 218.32C398.47 213.82 395.649 209.697 392.21 206.12C389.244 203.031 386.077 200.142 382.73 197.47C379.65 194.87 376.66 192.25 374.35 189.92C372.04 187.59 370.41 185.55 374.06 185.13C377.71 184.71 386.64 185.9 394.8 184.54C402.824 183.133 410.26 179.406 416.19 173.82C422.06 168.186 426.459 161.199 429 153.47C431.561 145.962 432.97 138.11 433.18 130.18C433.382 125.351 432.349 120.55 430.18 116.23C428.295 112.08 426.025 108.116 423.4 104.39C421.2 101.46 419.46 100.39 418.4 100.66C417.34 100.93 416.82 102.59 416.83 105.86C416.84 109.13 417.34 114.05 417.54 117.86C417.862 121.124 417.56 124.419 416.65 127.57C415.65 130.74 413.82 134.34 411.56 136.08C410.583 136.845 409.393 137.289 408.154 137.35C406.915 137.411 405.687 137.086 404.64 136.42C402.6 135.17 401.33 132.81 402.4 128.33ZM311 100.66C311.38 99.03 311.77 97.59 312.16 96.2C312.925 93.667 313.48 91.074 313.82 88.45C314.297 83.528 313.959 78.562 312.82 73.75C311.69 69.11 309.82 65.2 306.54 59.16C305.59 57.4 304.54 55.5 303.24 53.16C300.31 47.85 296.24 40.57 289.44 27.83L289.75 27.66C296.59 40.4 300.61 47.66 303.55 53C304.84 55.33 305.89 57.24 306.84 59C310.13 65.07 312.01 69 313.15 73.68C314.294 78.528 314.631 83.532 314.15 88.49C313.807 91.135 313.245 93.748 312.47 96.3C312.09 97.69 311.69 99.13 311.32 100.75C310.084 106.164 309.446 111.697 309.42 117.25C309.42 123.32 310.42 128.89 315.95 142.52L315.63 142.65C310.16 129.05 309.1 123.23 309.08 117.25C309.107 111.666 309.751 106.102 311 100.66ZM293.31 106.07C293.65 103.43 294.31 101.43 295.41 100.73C296.51 100.03 297.98 100.6 299.52 101.5C301.12 102.339 302.492 103.554 303.52 105.04C303.925 105.788 304.167 106.613 304.229 107.461C304.291 108.31 304.172 109.161 303.88 109.96C303.2 112.147 302.159 114.206 300.8 116.05C299.37 118.05 297.65 119.77 296.3 119.61C294.95 119.45 293.98 117.38 293.49 114.69C293.031 111.838 292.98 108.936 293.34 106.07H293.31ZM265.65 83C265.57 81.78 265.5 80.71 265.41 79.73C264.79 73.41 263.01 70.12 261.17 67.51C258.726 64.319 256.052 61.312 253.17 58.51L251 56.13L249.41 54.45C244.24 49 237.81 42.21 234.02 39.45L234.23 39.17C238.04 42 244.49 48.8 249.67 54.27L251.26 55.94L253.5 58.3C256.382 61.119 259.056 64.144 261.5 67.35C263.37 70 265.18 73.35 265.8 79.73C265.9 80.73 265.97 81.79 266.05 83.02C266.44 89.02 267.1 99.09 272.51 124.68L272.17 124.75C266.7 99.08 266.05 89 265.65 83ZM168.5 65.2C167.77 63.43 168.1 62.26 169.36 61.76C171.107 61.306 172.947 61.351 174.67 61.89C176.382 62.355 177.983 63.157 179.38 64.25C180.769 65.311 181.989 66.575 183 68C184 69.42 184.69 71 184.08 72.38C183.643 73.205 182.975 73.884 182.158 74.335C181.341 74.786 180.411 74.99 179.48 74.92C177.38 74.78 175.09 73.23 173.05 71.27C171.172 69.54 169.63 67.479 168.5 65.19V65.2ZM164.56 112.89C164.727 111.912 165.147 110.995 165.779 110.23C166.411 109.465 167.232 108.879 168.16 108.53C170.32 107.53 173.36 107.25 176.58 107.22C179.791 107.18 182.999 107.414 186.17 107.92C188.614 108.222 190.973 109.007 193.11 110.23C193.74 110.605 194.223 111.185 194.477 111.873C194.732 112.561 194.744 113.315 194.51 114.01C194.06 115.722 193.134 117.272 191.84 118.48C190.63 119.48 189.31 119.75 187.31 119.86C185.31 119.97 182.65 119.98 180.04 119.92C177.43 119.86 174.9 119.71 172.6 119.42C170.3 119.13 168.21 118.68 166.73 117.55C166.003 117.018 165.423 116.311 165.044 115.494C164.664 114.678 164.498 113.778 164.56 112.88V112.89ZM304 227.61C303 229.5 302.06 231.29 301.08 232.96C298.53 237.382 295.247 241.339 291.37 244.66C290.78 245.18 290.16 245.66 289.48 246.22C285.48 249.3 279.02 252.64 261.59 257.36L261.5 257.03C281.83 251.53 287.12 247.92 291.14 244.4C294.985 241.102 298.245 237.176 300.78 232.79C301.78 231.12 302.7 229.34 303.7 227.45C305.371 224.113 307.255 220.886 309.34 217.79C311.73 214.571 314.35 211.53 317.18 208.69C318.5 207.3 319.87 205.85 321.24 204.32C325.55 199.51 329.99 193.68 336.84 175.38L337.17 175.5C330.29 193.86 325.83 199.72 321.5 204.55C320.13 206.09 318.75 207.55 317.43 208.93C314.613 211.759 312.002 214.786 309.62 217.99C307.546 221.075 305.669 224.288 304 227.61ZM334.52 210.91C335.809 212.756 336.465 214.97 336.39 217.22C336.143 219.794 335.125 222.234 333.47 224.22C332.887 225.005 332.098 225.613 331.191 225.979C330.285 226.344 329.294 226.452 328.33 226.29C326.57 225.92 324.92 224.49 324 221.95C323.063 219.045 322.847 215.957 323.37 212.95C323.686 210.697 324.766 208.621 326.43 207.07C326.959 206.546 327.647 206.21 328.385 206.114C329.124 206.018 329.874 206.168 330.52 206.54C332.173 207.656 333.532 209.155 334.48 210.91H334.52ZM339.15 229.47C336.82 239.15 334.49 245.33 330.54 252.27C326.15 259.97 320.32 267.33 306.13 278.18L305.92 277.9C320.07 267.09 325.92 259.77 330.23 252.1C334.17 245.19 336.49 239.04 338.82 229.39C341.58 217.92 343.82 203.2 346.35 180.18H346.69C344.13 203.26 341.88 218 339.11 229.47H339.15ZM373.7 239H373.35C371.82 209.57 368.06 198.5 355.1 185.16L355.34 184.92C368.38 198.33 372.16 209.44 373.7 239ZM328 163C320 169.39 312.83 175 306.45 179.88C294.49 189 285.21 195.61 278 200.2C271.296 204.467 264.237 208.147 256.9 211.2L253.13 212.87C251.6 213.55 250.01 214.29 248.35 215.05C240.201 218.955 231.837 222.397 223.3 225.36L223.19 225.03C231.71 222.071 240.056 218.636 248.19 214.74L252.98 212.55L256.75 210.88C264.052 207.821 271.078 204.141 277.75 199.88C288.84 192.88 304.75 181.05 327.6 162.78L295.39 147.09C289.666 151.205 283.097 153.992 276.16 155.25C273.649 155.674 271.114 155.948 268.57 156.07C265.87 156.149 263.187 156.528 260.57 157.2C256.36 158.43 251.82 161.2 247.02 164.2L244.89 165.5C238.483 169.449 231.841 173.002 225 176.14C216.71 179.93 206.48 183.81 189.79 181.9V181.55C206.39 183.45 216.57 179.55 224.79 175.82C231.63 172.692 238.273 169.149 244.68 165.21L246.81 163.91C251.63 160.91 256.19 158.14 260.44 156.91C263.082 156.227 265.792 155.844 268.52 155.77C271.054 155.64 273.578 155.363 276.08 154.94C282.906 153.704 289.375 150.972 295.02 146.94L233.39 116.9C225.97 119.46 220.67 121.72 217.25 123.78C216.209 124.416 215.208 125.114 214.25 125.87C213.275 126.68 212.178 127.331 211 127.8C209.35 128.43 205.67 129.36 199.46 128.54L197.78 128.3C192.78 127.54 185.12 126.39 163.55 130.3L163.49 129.96C185.11 125.96 192.77 127.15 197.83 127.96L199.51 128.2C203.99 128.78 208.13 128.52 210.87 127.48C212.003 127.016 213.058 126.382 214 125.6C214.975 124.831 215.997 124.123 217.06 123.48C220.45 121.48 225.67 119.21 232.94 116.69L158.55 80.45C195.21 94.72 215.35 105.15 236.86 115.36L237.03 115.31L237.09 115.47L240.78 117.21C255.78 124.21 271.95 131.28 297.78 144.83L297.83 144.78L297.94 144.91C306.94 149.65 317.17 155.17 328.94 161.76L329.05 161.9C335.29 165.4 341.95 169.2 349.11 173.34L328 163ZM263.29 170.63C263.11 169.28 264.06 167.63 265.29 166.37C266.563 165.007 268.179 164.012 269.97 163.49C272.225 162.855 274.549 162.496 276.89 162.42C278.803 162.213 280.738 162.442 282.55 163.09C283.327 163.384 284.019 163.864 284.567 164.488C285.114 165.113 285.5 165.862 285.69 166.67C285.866 167.643 285.773 168.645 285.421 169.569C285.068 170.492 284.47 171.302 283.69 171.91C281.88 173.37 278.83 174.17 275.69 174.44C272.8 174.728 269.881 174.501 267.07 173.77C264.72 173.07 263.44 172 263.27 170.61L263.29 170.63ZM323.29 135.27C322.14 132.78 321.53 130.27 322.36 127.63C323.447 124.651 325.427 122.081 328.03 120.27C330.279 118.613 333.018 117.757 335.81 117.84C336.787 117.891 337.743 118.141 338.62 118.574C339.497 119.007 340.276 119.615 340.91 120.36C341.421 120.993 341.795 121.725 342.01 122.51C342.225 123.294 342.276 124.115 342.16 124.92C341.836 127.047 341.378 129.151 340.79 131.22C340.24 133.52 339.79 135.95 339.48 138.22C339.17 140.49 338.84 142.72 338.09 143.97C337.34 145.22 336.15 145.53 334.36 145.16C332.06 144.626 329.927 143.534 328.15 141.98C326.085 140.094 324.43 137.803 323.29 135.25V135.27ZM340.57 157.53C346.754 144.898 351.94 131.801 356.08 118.36C358.62 110.24 359.74 106.12 359.8 100.82C359.86 95.52 358.92 89.14 354.44 58.31H354.78C359.26 89.17 360.2 95.59 360.14 100.88C360.08 106.17 358.96 110.35 356.41 118.51C352.266 131.969 347.073 145.082 340.88 157.73L340.57 157.53ZM373.36 138.37C372.916 140.413 371.908 142.291 370.45 143.79C369.323 145.238 367.747 146.272 365.97 146.73C365.048 146.854 364.111 146.793 363.213 146.551C362.315 146.309 361.474 145.891 360.74 145.32C359.965 144.754 359.352 143.994 358.964 143.116C358.576 142.239 358.427 141.274 358.53 140.32C358.888 137.994 359.933 135.828 361.53 134.1C362.887 132.689 364.667 131.758 366.6 131.45C368.6 131.02 370.87 130.79 372.17 132.06C373.47 133.33 373.79 136.1 373.36 138.35V138.37ZM409.45 154.87C398.99 162.87 393.82 165.96 388.29 167.76C384.29 169.07 379.97 169.76 372.85 170.83C368.6 171.49 363.31 172.3 356.42 173.51L356.36 173.17C363.25 171.96 368.54 171.17 372.8 170.49C379.9 169.39 384.19 168.73 388.18 167.43C394.49 165.37 400.35 161.61 414.32 150.65L414.53 150.93C412.71 152.343 411.017 153.65 409.45 154.85V154.87ZM383.08 140.87C377.33 146.72 367.92 154.87 352.57 167.19L352.35 166.92C367.69 154.58 377.09 146.47 382.83 140.63C389.32 134.03 391.58 129.72 394.2 122.55C396.96 115 400.2 103.8 401.06 95.04H401.41C400.56 103.83 397.29 115.04 394.53 122.63C391.89 129.92 389.61 134.26 383.08 140.9V140.87Z" fill="#304F25"/>
<path d="M326.57 130.721C321.93 128.821 317.04 126.881 312.05 127.401C307.06 127.921 302.05 131.831 302.12 136.851C302.264 138.687 302.738 140.482 303.52 142.151C308.607 154.971 313.703 167.797 318.81 180.631C320.93 185.971 323.09 191.391 326.56 195.981C336.83 209.571 357.05 212.791 372.94 206.661C388.83 200.531 400.74 186.871 409.06 172.011C413.71 163.721 417.06 152.411 410.59 145.481C406.06 140.651 397.47 140.541 392.81 145.241C400.92 143.891 406.5 134.291 403.67 126.581C400.84 118.871 390.36 115.171 383.31 119.381" fill="#F7D1E4"/>
<path d="M356.69 210.28C343.51 210.28 332.16 204.28 326.14 196.28C322.6 191.6 320.42 186.109 318.32 180.799L303 142.34C302.191 140.612 301.703 138.752 301.56 136.85C301.48 131.38 306.9 127.41 311.97 126.85C317.21 126.29 322.27 128.37 326.74 130.21L326.34 131.21C321.99 129.43 317.06 127.41 312.08 127.92C307.45 128.41 302.54 132.11 302.62 136.84C302.761 138.629 303.229 140.378 304 142L319.29 180.48C321.37 185.73 323.52 191.15 326.97 195.71C335.16 206.55 353.51 213.64 372.74 206.22C390.21 199.48 401.88 183.78 408.59 171.81C411.5 166.6 417.5 153.67 410.2 145.89C409.095 144.766 407.776 143.875 406.322 143.269C404.867 142.663 403.306 142.354 401.73 142.359C401.027 142.359 400.326 142.409 399.63 142.51C397.739 144.223 395.403 145.367 392.89 145.81L391.28 146.079L392.43 144.92C394.265 143.118 396.612 141.927 399.15 141.51C400.223 140.506 401.143 139.35 401.88 138.079C403.285 135.525 403.82 132.582 403.405 129.697C402.99 126.811 401.647 124.139 399.58 122.084C397.512 120.028 394.832 118.702 391.943 118.304C389.055 117.906 386.116 118.459 383.57 119.88L383.03 118.98C385.766 117.266 389.001 116.528 392.209 116.886C395.417 117.245 398.41 118.678 400.7 120.953C402.99 123.228 404.443 126.211 404.823 129.417C405.202 132.623 404.486 135.863 402.79 138.609C402.218 139.582 401.548 140.494 400.79 141.329C401.1 141.329 401.41 141.329 401.72 141.329C403.437 141.323 405.138 141.661 406.722 142.324C408.306 142.987 409.74 143.961 410.94 145.19C418.72 153.47 412.52 166.94 409.49 172.34C402.69 184.47 390.86 200.34 373.1 207.22C367.865 209.241 362.302 210.278 356.69 210.28ZM396.81 143.28C396.275 143.494 395.757 143.748 395.26 144.04C395.796 143.809 396.314 143.538 396.81 143.23V143.28Z" fill="#EB5EA0"/>
<path d="M380 129C384.8 121 380.17 109.1 371.25 106.47C368.503 105.764 365.655 105.534 362.83 105.79C353.693 106.307 344.763 108.722 336.61 112.88C332.44 115.02 328.33 117.78 326.16 121.88C323.99 125.98 324.4 131.88 328.16 134.62" fill="#F7D1E4"/>
<path d="M327.85 135.07C323.71 132.01 323.5 125.85 325.69 121.67C328.13 117.01 332.96 114.15 336.37 112.4C344.592 108.22 353.591 105.789 362.8 105.26C365.685 104.995 368.594 105.229 371.4 105.95C373.635 106.746 375.672 108.014 377.374 109.668C379.075 111.322 380.401 113.322 381.26 115.533C382.12 117.745 382.493 120.115 382.355 122.484C382.217 124.853 381.571 127.164 380.46 129.26L379.55 128.72C380.573 126.764 381.166 124.611 381.289 122.407C381.411 120.203 381.06 117.998 380.26 115.94C379.459 113.883 378.228 112.021 376.648 110.479C375.068 108.937 373.176 107.751 371.1 107C368.41 106.319 365.624 106.099 362.86 106.35C353.803 106.861 344.949 109.244 336.86 113.35C333.57 115.03 328.94 117.78 326.63 122.17C324.69 125.87 324.85 131.54 328.49 134.23L327.85 135.07Z" fill="#EB5EA0"/>
<path d="M364.94 138.3C366.05 139.485 366.895 140.893 367.42 142.43C367.66 143.205 367.649 144.037 367.389 144.805C367.129 145.574 366.632 146.241 365.97 146.71C364.78 147.39 363.29 147.11 361.97 146.79C358.537 145.99 355.133 145.073 351.76 144.04C350.079 143.685 348.535 142.855 347.31 141.65C345.23 139.17 346.44 135.11 348.99 133.11C351.54 131.11 354.94 130.65 358.16 130.35C362.95 129.89 367.87 129.62 372.49 130.95C375.68 131.902 378.608 133.573 381.049 135.836C383.491 138.099 385.379 140.892 386.57 144C386.977 144.749 387.109 145.616 386.945 146.452C386.781 147.288 386.33 148.041 385.67 148.58C382.327 152.341 378.088 155.197 373.347 156.882C368.605 158.567 363.515 159.026 358.548 158.218C353.582 157.41 348.899 155.361 344.937 152.26C340.974 149.159 337.858 145.107 335.88 140.48C335.444 139.62 335.234 138.664 335.27 137.7C335.45 136.06 336.85 134.86 338.19 133.9C345.06 128.9 353.19 125.43 361.62 125.09C370.05 124.75 378.88 127.93 384.29 134.43C387.29 138.03 389.18 142.79 388.42 147.43C395.68 161.09 389.3 180.22 383.09 192.55C382.09 194.55 381.63 196.77 380.48 198.67C378.15 202.5 373.56 204.2 369.31 205.62C367.301 206.406 365.189 206.897 363.04 207.08C358.261 207.079 353.504 206.43 348.9 205.15C344.74 203.7 342.8 199.58 340.75 195.54C332.28 178.83 323.26 155.78 336.23 138.76" fill="#F7D1E4"/>
<path d="M362.34 207.61C357.736 207.535 353.161 206.862 348.73 205.61C344.53 204.16 342.5 200.14 340.54 196.25L340.28 195.75C332.2 179.81 322.98 156.81 334.98 139.55C334.764 138.935 334.685 138.279 334.75 137.63C334.94 135.8 336.44 134.5 337.89 133.46C345.55 127.94 353.75 124.87 361.6 124.56C370.8 124.2 379.43 127.76 384.69 134.09C388.07 138.16 389.62 142.96 388.96 147.31C396.96 162.68 387.87 184.2 383.56 192.76C383.15 193.616 382.79 194.494 382.48 195.39C382.08 196.611 381.561 197.79 380.93 198.91C378.58 202.78 374.17 204.52 369.48 206.09C367.424 206.896 365.261 207.395 363.06 207.57L362.34 207.61ZM335.43 140.78C324.43 157.52 333.36 179.78 341.22 195.29L341.48 195.8C343.48 199.67 345.28 203.32 349.08 204.64C353.616 205.919 358.308 206.559 363.02 206.54C365.119 206.363 367.18 205.881 369.14 205.11C373.64 203.6 377.87 201.95 380.03 198.38C380.627 197.322 381.116 196.206 381.49 195.05C381.813 194.112 382.191 193.194 382.62 192.3C386.87 183.86 395.9 162.62 387.95 147.67L387.87 147.51V147.33C388.55 143.24 387.08 138.67 383.87 134.78C378.87 128.7 370.52 125.28 361.64 125.63C353.99 125.93 345.99 128.94 338.49 134.33C337.24 135.23 335.94 136.33 335.78 137.77C335.755 137.993 335.755 138.217 335.78 138.44L336.62 139.08L336.12 139.75C336.19 139.94 336.26 140.12 336.34 140.3C338.284 144.845 341.344 148.825 345.237 151.871C349.131 154.917 353.73 156.93 358.609 157.723C363.488 158.516 368.489 158.063 373.146 156.407C377.803 154.751 381.967 151.945 385.25 148.25C385.793 147.724 386.189 147.066 386.4 146.34C386.47 145.607 386.346 144.869 386.04 144.2C384.878 141.166 383.033 138.44 380.649 136.233C378.264 134.025 375.405 132.396 372.29 131.47C367.63 130.13 362.55 130.47 358.16 130.88C354.99 131.18 351.69 131.64 349.26 133.54C347.874 134.659 346.978 136.272 346.76 138.04C346.682 138.62 346.722 139.21 346.878 139.773C347.035 140.337 347.304 140.863 347.67 141.32C348.826 142.446 350.28 143.216 351.86 143.54C355.21 144.54 358.63 145.54 362.04 146.29C363.32 146.59 364.66 146.84 365.68 146.29C366.235 145.873 366.648 145.295 366.862 144.634C367.077 143.974 367.083 143.264 366.88 142.6C366.376 141.138 365.564 139.802 364.5 138.68L365.32 138.01C366.482 139.25 367.363 140.727 367.9 142.34C368.166 143.226 368.145 144.173 367.84 145.046C367.534 145.919 366.96 146.673 366.2 147.2C364.85 147.97 363.2 147.68 361.8 147.35C358.37 146.54 354.92 145.61 351.56 144.58C349.778 144.207 348.144 143.321 346.86 142.03C346.4 141.467 346.06 140.815 345.862 140.115C345.665 139.414 345.613 138.681 345.71 137.96C345.959 135.906 347.004 134.032 348.62 132.74C351.26 130.66 354.73 130.18 358.06 129.86C362.55 129.43 367.74 129.09 372.58 130.49C375.853 131.461 378.858 133.172 381.364 135.49C383.87 137.808 385.809 140.672 387.03 143.86C387.41 144.706 387.551 145.64 387.44 146.56C387.202 147.479 386.718 148.316 386.04 148.98C382.643 152.803 378.336 155.706 373.519 157.423C368.702 159.139 363.529 159.612 358.48 158.799C353.432 157.985 348.67 155.911 344.635 152.768C340.601 149.626 337.425 145.516 335.4 140.82L335.43 140.78Z" fill="#EB5EA0"/>
</svg>
