<svg xmlns="http://www.w3.org/2000/svg" viewBox="0 0 429.49 429.65"><defs><style>.cls-1{fill:#d7cd97;}.cls-2{fill:#ffeae1;}</style></defs><g id="Layer_2" data-name="Layer 2"><g id="matitas"><path class="cls-1" d="M267,.55c-43.68-3.36-87.14,9.14-127.56,26C115.81,36.42,92.62,48,73.05,64.42,17.84,110.83.09,188.63,0,260.76c0,15.46,1,32.05,10.45,44.29,4.72,6.13,11.25,10.7,15.91,16.88,9.5,12.62,9.83,29.84,16.45,44.18C50,381.73,64.23,393,79,401.7c56.57,33.37,129.55,37.15,189.26,9.8,12.37-5.67,24.3-12.62,37.48-16,20.41-5.29,42.75-1.8,62.27-9.77,12.09-4.94,22.14-14,30.37-24.11,39.2-48.26,38-119.46,14.78-177.14-5-12.42-10.95-24.56-19-35.22-7.74-10.21-17.4-19-23.66-30.21-6.44-11.51-8.85-24.77-13.23-37.22-17-48.35-67.13-83-118.37-81.72"/><path class="cls-2" d="M150,93.69c-.66,5.86-.34,12,2.33,17.27,5.4,10.62,18.35,14.51,29.91,17.35,15.78,3.87,33,7.62,47.73.69a36.55,36.55,0,0,0,20.5-31.21A36.58,36.58,0,0,0,232,65.34C197.6,46.36,155.5,45,150,93.69Z"/><path class="cls-2" d="M46.88,254a46.65,46.65,0,0,0,.75,39.29,31.57,31.57,0,0,0,9.75,12c6.4,4.49,14.55,5.56,22.35,6.05a210.21,210.21,0,0,0,35.39-.73c12.7-1.33,27.2-5.26,32.31-17,5-11.54-1.62-24.55-8.07-35.36-5.27-8.81-10.81-17.93-19.37-23.61C96.56,219,58.46,228.23,46.88,254Z"/><path class="cls-2" d="M282.07,248.92c-.3,12.47,3.88,24.6,8,36.43,2.11,6,4.26,12.16,7.9,17.49,11,16.1,35.48,21.64,53.51,13.08s28.13-29.43,24.62-48.35C369.06,229.57,283.59,185.3,282.07,248.92Z"/><path d="M99.27,296.75c-16.48,0-29.9-12.89-29.9-28.74s13.42-28.73,29.9-28.73,29.9,12.89,29.9,28.73S115.75,296.75,99.27,296.75Zm0-53.78c-14.45,0-26.21,11.23-26.21,25s11.76,25.05,26.21,25.05,26.21-11.24,26.21-25.05S113.72,243,99.27,243Z"/><rect x="61.95" y="230.41" width="3.69" height="12.96" transform="translate(-157.17 130.29) rotate(-49.17)"/><rect x="104.81" y="224.42" width="13.45" height="3.69" transform="translate(-138.21 261.76) rotate(-71.85)"/><rect x="133.75" y="273.85" width="11.74" height="3.69"/><rect x="108.64" y="304.51" width="3.69" height="10.32" transform="translate(-60.61 28.91) rotate(-11.72)"/><rect x="46.69" y="281.96" width="17.81" height="3.69" transform="translate(-106.94 44.61) rotate(-23.11)"/><path d="M199.54,121.68c-16.48,0-29.89-12.89-29.89-28.74s13.41-28.73,29.89-28.73,29.9,12.89,29.9,28.73S216,121.68,199.54,121.68Zm0-53.78c-14.45,0-26.21,11.23-26.21,25s11.76,25,26.21,25,26.21-11.24,26.21-25S214,67.9,199.54,67.9Z"/><rect x="148.43" y="71.85" width="3.69" height="16.33" transform="translate(39.23 209.07) rotate(-77.32)"/><rect x="168.42" y="123.27" width="12.16" height="3.69" transform="translate(-20.67 214.62) rotate(-60.27)"/><rect x="229.21" y="118.8" width="3.69" height="12.63" transform="translate(-30.77 147.26) rotate(-33.27)"/><rect x="234.29" y="78.17" width="13.88" height="3.69" transform="matrix(0.97, -0.26, 0.26, 0.97, -12.48, 65.02)"/><rect x="197.7" y="39.14" width="3.69" height="15.62"/><path d="M329.62,293.77c-16.49,0-29.9-12.89-29.9-28.74s13.41-28.73,29.9-28.73,29.89,12.89,29.89,28.73S346.1,293.77,329.62,293.77Zm0-53.78c-14.45,0-26.21,11.23-26.21,25s11.76,25.05,26.21,25.05,26.2-11.24,26.2-25.05S344.07,240,329.62,240Z"/><rect x="295.63" y="228.43" width="3.69" height="14.69" transform="translate(-80.9 205.55) rotate(-33.83)"/><rect x="284.76" y="277.23" width="12.95" height="3.69" transform="matrix(0.96, -0.27, 0.27, 0.96, -64.54, 89)"/><rect x="327.77" y="301.63" width="3.69" height="13.74"/><rect x="367.4" y="271.74" width="3.69" height="14.67" transform="translate(10.25 571.21) rotate(-76.22)"/><rect x="348.02" y="227.68" width="13.69" height="3.69" transform="translate(0.22 459.39) rotate(-65.84)"/><path d="M349.63,193.18c-7.34-44.48-39-84.27-80.73-101.39l1.4-3.41c42.86,17.59,75.43,58.49,83,104.2Z"/><path d="M206.17,360.55c-29.62,0-59.34-10.77-81-31.19l2.54-2.68c34,32.11,88.66,39.58,130,17.76,11.68-6.16,19.4-13.17,23.59-21.41l3.29,1.67c-4.55,8.95-12.78,16.47-25.16,23A114.43,114.43,0,0,1,206.17,360.55Z"/><path d="M70.49,202.79c-.8-16.94,4.3-35.39,14.76-53.36,9.21-15.82,21.35-29.69,34-43.68l2.73,2.48c-12.54,13.84-24.55,27.55-33.57,43.05-10.1,17.36-15,35.11-14.27,51.34Z"/><polygon points="359.53 173.25 334.2 180.03 352.75 198.57 359.53 173.25"/><polygon points="148.25 329.72 122.59 324.34 130.76 349.26 148.25 329.72"/><polygon points="128.59 102.23 102.72 106.48 119.34 126.77 128.59 102.23"/></g></g></svg>