<svg xmlns="http://www.w3.org/2000/svg" viewBox="0 0 987.8 987.8"><defs><style>.cls-1{fill:none;}.cls-2{fill:#655422;}.cls-3{fill:#fff;}.cls-4{fill:#f6ecfb;}.cls-5{fill:#b985d1;}.cls-6{fill:#7f7e35;}.cls-7{fill:#304f25;}.cls-8{fill:#353e18;}.cls-9{fill:#f7d1e4;}.cls-10{fill:#eb5ea0;}.cls-11{fill:#f8ebfb;}.cls-12{fill:#d8a8f3;}</style></defs><g id="Layer_2" data-name="Layer 2"><g id="background"><rect class="cls-1" width="987.8" height="987.8"/></g><g id="drawing"><path d="M477.61,531.42c-13.88-9.31-26.69-9.47-35.67-9.44s-14.13.23-18.81,1-8.9,2.1-14.18,3.41-11.61,2.6-22.37,5.88c5.26.34,10.72-.73,16.61-1.77A169.53,169.53,0,0,1,421,528.05a89,89,0,0,1,15.63.44,83.59,83.59,0,0,1,14.51,2.57A48.56,48.56,0,0,1,462.24,536c3.12,1.84,5.76,3.72,8.49,4.7a10.38,10.38,0,0,0,7.77,0c2.22-1,3.84-3.15-.79-9.22l0,0Z"/><path d="M534.64,545.39c7.34-1.19,17,.5,24.91,2.1a116.34,116.34,0,0,1,20.65,5.67c6.41,2.55,13,6.12,31.6,22.18-18-8.53-29.25-14-37.1-16.48s-12.35-2-17.38-2.19S546.74,555.71,534.64,545.39Z"/><path d="M487.68,418.09c-36.05-4.67-71.34,10-101.6,28.25-13.29,8-26.29,17.1-36.3,29.1A67.84,67.84,0,0,0,338.14,495c-3.14,8.36-4,17.45-7.73,25.6-6.93,15.12-21.49,25.12-35.1,33.76-14.84,9.42-30.54,17.83-43.78,29.54-11.73,10.36-21.61,23.89-24.94,39.41a47.65,47.65,0,0,0,.57,22.49,82.58,82.58,0,0,0,8.09,18.63c6.77,12,15.48,23.32,19.84,36.56A41.35,41.35,0,0,1,257,720c-1.24,8.24-5.25,15.85-6.13,24.17a19.46,19.46,0,0,0,1.86,11.09c.65,1.24,5.27-.24,4.92-.92-3.85-7.45-1.24-15.7,1.11-23.19,2.2-7,4.11-13.9,3.36-21.31-1.33-13.31-9-25-15.89-36.13-7-11.42-14.47-23.48-15.67-37.16-1.4-16,6-31.23,16.07-43.17,10.91-12.93,25.47-22,39.76-30.77,14-8.55,28.81-16.93,39.91-29.21a52.37,52.37,0,0,0,11.71-21c2.32-8.12,3.78-16.33,7.63-23.94,6.9-13.63,18.45-24.21,30.75-32.94A238.41,238.41,0,0,1,421,430.55c16-6.78,33.06-11.52,50.53-11.56a98.82,98.82,0,0,1,12.86.83,5.89,5.89,0,0,0,3.47-.64c.76-.46.77-1-.2-1.09Z"/><path d="M508.09,425.94c28.55,2.23,57.18,7.13,83.9,17.76,23.4,9.31,45.2,23.2,62.15,42a126.41,126.41,0,0,1,22.25,34.23c.41,1,5.06-.38,5-.59-9.84-22.69-26.75-41.69-46.76-56-22.22-15.89-48.14-25.73-74.7-31.57a355.14,355.14,0,0,0-48.37-6.87,9.29,9.29,0,0,0-3.51.42c-.77.26-.86.56.08.64Z"/><path d="M496,428.85A100.93,100.93,0,0,0,534.34,457a109.89,109.89,0,0,0,23.19,6.61c8.12,1.44,16.34,2.4,24.35,4.4,7.67,1.92,15.08,5,21.15,10.18s10.49,11.51,14.75,18,8.47,13.28,13.62,19.25a103.28,103.28,0,0,0,17.71,16c13.06,9.46,27.67,16.45,42.33,23L697,557a3.35,3.35,0,0,0,3.36-.85c.68-.65,1.06-1.83,0-2.31-14.66-6.51-29.45-13.12-42.83-22.05a112.12,112.12,0,0,1-18.35-15c-5.52-5.67-10-12.09-14.29-18.71s-8.43-13.14-13.8-18.79a49.45,49.45,0,0,0-19.73-12.57c-15.38-5.37-32-5.22-47.45-10.48a98.72,98.72,0,0,1-39.74-25.52c-1.38-1.45-2.7-3-4-4.49s-5.62.86-4.1,2.67Z"/><path d="M493.14,435.84c7.29,14.65,21.18,24.35,35.59,31.22,15.54,7.41,32.21,12,47.88,19.16a108.52,108.52,0,0,1,22.29,13.13c7,5.48,12.52,12.23,17.42,19.55,5.09,7.61,9.65,15.57,15.28,22.81a75.35,75.35,0,0,0,19.25,17.45c14.62,9.26,31.68,13.87,48.49,17.22,2.17.43,4.33.85,6.5,1.25a2.26,2.26,0,0,0,2.5-2.11c0-1.43-1.21-2.2-2.45-2.42-16.42-3-33.19-6.89-47.94-15a72,72,0,0,1-19.58-15.46c-5.87-6.67-10.4-14.37-15.19-21.83s-10-14.85-16.61-20.9a96.69,96.69,0,0,0-21.4-14.52c-15.39-7.88-32-12.63-47.91-19.38-14-6-28.38-14-36.89-27a52.15,52.15,0,0,1-2.9-5.09c-1.3-2.6-5.75-.9-4.33,2Z"/><path d="M489.58,429.45C456.7,430,425,443,398.22,461.59c-12.42,8.63-24,18.87-32.45,31.54a99.24,99.24,0,0,0-9.92,20.31c-2.64,7-5.08,14.26-9,20.73-4.24,7.05-10.27,12-17.26,16.15-6.32,3.78-12.81,7.18-18.59,11.78A88.63,88.63,0,0,0,286.72,593a114.19,114.19,0,0,0-10.59,38.55,125.29,125.29,0,0,0-.33,20.68,177,177,0,0,0,3.48,23c1.72,8.62,3.4,17.42,2.7,26.26-.71,9-4.49,17.32-7.65,25.7a102.64,102.64,0,0,0-5.65,50.57,101.55,101.55,0,0,0,2.6,12.45c.2.71,3.09-.06,2.9-.78a101.35,101.35,0,0,1-.7-50.87c2-8.33,5.62-16.08,8.39-24.17a57.57,57.57,0,0,0,2.76-25.12c-.92-8.79-3.17-17.37-4.59-26.08a124.16,124.16,0,0,1-1.62-20,119.71,119.71,0,0,1,6.66-39.88,94.43,94.43,0,0,1,20.06-33.56A79.31,79.31,0,0,1,320.7,557c6.5-4.06,13.49-7.37,19.47-12.21,11.76-9.53,15.3-24.31,20.83-37.69,5.85-14.18,15.54-26,27.14-35.92a183.3,183.3,0,0,1,40.56-25.82c15.05-7.1,31.18-12.17,47.75-13.95,4-.42,7.92-.65,11.9-.72.83,0,3.15-1.27,1.23-1.24Z"/><path d="M480.5,442C462.2,445,445,452,428.13,459.39c-7.73,3.37-15.67,6.6-22.23,12a57.27,57.27,0,0,0-12.28,14.48c-14.28,23.4-16.09,53.57-37.06,72.92-12.2,11.25-27.76,18-40,29.23-5.65,5.18-10.74,11.31-13.74,18.42a36.2,36.2,0,0,0-2,21.85c3.46,16,15,28.78,21.17,43.69a62.74,62.74,0,0,1,5.13,25.4,45.71,45.71,0,0,1-7.62,24.15c-4.56,7-10.32,13.18-14.67,20.33A73.28,73.28,0,0,0,296,764.51c-3.48,16.12-2.42,32.93-.19,49.15.57,4.1,1.22,8.19,1.91,12.27.2,1.2,3.11.48,2.9-.78-2.79-16.41-5-33.19-3.39-49.86a83.83,83.83,0,0,1,5.47-23.47c3.15-7.75,7.87-14.39,12.95-21,4.95-6.42,9.82-13,12.3-20.81a51.4,51.4,0,0,0,1.2-24.43,76.27,76.27,0,0,0-8.33-22.81c-3.84-7.16-8.3-14-11.92-21.24-3.47-7-6.23-14.65-6-22.57s3.26-15.06,7.86-21.27c9.77-13.2,24.66-20.65,37.78-29.91,6.43-4.54,12.55-9.62,17.41-15.86a84.06,84.06,0,0,0,9.87-16.7c5.6-12.22,9.22-25.23,14.6-37.53,5.51-12.59,13.16-24,25.54-30.63,7.84-4.21,16.28-7.52,24.5-10.93a219,219,0,0,1,26.31-9.29A128.11,128.11,0,0,1,480.18,444c.55-.09,1.59-.39,1.62-1.1s-.75-.91-1.3-.82Z"/><path d="M484.92,455.37a170.5,170.5,0,0,0-42.41,14,168.58,168.58,0,0,0-19.1,10.82c-5.79,3.8-11.5,7.94-14.62,14.33-3.05,6.22-3.86,13.18-5.52,19.82a98.43,98.43,0,0,1-7.06,19.27c-6,12.43-14.34,23.64-23.56,33.89-4.68,5.21-9.61,10.19-14.67,15s-10.24,9.25-15.23,14-9.5,9.85-12.18,16.12c-2.82,6.64-3.24,14-2.25,21,2.13,15.12,10.31,28.23,15.44,42.38a62.1,62.1,0,0,1,4.12,22.62,81.17,81.17,0,0,1-4.43,23.45c-4.49,13.61-12.66,28-6.51,42.41C341.38,775,351,782.85,354,793.91a19.64,19.64,0,0,1,.52,8c-.18,1.24,2.75.77,2.91-.32,1.61-11.36-6.86-20.49-12.74-29.22-3.31-4.93-6.22-10.22-6.93-16.21-.9-7.64,1.57-15.24,4.18-22.31,2.72-7.37,5.6-14.63,7.25-22.35a64,64,0,0,0,1-22.92c-2.25-14.73-10.37-27.55-15.31-41.4-2.52-7.06-4.37-14.58-4.12-22.13a34.51,34.51,0,0,1,7.08-20c4.16-5.53,9.52-10,14.62-14.65s10-9.22,14.76-14c9.55-9.68,18.47-20.11,25.67-31.68A113.47,113.47,0,0,0,407.54,508c1.47-6.92,3.12-14.06,8.17-19.33s11.66-9,17.83-12.51a165.26,165.26,0,0,1,41.13-16.75Q480,458,485.35,457c1.8-.34,1.34-1.95-.43-1.62Z"/><path d="M347.79,599.21c-4.72,26,6.21,51.3,17.6,74,11,22,23.51,44.55,24.27,69.76.39,12.77-2.28,25.67-9.49,36.36-.41.61.36,1.07.86,1.13a2,2,0,0,0,1.9-.86c13.17-19.55,11.31-45.14,4-66.48-8.46-24.6-23.55-46.29-31.77-71-4.62-13.88-7.05-28.67-4.42-43.21.25-1.36-2.7-1-2.92.26Z"/><path d="M491.68,448.23c5.6,14.37,15.76,26.25,28,35.42,12.65,9.44,27.3,16.1,42.31,20.84,7.72,2.44,15.75,3.92,23.36,6.68A36.8,36.8,0,0,1,596.23,517a30.29,30.29,0,0,1,7.88,10.62c2,4.09,3.5,8.37,5.22,12.56s3.59,8.54,5.58,12.72a117.19,117.19,0,0,0,14.2,23.39c10.58,13.12,26.3,23.51,43.61,23.77a46.37,46.37,0,0,0,6.34-.34c.57-.08,1.55-.41,1.61-1.11s-.77-.9-1.3-.83c-17.18,2.18-33.79-7.09-44.94-19.59a104.14,104.14,0,0,1-15-22.75c-4.08-8.12-7.3-16.58-10.79-25a45.23,45.23,0,0,0-6.18-11.13,29.59,29.59,0,0,0-9.56-7.54c-7.25-3.71-15.34-5.2-23.13-7.37-15-4.18-29.55-10.15-42.55-18.72-12.63-8.33-23.76-19.38-30.39-33.12-.82-1.69-1.56-3.41-2.24-5.16-.47-1.2-3.34-.37-2.9.77Z"/><path d="M487.63,463.26a107.11,107.11,0,0,0,44.79,46,105.58,105.58,0,0,0,30.24,10.88c5.5,1.06,11.42,1.22,16.56,3.64s7.79,7.28,8.17,12.79-1,11.17-2,16.63a49.78,49.78,0,0,0-.55,16.2,45.34,45.34,0,0,0,5.6,16,45.86,45.86,0,0,0,4.72,6.69c1.84,2.14,4,3.93,6,5.91s3.76,4.64,3.17,7.7-2.87,5.46-5.35,7.12c-4.84,3.24-10.22,5-13.45,10.21-2.74,4.4-3.52,9.79-3.24,14.9.33,6,1.72,11.94,2.85,17.78,2.21,11.4,4.71,23,3.92,34.66A54.72,54.72,0,0,1,584.91,708a75.29,75.29,0,0,1-10.52,16.94c-4.06,5.17-8.45,10.08-12.73,15.07-3.84,4.49-7.43,9.17-11.58,13.38a114.75,114.75,0,0,1-28.62,21.11c-10.28,5.37-21.6,9.33-33.24,10.06-12,.75-23.91-2.64-34.39-8.38-22.52-12.34-37.12-34.15-49.78-55.78-6.85-11.71-13.61-23.49-20.1-35.4-6.62-12.15-13.15-24.53-18.2-37.43a75.36,75.36,0,0,1-4.9-18.24,94.22,94.22,0,0,1-.57-14.64,107.2,107.2,0,0,1,5.53-31.72,53.77,53.77,0,0,1,6-12.53c.62-.92-2.21-.54-2.65.11-5.66,8.41-8.48,18.58-10.16,28.48A108,108,0,0,0,358,630.06c1.65,13.34,7.83,25.76,13.71,37.67,6.27,12.69,13.19,25,20.21,37.31,12.85,22.44,25.5,46.52,45.91,63.12,9.24,7.53,20,13.47,31.71,16.18,11.24,2.62,22.74,1.78,33.79-1.34a110.18,110.18,0,0,0,32.11-15.33,119.74,119.74,0,0,0,13.74-10.95A132.71,132.71,0,0,0,561,743.81c8.37-10.11,18-19.6,24.33-31.21,5.81-10.65,7.47-22.54,6.43-34.51-1.06-12.19-4.25-24.06-6-36.13-.83-5.59-1-11.35,1.3-16.66a16.55,16.55,0,0,1,5.26-6.87c2.56-1.92,5.55-3.16,8.26-4.86,4.4-2.77,8.84-8.11,5.78-13.46-1.35-2.36-3.54-4.05-5.48-5.9a42.18,42.18,0,0,1-5.54-6.47A45.3,45.3,0,0,1,588,554.21c1.61-9.55,5.86-23-3.58-30-4.47-3.3-10.31-3.89-15.64-4.69a101.88,101.88,0,0,1-16.61-4,107.67,107.67,0,0,1-53-38.84,102.07,102.07,0,0,1-8.63-14.28c-.4-.82-3.2.16-2.89.77Z"/><path d="M603.36,572.72l14.47,24.39,7.24,12.2c2.26,3.81,4.61,7.58,6.66,11.52,3.77,7.27,6,15.29,2.58,23.15-2.93,6.79-8.61,12-13.76,17.08-5.34,5.28-10.64,11.46-12.37,19a16.8,16.8,0,0,0,.8,10.57c1.61,3.67,4.44,6.64,5.85,10.41a21.3,21.3,0,0,1-3.42,20.8c-3.94,4.75-10.17,8.5-12,14.71-2.07,7.1,3.65,12.62,7.91,17.47A34,34,0,0,1,616,775.1a32.22,32.22,0,0,1-.31,6c-.13.86,2.76.34,2.87-.46A33.62,33.62,0,0,0,614,758.24a64.81,64.81,0,0,0-6.76-8.39c-2.26-2.6-4.53-5.46-5.2-8.93-1.38-7,4.85-11.91,9.27-16.31a26.4,26.4,0,0,0,5.94-8.15A22.17,22.17,0,0,0,619,706a22.41,22.41,0,0,0-3.82-10.63c-2.17-3.34-4.26-6.56-4.55-10.65-.57-7.84,4.48-15.17,9.54-20.67S631,653.9,635,647.62a24.4,24.4,0,0,0,3.82-9.81,24.93,24.93,0,0,0-1.48-11.72,68.8,68.8,0,0,0-5.73-11.45q-3.57-6.06-7.18-12.1l-14.59-24.61-3.56-6c-.48-.8-3.21.24-2.9.78Z"/><path d="M654.16,606.38c8,8.65,10.77,20.56,9.92,32.08a64.44,64.44,0,0,1-4,17.8c-2.19,5.88-5.41,11.13-8.51,16.56s-5.88,11.57-5.32,18.12c.45,5.19,2.62,10.06,5,14.63,4.46,8.55,11.89,18.41,9.34,28.64-1.71,6.92-7.71,11.19-11.28,17-2.88,4.73-4.23,12.17.73,16,.62.49,3.15-.65,2.73-1-4.62-3.6-3.45-10.48-.94-15,3-5.43,8.35-9.28,10.79-15.1,4.16-10-2.23-20-6.88-28.47-2.56-4.67-5.1-9.51-6.17-14.78-1.27-6.24.37-12.14,3.24-17.7,3-5.77,6.69-11.1,9.19-17.12a67.31,67.31,0,0,0,4.6-16.83c1.73-12.76-.75-26.24-9.71-35.92-.49-.54-3.17.5-2.73,1Z"/><path d="M685.89,610.25c3.27,9.19,6.61,18.56,7.41,28.36a51.79,51.79,0,0,1-1,14.43c-1,4.78-2.36,9.46-3.45,14.21a215.18,215.18,0,0,0-4.14,29.28,46,46,0,0,0,.57,14.43c1,4.44,3.05,8.56,4.7,12.8a45.61,45.61,0,0,1,.92,31.14c-.54,1.62,2.35,1.66,2.78.38a46.85,46.85,0,0,0,.79-27.61c-1.28-4.55-3.42-8.78-5-13.22a37.23,37.23,0,0,1-2.06-14.32c.2-4.93.86-9.87,1.43-14.77s1.25-9.89,2.21-14.78c1.9-9.64,5.48-19,5.32-28.94-.17-11.15-3.91-21.79-7.6-32.17-.49-1.36-3.38-.56-2.9.78Z"/><path d="M513.84,644.55a39.38,39.38,0,0,1-16,17.61c-1.09.62-1.1-2-1.06-2.49.12-1.17.41-3.09,1.56-3.75a35,35,0,0,0,8.32-6.61,32.74,32.74,0,0,0,3.16-3.95c.5-.74,1-1.5,1.42-2.28.21-.37.41-.74.61-1.12.4-.73-.2.45.16-.3l.33-.69c.31-.67,1.26-2.14,1.84-.84a6.21,6.21,0,0,1-.37,4.42Z"/><path d="M459.39,641.2A39.31,39.31,0,0,0,475,659.15c1.08.65,1.15-2,1.11-2.47-.08-1.17-.34-3.09-1.47-3.77a35.15,35.15,0,0,1-8.18-6.8,33.13,33.13,0,0,1-3.07-4c-.49-.75-.94-1.52-1.37-2.31-.21-.37-.4-.75-.59-1.13-.38-.74.2.45-.15-.31-.11-.23-.21-.46-.32-.7-.3-.67-1.21-2.16-1.82-.87a6.15,6.15,0,0,0,.28,4.42Z"/><path d="M531.05,703.07a19.55,19.55,0,0,1-13.73-5.15c-1.18-1.07-2.36-2.18-3.54-3.3-4.64-4.39-9.44-8.93-15.22-11.59a23.12,23.12,0,0,0-10.39-1.86,54.67,54.67,0,0,0-6.4,1.79c-3.81,1.2-3.83,1.18-4.11,1-4.13-2.59-9.75-3.26-15.45-1.86-5.45,1.36-10.38,4.34-14.48,7.08l-1,.69c-3.12,2.11-6.35,4.28-10.06,5.23-4.06,1-11.34.27-14-3.36l.81-.59c2.34,3.24,9.21,3.93,12.91,3,3.54-.9,6.69-3,9.74-5.09l1-.69c4.17-2.79,9.2-5.83,14.8-7.22,5.89-1.45,11.74-.76,16.08,1.9.47-.1,2-.59,3.42-1a44.27,44.27,0,0,1,6.68-1.84,23.91,23.91,0,0,1,10.83,2c5.93,2.73,10.79,7.33,15.49,11.78,1.18,1.11,2.34,2.21,3.52,3.28a18.88,18.88,0,0,0,14.09,4.87l0,1Z"/><path d="M481.91,718.44q-2.93,0-5.86-.2c-22.61-1.52-38.08-12.7-51.43-24.56l.66-.75c13.22,11.74,28.53,22.81,50.84,24.31A83.31,83.31,0,0,0,529,703l.57.82A83.8,83.8,0,0,1,481.91,718.44Z"/><path d="M523.49,704.83a25.51,25.51,0,0,1-11.3-2.63c-1.06-.53-2.1-1.14-3.1-1.73a24.72,24.72,0,0,0-6-2.85c-4.05-1.1-8.13-.08-12.44,1a38.51,38.51,0,0,1-9.09,1.53c-4.09,0-8-1.27-11.87-2.53a55.82,55.82,0,0,0-7.81-2.17,54.77,54.77,0,0,0-12.47-.24l-19.65,1.13-.06-1,19.65-1.12a54.58,54.58,0,0,1,12.7.25,56.41,56.41,0,0,1,8,2.2c3.69,1.22,7.52,2.48,11.41,2.48h.13a38.22,38.22,0,0,0,8.86-1.5c4.24-1.06,8.64-2.16,12.94-1a25.74,25.74,0,0,1,6.22,3c1,.58,2,1.18,3,1.69a24.52,24.52,0,0,0,16.86,1.77l.25,1A24.79,24.79,0,0,1,523.49,704.83Z"/><path d="M527.82,579.48c11.36,10.16,26.81,13.19,41.6,13.89,4.76.22,9.54.24,14.31.25.64,0,1.59-.18,1.9-.84s-.24-1-.83-1c-18.64,0-39.57-.3-54.31-13.48-.86-.76-3.59.39-2.67,1.21Z"/><path d="M405.27,566c5.23,4.75,13,5.41,19.64,6.49,7.71,1.25,15.62,1.95,23.31.19a31.81,31.81,0,0,0,11-4.75c.5-.34.74-1,.18-1.4a2,2,0,0,0-2.07.2c-7.23,5-16.31,5.54-24.79,4.67-4.59-.47-9.17-1.28-13.7-2.14-3.87-.74-7.92-1.79-10.91-4.5-.91-.82-3.65.35-2.66,1.24Z"/><path d="M551.31,753.42q14.07,27.09,29.71,53.32l.12-1c-13.67,13.81-32.41,21.65-51.09,26a139.77,139.77,0,0,1-31.94,3.81,151.66,151.66,0,0,1-29.2-3.17c-4.32-.86-8.62-1.84-12.9-2.9a64.83,64.83,0,0,1-9-2.57l.6.57a93.54,93.54,0,0,1-3.77-14.93c-2-10.52-3.37-21.16-5-31.72L436,762.53c-.2-1.29-3.11-.57-2.9.78l4.08,26.11c1.33,8.5,2.43,17.08,4.11,25.53a81.82,81.82,0,0,0,3.37,13c.43,1.12,2.21,1.36,3.27,1.67,2.37.71,4.78,1.31,7.19,1.9,13.24,3.24,26.7,5.73,40.37,6a145.35,145.35,0,0,0,46.28-7c13.8-4.36,27.24-10.85,38.1-20.54,1.27-1.12,2.5-2.29,3.69-3.49a.82.82,0,0,0,.13-1Q568.05,779.26,554,752.16c-.57-1.1-3.35-.06-2.66,1.26Z"/><path d="M584.61,807c18.74,13.8,43.47,13.09,65.44,16.7,26.28,4.33,51.74,12.73,77.05,20.79,23.64,7.53,47.38,15.85,68.26,29.53a170.49,170.49,0,0,1,45.7,44.82,201.12,201.12,0,0,1,28,58.36c.76,2.57,1.47,5.16,2.14,7.75.32,1.26,3.22.5,2.9-.78a206.16,206.16,0,0,0-25.67-59.54,176.72,176.72,0,0,0-43.35-47c-19.76-14.65-42.73-23.91-65.92-31.63-12.34-4.11-24.77-8-37.22-11.75-12.81-3.89-25.72-7.52-38.84-10.28-12-2.52-24.15-3.85-36.33-5.43C615.55,817,604,815,593.89,809.73a53.68,53.68,0,0,1-7-4.39c-1-.72-3.55.66-2.25,1.61Z"/><path d="M442.71,825.71c-4.54,6-11.9,9.19-18.29,12.83Q412,845.62,399.1,851.78a119.89,119.89,0,0,1-12.89,5.36c-4.27,1.47-8.59,2.76-12.88,4.16a171.14,171.14,0,0,0-25.65,11c-8.35,4.31-16.49,9-24.56,13.86-7.68,4.59-15.38,9.17-22.91,14-14.81,9.54-28.7,20.27-40.48,33.44a184.54,184.54,0,0,0-29.25,43.54c-.92,1.92-1.79,3.87-2.62,5.83-.27.65,2.53.36,2.87-.45a177.81,177.81,0,0,1,27.91-44.74,165.61,165.61,0,0,1,18.25-18.64,214.07,214.07,0,0,1,21.26-15.93c7.46-5,15.13-9.61,22.82-14.21,8-4.78,16-9.55,24.23-14a175.88,175.88,0,0,1,25.48-11.66c8.56-3,17.36-5.22,25.64-8.94,8.73-3.92,17.27-8.35,25.63-13q5.22-2.88,10.41-5.81a57.28,57.28,0,0,0,9.35-6.21,25,25,0,0,0,3.65-3.84c.64-.85-2.18-.51-2.65.12Z"/><path d="M273.5,920.31c.65,0,1.59-.18,1.89-.86s-.24-1.09-.85-1.09-1.59.18-1.89.86.24,1.09.85,1.09Z"/><path class="cls-2" d="M597.4,355.63a.5.5,0,0,1-.5-.49c-1.11-55.08,16.91-107.75,34.33-158.69,5.19-15.15,11.06-32.32,23.24-44.58a.5.5,0,0,1,.71,0,.5.5,0,0,1,0,.71c-12,12.11-17.85,29.16-23,44.21-17.4,50.85-35.39,103.44-34.28,158.34a.52.52,0,0,1-.49.51Z"/><path class="cls-2" d="M806.27,196.77c-33.36,7.84-45.32,11.48-59.42,13.58s-30.35,2.67-44.79,4.47-27.11,4.82-36.57,8.91-15.74,9.27-24.9,18.92S619.37,266.42,612.84,276s-7.54,14.61-11,20.05-9.25,11.27-16.53,21.67a132.38,132.38,0,0,0-21,46.91c-5,21.53-6.35,49.59-5.62,66.11s3.53,21.51,10.71,29.21c16.5,1.71,37.55-19.06,56.19-38.3s34.9-37,52.12-54.38,35.42-34.55,48.44-49.18a187.42,187.42,0,0,0,28.37-41.21c7.49-14.45,14.63-31.22,20.61-45.5S785.93,205.34,806.27,196.77Z"/><path class="cls-3" d="M569.65,460l-.48-.14c8.38-28.72,17.4-51.91,29.24-75.2a310.42,310.42,0,0,1,40.12-60.87c16.25-19.63,41.89-47.53,96.46-89.31l.31.39c-54.53,41.76-80.15,69.63-96.38,89.24a309.5,309.5,0,0,0-40.06,60.78C587,408.17,578,431.33,569.65,460Z"/><path class="cls-4" d="M365.27,47c3.42,8.71,8.2,13.49,12.45,23.26"/><path class="cls-5" d="M377.26,70.41a89.29,89.29,0,0,0-6.34-11.7,68.89,68.89,0,0,1-6.11-11.58l.93-.36a68.45,68.45,0,0,0,6,11.41A89.38,89.38,0,0,1,378.17,70Z"/><path class="cls-4" d="M421.44,95a27.31,27.31,0,0,1,1.38,4.21c1.06,4.57.74,10-.47,16.2s-3.28,13-2.79,20.37c-.81,1.3-1.61,2.61-2.41,3.91-9.07-4.53-13.15-9.52-16.8-13.83s-6.88-7.94-8.49-10.76-1.62-4.84-2.52-7.2a21.13,21.13,0,0,0-5.44-7.61,31,31,0,0,0-3.78-3c2.24-9.45.23-12.42-1-15.36a23.1,23.1,0,0,1-1.52-9.54c.06-3.72.54-8.28.65-11.76s-.17-5.89.21-7.36,1.39-2,2.68-1.5,2.84,2.06,4.95,3.93,4.79,4.07,7.53,6.22a86.73,86.73,0,0,1,7.81,6.53,30.32,30.32,0,0,1,5.65,7.77c1.53,2.94,2.76,6.32,5.35,8.9S419,89.55,421.44,95Z"/><path class="cls-5" d="M417.34,140.38l-.41-.2c-8.92-4.46-13-9.32-16.67-13.61l-1.8-2.12a70.47,70.47,0,0,1-7-9.06,17.55,17.55,0,0,1-1.81-4.8,21,21,0,0,0-.74-2.47,20.65,20.65,0,0,0-5.31-7.42,30.41,30.41,0,0,0-3.72-2.93l-.29-.2.08-.33c2-8.33.63-11.42-.55-14.14l-.39-.92a23.9,23.9,0,0,1-1.55-9.74c0-2.07.19-4.39.35-6.64.13-1.84.25-3.58.3-5.12,0-1.32,0-2.47,0-3.49a17.71,17.71,0,0,1,.21-4,2.72,2.72,0,0,1,1.3-1.83,2.47,2.47,0,0,1,2.05,0,16,16,0,0,1,4,3l1.13,1c2,1.76,4.59,3.9,7.5,6.19l1.15.9a73.44,73.44,0,0,1,6.72,5.68,31.35,31.35,0,0,1,5.74,7.89c.34.66.67,1.34,1,2a23.94,23.94,0,0,0,4.25,6.74,30.54,30.54,0,0,0,2.36,2c2.3,1.84,4.91,3.92,6.72,8h0a27.27,27.27,0,0,1,1.41,4.28c1,4.32.85,9.69-.47,16.42-.26,1.31-.55,2.66-.86,4-1.13,5.15-2.31,10.48-1.93,16.19l0,.16ZM380.68,97.13a32.77,32.77,0,0,1,3.56,2.83,21.69,21.69,0,0,1,5.56,7.8,21.29,21.29,0,0,1,.78,2.58,16.61,16.61,0,0,0,1.71,4.55,69.21,69.21,0,0,0,6.93,8.91l1.8,2.12c3.52,4.15,7.49,8.85,16,13.16l2.08-3.39c-.36-5.8.87-11.38,2-16.32.3-1.37.59-2.71.85-4,1.29-6.58,1.44-11.82.47-16A26.91,26.91,0,0,0,421,95.24a19.18,19.18,0,0,0-6.42-7.61,27,27,0,0,1-2.44-2.1,24.16,24.16,0,0,1-4.45-7c-.33-.68-.65-1.36-1-2a30.47,30.47,0,0,0-5.56-7.65,74.72,74.72,0,0,0-6.62-5.59l-1.15-.9c-2.94-2.3-5.55-4.46-7.55-6.23l-1.14-1A15.61,15.61,0,0,0,381,52.29a1.45,1.45,0,0,0-1.22,0,1.75,1.75,0,0,0-.79,1.19,17.05,17.05,0,0,0-.18,3.72c0,1,0,2.2,0,3.54-.05,1.56-.17,3.31-.3,5.16-.16,2.23-.32,4.54-.35,6.58a22.46,22.46,0,0,0,1.48,9.35c.12.3.25.6.38.9C381.17,85.39,382.61,88.73,380.68,97.13Z"/><path class="cls-4" d="M419.56,135.82c-.49-7.35,1.59-14.21,2.79-20.37s1.53-11.63.47-16.2-3.51-8.25-4.61-11.88a27.36,27.36,0,0,1-.67-10c.19-2.79.33-4.78,2.07-7.65s5.09-6.62,6.07-13.48c3.43,4.41,3.92,6.73,5.26,8.84s3.55,4,5.31,7.16A36.89,36.89,0,0,1,440,85.37a68.89,68.89,0,0,1-.32,18.29,52.08,52.08,0,0,1-6.43,18.61C429.72,128.23,424.7,133.86,419.56,135.82Z"/><path class="cls-5" d="M419.1,136.52l0-.67c-.39-5.85.85-11.5,1.95-16.48.3-1.37.59-2.71.85-4,1.29-6.58,1.44-11.82.47-16a36.72,36.72,0,0,0-2.65-7.06,38.8,38.8,0,0,1-1.95-4.78,27.74,27.74,0,0,1-.69-10.2c.2-2.84.34-4.9,2.14-7.87.33-.54.71-1.11,1.12-1.72a25.79,25.79,0,0,0,4.88-11.57l.17-1.17.72.93a34.2,34.2,0,0,1,4.12,6.67,22.64,22.64,0,0,0,1.17,2.21,26.25,26.25,0,0,0,1.93,2.48,28.46,28.46,0,0,1,3.4,4.71,37.57,37.57,0,0,1,3.77,13.32,70.19,70.19,0,0,1-.33,18.42,52.06,52.06,0,0,1-6.49,18.79c-4,6.82-9.2,12-13.91,13.76ZM426,57.46a27.52,27.52,0,0,1-4.85,10.82c-.4.61-.77,1.16-1.09,1.69-1.68,2.76-1.81,4.62-2,7.42a26.68,26.68,0,0,0,.65,9.83,38.12,38.12,0,0,0,1.9,4.66,37.69,37.69,0,0,1,2.72,7.25c1,4.32.85,9.69-.47,16.42-.26,1.31-.55,2.66-.86,4-1.09,4.94-2.21,10-2,15.5,4.33-1.93,9.05-6.75,12.76-13.08a51.15,51.15,0,0,0,6.36-18.43,69,69,0,0,0,.33-18.15,36.44,36.44,0,0,0-3.66-13,27.34,27.34,0,0,0-3.29-4.55,26.1,26.1,0,0,1-2-2.58A22.72,22.72,0,0,1,429.29,63,32.89,32.89,0,0,0,426,57.46Z"/><path class="cls-4" d="M417.15,139.73c-9.07-4.53-13.15-9.52-16.8-13.83s-6.88-7.94-8.49-10.76-1.62-4.84-2.52-7.2a21.13,21.13,0,0,0-5.44-7.61,28.85,28.85,0,0,0-9.33-5.85c-3-1-5.29-.7-8.06-.8a26.63,26.63,0,0,1-8.11-1.46c-2.12-.86-3.12-2.07-5.82-2.9s-7.08-1.29-9.5,2.34c10.89,12.09,17.54,23.58,25.09,31.75a57.29,57.29,0,0,0,24,15.65C400.09,141.71,407.52,142.19,417.15,139.73Z"/><path class="cls-5" d="M405.4,141.84A41.49,41.49,0,0,1,392,139.53a57.54,57.54,0,0,1-24.18-15.78,153.73,153.73,0,0,1-10.6-13.45A229,229,0,0,0,342.71,92l-.26-.29.22-.33c2.81-4.22,8-3.18,10.06-2.54a15,15,0,0,1,3.63,1.73,14.19,14.19,0,0,0,2.23,1.18,25.64,25.64,0,0,0,7.94,1.43c.64,0,1.26,0,1.87,0a18.31,18.31,0,0,1,6.33.81,29.39,29.39,0,0,1,9.51,5.95,21.69,21.69,0,0,1,5.56,7.8,21.29,21.29,0,0,1,.78,2.58,16.61,16.61,0,0,0,1.71,4.55,69.21,69.21,0,0,0,6.93,8.91l1.8,2.12c3.57,4.22,7.62,9,16.36,13.36l1.2.61-1.31.33A48,48,0,0,1,405.4,141.84ZM343.72,91.63A229.29,229.29,0,0,1,358,109.71a155.92,155.92,0,0,0,10.53,13.36,56.73,56.73,0,0,0,23.76,15.52,40.54,40.54,0,0,0,23.43,1c-8.1-4.29-12-8.9-15.47-13l-1.8-2.12a70.47,70.47,0,0,1-7-9.06,17.55,17.55,0,0,1-1.81-4.8,21,21,0,0,0-.74-2.47,20.65,20.65,0,0,0-5.31-7.42A28.13,28.13,0,0,0,374.41,95a17.45,17.45,0,0,0-6-.76c-.62,0-1.25,0-1.91,0a27,27,0,0,1-8.28-1.5,15.37,15.37,0,0,1-2.37-1.26,13.94,13.94,0,0,0-3.41-1.62C350.62,89.24,346.21,88.33,343.72,91.63Z"/><path class="cls-4" d="M380.12,97.35c2.24-9.45.23-12.42-1-15.36a21.26,21.26,0,0,1-1.51-7.91c-7.49-2.09-10.91-4.14-12.73-4.64s-2.05.56-2.09,1.87.1,2.87.15,5,0,4.71.85,6.79,2.48,3.62,2.48,10.61h.2c2.77.1,5.09-.2,8.06.8A25,25,0,0,1,380.12,97.35Z"/><path class="cls-5" d="M380.44,98.17l-.6-.4A24,24,0,0,0,374.41,95a17.45,17.45,0,0,0-6-.76c-.62,0-1.25,0-1.91,0l-.68,0v-.48c0-5.46-1-7.5-1.85-9.14-.22-.44-.42-.85-.59-1.29a18.68,18.68,0,0,1-.87-6.3l0-.65c0-.81-.05-1.54-.08-2.21,0-1.06-.1-2-.07-2.79a2.68,2.68,0,0,1,.76-2.17,2.2,2.2,0,0,1,2-.16,22.72,22.72,0,0,1,2.52,1,74.35,74.35,0,0,0,10.21,3.65l.36.1v.37a21,21,0,0,0,1.47,7.73c.12.3.25.6.38.9,1.18,2.72,2.65,6.11.6,14.77Zm-13.63-5h1.59a18.31,18.31,0,0,1,6.33.81,23.38,23.38,0,0,1,5.06,2.53c1.74-7.81.44-10.8-.71-13.44l-.39-.92a21.63,21.63,0,0,1-1.53-7.71,73.32,73.32,0,0,1-10-3.61,23.65,23.65,0,0,0-2.39-.94,1.51,1.51,0,0,0-1.11,0c-.28.21-.33.83-.35,1.4,0,.78,0,1.68.06,2.71,0,.67.07,1.41.09,2.23l0,.66a17.65,17.65,0,0,0,.8,6c.16.4.35.79.56,1.2C365.7,85.76,366.75,87.85,366.81,93.19Z"/><path class="cls-4" d="M401.18,68.22l.29.29a30.32,30.32,0,0,1,5.65,7.77c1.53,2.94,2.76,6.32,5.35,8.9s6.54,4.37,9,9.86c-1.13-2.75-2.49-5.22-3.23-7.67a27.36,27.36,0,0,1-.67-10c.19-2.79.33-4.78,2.07-7.65.32-.52.68-1.07,1.08-1.67-1.86-5.21-2.55-5.66-3.6-6.35a16.9,16.9,0,0,1-4-3.52c-1.57-1.88-3.29-4.69-4.74-4.35-3.5,2.73-3.63,5.29-4.52,7.43S401.23,65.09,401.18,68.22Z"/><path class="cls-5" d="M421,95.25a19.22,19.22,0,0,0-6.42-7.62,27,27,0,0,1-2.44-2.1,24.16,24.16,0,0,1-4.45-7c-.33-.68-.65-1.36-1-2a30.47,30.47,0,0,0-5.56-7.65l-.44-.43v-.21a10.85,10.85,0,0,1,1.75-5.4c.33-.6.65-1.17.91-1.77.18-.45.34-.91.49-1.39A11.38,11.38,0,0,1,408,53.42l.2-.09c1.46-.34,2.81,1.41,4.24,3.27.33.43.66.86,1,1.25a16.63,16.63,0,0,0,3.92,3.42c1.24.81,2,1.48,3.8,6.61l.09.23-.14.21c-.4.59-.76,1.13-1.07,1.65-1.68,2.76-1.81,4.62-2,7.42a26.68,26.68,0,0,0,.65,9.83,37.19,37.19,0,0,0,1.9,4.66c.44,1,.89,2,1.31,3ZM401.69,68l.14.14a31.35,31.35,0,0,1,5.74,7.89c.34.66.67,1.34,1,2a23.94,23.94,0,0,0,4.25,6.74,30.54,30.54,0,0,0,2.36,2,31.74,31.74,0,0,1,3.41,3c-.33-.79-.62-1.56-.86-2.34a27.74,27.74,0,0,1-.69-10.2c.2-2.84.34-4.9,2.14-7.87.28-.47.61-1,1-1.48-1.75-4.82-2.38-5.24-3.32-5.87a17.21,17.21,0,0,1-4.15-3.61c-.33-.4-.67-.84-1-1.28-1-1.33-2.3-3-3.13-2.92A10.4,10.4,0,0,0,404.78,60c-.16.51-.32,1-.52,1.47a19.34,19.34,0,0,1-1,1.87A10,10,0,0,0,401.69,68Z"/><path class="cls-2" d="M425.93,435.74a.52.52,0,0,1-.29-.09.5.5,0,0,1-.12-.7c21.74-30.19,15.58-59.68,10.62-83.38-.77-3.72-1.51-7.22-2.1-10.58-2.89-16.32-2.36-28.64-1.75-42.91.32-7.75.67-15.76.56-25.51-.35-32.78-5.65-76.2-16.19-132.75a.5.5,0,0,1,.4-.58.49.49,0,0,1,.58.4c10.56,56.6,15.86,100.08,16.21,132.92.11,9.77-.25,18.16-.57,25.56-.6,14.21-1.12,26.49,1.74,42.69.6,3.35,1.33,6.85,2.1,10.55,5,23.89,11.21,53.63-10.78,84.18A.53.53,0,0,1,425.93,435.74Z"/><path class="cls-6" d="M81.8,295.46c34.27.49,51.54,4.86,66.57,6.77s27.8,1.36,43.43,2.1,34.09,2.78,49,6.08c29.84,6.62,45.48,18.3,55,25.55a89.14,89.14,0,0,1,12,10.29c4,4.16,8.64,9.95,16.84,19.22s19.94,22,29.47,42,16.85,47.07,19.69,63.37,1.17,21.76-4.19,30.82c-15.74,5.21-40.76-10.55-63.1-25.34s-42-28.6-62.15-41.92-40.73-26.13-55.46-37.63a141,141,0,0,1-32.15-34.15c-8.53-12.51-16.69-27.36-27.88-40S103.51,299.46,81.8,295.46Z"/><path class="cls-7" d="M362.77,502.92c-15,0-35.24-12.44-56.36-26.42-11.43-7.56-22.19-14.89-32.6-22-10.14-6.91-19.71-13.43-29.55-19.94-4.89-3.23-9.85-6.47-14.66-9.6-15.25-9.94-29.65-19.33-40.82-28a142.18,142.18,0,0,1-32.2-34.21c-2.52-3.7-5-7.53-7.55-11.58-6.11-9.59-12.44-19.5-20.31-28.41-13.25-15-28.17-23.57-47-27l0-.5a343,343,0,0,1,55.13,5.05c4,.65,7.84,1.26,11.46,1.72a257.77,257.77,0,0,0,28.31,1.64c4.82.1,9.81.21,15.1.46a306.79,306.79,0,0,1,49.05,6.09c30.23,6.7,45.82,18.52,55.13,25.59a89,89,0,0,1,12,10.32c2.25,2.35,4.75,5.26,7.91,8.94,2.51,2.93,5.37,6.25,8.94,10.28l1.24,1.4c8.1,9.14,19.19,21.65,28.27,40.64,9.37,19.61,16.78,46.63,19.7,63.42s1.06,22.08-4.21,31l-.05.08-.09,0A22,22,0,0,1,362.77,502.92ZM84.58,295.76c17.63,3.79,31.84,12.31,44.52,26.65,7.89,8.94,14.23,18.87,20.36,28.47,2.58,4.05,5,7.88,7.54,11.57a141.62,141.62,0,0,0,32.09,34.1c11.15,8.69,25.55,18.08,40.79,28,4.8,3.13,9.77,6.37,14.66,9.6,9.84,6.51,19.41,13,29.55,19.94,10.41,7.09,21.17,14.43,32.59,22,24.44,16.17,47.63,30.27,62.81,25.33,6.61-11.22,6.35-17.62,4.1-30.57-2.91-16.77-10.31-43.72-19.67-63.3-9-18.92-20.11-31.4-28.19-40.52l-1.24-1.39c-3.57-4-6.42-7.37-8.94-10.3-3.16-3.67-5.65-6.58-7.89-8.92a88.74,88.74,0,0,0-12-10.26c-9.28-7-24.82-18.83-54.94-25.5-13.7-3-31.54-5.25-49-6.08-5.28-.25-10.26-.36-15.08-.46a258.81,258.81,0,0,1-28.36-1.64c-3.63-.46-7.44-1.08-11.48-1.72A341.12,341.12,0,0,0,84.58,295.76Z"/><path class="cls-3" d="M369.43,501.75c-14.33-26.22-28.1-46.91-44.65-67.08a309.33,309.33,0,0,0-52.18-50.76c-20.06-15.67-51.07-37.39-113.3-66.46l.22-.45c62.27,29.09,93.31,50.83,113.39,66.51a309.84,309.84,0,0,1,52.25,50.84c16.57,20.2,30.36,40.91,44.71,67.16Z"/><path class="cls-8" d="M561.82,7.86C553.53,0,546.85-.66,541.36.38a27.87,27.87,0,0,0-12.94,6.49A21.83,21.83,0,0,0,522,15.31c-1.3,3.15-1.92,6.84-2.38,13.37s-.76,15.89-2.45,24.49a104.57,104.57,0,0,1-8.22,23.89c-3.46,7.45-7.3,14.51-9.34,19.29a32.7,32.7,0,0,0-2.71,10.6c-.42,3.32-1,7.49-.75,10.66s1.38,5.36,2.51,6.18,2.25.3,3.87.17,3.73.13,6.61.26,6.51.14,9.92,1.77,6.57,4.91,7.17,7.09c-4.76,1.59-7.54,3.67-9.79,4.81a10.39,10.39,0,0,1-5.71,1.24,12.33,12.33,0,0,1-5.43-1.53c-1.88-1-3.86-2.73-10.61-3.33-18.22,40.57-28.85,73-33.3,96.18s-2.71,36.95-1.5,46.51,1.87,14.87,2.87,17.33,2.34,2.08,3.06,1.44a6.82,6.82,0,0,1,3.94-2.61,66.52,66.52,0,0,1,15.06-2.62,79.71,79.71,0,0,1,15.37.71c4.13.55,7,1.16,8.32,2.21s1.26,2.57.1,4.19a12.65,12.65,0,0,1-5.7,4.13c-2.31.8-4.73.7-10.25,1.11a149.77,149.77,0,0,1-29.53-.17c0,31,0,45.95,4,61.56s11.87,31.92,18.67,44.53,12.49,21.52,21.78,26.55,22.18,6.16,34.61,3.13a59.07,59.07,0,0,0,32.42-20.67c8.06-10.43,12.23-24.08,15.17-38.59a372.85,372.85,0,0,0,5.86-46.06c1.2-16.19,1.91-33.22,3.27-45.16a131.71,131.71,0,0,1,4.83-24c1.49-5.22,2.49-8.83,2.67-12s-.43-5.91-2.36-8-5.16-3.61-9.52-3.86-9.83.75-14.12,1.75-7.4,2-12.5,3.32-12.19,3-13.31,3.39c0-8.21,9.09-13.72,16-17s11.7-4.21,15.29-4,6,1.6,8.63,2.61a27.38,27.38,0,0,0,7.51,1.74c2,.12,3.15-.26,3.15-3.77S604,218,603.39,210.55a117.75,117.75,0,0,1,.23-22.09c.8-6.28,2.4-10.53,3-14s.31-6.16-2.26-7.87-7.39-2.45-11.66-2.23-8,1.42-12.45,2.6-9.62,2.37-12.81,3-4.42.83-4.61.05.65-2.5,2.06-4a33.29,33.29,0,0,1,5.62-4.06,35.68,35.68,0,0,1,9.35-4.67,97.72,97.72,0,0,1,15.6-3.42,40.5,40.5,0,0,1,7.23-.3c1.47,0,2.84-.35,1.63-3.21s-5-8.25-9-13.11-8.24-9.2-10.66-13.08-3-7.31-3.07-12,.45-10.79.4-18.44a190.47,190.47,0,0,0-1.95-25.7c-1.29-8.77-3.28-17-6.49-28.57S566,13.15,561.82,7.86Z"/><path class="cls-3" d="M535.68,439.62c-3.45-118.62,3-162.76,7.66-195l0-.17c4.7-32.29,7.8-53.63,7.8-75.76,0-20.36-2.6-41.46-5.12-61.85l-.66-5.39c-2.54-20.75-5.16-42.2,8.89-82.64l.47.16c-14,40.33-11.4,61.73-8.86,82.42l.66,5.38c2.52,20.42,5.12,41.53,5.12,61.92,0,22.17-3.11,43.52-7.81,75.83l0,.17c-4.69,32.22-11.11,76.33-7.66,194.9Z"/><path class="cls-7" d="M475.7,375.53c3.93-3.21,11.34-6.71,17.39-10.46a54.94,54.94,0,0,0,14.61-12.59,39.31,39.31,0,0,0,8.18-17.31,46.14,46.14,0,0,0-.81-19.71c-1.52-5.28-4-8.12-6.17-9.11s-3.92-.13-6.3,2.84-5.36,8-8.84,13.55-7.45,11.48-10.45,16.3-5.05,8.53-8.21,10-7.45.64-10.1-.91-3.67-3.85-3.06-6.45,2.87-5.49,5.89-9.2,6.83-8.24,10.43-12.56,7-8.43,9.48-13.5a56.27,56.27,0,0,0,4.87-16.84,60,60,0,0,0-.09-17.38,119.4,119.4,0,0,0-4.24-17.88A49,49,0,0,0,483.93,244a53.56,53.56,0,0,0-4.1-6.06c-1-1.3-1.44-1.69-1.81-1.56s-.69.75-1.21,2.47a79.31,79.31,0,0,0-2.06,8.85,101.69,101.69,0,0,1-3.86,16.46,116.61,116.61,0,0,1-9.21,19.07c-3.4,5.86-6.63,10.7-9.55,15.13s-5.54,8.47-8.62,11-6.6,3.52-9.11,3-4-2.62-4.82-5.49a17,17,0,0,1,.66-10.87c1.63-4.34,5-9.38,7.66-13.27l8.29-12.26c3.8-5.64,9.57-14.17,12.75-21.73a43.31,43.31,0,0,0,3.39-20.45,77.13,77.13,0,0,0-3.76-18.64,83.64,83.64,0,0,0-7.62-17.6A45.76,45.76,0,0,0,440.36,180c-3.83-3.07-7.86-5.3-10.67-5.62s-4.41,1.25-4.41,5.21,1.6,10.33,2.39,16.88a91.47,91.47,0,0,1,.18,19.7c-.62,6.38-1.86,12.4-3,18.15s-2.16,11.24-4.22,16.27-5.18,9.58-8.32,11.86a9.77,9.77,0,0,1-9.42,1.26,13.65,13.65,0,0,1-7.68-5.81c-1.52-2.74-1.52-6.18,0-10.65s4.47-9.95,6.29-15.79,2.48-12,3.21-18.85,1.52-14.35,1.29-21.28a56.75,56.75,0,0,0-3.71-18.93,37.18,37.18,0,0,0-9.49-14.28A31.16,31.16,0,0,0,380,151.16c-3.7-.86-6.08-.2-6.76,4.72s.37,14.11.77,21.94.15,14.33.56,20,1.46,10.58,1.89,15.24.23,9.09-1.62,13.09-5.35,7.57-9,8.33-7.41-1.29-9.69-4.2-3.07-6.67-3.11-11.24a98.29,98.29,0,0,1,1.63-15.8c1-5.85,2.17-12.18,1.92-17.38s-1.95-9.27-5-14.2S343.93,161,338.34,158s-12.27-3-18.11-3.19-10.82-.4-15-1.95-7.63-4.41-10.86-6.25S288.1,144,285,144.71s-6.37,3-9.92,8.42-7.4,13.84-12,20.84-10,12.55-13.07,17.27a21.4,21.4,0,0,0-3.83,13.7,82.15,82.15,0,0,0,2.68,16.63,60.13,60.13,0,0,0,5.34,14.06,45.55,45.55,0,0,0,10.62,13.72c4.69,3.9,10.64,6.55,16.23,9.33A150.1,150.1,0,0,1,295.86,267a75.07,75.07,0,0,1,9.42,7.31c2.55,2.28,4.8,4.46,5.06,6.41s-1.45,3.67-4.36,4.7a17.84,17.84,0,0,1-11.51-.17c-4.49-1.52-9.38-4.89-14.91-9.12s-11.67-9.33-18.31-13.43-13.79-7.2-18.61-7.07-7.34,3.5-9,6.94-2.48,6.92-1.12,12.62,4.89,13.6,9.62,18.68,10.67,7.35,18.78,10.22,18.4,6.34,26.52,10,14.06,7.43,19.1,12.11,9.17,10.22,10.07,13.52-1.43,4.34-4.29,4.86-6.24.52-11.55-2.21-12.56-8.2-20.35-12.49A123.94,123.94,0,0,0,256.1,320c-8.21-2.46-16.29-4.26-22.08-3.57s-9.31,3.88-9.68,9.08,2.41,12.4,8.29,19.23,14.85,13.29,23.91,17.45,18.2,6,27.6,7.45,19.05,2.51,25.37,3.41,9.3,1.63,10.55,3.31.74,4.31-1.7,6.4-6.82,3.61-11.75,4.79a63.21,63.21,0,0,1-16.43,1.83,50.26,50.26,0,0,1-17.92-3.6c-5.27-2.28-9.19-5.71-13.8-8.82s-9.94-5.89-15.13-5-10.23,5.36-11.44,9.94,1.39,9.23,5.59,13.6,10,8.45,16.38,12.19a91,91,0,0,0,20.49,9.17,52.68,52.68,0,0,0,21.21,1.82c6.76-.9,12.95-3.37,17.72-4.64s8.14-1.32,10.27-.32a4.14,4.14,0,0,1,2.21,5.44c-.82,2.41-3.35,5.18-6.13,7.63a22.57,22.57,0,0,1-10,5.55,35.56,35.56,0,0,1-13.94,0c-4.48-.85-8.15-2.41-12.46-3.59a64.06,64.06,0,0,0-11.75-2.1c-2.47-.1-2.47.49-1.83,3.13a31.31,31.31,0,0,0,5.89,12.4,58.53,58.53,0,0,0,16,13.61A24.19,24.19,0,0,0,306.08,459a80.83,80.83,0,0,0,14.39-2.84c4.71-1.25,9.11-2.49,13.17-5.53s7.75-7.87,11.09-11.67,6.32-6.58,9.09-8.06,5.36-1.69,7-1,2.28,2.18,2.41,4.3a11.38,11.38,0,0,1-2,7.3c-1.76,2.48-4.86,4.73-7.81,7.58a113.39,113.39,0,0,0-7.9,8.89c-2.18,2.61-3.77,4.4-3.67,6.45s1.89,4.36,5.56,6.57,9.22,4.33,16.56,5.52,16.46,1.46,24-.49a41.64,41.64,0,0,0,17.86-10.12c4.26-4,6.77-7.83,8.06-12.79a49.44,49.44,0,0,0,.86-16.27,107.24,107.24,0,0,0-2.51-13.91c-1-4.34-1.82-8.63-2.28-12.22s-.53-6.45,3-4.38,10.49,9.09,18.55,13.36a45.94,45.94,0,0,0,25.88,4.93,54.88,54.88,0,0,0,24.84-9.2,87.11,87.11,0,0,0,19.25-17.58,31.47,31.47,0,0,0,6.67-14.24,80.64,80.64,0,0,0,2-14.9c0-4-.76-6.15-1.92-6.65s-2.68.63-4.86,3.51-5,7.5-7.4,11a28.48,28.48,0,0,1-7.28,7.91c-3,2.11-7,4-10.15,4a6.56,6.56,0,0,1-6.28-4.33C471.3,381.64,471.76,378.74,475.7,375.53Zm-61.44-85.35c1.41-1.17,2.72-2.17,4-3.13a52.32,52.32,0,0,0,6.64-5.67,49.29,49.29,0,0,0,8.95-13.54c2.11-4.81,3.1-9.49,4.27-17,.34-2.17.69-4.54,1.13-7.45,1-6.62,2.33-15.68,4.87-31.4l.38.06c-2.54,15.72-3.89,24.78-4.88,31.4-.43,2.91-.78,5.28-1.12,7.45-1.18,7.51-2.17,12.21-4.3,17.07a50,50,0,0,1-9,13.64,51.36,51.36,0,0,1-6.69,5.71c-1.26,1-2.57,2-4,3.12a83.34,83.34,0,0,0-12.7,13.18c-4,5.33-6.87,10.89-11.19,26.48l-.37-.1c4.31-15.57,7.28-21.36,11.25-26.61A83.74,83.74,0,0,1,414.26,290.18Zm-19.1-7.1c2.06-2.09,4-3.38,5.41-3.27s2.33,1.61,3.08,3.43a12.27,12.27,0,0,1,1.12,5.76,6.64,6.64,0,0,1-3,4.55,22.39,22.39,0,0,1-6.78,3.26c-2.57.78-5.24,1.16-6.32.11s-.53-3.51.83-6.18A33.44,33.44,0,0,1,395.16,283.08Zm-8.79-38.72c.75-1.13,1.4-2.1,2-3,3.69-5.94,4.33-10,4.47-13.52s-.26-7.17-.93-13.22c-.12-1.1-.26-2.29-.39-3.57l-.27-2.52c-.88-8.24-2-18.48-3.4-23.48l.37-.1c1.44,5,2.53,15.29,3.41,23.53l.27,2.53c.13,1.28.27,2.46.39,3.57.67,6.07,1.07,9.73.93,13.27s-.79,7.69-4.52,13.71c-.58.93-1.23,1.91-2,3-3.67,5.52-9.83,14.76-22.21,40.77l-.35-.16C376.52,259.14,382.68,249.89,386.37,244.36Zm-73.1-80.58c.53-2,1.6-2.84,3.05-2.44s3.27,2,4.55,3.67a14.49,14.49,0,0,1,2.55,5.22,18.87,18.87,0,0,1,.69,5.73c-.08,1.9-.51,3.72-2,4.55a5.3,5.3,0,0,1-5.73-.85c-1.74-1.53-2.7-4.42-3.19-7.5A22.78,22.78,0,0,1,313.27,163.78Zm-35.36,39.1a6.24,6.24,0,0,1,6.07-1.41c2.54.58,5.4,2.36,8.24,4.49a60.7,60.7,0,0,1,7.92,7c2.26,2.43,3.95,4.81,4.53,6.66a3.54,3.54,0,0,1-1.3,4.25A10.54,10.54,0,0,1,298,226c-1.76.11-3.06-.58-4.88-1.82s-4.17-3-6.4-4.81-4.36-3.63-6.19-5.43-3.34-3.58-3.88-5.55A5.84,5.84,0,0,1,277.91,202.88Zm45.22,193.66c-2.14,1-4.15,1.92-6.14,2.73A49.48,49.48,0,0,1,300.67,403c-.86.06-1.75.1-2.7.1-5.59,0-13.44-1.38-31.85-8.91l.14-.35c21.47,8.78,28.51,9.17,34.38,8.78a49.07,49.07,0,0,0,16.21-3.72c2-.8,4-1.73,6.12-2.71a96.74,96.74,0,0,1,11.4-4.68,91.15,91.15,0,0,1,12.95-2.72c2.09-.33,4.26-.68,6.48-1.1,7-1.33,14.77-3.46,33-14.89l.2.32c-18.3,11.47-26.12,13.61-33.15,14.94-2.23.43-4.39.77-6.49,1.11a91.1,91.1,0,0,0-12.89,2.7A98.49,98.49,0,0,0,323.13,396.54Zm37.89,5.8a11.47,11.47,0,0,1-2.6,6.78,14.2,14.2,0,0,1-7.23,4.18c-2.52.5-4.61-.14-5.89-1.64s-1.77-3.85-.88-6.69a20.7,20.7,0,0,1,5.46-8.28,11,11,0,0,1,6.61-3.1,3.77,3.77,0,0,1,3.94,2.27A13.82,13.82,0,0,1,361,402.34Zm-8.37,19.34c-8.52,6.92-14.7,10.76-22.8,14.19-9,3.81-19,6.35-38.68,6.35v-.39c19.61,0,29.59-2.52,38.53-6.31,8.07-3.41,14.22-7.24,22.71-14.13,10.09-8.19,21.91-19.56,39.51-38l.28.26C374.58,402.11,362.75,413.49,352.65,421.68Zm23.89,31.47-.31-.21c18.35-26.79,22.48-39,20-59.33l.38,0C399.1,414,395,426.27,376.54,453.15Zm10.85-97.1c-11.28.24-21.3.36-30.15.36-16.56,0-29.11-.41-38.51-1.25a151.8,151.8,0,0,1-25.84-4.47c-1.43-.35-2.89-.71-4.41-1.06l-5.65-1.29A266,266,0,0,1,254,340.6l.12-.36A267.56,267.56,0,0,0,282.91,348c2,.44,3.86.86,5.65,1.29,1.53.35,3,.71,4.42,1.06a152.45,152.45,0,0,0,25.78,4.46c14.4,1.28,36.19,1.56,68.44.9l-17.69-35.29a52.2,52.2,0,0,1-22.28-5.73,72.22,72.22,0,0,1-7.2-4.35,39.3,39.3,0,0,0-7.76-4.37c-4.51-1.74-10.34-2.34-16.53-3l-2.73-.29a201.21,201.21,0,0,1-24.55-4c-9.78-2.23-21.34-5.68-34.66-18.52l.27-.27c13.25,12.77,24.74,16.2,34.48,18.42a202,202,0,0,0,24.5,4l2.73.29c6.21.63,12.07,1.23,16.63,3a40.24,40.24,0,0,1,7.83,4.41,70.68,70.68,0,0,0,7.16,4.33A51.73,51.73,0,0,0,369.32,320l-33.88-67.57c-8.19-2.72-14.35-4.29-18.71-4.77a32.3,32.3,0,0,0-4.06-.2,13.32,13.32,0,0,1-4.1-.46c-1.86-.55-5.7-2.2-10.59-7.07-.43-.42-.85-.87-1.31-1.34-3.9-4-9.8-10.14-31.31-21.11l.17-.35c21.57,11,27.5,17.14,31.42,21.2l1.3,1.33c3.53,3.51,7.33,6.05,10.43,7a12.81,12.81,0,0,0,4,.44,35.41,35.41,0,0,1,4.1.21c4.33.48,10.39,2,18.43,4.67l-40.85-81.47c22.54,37,33.18,59.61,45.17,82.94l.19.06-.06.18,2.06,4c8.42,16.19,17.87,33.16,31.42,62.31h.08v.19c4.73,10.18,10,21.84,15.83,35.47h.08v.19c3.11,7.24,6.4,15,9.89,23.43Zm-61.74-36.61c.76-1.3,2.67-2.09,4.58-2.41a11.27,11.27,0,0,1,6,.61,32.18,32.18,0,0,1,6.77,3.68,14.05,14.05,0,0,1,4.51,4.39,5.6,5.6,0,0,1,.35,5.22,6,6,0,0,1-5.3,3.23c-2.56.07-5.77-1.28-8.69-3.14a27.13,27.13,0,0,1-7.1-6.36C325.29,322.56,324.9,320.74,325.65,319.44Zm76.19,9.21c.66-2.95,1.79-5.52,4.3-7.31A17,17,0,0,1,416,318.7a13.74,13.74,0,0,1,8.43,3.07,7.89,7.89,0,0,1,2.77,5.62,6.5,6.5,0,0,1-2,4.83,53.92,53.92,0,0,1-5.42,4.59c-2,1.66-4,3.51-5.85,5.29s-3.57,3.51-5.06,4.1-2.74.07-4.07-1.45a15.82,15.82,0,0,1-3.3-6.95A22.43,22.43,0,0,1,401.84,328.65Zm.22,31a295.6,295.6,0,0,0,39.79-23.9c7.66-5.41,11.39-8.26,15-12.86s7.05-10.81,23.76-40.79l.33.19c-16.72,30-20.2,36.25-23.79,40.84s-7.37,7.5-15.06,12.93A297.15,297.15,0,0,1,402.24,360Zm41.52,5.17a12.36,12.36,0,0,1-6.17,2.8,9.07,9.07,0,0,1-5.89-.43,7.61,7.61,0,0,1-3.63-4.73,6,6,0,0,1,1.38-5.82,12.94,12.94,0,0,1,6.78-3.43,9.92,9.92,0,0,1,6.21,1.06c2,.94,4.18,2.28,4.47,4.26S445.46,363.18,443.58,364.86Zm20.55,38.59c-14.51,0-21.1-.76-27.15-2.88-4.39-1.54-8.6-3.84-15.56-7.64-4.16-2.27-9.34-5.1-16.17-8.65l.17-.34c6.84,3.55,12,6.38,16.18,8.65,6.95,3.8,11.14,6.09,15.51,7.62,6.9,2.42,14.54,3.05,34.09,2.81v.38Q467.39,403.45,464.13,403.45ZM450.38,373.6c-8.95,1.28-22.61,2.08-44.31,2.62v-.39c21.69-.53,35.34-1.34,44.26-2.6,10.1-1.44,15-3.7,22.05-8.22,7.47-4.77,17.81-12.39,24.41-19.48l.28.26c-6.63,7.12-17,14.76-24.49,19.54C465.44,369.88,460.54,372.16,450.38,373.6Z"/><path class="cls-9" d="M665.4,96.49c-2.07-2.73-4.26-5.57-7.37-7s-7.41-.88-9.11,2.09a10.58,10.58,0,0,0-1,3.6l-4.4,27.9c-.62,3.88-1.23,7.81-.79,11.71,1.3,11.54,12,20.47,23.5,22.39s23.2-2,33.25-7.77c5.61-3.25,11.53-8.71,10.13-15a8.77,8.77,0,0,0-10.36-6.32c5.23,2,11.85-1.67,12.86-7.18s-3.84-11.33-9.44-11.3"/><path class="cls-10" d="M672.24,158.18a37.42,37.42,0,0,1-6.12-.5c-14.29-2.41-22.85-13.31-23.92-22.84-.45-4,.18-8,.79-11.84l4.41-27.9a11.06,11.06,0,0,1,1.08-3.77c1.9-3.31,6.54-3.77,9.76-2.29s5.56,4.51,7.56,7.15l-.8.6c-1.93-2.55-4.11-5.43-7.18-6.84-2.83-1.3-6.91-.86-8.47,1.88a10,10,0,0,0-1,3.43L644,123.16c-.6,3.79-1.22,7.71-.79,11.57,1,9.16,9.3,19.64,23.09,22,12.57,2.12,24.84-3,32.92-7.71,3.49-2,11.45-7.49,9.89-14.5a8,8,0,0,0-3.68-4.93,9.34,9.34,0,0,0-1.22-.62,9.27,9.27,0,0,1-5.15-.42L697.6,128l1.5-.4a8.67,8.67,0,0,1,5.17.33,9.84,9.84,0,0,0,2.72-1,9,9,0,0,0-4.32-16.78h0v-1h0a9.89,9.89,0,0,1,4.81,18.65,12.37,12.37,0,0,1-1.83.82l.28.16a8.89,8.89,0,0,1,4.13,5.56c1.71,7.66-6.68,13.45-10.36,15.58C692.79,153.85,682.86,158.18,672.24,158.18Z"/><path class="cls-9" d="M697.36,114.05c5.59-3,7-11.62,2.7-16.26a17,17,0,0,0-4.71-3.33,44.8,44.8,0,0,0-17.85-4.95c-3.19-.2-6.56,0-9.28,1.67s-4.49,5.23-3.25,8.17"/><path class="cls-10" d="M697.6,114.49l-.48-.88a10.4,10.4,0,0,0,2.57-15.48,16.24,16.24,0,0,0-4.57-3.22A44.51,44.51,0,0,0,677.46,90c-2.49-.16-6.14-.16-9,1.59-2.38,1.47-4.22,4.78-3.05,7.56l-.92.38c-1.4-3.31.65-7.07,3.45-8.79,3.08-1.9,6.93-1.91,9.57-1.74a45.59,45.59,0,0,1,18.05,5,17.23,17.23,0,0,1,4.84,3.43,11.39,11.39,0,0,1-2.82,17Z"/><path class="cls-9" d="M685.28,114.28a7.77,7.77,0,0,1,0,3.29,2.63,2.63,0,0,1-2.34,2,3.78,3.78,0,0,1-2.39-1.34c-1.73-1.67-3.41-3.4-5-5.17a6.09,6.09,0,0,1-1.78-3c-.36-2.18,1.76-4.14,4-4.43s4.35.63,6.35,1.57a26.23,26.23,0,0,1,8.19,5.34A14.79,14.79,0,0,1,696,125.15a3.13,3.13,0,0,1-.62,1.55,3.22,3.22,0,0,1-1.5.83,20.37,20.37,0,0,1-26.4-22.07,3.79,3.79,0,0,1,.6-1.84,4.11,4.11,0,0,1,3-1.22,29.91,29.91,0,0,1,16.81,3c5.08,2.75,9.14,7.66,10.06,13.37a11.38,11.38,0,0,1-2.09,9c-.49,10.54-10.89,19.55-18.82,24.62-1.28.82-2.32,2-3.66,2.69-2.7,1.44-6,.84-9,.2a15.52,15.52,0,0,1-4.19-1.33,35.5,35.5,0,0,1-7.62-6c-2-2.3-1.65-5.39-1.45-8.47.84-12.75,3.56-29.42,17.09-34.9"/><path class="cls-10" d="M669.48,156.5a25.74,25.74,0,0,1-5.15-.7,16.12,16.12,0,0,1-4.32-1.38,35.84,35.84,0,0,1-7.76-6.17c-2-2.36-1.79-5.45-1.59-8.44l0-.38c.8-12.19,3.38-28.91,16.44-34.92a3.29,3.29,0,0,1,.54-1.19,4.54,4.54,0,0,1,3.4-1.42,30.29,30.29,0,0,1,17.09,3c5.56,3,9.42,8.14,10.31,13.73a11.82,11.82,0,0,1-2.09,9.32c-.67,11.86-13.52,21.33-19,24.86A17.73,17.73,0,0,0,675.8,154a14,14,0,0,1-2.15,1.54A8.71,8.71,0,0,1,669.48,156.5Zm-2.55-50.79c-12,6.05-14.48,22.06-15.25,33.78l0,.38c-.2,2.93-.38,5.69,1.35,7.74a35.44,35.44,0,0,0,7.48,5.93,15.18,15.18,0,0,0,4,1.28c3.14.67,6.17,1.16,8.63-.15a12.68,12.68,0,0,0,2-1.43A17,17,0,0,1,676.8,152c5.41-3.46,18.06-12.75,18.59-24.23v-.17l.1-.13a10.71,10.71,0,0,0,2-8.65c-.84-5.28-4.51-10.14-9.79-13a29.31,29.31,0,0,0-16.53-2.92,3.7,3.7,0,0,0-2.69,1,1.84,1.84,0,0,0-.26.48l.25.62-.45.19c0,.1,0,.21,0,.32a19.87,19.87,0,0,0,25.76,21.52,2.78,2.78,0,0,0,1.28-.68,2.73,2.73,0,0,0,.5-1.31,14.31,14.31,0,0,0-3.61-12.13,26,26,0,0,0-8-5.23c-2-.91-4-1.79-6.06-1.52a4.54,4.54,0,0,0-2.95,1.72,2.8,2.8,0,0,0-.58,2.13,5.72,5.72,0,0,0,1.66,2.69c1.6,1.76,3.29,3.49,5,5.15a3.4,3.4,0,0,0,2.05,1.2h0a2.16,2.16,0,0,0,1.83-1.64,7.56,7.56,0,0,0,0-3.07l1-.15a8.09,8.09,0,0,1,0,3.5,3.14,3.14,0,0,1-2.79,2.36h0a4.21,4.21,0,0,1-2.72-1.48c-1.74-1.67-3.44-3.42-5.06-5.2a6.51,6.51,0,0,1-1.9-3.2,3.72,3.72,0,0,1,.76-2.89,5.53,5.53,0,0,1,3.62-2.11c2.3-.3,4.54.63,6.62,1.61a27,27,0,0,1,8.35,5.44,15.34,15.34,0,0,1,3.86,13,3.53,3.53,0,0,1-.73,1.79,3.74,3.74,0,0,1-1.73,1,20.88,20.88,0,0,1-27.09-22.3Z"/><path class="cls-2" d="M306.45,282.45a.53.53,0,0,1-.27-.08l-27.39-18.06c-14.36-9.46-30.64-20.19-49-21.84-14-1.25-28.33,3-40.94,6.82a.49.49,0,0,1-.62-.34.5.5,0,0,1,.33-.62c12.7-3.81,27.1-8.12,41.32-6.85,18.65,1.66,35,12.47,49.5,22l27.39,18a.5.5,0,0,1-.28.92Z"/><path class="cls-2" d="M244.18,244a.56.56,0,0,1-.32-.11c-5.71-4.65-12.18-9.91-15.67-17.07a40.36,40.36,0,0,1-3.48-12.91c-1.74-13.3-.44-26.82.82-39.89a.51.51,0,0,1,.54-.45.5.5,0,0,1,.45.55c-1.25,13-2.54,26.47-.82,39.66a39.9,39.9,0,0,0,3.38,12.6c3.4,7,9.78,12.15,15.41,16.73a.5.5,0,0,1-.31.89Z"/><path class="cls-11" d="M223.91,153.25c1.77-2.27,4.76-4.67,7.21-3.14a24.5,24.5,0,0,1,.77,7.84c-.32,2.61-1.66,5.26-4,6.45a26,26,0,0,1,6.7,3.68c1.69,1.27,3.23,3.88,1.61,5.24a3.43,3.43,0,0,1-1.75.63,18.68,18.68,0,0,1-12.89-2.86A13.19,13.19,0,0,1,210.42,183a14.93,14.93,0,0,1,3.35-12.91c-4.6-2.26-9.17-5.82-10.06-10.87a1.8,1.8,0,0,1,.2-1.46,2,2,0,0,1,1.09-.54,20.3,20.3,0,0,1,7.21-.8C219.39,157.28,218.7,159.93,223.91,153.25Z"/><path class="cls-12" d="M210,183.59l-.1-.45a15.46,15.46,0,0,1,3-12.86c-4.06-2.09-8.83-5.63-9.77-10.94a2.29,2.29,0,0,1,.31-1.87,2.41,2.41,0,0,1,1.36-.71,20.93,20.93,0,0,1,7.38-.81,29.37,29.37,0,0,1,4.33.84c2.84.72,3.28.83,6.92-3.84,2.07-2.66,5.23-4.91,7.87-3.27l.19.12,0,.21a24.65,24.65,0,0,1,.77,8A9,9,0,0,1,229,164.3a26.7,26.7,0,0,1,5.89,3.38,6.09,6.09,0,0,1,2.5,4.09,2.35,2.35,0,0,1-.86,1.93,4,4,0,0,1-2,.75A19.27,19.27,0,0,1,222,171.94a13.66,13.66,0,0,1-11.48,11.59Zm.75-26.72a23.76,23.76,0,0,0-5.66.86,1.61,1.61,0,0,0-.82.37,1.37,1.37,0,0,0-.1,1.07c.91,5.15,5.82,8.55,9.79,10.5l.59.29-.44.49a14.46,14.46,0,0,0-3.32,12,12.82,12.82,0,0,0,10.23-11.41l0-.87.73.48a18.19,18.19,0,0,0,12.54,2.79,2.93,2.93,0,0,0,1.5-.53,1.35,1.35,0,0,0,.51-1.13,5.11,5.11,0,0,0-2.1-3.32,25.25,25.25,0,0,0-6.58-3.61l-1.07-.4,1-.52a7.7,7.7,0,0,0,3.74-6.06,23.26,23.26,0,0,0-.71-7.46c-2.07-1.08-4.71,1-6.38,3.13h0c-3.91,5-4.73,5-8,4.2a29.75,29.75,0,0,0-4.19-.82A12.7,12.7,0,0,0,210.78,156.87Z"/><path class="cls-11" d="M192.31,236.19c1.77-2.28,4.76-4.67,7.21-3.14a24.16,24.16,0,0,1,.77,7.83,8.22,8.22,0,0,1-4,6.45A26.08,26.08,0,0,1,203,251c1.69,1.27,3.24,3.88,1.62,5.24a3.59,3.59,0,0,1-1.75.63A18.75,18.75,0,0,1,190,254a13.2,13.2,0,0,1-11.13,12,15,15,0,0,1,3.35-12.92c-4.6-2.26-9.17-5.81-10.06-10.86a1.83,1.83,0,0,1,.2-1.47,2,2,0,0,1,1.09-.54,20.53,20.53,0,0,1,7.21-.8C187.79,240.22,187.1,242.86,192.31,236.19Z"/><path class="cls-12" d="M178.43,266.52l-.09-.44a15.45,15.45,0,0,1,3-12.86c-4.06-2.1-8.83-5.63-9.76-10.95a2.23,2.23,0,0,1,.3-1.86,2.35,2.35,0,0,1,1.36-.71,21,21,0,0,1,7.39-.81,31.1,31.1,0,0,1,4.32.83c2.84.73,3.28.84,6.92-3.84,2.07-2.65,5.23-4.9,7.88-3.26l.18.11,0,.21a24.4,24.4,0,0,1,.77,8,8.94,8.94,0,0,1-3.38,6.29,27.21,27.21,0,0,1,5.89,3.39,6.11,6.11,0,0,1,2.49,4.09,2.37,2.37,0,0,1-.86,1.93,3.88,3.88,0,0,1-2,.74,19.22,19.22,0,0,1-12.55-2.5,13.67,13.67,0,0,1-11.48,11.59Zm.75-26.72a23.76,23.76,0,0,0-5.66.87,1.53,1.53,0,0,0-.82.37,1.34,1.34,0,0,0-.1,1.06c.91,5.15,5.83,8.56,9.79,10.5l.59.29-.43.5a14.41,14.41,0,0,0-3.33,12A12.8,12.8,0,0,0,189.45,254l.05-.86.73.48a18.17,18.17,0,0,0,12.54,2.78,2.93,2.93,0,0,0,1.5-.52,1.33,1.33,0,0,0,.51-1.14,5.16,5.16,0,0,0-2.1-3.32,25.82,25.82,0,0,0-6.57-3.61l-1.08-.4,1-.51a7.72,7.72,0,0,0,3.74-6.07,23.17,23.17,0,0,0-.71-7.45c-2.06-1.08-4.71,1-6.38,3.13h0c-3.91,5-4.73,5-8,4.19a30,30,0,0,0-4.19-.81A12.73,12.73,0,0,0,179.18,239.8Z"/></g></g></svg>