<svg width="192" height="191" viewBox="0 0 192 191" fill="none" xmlns="http://www.w3.org/2000/svg">
<path d="M126.941 188.213C94.1758 192.606 61.4691 189.885 33.2377 171.827C12.1799 158.361 -0.513444 128.856 0.354317 100.293C1.22208 71.7302 14.6432 44.985 33.8323 28.5935C44.6918 19.3167 57.1969 13.135 69.9751 8.51497C94.1309 -0.21504 120.645 -3.45222 144.653 6.76596C168.66 16.9841 189.336 42.8916 191.39 73.4307C192.698 92.8872 186.642 111.822 179.311 129.05C171.87 146.538 162.714 163.495 149.626 175.144L126.941 188.213Z" fill="#FFBFA4"/>
<path d="M62.6962 136.993C56.9602 137.067 51.234 136.543 45.632 135.432C43.6919 135.018 41.7007 134.452 40.2881 133.079C38.2458 131.088 38.0189 128.174 38.0189 125.362C37.9225 113.915 38.2118 102.29 38.5011 91.0415C38.7224 82.1461 38.955 72.9497 38.989 63.9063C38.9438 63.0264 39.0666 62.1461 39.3521 61.3035C40.4866 58.4303 44.2648 57.9863 46.9878 57.8995C59.8144 57.4912 73.0834 57.0676 86.1312 57.4504C88.6386 57.5219 92.9387 57.4096 97.8912 57.282C120.81 56.6951 141.675 56.5777 145.141 61.5383C146.395 63.3296 146.525 65.5854 146.627 67.3971C147.325 79.278 148.046 91.562 147.978 103.688C147.978 104.438 147.978 105.464 147.978 106.679C148.091 118.82 147.853 130.445 145.357 133.314C142.861 136.182 137.602 135.957 133.404 135.748C132.178 135.687 131.016 135.62 130.057 135.651L128.02 135.707C116.827 135.993 105.249 136.294 93.8521 136.008C88.2245 135.87 82.4438 136.182 76.8332 136.483C72.1701 136.738 67.4218 136.993 62.6962 136.993ZM75.3072 58.6344C65.822 58.6344 56.3142 58.9355 47.0389 59.2315C43.3969 59.3489 41.4 60.1502 40.7476 61.7833C40.5233 62.4806 40.4313 63.207 40.4753 63.9318C40.4413 72.9854 40.2087 82.1921 39.9818 91.0925C39.6981 102.32 39.4145 113.946 39.5052 125.373C39.5052 127.924 39.6924 130.553 41.3773 132.191C42.58 133.354 44.3783 133.814 45.9724 134.151C56.0702 136.289 66.5992 135.722 76.7822 135.171C82.4097 134.865 88.2302 134.554 93.9201 134.697C105.266 134.977 116.827 134.697 128.003 134.39L130.04 134.339C131.067 134.339 132.252 134.37 133.506 134.431C137.364 134.62 142.157 134.865 144.211 132.507C146.73 129.619 146.582 113.563 146.52 106.709C146.52 105.484 146.52 104.459 146.52 103.703C146.582 91.6131 145.862 79.3494 145.17 67.4685C145.067 65.7231 144.954 63.743 143.91 62.2528C140.603 57.527 113.912 58.2108 97.9593 58.6191C92.9671 58.7467 88.6613 58.859 86.1085 58.7824C82.4835 58.6804 78.8811 58.6344 75.2788 58.6344H75.3072Z" fill="black"/>
<path d="M83.4102 83.2529L83.2969 106.048L92.2418 101.696C93.5286 101.067 94.8153 100.443 96.1247 99.864C100.66 97.878 105.495 96.554 109.905 94.2921C105.767 93.1004 102.536 90.513 98.4998 89.018C96.6009 88.3118 94.5829 87.876 92.803 86.9216C92.0207 86.5023 91.2895 85.9837 90.4902 85.5976C89.6939 85.2351 88.867 84.9398 88.0188 84.7149C86.4542 84.257 84.9464 83.7108 83.4102 83.2529Z" fill="#231F20"/>
<path d="M28.9615 122.914C28.61 125.932 28.7801 129.109 30.1915 131.818C33.0258 137.291 39.913 139.293 46.0634 140.761C54.4244 142.758 63.5678 144.689 71.3563 141.12C74.5115 139.668 77.1935 137.397 79.1063 134.556C81.0191 131.715 82.0885 128.415 82.1963 125.02C82.3042 121.626 81.4465 118.268 79.7177 115.317C77.9889 112.367 75.4563 109.938 72.3993 108.3C54.1807 98.5188 31.8807 97.8126 28.9615 122.914Z" fill="#D9CE90"/>
<path d="M55.5332 137.583C46.798 137.583 39.6953 130.963 39.6953 122.77C39.6953 114.578 46.798 107.958 55.5332 107.958C64.2683 107.958 71.3767 114.605 71.3767 122.77C71.3767 130.935 64.2683 137.583 55.5332 137.583ZM55.5332 109.861C47.875 109.861 41.6453 115.653 41.6453 122.77C41.6453 129.887 47.8807 135.685 55.5332 135.685C63.1857 135.685 69.421 129.892 69.421 122.77C69.421 115.648 63.1913 109.861 55.5332 109.861Z" fill="#010101"/>
<path d="M25.4289 114.244L25 116.101L33.4395 117.948L33.8685 116.091L25.4289 114.244Z" fill="#010101"/>
<path d="M43.0077 136.177L39.8125 141.624L41.5109 142.568L44.7061 137.12L43.0077 136.177Z" fill="#010101"/>
<path d="M71.2208 136.101L69.5859 137.146L73.2563 142.588L74.8912 141.543L71.2208 136.101Z" fill="#010101"/>
<path d="M80.9049 114.271L73.7969 116.121L74.302 117.96L81.4101 116.11L80.9049 114.271Z" fill="#010101"/>
<path d="M56.5103 95.0381H54.5547V103.093H56.5103V95.0381Z" fill="#010101"/>
</svg>
