<svg xmlns="http://www.w3.org/2000/svg" viewBox="0 0 450.85 450"><defs><style>.cls-1{fill:#ffbfa4;}.cls-2{fill:#ffeae1;}.cls-3{fill:none;}</style></defs><g id="Layer_2" data-name="Layer 2"><g id="matitas"><path class="cls-1" d="M152.22,4.33C229.46-6,306.56.44,373.14,43.33c49.66,32,79.62,102,77.61,169.8s-33.61,131.23-78.82,170.1c-25.58,22-55.06,36.66-85.18,47.6-56.95,20.69-119.44,28.33-176.06,4.06S5.31,349.1.43,276.63c-3.11-46.17,11.14-91.09,28.4-132C46.35,103.17,67.91,63,98.76,35.32Z"/><path d="M175.23,384.67c-7.75,0-14.33-2.72-18.88-14.64-.64-1.67-1.26-3.37-1.89-5.08-4.36-11.84-8.87-24.09-18.82-30.16-8.79-5.35-19.46-4.85-29.8-4.34-17.43.85-35.45,1.71-36.88-29.81-.12-2.51,0-5.08,0-7.64.18-6.29.36-12.23-2.29-17.19-2.77-5.22-7.79-9.09-12.65-12.84-5.93-4.58-11.53-8.91-11.84-15.23-.22-4.65,2.44-9.45,8.38-15.08,13.67-11.28,22-36.31,17.85-53.68-8.9-37.61,13.2-70.2,23.12-82.47,16.87-20.87,46.05-32.9,86.73-35.77l.31,4.64C139.19,68.15,111.07,79.62,95,99.48c-9.47,11.73-30.61,42.85-22.19,78.41,4.55,19.23-4.29,45.92-19.3,58.29-4.63,4.4-7,8.24-6.81,11.33.2,4.14,4.76,7.66,10,11.74,5,3.86,10.66,8.22,13.9,14.32s3,12.94,2.84,19.57c-.07,2.44-.14,4.89,0,7.28,1.22,26.88,14.19,26.23,32.17,25.39,10.48-.5,22.36-1.08,32.3,5,11.31,6.9,16.1,19.92,20.74,32.51.62,1.69,1.24,3.37,1.87,5,5.1,13.36,12.22,12.41,24,10.84,2-.26,4.09-.54,6.27-.76a262.38,262.38,0,0,1,55.33.31l1.2.14c5.42.61,11,1.25,16.07-.23l1.23,4.48c-5.89,1.71-11.94,1-17.79.36l-1.2-.13a257.69,257.69,0,0,0-54.41-.31c-2.13.22-4.17.49-6.12.75A76.79,76.79,0,0,1,175.23,384.67Z"/><path d="M77.15,282.69a20.54,20.54,0,0,1-7.3-1.32L71.41,277a16.74,16.74,0,0,0,15.39-2l2.54,3.84A21.21,21.21,0,0,1,77.15,282.69Z"/><path d="M91.6,211.91a18.43,18.43,0,0,1-12.68-4.83l3-3.44a14.25,14.25,0,0,0,11.12,3.55,14.45,14.45,0,0,0,10.36-5.49l3.56,2.84a19,19,0,0,1-13.52,7.28Q92.53,211.91,91.6,211.91Z"/><path d="M272,360.55,267.9,359c24.11-68.61,16.82-103.5,9.24-123.78l4-1.61C297.53,277.37,283.76,327,272,360.55Z"/><path d="M308.08,274.51c-7.26,0-13.69-1.86-17.34-6.47-3.27-4.11-5.43-12,2.82-26.27S319.43,203,345.5,197.36c20.21-4.37,41,3.78,57.7,10.32,10.94,4.29,22.22,8.7,33.22,13.32l6.44,2.7-6.79,1.55a278.08,278.08,0,0,0-68.33,25.44c-3.42,1.82-6.89,3.75-10.24,5.62-9.34,5.21-19,10.6-29.25,14.34A60.78,60.78,0,0,1,308.08,274.51Zm38.31-72.77c-24.46,5.28-41.26,28.79-49.11,42.33-3.84,6.64-7.51,15.69-3.19,21.14,4.7,5.92,18.46,6.43,32.71,1.22,9.93-3.62,19.44-8.92,28.64-14.05,3.37-1.88,6.85-3.82,10.32-5.66a282,282,0,0,1,62.66-24.21c-8.91-3.66-17.94-7.19-26.72-10.64-16.21-6.34-36.34-14.23-55.31-10.13Z"/><path d="M283.65,320.9c-5.4-7.64-13.69-11.8-21.71-15.82-3.27-1.64-6.66-3.34-9.83-5.26-14.91-9-26.19-23.41-37.1-37.32-2-2.6-4.09-5.2-6.15-7.77-22-27.37-36.71-33.2-47.07-35.23l-7.29-1.43,7-2.61c17-6.33,37.51-4.13,56.22,6,15,8.17,28.85,20.83,43.54,39.86h0c5.89,7.62,13.27,17.91,18.18,29.94,1.6,3.93,2.38,8.47,3.14,12.85.94,5.48,1.83,10.65,4.15,14.28ZM169.71,217.38c17.47,6.23,31.48,21.47,42,34.6,2.07,2.57,4.12,5.19,6.17,7.8,10.69,13.63,21.75,27.72,36.05,36.39,3,1.84,6.36,3.5,9.57,5.11,5.66,2.84,11.45,5.74,16.46,9.9-.46-2.05-.82-4.17-1.18-6.25-.72-4.15-1.45-8.44-2.88-11.93-4.71-11.55-11.88-21.54-17.6-28.95-14.35-18.57-27.8-30.9-42.32-38.8C200.72,216.93,184.23,214.19,169.71,217.38Z"/><path class="cls-2" d="M319.86,148c-1.15-4.62-3.26-7.73-4.25-10.84s-.85-6.23-3.67-13c-2.78,6.88-6.86,10.59-9.92,13.39l0,0c-.64-7.23-1.34-8-2.41-9.26a22,22,0,0,1-3.85-5.79c-1.33-2.9-2.55-7-4.44-7.09-5.18,2.33-6.16,5.54-7.94,7.95s-4.37,4-5.44,8l.27.46A114.28,114.28,0,0,0,270.7,121c-2.68-3.62-5.28-7.28-7.29-10.36S260,105,258.57,104s-2.85-.72-3.78,1-1.37,4.9-2.61,9.28-3.28,10-4.53,14.72c-.28,1.08-.52,2.11-.72,3.1.06-.34.13-.67.21-1C238.58,126,235,122.23,233,121s-2.7,0-3.17,1.68-.79,3.68-1.39,6.36-1.46,6-1.12,8.9,1.91,5.4-.32,14.28a32.79,32.79,0,0,1-9.28-4.44c-2.33-1.78-3.18-3.65-6.24-5.59s-8.3-4-12.43-.14c9.54,18.93,14.07,35.71,20.78,48.56a74.35,74.35,0,0,0,24.52,27.75c8.94,6,17.94,9,30.57,9.06l4.21-4.18c6.95-.8,14.92-6.3,21.11-12.73A68.3,68.3,0,0,0,314,189a93.33,93.33,0,0,0,6.22-23.12C321.19,158.71,321,152.58,319.86,148ZM246.6,133.9c.08-.49.16-1,.26-1.49C246.76,132.92,246.68,133.41,246.6,133.9Zm-.18,1.46c0-.36.08-.72.13-1.07C246.5,134.64,246.45,135,246.42,135.36Zm-.14,2c0,.3,0,.6,0,.9C246.26,137.94,246.27,137.64,246.28,137.34Zm.09-1.47c0,.31-.05.62-.07.92C246.32,136.49,246.34,136.18,246.37,135.87Zm.11,5.74c-.07-.48-.11-1-.15-1.42C246.37,140.66,246.41,141.13,246.48,141.61Zm-.17-1.88c0-.32,0-.64,0-1C246.27,139.09,246.29,139.41,246.31,139.73Zm-4.71,20.41-.55-.57Zm1.17,1.29.24.29-.57-.65Zm-2.59-2.72-.53-.5Zm-1.48-1.32-.45-.39Zm4.73,4.84c.23.29.47.58.7.88C243.9,162.81,243.66,162.52,243.43,162.23Zm2.11,2.8c.33.48.64.95.94,1.43C246.18,166,245.87,165.51,245.54,165Zm-1-1.41.7,1Zm48.32-2.35c0,.56.07,1.13.13,1.7C292.91,162.4,292.86,161.83,292.84,161.27Zm.18,2.14q.09.81.21,1.62Q293.11,164.22,293,163.41Zm.22,1.71c.1.61.2,1.23.31,1.86C293.44,166.35,293.34,165.73,293.24,165.12Zm.54,3.21c.05.27.09.55.14.82C293.87,168.88,293.83,168.6,293.78,168.33Zm.43,2.64c0,.16.05.32.07.48C294.26,171.29,294.24,171.13,294.21,171Zm.3,2.24a1.23,1.23,0,0,0,0,.2A1.23,1.23,0,0,1,294.51,173.21Zm.17,2.14c0,.16,0,.31,0,.48Q294.7,175.58,294.68,175.35Zm6.56-37.07-.25.24Z"/><path d="M321.33,147.57a38.33,38.33,0,0,0-2.74-7.26,33.52,33.52,0,0,1-1.54-3.68,29.91,29.91,0,0,1-.72-3.08,46.32,46.32,0,0,0-3-10l-1.42-3.39-1.38,3.41a30.24,30.24,0,0,1-7.31,10.73c-.58-4.68-1.3-5.74-2.47-7.07a20.47,20.47,0,0,1-3.6-5.41c-.27-.59-.54-1.23-.81-1.88-1.22-3-2.5-6-5-6.1h-.33l-.31.14a15.51,15.51,0,0,0-7.52,6.88c-.35.56-.67,1.08-1,1.55a21.16,21.16,0,0,1-1.61,1.88,19.31,19.31,0,0,0-2.9,3.75c-1.47-2.21-3.08-4.4-4.67-6.53L271.9,120c-2.85-3.85-5.35-7.4-7.23-10.28l-1.07-1.66c-1.54-2.42-2.76-4.33-4.14-5.36a3.81,3.81,0,0,0-3.24-.82,4.22,4.22,0,0,0-2.76,2.36,23.2,23.2,0,0,0-1.61,5.2c-.31,1.29-.66,2.76-1.12,4.39-.53,1.86-1.19,3.92-1.9,6.11-.91-4.13-2-7.75-3-11.26a92.06,92.06,0,0,1-3.76-16.32l-3,.38a95.09,95.09,0,0,0,3.87,16.86,119.45,119.45,0,0,1,4,16.48c-.26.85-.5,1.69-.71,2.5a.19.19,0,0,0,0,.07,93,93,0,0,1-9.57-6.86,26.41,26.41,0,0,0-2.9-2.15,3.52,3.52,0,0,0-3.23-.5c-1.44.6-1.9,2.22-2.15,3.1-.3,1.06-.54,2.25-.82,3.62-.17.86-.36,1.79-.59,2.83l-.19.83c-.58,2.55-1.3,5.72-.95,8.61a17.34,17.34,0,0,0,.34,1.91c.43,2.06.95,4.6-.25,10.16a29.24,29.24,0,0,1-7.28-3.68,17.72,17.72,0,0,1-2.26-2.13,19.51,19.51,0,0,0-4.09-3.53c-2.53-1.61-9-4.83-14.25,0l-.88.81.55,1.08c5,10,8.72,19.52,12,27.93a208.73,208.73,0,0,0,8.81,20.65,75.63,75.63,0,0,0,25,28.33,52.8,52.8,0,0,0,16,7.44A59.06,59.06,0,0,0,274.28,229l.64.58.56-.56,3.47,0-1.83-1.64,2.66-2.65c6.55-.95,14.35-5.69,21.49-13.1a69.64,69.64,0,0,0,14.16-22,95.43,95.43,0,0,0,6.33-23.53C322.7,158.88,322.55,152.48,321.33,147.57Zm-38.55-21.12a24.63,24.63,0,0,0,1.84-2.15c.42-.57.8-1.17,1.16-1.75a12.5,12.5,0,0,1,5.67-5.47c.65.56,1.59,2.82,2.11,4.09.27.67.56,1.36.85,2a23.6,23.6,0,0,0,4.1,6.17c.82.95,1.38,1.59,1.95,7.56l-.08.08c-.44.41-.87.81-1.26,1.2-3.32,3.34-4.22,6.13-5.36,9.67l-.43,1.34c0,.12-.08.25-.11.38-.11.35-.22.7-.33,1.07-.05.18-.11.38-.16.58s-.18.63-.27,1-.11.45-.17.68-.15.63-.23,1-.1.5-.15.75-.13.64-.18,1-.08.53-.12.8-.1.66-.14,1,0,.57-.07.85,0,.67-.07,1,0,.58,0,.87,0,.55,0,.83c-.06-.1-.13-.19-.2-.29-.38-.53-.75-1.05-1.12-1.55a39,39,0,0,1-2.2-3.26c-1.7-3-2.35-6.37-3-9.66-.19-1-.38-2-.59-2.95s-.53-2.17-.84-3.22c-.09-.32-.21-.62-.31-.93-.24-.72-.46-1.44-.73-2.14-.15-.39-.33-.77-.49-1.16-.25-.6-.49-1.21-.77-1.79-.19-.42-.42-.81-.63-1.22s-.52-1.06-.81-1.57A12.63,12.63,0,0,1,282.78,126.45Zm-31.16-5.24c.75-2.31,1.46-4.5,2-6.5.48-1.7.84-3.2,1.16-4.52a22,22,0,0,1,1.32-4.44,1.5,1.5,0,0,1,.76-.81,1.17,1.17,0,0,1,.79.29,21.07,21.07,0,0,1,3.4,4.56l1.08,1.68c1.91,2.93,4.45,6.54,7.34,10.44l1.12,1.51a90.7,90.7,0,0,1,6.32,9.2,39.67,39.67,0,0,1,4.31,11.27c.11.46.2.93.3,1.4s.18,1,.28,1.46c.25,1.33.51,2.67.84,4a24.83,24.83,0,0,0,2.5,6.63,41.53,41.53,0,0,0,2.39,3.54c.55.76,1.11,1.52,1.65,2.32l.06.1c.24.36.49.74.72,1.13.07.11.14.24.21.36.18.31.36.62.53,1s.21.44.31.65.25.5.37.76.22.58.33.87.18.44.26.67.23.74.33,1.12c.06.2.12.38.17.58.1.4.18.84.26,1.27l.09.46c0,.15.05.31.07.46s0,.32,0,.48c.09.72.16,1.44.2,2.17a.41.41,0,0,1,0,.11c0,.8.06,1.61,0,2.43-.13,5.49-1.95,12-5.58,19.79-.73,1.56-1.5,3.13-2.32,4.8-.36.74-.74,1.49-1.11,2.26-.11.23-.22.47-.34.71l-.78,1.63c-.14.3-.28.61-.41.91-.24.5-.47,1-.7,1.52-.14.32-.28.66-.42,1-.21.5-.43,1-.64,1.5s-.27.72-.41,1.07c-.2.5-.39,1-.58,1.51s-.26.76-.39,1.14-.34,1-.5,1.51-.23.8-.35,1.21-.29,1-.42,1.51-.2.85-.29,1.28-.21.85-.29,1.29l-2.84,2.82-.33-.3-.73-.71-.8-.79c-.23-.23-.46-.46-.68-.7l-.74-.77-.62-.69c-.23-.26-.46-.51-.68-.77l-.58-.68-.62-.75-.53-.67-.58-.75-.49-.65c-.18-.25-.36-.49-.53-.74l-.45-.63-.49-.74-.41-.62-.46-.74c-.13-.2-.26-.4-.38-.6s-.29-.49-.43-.73l-.34-.59-.41-.73-.31-.56-.39-.75-.28-.53-.38-.75-.25-.51c-.14-.26-.26-.52-.39-.79l-.21-.44c-.16-.32-.31-.64-.46-.95l-.12-.26-.56-1.19-.25-.54-1.31-2.77c-2.54-5.38-4.73-10-5.62-13.42a21.36,21.36,0,0,1-.63-6.1,30.76,30.76,0,0,0-.14-3.64,28.83,28.83,0,0,0-3.61-10.61c-.29-.51-.58-1-.9-1.51s-.6-.94-.93-1.42l-.34-.49c-.22-.31-.45-.63-.69-.94s-.38-.52-.58-.77l-.62-.78c.09-.17.16-.32.24-.49l.42-.89c.14-.31.28-.61.41-.91l.35-.83c.13-.29.24-.58.36-.86l.29-.76c.11-.28.2-.55.3-.82s.17-.48.24-.71.17-.51.24-.77.14-.43.2-.65.13-.49.19-.73l.15-.59c.05-.24.1-.46.14-.69s.08-.38.11-.56.07-.43.11-.64,0-.35.07-.52.05-.41.07-.61,0-.32,0-.47,0-.39,0-.58,0-.3,0-.44v-1c0-.18,0-.36,0-.54s0-.24,0-.36,0-.36,0-.54l0-.31c0-.19,0-.36-.06-.54l0-.28c0-.19,0-.38-.08-.57l0-.2c0-.26-.07-.5-.11-.75l-.18-1.23c0-.43-.09-.84-.13-1.26l0-.62,0-.61c0-.26,0-.52,0-.78s0-.31,0-.46l0-.86,0-.41c0-.3.05-.6.08-.9,0-.15,0-.3,0-.46s.07-.58.12-.87.1-.61.15-.92.09-.48.14-.72c.19-1,.43-2,.73-3.13C249.8,126.85,250.72,124,251.62,121.21Zm-21.94,9,.19-.84c.24-1.06.43-2,.61-2.89.26-1.31.49-2.44.76-3.38a4.21,4.21,0,0,1,.38-1,2.5,2.5,0,0,1,.57.27,26.23,26.23,0,0,1,2.54,1.91,96.6,96.6,0,0,0,10.69,7.58,1.48,1.48,0,0,0,0,.19c-.15.76-.27,1.5-.37,2.21,0,.21-.05.41-.07.61-.07.63-.13,1.24-.16,1.85,0,.13,0,.26,0,.39,0,.71,0,1.4,0,2.1l0,.49q0,1.06.18,2.13c.06.43.12.87.19,1.31,0,.22.07.45.1.67l0,.18c0,.17.05.34.07.52l0,.26c0,.15,0,.3.05.46l0,.3,0,.45c0,.11,0,.22,0,.33s0,.3,0,.46v.36c0,.15,0,.31,0,.47s0,.26,0,.39l0,.49c0,.14,0,.28,0,.42l-.06.53-.06.44c0,.18-.06.37-.1.57s0,.3-.08.46-.09.41-.14.62-.07.32-.11.49-.13.46-.19.69-.09.33-.14.49-.18.55-.27.83l-.14.44c-.14.4-.3.82-.46,1.25l0,.12c-.18.47-.38,1-.6,1.46l-.21.47c-.15.32-.29.64-.45,1l-.31-.31-.66-.66-.68-.64-.56-.5c-.27-.25-.55-.47-.82-.69l-.43-.35c-.41-.33-.83-.63-1.24-.91a18.64,18.64,0,0,0-3-1.66,32.67,32.67,0,0,0-4.77-1.56h0l-1.12-.32c1.41-6.41.77-9.47.3-11.74-.13-.6-.24-1.12-.3-1.63C228.5,135.41,229.13,132.66,229.68,130.23ZM245.13,217a72.47,72.47,0,0,1-24-27.18,204.42,204.42,0,0,1-8.67-20.32c-3.16-8.15-6.72-17.35-11.52-27,3.43-2.25,7.48-.38,9.71,1a16.68,16.68,0,0,1,3.5,3,20.52,20.52,0,0,0,2.63,2.47,32.76,32.76,0,0,0,8.35,4.22v0l1.64.52c.82.26,1.61.47,2.37.67a21,21,0,0,1,6.9,2.81c.41.29.84.61,1.28,1l.37.31c.32.27.64.54,1,.83l.46.43.87.86.51.53c.28.3.55.6.83.92l.54.61.4.49.66.82.41.54.63.87.35.49c.31.45.61.91.9,1.37a26.6,26.6,0,0,1,4,10.77,27.9,27.9,0,0,1,.12,3.28,24.72,24.72,0,0,0,.73,6.94c.25.92.57,1.91,1,3,1.16,3.14,2.92,6.86,4.87,11,.43.9.86,1.82,1.3,2.76l.25.54c.19.39.37.79.56,1.18.05.12.11.24.16.35l.42.88.22.46.39.79c.08.16.16.33.25.5s.25.51.39.77l.27.52c.13.26.27.52.41.78l.28.53c.15.27.3.54.46.81l.28.51c.18.3.36.61.55.91.08.14.16.28.25.42.55.9,1.14,1.81,1.78,2.74l.3.42c.23.32.46.65.7,1l.4.53c.22.3.45.59.69.89l.46.57c.23.29.47.59.72.88l.51.59.78.89.54.59c.28.31.58.62.88.93l.55.57.18.19A49,49,0,0,1,245.13,217Zm73.62-51.38a91.7,91.7,0,0,1-6.12,22.71,66.6,66.6,0,0,1-13.51,21c-6,6.18-12.55,10.48-18.07,11.87a1.55,1.55,0,0,0,.05-.23c.08-.32.17-.63.25-.94.14-.52.28-1,.44-1.55.1-.33.2-.66.31-1s.31-1,.48-1.44l.36-1c.18-.47.35-.94.54-1.4l.39-1c.19-.47.39-.93.59-1.39.13-.3.26-.61.4-.92.21-.47.43-.95.65-1.42l.39-.83c.25-.53.5-1.06.76-1.59l.3-.63c.35-.73.71-1.45,1.06-2.16.83-1.68,1.61-3.27,2.35-4.87a70,70,0,0,0,5-14,36.55,36.55,0,0,0,.91-7.1c0-.47,0-.94,0-1.4a1.69,1.69,0,0,1,0-.23c0-.4,0-.8-.05-1.2a2.45,2.45,0,0,1,0-.27c0-.41-.06-.82-.1-1.22l0-.29c-.05-.43-.1-.87-.16-1.29,0,0,0-.1,0-.15h0a.43.43,0,0,1,0-.11c-.09-.67-.19-1.33-.3-2a2.23,2.23,0,0,0,0-.23c-.1-.64-.21-1.28-.32-1.91a50.67,50.67,0,0,1-.84-6.41c-.19-4.68,1.18-8.95,2.29-12.38s1.8-5.6,4.59-8.4l.87-.84.25-.23.74-.68.09-.08.44-.41h0a36.87,36.87,0,0,0,8.17-10.09,42.42,42.42,0,0,1,1.55,6.09,32.33,32.33,0,0,0,.82,3.43,34.13,34.13,0,0,0,1.68,4,36,36,0,0,1,2.54,6.69C319.51,152.87,319.64,158.86,318.75,165.66Z"/><rect class="cls-3" x="0.42" width="450" height="450"/></g></g></svg>