<svg xmlns="http://www.w3.org/2000/svg" viewBox="0 0 1150.06 1150.06"><defs><style>.cls-1{fill:#ffbfa4;}.cls-2{fill:none;}.cls-3{fill:#353e18;}.cls-4{fill:#fff;}.cls-5{fill:#655422;}.cls-6{fill:#f8ebfb;}.cls-7{fill:#d8a8f3;}</style></defs><g id="Layer_2" data-name="Layer 2"><g id="background"><path class="cls-1" d="M734.26,8.73C551.21-15.08,347.11,4.85,213.2,130.9c-81.85,77-139,138-181.95,241.48C9.62,424.46-.47,524.09,0,580.42.3,612.73,19.84,706.34,30.34,736.93,74,864.12,131.75,927.41,234.29,1015.2c59.65,51.08,146.34,79.28,221.55,102.63,74.25,23.05,153.74,22.39,231.38,17.48,118.38-7.49,248.62-31.15,321.42-124,31.38-40.06,48.5-89,64.76-137.12,44.36-131.17,86.86-267.47,74.48-405.27C1127.88,246.19,960.42,38.16,734.26,8.73Z"/><rect class="cls-2" width="1150.06" height="1150.06"/></g><g id="drawing"><path d="M655,166.41a320.31,320.31,0,0,1-12,82.85c-5.78,20.41-14.19,41.44-30.34,55.92A62.57,62.57,0,0,1,583,320a75.35,75.35,0,0,1-34.08-1.37c-9.19-2.49-18.4-6.85-25.33-13.48-6.57-6.28-11.72-14-16.28-21.83-9.67-16.58-17-34.55-23.39-52.6-.6-1.69-1.2-3.4-1.79-5.1-.21-.63-1.83-1.06-2.39-1.27-.23-.08-2.65-.66-2.64-.64,6.17,17.93,13.19,35.7,22.19,52.41,4.59,8.49,9.72,16.88,16.2,24.07,6.72,7.46,15.29,12.37,24.54,16.11,21.83,8.81,47.49,10.44,68.22-2.22C627.35,302.42,638.15,281.6,645,261a306,306,0,0,0,14.74-82.08c.17-3.53.27-7.07.31-10.6,0-.52-2-1.13-2.39-1.27-.18-.07-2.64-.86-2.64-.64Z"/><path d="M869.07,423.88c-15.66,6.71-28.06,18.58-42.16,27.8l3.25.38c.38-6.06.67-12.77-2.16-18.34a12.14,12.14,0,0,0-6.92-6.05c-4.56-1.58-9.49-.21-13.52,2.15-8.1,4.75-14.21,13.53-17.68,22.09a60.15,60.15,0,0,0-3.58,14.4A53.74,53.74,0,0,1,783,479.73c-5.62,13.58-15.18,25-25.81,34.93-11.39,10.69-23.94,20-36,30-11.88,9.76-23.55,20.15-32.63,32.64-1.13,1.55-2.22,3.14-3.27,4.75-.65,1,.1,1.89,1.15,1.92a4.08,4.08,0,0,0,3.26-2c8-12.24,18.75-22.4,29.86-31.78,11.59-9.78,23.79-18.83,35.18-28.86,10.92-9.62,21.26-20.27,28.47-33a78,78,0,0,0,4.6-9.58A56.92,56.92,0,0,0,791.14,465a55.66,55.66,0,0,1,3.33-13.57,46.63,46.63,0,0,1,6.88-11.69c4.51-5.6,12.58-12.64,19.61-6.55,4.5,3.91,4.64,11.22,4.51,16.69,0,1.36-.11,2.73-.19,4.09-.1,1.61,2.7.75,3.26.38,13.66-8.92,25.72-20.66,40.87-27.15,1-.41,2.45-1.43,2.27-2.66s-1.81-1.05-2.61-.7Z"/><path d="M423.05,379.78c-10.32,11.32-15,26.35-15,41.51,0,16.55,5.64,32.34,13.68,46.62C430.54,483.56,442,497.57,453,511.7s22.16,28.36,33.48,42.35c22.53,27.87,46,55.08,71.52,80.24,12.93,12.73,26.4,24.92,40.51,36.34,13.79,11.15,28.11,22,43.71,30.49,14.32,7.83,29.79,13.54,46.12,15,13.59,1.22,29.2.07,40.33-8.67,12.76-10,22.22-24.2,31.15-37.52,5.44-8.1,11-16.15,16.34-24.29l29.14-44.1c7.38-11.17,13.83-22.74,23.49-32.26a68.53,68.53,0,0,1,16.33-12.18c6.57-3.41,13.69-5.77,20.37-9,12.48-6,24.51-13.3,34.6-22.9,21-20,38-55.23,22.17-83.06A43.51,43.51,0,0,0,905.82,426c-1.79-1-6,2.27-4,3.39,15,8.49,22.36,24.54,21.53,41.47-.73,15.13-7.78,30.22-16.88,42.14-8.05,10.55-18.42,18.9-29.81,25.59a182.33,182.33,0,0,1-18.83,9.5c-6.49,2.86-13.16,5.21-19.15,9.07-10.41,6.72-19,16-26.13,26.11-2.7,3.84-4.92,7.93-7.44,11.87-8.64,13.5-17.69,26.76-26.52,40.14-3,4.51-5.89,9.06-8.94,13.52-8.36,12.24-16.27,24.86-25.22,36.68a124.09,124.09,0,0,1-15.79,17.7,35.18,35.18,0,0,1-17.94,8.44c-14.46,2.6-29.8.22-43.57-4.53-16.48-5.69-31.45-15-45.5-25.19a489.15,489.15,0,0,1-40.84-33.28C554.62,625,530.76,599,508.1,572c-22.45-26.74-44.29-54.17-65.23-82.11-19.08-25.45-37.32-57.12-27.06-89.93a51,51,0,0,1,11-19.22c.72-.78.82-1.94-.29-2.35s-2.72.6-3.45,1.41Z"/><path d="M411.75,397.43a588.58,588.58,0,0,0-27.23,75.14c-9.75,34.39-18.64,69-28.63,103.34-10.66,36.6-24.76,72.08-34.3,109-9.07,35.13-14.69,71.39-13.4,107.75a286.07,286.07,0,0,0,22.11,99.64c1.72,4.15,3.54,8.26,5.42,12.34.58,1.27,5.81.82,5.19-.54-14.55-31.49-24-65.07-26.68-99.72-2.74-35.69,1.5-71.57,9.53-106.35,4.24-18.38,9.53-36.5,15.38-54.42s12.4-35.65,17.93-53.7C367.9,554.67,377,518.85,386.89,483.3c3.37-12.15,6.78-24.29,10.74-36.26,4.21-12.7,9.11-25.16,14.32-37.48q2.46-5.83,5-11.63c.59-1.36-4.63-1.79-5.2-.5Z"/><path d="M602.11,170.1c8.6-6.92,17.13-7.88,23.12-8.47a81.91,81.91,0,0,1,12.61-.62c3.17.18,6.07.75,9.68,1.24s7.93.89,15.32,2.28c-3.48.57-7.19.25-11.19,0a117.73,117.73,0,0,0-12.07-.37,62.55,62.55,0,0,0-10.38,1.33,57.88,57.88,0,0,0-9.5,2.64,32.56,32.56,0,0,0-7,3.9,36.73,36.73,0,0,1-5.34,3.59,7.15,7.15,0,0,1-5.17.55c-1.55-.51-2.78-1.77-.11-6t0,0Z"/><path d="M567.52,172c-4.4-2.27-10.86-3.26-16.25-3.94a80.57,80.57,0,0,0-14.32-.87c-4.62.21-9.55,1-24.86,6.94,13.3-1.43,21.59-2.41,27.11-2.29s8.27,1.34,11.49,2.3S557.6,175.75,567.52,172Z"/><path d="M570.21,232.42a25.39,25.39,0,0,0,8.95,12.72c.66.5.92-1.21.93-1.5,0-.75,0-2-.68-2.54a22.73,22.73,0,0,1-4.9-5,20.47,20.47,0,0,1-1.73-2.81c-.26-.52-.51-1.05-.73-1.59l-.3-.77c-.19-.51.09.31-.08-.21l-.15-.47c-.15-.46-.64-1.48-1.15-.7a3.87,3.87,0,0,0-.16,2.86Z"/><path d="M606.66,235.19a26.09,26.09,0,0,1-12,10.09c-.78.32-.57-1.4-.51-1.68.17-.74.51-1.95,1.33-2.28a23.87,23.87,0,0,0,6.07-3.62,22,22,0,0,0,2.41-2.29c.39-.44.77-.89,1.12-1.35.17-.23.34-.45.5-.68.32-.44-.17.27.13-.18l.27-.42c.27-.4,1-1.28,1.3-.39a3.87,3.87,0,0,1-.6,2.8Z"/><path d="M563,192.7c-11.86,4.78-24.87.52-36.35-3.25a2.14,2.14,0,0,0-2.21.59.91.91,0,0,0,.41,1.52c12.71,4.17,26.48,8.24,39.53,3,.6-.24,1.16-1,.74-1.61s-1.51-.48-2.12-.23Z"/><path d="M650.38,187.2c-1.76,1.86-4.15,2.67-6.54,3.36-2.82.8-5.65,1.6-8.52,2.17-5.58,1.1-11.4,1.15-16.56-1.52-.75-.39-3.62.77-2.53,1.33,6,3.12,13.08,2.75,19.53,1.39,3.31-.7,6.62-1.57,9.85-2.59a17.22,17.22,0,0,0,7.62-4.24c.51-.54-.43-.69-.78-.69a3.12,3.12,0,0,0-2.07.79Z"/><path d="M426.44,382.46c7.46-11.64,18.74-20.47,31.34-26,12.75-5.58,27.17-7.81,40.9-5.09,15.46,3.07,29.3,11.65,41.64,21.11,6.3,4.83,12.39,9.94,18.36,15.17.75.66,1.47,1.36,2.18,2.06.38.37-.12-.13,0-.05l.28.29.69.71,1.41,1.49c5.12,5.54,9.88,11.4,14.57,17.3,6.64,8.34,13.06,16.84,19.38,25.42q11.37,15.47,22.22,31.27Q631.25,483.4,642.55,501q11.44,17.85,22.17,36.14c6.75,11.57,13.25,23.3,19.29,35.27,1.37,2.7,2.7,5.42,4,8.15a4.31,4.31,0,0,0,3.19,2.08c1.14.09,1.52-.62,1-1.61-5.75-11.95-12-23.64-18.56-35.17q-10.61-18.66-22.08-36.78t-23.57-36q-11.31-16.65-23.13-32.95c-6.64-9.14-13.39-18.2-20.35-27.09-5.12-6.54-10.32-13-15.84-19.22-5.85-6.56-12.51-12.11-19.32-17.66-12.84-10.48-26.67-20.28-42.47-25.73a71.11,71.11,0,0,0-43.24-1A76.54,76.54,0,0,0,428,371.52a62.19,62.19,0,0,0-6.08,8c-1,1.59,3.49,4.54,4.51,2.94Z"/><path d="M726.43,707.18a122,122,0,0,1,3,19.37c.21,3.94,0,7.86-.09,11.8,0,2.78.07,5.55.28,8.31.07.87,1.5,2,2.08,2.6.18.18,1.65,1.48,1.62,1-.68-8.93.37-17.82-.83-26.73-.58-4.28-1.42-8.52-2.33-12.75-.2-.94-1.42-1.94-2.07-2.59-.19-.18-1.71-1.42-1.63-1.06Z"/><path d="M669.17,423A635,635,0,0,1,701.06,513q3.51,13,6.48,26.12c.42,1.82,5.37,3.55,4.79,1a635.13,635.13,0,0,0-28-91.26q-4.92-12.57-10.38-24.92a4.09,4.09,0,0,0-2.93-2.28c-.76-.15-2.38.1-1.85,1.3Z"/><path d="M519.14,308.68c-1.45,16.2-14.59,28.17-28,35.65-.72.41-2.43,1.48-2.3,2.5s1.84.26,2.3,0c12.2-6.8,24.19-16.48,29.82-29.63a36.14,36.14,0,0,0,2.76-11c.1-1.07-1.94-.19-2.29,0-.87.47-2.19,1.39-2.29,2.49Z"/><path d="M522.78,352.32a195.77,195.77,0,0,0,78,1.29,192.42,192.42,0,0,0,21.69-5.38c1.4-.43-1.77-4.59-3.14-4.16a194.81,194.81,0,0,1-77.23,7.69,190.2,190.2,0,0,1-21.73-3.52c-1.15-.25-.65,1.09-.33,1.62a5.23,5.23,0,0,0,2.76,2.46Z"/><path d="M613.06,314.83a97.15,97.15,0,0,0,38.14,27.32c7.59,3.1,15.29,5.9,21.94,10.82a78.2,78.2,0,0,1,15.93,16.56,178.25,178.25,0,0,1,22.42,41.36,293.22,293.22,0,0,1,13.17,45.21c3.34,15.54,5.83,31.24,8.17,46.95l.87,5.86c.27,1.86,5.5,2.89,5.19.77-2.33-15.78-4.71-31.56-7.87-47.2a317.42,317.42,0,0,0-12.5-46,190.72,190.72,0,0,0-21.32-42.44,103.51,103.51,0,0,0-15-17.91,69.91,69.91,0,0,0-20.89-13c-7.52-3.15-15.12-5.95-22.11-10.21a88.62,88.62,0,0,1-18.11-14.63c-1.33-1.39-2.61-2.84-3.84-4.32a4.15,4.15,0,0,0-3.65-1.09c-1.16.27-1.29,1.09-.58,1.93Z"/><path d="M205.6,971.5c34.11,13.41,67.79,27.87,101.68,41.81,33.61,13.81,67.45,27.12,102,38.3,35.1,11.35,71,20.45,107.47,26a530.62,530.62,0,0,0,118.06,4.61c44.9-3.32,89.22-12.38,132.18-25.76,18.62-5.8,38.07-11.43,53.53-23.86,11.49-9.23,19.72-21.86,22.6-36.39,3.32-16.75-.32-33.94-6.23-49.67a217.9,217.9,0,0,0-32.09-56.64,231.45,231.45,0,0,0-48.19-46.08c-19.87-14.24-40.78-27.4-61.76-39.95a474.6,474.6,0,0,0-254.72-66.68q-15.72.5-31.37,2.16c-1.32.13,1.86,4,3.55,3.83,43.55-4.6,87.75-2.16,130.72,6a467.72,467.72,0,0,1,123.94,42c21.2,10.77,41.25,23.53,61.2,36.43,19.64,12.7,39.29,25.46,55.85,42.15a221.2,221.2,0,0,1,38.86,53.06c8.8,16.82,16.47,35.51,17.1,54.74.49,14.75-3.62,29.21-12.87,40.84-10.39,13.05-25.44,21.23-40.95,26.66-42.89,15-87.32,25.93-132.49,31.15a526.86,526.86,0,0,1-118.55.22c-36.34-4-72.16-11.86-107.22-22.2-34.28-10.12-67.82-22.59-101-35.89S261.21,991,228.24,977.6q-12.23-5-24.49-9.81c-1.15-.45-1.25.41-1.05,1.24.27,1.12,1.92,2.08,2.9,2.47Z"/><path d="M597.42,902.94C545.89,886.3,490.78,883,437,886.21a753.41,753.41,0,0,0-82.43,9.7q-10.14,1.74-20.23,3.71c-6.39,1.24-13.2,3.56-19.76,2.92a33.32,33.32,0,0,1-17.95-7.62c-4.75-4.06-8.11-9.45-12.43-13.93-15.94-16.54-40.47-24.07-63-20.39-13.33,2.18-25.21,8.22-36.74,15C174,881.65,164,888.51,156.31,898c-8.51,10.49-14.82,22.53-22.91,33.32-8.45,11.27-19.33,20.06-30.17,28.91-9.89,8.07-19.7,16.4-27.3,26.75a62.52,62.52,0,0,0-8.62,16c-2,5.52-3.4,12.36.54,17.38,3.51,4.48,9.67,6.82,14.85,8.74a78,78,0,0,0,18.58,4.28,102.42,102.42,0,0,0,37.52-3.27A137.63,137.63,0,0,0,175,1014c11.76-7.23,22.56-15.92,33.92-23.73,5.85-4,11.68-8.09,17.2-12.56.69-.56,1.29-1.39.25-1.86s-2.81.49-3.54,1.08c-10.72,8.67-22.54,15.84-33.52,24.16-10.79,8.17-22.24,15.57-34.69,21-22.79,9.89-50.34,12.79-73.34,1.87-5.69-2.7-10.93-6.25-10.89-13.22,0-6,2.79-12.17,5.68-17.34,6.08-10.88,15.25-19.65,24.7-27.6,9.92-8.34,20.4-16.1,29.32-25.55s15.62-20.85,22.85-31.71a103.27,103.27,0,0,1,12.14-15.64,82.39,82.39,0,0,1,13.75-11C189.39,875,200.74,868.28,213,865c22.38-6.09,47.57.62,64.43,16.44,4.29,4,7.63,8.86,11.61,13.16a34.94,34.94,0,0,0,14.65,9.33,32.55,32.55,0,0,0,17.14,1c6.38-1.3,12.75-2.58,19.14-3.78a785.9,785.9,0,0,1,80-10.92c51.89-4.22,105-2.8,155.63,10.37q9.09,2.37,18,5.26c1.44.47,5.88-2.25,3.8-2.92Z"/><path d="M730.8,755a22,22,0,0,0,5.86,10.57A85,85,0,0,0,748.21,775c9.27,6.23,20.13,9.25,30.84,11.94,12.18,3,24.31,6.22,36.3,10,12.3,3.85,24.42,8.29,36.42,13s24.05,9.72,36,14.68c11.16,4.61,22.37,9.08,33.29,14.24,21.14,10,41.7,21.74,60,36.4,16.09,12.93,29,31,33.16,51.48a61.77,61.77,0,0,1-1.09,29.75A70.36,70.36,0,0,1,998.79,982,119.2,119.2,0,0,1,976,1002a190.75,190.75,0,0,1-24,14.29c-14.06,7-29.16,11.9-44.23,16.17a412.18,412.18,0,0,1-55.5,11.79c-17.11,2.39-34.65,3.88-51.9,2.19a101.24,101.24,0,0,1-10.27-1.51c-1.66-.33-5.51,3.23-3.11,3.72,16.18,3.25,33.18,2.53,49.51.93a395,395,0,0,0,57.1-10.16,336.76,336.76,0,0,0,49.43-16A181.14,181.14,0,0,0,964,1012.82a174.93,174.93,0,0,0,26.2-18.34c15.47-13.3,28-30.81,29.84-51.64s-7.14-41.26-20.33-56.87c-7.08-8.37-15.59-15.25-24.48-21.62a294.65,294.65,0,0,0-30.47-19c-21.68-11.85-44.65-20.84-67.46-30.22-24.18-10-48.54-19.31-73.76-26.35q-9.07-2.53-18.24-4.79c-5.49-1.36-11-2.7-16.35-4.5a71.67,71.67,0,0,1-15.37-7A82.17,82.17,0,0,1,741.63,763a21,21,0,0,1-6.12-10.34c-.54-2-5.16.6-4.71,2.29Z"/><path d="M760.57,670.68c3.89,15.34,7.72,30.7,10.88,46.2,2.71,13.29,4.79,26.68,6.52,40.12,1.23,9.58,2.31,19.18,3.36,28.79a5.34,5.34,0,0,0,1.91,3.16c.43.37,1.81,1.17,1.68,0-1.73-15.83-3.52-31.66-6-47.39-2.14-13.52-4.87-26.92-8-40.25-2.21-9.49-4.57-18.94-7-28.39a5.48,5.48,0,0,0-2.28-3c-.88-.53-1.39-.17-1.14.84Z"/><path d="M247,970.55a81.33,81.33,0,0,1,30.88-44.06,84.15,84.15,0,0,1,13.58-7.92c2.46-1.14-1-5.27-3.15-4.25a85.83,85.83,0,0,0-40.14,38.75,78.19,78.19,0,0,0-5.68,14.72,3,3,0,0,0,1.55,3.21c.81.49,2.6.84,3-.45Z"/><path d="M725.34,751.27c-19,12.53-42.1,15.53-64.35,16.09-6.83.17-13.67.13-20.51.09-3.2,0-3.83,4.93-.34,4.95,23.67.13,48.13.21,70.57-8.36a86.22,86.22,0,0,0,17-8.59,2.61,2.61,0,0,0,1.17-3.41,2.58,2.58,0,0,0-3.52-.77Z"/><path d="M872.66,377.12a195.43,195.43,0,0,1,33.86.92c5.64.65,11.26,1.55,16.82,2.68a83.51,83.51,0,0,1,13.81,3.79,29,29,0,0,1,11.06,7.1,39.44,39.44,0,0,0,3.82,3.72l.52.45s.21.25.41.52a11.94,11.94,0,0,1,1.55,2.74,10.89,10.89,0,0,1-2.61,12.13c-3.14,3-7.35,4.69-11.4,6.08-20.32,7-42.15,8.05-63.44,6.8q-8.05-.48-16.07-1.36c-4.67-.5-9.45-.8-13.92-2.32a35.12,35.12,0,0,1-11.34-6.27c-2.48-2.11-4.66-4.66-5.35-7.92s.56-5.78,2.38-8.36a45.52,45.52,0,0,1,8.46-8.8c7.72-6.27,17.15-8.93,26.79-10.65,2.59-.46,5.19-.86,7.79-1.25,1.17-.18-1.45-4.6-2.81-4.39-10.5,1.59-21.91,3.17-31,9.07a49.36,49.36,0,0,0-10.08,8.72c-2.14,2.43-4.69,5.51-5.24,8.82-.63,3.8,1.37,8,3.44,11a36,36,0,0,0,10.38,10,39.34,39.34,0,0,0,12.85,5.39c5.25,1.14,10.8,1.44,16.14,1.93,22.6,2.08,45.76,2.05,67.77-4.11,8-2.23,21.21-5.61,21.67-15.92.24-5.17-2.52-10.34-6-14.05-1-1.08-2.25-1.88-3.25-3a43.49,43.49,0,0,0-5.85-5.5c-8.19-6.11-18.88-8.08-28.72-9.8a194.21,194.21,0,0,0-36.42-2.91c-3,0-5.9.16-8.85.33-1.06.07,1.37,4.48,2.81,4.39Z"/><path d="M952.93,444.07c-.52,7.19-1.19,14.37-2.42,21.48a87.7,87.7,0,0,1-5.67,20.39,36.35,36.35,0,0,1-8.72,12.46,20.36,20.36,0,0,1-3.72,2.75,49.45,49.45,0,0,1-5.64,2.82c-5.08,2.24-10,2.75-15.71,3.5-1.07.14-2.54,1-2.36,2.26s1.94,1.52,3,1.39c5.15-.67,10.35-1.18,15.23-3.08a46.76,46.76,0,0,0,11.84-6.35c9.83-7.66,13.91-20.34,16.33-32.08a197.45,197.45,0,0,0,3.16-25.42c.1-1.28-1.05-1.9-2.22-1.94-1,0-3,.54-3.06,1.82Z"/><path d="M825.78,430.17q-1,.93,2.4-.61l1.21.54a3.73,3.73,0,0,0,.62.82c-.13-.26.09.12,0,.1.13,0,0,.39,0,0a2.45,2.45,0,0,0,0-.27c0-.56,0-1.11,0-1.67,0-1.86.12-3.72.19-5.58.25-6.08.42-12.16.35-18.24,0-3-5.41-2.8-5.38.22.08,7-.19,14-.46,21a31.91,31.91,0,0,0,0,4.79,3,3,0,0,0,1,2.2,3.17,3.17,0,0,0,4-.22c2.43-2.41-1.82-5.19-3.93-3.09Z"/><path d="M955.79,416c5.27-9.6,13.72-18.92,24.87-21.27a27.41,27.41,0,0,1,10.86.31,39.71,39.71,0,0,1,8.93,2.65,13.83,13.83,0,0,1,6.5,5.73,29.69,29.69,0,0,1,2.83,9c2.46,12.72,2.43,27.07-3.83,38.76-4.86,9.1-13.9,16.89-24.74,16.55-12-.37-23.15-10.07-24.69-22-.25-1.92-5,.44-4.77,2.15,1.52,11.81,11.66,21.31,23.29,23.11,12.73,2,25.16-5.85,32.35-15.86,8.33-11.61,9.83-26.8,7.88-40.61-.94-6.61-2.07-14.39-7.91-18.54a26.38,26.38,0,0,0-8.7-3.6,41.69,41.69,0,0,0-11.85-1.63c-7.57.21-14.89,3.86-20.76,8.44a56,56,0,0,0-14.44,17.25c-.51.92-.16,1.61.94,1.53a4.67,4.67,0,0,0,3.24-2Z"/><path d="M974.8,426.23c2.13-4.89,5.82-10.12,11.25-11.44a9.82,9.82,0,0,1,8.55,1.83c2.85,2.43,3.7,6.95,3.86,10.5.3,6.95-1.67,15.86-8.4,19.37a8.72,8.72,0,0,1-8.34.11,15.71,15.71,0,0,1-6.31-7.65,27.56,27.56,0,0,1-1.07-2.92c-.15-.52-.55-1.78-.56-2a16.07,16.07,0,0,1,.34-2.48l.81-5.89c.38-2.75-4.94-2.13-5.28.36l-.84,6.13c-.1.75-.29,1.54-.32,2.29,0,1.89,1,4.18,1.72,5.88,1.65,3.83,4.14,7.48,7.87,9.54a14.86,14.86,0,0,0,12.74.58c8.76-3.43,12.83-13,12.95-21.93.06-4.53-.64-9.74-3.57-13.4-2.77-3.45-7.24-4.77-11.53-4.66-8.9.24-15.53,7.38-18.88,15C968.57,428.33,973.81,428.48,974.8,426.23Z"/><path d="M561.47,276.35c12,10.79,32.42,10.63,44.61.18.87-.74,1.33-2,.27-2.79a3.29,3.29,0,0,0-3.74.25c-10.4,8.92-27,8.39-37.13-.7-1.8-1.61-6.29,1-4,3.06Z"/><path d="M782.3,512.3a99.14,99.14,0,0,0,30,40.25,104,104,0,0,0,12.17,8.35c2.68,1.58,5.81-2.15,2.79-3.92a95.53,95.53,0,0,1-33.82-33.73,88.53,88.53,0,0,1-6-12.08,2.83,2.83,0,0,0-3.28-1.67c-1.15.25-2.46,1.49-1.93,2.8Z"/><path d="M297.57,1008.11c-21.22-4.83-43.18-.12-63.28,7.09-10.25,3.68-20.24,8-30.32,12.13-9.57,3.9-19.54,8.31-30,9.17-9.37.77-19.54-1.93-25.13-10-1.25-1.82-6.3-.59-4.63,1.84,5.18,7.49,14.44,11.06,23.24,11.73,10.67.82,21.1-2.61,30.93-6.39,20.39-7.85,40.22-17.82,61.83-22,11.86-2.31,24.08-2.8,35.92-.11,1.07.25,2.86-.11,3.3-1.27s-.94-1.94-1.9-2.16Z"/><path d="M488.24,176.16a187.13,187.13,0,0,0,28.9-10,299.87,299.87,0,0,0,30.74-15.26,192.44,192.44,0,0,0,25.26-16.72c7.13-5.73,13.53-12.38,19.87-19q7.08-7.33,14-14.88l-2.72.26A210.66,210.66,0,0,0,655,154.41c5.71,4.27,11.6,8.3,17.61,12.15a2.21,2.21,0,0,0,2.51-.46c.46-.42.42-1.45.49-2,.16-1.38.31-2.76.46-4.14.32-3.06.64-6.12.87-9.18.32-4.17-.6-8.38-1.49-12.44-1.25-5.67-2.2-11.41-3.62-17-5.19-20.61-19.55-37-36.7-48.94-7.15-5-17.68-11.23-26.42-6.48l2.11.19C605,59,595.54,56,586.91,54.32a110.71,110.71,0,0,0-30.56-1.73c-20.28,1.65-40.53,8.78-56.92,20.94a65.78,65.78,0,0,0-12.86,12.36,75.61,75.61,0,0,0-9,15.17c-.71,1.56,2.42,1.47,3,.29,4.24-9.3,10-17.66,18-24.18a98.59,98.59,0,0,1,25.46-14.81,108.54,108.54,0,0,1,57.14-6.72c9.45,1.45,20.5,4,26.87,11.76a1.85,1.85,0,0,0,2.11.18c3.34-1.82,7.14-1.23,10.6,0a48.23,48.23,0,0,1,11.14,5.92,101.78,101.78,0,0,1,20.63,18.05c6.88,8.09,12.47,17.33,15.45,27.56,1.54,5.28,2.38,10.69,3.54,16.05,1,4.72,2.58,9.72,2.45,14.6-.08,2.95-.48,5.93-.79,8.87-.16,1.58-.33,3.17-.51,4.75-.06.56-.12,1.13-.2,1.69a2.4,2.4,0,0,0-.07.52c.05.35-.44.35.23-.27l2.51-.45c-20.7-13.25-39.75-28.88-55.24-48.06a210.07,210.07,0,0,1-12.7-17.53c-.56-.85-2.19-.33-2.72.26-3.73,4.1-7.51,8.13-11.33,12.14-6.22,6.53-12.48,13.14-19.32,19a165.37,165.37,0,0,1-24.06,16.68,293.78,293.78,0,0,1-29.75,15.28,191.4,191.4,0,0,1-32.21,11.54c-.58.14-1.49.69-1.29,1.41s1.26.72,1.82.59Z"/><path d="M471.44,160.06a69.46,69.46,0,0,1,8.94,9.21,31.44,31.44,0,0,1,5.27,11.57,44.84,44.84,0,0,1-3.4,30.53,41.37,41.37,0,0,1-8.83,12.7,29,29,0,0,1-11.17,6.27,39.2,39.2,0,0,1-24.53-.49,28.37,28.37,0,0,1-11.35-7.4c-3.35-3.69-5.62-8.58-7.31-13.24-.43-1.18-3.53-.29-3.12.84a44.27,44.27,0,0,0,6.6,12.56,28.51,28.51,0,0,0,10.28,7.82A42.58,42.58,0,0,0,459.2,233a38,38,0,0,0,12.12-4.74,34.46,34.46,0,0,0,11.06-11.53,51.46,51.46,0,0,0,6.43-14.83,47.64,47.64,0,0,0,1-16.53,37.2,37.2,0,0,0-5.18-15.42c-2.72-4.28-6.55-7.72-10.26-11.12-.87-.8-3.81.41-2.89,1.26Z"/><path d="M435.6,163.74c8.55,5.26,19.48,5.11,28.65,1.63a33.7,33.7,0,0,0,12.48-8.18A26.38,26.38,0,0,0,483,145c2.23-9.41,1.2-19.79-1.72-28.93a42.72,42.72,0,0,0-6.61-13,28.67,28.67,0,0,0-14.29-10.07c-12.69-4-26.59-.15-36.32,8.67-.49.45-.32.92.29,1.08a2.72,2.72,0,0,0,2.21-.59c8.06-7.3,18.94-10.73,29.64-8.12a27.22,27.22,0,0,1,14.17,8.52,38.86,38.86,0,0,1,7.08,12.22,57.09,57.09,0,0,1,3.2,26.28,31.2,31.2,0,0,1-3.77,12.06,25.56,25.56,0,0,1-9.88,9.14c-8.82,4.86-20.18,5.29-28.87-.06-.85-.53-3.73.72-2.49,1.49Z"/><path d="M372.27,137.23c-2-4.35-4.42-8.73-4.92-13.56a26.8,26.8,0,0,1,1.76-12.41,29.77,29.77,0,0,1,16-16,22,22,0,0,1,13.63-1.49c4.74,1.07,9.2,3.39,13.41,5.75,7.82,4.39,15.45,10.47,19.33,18.77S436.59,137.34,433,146c-.28.68,1,.78,1.37.74a2,2,0,0,0,1.76-1.1c3.43-8.31,2.54-18.45-.8-26.65-3.63-8.93-11.2-15.54-19.36-20.34a59.21,59.21,0,0,0-14.1-6.41,25.65,25.65,0,0,0-14,.14,34.19,34.19,0,0,0-20.09,15.44,27.93,27.93,0,0,0-3.67,13.94c0,6,2.65,11,5,16.27.52,1.14,3.59.19,3.12-.84Z"/><path d="M417.74,207.22a42.47,42.47,0,0,1-25,6.37,35.43,35.43,0,0,1-20.91-9,32.92,32.92,0,0,1-10.79-20.37c-1.19-9.17,1.08-18.47,4.4-27s8-17.1,15.92-22.19c.55-.36.32-.65-.2-.75a3.43,3.43,0,0,0-2.21.59c-7.35,4.75-12.14,12.35-15.53,20.26-3.74,8.74-6.44,18.42-5.69,28,1.33,17.25,15.84,30.32,32.78,31.71,10.36.85,20.78-2.22,29.6-7.54.58-.35.32-.66-.2-.76a3.55,3.55,0,0,0-2.2.6Z"/><path d="M487,175.29a219.81,219.81,0,0,0,117.6-73.81,317.47,317.47,0,0,0,47.68,51.61c6.51,5.63,14.23,11.74,23.45,13l.37-2.93c-8.43-1.11-15.75-6.93-21.95-12.29a314.11,314.11,0,0,1-48.32-52.61l-1.1-1.51-1.18,1.45a216.86,216.86,0,0,1-117.78,74.38"/><path d="M479.21,160.85c55.91-6.12,105.43-40.28,126.46-87.36L603,72.27c-20.61,46.14-69.22,79.63-124.12,85.64l-1.54.16.28,3Z"/><path d="M486.85,135.53c48.94-5.36,91.4-33.79,111-74.41l-2.59-1.3c-19.34,40-61.51,68.13-109.91,72.9l.29,2.94Z"/><path d="M483.84,121c4.34-1.12,8.05-2,11.32-2.85,18.26-4.53,22.6-5.61,44.63-18.15,16-9.14,39.63-32.77,42.78-42.85l-2.76-.9c-2.93,9.39-26.16,32.47-41.43,41.16-21.69,12.36-26,13.41-43.91,17.87-3.27.81-7,1.73-11.34,2.86Z"/><path d="M493.42,101.75c8-.88,15.88-4,23-7,18.93-8.19,39.52-19.28,48.72-39.38l-2.62-1.26C553.69,73.27,533.67,84,515.25,92c-10.11,4.38-21.83,8.83-33,6.32l-.62,2.89A35.56,35.56,0,0,0,493.42,101.75Z"/><path d="M489.93,89c8.72-1.11,18.89-2.88,28.18-7.57,9.84-5,17.11-12.65,20.46-21.58l-2.7-1.06c-3.09,8.24-9.86,15.34-19,20-8.9,4.5-18.76,6.21-27.24,7.29Z"/><path d="M501.8,77.22a34.49,34.49,0,0,0,16.31-12l-2.31-1.78a31.54,31.54,0,0,1-14.92,11Z"/><path d="M674.12,144.34l.74-2.85c-12.57-3.43-24.74-11-36.17-22.47-9.77-9.8-17.8-21.07-26.84-35l-2.41,1.64c9.14,14,17.27,25.45,27.22,35.44C648.45,133,661.05,140.78,674.12,144.34Z"/><path d="M667,117.39c-6.1-1.38-12.41-2.81-18.13-6a57.82,57.82,0,0,1-12.47-10A159.75,159.75,0,0,1,612,70l2.47-1.53a157.62,157.62,0,0,0,24,30.86,55.17,55.17,0,0,0,11.83,9.51c5.11,2.84,10.9,4.22,16.6,5.51h0a1.7,1.7,0,0,1,2.14,0l1,.94-.47,1.07a1.91,1.91,0,0,1-1.57,1.11A2.88,2.88,0,0,1,667,117.39Zm-.17-1.32a1.22,1.22,0,0,0,.42.6l.46-1Zm1-.52,1.2-.62Z"/><path d="M659.74,101.29l.51-2.91c-6-1.1-12.2-4.5-17.88-9.82-5-4.66-9-10-13.7-16.57l-2.34,1.75c3.79,5.25,8.49,11.77,14.08,17C646.59,96.52,653.09,100.07,659.74,101.29Z"/><path d="M455.78,165.67a11.57,11.57,0,0,1-.65,8.89,12.76,12.76,0,0,1-7.15,6.69,14.09,14.09,0,0,1-10.47-.84l-1.18,2.69a17.78,17.78,0,0,0,9.39,1.66,15.06,15.06,0,0,0,3.18-.7,15.6,15.6,0,0,0,8.84-8.21,14.58,14.58,0,0,0,.76-11.19Z"/><path d="M428.82,197.81c4.6,1.88,9.85,1.58,14.86.95,12.19-1.49,19.67-5.46,22.85-12.13,2.31-4.85,2-10.67,1.37-15.71a31.29,31.29,0,0,0-1.71-7.49l2.6-1.32a33.75,33.75,0,0,1,2,8.44c.67,5.48,1,11.82-1.64,17.37-3.64,7.65-11.86,12.16-25.1,13.78l-1.25.14c-5,.55-10.22.67-15-1.28Zm-11.66-16a1,1,0,0,0-1,.77"/><path d="M421.69,206.44c9.75,7.42,22.56,8.3,30.14,8,1.59-.06,3.1-.16,4.55-.32,7.37-.81,13.09-3,17.39-6.57,5.41-4.52,8-10.75,9.15-15.17a39.22,39.22,0,0,0-.88-22.9l-2.72,1a36.17,36.17,0,0,1,.8,21.13,26.74,26.74,0,0,1-8.19,13.66c-4.63,3.87-11.24,5.9-20.19,6.21-7.1.25-19-.54-28.06-7.26Z"/><path d="M431.85,146.65c1-5.52-.35-11.24-3.75-15-4.32-4.79-12.09-5.58-16.32-1.66l-2-2.2c5.43-5,15-4.15,20.41,1.87,4.23,4.69,5.81,11.89,4.25,18.62Z"/><path d="M438.86,164c8.22-9.78,12.19-22.11,10.64-33-1.81-12.63-11.53-23-22.7-24l-.3,2.94c9.93.94,18.51,10.17,20.13,21.5,1.44,10.05-2.29,21.5-10,30.63Z"/><path d="M453.56,166.24c6.81-4.86,8.25-14.25,8.26-21.28,0-10.61-2.4-20.43-7-28.39-5.2-9-13.28-15.58-22.18-18-2.45-.67-3.41.55-3.72,1.11l2.53,1.44c-.19.21,0,.19.44.3,8.17,2.25,15.62,8.33,20.43,16.68,4.33,7.51,6.61,16.8,6.59,26.89,0,6.32-1.24,14.72-7,18.86Z"/><path d="M468.25,160a44.55,44.55,0,0,0,4.91-39.45c-4.7-12.86-16.05-23.13-28.91-26.17l-.66,2.87c12,2.83,22.49,12.38,26.86,24.33a41.42,41.42,0,0,1-4.57,36.72Z"/><path d="M406.39,127.62c5.52-6.79,15.47-11.23,23.76-9l.73-2.86c-9.35-2.46-23.46,2.58-27.76,11.9h3.27"/><path d="M384.35,129.65a42.6,42.6,0,0,1,4-10.42c6.25-11.44,18-18.22,29.21-16.88l-.34,2.94c-9.9-1.19-20.74,5.13-26.34,15.38a38.63,38.63,0,0,0-3.35,8.42Z"/><path d="M374.69,137l5.1-2.93-1.43-2.58-.95.55c-.3-10.32.24-20.69,6.23-27.68,5.76-6.72,14.82-8,19.69-8.21l-.11-3c-9.25.36-17,3.63-21.76,9.23-7.16,8.35-7.31,20.46-6.86,32.16Z"/><path d="M390.16,171.23c-4.65-7.44-4.07-18.12,1.42-26.58,4.25-6.54,11-11.79,20.76-16l1.14,2.71c-9.18,4-15.56,8.91-19.49,15a25,25,0,0,0-2.88,6.13,25.31,25.31,0,0,1,9.09.16c3.39.81,7.46,3.27,8.69,7.71a14,14,0,0,1,.32,4.92c-.4,4.73-2.71,10.7-7.9,11.91a7.38,7.38,0,0,1-.92.16C396.22,177.73,392.3,174.67,390.16,171.23Zm.19-15.74a20.11,20.11,0,0,0,2.25,14.15c1.75,2.82,4.95,5.33,8.06,4.59,3.44-.8,5.32-5.24,5.66-9.28a11,11,0,0,0-.21-3.86c-.74-2.65-3.32-4.86-6.58-5.65a21.21,21.21,0,0,0-7.25-.19C391.64,155.32,391,155.4,390.35,155.49Z"/><path d="M404.52,188.55a22.19,22.19,0,0,0,2.86-.51,17.45,17.45,0,0,0,11.32-8.73,24.61,24.61,0,0,0,2.23-8.31,56.41,56.41,0,0,0-9.12-37.7L409.43,135a53.38,53.38,0,0,1,8.63,35.65,21.86,21.86,0,0,1-1.93,7.3,14.72,14.72,0,0,1-9.46,7.23,22.83,22.83,0,0,1-12.36-.7c-3.81-1.2-9.1-3.68-12.62-8.7-4.08-5.84-5-14.26-2.39-22.52,2.51-8,7.67-14.75,12.39-20.29L389.51,131c-4.92,5.76-10.3,12.8-13,21.33-2.86,9.15-1.82,18.54,2.8,25.13,4,5.7,9.88,8.48,14.12,9.82A27.1,27.1,0,0,0,404.52,188.55Z"/><path d="M399.18,206.26a23.41,23.41,0,0,0,5.43-1.25,35.2,35.2,0,0,0,9.06-5.18c7-5.21,11.49-11,13.44-17.26,2.31-7.36,1.14-15.22-.25-22.63-1.64-8.73-3.85-18.71-9.42-26.7L415.08,135c5.23,7.51,7.36,17.12,8.94,25.54,1.32,7,2.44,14.48.34,21.18-1.77,5.63-5.94,10.94-12.4,15.78a32.26,32.26,0,0,1-8.32,4.77c-8.22,3-18.29.46-25.08-6.28-6.36-6.32-9.89-16.06-9.44-26.07.42-9.05,4-18.46,10.15-26.5L377,141.56c-6.49,8.51-10.31,18.51-10.75,28.17-.49,10.84,3.36,21.43,10.31,28.33A28.36,28.36,0,0,0,399.18,206.26Z"/><path d="M474.93,225.3l8.26-7-.36-.44c5.43-9.55,7.88-20.17,6.91-30.07-1.14-11.64-7-22-15.8-27.81l-1.57,2.48c7.9,5.21,13.46,15,14.49,25.62.95,9.72-1.63,20.21-7.27,29.54Z"/><path d="M482.63,147.94c-2.42,6.12-5.25,10.2-8.89,12.81-3.85,2.76-8.61,3.77-12.43,4.57-2.93.61-5.9,1.18-8.87,1.51-5.39.59-10.74.37-15.63-1.9a2.14,2.14,0,0,1-1.38-2.43,1.6,1.6,0,0,1,1.64-1.26l1.41,1.21c6.68,2.88,14.34,1.63,22.24,0,4.53-1,8.25-1.86,11.35-4.09s5.67-5.93,7.87-11.51Zm-46.74,15.22a1.16,1.16,0,0,0,1.07,1l-.11-1.2Zm1.29-.22h0Z"/><path d="M417.76,211a49.8,49.8,0,0,0,21.18-42.09c-.64-17-10.87-32.75-25.47-39.28C398.55,123,380,127,369.36,139.11l2.16,2c9.83-11.24,27-14.91,40.79-8.73,13.6,6.08,23.14,20.82,23.74,36.69a46.75,46.75,0,0,1-19.9,39.51Z"/></g><g id="matitas"><path class="cls-3" d="M547.24,1102.24c-4.7,13.3-2.17,22,1.71,28.54a43.23,43.23,0,0,0,13.68,14c4.58,3,8.5,4.58,12.68,5.1s8.62-.05,16.18-1.82,18.23-4.77,28.73-5.74,20.81.08,30.88,1.75,19.91,4,26.28,4.83a36.13,36.13,0,0,0,13.24-.4c4-.67,8.92-1.42,12.35-2.9s5.33-3.69,5.7-5.4-.78-3-1.73-5-1.69-4.76-3-8.44-3.07-8.27-2.91-13.16,2.26-10.08,4.41-11.62c4.14,5.44,7.85,8.19,10.24,10.62a16.52,16.52,0,0,1,4.22,6.77,17.91,17.91,0,0,1,1,7.4c-.24,2.76-1.16,5.87,1.51,14.6,54.56,8.36,96.29,10.07,124.47,7.34s42.84-9.93,53-14.9,15.77-7.73,18-9.89,1.19-3.7.11-4.37-2.15-.47-4.88-4a106.48,106.48,0,0,1-10.39-18.08,123.85,123.85,0,0,1-6.81-19.66c-1.42-5.42-2.13-9.2-1.62-11.3s2.27-2.52,4.65-1.64a18.76,18.76,0,0,1,7.45,5.7c2.06,2.64,3.14,5.73,6.32,12.55a233.45,233.45,0,0,1,14.41,37.34c34.85-11.2,51.6-16.58,67.18-27.21s30-26.51,40.77-39.65,18-23.54,19-37.09-4-30.23-13.6-44.82-23.54-27.07-39.24-33.48-33.09-6.75-50.84-5.23-35.83,4.92-54.61,9.23-38.26,9.57-52.33,12.18A143.68,143.68,0,0,1,814.16,957c-6.61,0-11.15,0-14.81.95s-6.42,2.69-7.84,5.88-1.5,7.83.37,13.41,5.7,12.14,8.94,17.21,5.9,8.62,9.92,14.58,9.42,14.31,10.39,15.59c-9.22,3-19.91-6.53-27-14.1s-10.51-13.25-12-17.86-1.16-8.16-1.34-11.85A40.33,40.33,0,0,0,779,970.67c-.86-2.57-1.85-3.87-5.79-2.61s-10.82,5.1-18.94,8.52a121.66,121.66,0,0,1-24.92,7.69c-7.45,1.26-13,.77-17.22,1.22s-7.07,1.84-7.73,5.7.9,10.22,3.27,15.53,5.55,9.59,9.08,14.78,7.4,11.29,9.74,15.09,3.12,5.28,2.34,5.8-3.13.08-5.45-1.18a48.38,48.38,0,0,1-7.35-5.63,55.62,55.62,0,0,1-9.87-10.12A156.28,156.28,0,0,1,694.65,1007a62.7,62.7,0,0,1-3.92-9c-.76-1.85-1.79-3.46-4.4-.91s-6.8,9.28-10.29,16.1-6.25,13.72-9.41,18.18-6.71,6.45-12,8.23-12.33,3.32-20.9,6.14a194.43,194.43,0,0,0-27.9,11.74c-9.2,4.8-17.5,10.3-28.87,18.51S551.13,1095.12,547.24,1102.24Z"/><path class="cls-4" d="M581,1108.31c-5.62,0-11.53-.19-17.77-.57l0-.52c52.23,3.14,75-7.89,96.94-18.56l5.71-2.78c21.68-10.54,44.1-21.45,67-28.81,24.9-8,50.41-11.79,89-17.52l.18,0c38.49-5.71,91.2-13.52,222.65-60.68l.18.49c-131.5,47.18-184.25,55-222.76,60.71l-.17,0c-38.6,5.72-64.1,9.51-89,17.5-22.87,7.35-45.27,18.25-66.94,28.79l-5.71,2.77c-10.62,5.15-22.65,11-38,14.72C610.08,1106.84,596.64,1108.31,581,1108.31Z"/><path class="cls-5" d="M896.93,1136.58a.53.53,0,0,1-.45-.25l-18.25-29.2c-9.57-15.3-20.41-32.65-37.25-42.25-12.85-7.33-28.36-9.48-42.05-11.39a.52.52,0,0,1-.45-.59.55.55,0,0,1,.6-.45c13.78,1.92,29.4,4.09,42.42,11.51,17.07,9.74,28,27.21,37.62,42.62l18.25,29.19a.53.53,0,0,1-.44.81Z"/><path class="cls-5" d="M854.31,1072.66a.52.52,0,0,1-.47-.29c-3.43-6.92-7.3-14.77-7.51-23.13a42.82,42.82,0,0,1,2.32-13.85c4.15-13.45,11.3-25.78,18.21-37.7a.52.52,0,0,1,.71-.19.53.53,0,0,1,.19.72c-6.88,11.87-14,24.15-18.11,37.48a41.6,41.6,0,0,0-2.27,13.51c.2,8.13,4,15.87,7.4,22.69a.54.54,0,0,1-.24.71A.68.68,0,0,1,854.31,1072.66Z"/><path class="cls-6" d="M874.37,977.18c2.69-1.39,6.59-2.37,8.26.16a25.39,25.39,0,0,1-2.69,7.81c-1.45,2.36-3.88,4.29-6.64,4.4a27.63,27.63,0,0,1,4.78,6.44c1,2,1.39,5.12-.75,5.71a3.69,3.69,0,0,1-1.94-.16,19.61,19.61,0,0,1-11-8.37,13.85,13.85,0,0,1-15.84,6.54,15.67,15.67,0,0,1,8.83-10.86c-3.4-4.17-6.21-9.56-4.85-14.77a1.9,1.9,0,0,1,.83-1.31,2.07,2.07,0,0,1,1.28,0,21.4,21.4,0,0,1,7.22,2.38C868.31,979.06,866.49,981.28,874.37,977.18Z"/><path class="cls-7" d="M876.73,1002.3a5.42,5.42,0,0,1-1.49-.26,20.15,20.15,0,0,1-10.87-7.87,14.35,14.35,0,0,1-16,6l-.46-.14.1-.47a16.25,16.25,0,0,1,8.53-10.94c-3-3.77-6-9.23-4.54-14.71a2.39,2.39,0,0,1,1.11-1.65,2.54,2.54,0,0,1,1.61-.08,22.08,22.08,0,0,1,7.4,2.45,33.17,33.17,0,0,1,3.76,2.69c2.39,1.93,2.76,2.23,8.28-.64h0c3.14-1.63,7.13-2.4,8.94.32l.12.19-.05.22a26.23,26.23,0,0,1-2.75,8,9.47,9.47,0,0,1-6,4.53,27.63,27.63,0,0,1,4.15,5.8,6.38,6.38,0,0,1,.59,5,2.5,2.5,0,0,1-1.67,1.47A3.06,3.06,0,0,1,876.73,1002.3ZM864.3,992.12l.48.77a19.09,19.09,0,0,0,10.76,8.14,3.11,3.11,0,0,0,1.66.16,1.39,1.39,0,0,0,1-.86,5.36,5.36,0,0,0-.55-4.09,27.14,27.14,0,0,0-4.7-6.32l-.84-.85,1.2,0a8.11,8.11,0,0,0,6.21-4.16,24.15,24.15,0,0,0,2.58-7.42c-1.5-1.93-4.92-1.12-7.46.2h0c-5.92,3.08-6.7,2.72-9.42.53a31.14,31.14,0,0,0-3.65-2.61,21,21,0,0,0-7-2.32,1.6,1.6,0,0,0-1,0c-.23.11-.41.42-.55,1-1.39,5.31,1.82,10.71,4.75,14.3l.44.53-.63.28a15.15,15.15,0,0,0-8.43,10,13.42,13.42,0,0,0,14.75-6.41Z"/><path class="cls-6" d="M808,1042.52c2.69-1.39,6.59-2.37,8.26.15a25.62,25.62,0,0,1-2.69,7.82c-1.45,2.36-3.88,4.29-6.64,4.4a27.92,27.92,0,0,1,4.78,6.44c1,2,1.39,5.12-.75,5.71a3.69,3.69,0,0,1-1.94-.16,19.66,19.66,0,0,1-11.06-8.37,13.83,13.83,0,0,1-15.83,6.54,15.64,15.64,0,0,1,8.83-10.86c-3.4-4.17-6.21-9.56-4.85-14.77a1.9,1.9,0,0,1,.83-1.31,2.07,2.07,0,0,1,1.28,0,21.4,21.4,0,0,1,7.22,2.38C801.93,1044.4,800.11,1046.62,808,1042.52Z"/><path class="cls-7" d="M810.35,1067.64a5.36,5.36,0,0,1-1.49-.26,20.26,20.26,0,0,1-10.88-7.87,14.33,14.33,0,0,1-16,6l-.46-.14.1-.47a16.23,16.23,0,0,1,8.53-10.94c-3-3.78-6-9.23-4.54-14.71a2.41,2.41,0,0,1,1.11-1.65,2.48,2.48,0,0,1,1.6-.08,22.05,22.05,0,0,1,7.41,2.45,33.17,33.17,0,0,1,3.76,2.69c2.39,1.93,2.76,2.23,8.28-.64,3.13-1.63,7.13-2.41,8.94.32l.12.19,0,.22a25.85,25.85,0,0,1-2.75,8,9.47,9.47,0,0,1-6,4.53,27.74,27.74,0,0,1,4.15,5.8,6.38,6.38,0,0,1,.59,5,2.47,2.47,0,0,1-1.67,1.46A2.64,2.64,0,0,1,810.35,1067.64Zm-12.43-10.18.48.77a19.1,19.1,0,0,0,10.75,8.14,3.14,3.14,0,0,0,1.67.16,1.39,1.39,0,0,0,1-.86,5.36,5.36,0,0,0-.55-4.09,27.14,27.14,0,0,0-4.7-6.32l-.84-.85,1.19,0a8.11,8.11,0,0,0,6.22-4.16,24.15,24.15,0,0,0,2.58-7.42c-1.5-1.93-4.92-1.12-7.46.2h0c-5.92,3.08-6.7,2.72-9.42.53a31.14,31.14,0,0,0-3.65-2.61,21.18,21.18,0,0,0-7-2.32,1.7,1.7,0,0,0-1,0c-.24.12-.41.43-.55,1-1.39,5.31,1.82,10.7,4.75,14.3l.44.53-.63.28a15.11,15.11,0,0,0-8.43,10,13.44,13.44,0,0,0,14.75-6.41Z"/></g></g></svg>