<svg width="865" height="986" viewBox="0 0 865 986" fill="none" xmlns="http://www.w3.org/2000/svg">
<path d="M432.47 897.69C671.002 897.69 864.37 704.321 864.37 465.79C864.37 227.258 671.002 33.8896 432.47 33.8896C193.938 33.8896 0.569824 227.258 0.569824 465.79C0.569824 704.321 193.938 897.69 432.47 897.69Z" fill="#F6C651"/>
<path d="M416.18 531.49C402.3 522.18 389.49 522.03 380.51 522.05C371.53 522.07 366.38 522.28 361.7 523.05C357.02 523.82 352.8 525.15 347.52 526.46C342.24 527.77 335.91 529.06 325.15 532.33C330.41 532.68 335.87 531.61 341.76 530.56C347.663 529.435 353.621 528.621 359.61 528.12C364.819 527.813 370.046 527.96 375.23 528.56C380.136 528.995 384.994 529.858 389.75 531.14C393.628 532.307 397.344 533.956 400.81 536.05C403.92 537.88 406.57 539.76 409.3 540.74C411.792 541.746 414.578 541.746 417.07 540.74C419.29 539.74 420.91 537.58 416.27 531.52C416.254 531.523 416.237 531.522 416.221 531.516C416.205 531.511 416.191 531.502 416.18 531.49V531.49Z" fill="black"/>
<path d="M473.21 545.47C480.55 544.28 490.21 545.96 498.12 547.57C505.162 548.819 512.075 550.714 518.77 553.23C525.18 555.78 531.77 559.35 550.37 575.42C532.37 566.89 521.12 561.42 513.26 558.94C505.4 556.46 500.92 556.94 495.89 556.74C490.86 556.54 485.31 555.78 473.21 545.47Z" fill="black"/>
<path d="M426.25 418.17C390.2 413.49 354.91 428.17 324.64 446.41C311.36 454.41 298.36 463.52 288.35 475.51C283.394 481.332 279.455 487.948 276.7 495.08C273.57 503.44 272.7 512.52 268.98 520.67C262.04 535.79 247.49 545.8 233.88 554.44C219 563.86 203.34 572.27 190.1 584C178.37 594.37 168.49 607.89 165.16 623.41C163.547 630.844 163.743 638.557 165.73 645.9C167.648 652.42 170.365 658.677 173.82 664.53C180.59 676.53 189.3 687.85 193.66 701.09C195.775 707.186 196.429 713.694 195.57 720.09C194.34 728.34 190.33 735.94 189.45 744.26C188.954 748.059 189.602 751.92 191.31 755.35C191.96 756.6 196.58 755.11 196.23 754.44C192.38 746.98 194.98 738.73 197.34 731.25C199.54 724.25 201.44 717.34 200.7 709.93C199.37 696.62 191.65 684.93 184.81 673.8C177.81 662.39 170.34 650.32 169.14 636.64C167.74 620.64 175.14 605.41 185.2 593.48C196.12 580.54 210.68 571.48 224.97 562.7C238.97 554.15 253.78 545.78 264.88 533.49C270.362 527.495 274.372 520.305 276.59 512.49C278.9 504.36 280.37 496.15 284.22 488.54C291.12 474.91 302.67 464.34 314.97 455.61C328.904 445.723 343.864 437.368 359.59 430.69C375.59 423.92 392.65 419.17 410.11 419.13C414.41 419.131 418.705 419.408 422.97 419.96C424.168 420.112 425.384 419.888 426.45 419.32C427.21 418.87 427.22 418.32 426.25 418.24V418.17Z" fill="black"/>
<path d="M446.65 426C475.21 428.24 503.84 433.13 530.56 443.76C553.96 453.07 575.76 466.97 592.71 485.76C601.948 495.888 609.476 507.453 615 520C615.41 521 620.06 519.63 620 519.41C610.16 496.73 593.25 477.73 573.24 463.41C551.02 447.52 525.09 437.67 498.54 431.83C482.567 428.437 466.378 426.155 450.09 425C448.904 424.908 447.711 425.051 446.58 425.42C445.8 425.68 445.72 425.98 446.65 426.05V426Z" fill="black"/>
<path d="M434.61 428.92C444.951 441.221 458.083 450.872 472.91 457.07C480.371 460.116 488.145 462.333 496.09 463.68C504.21 465.13 512.44 466.09 520.45 468.09C528.12 470.01 535.53 473.09 541.6 478.27C547.67 483.45 552.09 489.78 556.35 496.27C560.61 502.76 564.81 509.55 569.97 515.51C575.236 521.51 581.179 526.879 587.68 531.51C600.73 540.96 615.35 547.96 630.01 554.51L635.55 556.98C636.134 557.157 636.754 557.173 637.346 557.025C637.938 556.877 638.478 556.571 638.91 556.14C639.59 555.48 639.97 554.3 638.91 553.82C624.25 547.31 609.46 540.71 596.08 531.82C589.453 527.479 583.302 522.452 577.73 516.82C572.366 511.062 567.58 504.792 563.44 498.1C559.21 491.59 555.01 484.96 549.64 479.31C544.163 473.602 537.397 469.292 529.91 466.74C514.53 461.38 497.91 461.52 482.46 456.26C467.344 451.098 453.707 442.344 442.72 430.75C441.34 429.29 440.007 427.79 438.72 426.25C437.45 424.74 433.1 427.11 434.62 428.92H434.61Z" fill="black"/>
<path d="M431.71 435.91C439 450.56 452.89 460.26 467.3 467.13C482.84 474.55 499.51 479.13 515.18 486.3C523.11 489.767 530.593 494.175 537.47 499.43C544.47 504.9 549.99 511.65 554.89 518.98C559.97 526.59 564.54 534.54 570.17 541.78C575.525 548.67 582.039 554.575 589.42 559.23C604.04 568.49 621.1 573.11 637.91 576.46C640.07 576.887 642.237 577.3 644.41 577.7C644.713 577.735 645.021 577.707 645.313 577.619C645.606 577.531 645.877 577.384 646.111 577.187C646.345 576.991 646.537 576.749 646.674 576.476C646.811 576.203 646.891 575.905 646.91 575.6C646.91 574.16 645.69 573.4 644.45 573.17C628.04 570.17 611.27 566.29 596.52 558.17C589.143 554.195 582.517 548.964 576.94 542.71C571.07 536.03 566.53 528.33 561.75 520.88C556.97 513.43 551.75 506 545.14 500C538.687 494.226 531.49 489.342 523.74 485.48C508.34 477.6 491.74 472.85 475.83 466.1C461.83 460.1 447.45 452.1 438.94 439.1C437.859 437.461 436.877 435.758 436 434C434.7 431.39 430.25 433.1 431.67 436L431.71 435.91Z" fill="black"/>
<path d="M428.15 429.52C395.27 430.04 363.53 443.1 336.79 461.67C324.37 470.29 312.79 480.53 304.34 493.2C300.267 499.568 296.938 506.383 294.42 513.51C291.78 520.51 289.34 527.77 285.42 534.25C281.18 541.25 275.15 546.25 268.16 550.4C261.84 554.18 255.35 557.58 249.57 562.17C239.261 570.518 230.954 581.07 225.26 593.05C219.506 605.182 215.932 618.23 214.7 631.6C214.022 638.476 213.908 645.396 214.36 652.29C215.018 660.025 216.184 667.708 217.85 675.29C219.57 683.92 221.25 692.72 220.55 701.55C219.84 710.61 216.06 718.87 212.9 727.26C205.214 747.405 204.163 769.477 209.9 790.26C210.09 790.96 212.99 790.19 212.8 789.48C208.245 772.859 208.004 755.351 212.1 738.61C214.15 730.27 217.72 722.53 220.49 714.43C223.259 706.368 224.202 697.791 223.25 689.32C222.33 680.52 220.08 671.95 218.66 663.23C217.581 656.618 217.039 649.93 217.04 643.23C216.983 629.656 219.235 616.17 223.7 603.35C227.968 590.888 234.802 579.459 243.76 569.8C248.385 564.911 253.614 560.63 259.32 557.06C265.82 553.01 272.81 549.7 278.79 544.85C290.55 535.33 294.09 520.55 299.62 507.17C305.47 492.99 315.15 481.17 326.76 471.24C339.084 460.888 352.722 452.209 367.32 445.43C382.32 438.33 398.5 433.26 415.07 431.48C419.07 431.05 422.99 430.82 426.97 430.76C427.8 430.76 430.11 429.48 428.2 429.51L428.15 429.52Z" fill="black"/>
<path d="M419.06 442.11C400.76 445.03 383.59 452.11 366.7 459.47C358.97 462.83 351.03 466.06 344.47 471.47C339.594 475.594 335.444 480.505 332.19 486C317.91 509.41 316.09 539.57 295.13 558.92C282.93 570.17 267.37 576.92 255.13 588.16C249.48 593.34 244.39 599.46 241.39 606.58C238.474 613.476 237.775 621.109 239.39 628.42C242.85 644.42 254.39 657.2 260.56 672.11C264.02 680.131 265.767 688.785 265.69 697.52C265.468 706.123 262.827 714.489 258.07 721.66C253.51 728.66 247.75 734.84 243.39 742C239.208 749 236.224 756.648 234.56 764.63C231.07 780.75 232.14 797.56 234.37 813.78C234.93 817.88 235.59 821.96 236.28 826.04C236.48 827.24 239.39 826.52 239.18 825.27C236.39 808.85 234.18 792.07 235.79 775.41C236.471 767.364 238.313 759.458 241.26 751.94C244.41 744.18 249.13 737.55 254.21 730.94C259.16 724.51 264.02 717.94 266.51 710.13C268.864 702.201 269.276 693.822 267.71 685.7C266.165 677.699 263.352 669.995 259.38 662.88C255.53 655.73 251.07 648.88 247.46 641.64C243.99 634.64 241.23 627 241.46 619.07C241.69 611.14 244.72 604.07 249.32 597.8C259.09 584.61 273.98 577.15 287.1 567.89C293.53 563.35 299.65 558.27 304.5 552.03C308.43 546.866 311.746 541.262 314.38 535.33C319.98 523.11 323.6 510.11 328.98 497.8C334.49 485.21 342.14 473.8 354.51 467.18C362.36 462.97 370.8 459.66 379.02 456.25C387.581 452.588 396.369 449.482 405.33 446.95C409.747 445.727 414.227 444.743 418.75 444C419.3 443.91 420.33 443.61 420.37 442.91C420.41 442.21 419.62 442 419.06 442.09V442.11Z" fill="black"/>
<path d="M423.49 455.45C408.8 458.237 394.541 462.944 381.08 469.45C374.491 472.645 368.118 476.266 362 480.29C356.2 484.09 350.5 488.29 347.37 494.63C344.37 500.84 343.52 507.8 341.86 514.45C340.177 521.1 337.811 527.557 334.8 533.72C328.8 546.15 320.46 557.36 311.24 567.61C306.56 572.81 301.63 577.79 296.57 582.61C291.51 587.43 286.33 591.85 281.34 596.61C276.35 601.37 271.84 606.46 269.16 612.74C266.33 619.38 265.92 626.68 266.91 633.74C269 648.9 277.2 662 282.33 676.16C285.096 683.379 286.493 691.05 286.45 698.78C286.128 706.773 284.629 714.675 282 722.23C277.51 735.83 269.34 750.23 275.49 764.63C279.93 775.06 289.54 782.92 292.55 793.99C293.271 796.593 293.448 799.316 293.07 801.99C292.89 803.23 295.82 802.75 295.97 801.67C297.59 790.31 289.12 781.18 283.24 772.44C279.93 767.52 277.02 762.23 276.31 756.24C275.4 748.6 277.88 741 280.49 733.93C283.21 726.55 286.09 719.29 287.73 711.58C289.45 704.061 289.789 696.291 288.73 688.65C286.49 673.92 278.37 661.11 273.43 647.26C270.9 640.19 269.06 632.68 269.31 625.13C269.509 617.885 271.986 610.887 276.39 605.13C280.55 599.6 285.91 595.13 291.01 590.47C296.11 585.81 301.01 581.26 305.77 576.47C315.31 566.79 324.24 556.37 331.43 544.79C338.445 533.484 343.415 521.03 346.11 508C347.58 501.08 349.23 493.93 354.27 488.66C359.31 483.39 365.94 479.66 372.11 476.15C385.004 468.742 398.839 463.108 413.24 459.4C416.77 458.49 420.34 457.7 423.92 457.02C425.72 456.68 425.26 455.07 423.49 455.41V455.45Z" fill="black"/>
<path d="M286.36 599.28C281.64 625.28 292.57 650.58 303.96 673.28C314.96 695.28 327.47 717.829 328.23 743.049C328.62 755.809 325.95 768.709 318.74 779.409C318.33 780.009 319.1 780.469 319.6 780.539C319.964 780.582 320.334 780.523 320.667 780.37C321 780.216 321.285 779.974 321.49 779.669C334.67 760.119 332.81 734.539 325.49 713.189C317.03 688.599 301.94 666.9 293.72 642.19C289.1 628.3 286.66 613.509 289.3 598.979C289.55 597.609 286.6 597.979 286.38 599.229L286.36 599.28Z" fill="black"/>
<path d="M430.25 448.31C435.85 462.68 446.01 474.56 458.25 483.72C470.9 493.17 485.55 499.82 500.56 504.56C508.28 507 516.31 508.48 523.92 511.24C527.837 512.565 531.502 514.543 534.76 517.09C538.134 520.005 540.825 523.627 542.64 527.7C544.64 531.79 546.14 536.07 547.86 540.26C549.58 544.45 551.45 548.81 553.44 552.99C557.242 561.312 562.008 569.159 567.64 576.37C578.22 589.5 593.94 599.89 611.25 600.15C613.369 600.183 615.488 600.066 617.59 599.8C618.16 599.73 619.13 599.4 619.2 598.7C619.27 598 618.43 597.8 617.89 597.86C600.72 600.05 584.1 590.77 572.95 578.27C566.973 571.378 561.929 563.729 557.95 555.52C553.87 547.41 550.65 538.95 547.16 530.58C545.647 526.592 543.573 522.841 541 519.44C538.373 516.295 535.121 513.73 531.45 511.91C524.19 508.19 516.1 506.71 508.32 504.53C493.32 500.36 478.76 494.39 465.77 485.82C453.14 477.48 442.01 466.43 435.38 452.69C434.56 451 433.82 449.28 433.14 447.53C432.67 446.33 429.79 447.16 430.24 448.31H430.25Z" fill="black"/>
<path d="M426.19 463.339C436.068 482.893 451.704 498.947 470.99 509.339C480.455 514.486 490.654 518.152 501.23 520.209C506.73 521.279 512.65 521.429 517.79 523.859C522.93 526.289 525.58 531.139 525.95 536.649C526.32 542.159 524.95 547.809 523.95 553.269C522.883 558.603 522.697 564.076 523.4 569.469C524.244 575.107 526.144 580.535 529 585.469C530.361 587.842 531.941 590.081 533.72 592.159C535.55 594.299 537.72 596.089 539.67 598.079C541.62 600.069 543.44 602.719 542.85 605.779C542.26 608.839 539.98 611.239 537.5 612.899C532.66 616.129 527.27 617.899 524.05 623.099C521.31 627.499 520.53 632.899 520.81 637.999C521.14 643.999 522.53 649.939 523.66 655.789C525.87 667.179 528.37 678.789 527.57 690.449C527.184 696.471 525.795 702.386 523.46 707.949C520.753 714.076 517.235 719.811 513 724.999C508.94 730.179 504.55 735.079 500.27 740.079C496.43 744.559 492.84 749.239 488.69 753.459C480.28 761.929 470.6 769.035 460 774.519C449.72 779.889 438.4 783.849 426.76 784.579C414.76 785.339 402.85 781.939 392.37 776.209C369.84 763.859 355.24 742.049 342.59 720.419C335.74 708.709 328.98 696.939 322.48 685.019C315.87 672.869 309.34 660.489 304.29 647.599C301.9 641.748 300.254 635.62 299.39 629.359C298.82 624.498 298.63 619.6 298.82 614.709C299.067 603.92 300.941 593.229 304.38 582.999C305.832 578.582 307.849 574.37 310.38 570.469C310.99 569.559 308.16 569.929 307.73 570.579C302.06 578.989 299.25 589.169 297.57 599.059C295.714 609.313 295.356 619.783 296.51 630.139C298.16 643.479 304.33 655.909 310.22 667.819C316.48 680.499 323.41 692.819 330.43 705.119C343.28 727.559 355.93 751.639 376.34 768.249C385.58 775.769 396.34 781.709 408.05 784.429C419.29 787.039 430.79 786.209 441.84 783.089C453.318 779.743 464.179 774.559 474 767.739C478.843 764.415 483.436 760.738 487.74 756.739C491.963 752.701 495.915 748.389 499.57 743.829C507.95 733.719 517.57 724.239 523.91 712.629C529.72 701.979 531.37 690.089 530.34 678.109C529.28 665.929 526.09 654.109 524.34 641.979C523.51 636.389 523.34 630.629 525.64 625.319C526.747 622.606 528.559 620.237 530.89 618.459C533.46 616.539 536.45 615.299 539.15 613.599C543.56 610.819 548 605.479 544.94 600.139C543.59 597.769 541.4 596.079 539.46 594.239C537.399 592.272 535.543 590.101 533.92 587.759C527.199 577.97 524.592 565.932 526.66 554.239C528.26 544.689 532.51 531.239 523.08 524.289C518.61 520.979 512.77 520.399 507.44 519.589C501.8 518.728 496.243 517.39 490.83 515.589C469.546 508.49 451.015 494.913 437.83 476.759C434.565 472.242 431.678 467.462 429.2 462.469C428.8 461.649 426 462.629 426.3 463.249L426.19 463.339Z" fill="black"/>
<path d="M541.93 572.789L556.4 597.189L563.64 609.389C565.9 613.199 568.25 616.969 570.3 620.899C574.07 628.169 576.3 636.199 572.88 644.059C569.95 650.839 564.26 656.059 559.11 661.129C553.78 666.419 548.48 672.589 546.75 680.129C545.869 683.65 546.149 687.361 547.55 690.709C549.16 694.369 551.99 697.339 553.4 701.109C554.682 704.576 555.04 708.317 554.438 711.964C553.837 715.61 552.297 719.038 549.97 721.909C546.04 726.659 539.81 730.419 537.97 736.619C535.9 743.729 541.62 749.249 545.87 754.089C551.126 759.913 554.206 767.374 554.59 775.209C554.674 777.215 554.57 779.224 554.28 781.209C554.15 782.069 557.03 781.549 557.15 780.759C558.287 772.996 556.674 765.079 552.59 758.379C550.571 755.402 548.31 752.596 545.83 749.989C543.57 747.389 541.3 744.529 540.63 741.059C539.25 734.059 545.48 729.159 549.89 724.759C552.397 722.452 554.434 719.681 555.89 716.599C557.288 713.304 557.872 709.719 557.59 706.149C557.238 702.338 555.92 698.679 553.76 695.519C551.6 692.169 549.51 688.959 549.21 684.869C548.65 677.029 553.69 669.689 558.75 664.189C563.81 658.689 569.55 654.039 573.58 647.759C575.55 644.809 576.854 641.465 577.4 637.959C577.853 633.991 577.345 629.971 575.92 626.239C574.368 622.251 572.449 618.414 570.19 614.779L563 602.619L548.38 577.999L544.83 571.999C544.35 571.199 541.62 572.249 541.93 572.779V572.789Z" fill="black"/>
<path d="M592.73 606.46C600.73 615.1 603.49 627.019 602.65 638.539C602.167 644.629 600.821 650.619 598.65 656.33C596.46 662.21 593.24 667.46 590.14 672.89C587.04 678.32 584.26 684.46 584.82 691.02C585.27 696.21 587.44 701.07 589.82 705.64C594.28 714.2 601.7 724.06 599.16 734.28C597.44 741.2 591.45 745.48 587.88 751.33C585 756.05 583.65 763.5 588.6 767.33C589.23 767.81 591.76 766.67 591.33 766.33C586.72 762.73 587.88 755.85 590.4 751.33C593.4 745.9 598.75 742.049 601.19 736.219C605.35 726.219 598.96 716.22 594.31 707.76C591.75 703.08 589.21 698.24 588.14 692.979C586.87 686.74 588.51 680.84 591.38 675.28C594.38 669.5 598.07 664.18 600.57 658.15C602.822 652.765 604.368 647.111 605.17 641.33C606.89 628.56 604.42 615.08 595.46 605.4C594.97 604.87 592.28 605.9 592.73 606.4V606.46Z" fill="black"/>
<path d="M624.46 610.32C627.73 619.51 631.07 628.89 631.87 638.68C632.213 643.516 631.876 648.377 630.87 653.12C629.87 657.9 628.51 662.57 627.42 667.32C625.366 676.972 623.982 686.756 623.28 696.6C622.709 701.41 622.901 706.28 623.85 711.03C624.85 715.48 626.85 719.6 628.55 723.83C632.516 733.786 632.852 744.82 629.5 755C628.95 756.61 631.85 756.65 632.28 755.37C635.307 746.454 635.583 736.834 633.07 727.76C631.78 723.21 629.65 718.99 628.07 714.55C626.448 709.951 625.745 705.079 626 700.21C626.19 695.27 626.86 690.34 627.43 685.43C628 680.52 628.68 675.54 629.64 670.65C631.54 661.01 635.12 651.65 634.96 641.71C634.78 630.57 631.05 619.92 627.36 609.54C626.87 608.18 623.98 608.98 624.46 610.32Z" fill="black"/>
<path d="M452.41 644.62C449.023 652.001 443.434 658.152 436.41 662.23C435.32 662.86 435.31 660.23 435.35 659.74C435.46 658.58 435.76 656.66 436.91 656C440.002 654.226 442.807 651.994 445.23 649.38C446.388 648.132 447.445 646.795 448.39 645.38C448.89 644.64 449.39 643.88 449.81 643.11C450.02 642.74 450.22 642.36 450.42 641.99C450.82 641.25 450.21 642.43 450.58 641.68L450.91 640.99C451.22 640.33 452.17 638.85 452.75 640.16C453.175 641.625 453.044 643.196 452.38 644.57L452.41 644.62Z" fill="black"/>
<path d="M398 641.28C401.214 648.726 406.657 654.994 413.58 659.22C414.66 659.87 414.73 657.22 414.69 656.76C414.61 655.59 414.35 653.66 413.22 652.98C410.162 651.148 407.404 648.858 405.04 646.19C403.911 644.941 402.885 643.603 401.97 642.19C401.48 641.44 401.02 640.67 400.6 639.89C400.39 639.51 400.2 639.13 400.01 638.75C399.63 638.01 400.2 639.2 399.86 638.45C399.75 638.22 399.64 637.98 399.54 637.75C399.24 637.07 398.32 635.58 397.72 636.87C397.261 638.33 397.361 639.909 398 641.3V641.28Z" fill="black"/>
<path d="M469.62 703.14C464.547 703.271 459.621 701.428 455.88 698C454.7 696.93 453.53 695.82 452.35 694.71C447.71 690.31 442.91 685.77 437.13 683.11C433.857 681.697 430.3 681.063 426.74 681.26C424.571 681.722 422.434 682.319 420.34 683.05C416.53 684.24 416.5 684.23 416.22 684.05C412.1 681.47 406.48 680.79 400.78 682.2C395.32 683.55 390.4 686.53 386.29 689.28L385.29 689.97C382.17 692.07 378.94 694.25 375.23 695.2C371.17 696.2 363.89 695.46 361.23 691.83L362.04 691.24C364.38 694.48 371.24 695.17 374.94 694.24C378.64 693.31 381.64 691.24 384.69 689.15L385.69 688.46C389.86 685.67 394.89 682.63 400.49 681.24C406.38 679.78 412.23 680.47 416.56 683.13C417.04 683.03 418.56 682.54 419.99 682.13C422.165 681.345 424.398 680.733 426.67 680.3C430.386 680.118 434.094 680.803 437.5 682.3C443.42 685.02 448.29 689.62 452.99 694.07C454.16 695.18 455.33 696.29 456.51 697.35C458.402 699.077 460.627 700.4 463.048 701.238C465.469 702.075 468.035 702.409 470.59 702.22V703.22L469.62 703.14Z" fill="black"/>
<path d="M420.48 718.51C418.527 718.51 416.573 718.443 414.62 718.31C392.01 716.8 376.54 705.61 363.19 693.75L363.85 693.01C377.07 704.75 392.38 715.82 414.69 717.32C433.433 718.67 452.083 713.645 467.61 703.06L468.18 703.88C454.136 713.49 437.497 718.594 420.48 718.51V718.51Z" fill="black"/>
<path d="M462.06 704.9C458.14 704.909 454.272 704.009 450.76 702.27C449.7 701.75 448.66 701.14 447.66 700.55C445.799 699.331 443.78 698.372 441.66 697.7C437.66 696.6 433.54 697.62 429.23 698.7C426.271 699.567 423.22 700.081 420.14 700.23C416.05 700.23 412.14 698.95 408.27 697.69C405.722 696.778 403.112 696.053 400.46 695.52C396.325 694.969 392.142 694.891 387.99 695.29L368.33 696.41L368.28 695.41L388 694.29C392.229 693.884 396.49 693.967 400.7 694.54C403.417 695.077 406.09 695.812 408.7 696.74C412.39 697.97 416.22 699.23 420.11 699.23H420.24C423.242 699.08 426.216 698.576 429.1 697.73C433.34 696.66 437.74 695.56 442.04 696.73C444.24 697.442 446.333 698.451 448.26 699.73C449.26 700.31 450.26 700.91 451.26 701.42C456.492 703.993 462.469 704.617 468.12 703.18L468.37 704.18C466.306 704.689 464.185 704.931 462.06 704.9V704.9Z" fill="black"/>
<path d="M466.38 579.55C477.75 589.71 493.2 592.75 507.98 593.44C512.75 593.67 517.53 593.68 522.3 593.7C522.94 593.7 523.89 593.51 524.2 592.86C524.51 592.21 523.96 591.86 523.37 591.86C504.73 591.81 483.8 591.55 469.06 578.38C468.2 577.61 465.47 578.76 466.38 579.58V579.55Z" fill="black"/>
<path d="M343.83 566C349.07 570.74 356.83 571.4 363.48 572.49C371.19 573.74 379.1 574.43 386.79 572.67C390.724 571.801 394.457 570.192 397.79 567.93C398.29 567.58 398.52 566.93 397.97 566.52C397.64 566.36 397.272 566.294 396.907 566.329C396.542 566.365 396.193 566.5 395.9 566.72C388.66 571.72 379.59 572.26 371.11 571.39C366.51 570.92 361.94 570.11 357.41 569.25C353.54 568.51 349.49 567.47 346.5 564.76C345.59 563.93 342.85 565.11 343.83 566V566Z" fill="black"/>
<path d="M489.88 753.49C499.26 771.55 509.163 789.323 519.59 806.81L519.71 805.81C506.03 819.63 487.3 827.47 468.62 831.81C458.134 834.301 447.397 835.576 436.62 835.61C426.811 835.499 417.035 834.441 407.43 832.45C403.11 831.58 398.8 830.61 394.53 829.55C391.473 828.908 388.465 828.049 385.53 826.98L386.13 827.55C384.462 822.682 383.197 817.685 382.35 812.61C380.4 802.1 378.99 791.46 377.35 780.89L374.5 762.67C374.29 761.37 371.39 762.09 371.6 763.44L375.68 789.55C377.01 798.06 378.11 806.64 379.79 815.09C380.545 819.511 381.672 823.859 383.16 828.09C383.59 829.22 385.37 829.45 386.42 829.77C388.8 830.47 391.21 831.08 393.61 831.67C406.86 834.91 420.32 837.4 433.99 837.67C449.694 837.856 465.324 835.492 480.27 830.67C494.06 826.32 507.51 819.83 518.37 810.14C519.64 809.01 520.87 807.85 522.06 806.64C522.19 806.511 522.272 806.342 522.294 806.161C522.316 805.979 522.276 805.796 522.18 805.64C511.766 788.16 501.866 770.387 492.48 752.32C491.9 751.22 489.13 752.26 489.82 753.58L489.88 753.49Z" fill="black"/>
<path d="M523.18 807C541.92 820.8 566.65 820.08 588.62 823.7C614.9 828.02 640.36 836.42 665.62 844.48C689.26 852.01 713 860.33 733.88 874.01C751.804 885.933 767.31 901.141 779.58 918.83C792.005 936.646 801.461 956.358 807.58 977.2C808.34 979.773 809.053 982.353 809.72 984.94C810.04 986.21 812.94 985.44 812.61 984.17C807.27 963.105 798.626 943.019 787 924.66C775.533 906.483 760.842 890.555 743.65 877.66C723.9 863 700.92 853.73 677.74 846C665.4 841.9 652.97 838 640.52 834.26C627.71 830.37 614.8 826.73 601.68 823.98C589.68 821.45 577.52 820.12 565.35 818.54C554.11 817.08 542.61 815.09 532.46 809.8C530.019 808.511 527.679 807.04 525.46 805.4C524.46 804.69 521.91 806.06 523.21 807.02L523.18 807Z" fill="black"/>
<path d="M381.28 825.779C376.74 831.829 369.38 834.969 362.99 838.609C354.71 843.343 346.27 847.756 337.67 851.849C333.479 853.882 329.175 855.675 324.78 857.219C320.51 858.689 316.19 859.979 311.9 861.369C303.065 864.332 294.486 868.011 286.25 872.369C277.89 876.679 269.76 881.369 261.69 886.229C254.01 890.819 246.31 895.399 238.78 900.229C223.96 909.769 210.08 920.499 198.3 933.669C186.523 946.713 176.673 961.375 169.05 977.209C168.13 979.139 167.26 981.079 166.43 983.049C166.16 983.689 168.96 983.409 169.3 982.589C176.327 966.374 185.734 951.298 197.21 937.859C202.788 931.171 208.891 924.938 215.46 919.219C222.205 913.466 229.306 908.142 236.72 903.279C244.18 898.279 251.85 893.679 259.54 889.079C267.54 884.289 275.54 879.519 283.77 875.079C291.94 870.521 300.46 866.622 309.25 863.419C317.8 860.419 326.61 858.199 334.89 854.479C343.62 850.559 352.16 846.129 360.52 841.479C364 839.553 367.47 837.616 370.93 835.669C374.241 833.909 377.369 831.826 380.27 829.449C381.624 828.308 382.852 827.024 383.93 825.619C384.57 824.759 381.75 825.109 381.28 825.729V825.779Z" fill="black"/>
<path d="M212.06 920.379C212.72 920.379 213.66 920.199 213.96 919.529C214.26 918.859 213.72 918.439 213.11 918.439C212.5 918.439 211.52 918.619 211.22 919.289C210.92 919.959 211.45 920.379 212.06 920.379V920.379Z" fill="black"/>
<path d="M536 355.7C535.935 355.701 535.87 355.69 535.809 355.666C535.749 355.642 535.693 355.606 535.647 355.56C535.6 355.514 535.563 355.46 535.538 355.4C535.513 355.34 535.5 355.275 535.5 355.21C534.38 300.14 552.41 247.47 569.83 196.53C575.02 181.38 580.89 164.21 593.07 151.94C593.165 151.857 593.288 151.814 593.414 151.818C593.539 151.822 593.659 151.873 593.749 151.961C593.839 152.05 593.892 152.169 593.897 152.295C593.903 152.42 593.861 152.544 593.78 152.64C581.78 164.75 575.93 181.8 570.78 196.85C553.38 247.71 535.39 300.3 536.5 355.19C536.501 355.256 536.49 355.321 536.466 355.382C536.442 355.443 536.406 355.499 536.36 355.547C536.315 355.594 536.261 355.632 536.2 355.658C536.14 355.685 536.076 355.699 536.01 355.7H536Z" fill="#655422"/>
<path d="M744.84 196.85C711.48 204.69 699.52 208.32 685.42 210.42C671.32 212.52 655.07 213.1 640.62 214.89C626.17 216.68 613.52 219.71 604.06 223.81C594.6 227.91 588.32 233.07 579.16 242.72C570 252.37 557.94 266.49 551.41 276.07C544.88 285.65 543.86 290.69 540.41 296.12C536.96 301.55 531.16 307.39 523.89 317.8C513.889 331.912 506.754 347.85 502.89 364.71C497.89 386.23 496.54 414.29 497.27 430.82C498 447.35 500.8 452.32 508 460C524.5 461.71 545.54 441 564.19 421.71C582.84 402.42 599.09 384.71 616.31 367.32C633.53 349.93 651.73 332.77 664.75 318.14C675.989 305.75 685.524 291.914 693.1 277C700.59 262.55 707.73 245.78 713.7 231.51C719.67 217.24 724.5 205.41 744.84 196.85Z" fill="#655422"/>
<path d="M508.22 460.09L507.74 459.95C516.12 431.24 525.14 408.05 536.98 384.76C547.91 362.961 561.376 342.53 577.1 323.89C593.35 304.25 618.99 276.36 673.56 234.57L673.87 234.97C619.33 276.72 593.71 304.59 577.49 324.21C561.789 342.825 548.342 363.23 537.43 385C525.6 408.24 516.59 431.41 508.22 460.09Z" fill="white"/>
<path d="M303.84 47C307.26 55.71 312.04 60.49 316.28 70.25Z" fill="#F6ECFB"/>
<path d="M315.83 70.4799C314.009 66.4263 311.887 62.5153 309.48 58.7798C307.089 55.1223 305.047 51.2487 303.38 47.2098L304.31 46.8398C305.949 50.8255 307.958 54.6489 310.31 58.2598C312.737 62.0333 314.877 65.9845 316.71 70.0798L315.83 70.4799Z" fill="#B985D1"/>
<path d="M360 95.1196C360.57 96.481 361.031 97.8854 361.38 99.3197C362.44 103.89 362.11 109.32 360.91 115.52C359.71 121.72 357.62 128.52 358.11 135.89L355.71 139.81C346.64 135.27 342.56 130.28 338.91 125.97C335.26 121.66 332 118 330.43 115.22C328.86 112.44 328.81 110.38 327.91 108.01C326.687 105.096 324.824 102.495 322.46 100.4C321.279 99.3034 320.015 98.3004 318.68 97.3996C320.92 87.9396 318.92 84.9696 317.68 82.0396C316.515 78.9968 316 75.7435 316.17 72.4896C316.22 68.7696 316.71 64.2196 316.81 60.7396C316.91 57.2596 316.65 54.8396 317.03 53.3696C317.054 53.0672 317.153 52.7755 317.317 52.5202C317.481 52.2648 317.705 52.0538 317.97 51.9056C318.235 51.7574 318.532 51.6766 318.835 51.6703C319.139 51.664 319.439 51.7325 319.71 51.8696C320.99 52.3796 322.54 53.9296 324.66 55.8096C326.78 57.6896 329.45 59.8796 332.18 62.0196C334.914 64.039 337.525 66.2195 340 68.5497C342.282 70.8248 344.189 73.4473 345.65 76.3196C347.18 79.3196 348.41 82.6396 351 85.2196C353.59 87.7996 357.57 89.6296 360 95.1196Z" fill="#F6ECFB"/>
<path d="M355.91 140.46L355.5 140.25C346.58 135.79 342.5 130.93 338.83 126.64L337.03 124.52C334.452 121.697 332.111 118.667 330.03 115.46C329.193 113.958 328.583 112.341 328.22 110.66C328.019 109.824 327.772 108.999 327.48 108.19C326.282 105.351 324.464 102.815 322.16 100.77C320.997 99.6988 319.753 98.7192 318.44 97.8401L318.16 97.6501L318.24 97.3101C320.24 88.9801 318.87 85.8901 317.69 83.1701C317.55 82.8601 317.42 82.5601 317.3 82.2601C316.107 79.1543 315.579 75.8327 315.75 72.5101C315.75 70.4401 315.94 68.1201 316.1 65.8801C316.23 64.0401 316.35 62.3001 316.39 60.7501C316.39 59.4401 316.39 58.2801 316.39 57.2601C316.302 55.9231 316.372 54.5805 316.6 53.2601C316.672 52.8783 316.826 52.5165 317.05 52.1992C317.275 51.8818 317.564 51.6161 317.9 51.4201C318.221 51.2714 318.571 51.1943 318.925 51.1943C319.279 51.1943 319.628 51.2714 319.95 51.4201C321.432 52.2043 322.782 53.2166 323.95 54.4201L325.08 55.4201C327.08 57.1801 329.66 59.3201 332.58 61.6101L333.73 62.5001C336.079 64.2599 338.323 66.1565 340.45 68.1801C342.758 70.4989 344.694 73.1603 346.19 76.0701C346.53 76.7301 346.86 77.4201 347.19 78.0701C348.21 80.5435 349.648 82.8233 351.44 84.8101C352.192 85.5161 352.98 86.1836 353.8 86.8101C356.705 88.8355 359.021 91.5963 360.51 94.8101C361.095 96.196 361.567 97.6274 361.92 99.0901C362.92 103.4 362.77 108.77 361.45 115.5C361.19 116.82 360.9 118.17 360.59 119.5C359.46 124.66 358.28 129.99 358.66 135.7V136L355.91 140.46ZM319.25 97.2001C320.498 98.0479 321.684 98.9836 322.8 100C325.217 102.147 327.12 104.809 328.37 107.79C328.683 108.633 328.943 109.495 329.15 110.37C329.49 111.966 330.067 113.503 330.86 114.93C332.926 118.082 335.243 121.062 337.79 123.84L339.59 125.96C343.11 130.11 347.08 134.8 355.53 139.11L357.61 135.72C357.26 129.93 358.49 124.34 359.61 119.41C359.91 118.04 360.2 116.7 360.46 115.41C361.75 108.82 361.9 103.59 360.93 99.4101C360.588 98.0035 360.137 96.6259 359.58 95.2901C358.141 92.2366 355.927 89.613 353.16 87.6801C352.308 87.0297 351.493 86.3319 350.72 85.5901C348.845 83.5301 347.339 81.162 346.27 78.5901C345.94 77.9101 345.62 77.2401 345.27 76.5901C343.825 73.7699 341.949 71.1922 339.71 68.9501C337.614 66.9517 335.4 65.0816 333.08 63.3501L331.94 62.4501C329 60.1501 326.39 58.0001 324.39 56.2201L323.25 55.2201C322.172 54.1049 320.935 53.1547 319.58 52.4001C319.387 52.3119 319.177 52.2662 318.965 52.2662C318.752 52.2662 318.543 52.3119 318.35 52.4001C318.144 52.5332 317.968 52.7078 317.834 52.9127C317.7 53.1176 317.61 53.3483 317.57 53.5901C317.374 54.8231 317.313 56.0739 317.39 57.3201C317.39 58.3201 317.39 59.5201 317.39 60.8501C317.34 62.4201 317.22 64.1701 317.1 66.0201C316.94 68.2501 316.78 70.5601 316.75 72.6001C316.57 75.7867 317.074 78.9748 318.23 81.9501L318.61 82.8401C319.73 85.4601 321.18 88.8001 319.25 97.2001Z" fill="#B985D1"/>
<path d="M358.12 135.89C357.63 128.54 359.72 121.69 360.92 115.52C362.12 109.35 362.45 103.89 361.39 99.3196C360.33 94.7496 357.88 91.0796 356.78 87.4396C355.943 84.1759 355.716 80.7857 356.11 77.4396C356.3 74.6496 356.44 72.6596 358.18 69.7896C359.92 66.9196 363.27 63.1696 364.25 56.3096C367.67 60.7196 368.16 63.0496 369.51 65.1496C370.86 67.2496 373.06 69.1496 374.82 72.3096C376.861 76.4215 378.119 80.8773 378.53 85.4496C379.228 91.5341 379.117 97.6842 378.2 103.74C377.264 110.295 375.085 116.612 371.78 122.35C368.29 128.3 363.27 133.93 358.12 135.89Z" fill="#F6ECFB"/>
<path d="M357.67 136.6V135.92C357.28 130.07 358.52 124.43 359.62 119.45C359.92 118.08 360.21 116.74 360.47 115.45C361.76 108.86 361.91 103.63 360.94 99.4498C360.301 97.0118 359.413 94.646 358.29 92.3898C357.533 90.8423 356.881 89.2454 356.34 87.6098C355.475 84.2861 355.241 80.8298 355.65 77.4198C355.85 74.5698 355.98 72.5198 357.79 69.5398C358.12 68.9998 358.5 68.4298 358.91 67.8198C361.468 64.4262 363.145 60.4508 363.79 56.2498L363.96 55.0898L364.68 56.0198C366.309 58.0749 367.691 60.3135 368.8 62.6898C369.145 63.4463 369.536 64.1809 369.97 64.8898C370.56 65.7538 371.201 66.5819 371.89 67.3699C373.183 68.8205 374.325 70.3986 375.3 72.0798C377.343 76.2471 378.597 80.7563 379 85.3799C379.7 91.511 379.589 97.7077 378.67 103.81C377.729 110.428 375.526 116.803 372.18 122.59C368.18 129.42 362.98 134.59 358.27 136.36L357.67 136.6ZM364.55 57.5298C363.736 61.4484 362.081 65.1435 359.7 68.3598C359.3 68.9598 358.92 69.5098 358.61 70.0398C356.93 72.8098 356.8 74.6598 356.61 77.4698C356.214 80.7585 356.435 84.0919 357.26 87.2999C357.782 88.8915 358.413 90.4452 359.15 91.9498C360.308 94.2691 361.223 96.7021 361.88 99.2099C362.88 103.52 362.73 108.89 361.41 115.62C361.15 116.94 360.86 118.29 360.55 119.62C359.46 124.62 358.34 129.67 358.55 135.12C362.89 133.2 367.61 128.37 371.31 122.05C374.6 116.37 376.763 110.109 377.68 103.61C378.582 97.6135 378.689 91.5244 378 85.4998C377.6 80.9776 376.363 76.5691 374.35 72.4998C373.407 70.8775 372.305 69.3533 371.06 67.9498C370.34 67.1324 369.672 66.2707 369.06 65.3699C368.604 64.6286 368.193 63.8605 367.83 63.0698C366.918 61.1215 365.82 59.2662 364.55 57.5298V57.5298Z" fill="#B985D1"/>
<path d="M355.72 139.81C346.65 135.27 342.57 130.28 338.92 125.97C335.27 121.66 332 118 330.43 115.22C328.86 112.44 328.81 110.38 327.91 108.01C326.687 105.097 324.825 102.496 322.46 100.4C319.759 97.8702 316.594 95.887 313.14 94.5601C310.14 93.5601 307.85 93.8501 305.08 93.7501C302.317 93.6929 299.58 93.2002 296.97 92.2901C294.85 91.4301 293.84 90.2201 291.15 89.3901C288.46 88.5601 284.07 88.1101 281.65 91.7401C292.53 103.83 299.19 115.32 306.74 123.48C313.285 130.645 321.543 136.03 330.74 139.13C338.66 141.79 346.09 142.26 355.72 139.81Z" fill="#F6ECFB"/>
<path d="M344 141.91C339.434 141.887 334.903 141.109 330.59 139.61C321.319 136.487 312.997 131.052 306.41 123.82C302.628 119.539 299.086 115.052 295.8 110.38C291.288 104.031 286.451 97.9198 281.31 92.0697L281.05 91.7797L281.26 91.4597C284.08 87.2297 289.26 88.2697 291.33 88.9197C292.613 89.3239 293.834 89.9026 294.96 90.6397C295.667 91.1 296.414 91.4982 297.19 91.8297C299.745 92.7185 302.425 93.1977 305.13 93.2497H307C309.14 93.1434 311.283 93.4142 313.33 94.0497C316.854 95.4176 320.08 97.4552 322.83 100.05C325.247 102.196 327.15 104.858 328.4 107.84C328.713 108.683 328.973 109.544 329.18 110.42C329.52 112.016 330.097 113.553 330.89 114.98C332.956 118.132 335.273 121.111 337.82 123.89L339.62 126.01C343.19 130.22 347.24 135.01 355.97 139.37L357.17 139.97L355.87 140.3C351.997 141.335 348.009 141.876 344 141.91ZM282.29 91.6997C287.353 97.4863 292.123 103.524 296.58 109.79C299.844 114.428 303.359 118.885 307.11 123.14C313.582 130.249 321.759 135.591 330.87 138.66C338.412 141.289 346.561 141.637 354.3 139.66C346.2 135.37 342.3 130.76 338.83 126.66L337.03 124.54C334.452 121.716 332.111 118.686 330.03 115.48C329.193 113.978 328.583 112.36 328.22 110.68C328.019 109.843 327.772 109.019 327.48 108.21C326.282 105.37 324.465 102.835 322.16 100.79C319.507 98.2891 316.397 96.3232 313 94.9997C311.059 94.4026 309.028 94.1488 307 94.2497H305.09C302.268 94.1913 299.473 93.685 296.81 92.7497C295.985 92.4028 295.192 91.9846 294.44 91.4997C293.383 90.8039 292.235 90.2555 291.03 89.8697C289.18 89.3097 284.78 88.3997 282.29 91.6997Z" fill="#B985D1"/>
<path d="M318.68 97.4299C320.92 87.9699 318.92 85 317.68 82.07C316.687 79.551 316.178 76.8675 316.18 74.16C308.69 72.06 305.27 70.0099 303.45 69.5199C301.63 69.0299 301.4 70.0699 301.36 71.3799C301.32 72.6899 301.46 74.2499 301.51 76.3799C301.56 78.5099 301.51 81.0899 302.36 83.1699C303.21 85.2499 304.84 86.78 304.84 93.77H305.04C307.81 93.87 310.13 93.57 313.1 94.58C315.077 95.2809 316.953 96.2391 318.68 97.4299V97.4299Z" fill="#F6ECFB"/>
<path d="M319 98.2395L318.4 97.8395C316.727 96.6678 314.913 95.7135 313 94.9995C311.059 94.4024 309.028 94.1486 307 94.2495H305.09H304.41V93.7695C304.41 88.3095 303.41 86.2695 302.56 84.6295C302.34 84.1895 302.14 83.7795 301.96 83.3495C301.315 81.3106 301.024 79.1765 301.1 77.0395V76.3895C301.1 75.5795 301.05 74.8495 301.01 74.1795C301.01 73.1295 300.92 72.1795 300.95 71.3895C300.906 70.9939 300.952 70.5937 301.083 70.2181C301.215 69.8425 301.429 69.5013 301.71 69.2195C302.007 69.0376 302.343 68.9284 302.691 68.9006C303.038 68.8728 303.387 68.9272 303.71 69.0595C304.569 69.3423 305.41 69.6763 306.23 70.0595C309.539 71.5276 312.951 72.7508 316.44 73.7195L316.8 73.8195V74.1895C316.794 76.8361 317.293 79.4596 318.27 81.9195L318.65 82.8095C319.83 85.5395 321.3 88.9295 319.25 97.5795L319 98.2395ZM305.38 93.2395C305.92 93.2395 306.45 93.2395 306.97 93.2395C309.11 93.1332 311.253 93.404 313.3 94.0394C315.079 94.6832 316.777 95.5322 318.36 96.5695C320.1 88.7595 318.8 85.7795 317.65 83.1295C317.51 82.8195 317.38 82.5195 317.26 82.2195C316.283 79.761 315.765 77.1446 315.73 74.4995C312.315 73.539 308.973 72.3359 305.73 70.8995C304.953 70.5386 304.154 70.2247 303.34 69.9595C302.97 69.8595 302.48 69.7695 302.23 69.9595C301.98 70.1495 301.9 70.7795 301.88 71.3595C301.88 72.1395 301.88 73.0295 301.94 74.0595C301.94 74.7395 302.01 75.4795 302.03 76.2895V76.9495C301.951 78.9798 302.218 81.0088 302.82 82.9495C302.99 83.3595 303.18 83.7395 303.39 84.1595C304.27 85.8395 305.32 87.9195 305.38 93.2595V93.2395Z" fill="#B985D1"/>
<path d="M339.75 68.3002L340.04 68.5802C342.322 70.8553 344.229 73.4779 345.69 76.3502C347.22 79.3502 348.45 82.6702 351.04 85.2502C353.63 87.8302 357.57 89.6302 360.04 95.1202C358.91 92.3702 357.55 89.9002 356.81 87.4402C355.973 84.1765 355.746 80.7863 356.14 77.4402C356.33 74.6502 356.47 72.6602 358.21 69.7902C358.52 69.2702 358.89 68.7202 359.29 68.1302C357.43 62.9202 356.74 62.4702 355.69 61.7702C354.181 60.8174 352.831 59.6329 351.69 58.2602C350.13 56.3802 348.41 53.5602 346.96 53.9002C343.46 56.6302 343.33 59.1902 342.43 61.3302C341.53 63.4702 339.8 65.1602 339.75 68.3002Z" fill="#F6ECFB"/>
<path d="M359.55 95.3198C358.117 92.2597 355.902 89.6313 353.13 87.6998C352.278 87.0495 351.463 86.3517 350.69 85.6098C348.815 83.5499 347.309 81.1818 346.24 78.6098C345.91 77.9298 345.59 77.2598 345.24 76.6098C343.795 73.7896 341.919 71.212 339.68 68.9698L339.24 68.5398V68.3198C339.33 66.388 339.938 64.5159 341 62.8998C341.331 62.3264 341.632 61.7356 341.9 61.1298C342.09 60.6798 342.24 60.2098 342.4 59.7298C343.046 57.2391 344.52 55.0421 346.58 53.4998L346.78 53.3998C348.24 53.0598 349.59 54.8198 351.02 56.6698C351.35 57.1098 351.68 57.5398 352.02 57.9298C353.138 59.266 354.462 60.4169 355.94 61.3398C357.18 62.1598 357.94 62.8198 359.74 67.9498L359.83 68.1898L359.69 68.3998C359.29 68.9798 358.93 69.5298 358.62 70.0398C356.94 72.8098 356.81 74.6598 356.62 77.4698C356.224 80.7584 356.445 84.0919 357.27 87.2998C357.792 88.8915 358.423 90.4452 359.16 91.9498C359.61 92.9498 360.06 93.9498 360.48 94.9498L359.55 95.3198ZM340.26 68.0898L340.4 68.2298C342.708 70.5487 344.644 73.2101 346.14 76.1198C346.48 76.7798 346.81 77.4698 347.14 78.1198C348.16 80.5932 349.598 82.873 351.39 84.8598C352.142 85.5659 352.93 86.2334 353.75 86.8598C354.957 87.7764 356.097 88.779 357.16 89.8598C356.834 89.0949 356.547 88.3139 356.3 87.5198C355.435 84.1961 355.201 80.7398 355.61 77.3298C355.81 74.4798 355.94 72.4298 357.75 69.4498C358.03 68.9898 358.36 68.4498 358.7 67.9798C356.96 63.1498 356.33 62.7298 355.38 62.1098C353.818 61.1327 352.42 59.9143 351.24 58.4998C350.91 58.0998 350.57 57.6598 350.24 57.2098C349.24 55.8798 347.94 54.2098 347.11 54.2898C345.252 55.703 343.929 57.706 343.36 59.9698C343.2 60.4798 343.03 60.9698 342.84 61.4398C342.539 62.0833 342.205 62.7108 341.84 63.3198C340.913 64.7483 340.369 66.3908 340.26 68.0898V68.0898Z" fill="#B985D1"/>
<path d="M364.5 435.82C364.394 435.821 364.292 435.786 364.21 435.72C364.156 435.683 364.11 435.635 364.075 435.58C364.04 435.526 364.016 435.464 364.005 435.4C363.993 435.336 363.995 435.27 364.01 435.206C364.024 435.143 364.052 435.083 364.09 435.03C385.83 404.84 379.67 375.34 374.71 351.64C373.94 347.93 373.2 344.42 372.61 341.06C369.72 324.75 370.25 312.42 370.85 298.15C371.18 290.4 371.52 282.39 371.42 272.65C371.07 239.87 365.77 196.44 355.23 139.9C355.206 139.769 355.235 139.633 355.31 139.523C355.384 139.413 355.499 139.336 355.63 139.31C355.76 139.286 355.893 139.315 356.002 139.39C356.111 139.465 356.185 139.58 356.21 139.71C366.76 196.32 372.07 239.8 372.42 272.64C372.52 282.41 372.17 290.8 371.85 298.2C371.25 312.41 370.73 324.68 373.59 340.89C374.19 344.23 374.92 347.73 375.69 351.44C380.69 375.33 386.9 405.06 364.9 435.61C364.855 435.675 364.796 435.728 364.726 435.765C364.656 435.801 364.579 435.82 364.5 435.82Z" fill="#655422"/>
<path d="M20.3696 295.54C54.6396 296.03 71.9096 300.4 86.9396 302.3C101.97 304.2 114.74 303.66 130.36 304.4C145.98 305.14 164.45 307.18 179.36 310.49C209.2 317.1 224.84 328.78 234.36 336.03C238.657 339.101 242.672 342.548 246.36 346.33C250.36 350.48 255 356.27 263.2 365.55C271.4 374.83 283.14 387.55 292.67 407.55C302.2 427.55 309.52 454.61 312.36 470.91C315.2 487.21 313.53 492.67 308.17 501.73C292.43 506.94 267.41 491.19 245.07 476.4C222.73 461.61 203.07 447.79 182.92 434.48C162.77 421.17 142.19 408.34 127.45 396.85C114.906 387.335 104.043 375.789 95.3096 362.69C86.7796 350.19 78.6196 335.34 67.4296 322.69C56.2396 310.04 42.0696 299.53 20.3696 295.54Z" fill="#7F7E35"/>
<path d="M301.34 502.999C286.34 502.999 266.1 490.569 244.98 476.589C233.55 469.019 222.79 461.689 212.38 454.589C202.24 447.689 192.67 441.159 182.83 434.659C177.94 431.419 172.97 428.179 168.17 425.049C152.92 415.109 138.52 405.719 127.35 397.049C114.794 387.507 103.912 375.942 95.15 362.829C92.63 359.139 90.15 355.309 87.6 351.249C81.49 341.659 75.16 331.749 67.29 322.849C54.04 307.849 39.12 299.269 20.29 295.849V295.359C38.7717 295.533 57.2088 297.205 75.42 300.359C79.42 300.999 83.26 301.619 86.88 302.079C96.2799 303.14 105.731 303.688 115.19 303.719C120.01 303.819 124.99 303.919 130.29 304.169C146.777 304.877 163.18 306.913 179.34 310.259C209.57 316.959 225.16 328.789 234.47 335.849C238.766 338.929 242.782 342.382 246.47 346.169C248.71 348.519 251.21 351.429 254.38 355.109C256.89 358.039 259.74 361.359 263.32 365.399L264.55 366.799C272.65 375.929 283.75 388.439 292.82 407.429C302.2 427.049 309.61 454.059 312.53 470.859C315.45 487.659 313.59 492.939 308.32 501.859L308.27 501.939H308.18C305.97 502.651 303.662 503.009 301.34 502.999V502.999ZM23.15 295.829C40.78 299.629 54.98 308.149 67.66 322.489C75.56 331.419 81.9 341.349 88.02 350.949C90.61 354.999 93.02 358.829 95.56 362.519C104.292 375.59 115.14 387.115 127.66 396.619C138.81 405.319 153.21 414.699 168.45 424.619C173.25 427.749 178.21 430.979 183.1 434.219C192.94 440.729 202.52 447.219 212.66 454.159C223.07 461.249 233.83 468.579 245.25 476.159C269.69 492.329 292.88 506.429 308.05 501.499C314.67 490.279 314.41 483.869 312.16 470.919C309.25 454.159 301.85 427.199 292.49 407.629C283.49 388.699 272.38 376.219 264.3 367.109L263.06 365.709C259.49 361.709 256.63 358.349 254.12 355.419C250.96 351.739 248.46 348.839 246.23 346.499C242.541 342.729 238.525 339.292 234.23 336.229C224.95 329.229 209.41 317.409 179.29 310.729C163.146 307.39 146.76 305.357 130.29 304.649C125.01 304.399 120.03 304.299 115.21 304.199C105.734 304.169 96.266 303.618 86.85 302.549C83.22 302.089 79.41 301.479 75.37 300.829C58.1174 297.825 40.6592 296.154 23.15 295.829V295.829Z" fill="#304F25"/>
<path d="M308 501.82C293.67 475.61 279.89 454.92 263.35 434.74C248.008 415.837 230.494 398.806 211.17 384C191.11 368.33 160.1 346.62 97.8696 317.54L98.0796 317.09C160.36 346.19 191.39 367.92 211.48 383.61C230.834 398.44 248.372 415.502 263.73 434.44C280.3 454.64 294.09 475.36 308.44 501.6L308 501.82Z" fill="white"/>
<path d="M500.39 7.93983C492.1 0.0998249 485.39 -0.590173 479.92 0.449827C475.119 1.44476 470.664 3.6827 467 6.93983C464.191 9.1869 461.977 12.0883 460.55 15.3898C459.25 18.5398 458.63 22.2198 458.17 28.7498C457.71 35.2798 457.4 44.6498 455.71 53.2498C453.952 61.5133 451.195 69.5322 447.5 77.1298C444.04 84.5798 440.2 91.6498 438.16 96.4298C436.657 99.7729 435.734 103.347 435.43 107C435.01 110.33 434.43 114.49 434.67 117.67C434.91 120.85 436.06 123.02 437.19 123.85C438.32 124.68 439.43 124.15 441.05 124.01C442.67 123.87 444.79 124.15 447.67 124.28C450.55 124.41 454.18 124.41 457.58 126.05C460.98 127.69 464.16 130.96 464.76 133.14C460 134.72 457.22 136.81 454.97 137.95C453.221 138.901 451.236 139.331 449.25 139.19C447.349 139.101 445.494 138.574 443.83 137.65C441.95 136.65 439.96 134.92 433.22 134.33C415 174.89 404.36 207.33 399.92 230.51C395.48 253.69 397.21 267.51 398.42 277.02C399.63 286.53 400.29 291.88 401.29 294.35C402.29 296.82 403.63 296.43 404.29 295.78C405.27 294.463 406.689 293.541 408.29 293.18C413.193 291.731 418.246 290.852 423.35 290.56C428.484 290.297 433.631 290.532 438.72 291.26C442.85 291.81 445.67 292.42 447.03 293.48C448.39 294.54 448.29 296.05 447.14 297.66C445.672 299.551 443.694 300.984 441.44 301.79C439.12 302.6 436.71 302.5 431.19 302.9C421.365 303.816 411.474 303.762 401.66 302.74C401.66 333.74 401.66 348.68 405.66 364.3C409.66 379.92 417.53 396.22 424.33 408.83C431.13 421.44 436.82 430.35 446.11 435.37C455.4 440.39 468.29 441.54 480.71 438.5C493.525 435.425 504.942 428.148 513.14 417.83C521.2 407.4 525.37 393.75 528.31 379.24C531.221 364.024 533.175 348.64 534.16 333.18C535.33 317 536 300 537.39 288.05C538.246 279.916 539.867 271.88 542.23 264.05C543.72 258.82 544.72 255.21 544.9 252.05C545.08 248.89 544.47 246.14 542.54 244.05C540.61 241.96 537.38 240.44 533.02 240.19C528.66 239.94 523.19 240.94 518.9 241.93C514.61 242.92 511.5 243.93 506.4 245.26C501.3 246.59 494.2 248.26 493.08 248.65C493.08 240.44 502.17 234.92 509.08 231.65C515.99 228.38 520.78 227.45 524.37 227.65C527.96 227.85 530.37 229.26 533 230.26C535.408 231.194 537.937 231.783 540.51 232.01C542.51 232.13 543.65 231.75 543.65 228.24C543.65 224.73 542.51 218.1 541.94 210.62C541.324 203.266 541.401 195.87 542.17 188.53C542.97 182.24 544.57 178 545.17 174.53C545.77 171.06 545.48 168.36 542.91 166.65C540.34 164.94 535.52 164.2 531.25 164.43C526.98 164.66 523.25 165.84 518.8 167.03C514.35 168.22 509.18 169.39 505.99 170.03C502.8 170.67 501.57 170.86 501.37 170.09C501.17 169.32 502.02 167.59 503.44 166.14C505.164 164.588 507.048 163.224 509.06 162.07C511.933 160.067 515.083 158.493 518.41 157.4C523.524 155.85 528.754 154.713 534.05 154C536.449 153.684 538.872 153.584 541.29 153.7C542.76 153.7 544.13 153.36 542.92 150.5C541.71 147.64 537.92 142.25 533.92 137.38C529.92 132.51 525.68 128.18 523.26 124.3C520.84 120.42 520.26 117 520.19 112.3C520.12 107.6 520.64 101.52 520.59 93.8598C520.504 85.2578 519.836 76.6715 518.59 68.1598C517.29 59.3898 515.31 51.1598 512.1 39.5898C508.89 28.0198 504.52 13.2198 500.39 7.93983Z" fill="#353E18"/>
<path d="M474.25 439.69C470.8 321.08 477.25 276.94 481.91 244.69V244.53C486.6 212.23 489.71 190.9 489.71 168.77C489.71 148.4 487.11 127.31 484.59 106.91L483.93 101.53C481.39 80.7799 478.77 59.3199 492.82 18.8799L493.29 19.0399C479.29 59.3799 481.89 80.7699 484.43 101.47L485.09 106.85C487.6 127.26 490.21 148.37 490.21 168.77C490.21 190.93 487.1 212.28 482.4 244.6V244.77C477.71 276.98 471.29 321.1 474.74 439.67L474.25 439.69Z" fill="white"/>
<path d="M414.27 375.6C418.2 372.4 425.6 368.89 431.65 365.15C437.226 361.841 442.174 357.576 446.27 352.55C450.382 347.542 453.192 341.596 454.45 335.24C455.604 328.688 455.328 321.965 453.64 315.53C452.12 310.26 449.64 307.42 447.46 306.43C445.28 305.44 443.55 306.29 441.17 309.26C438.79 312.23 435.81 317.26 432.33 322.82C428.85 328.38 424.88 334.29 421.88 339.12C418.88 343.95 416.88 347.64 413.66 349.12C410.44 350.6 406.22 349.76 403.57 348.21C400.92 346.66 399.9 344.35 400.51 341.75C401.12 339.15 403.38 336.26 406.4 332.55C409.42 328.84 413.23 324.32 416.83 320C420.43 315.68 423.83 311.57 426.31 306.5C428.799 301.17 430.442 295.485 431.18 289.65C431.996 283.883 431.962 278.027 431.08 272.27C430.131 266.21 428.717 260.232 426.85 254.39C425.791 250.814 424.332 247.369 422.5 244.12C421.269 242.03 419.899 240.026 418.4 238.12C417.4 236.82 416.96 236.43 416.59 236.55C416.22 236.67 415.9 237.31 415.37 239.03C414.54 241.937 413.872 244.888 413.37 247.87C412.538 253.453 411.247 258.959 409.51 264.33C407.025 270.956 403.942 277.342 400.3 283.41C396.89 289.26 393.67 294.1 390.75 298.54C387.83 302.98 385.2 307 382.13 309.54C379.06 312.08 375.53 313.07 373.02 312.54C370.51 312.01 369.02 309.92 368.2 307.05C367.224 303.455 367.456 299.64 368.86 296.19C370.49 291.84 373.86 286.81 376.52 282.92L384.8 270.65C388.61 265.01 394.38 256.48 397.56 248.93C400.32 242.482 401.483 235.463 400.95 228.47C400.469 222.125 399.207 215.865 397.19 209.83C395.331 203.695 392.774 197.793 389.57 192.24C386.78 187.56 383.176 183.415 378.93 180C375.09 176.93 371.07 174.71 368.25 174.38C365.43 174.05 363.85 175.63 363.85 179.6C363.85 183.57 365.44 189.92 366.24 196.48C367.009 203.018 367.069 209.619 366.42 216.17C365.8 222.56 364.56 228.57 363.42 234.33C362.28 240.09 361.26 245.57 359.2 250.59C357.14 255.61 354.02 260.18 350.88 262.46C349.545 263.45 347.98 264.085 346.333 264.305C344.685 264.526 343.009 264.324 341.46 263.72C338.281 262.777 335.552 260.713 333.78 257.91C332.26 255.16 332.26 251.72 333.78 247.25C335.3 242.78 338.25 237.3 340.07 231.47C341.89 225.64 342.55 219.47 343.28 212.61C344.01 205.75 344.8 198.26 344.57 191.33C344.417 184.858 343.162 178.46 340.86 172.41C338.852 166.973 335.602 162.08 331.37 158.12C327.703 154.836 323.309 152.468 318.55 151.21C314.84 150.35 312.46 151.02 311.79 155.94C311.12 160.86 312.16 170.04 312.56 177.88C312.96 185.72 312.71 192.2 313.12 197.88C313.53 203.56 314.58 208.46 315.01 213.12C315.44 217.78 315.24 222.22 313.39 226.22C311.54 230.22 308.03 233.79 304.39 234.55C300.75 235.31 296.98 233.26 294.7 230.35C292.42 227.44 291.63 223.67 291.59 219.1C291.701 213.801 292.246 208.52 293.22 203.31C294.22 197.45 295.38 191.12 295.14 185.92C294.9 180.72 293.19 176.65 290.14 171.72C287.09 166.79 282.5 161 276.91 158.08C271.32 155.16 264.64 155.08 258.8 154.9C252.96 154.72 247.98 154.49 243.8 152.9C239.62 151.31 236.17 148.49 232.94 146.66C229.71 144.83 226.7 144 223.57 144.75C220.44 145.5 217.2 147.75 213.65 153.16C210.1 158.57 206.25 167 201.65 174C197.05 181 191.7 186.55 188.59 191.27C185.77 195.27 184.404 200.116 184.72 205C185.037 210.618 185.935 216.187 187.4 221.62C188.578 226.514 190.373 231.238 192.74 235.68C195.368 240.891 198.974 245.549 203.36 249.4C208.05 253.31 214 255.96 219.59 258.73C224.689 261.226 229.644 264.007 234.43 267.06C237.759 269.239 240.909 271.68 243.85 274.36C246.4 276.64 248.65 278.83 248.91 280.78C249.17 282.73 247.46 284.45 244.55 285.47C240.801 286.697 236.751 286.637 233.04 285.3C228.55 283.78 223.65 280.41 218.13 276.18C212.61 271.95 206.46 266.86 199.82 262.76C193.18 258.66 186.03 255.55 181.21 255.68C176.39 255.81 173.87 259.19 172.21 262.62C170.55 266.05 169.74 269.55 171.1 275.25C172.46 280.95 175.99 288.85 180.72 293.93C185.45 299.01 191.39 301.27 199.5 304.14C207.61 307.01 217.9 310.48 226.02 314.14C234.14 317.8 240.08 321.57 245.12 326.24C250.16 330.91 254.29 336.47 255.19 339.76C256.09 343.05 253.76 344.1 250.9 344.63C248.04 345.16 244.66 345.15 239.34 342.41C234.02 339.67 226.79 334.22 219 329.92C211.265 325.76 203.109 322.435 194.67 320C186.46 317.53 178.38 315.73 172.58 316.43C166.78 317.13 163.28 320.31 162.91 325.5C162.54 330.69 165.32 337.9 171.19 344.74C177.06 351.58 186.05 358.03 195.11 362.18C204.17 366.33 213.31 368.18 222.71 369.63C232.11 371.08 241.76 372.15 248.08 373.04C254.4 373.93 257.38 374.67 258.63 376.35C259.88 378.03 259.37 380.67 256.93 382.75C254.49 384.83 250.1 386.37 245.18 387.54C239.805 388.871 234.277 389.487 228.74 389.37C222.601 389.278 216.531 388.061 210.83 385.78C205.56 383.49 201.64 380.06 197.02 376.96C192.4 373.86 187.08 371.06 181.9 371.96C176.72 372.86 171.67 377.32 170.45 381.89C169.23 386.46 171.85 391.12 176.05 395.49C180.25 399.86 186.05 403.94 192.43 407.68C198.853 411.578 205.736 414.661 212.92 416.86C219.793 418.904 227.01 419.523 234.13 418.68C240.89 417.78 247.08 415.3 251.85 414.03C256.62 412.76 259.99 412.72 262.12 413.71C262.623 413.921 263.08 414.229 263.464 414.617C263.848 415.005 264.151 415.465 264.356 415.97C264.562 416.476 264.665 417.017 264.661 417.563C264.656 418.108 264.544 418.648 264.33 419.15C263.51 421.56 260.98 424.34 258.2 426.79C255.394 429.459 251.951 431.366 248.2 432.33C243.598 433.245 238.862 433.245 234.26 432.33C229.78 431.47 226.11 429.92 221.8 428.74C217.957 427.677 214.023 426.974 210.05 426.64C207.57 426.53 207.57 427.13 208.22 429.77C209.246 434.285 211.253 438.519 214.1 442.17C218.567 447.633 223.988 452.241 230.1 455.77C234.484 458.363 239.58 459.495 244.65 459C249.509 458.503 254.312 457.562 259 456.19C263.71 454.94 268.11 453.69 272.17 450.65C276.23 447.61 280 442.79 283.3 439C286.6 435.21 289.61 432.42 292.39 430.93C295.17 429.44 297.75 429.24 299.39 429.93C301.03 430.62 301.67 432.11 301.8 434.22C301.99 436.814 301.284 439.394 299.8 441.53C298.05 444.01 294.94 446.26 292 449.1C289.213 451.923 286.576 454.89 284.1 457.99C281.92 460.6 280.33 462.39 280.43 464.44C280.53 466.49 282.32 468.8 285.99 471.02C289.66 473.24 295.21 475.35 302.55 476.54C309.89 477.73 319.01 477.99 326.55 476.04C333.252 474.216 339.389 470.74 344.4 465.93C348.67 461.93 351.18 458.09 352.47 453.13C353.654 447.795 353.945 442.3 353.33 436.87C352.796 432.18 351.958 427.531 350.82 422.95C349.82 418.62 349 414.32 348.54 410.74C348.08 407.16 348.01 404.28 351.54 406.36C355.07 408.44 362 415.42 370 419.68C377.957 423.824 386.957 425.538 395.88 424.61C404.786 423.621 413.315 420.466 420.72 415.42C427.998 410.564 434.499 404.634 440 397.83C443.401 393.728 445.7 388.827 446.68 383.59C447.801 378.695 448.47 373.707 448.68 368.69C448.68 364.69 447.92 362.54 446.76 362.05C445.6 361.56 444.08 362.68 441.9 365.55C439.72 368.42 436.9 373.06 434.49 376.55C432.588 379.619 430.121 382.3 427.22 384.45C424.22 386.57 420.22 388.45 417.07 388.45C415.702 388.477 414.359 388.074 413.232 387.297C412.105 386.52 411.251 385.409 410.79 384.12C409.87 381.72 410.33 378.81 414.27 375.6ZM352.83 290.25C354.24 289.08 355.55 288.09 356.83 287.12C359.202 285.424 361.424 283.527 363.47 281.45C367.193 277.465 370.234 272.894 372.47 267.92C374.58 263.1 375.56 258.42 376.74 250.92C377.08 248.74 377.43 246.37 377.86 243.47C378.86 236.85 380.2 227.79 382.74 212.06L383.11 212.12C380.58 227.84 379.23 236.9 378.24 243.52C377.81 246.43 377.46 248.8 377.11 250.98C375.94 258.48 374.95 263.19 372.82 268.04C370.59 273.054 367.55 277.665 363.82 281.69C361.752 283.775 359.514 285.685 357.13 287.4C355.87 288.4 354.56 289.35 353.13 290.52C348.423 294.427 344.164 298.844 340.43 303.69C336.43 309.02 333.55 314.58 329.24 330.17L328.87 330.07C333.18 314.51 336.15 308.71 340.12 303.46C343.861 298.605 348.123 294.175 352.83 290.25V290.25ZM333.73 283.15C335.79 281.06 337.73 279.78 339.14 279.88C340.55 279.98 341.46 281.49 342.21 283.31C343.041 285.112 343.429 287.087 343.34 289.07C343.19 289.997 342.846 290.883 342.328 291.667C341.811 292.451 341.134 293.117 340.34 293.62C338.278 295.081 335.987 296.186 333.56 296.89C330.99 297.67 328.31 298.04 327.24 297C326.17 295.96 326.71 293.49 328.07 290.81C329.578 287.997 331.485 285.418 333.73 283.15V283.15ZM324.93 244.44C325.69 243.31 326.34 242.33 326.93 241.44C330.62 235.5 331.26 231.44 331.4 227.92C331.54 224.4 331.13 220.76 330.47 214.71C330.34 213.6 330.21 212.42 330.08 211.14L329.81 208.61C328.93 200.38 327.81 190.13 326.41 185.14L326.78 185.03C328.22 190.03 329.31 200.32 330.19 208.57L330.46 211.1C330.59 212.37 330.72 213.56 330.85 214.66C331.52 220.73 331.92 224.4 331.78 227.94C331.64 231.48 330.99 235.63 327.26 241.64C326.68 242.58 326.03 243.56 325.26 244.64C321.59 250.16 315.43 259.39 303.05 285.41L302.7 285.24C315.09 259.22 321.25 250 324.93 244.44V244.44ZM251.84 163.85C252.37 161.85 253.44 161.01 254.89 161.42C256.34 161.83 258.16 163.42 259.44 165.08C260.634 166.634 261.501 168.412 261.99 170.31C262.508 172.174 262.741 174.106 262.68 176.04C262.6 177.94 262.17 179.76 260.68 180.59C259.745 181.021 258.705 181.169 257.687 181.016C256.668 180.863 255.717 180.416 254.95 179.73C253.21 178.21 252.24 175.31 251.76 172.23C251.268 169.456 251.296 166.614 251.84 163.85V163.85ZM216.48 203C217.281 202.256 218.263 201.735 219.327 201.487C220.392 201.24 221.503 201.275 222.55 201.59C225.09 202.18 227.95 203.96 230.79 206.08C233.626 208.181 236.276 210.523 238.71 213.08C240.96 215.51 242.71 217.9 243.24 219.74C243.541 220.49 243.577 221.321 243.34 222.094C243.104 222.868 242.61 223.537 241.94 223.99C240.394 225.184 238.544 225.922 236.6 226.12C234.85 226.22 233.55 225.53 231.72 224.29C229.89 223.05 227.56 221.29 225.33 219.48C223.1 217.67 220.97 215.86 219.14 214.06C217.31 212.26 215.8 210.48 215.26 208.5C214.983 207.555 214.95 206.555 215.163 205.593C215.376 204.631 215.829 203.739 216.48 203ZM261.7 396.62C259.56 397.62 257.54 398.53 255.56 399.34C250.371 401.503 244.853 402.771 239.24 403.09C238.38 403.14 237.49 403.18 236.54 403.18C230.95 403.18 223.09 401.81 204.69 394.28L204.83 393.92C226.3 402.71 233.34 403.09 239.21 402.71C244.784 402.395 250.264 401.141 255.42 399C257.42 398.19 259.42 397.27 261.54 396.28C265.239 394.483 269.046 392.92 272.94 391.6C277.185 390.383 281.513 389.477 285.89 388.89C287.98 388.55 290.14 388.2 292.37 387.78C299.37 386.46 307.14 384.32 325.37 372.89L325.58 373.21C307.28 384.68 299.46 386.83 292.43 388.16C290.2 388.58 288.03 388.93 285.94 389.26C281.585 389.857 277.28 390.772 273.06 392C269.178 393.294 265.383 394.837 261.7 396.62ZM299.59 402.42C299.476 404.898 298.564 407.272 296.99 409.19C295.054 411.276 292.535 412.733 289.76 413.37C287.24 413.88 285.15 413.24 283.87 411.74C282.59 410.24 282.1 407.88 282.98 405.04C284.108 401.881 285.985 399.044 288.45 396.77C290.231 395.004 292.565 393.906 295.06 393.66C295.875 393.56 296.701 393.729 297.412 394.14C298.123 394.552 298.68 395.183 299 395.94C299.71 398.022 299.912 400.244 299.59 402.42V402.42ZM291.22 421.76C282.7 428.67 276.52 432.52 268.42 435.95C259.42 439.76 249.42 442.29 229.74 442.29V441.91C249.35 441.91 259.32 439.39 268.27 435.6C276.33 432.18 282.49 428.35 290.98 421.46C301.07 413.28 312.88 401.9 330.49 383.46L330.77 383.72C313.15 402.18 301.32 413.56 291.22 421.76V421.76ZM315.11 453.23L314.8 453.01C333.15 426.22 337.27 414.01 334.85 393.68H335.23C337.67 414.09 333.53 426.35 315.11 453.23V453.23ZM326 356.13C314.72 356.36 304.7 356.48 295.85 356.48C279.29 356.48 266.74 356.07 257.33 355.24C248.608 354.492 239.966 352.997 231.5 350.77C230.06 350.41 228.61 350.06 227.08 349.7C225.29 349.28 223.4 348.86 221.43 348.42C211.69 346.38 202.071 343.796 192.62 340.68L192.74 340.32C202.168 343.417 211.763 345.981 221.48 348L227.13 349.29L231.55 350.35C239.999 352.577 248.624 354.072 257.33 354.82C271.73 356.09 293.51 356.38 325.77 355.71L308.08 320.42C300.32 320.193 292.709 318.239 285.8 314.7C283.315 313.392 280.911 311.936 278.6 310.34C276.183 308.601 273.58 307.136 270.84 305.97C266.33 304.23 260.49 303.64 254.31 302.97L251.58 302.69C243.323 301.858 235.124 300.522 227.03 298.69C217.25 296.47 205.69 293.02 192.37 280.18L192.63 279.9C205.89 292.67 217.38 296.11 227.11 298.32C235.191 300.153 243.376 301.489 251.62 302.32L254.35 302.6C260.56 303.24 266.42 303.84 270.97 305.6C273.737 306.779 276.366 308.257 278.81 310.01C281.117 311.615 283.518 313.081 286 314.4C292.799 317.885 300.284 319.825 307.92 320.08L274 252.52C265.8 249.8 259.65 248.23 255.28 247.74C253.935 247.593 252.583 247.526 251.23 247.54C249.848 247.606 248.464 247.451 247.13 247.08C245.27 246.53 241.43 244.88 236.54 240.01C236.11 239.59 235.68 239.15 235.23 238.68C231.33 234.68 225.43 228.54 203.91 217.56L204.09 217.22C225.66 228.22 231.58 234.35 235.51 238.41C235.96 238.88 236.38 239.32 236.81 239.74C240.34 243.25 244.14 245.8 247.24 246.74C248.541 247.1 249.891 247.251 251.24 247.19C252.609 247.176 253.978 247.243 255.34 247.39C259.66 247.87 265.73 249.39 273.77 252.07L232.92 170.59C255.45 207.59 266.1 230.21 278.09 253.53L278.28 253.6L278.22 253.78C278.887 255.113 279.573 256.447 280.28 257.78C288.7 273.97 298.14 290.95 311.7 320.09H311.78V320.28C316.51 330.46 321.78 342.13 327.61 355.75H327.69V355.94C330.81 363.18 334.1 370.94 337.59 379.38L326 356.13ZM264.26 319.51C265.02 318.21 266.93 317.43 268.84 317.1C270.859 316.764 272.93 316.975 274.84 317.71C277.236 318.665 279.509 319.903 281.61 321.4C283.426 322.499 284.968 323.997 286.12 325.78C286.599 326.558 286.881 327.44 286.942 328.352C287.003 329.263 286.841 330.175 286.47 331.01C285.965 331.98 285.204 332.794 284.27 333.363C283.336 333.933 282.264 334.236 281.17 334.24C278.61 334.3 275.4 332.96 272.48 331.09C269.757 329.409 267.353 327.259 265.38 324.74C263.85 322.63 263.46 320.81 264.22 319.51H264.26ZM340.45 328.72C341.11 325.78 342.24 323.2 344.75 321.42C347.693 319.543 351.143 318.618 354.63 318.77C357.704 318.822 360.672 319.903 363.06 321.84C363.883 322.537 364.554 323.395 365.032 324.362C365.51 325.329 365.785 326.383 365.84 327.46C365.866 328.356 365.706 329.248 365.37 330.079C365.034 330.91 364.531 331.663 363.89 332.29C362.184 333.938 360.374 335.475 358.47 336.89C356.47 338.54 354.47 340.39 352.62 342.18C350.77 343.97 349.05 345.68 347.56 346.28C346.07 346.88 344.82 346.34 343.49 344.82C341.835 342.814 340.701 340.43 340.19 337.88C339.633 334.844 339.708 331.726 340.41 328.72H340.45ZM340.67 359.72C354.537 352.8 367.841 344.806 380.46 335.81C388.12 330.41 391.85 327.56 395.46 322.96C399.07 318.36 402.51 312.15 419.22 282.17L419.55 282.35C402.83 312.35 399.35 318.6 395.76 323.19C392.17 327.78 388.39 330.7 380.7 336.13C368.063 345.132 354.743 353.133 340.86 360.06L340.67 359.72ZM382.19 364.88C380.437 366.373 378.299 367.344 376.02 367.68C374.064 368.203 371.989 368.052 370.13 367.25C369.239 366.746 368.457 366.069 367.832 365.258C367.207 364.448 366.751 363.52 366.49 362.53C366.198 361.522 366.173 360.457 366.417 359.436C366.66 358.416 367.165 357.477 367.88 356.71C369.747 354.913 372.108 353.715 374.66 353.27C376.791 352.938 378.973 353.314 380.87 354.34C382.87 355.27 385.04 356.61 385.34 358.6C385.64 360.59 384 363.26 382.15 364.93L382.19 364.88ZM402.74 403.47C388.23 403.47 381.63 402.72 375.59 400.6C371.2 399.05 366.99 396.76 360.02 392.95C355.86 390.68 350.69 387.86 343.85 384.3L344 384C350.84 387.56 356 390.39 360.18 392.66C367.13 396.45 371.32 398.74 375.69 400.28C382.59 402.7 390.23 403.28 409.78 403.08V403.46C407.22 403.51 404.87 403.52 402.7 403.52L402.74 403.47ZM389 373.68C380.05 374.95 366.39 375.76 344.69 376.29V375.91C366.37 375.37 380.02 374.57 388.95 373.3C399.04 371.86 403.95 369.6 411 365.08C418.47 360.32 428.8 352.7 435.41 345.6L435.69 345.86C429.06 352.99 418.69 360.63 411.2 365.4C404 370 399.11 372.23 389 373.68Z" fill="#304F25"/>
<path d="M604 96.5694C601.94 93.8294 599.75 90.9894 596.64 89.5694C593.53 88.1494 589.22 88.6794 587.53 91.6594C586.982 92.7858 586.644 94.0021 586.53 95.2494L582.12 123.149C581.51 127.029 580.9 130.959 581.34 134.859C582.64 146.399 593.39 155.329 604.84 157.259C616.29 159.189 628.04 155.309 638.09 149.479C643.7 146.229 649.62 140.769 648.21 134.479C647.633 132.294 646.234 130.417 644.305 129.239C642.376 128.061 640.067 127.674 637.86 128.159C643.09 130.159 649.7 126.489 650.72 120.979C651.74 115.469 646.88 109.659 641.28 109.679" fill="#F7D1E4"/>
<path d="M610.81 158.25C608.759 158.256 606.712 158.089 604.69 157.75C590.4 155.35 581.84 144.44 580.77 134.92C580.32 130.92 580.95 126.92 581.56 123.08L585.97 95.1802C586.101 93.869 586.467 92.5921 587.05 91.4102C588.94 88.0902 593.59 87.6302 596.81 89.1102C600.03 90.5902 602.37 93.6202 604.36 96.2602L603.57 96.8702C601.64 94.3202 599.46 91.4302 596.39 90.0202C593.56 88.7202 589.48 89.1702 587.92 91.9002C587.383 92.9743 587.044 94.1361 586.92 95.3302L582.51 123.23C581.91 127.02 581.29 130.94 581.72 134.81C582.72 143.96 591.02 154.44 604.81 156.76C617.38 158.88 629.64 153.76 637.73 149.05C641.22 147.05 649.18 141.56 647.62 134.55C647.366 133.526 646.909 132.563 646.277 131.718C645.645 130.873 644.85 130.163 643.94 129.63C643.549 129.394 643.141 129.187 642.72 129.01C640.997 129.351 639.214 129.205 637.57 128.59L636.13 128.03L637.63 127.64C639.346 127.211 641.152 127.326 642.8 127.97C643.752 127.751 644.667 127.397 645.52 126.92C647.216 125.935 648.544 124.422 649.302 122.612C650.059 120.802 650.204 118.794 649.715 116.894C649.226 114.994 648.129 113.306 646.592 112.087C645.055 110.868 643.161 110.184 641.2 110.14V110.14V109.14C643.43 109.092 645.611 109.799 647.388 111.147C649.166 112.494 650.435 114.403 650.991 116.563C651.547 118.723 651.357 121.008 650.451 123.046C649.544 125.084 647.976 126.756 646 127.79C645.421 128.123 644.812 128.397 644.18 128.61L644.46 128.78C645.485 129.381 646.379 130.183 647.088 131.136C647.798 132.089 648.308 133.176 648.59 134.33C650.3 141.99 641.91 147.78 638.23 149.92C631.36 153.92 621.43 158.25 610.81 158.25Z" fill="#EB5EA0"/>
<path d="M635.93 114.13C641.51 111.13 642.93 102.51 638.63 97.86C637.258 96.4958 635.666 95.3733 633.92 94.54C628.378 91.6513 622.296 89.9485 616.06 89.54C612.88 89.34 609.5 89.54 606.79 91.21C604.08 92.88 602.29 96.44 603.54 99.38" fill="#F7D1E4"/>
<path d="M636.16 114.569L635.69 113.689C636.957 112.909 638.042 111.866 638.872 110.631C639.701 109.396 640.257 107.997 640.5 106.529C640.744 105.061 640.67 103.558 640.283 102.121C639.897 100.684 639.207 99.347 638.26 98.1994C636.929 96.8753 635.384 95.7865 633.69 94.9794C628.205 92.1433 622.192 90.4749 616.03 90.0794C613.54 89.9194 609.89 89.9194 607.03 91.6794C604.65 93.1494 602.8 96.4494 604.03 99.2294L603.11 99.6194C601.71 96.3094 603.76 92.5494 606.55 90.8294C609.64 88.9194 613.49 88.9194 616.13 89.0794C622.41 89.4903 628.537 91.1924 634.13 94.0794C635.925 94.9415 637.561 96.1012 638.97 97.5094C640.011 98.7686 640.77 100.237 641.195 101.815C641.62 103.392 641.701 105.043 641.432 106.655C641.164 108.267 640.553 109.802 639.639 111.157C638.726 112.512 637.533 113.655 636.14 114.509L636.16 114.569Z" fill="#EB5EA0"/>
<path d="M623.85 114.36C624.085 115.441 624.085 116.559 623.85 117.64C623.718 118.176 623.421 118.658 623.001 119.017C622.582 119.375 622.06 119.593 621.51 119.64C620.574 119.5 619.723 119.019 619.12 118.29C617.386 116.617 615.72 114.893 614.12 113.12C613.255 112.329 612.637 111.304 612.34 110.17C611.98 108 614.1 106.03 616.29 105.75C618.48 105.47 620.63 106.37 622.63 107.31C625.673 108.562 628.454 110.374 630.83 112.65C632.376 114.318 633.518 116.319 634.167 118.499C634.815 120.678 634.953 122.978 634.57 125.22C634.546 125.8 634.322 126.353 633.935 126.786C633.548 127.218 633.023 127.502 632.45 127.59C629.179 128.643 625.695 128.851 622.322 128.196C618.949 127.541 615.796 126.044 613.157 123.844C610.518 121.644 608.477 118.812 607.226 115.612C605.975 112.412 605.553 108.947 606 105.54C606.048 104.883 606.257 104.247 606.61 103.69C607.002 103.296 607.47 102.986 607.986 102.778C608.501 102.57 609.054 102.468 609.61 102.48C615.386 101.815 621.23 102.858 626.42 105.48C631.5 108.22 635.56 113.14 636.42 118.84C636.732 120.41 636.708 122.028 636.349 123.588C635.991 125.148 635.306 126.614 634.34 127.89C633.85 138.44 623.45 147.44 615.52 152.52C614.24 153.34 613.19 154.52 611.86 155.2C609.16 156.64 605.86 156.04 602.86 155.4C601.409 155.161 600.002 154.713 598.68 154.07C595.92 152.399 593.403 150.357 591.2 148C589.2 145.71 589.55 142.62 589.75 139.53C590.59 126.78 593.31 110.11 606.84 104.63" fill="#F7D1E4"/>
<path d="M608.05 156.57C606.313 156.516 604.587 156.282 602.9 155.87C601.4 155.625 599.944 155.16 598.58 154.49C595.721 152.801 593.106 150.728 590.81 148.33C588.81 145.97 589.03 142.87 589.23 139.88V139.5C590.03 127.32 592.62 110.59 605.68 104.58C605.78 104.152 605.964 103.748 606.22 103.39C606.656 102.93 607.184 102.567 607.77 102.324C608.356 102.081 608.986 101.964 609.62 101.98C615.487 101.287 621.429 102.33 626.71 104.98C629.359 106.339 631.663 108.285 633.446 110.67C635.23 113.054 636.445 115.815 637 118.74C637.319 120.354 637.299 122.016 636.939 123.621C636.579 125.226 635.888 126.738 634.91 128.06C634.24 139.92 621.39 149.39 615.91 152.92C615.376 153.279 614.861 153.666 614.37 154.08C613.704 154.666 612.98 155.182 612.21 155.62C610.926 156.284 609.494 156.611 608.05 156.57V156.57ZM605.5 105.79C593.5 111.79 591.02 127.84 590.25 139.57V139.95C590.05 142.87 589.87 145.63 591.6 147.68C593.811 149.988 596.328 151.983 599.08 153.61C600.361 154.23 601.725 154.662 603.13 154.89C606.27 155.56 609.29 156.06 611.76 154.74C612.471 154.329 613.141 153.85 613.76 153.31C614.278 152.868 614.822 152.457 615.39 152.08C620.8 148.61 633.45 139.32 633.98 127.85V127.68L634.09 127.55C635.021 126.335 635.682 124.934 636.027 123.442C636.372 121.95 636.393 120.401 636.09 118.9C635.25 113.62 631.58 108.76 626.29 105.9C621.17 103.329 615.408 102.32 609.72 103C609.229 102.982 608.74 103.061 608.28 103.233C607.82 103.405 607.398 103.665 607.04 104C606.929 104.15 606.842 104.315 606.78 104.49L607.03 105.11L606.58 105.3C606.557 105.402 606.541 105.506 606.53 105.61C606.093 108.93 606.502 112.307 607.719 115.427C608.936 118.547 610.921 121.309 613.491 123.457C616.06 125.604 619.131 127.068 622.417 127.712C625.704 128.356 629.099 128.159 632.29 127.14C632.764 127.026 633.202 126.792 633.56 126.46C633.844 126.078 634.017 125.625 634.06 125.15C634.433 122.986 634.302 120.765 633.678 118.66C633.053 116.554 631.952 114.621 630.46 113.01C628.119 110.788 625.391 109.015 622.41 107.78C620.46 106.87 618.41 106 616.34 106.26C615.17 106.433 614.114 107.058 613.4 108C613.164 108.297 612.99 108.639 612.891 109.006C612.791 109.372 612.767 109.754 612.82 110.13C613.111 111.167 613.686 112.102 614.48 112.83C616.08 114.59 617.77 116.32 619.48 117.97C619.986 118.593 620.693 119.021 621.48 119.18V119.18C621.915 119.122 622.323 118.933 622.65 118.638C622.977 118.344 623.207 117.958 623.31 117.53C623.524 116.518 623.524 115.472 623.31 114.46L624.31 114.31C624.565 115.463 624.565 116.657 624.31 117.81C624.149 118.447 623.794 119.017 623.294 119.442C622.794 119.867 622.174 120.125 621.52 120.18V120.18C620.457 120.047 619.484 119.514 618.8 118.69C617.06 117.02 615.36 115.28 613.74 113.5C612.808 112.64 612.145 111.529 611.83 110.3C611.753 109.79 611.782 109.269 611.914 108.77C612.047 108.272 612.28 107.805 612.6 107.4C613.48 106.251 614.776 105.494 616.21 105.29C618.52 105 620.76 105.92 622.84 106.9C625.937 108.183 628.769 110.031 631.19 112.35C632.788 114.075 633.968 116.145 634.637 118.399C635.307 120.654 635.448 123.032 635.05 125.35C634.977 126.008 634.72 126.632 634.31 127.15C633.84 127.637 633.245 127.983 632.59 128.15C629.266 129.211 625.729 129.422 622.302 128.764C618.876 128.105 615.669 126.599 612.975 124.382C610.28 122.165 608.185 119.308 606.879 116.073C605.573 112.837 605.099 109.326 605.5 105.86V105.79Z" fill="#EB5EA0"/>
<path d="M245 282.52C244.904 282.523 244.809 282.495 244.73 282.44L217.33 264.38C202.98 254.92 186.7 244.19 168.33 242.55C154.33 241.3 140 245.55 127.39 249.36C127.263 249.398 127.125 249.384 127.008 249.323C126.89 249.261 126.801 249.156 126.76 249.03C126.74 248.967 126.733 248.9 126.74 248.835C126.746 248.769 126.766 248.705 126.798 248.647C126.829 248.589 126.873 248.538 126.924 248.498C126.976 248.457 127.036 248.427 127.1 248.41C139.8 244.6 154.2 240.29 168.42 241.55C187.07 243.22 203.42 254.02 217.92 263.55L245.31 281.61C245.397 281.67 245.462 281.757 245.496 281.857C245.531 281.957 245.533 282.066 245.502 282.167C245.47 282.268 245.408 282.357 245.323 282.42C245.238 282.483 245.136 282.518 245.03 282.52H245Z" fill="#655422"/>
<path d="M182.75 244.05C182.633 244.055 182.519 244.016 182.43 243.94C176.72 239.3 170.25 234.04 166.75 226.87C164.893 222.8 163.72 218.451 163.28 214C161.54 200.7 162.84 187.19 164.1 174.12C164.105 174.054 164.123 173.991 164.153 173.932C164.183 173.874 164.224 173.823 164.275 173.781C164.325 173.739 164.383 173.707 164.446 173.688C164.509 173.669 164.575 173.663 164.64 173.67C164.705 173.675 164.769 173.693 164.827 173.723C164.885 173.753 164.937 173.794 164.979 173.845C165.021 173.895 165.052 173.953 165.071 174.016C165.09 174.079 165.097 174.145 165.09 174.21C163.84 187.21 162.54 200.68 164.27 213.87C164.69 218.228 165.832 222.486 167.65 226.47C171.05 233.47 177.43 238.63 183.06 243.21C183.112 243.25 183.156 243.3 183.189 243.357C183.221 243.415 183.241 243.479 183.248 243.544C183.254 243.61 183.247 243.676 183.227 243.739C183.207 243.802 183.174 243.86 183.13 243.91C183.081 243.959 183.021 243.998 182.955 244.022C182.89 244.046 182.82 244.055 182.75 244.05V244.05Z" fill="#655422"/>
<path d="M162.47 153.329C164.25 151.049 167.24 148.659 169.69 150.179C170.368 152.734 170.628 155.382 170.46 158.019C170.361 159.337 169.945 160.611 169.249 161.734C168.553 162.857 167.596 163.795 166.46 164.469C168.86 165.364 171.117 166.604 173.16 168.149C174.84 169.429 176.39 172.039 174.77 173.389C174.249 173.756 173.636 173.967 173 173.999C168.498 174.647 163.915 173.63 160.11 171.139C159.874 174.1 158.647 176.894 156.627 179.071C154.608 181.248 151.914 182.681 148.98 183.139C148.503 180.873 148.558 178.528 149.139 176.286C149.72 174.045 150.812 171.968 152.33 170.219C147.73 167.959 143.15 164.409 142.27 159.359C142.198 159.114 142.179 158.856 142.213 158.603C142.248 158.35 142.335 158.107 142.47 157.889C142.768 157.601 143.149 157.412 143.56 157.349C145.897 156.657 148.338 156.386 150.77 156.549C158 157.359 157.27 159.999 162.47 153.329Z" fill="#F8EBFB"/>
<path d="M148.6 183.659L148.5 183.219C148.026 180.982 148.054 178.668 148.581 176.442C149.108 174.217 150.122 172.136 151.55 170.349C147.48 168.259 142.72 164.729 141.78 159.409C141.695 159.095 141.679 158.767 141.733 158.446C141.786 158.125 141.908 157.819 142.09 157.549C142.451 157.167 142.93 156.917 143.45 156.839C145.841 156.128 148.341 155.851 150.83 156.019C152.291 156.2 153.737 156.481 155.16 156.859C158 157.589 158.43 157.699 162.08 153.019C164.15 150.369 167.31 148.109 169.95 149.759L170.13 149.869L170.18 150.079C170.872 152.686 171.133 155.389 170.95 158.079C170.844 159.304 170.489 160.493 169.906 161.575C169.323 162.657 168.524 163.608 167.56 164.369C169.659 165.244 171.639 166.383 173.45 167.759C174.122 168.237 174.689 168.845 175.119 169.548C175.549 170.251 175.831 171.034 175.95 171.849C175.964 172.216 175.892 172.582 175.741 172.916C175.59 173.251 175.364 173.547 175.08 173.779C174.495 174.207 173.802 174.463 173.08 174.519C168.734 175.135 164.308 174.253 160.53 172.019C160.115 174.929 158.773 177.627 156.703 179.713C154.633 181.799 151.946 183.162 149.04 183.599L148.6 183.659ZM149.34 156.939C147.428 157.001 145.531 157.293 143.69 157.809C143.383 157.848 143.094 157.976 142.86 158.179C142.69 158.507 142.658 158.888 142.77 159.239C143.67 164.389 148.59 167.799 152.56 169.739L153.15 170.029L152.71 170.519C151.296 172.145 150.264 174.067 149.69 176.143C149.116 178.22 149.013 180.398 149.39 182.519C152.098 181.976 154.557 180.571 156.401 178.514C158.245 176.458 159.374 173.86 159.62 171.109L159.67 170.249L160.39 170.719C164.095 173.143 168.556 174.135 172.94 173.509C173.478 173.477 173.997 173.297 174.44 172.989C174.609 172.853 174.744 172.679 174.832 172.481C174.921 172.283 174.961 172.066 174.95 171.849C174.715 170.509 173.96 169.316 172.85 168.529C170.845 167.011 168.628 165.794 166.27 164.919L165.2 164.519L166.2 163.999C167.268 163.377 168.17 162.507 168.832 161.463C169.493 160.419 169.894 159.231 170 157.999C170.168 155.494 169.929 152.978 169.29 150.549C167.22 149.469 164.58 151.549 162.91 153.679C159 158.679 158.18 158.679 154.91 157.869C153.535 157.495 152.135 157.225 150.72 157.059C150.263 156.989 149.802 156.949 149.34 156.939V156.939Z" fill="#D8A8F3"/>
<path d="M130.88 236.26C132.65 233.99 135.64 231.59 138.09 233.12C138.768 235.675 139.028 238.322 138.86 240.96C138.54 243.57 137.2 246.22 134.86 247.41C137.262 248.3 139.52 249.54 141.56 251.09C143.24 252.36 144.79 254.98 143.17 256.33C142.656 256.697 142.05 256.915 141.42 256.96C136.918 257.608 132.335 256.591 128.53 254.1C128.275 257.045 127.038 259.819 125.018 261.977C122.998 264.135 120.312 265.552 117.39 266C116.909 263.736 116.962 261.391 117.543 259.15C118.124 256.91 119.219 254.835 120.74 253.09C116.14 250.83 111.57 247.27 110.68 242.22C110.608 241.976 110.589 241.72 110.624 241.469C110.658 241.217 110.745 240.976 110.88 240.76C111.178 240.471 111.559 240.283 111.97 240.22C114.306 239.523 116.748 239.252 119.18 239.42C126.36 240.29 125.67 242.94 130.88 236.26Z" fill="#F8EBFB"/>
<path d="M117 266.6L116.9 266.15C116.419 263.918 116.439 261.607 116.958 259.383C117.476 257.16 118.481 255.079 119.9 253.29C115.84 251.2 111.07 247.66 110.13 242.35C110.045 242.034 110.029 241.704 110.082 241.381C110.136 241.059 110.258 240.751 110.44 240.48C110.804 240.101 111.281 239.852 111.8 239.77C114.192 239.062 116.691 238.788 119.18 238.96C120.642 239.131 122.089 239.412 123.51 239.8C126.35 240.52 126.79 240.63 130.43 235.96C132.5 233.3 135.66 231.05 138.3 232.69L138.49 232.81V233.02C139.182 235.626 139.442 238.329 139.26 241.02C139.154 242.244 138.799 243.434 138.216 244.516C137.633 245.597 136.834 246.548 135.87 247.31C137.969 248.181 139.948 249.317 141.76 250.69C142.431 251.167 142.999 251.775 143.429 252.478C143.859 253.181 144.141 253.964 144.26 254.78C144.277 255.146 144.208 255.512 144.059 255.847C143.909 256.182 143.684 256.477 143.4 256.71C142.813 257.136 142.122 257.396 141.4 257.46C137.088 258.07 132.696 257.203 128.94 255C128.527 257.909 127.188 260.609 125.12 262.697C123.052 264.784 120.365 266.15 117.46 266.59L117 266.6ZM117.74 239.88C115.829 239.938 113.932 240.227 112.09 240.74C111.787 240.783 111.502 240.911 111.27 241.11C111.182 241.272 111.128 241.451 111.11 241.634C111.093 241.818 111.113 242.004 111.17 242.18C112.08 247.33 116.99 250.73 120.96 252.68L121.55 252.97L121.11 253.46C119.697 255.086 118.666 257.008 118.092 259.084C117.518 261.16 117.414 263.338 117.79 265.46C120.489 264.91 122.94 263.506 124.78 261.454C126.619 259.403 127.748 256.813 128 254.07V253.2L128.73 253.68C132.431 256.105 136.889 257.097 141.27 256.47C141.807 256.434 142.325 256.255 142.77 255.95C142.938 255.813 143.072 255.639 143.161 255.441C143.25 255.243 143.29 255.026 143.28 254.81C143.166 254.145 142.922 253.51 142.561 252.94C142.201 252.37 141.731 251.877 141.18 251.49C139.176 249.969 136.959 248.753 134.6 247.88L133.53 247.48L134.53 246.96C135.595 246.325 136.491 245.443 137.142 244.388C137.793 243.333 138.18 242.136 138.27 240.9C138.438 238.391 138.198 235.872 137.56 233.44C135.49 232.36 132.85 234.44 131.18 236.57C127.27 241.57 126.45 241.57 123.18 240.77C121.804 240.396 120.404 240.122 118.99 239.95C118.574 239.906 118.157 239.883 117.74 239.88Z" fill="#D8A8F3"/>
</svg>
