<svg width="1151" height="1151" viewBox="0 0 1151 1151" fill="none" xmlns="http://www.w3.org/2000/svg">
<g clip-path="url(#clip0_8404_57336)">
<path d="M1086 773.8C1162.08 657.06 1164.71 502.59 1108.07 370.94C1051.43 239.29 940.32 130.21 810.66 56.4002C770.79 33.7102 728.42 13.8402 683.29 5.23021C633.58 -4.26979 582.61 0.310214 533.85 9.88021C392.68 37.5802 263.25 107.88 168.85 208.17C74.4501 308.46 15.4001 438.23 2.46005 574.19C-1.88995 619.83 -1.12995 666.5 10.1201 711.76C33.6201 806.35 53.79 957.19 136.73 1017C219.67 1076.81 533.36 1146.14 571 1149.25C632.14 1154.31 839.36 1123.69 894.28 1100.67C1061.59 1030.56 1051.58 871.17 1122.38 711.97" fill="#F6C651"/>
<path d="M917.27 941.25C932.105 954.099 948.127 965.511 965.12 975.33C982.145 985.177 999.698 994.081 1017.7 1002C1034.02 1009.29 1052.14 1017.13 1062.09 1032.86C1066.51 1039.86 1069.27 1048.01 1068.37 1056.35C1067.44 1063.68 1063.89 1070.43 1058.37 1075.35C1046.78 1085.98 1030.48 1090.27 1015.37 1092.89C998.506 1095.89 981.312 1096.59 964.26 1094.96C947.575 1093.42 931.276 1089.04 916.07 1082C908.628 1078.49 901.586 1074.19 895.07 1069.17C893.437 1067.91 891.847 1066.61 890.3 1065.27C889.55 1064.62 888.84 1063.91 888.08 1063.27C886.9 1062.27 885.44 1062.2 883.99 1061.92C879.1 1060.92 874.21 1060.1 869.31 1059.27C859.69 1057.62 850.06 1056.03 840.49 1054.1C835.461 1053.26 830.536 1051.89 825.8 1050C822.023 1048.31 818.513 1046.08 815.38 1043.38C809.081 1037.87 804.073 1031.04 800.71 1023.38C797.14 1015.45 795.26 1006.79 793.4 998.38C792.52 994.38 791.69 990.38 790.76 986.38C790.05 983.38 784.76 983.22 785.53 986.72C787.53 995.41 789.18 1004.2 791.63 1012.79C793.929 1021.36 797.717 1029.45 802.82 1036.71C807.962 1044.02 814.833 1049.94 822.82 1053.95C827.578 1056.1 832.577 1057.67 837.71 1058.63C842.86 1059.73 848.05 1060.69 853.23 1061.63C864.23 1063.63 875.23 1065.31 886.23 1067.48L884.89 1066.89C904.1 1084.58 929.11 1094.75 954.7 1098.77C967.791 1100.78 981.061 1101.38 994.28 1100.56C1007.39 1099.9 1020.39 1097.8 1033.05 1094.32C1044.56 1091.02 1056.19 1085.9 1064.51 1077.03C1068.54 1072.8 1071.42 1067.62 1072.89 1061.97C1074.42 1055.49 1074.12 1048.72 1072.02 1042.4C1062.66 1013.29 1030.89 1003.09 1005.93 991.34C978.6 978.47 952.07 963.53 928.51 944.51C925.663 942.21 922.86 939.85 920.1 937.43C919.573 936.981 918.892 936.755 918.201 936.8C917.51 936.844 916.864 937.157 916.4 937.67C915.48 938.91 916.23 940.4 917.24 941.28L917.27 941.25Z" fill="black"/>
<path d="M770.34 939.65C803.74 938.311 836.779 932.22 868.46 921.56C877.373 918.56 886.153 915.197 894.8 911.47C895.18 911.31 892.52 906.47 891.47 906.9C860.792 920.071 828.393 928.798 795.25 932.82C785.87 933.953 776.457 934.71 767.01 935.09C766.63 935.09 768.12 937.53 768.23 937.69C768.65 938.27 769.51 939.69 770.34 939.69V939.65Z" fill="black"/>
<path d="M604.86 878.61C616.515 891.64 630.576 902.299 646.27 910C662.115 917.851 679.246 922.78 696.84 924.55C706.93 925.571 717.1 925.52 727.18 924.4C727.81 924.33 729.98 924.04 729.88 923.05C729.78 922.06 727.5 922.21 726.96 922.27C710.16 924.093 693.167 922.736 676.87 918.27C660.516 913.841 645.094 906.504 631.34 896.61C623.617 891.035 616.537 884.619 610.23 877.48C609.49 876.64 607.65 876.88 606.69 877.09C606.25 877.18 604.14 877.78 604.86 878.6V878.61Z" fill="black"/>
<path d="M473.37 272.23C448.16 263.23 420.5 256.83 393.71 261.65C382.973 263.57 372.656 267.361 363.23 272.85C352.6 279.07 343.42 287.41 334.9 296.25C315.61 316.513 300.219 340.158 289.5 366C284.072 379.048 279.637 392.486 276.23 406.2C272.289 421.239 267.379 436.006 261.53 450.41C250.31 478.81 237.17 506.56 229.36 536.18C228.367 539.94 227.463 543.72 226.65 547.52C226.4 548.68 227.25 549.98 227.96 550.83C228.19 551.09 229.96 552.83 230.18 551.71C236.62 521.62 249.18 493.5 260.8 465.16C266.6 451.03 272.13 436.77 276.52 422.16C278.65 415.05 280.33 407.81 282.37 400.66C284.277 393.954 286.443 387.32 288.87 380.76C298.58 354.54 312.54 329.83 330.95 308.76C339.42 299.03 348.74 289.63 359.3 282.17C368.066 275.941 377.843 271.275 388.2 268.38C413.02 261.53 439.55 265.69 463.72 273.13C467.567 274.324 471.387 275.6 475.18 276.96C476.34 277.37 476.1 275.96 475.85 275.28C475.435 274.001 474.548 272.929 473.37 272.28V272.23Z" fill="black"/>
<path d="M225.74 548.891C216.14 572.711 206.74 596.641 198.2 620.891C188.71 647.661 180.07 674.781 173.33 702.391C167.42 726.611 163.08 751.23 162.25 776.18C161.49 798.96 163.45 822 169.19 844.1C174.82 865.75 184.27 886.521 197.9 904.331C204.953 913.526 213.04 921.881 222 929.23C232.191 937.369 243.157 944.487 254.74 950.48C280.107 963.932 307.315 973.579 335.49 979.11C362.14 984.41 389.99 986.88 417.08 984.01C443.36 981.23 469.15 974.37 494.38 966.73C519.61 959.09 544.19 950.4 569.15 942.38C574.643 940.614 580.15 938.904 585.67 937.25C585.954 937.194 586.221 937.071 586.448 936.891C586.675 936.71 586.856 936.479 586.975 936.215C587.094 935.95 587.149 935.662 587.134 935.372C587.119 935.083 587.036 934.801 586.89 934.55C586.13 933.35 584.31 933.17 583.08 933.55C559.08 940.67 535.54 949.091 511.75 956.771C486.64 964.881 461.22 972.541 435.21 977.211C423.392 979.454 411.414 980.748 399.39 981.081C357.024 981.549 315.038 973.05 276.19 956.141C252.78 945.781 230.19 932.59 212.44 913.85C197.24 897.77 186.07 878.19 178.89 857.32C171.58 836.08 168.23 813.621 167.78 791.201C167.3 767.711 170.06 744.35 174.78 721.36C180.41 693.89 188.4 666.93 197.32 640.36C205.73 615.36 215.06 590.661 224.78 566.141C226.873 560.881 228.977 555.627 231.09 550.381C232.19 547.651 226.7 546.491 225.73 548.901L225.74 548.891Z" fill="black"/>
<path d="M672.06 267.87C672.55 267.87 673.06 267.39 672.3 267.39C671.81 267.39 671.3 267.87 672.06 267.87Z" fill="black"/>
<path d="M606.33 157.06C599.5 150.79 592.4 149.53 587.41 148.72C583.929 148.056 580.402 147.658 576.86 147.53C574.18 147.53 571.71 147.84 568.65 148.06C565.59 148.28 561.95 148.39 555.65 149.16C558.751 149.712 561.905 149.906 565.05 149.74C568.436 149.669 571.825 149.775 575.2 150.06C578.125 150.374 581.018 150.933 583.85 151.73C586.527 152.415 589.143 153.321 591.67 154.44C593.706 155.42 595.613 156.645 597.35 158.09C598.678 159.308 600.106 160.412 601.62 161.39C602.916 162.169 604.459 162.43 605.94 162.12C607.27 161.78 608.37 160.78 606.37 157.12L606.33 157.06Z" fill="black"/>
<path d="M636.7 169.78C640.89 169.78 646.08 171.6 650.35 173.19C654.133 174.504 657.791 176.154 661.28 178.12C664.6 180.12 667.9 182.59 676.74 192.92C667.52 186.69 661.81 182.74 657.68 180.68C653.55 178.62 651.01 178.46 648.24 177.91C645.47 177.36 642.45 176.42 636.7 169.78Z" fill="black"/>
<path d="M617.82 222.22C614.878 225.644 610.96 228.087 606.59 229.22C605.9 229.4 606.28 227.99 606.37 227.77C606.6 227.17 607.03 226.2 607.76 226.01C609.694 225.511 611.544 224.73 613.25 223.69C614.048 223.198 614.81 222.65 615.53 222.05C615.91 221.73 616.28 221.39 616.63 221.05L617.13 220.54C617.45 220.21 616.95 220.75 617.26 220.41L617.54 220.09C617.81 219.78 618.54 219.14 618.66 219.9C618.685 220.74 618.384 221.557 617.82 222.18V222.22Z" fill="black"/>
<path d="M588.62 212.89C589.319 217.288 591.391 221.352 594.54 224.5C595.03 224.99 595.45 223.6 595.54 223.36C595.66 222.73 595.8 221.68 595.28 221.17C593.883 219.788 592.706 218.199 591.79 216.46C591.364 215.642 591 214.793 590.7 213.92C590.54 213.45 590.4 212.99 590.28 212.51C590.28 212.29 590.17 212.06 590.12 211.84C590.02 211.39 590.12 212.1 590.12 211.65C590.12 211.52 590.12 211.38 590.05 211.24C589.98 210.85 589.69 209.93 589.18 210.53C588.722 211.226 588.547 212.07 588.69 212.89H588.62Z" fill="black"/>
<path d="M634.12 190.51C640.63 199.92 652.25 203.11 662.73 205.81C663.136 205.932 663.568 205.938 663.978 205.829C664.387 205.719 664.759 205.498 665.05 205.19C665.155 205.067 665.228 204.92 665.263 204.761C665.299 204.603 665.295 204.439 665.253 204.282C665.21 204.126 665.131 203.982 665.021 203.863C664.91 203.744 664.773 203.654 664.62 203.6C654.62 201.01 643.36 198.09 637.12 189.06C636.28 187.84 633.12 189.11 634.12 190.51V190.51Z" fill="black"/>
<path d="M569.22 166.23C570.695 168.094 572.637 169.533 574.85 170.4C577.456 171.66 580.126 172.782 582.85 173.76C588.21 175.63 593.85 176.17 599.25 174.34C599.68 174.2 600.51 173.78 600.18 173.25C599.85 172.72 598.41 173.25 598.05 173.34C593.3 174.94 588.05 173.34 583.53 171.62C581.36 170.77 579.2 169.83 577.11 168.81C575.203 167.999 573.541 166.703 572.29 165.05C571.79 164.32 568.62 165.36 569.22 166.23V166.23Z" fill="black"/>
<path d="M379.43 391.22C395.17 395.8 410.57 401.41 426.14 406.5C441.23 411.44 456.52 415.71 472.02 419.16C502.627 426.054 533.878 429.687 565.25 430C595.58 430.22 626.51 427.58 655.88 419.74C683.53 412.36 709.88 400.57 734.48 386C758.992 371.382 781.892 354.217 802.8 334.791C805.31 332.481 807.8 330.121 810.23 327.791C811.72 326.351 808.48 321.79 807.23 322.99C786.975 342.688 764.748 360.25 740.9 375.4C716.81 390.66 690.9 403.32 663.66 411.8C634.94 420.73 604.66 424.251 574.66 424.881C543.319 425.473 512.006 422.667 481.27 416.511C465.937 413.457 450.76 409.65 435.74 405.09C420.25 400.38 405.04 394.8 389.62 389.87C385.76 388.624 381.887 387.447 378 386.34C375.62 385.65 377.69 390.73 379.39 391.22H379.43Z" fill="black"/>
<path d="M466.17 273.39C502.96 280.17 539.23 289.39 576 296.22C586.667 298.22 597.38 300.04 608.14 301.68C619.59 303.45 631.34 304.68 642.76 302C653.25 299.52 662.51 293.71 671.67 288.28C681.4 282.51 691.39 277.2 701.67 272.43C722.142 262.899 743.506 255.413 765.45 250.08C787.45 244.73 810.36 240.98 833.07 241.38C854.56 241.75 876.43 246.07 893.93 259.19C908.46 270.08 920.07 286.19 922.19 304.58C923.19 313.38 922.03 322.82 917.19 330.39C911.81 338.72 902.85 341.6 893.39 342.27C882.6 343.04 871.78 341.18 861.12 339.76C854.9 338.94 848.69 338.08 842.47 337.24C836.47 336.43 829.47 336.41 823.92 333.76C819.3 331.55 815.2 328.33 810.79 325.76C809.664 325.02 808.398 324.519 807.07 324.29C806.26 324.22 805.82 324.29 806.83 324.9C811.59 327.68 816.02 331.01 820.97 333.47C825.846 335.837 831.074 337.397 836.45 338.09C849.45 339.93 862.45 341.667 875.45 343.3C885.32 344.55 895.5 345.62 905.35 343.58C909.859 342.761 914.073 340.772 917.571 337.811C921.069 334.85 923.727 331.022 925.28 326.71C931.98 309.11 924.79 288.91 913.55 274.9C900.99 259.24 882.82 249.19 863.66 243.9C841.18 237.74 817.51 238.22 794.59 241.35C771.351 244.539 748.503 250.118 726.41 258C704.69 265.818 683.787 275.742 664 287.63C653.8 293.7 643.43 299.45 631.45 300.87C618.87 302.35 606.3 299.87 593.92 297.87C555.5 291.59 517.78 282.07 479.6 274.52C473.973 273.414 468.337 272.34 462.69 271.3C461.63 271.11 461.78 271.35 462.44 271.91C463.559 272.665 464.828 273.166 466.16 273.38L466.17 273.39Z" fill="black"/>
<path d="M800.89 245.35C812.497 263.02 818.142 283.941 817 305.05C816.9 306.98 821.46 310.05 821.6 307.3C822.44 289.998 818.948 272.761 811.44 257.15C809.263 252.676 806.777 248.359 804 244.23C803.44 243.38 801.85 242.15 800.75 242.61C799.65 243.07 800.39 244.61 800.85 245.35H800.89Z" fill="black"/>
<path d="M870.19 343.58C878.902 352.319 886.29 362.285 892.12 373.16C895.009 378.553 897.49 384.156 899.54 389.92C901.933 396.186 903.474 402.744 904.12 409.42C904.9 420.29 901.12 430.42 893.97 438.61C887.23 446.35 878.34 452.01 869.25 456.61C858.93 461.83 847.98 465.68 837.06 469.44C824.153 473.894 811.133 477.967 798 481.66C771.433 489.119 744.454 495.022 717.2 499.34C690.143 503.632 662.861 506.36 635.49 507.51C632.117 507.65 628.74 507.77 625.36 507.87C624.09 507.87 625.36 509.18 625.74 509.46C626.793 510.268 628.073 510.723 629.4 510.76C657.233 509.982 684.997 507.578 712.55 503.56C740.002 499.547 767.198 493.941 794 486.77C807.373 483.197 820.627 479.237 833.76 474.89C845.44 471.02 857.21 467.09 868.43 462.01C886.23 453.93 906.2 441.01 909.06 419.92C910.82 406.92 906.06 393.51 900.71 381.86C895.55 370.546 888.776 360.04 880.6 350.67C878.6 348.39 876.53 346.174 874.39 344.02C873.393 343.087 872.118 342.504 870.76 342.36C869.76 342.29 869.43 342.81 870.2 343.58H870.19Z" fill="black"/>
<path d="M626.59 507.11C616.44 522.292 602.914 534.918 587.07 544C571.07 553.335 553.224 559.062 534.78 560.781C530.146 561.199 525.492 561.352 520.84 561.24C515.95 561.273 511.072 560.749 506.3 559.68C496.5 557.11 491.08 547.53 487.58 538.68C483.953 529.405 482.467 519.43 483.232 509.5C483.998 499.57 486.995 489.941 492 481.33C501.28 465.68 517.18 454.25 534.77 449.83C536.896 449.287 539.049 448.853 541.22 448.53C541.692 448.532 542.156 448.399 542.554 448.145C542.953 447.892 543.271 447.529 543.47 447.101C543.578 446.668 543.538 446.211 543.357 445.803C543.176 445.396 542.864 445.06 542.47 444.851C539.523 443.184 536.434 441.782 533.24 440.661C530.575 439.755 528.124 438.312 526.04 436.421C524.4 434.781 523.11 432.42 523.81 430.06C524.22 428.67 526 426.121 527.54 426.601C528.74 426.971 530.54 426.931 531.2 425.661C531.86 424.391 530.75 423.18 529.62 422.83C527.914 422.271 526.078 422.245 524.357 422.758C522.637 423.27 521.114 424.296 519.992 425.698C518.871 427.1 518.205 428.811 518.083 430.603C517.961 432.394 518.389 434.179 519.31 435.72C523.44 443.14 532.52 443.92 539.12 448L540.34 444.33C520.694 447.154 502.937 457.565 490.88 473.33C478.33 489.97 474.42 512.211 479.88 532.271C482.53 542.041 487.31 552.77 495.52 559.11C500.09 562.65 505.69 564.111 511.35 564.751C516.466 565.314 521.614 565.548 526.76 565.451C546.502 565.04 565.902 560.219 583.54 551.341C600.914 542.741 616.062 530.239 627.8 514.81C629.227 512.91 630.597 510.964 631.91 508.97C633.51 506.53 628.14 504.85 626.67 507.08L626.59 507.11Z" fill="black"/>
<path d="M605.65 430C624 435.6 638.9 451 643.36 469.78C644.618 474.991 645.013 480.372 644.53 485.71C644.479 486.384 644.581 487.061 644.828 487.689C645.076 488.318 645.463 488.882 645.96 489.34C646.51 489.86 648.1 490.59 648.23 489.23C650.32 467.33 638.89 445.54 621.07 433.06C616.026 429.547 610.462 426.847 604.58 425.06C603.35 424.69 603.11 426.06 603.3 426.94C603.54 428.09 604.43 429.68 605.65 430.05V430Z" fill="black"/>
<path d="M303.12 778.13C308.689 758.238 315.479 738.708 323.45 719.65C339.477 681.353 360.037 645.114 384.69 611.71C397.062 594.902 410.419 578.84 424.69 563.61C438.935 548.419 454.079 534.097 470.04 520.72C472.04 519.04 474.06 517.374 476.1 515.72C476.96 515.02 477.38 513.72 476.26 513.07C475.14 512.42 473.34 512.95 472.39 513.73C423.311 553.687 381.765 602.091 349.71 656.66C339.158 674.592 329.695 693.142 321.37 712.21C313.071 731.221 305.951 750.724 300.05 770.61C299.317 773.07 298.607 775.54 297.92 778.02C297.1 780.93 302.51 780.29 303.12 778.13V778.13Z" fill="black"/>
<path d="M742.93 502.56C759.863 530.854 776.797 559.144 793.73 587.43C809.82 614.36 825.73 641.43 838.79 670.05C851.36 697.64 860.28 726.51 867.34 755.95C874.34 785.14 879.75 814.69 886.24 843.95C892.69 873.06 900.24 902.04 911.38 929.75C912.747 933.15 914.17 936.534 915.65 939.9C916.74 942.39 921.75 939.78 920.65 937.23C908.65 909.72 900.41 880.76 893.65 851.54C886.89 822.32 881.51 792.75 874.82 763.49C868.13 734.23 860.08 705.43 848.4 677.85C836.17 648.94 820.62 621.59 804.63 594.64C787.9 566.5 771 538.43 754.15 510.31L747.92 499.9C746.5 497.53 741.52 500.21 742.92 502.56H742.93Z" fill="black"/>
<path d="M852.42 466.52C869.22 488.91 878.3 516.42 880.02 544.24C881.8 572.93 875.57 601.54 864.22 627.81C857.6 642.953 849.487 657.398 840 670.93C839.41 671.78 841.9 671.7 842.17 671.67C843.17 671.56 844.8 671.28 845.45 670.35C862.21 646.2 875.3 619.19 881.65 590.35C887.74 562.77 887.34 533.83 878.92 506.77C874.265 491.739 867.079 477.613 857.67 465C856.83 463.89 851.58 465.45 852.42 466.56V466.52Z" fill="black"/>
<path d="M583.05 606.75C588.18 632.82 599.05 657.27 611.77 680.47C624.93 704.47 639.82 727.62 653.95 751.11C668.87 775.924 683.52 800.887 697.9 826C712.213 851.007 726.253 876.164 740.02 901.47C753.787 926.777 767.33 952.324 780.65 978.11C782.29 981.277 783.92 984.45 785.54 987.63C786.23 988.97 791.37 986.63 790.75 985.41C777.55 959.69 764.077 934.11 750.33 908.67C736.63 883.337 722.657 858.144 708.41 833.09C694.103 807.93 679.52 782.93 664.66 758.09C650.46 734.32 635.54 710.95 621.81 686.91C608.68 663.91 596.81 639.91 590.38 614.07C589.593 610.91 588.883 607.73 588.25 604.53C588.03 603.4 582.73 605.12 583.05 606.75V606.75Z" fill="black"/>
<path d="M810.28 327.69C819.43 336.04 831.74 338.9 843.46 341.69C855.61 344.55 868.04 345.43 880.46 345.77C888.175 346.034 895.899 345.837 903.59 345.18C906.86 344.88 905.39 339.45 902.32 339.73C889.21 340.92 876 340.41 862.9 339.3C851.879 338.276 840.994 336.111 830.42 332.84C823.875 331.036 817.821 327.779 812.71 323.31C812.459 323.098 812.165 322.943 811.849 322.855C811.532 322.767 811.2 322.75 810.876 322.803C810.551 322.856 810.243 322.979 809.971 323.163C809.699 323.348 809.47 323.589 809.3 323.87C808.994 324.523 808.92 325.261 809.091 325.961C809.262 326.661 809.668 327.282 810.24 327.72L810.28 327.69Z" fill="black"/>
<path d="M470.6 274.47C471.55 274.47 469.87 272.56 469.74 272.47C469.01 271.74 467.84 270.65 466.74 270.65C465.74 270.65 467.47 272.56 467.6 272.65C468.33 273.38 469.5 274.47 470.6 274.47Z" fill="black"/>
<path d="M466.36 273.61C487.933 278.83 509.6 283.68 531.36 288.16C553.12 292.64 574.937 296.747 596.81 300.48C608.99 302.55 621.43 305.48 633.81 303.78C634.58 303.67 636.81 303.33 637.06 302.43C637.31 301.53 635.23 301.86 634.91 301.91C629.641 302.542 624.307 302.397 619.08 301.48C613.71 300.67 608.36 299.75 603.01 298.84C592.25 297.013 581.503 295.097 570.77 293.09C549.397 289.09 528.103 284.737 506.89 280.03C494.89 277.363 482.913 274.583 470.96 271.69C469.652 271.502 468.318 271.711 467.13 272.29C466.68 272.48 465.2 273.29 466.39 273.61H466.36Z" fill="black"/>
<path d="M741.26 901.35C741.15 927.97 753.53 953.19 766.43 975.79C773.57 988.32 781.33 1000.48 788.98 1012.7C796.26 1024.3 804.24 1035.92 809.47 1048.64C818.64 1070.93 821.34 1103.16 801.26 1120.64C784.34 1135.37 758.04 1136.16 738.26 1127.21C713.33 1115.91 696.26 1093.11 680.26 1071.86C671.87 1060.73 663.39 1049.63 653.64 1039.64C644.284 1029.95 633.416 1021.84 621.46 1015.64C610.87 1010.2 599.21 1005.85 590.16 997.89C585.54 993.924 582.084 988.778 580.16 983C578.01 976.23 578.1 969 579.43 962.08C582.16 947.72 590.08 935.4 597.37 923.01C601.202 916.785 604.545 910.272 607.37 903.53C610.102 896.557 611.829 889.23 612.5 881.77C613.28 873.77 613.18 865.77 613.21 857.77C613.21 851.55 613.34 845.32 613.41 839.1C613.53 826.17 613.7 813.24 614.24 800.32C615.32 774.32 617.49 747.75 625.31 722.8C627.039 717.263 629.144 711.851 631.61 706.6C632.56 704.6 627.75 701.66 626.87 703.51C615.81 726.91 612.25 753.45 610.31 779.01C608.31 805.49 608.25 832.15 608.19 858.69C608.19 866.82 608.19 874.99 607.08 883.07C606.063 890.71 603.885 898.149 600.62 905.13C594.36 918.63 585.17 930.58 579.3 944.28C573.82 957.05 570.91 971.86 576.5 985.11C581.38 996.7 592.04 1004.11 602.75 1009.87C614.17 1015.98 626.13 1020.75 636.53 1028.64C647.79 1037.17 657.2 1047.89 665.93 1058.92C683.25 1080.77 698.67 1104.77 721.7 1121.2C732.07 1128.6 743.78 1134.2 756.41 1136.2C767.719 1138.08 779.321 1137.05 790.12 1133.2C800.26 1129.5 809.33 1122.68 814.56 1113.11C820.99 1101.35 822.37 1087.55 820.82 1074.41C819.038 1060.76 814.478 1047.61 807.42 1035.79C800.14 1023.28 792.28 1011.12 784.63 998.79C769.76 975 754.09 949.83 748.24 922C746.925 915.965 746.255 909.807 746.24 903.63C746.24 901.57 741.24 899.15 741.24 901.34L741.26 901.35Z" fill="black"/>
<path d="M183.25 680.531C201.614 687.516 220.477 693.112 239.68 697.271C258.213 701.167 277.067 703.34 296 703.761C307.33 704.011 318.66 703.641 330 702.761C332.15 702.601 329.88 697.511 327.95 697.651C308.503 699.203 288.956 699.028 269.54 697.131C250.738 695.146 232.151 691.488 214 686.201C203.21 683.091 192.57 679.491 182.05 675.571C180.84 675.111 180.65 676.57 180.84 677.43C180.973 678.095 181.257 678.72 181.67 679.257C182.082 679.795 182.613 680.23 183.22 680.531H183.25Z" fill="black"/>
<path d="M575.07 242C578.02 248.41 583.77 252.85 590.31 255.21C597.41 257.78 605.59 258.84 612.8 256.11C613.3 255.92 611.1 255.23 610.98 255.2C610.1 254.97 608.45 254.37 607.52 254.72C602.75 256.52 597.38 256.96 592.65 254.85C587.365 252.551 583.084 248.426 580.59 243.23C580.28 242.57 578.54 242.36 577.91 242.23C576.969 242.098 576.02 242.024 575.07 242.01V242Z" fill="black"/>
<path d="M648.75 119.391C648.07 126.931 650.75 134.081 654.28 140.611C657.62 146.861 661.5 152.861 665.28 158.811C672.74 170.441 681.02 181.811 691.93 190.481C697.93 195.221 705.37 200.091 713.35 198.161C714.595 197.778 715.763 197.179 716.8 196.391C717.06 196.211 718.47 195.121 717.39 195.391C710.12 197.151 703.06 192.521 697.58 188.281C692.285 184.11 687.46 179.376 683.19 174.161C678.868 168.891 674.861 163.372 671.19 157.631C667.35 151.731 663.55 145.761 660.1 139.631C656.1 132.631 652.85 124.871 653.59 116.631C653.59 116.391 651.09 117.541 650.92 117.631C650.36 117.941 648.73 118.631 648.67 119.391H648.75Z" fill="black"/>
<path d="M653.38 114.91C640.809 122.722 627.127 128.586 612.8 132.3C598.98 135.85 584.11 137.93 569.8 136.51C562.57 135.78 555.15 133.85 549.27 129.41C548.18 128.59 546.59 128.05 545.43 129.09C545.202 129.33 545.026 129.615 544.914 129.927C544.802 130.238 544.756 130.57 544.78 130.9C544.803 131.231 544.895 131.553 545.05 131.845C545.205 132.138 545.42 132.395 545.68 132.6C557.8 141.74 573.34 142.51 587.94 141.5C603.473 140.406 618.742 136.904 633.2 131.12C641.249 127.908 648.999 123.993 656.36 119.42C659.27 117.62 655.89 113.32 653.36 114.91H653.38Z" fill="black"/>
<path d="M659.74 117.22C664.41 138.91 678.83 158 698 169C703.353 172.082 709.062 174.5 715 176.2C716 176.48 717.49 175.93 718.44 175.69C718.75 175.61 720.56 174.97 720.29 174.89C698.99 168.82 680.93 153.18 671.22 133.34C668.521 127.823 666.506 121.996 665.22 115.99C665.12 115.54 659.59 116.71 659.69 117.19L659.74 117.22Z" fill="black"/>
<path d="M647.85 111.7C635.357 115.753 622.69 119.243 609.85 122.17C603.583 123.597 597.283 124.893 590.95 126.06C584.53 127.24 577.95 128.71 571.37 128.81C568.557 128.931 565.767 128.263 563.313 126.883C560.859 125.504 558.839 123.466 557.48 121C557.06 120.22 554.89 120.07 554.13 120C553.83 120 551.73 119.73 552.06 120.36C554.83 125.52 560.42 128.2 565.93 129.42C573.29 131.04 580.6 130.07 587.93 128.86C602.063 126.52 616.063 123.52 629.93 119.86C637.743 117.78 645.493 115.493 653.18 113C653.86 112.78 651.46 112 651.36 112C650.236 111.624 649.033 111.548 647.87 111.78L647.85 111.7Z" fill="black"/>
<path d="M666.23 111.22C660.36 106.69 652.29 105.02 645.14 103.86C636.277 102.387 627.268 101.994 618.31 102.69C608.87 103.537 599.676 106.16 591.21 110.42C582.34 114.79 574.59 120.88 567.14 127.31C563.452 130.41 560.188 133.98 557.43 137.93C554.694 142.033 552.305 146.359 550.29 150.86C546.16 159.79 543.03 169.15 539.06 178.15C536.861 182.952 535.11 187.946 533.83 193.07C532.622 198.309 531.836 203.636 531.48 209C530.721 219.004 531.259 229.064 533.08 238.93C534.647 247.515 537.896 255.706 542.64 263.03C545.056 266.635 547.729 270.061 550.64 273.28C553.779 276.953 557.302 280.278 561.15 283.2C569.514 289.392 579.173 293.607 589.4 295.53C594.611 296.328 599.897 296.513 605.15 296.08C610.646 295.784 616.115 295.116 621.52 294.08C631.541 292.156 641.223 288.759 650.25 284C659.07 279.33 666.75 273.24 674.12 266.57C682.27 259.2 690.12 251.32 696.2 242.11C699.32 237.203 702.081 232.076 704.46 226.77C707.078 221.326 709.265 215.686 711 209.9C714.35 198.32 714.39 186.45 712.13 174.66C710.967 168.681 709.294 162.813 707.13 157.12C705.411 152.154 703.21 147.368 700.56 142.83C696.46 136.22 690.51 130.74 684.68 125.67C679.61 121.25 674.31 117.09 668.88 113.13C667.99 112.49 667.11 111.84 666.21 111.22C665.649 110.94 665.027 110.801 664.4 110.815C663.773 110.829 663.158 110.995 662.61 111.3C662.14 111.51 660.17 112.75 661.19 113.46C670.757 119.961 679.678 127.365 687.83 135.57C690.368 138.108 692.677 140.866 694.73 143.81C697.39 147.76 699.22 152.4 700.97 156.81C705.458 167.78 707.95 179.464 708.33 191.31C708.58 202.83 705.11 214.06 700.46 224.48C695.81 234.9 690.37 244.42 682.87 252.89C679.39 256.739 675.719 260.41 671.87 263.89C668.24 267.24 664.57 270.58 660.68 273.63C653.46 279.275 645.421 283.783 636.84 287C627.624 290.401 617.956 292.423 608.15 293C603.127 293.477 598.066 293.363 593.07 292.66C588.217 291.781 583.492 290.306 579 288.27C570.074 284.525 562.164 278.716 555.92 271.32C550.35 265.09 545.47 258.32 542.32 250.5C538.86 241.97 537.41 232.71 536.84 223.57C536.173 213.598 536.877 203.581 538.93 193.8C541.01 184.13 545.47 175.32 549.06 166.16C552.54 157.26 555.97 148.21 561.06 140.07C563.404 136.196 566.297 132.683 569.65 129.64C573.3 126.41 577.04 123.25 580.93 120.32C588.31 114.687 596.647 110.436 605.54 107.77C609.08 106.712 612.725 106.041 616.41 105.77C620.491 105.442 624.589 105.368 628.68 105.55C636.92 105.87 645.43 106.91 653.27 109.55C656.133 110.412 658.835 111.736 661.27 113.47C662.27 114.22 663.84 113.85 664.87 113.39C665.32 113.15 667.2 112 666.23 111.22Z" fill="black"/>
<path d="M543.84 279.68C571 292.83 602.15 299.51 631.73 291C639.899 288.664 647.701 285.197 654.91 280.7C655.63 280.25 656.4 279.22 655.29 278.77C654.18 278.32 652.44 279.1 651.51 279.68C627.72 294.68 597.81 294.35 571.69 286.33C563.801 283.895 556.112 280.856 548.69 277.24C548.105 277.036 547.482 276.965 546.866 277.033C546.25 277.1 545.657 277.304 545.13 277.63C544.79 277.8 542.73 279.2 543.8 279.72L543.84 279.68Z" fill="black"/>
<path d="M716.55 259.2C727.89 243.61 736.99 226.2 742.38 207.69C747.886 189.209 749.123 169.719 746 150.69C744.412 141.273 741.588 132.107 737.6 123.43C733.586 115.164 728.956 107.212 723.75 99.6401C718.918 92.1145 713.241 85.166 706.83 78.9301C700.802 73.2978 693.962 68.6021 686.54 65.0001C670.308 57.096 652.474 53.0345 634.42 53.1301C614.992 53.35 595.979 58.775 579.36 68.8401C565.18 77.3401 553.46 89.0401 542.63 101.41C536.23 108.492 530.279 115.967 524.81 123.79C519.248 132.145 514.873 141.232 511.81 150.79C508.55 160.7 506.08 170.9 503.75 181.06C501.37 191.48 499.57 202.06 499.95 212.83C500.33 223.6 502.71 233.94 505.75 244.11C508.682 253.941 512.314 263.549 516.62 272.86C518.73 277.44 521.02 281.94 523.44 286.36C524.38 288.06 529.61 286.13 528.87 284.77C519.16 267.08 511.51 247.82 507.47 228.01C505.311 217.785 504.849 207.275 506.1 196.9C507.39 186.54 509.99 176.37 512.56 166.26C515.02 156.6 517.77 146.94 521.85 137.82C525.85 128.82 531.54 120.77 537.66 113.15C548 100.26 559.14 87.4901 572.25 77.3301C585.827 66.6484 601.928 59.6465 619 57.0001C637 54.4001 655.81 57.0801 672.81 63.5201C680.041 66.1727 686.909 69.7275 693.25 74.1001C700.295 79.2112 706.558 85.3221 711.84 92.2401C717.169 99.2449 722.03 106.594 726.39 114.24C731.202 122.241 734.998 130.81 737.69 139.75C742.849 157.895 743.672 176.999 740.09 195.52C736.417 214.155 729.324 231.949 719.17 248C716.76 251.89 714.17 255.67 711.5 259.37C710.76 260.37 712.2 260.77 712.96 260.76C713.632 260.766 714.297 260.634 714.915 260.37C715.533 260.107 716.089 259.719 716.55 259.23V259.2Z" fill="black"/>
<path d="M510.9 140.22C500.06 160.88 489.18 181.61 476.04 200.94C464.2 218.36 450.44 234.64 433.98 247.87C424.909 255.23 414.968 261.446 404.38 266.38C403.28 266.89 404.63 267.59 405.19 267.79C406.414 268.31 407.779 268.399 409.06 268.04C428.01 259.31 444.58 246.21 458.72 230.97C474.06 214.43 486.48 195.47 497.64 175.97C504.2 164.5 510.35 152.79 516.49 141.09C516.88 140.34 511.68 138.76 510.9 140.25V140.22Z" fill="black"/>
<path d="M450.25 149.88C451.39 145.08 455.05 137.99 457.51 131.51C459.866 125.658 461.173 119.436 461.37 113.13C461.591 106.826 460.244 100.566 457.45 94.9103C454.473 89.1594 450.288 84.1208 445.18 80.1403C440.88 76.9603 437.26 76.2503 435.02 76.7503C432.78 77.2503 431.91 78.9603 431.82 82.6603C431.73 86.3603 432.43 92.0503 433 98.3803C433.57 104.71 434 111.66 434.56 117.17C435.12 122.68 435.69 126.74 434.1 129.73C432.51 132.72 428.72 134.63 425.75 135C422.78 135.37 420.63 134.19 419.57 131.81C418.51 129.43 418.57 125.87 418.69 121.21C418.81 116.55 419.1 110.81 419.33 105.34C419.56 99.8703 419.75 94.6803 418.68 89.3403C417.451 83.749 415.363 78.3819 412.49 73.4303C409.706 68.4752 406.216 63.9512 402.13 60.0003C397.814 55.8705 393.183 52.0824 388.28 48.6703C385.35 46.5291 382.187 44.7275 378.85 43.3003C376.651 42.3837 374.392 41.6153 372.09 41.0003C370.53 40.6003 369.98 40.5503 369.77 40.8703C369.56 41.1903 369.68 41.8703 370.29 43.5003C371.353 46.2491 372.568 48.9365 373.93 51.5503C376.593 56.3542 378.85 61.3716 380.68 66.5503C382.678 73.1432 384.07 79.9045 384.84 86.7503C385.67 93.2903 386.04 98.9403 386.4 104.09C386.76 109.24 387.12 113.92 386.23 117.68C385.34 121.44 383.23 124.32 380.95 125.38C378.67 126.44 376.31 125.73 373.95 123.99C371.067 121.788 368.987 118.7 368.03 115.2C366.72 110.87 366.38 104.97 366.11 100.4C365.84 95.8303 365.65 92.6303 365.26 86.0203C364.87 79.4103 364.26 69.4003 362.26 61.6703C360.587 55.0536 357.337 48.9398 352.79 43.8503C348.668 39.2273 343.989 35.1328 338.86 31.6603C333.795 28.0105 328.325 24.957 322.56 22.5603C317.67 20.6267 312.477 19.5738 307.22 19.4503C302.43 19.3503 298 20.0103 295.63 21.4503C293.26 22.8903 292.96 25.0203 295.31 28.0903C297.66 31.1603 302.65 35.0903 307.14 39.7303C311.631 44.3393 315.607 49.4225 319 54.8903C322.3 60.1903 324.9 65.5803 327.43 70.7003C329.96 75.8203 332.43 80.7003 333.78 85.7703C335.13 90.8403 335.45 96.2503 334.37 99.8703C333.921 101.426 333.085 102.842 331.939 103.986C330.794 105.13 329.376 105.964 327.82 106.41C324.8 107.545 321.47 107.545 318.45 106.41C315.65 105.19 313.61 102.52 312.12 98.1903C310.63 93.8603 309.69 87.8503 307.65 82.2603C305.61 76.6703 302.44 71.5603 299 65.8303C295.56 60.1003 291.69 53.8303 287.41 48.6103C283.466 43.6907 278.711 39.4802 273.35 36.1603C268.581 33.1462 263.174 31.2869 257.56 30.7303C252.782 30.3589 247.984 31.1266 243.56 32.9703C240.19 34.4903 238.74 36.4103 241.13 40.6103C243.52 44.8103 249.76 51.3103 254.7 57.1303C259.64 62.9503 263.28 68.1303 266.96 72.2803C270.64 76.4303 274.31 79.6003 277.4 83.0003C280.49 86.4003 283 89.8403 283.89 94.0003C284.78 98.1603 284.23 103 281.89 105.76C279.55 108.52 275.4 109.14 271.89 108.24C268.38 107.34 265.56 104.9 262.83 101.38C259.782 97.2147 257.079 92.8066 254.75 88.2003C252.04 83.1103 249.22 77.5003 245.95 73.6303C242.68 69.7603 238.95 67.6303 233.66 65.6303C228.37 63.6303 221.45 61.8203 215.39 62.8503C209.33 63.8803 204.11 67.7703 199.49 71.1003C194.87 74.4303 190.89 77.1803 186.72 78.4703C182.55 79.7603 178.2 79.5803 174.62 80.0703C171.04 80.5603 168.23 81.7103 166.24 84.1303C164.25 86.5503 163.12 90.2503 163.55 96.5003C163.98 102.75 166.01 111.58 166.55 119.72C167.09 127.86 166.27 135.31 166.66 140.8C166.853 145.551 168.667 150.093 171.8 153.67C175.377 157.85 179.379 161.647 183.74 165C187.552 168.08 191.734 170.67 196.19 172.71C201.305 175.173 206.845 176.629 212.51 177C218.45 177.25 224.62 175.78 230.58 174.62C235.998 173.533 241.474 172.752 246.98 172.28C250.846 172 254.728 172.027 258.59 172.36C261.91 172.62 264.94 172.98 266.3 174.36C267.66 175.74 267.3 178.06 265.7 180.57C263.519 183.729 260.355 186.077 256.7 187.25C252.32 188.73 246.55 189.01 239.77 189C232.99 188.99 225.24 188.7 217.67 189.45C210.1 190.2 202.75 192 199.09 195C195.43 198 195.49 202.05 196.23 205.69C196.97 209.33 198.42 212.51 202.84 216.11C207.26 219.71 214.66 223.74 221.32 224.87C227.98 226 233.92 224.24 241.89 221.66C249.86 219.08 259.89 215.66 268.3 213.66C276.71 211.66 283.57 211.09 290.23 211.73C296.89 212.37 303.37 214.21 306.01 216.23C308.65 218.25 307.47 220.43 305.57 222.53C303.67 224.63 301.05 226.62 295.33 227.65C289.61 228.68 280.76 228.73 272.2 230.02C263.769 231.388 255.506 233.644 247.55 236.75C239.74 239.75 232.43 243.09 228.36 247.05C224.29 251.01 223.46 255.56 226.24 259.79C229.02 264.02 235.44 267.96 244.02 269.79C252.6 271.62 263.37 271.28 272.83 269.14C282.29 267 290.46 263.01 298.59 258.58C306.72 254.15 314.81 249.26 320.23 246.22C325.65 243.18 328.38 241.97 330.34 242.54C332.3 243.11 333.46 245.44 332.81 248.49C332.16 251.54 329.67 255.32 326.55 259.15C323.18 263.356 319.27 267.099 314.92 270.28C310.109 273.842 304.686 276.493 298.92 278.1C293.5 279.44 288.44 279.1 283.03 279.43C277.62 279.76 271.86 280.75 268.36 284.48C264.86 288.21 263.61 294.67 265.36 298.93C267.11 303.19 271.9 305.25 277.73 306.14C283.56 307.03 290.46 306.76 297.6 305.88C304.871 305.106 312.016 303.427 318.87 300.88C325.398 298.401 331.35 294.614 336.36 289.75C341.05 285.06 344.36 279.48 347.36 275.68C350.36 271.88 352.87 269.85 355.11 269.36C355.624 269.222 356.16 269.188 356.686 269.26C357.213 269.331 357.721 269.507 358.179 269.777C358.637 270.047 359.037 270.406 359.355 270.832C359.672 271.259 359.902 271.744 360.03 272.26C360.83 274.61 360.51 278.26 359.81 281.79C359.23 285.518 357.701 289.034 355.37 292C352.345 295.421 348.675 298.211 344.57 300.21C340.57 302.21 336.84 303.21 332.81 304.81C329.207 306.254 325.748 308.035 322.48 310.13C320.48 311.51 320.85 311.97 322.91 313.63C326.374 316.519 330.435 318.605 334.8 319.74C341.5 321.312 348.429 321.651 355.25 320.74C360.152 320.173 364.751 318.074 368.39 314.74C371.861 311.468 375.028 307.886 377.85 304.04C380.75 300.29 383.41 296.72 384.75 291.97C386.09 287.22 386.1 281.3 386.44 276.39C386.78 271.48 387.44 267.57 388.7 264.77C389.96 261.97 391.84 260.3 393.49 259.86C395.14 259.42 396.54 260.2 397.89 261.75C399.568 263.651 400.545 266.068 400.66 268.6C400.77 271.55 399.66 275.13 399.1 279.07C398.61 282.902 398.327 286.758 398.25 290.62C398.1 293.93 397.93 296.25 399.25 297.77C400.57 299.29 403.25 300.03 407.44 299.58C413.086 298.731 418.526 296.839 423.48 294C429.86 290.58 437.07 285.39 441.77 279.41C445.882 274.027 448.574 267.696 449.6 261C450.53 255.38 450.21 250.93 448.27 246.33C446.03 241.503 443.006 237.079 439.32 233.24C436.13 229.947 432.734 226.86 429.15 224C425.84 221.22 422.64 218.41 420.15 215.91C417.66 213.41 415.93 211.23 419.84 210.78C423.75 210.33 433.33 211.6 442.09 210.13C450.686 208.624 458.652 204.629 465 198.64C471.305 192.61 476.033 185.124 478.77 176.84C481.516 168.78 483.03 160.352 483.26 151.84C483.461 146.645 482.339 141.484 480 136.84C477.969 132.395 475.532 128.147 472.72 124.15C470.36 121.01 468.5 119.84 467.31 120.15C466.12 120.46 465.61 122.22 465.62 125.74C465.63 129.26 466.17 134.51 466.38 138.6C466.712 142.106 466.373 145.642 465.38 149.02C464.38 152.41 462.38 156.28 459.92 158.14C458.876 158.968 457.599 159.447 456.268 159.512C454.937 159.576 453.62 159.223 452.5 158.5C450.46 157.21 449.1 154.69 450.25 149.88ZM352.25 120.2C352.65 118.46 353.08 116.92 353.49 115.42C354.312 112.704 354.908 109.925 355.27 107.11C355.776 101.833 355.408 96.5079 354.18 91.3503C352.97 86.3503 350.96 82.1803 347.45 75.7003C346.45 73.8203 345.3 71.7803 343.92 69.2703C340.77 63.5703 336.45 55.7603 329.11 42.1003L329.44 41.9203C336.78 55.5803 341.09 63.3903 344.24 69.0903C345.63 71.6003 346.76 73.6403 347.78 75.5203C351.31 82.0303 353.32 86.2503 354.54 91.2603C355.781 96.4599 356.153 101.829 355.64 107.15C355.275 109.985 354.677 112.784 353.85 115.52C353.43 117.01 353.01 118.52 352.61 120.29C351.297 126.099 350.627 132.035 350.61 137.99C350.61 144.5 351.74 150.47 357.61 165.09L357.27 165.23C351.39 150.64 350.27 144.4 350.27 137.99C350.278 132.005 350.946 126.039 352.26 120.2H352.25ZM333.25 126.01C333.6 123.17 334.34 121.01 335.5 120.28C336.66 119.55 338.25 120.15 339.91 121.11C341.615 122.015 343.079 123.315 344.18 124.9C344.614 125.703 344.873 126.589 344.94 127.499C345.007 128.409 344.881 129.322 344.57 130.18C343.841 132.525 342.726 134.732 341.27 136.71C339.74 138.83 337.89 140.71 336.44 140.53C334.99 140.35 333.95 138.13 333.44 135.25C332.95 132.19 332.899 129.075 333.29 126L333.25 126.01ZM303.55 101.26C303.47 99.9403 303.39 98.8103 303.29 97.7503C302.63 90.9703 300.71 87.4503 298.75 84.6503C296.79 81.8503 294.31 79.2603 290.21 74.9803L287.8 72.4503L286.09 70.6503C280.55 64.8003 273.65 57.5203 269.59 54.5003L269.81 54.2103C273.9 57.2103 280.81 64.5403 286.36 70.4003L288.07 72.1903L290.48 74.7203C294.59 79.0203 297.07 81.6203 299.05 84.4303C301.03 87.2403 302.99 90.8503 303.66 97.7103C303.76 98.7703 303.84 99.9203 303.92 101.24C304.34 107.68 305.05 118.46 310.85 145.91L310.49 145.98C304.72 118.51 304 107.71 303.59 101.26H303.55ZM199.41 82.1603C198.62 80.2703 198.97 79.0203 200.33 78.4703C201.69 77.9203 204.04 78.1003 206.02 78.6203C207.839 79.1211 209.539 79.9814 211.02 81.1503C212.526 82.2761 213.851 83.6249 214.95 85.1503C216.01 86.6703 216.76 88.3303 216.11 89.8503C215.64 90.7349 214.923 91.4634 214.045 91.9465C213.168 92.4296 212.169 92.6464 211.17 92.5703C208.92 92.4203 206.46 90.7503 204.27 88.6603C202.264 86.8107 200.617 84.6072 199.41 82.1603V82.1603ZM195.18 133.31C195.359 132.261 195.81 131.277 196.487 130.456C197.164 129.635 198.044 129.006 199.04 128.63C201.35 127.63 204.62 127.27 208.04 127.23C211.482 127.181 214.922 127.432 218.32 127.98C220.939 128.303 223.468 129.143 225.76 130.45C226.436 130.854 226.954 131.477 227.229 132.215C227.504 132.953 227.518 133.763 227.27 134.51C226.785 136.349 225.79 138.013 224.4 139.31C223.11 140.43 221.69 140.67 219.55 140.79C217.41 140.91 214.55 140.92 211.75 140.85C208.95 140.78 206.24 140.62 203.75 140.31C201.26 140 199.05 139.52 197.46 138.31C196.689 137.737 196.076 136.977 195.678 136.103C195.279 135.229 195.108 134.268 195.18 133.31V133.31ZM344.68 256.31C343.61 258.31 342.6 260.25 341.54 262.05C338.805 266.792 335.285 271.036 331.13 274.6C330.5 275.15 329.84 275.71 329.13 276.27C324.81 279.58 317.92 283.16 299.23 288.22L299.13 287.86C320.92 281.96 326.6 278.09 330.91 274.32C335.041 270.786 338.538 266.572 341.25 261.86C342.25 260.07 343.31 258.16 344.38 256.14C346.158 252.563 348.162 249.103 350.38 245.78C352.943 242.327 355.754 239.066 358.79 236.02C360.21 234.53 361.67 233.02 363.15 231.34C367.77 226.18 372.52 219.93 379.87 200.34L380.22 200.47C372.85 220.16 368.07 226.47 363.42 231.62C361.95 233.27 360.48 234.82 359.06 236.32C356.045 239.342 353.251 242.577 350.7 246C348.478 249.32 346.467 252.777 344.68 256.35V256.31ZM377.41 238.4C378.794 240.38 379.496 242.756 379.41 245.17C379.153 247.931 378.065 250.55 376.29 252.68C375.661 253.519 374.813 254.17 373.84 254.561C372.867 254.953 371.805 255.07 370.77 254.9C368.89 254.5 367.12 252.96 366.13 250.24C365.128 247.132 364.898 243.827 365.46 240.61C365.798 238.193 366.956 235.966 368.74 234.3C369.31 233.74 370.047 233.382 370.839 233.279C371.632 233.176 372.436 233.334 373.13 233.73C374.913 234.935 376.381 236.551 377.41 238.44V238.4ZM382.41 258.3C379.91 268.69 377.41 275.3 373.17 282.76C368.47 291.02 362.22 298.9 347 310.54L346.78 310.24C361.94 298.65 368.17 290.8 372.85 282.57C377.07 275.17 379.56 268.57 382.05 258.22C385.05 245.92 387.43 230.14 390.13 205.44H390.5C387.76 230.23 385.34 246 382.37 258.34L382.41 258.3ZM419.5 268.51H419.13C417.48 236.94 413.46 225.07 399.55 210.77L399.82 210.51C413.76 225 417.81 236.87 419.46 268.55L419.5 268.51ZM370.5 187C361.92 193.85 354.24 199.87 347.39 205.1C334.59 214.89 324.64 222 316.87 226.91C309.685 231.495 302.117 235.45 294.25 238.73L290.2 240.52C288.56 241.26 286.85 242.05 285.07 242.87C276.31 247.084 267.319 250.8 258.14 254L258.02 253.65C267.158 250.486 276.112 246.813 284.84 242.65L289.98 240.3L293.98 238.51C301.827 235.234 309.379 231.29 316.55 226.72C328.44 219.19 345.46 206.53 370.01 186.94L335.51 170C329.374 174.417 322.329 177.406 314.89 178.75C312.197 179.208 309.479 179.502 306.75 179.63C303.85 179.715 300.969 180.124 298.16 180.85C293.65 182.16 288.78 185.15 283.63 188.32L281.35 189.72C274.473 193.961 267.343 197.778 260 201.15C251.12 205.21 240.14 209.38 222.24 207.33L222.29 206.96C240.09 208.96 251.01 204.86 259.84 200.81C267.178 197.46 274.301 193.659 281.17 189.43L283.45 188.03C288.63 184.85 293.52 181.85 298.08 180.52C300.911 179.787 303.816 179.374 306.74 179.29C309.459 179.162 312.167 178.868 314.85 178.41C322.169 177.09 329.104 174.167 335.16 169.85L269 137.62C261.05 140.37 255.36 142.79 251.69 145C250.566 145.686 249.481 146.433 248.44 147.24C247.409 148.107 246.248 148.806 245 149.31C243.24 149.98 239.29 150.98 232.63 150.11L230.83 149.85C225.42 149.03 217.25 147.85 194.12 152.03L194.05 151.67C217.24 147.42 225.45 148.67 230.88 149.48L232.68 149.74C237.48 150.37 241.92 150.09 244.87 148.96C246.081 148.472 247.208 147.797 248.21 146.96C249.262 146.141 250.361 145.383 251.5 144.69C255.14 142.5 260.73 140.11 268.5 137.4L188.74 98.5403C228.06 113.84 249.65 125.02 272.74 135.97L272.93 135.91L272.99 136.09L276.99 137.96C293.07 145.5 310.41 153.05 338.13 167.57H338.19L338.31 167.72C347.99 172.79 358.94 178.72 371.53 185.79L371.59 185.74L371.71 185.88C378.4 189.64 385.54 193.72 393.22 198.16L370.5 187ZM301 195.23C300.82 193.77 301.83 192.04 303.12 190.66C304.476 189.195 306.204 188.123 308.12 187.56C310.536 186.888 313.024 186.502 315.53 186.41C317.585 186.191 319.663 186.437 321.61 187.13C322.45 187.446 323.199 187.965 323.79 188.64C324.382 189.315 324.797 190.126 325 191C325.186 192.048 325.082 193.127 324.697 194.12C324.313 195.113 323.664 195.981 322.82 196.63C320.88 198.19 317.6 199.05 314.24 199.34C311.138 199.648 308.007 199.405 304.99 198.62C302.59 197.86 301.21 196.68 301 195.23ZM365.4 157.3C364.17 154.63 363.52 151.97 364.4 149.11C365.561 145.912 367.686 143.152 370.48 141.21C372.892 139.436 375.828 138.521 378.82 138.61C379.868 138.663 380.894 138.93 381.835 139.394C382.775 139.858 383.611 140.51 384.29 141.31C384.835 141.991 385.235 142.776 385.466 143.617C385.696 144.458 385.752 145.337 385.63 146.2C385.283 148.482 384.792 150.74 384.16 152.96C383.57 155.43 383.16 158.03 382.76 160.51C382.36 162.99 382.07 165.33 381.27 166.67C380.47 168.01 379.19 168.34 377.27 167.95C374.8 167.379 372.509 166.208 370.6 164.54C368.392 162.506 366.622 160.042 365.4 157.3ZM383.93 181.18C390.561 167.635 396.125 153.592 400.57 139.18C403.29 130.47 404.49 126.06 404.57 120.38C404.65 114.7 403.63 107.85 398.83 74.7803L399.2 74.7303C404 107.82 405 114.73 404.95 120.38C404.9 126.03 403.68 130.55 400.95 139.29C396.5 153.726 390.93 167.792 384.29 181.36L383.93 181.18ZM419.1 160.62C418.625 162.814 417.544 164.83 415.98 166.44C414.773 167.998 413.08 169.106 411.17 169.59C410.182 169.723 409.177 169.657 408.214 169.398C407.251 169.139 406.349 168.691 405.56 168.08C404.737 167.476 404.087 166.667 403.673 165.734C403.259 164.801 403.096 163.776 403.2 162.76C403.578 160.266 404.696 157.942 406.41 156.09C407.862 154.577 409.769 153.58 411.84 153.25C413.95 152.78 416.42 152.54 417.84 153.9C419.26 155.26 419.56 158.22 419.1 160.62V160.62ZM457.81 178.32C446.59 186.9 441.04 190.21 435.11 192.15C430.8 193.55 426.19 194.26 418.55 195.44C413.99 196.14 408.32 197.02 400.93 198.31L400.87 197.94C408.26 196.65 413.93 195.78 418.5 195.07C426.11 193.9 430.71 193.19 435 191.79C441.76 189.58 448.05 185.55 463 173.79L463.23 174.08C461.3 175.63 459.49 177 457.81 178.32V178.32ZM429.52 163.37C423.36 169.64 413.27 178.37 396.8 191.59L396.57 191.3C413.02 178.06 423.11 169.37 429.26 163.11C436.21 156.03 438.64 151.4 441.45 143.71C444.45 135.61 447.9 123.61 448.81 114.22H449.18C448.27 123.65 444.77 135.69 441.8 143.81C439 151.58 436.53 156.24 429.52 163.37V163.37Z" fill="#304F25"/>
<path d="M368.92 152.45C363.92 150.45 358.71 148.32 353.35 148.88C347.99 149.44 342.61 153.63 342.7 159C342.851 160.972 343.36 162.9 344.2 164.69C349.66 178.444 355.123 192.2 360.59 205.96C362.87 211.69 365.19 217.5 368.91 222.42C379.91 236.99 401.61 240.42 418.65 233.88C435.69 227.34 448.46 212.65 457.39 196.72C462.39 187.82 466 175.72 459.03 168.26C454.17 163.1 445 163 440 168C448.69 166.55 454.68 156.25 451.64 148C448.6 139.75 437.37 135.76 429.81 140.28" fill="#F7D1E4"/>
<path d="M401.23 237.76C387.09 237.76 374.92 231.32 368.46 222.76C364.67 217.76 362.33 211.86 360.07 206.16L343.67 164.9C342.811 163.044 342.293 161.049 342.14 159.01C342.04 153.14 347.85 148.88 353.29 148.31C358.92 147.72 364.35 149.95 369.14 151.91L368.71 152.96C364.04 151.05 358.76 148.88 353.41 149.43C348.41 149.96 343.18 153.92 343.27 158.99C343.42 160.892 343.911 162.752 344.72 164.48L361.12 205.75C363.35 211.37 365.66 217.18 369.36 222.08C378.14 233.7 397.82 241.3 418.44 233.35C437.18 226.12 449.7 209.29 456.89 196.44C460.02 190.86 466.44 176.99 458.62 168.65C457.436 167.445 456.023 166.489 454.463 165.84C452.903 165.191 451.229 164.861 449.54 164.87C448.784 164.865 448.029 164.915 447.28 165.02C445.254 166.863 442.747 168.093 440.05 168.57L438.33 168.85L439.56 167.61C441.526 165.675 444.046 164.399 446.77 163.96C447.92 162.881 448.904 161.637 449.69 160.27C451.194 157.531 451.766 154.378 451.32 151.285C450.874 148.193 449.434 145.329 447.218 143.127C445.002 140.924 442.13 139.502 439.035 139.075C435.94 138.648 432.789 139.24 430.06 140.76L429.48 139.76C432.409 137.936 435.868 137.152 439.297 137.538C442.727 137.923 445.926 139.454 448.377 141.883C450.828 144.312 452.388 147.498 452.804 150.923C453.22 154.349 452.468 157.815 450.67 160.76C450.066 161.804 449.356 162.783 448.55 163.68C448.88 163.68 449.22 163.68 449.55 163.68C451.39 163.675 453.214 164.037 454.912 164.747C456.61 165.456 458.15 166.497 459.44 167.81C467.78 176.7 461.13 191.14 457.88 196.93C450.59 209.93 437.88 226.99 418.88 234.34C413.26 236.565 407.274 237.724 401.23 237.76V237.76ZM444.23 165.86C443.657 166.091 443.102 166.365 442.57 166.68C443.146 166.442 443.708 166.168 444.25 165.86H444.23Z" fill="#EB5EA0"/>
<path d="M426.23 150.59C431.37 142.05 426.4 129.25 416.84 126.42C413.903 125.669 410.859 125.425 407.84 125.7C398.039 126.249 388.46 128.841 379.72 133.31C375.25 135.59 370.84 138.55 368.51 143C366.18 147.45 366.63 153.67 370.66 156.66" fill="#F7D1E4"/>
<path d="M370.3 157.11C365.85 153.82 365.63 147.22 367.98 142.73C370.6 137.73 375.77 134.67 379.43 132.8C388.244 128.311 397.895 125.702 407.77 125.14C410.866 124.858 413.988 125.108 417 125.88C419.396 126.735 421.581 128.096 423.405 129.869C425.228 131.643 426.649 133.789 427.57 136.16C428.491 138.532 428.891 141.074 428.743 143.614C428.595 146.154 427.901 148.632 426.71 150.88L425.71 150.29C426.809 148.195 427.448 145.888 427.582 143.526C427.716 141.164 427.342 138.8 426.487 136.594C425.632 134.387 424.314 132.39 422.622 130.735C420.931 129.08 418.905 127.807 416.68 127C413.795 126.265 410.806 126.025 407.84 126.29C398.14 126.847 388.661 129.407 380 133.81C376.47 135.61 371.5 138.55 369 143.26C366.91 147.26 367.08 153.31 371 156.2L370.3 157.11Z" fill="#EB5EA0"/>
<path d="M410.07 160.57C411.265 161.838 412.173 163.349 412.73 165C412.989 165.832 412.977 166.724 412.697 167.549C412.416 168.374 411.882 169.088 411.17 169.59C409.89 170.32 408.3 170.02 406.87 169.68C403.183 168.807 399.517 167.807 395.87 166.68C394.12 166.15 392.28 165.53 391.11 164.12C388.87 161.47 390.17 157.12 392.9 154.97C395.63 152.82 399.28 152.33 402.74 151.97C407.87 151.48 413.15 151.2 418.1 152.62C421.526 153.637 424.671 155.429 427.293 157.856C429.915 160.284 431.943 163.283 433.22 166.62C433.591 167.433 433.733 168.332 433.63 169.22C433.391 170.101 432.921 170.901 432.27 171.54C428.689 175.583 424.144 178.654 419.056 180.466C413.969 182.279 408.506 182.774 403.176 181.907C397.846 181.04 392.822 178.837 388.572 175.505C384.322 172.173 380.984 167.82 378.87 162.85C378.393 161.925 378.166 160.891 378.21 159.85C378.4 158.09 379.91 156.8 381.35 155.77C388.71 150.47 397.41 146.69 406.48 146.33C415.55 145.97 424.98 149.33 430.78 156.33C433.99 160.19 436.03 165.33 435.21 170.24C443 184.89 436.16 205.41 429.49 218.63C428.42 220.76 427.93 223.16 426.69 225.19C424.2 229.3 419.27 231.12 414.69 232.65C412.534 233.494 410.267 234.019 407.96 234.21C402.836 234.218 397.735 233.522 392.8 232.14C388.33 230.59 386.26 226.14 384.06 221.84C374.98 203.92 365.3 179.2 379.21 160.94" fill="#F7D1E4"/>
<path d="M407.28 234.9C402.345 234.827 397.441 234.114 392.69 232.78C388.19 231.22 386.01 226.91 383.9 222.78L383.63 222.24C374.96 205.15 365.07 180.49 377.94 161.98C377.713 161.319 377.628 160.617 377.69 159.92C377.9 157.92 379.51 156.55 381.06 155.44C389.28 149.53 398.06 146.23 406.49 145.9C416.35 145.51 425.61 149.33 431.25 156.12C434.88 160.48 436.54 165.64 435.83 170.3C444.46 186.78 434.66 209.86 430.04 219.04C429.599 219.957 429.212 220.899 428.88 221.86C428.45 223.171 427.894 224.437 427.22 225.64C424.7 229.78 419.97 231.64 414.94 233.34C412.732 234.199 410.411 234.735 408.05 234.93L407.28 234.9ZM378.43 163.23C366.58 181.23 376.2 205.06 384.64 221.69L384.91 222.23C387.01 226.38 388.99 230.3 393.06 231.71C397.926 233.067 402.958 233.74 408.01 233.71C410.261 233.515 412.474 233 414.58 232.18C419.4 230.55 423.93 228.78 426.25 224.96C426.891 223.826 427.417 222.63 427.82 221.39C428.166 220.385 428.57 219.4 429.03 218.44C433.59 209.39 443.28 186.6 434.75 170.57L434.66 170.4V170.21C435.39 165.83 433.82 160.92 430.35 156.75C424.94 150.23 416.04 146.56 406.51 146.94C398.31 147.26 389.73 150.49 381.69 156.27C380.34 157.27 378.95 158.43 378.78 159.95C378.755 160.19 378.755 160.431 378.78 160.67V160.67L379.68 161.36C379.49 161.6 379.32 161.84 379.14 162.08L379.38 162.66C381.463 167.535 384.744 171.804 388.919 175.072C393.094 178.339 398.026 180.499 403.259 181.35C408.492 182.201 413.854 181.716 418.849 179.939C423.844 178.163 428.309 175.154 431.83 171.19C432.409 170.642 432.836 169.953 433.07 169.19C433.144 168.406 433.009 167.616 432.68 166.9C431.442 163.651 429.475 160.73 426.93 158.361C424.385 155.993 421.329 154.241 418 153.24C413 151.79 407.55 152.16 402.84 152.61C399.44 152.93 395.9 153.42 393.3 155.45C391.804 156.649 390.838 158.387 390.61 160.29C390.529 160.913 390.576 161.545 390.748 162.148C390.92 162.752 391.213 163.314 391.61 163.8C392.66 165.06 394.34 165.64 396.11 166.18C399.7 167.28 403.37 168.27 407.03 169.13C408.4 169.45 409.83 169.72 410.92 169.13C411.524 168.681 411.974 168.054 412.205 167.337C412.436 166.62 412.438 165.848 412.21 165.13C411.665 163.563 410.796 162.129 409.66 160.92L410.54 160.21C411.785 161.539 412.727 163.122 413.3 164.85C413.77 166.66 413.3 169.04 411.48 170.07C410.04 170.9 408.29 170.58 406.77 170.22C403.09 169.35 399.39 168.36 395.77 167.22C393.83 166.62 391.99 165.97 390.77 164.48C390.277 163.877 389.913 163.178 389.701 162.428C389.49 161.678 389.435 160.893 389.54 160.12C389.802 157.913 390.923 155.898 392.66 154.51C395.49 152.29 399.22 151.77 402.78 151.43C407.6 150.97 413.16 150.6 418.36 152.1C421.87 153.143 425.093 154.98 427.779 157.468C430.465 159.957 432.542 163.03 433.85 166.45C434.259 167.355 434.412 168.355 434.29 169.34C434.035 170.324 433.516 171.219 432.79 171.93C429.147 176.028 424.529 179.141 419.364 180.981C414.198 182.821 408.652 183.328 403.239 182.456C397.825 181.584 392.719 179.36 388.393 175.991C384.067 172.621 380.661 168.215 378.49 163.18L378.43 163.23Z" fill="#EB5EA0"/>
</g>
<defs>
<clipPath id="clip0_8404_57336">
<rect width="1150.99" height="1150.1" fill="white"/>
</clipPath>
</defs>
</svg>
