<svg xmlns="http://www.w3.org/2000/svg" viewBox="0 0 1119.27 1148.55"><defs><style>.cls-1{fill:#221f20;}.cls-2{fill:#7f7e35;}.cls-3{fill:#304f25;}.cls-4{fill:#fff;}.cls-5{fill:#f7d1e4;}.cls-6{fill:#eb5ea0;}</style></defs><g id="Layer_2" data-name="Layer 2"><g id="drawing"><path class="cls-1" d="M190.58,774.16c1.27,0-.67-.86-.89-.94a12.08,12.08,0,0,0-4.13-1c-1.27,0,.68.86.89.94a12.08,12.08,0,0,0,4.13,1Z"/><path class="cls-1" d="M458.36,134.6c-1,4.06-1.56,8.22-2.15,12.34q-1.65,11.42-2.49,22.93c-1.21,16.78-1.13,33.66,2.13,50.22A159.14,159.14,0,0,0,499,300.76c11.51,11.6,24.71,22.17,40.64,26.79,14.42,4.19,30,3.57,44.46-.08a106.67,106.67,0,0,0,40.76-20.38A134.91,134.91,0,0,0,655.57,271a209.79,209.79,0,0,0,19.36-44.1A259.84,259.84,0,0,0,686,172.75q.63-6.66.91-13.35c.13-3.17-5.6-5.09-5.75-1.39a251.44,251.44,0,0,1-8,53.1,233.6,233.6,0,0,1-16.85,45.68c-13.56,27-34.74,50.84-63.52,61.76-13.44,5.1-28.19,7.66-42.53,5.83a64,64,0,0,1-20.6-6.17A91.81,91.81,0,0,1,510.2,304.5a153.19,153.19,0,0,1-46.46-74.71,159.73,159.73,0,0,1-4.9-46.14A295.31,295.31,0,0,1,463.13,141c.14-.83.3-1.66.46-2.49.1-.56-.09.36.09-.43.05-.25.1-.49.16-.74a3.31,3.31,0,0,0-1.86-3.75c-1.11-.55-3.25-.52-3.62,1Z"/><path class="cls-1" d="M324.92,810.68c-3.51,13.06-6.56,26.05-6.43,39.65a146.4,146.4,0,0,0,5.9,40.93C331.88,915.85,347,937.6,366.68,954a152.65,152.65,0,0,0,37.8,23.05c3.53,1.51,3.48-4.21.8-5.35-22.92-9.81-43.44-25.11-58.28-45.26a119.26,119.26,0,0,1-16.72-31.77c-4.29-12.53-6.17-25.61-6.77-38.81a98.12,98.12,0,0,1,1-19.75,216.55,216.55,0,0,1,5.27-23c.76-2.81-3.84-6.12-4.84-2.41Z"/><path class="cls-1" d="M539.79,323.52c-9.89,9.81-24.74,12-37.92,13.84-7,1-14.1,1.85-21,3.44a101.41,101.41,0,0,0-20.4,7.08C434,360.33,413.9,383.25,399.4,408.13a220.3,220.3,0,0,0-19.68,44.41c-5.68,18-7.69,36.51-8.12,55.36-.39,17.26-.21,34.53-.67,51.8s-1.27,34.38-2.54,51.53c-2.53,34.07-6.79,68.19-14.88,101.42q-1.41,5.83-3,11.62c-.77,2.81,3.82,6.12,4.84,2.42,9-32.59,13.81-66.22,16.81-99.84,3-33.79,4-67.72,4.17-101.63.07-18.84.27-37.81,4.44-56.28,3.71-16.43,10.08-32.36,17.76-47.32,13.16-25.63,31.93-49.8,57.25-64.32a102.55,102.55,0,0,1,19.3-8.6,124.93,124.93,0,0,1,20.61-4.38c13.5-1.95,28.17-3.09,40.2-10.12a39,39,0,0,0,7.72-5.93c2-2-1.51-7-3.81-4.75Z"/><path class="cls-1" d="M459.31,494.6c-9.37,31-8.25,63.95-4.1,95.73,4,30.59,10.08,60.94,12.2,91.76,1,14.19,1.1,28.55-1.13,42.63-.47,3,5.13.84,5.47-1.3,4.22-26.64.85-54-2.85-80.52-4.45-31.89-11-63.72-11.21-96-.11-18.09,1.84-36.21,7.09-53.57.42-1.37-1.2-1.66-2.18-1.43a4.56,4.56,0,0,0-3.29,2.74Z"/><path class="cls-1" d="M762,511.88c-11.34,40.66-11.08,83.6-15.63,125.29-.78,7.18-1.61,14.28-1.9,21.5-.29,7.57-.41,15.14-.79,22.7-.71,14.12-1.51,30.65-9.35,42.94-4.55,7.13-13,10.59-20,14.82l-31.95,19.35c-19.74,11.93-39.8,23.38-59.32,35.64-29.87,18.77-69.06,47.68-105.14,28-9.71-5.3-19-10.18-30.06-12-9.66-1.6-20.3-1.68-29.63,1.67-7.61,2.72-14.62,8.74-15.09,17.32-.43,8,5.51,14.51,11.22,19.31a105.67,105.67,0,0,0,9.4,6.87l2.11-3.89c-25.51,8.66-53.1,12.25-74.55,30-17.37,14.37-22.61,38.36-15.58,59.42,7.16,21.45,26.27,36.81,46.95,44.45a132.92,132.92,0,0,0,72.6,5.2c23.94-5,46.16-16,67.11-28.27,17.19-10.07,34-20.72,50.85-31.42q17.31-11,34.5-22.24c7.25-4.73,14.18-9.9,21.53-14.5a253.07,253.07,0,0,1,32.47-17.39c22.46-9.84,46.85-15.67,71.46-15.45,19.92.18,40.1,8.66,57.45,17.81a136.82,136.82,0,0,1,21.44,13.54c6.86,5.45,11.46,13.19,15.89,20.64a153.07,153.07,0,0,1,20.87,69.1c1.43,23.16-3.6,46.18-11.61,67.82a159.29,159.29,0,0,1-12.48,26.73,68.25,68.25,0,0,1-16.16,18.06c-16.27,13.13-36.09,21.69-55.73,28.4A348.46,348.46,0,0,1,731.6,1138c-54.84,8.15-111,7.33-166.16,3-56.09-4.45-111.74-13.08-167.18-22.5q-19.68-3.36-39.35-6.79a4.37,4.37,0,0,0-4,1.62c-.62.78-1.16,2.45.33,2.71,55,9.55,110.11,19.09,165.63,25.35,56.1,6.32,112.79,9.48,169.17,5.32,44.72-3.31,90.2-11.17,131-30.7,16.42-7.87,34.14-18.11,45-33.21,11.59-16.16,18.68-36.24,23.55-55.35a156,156,0,0,0,2.2-69.34,150.68,150.68,0,0,0-10.65-33.26c-4.85-10.67-10.89-21.51-18.39-30.57-4.12-5-9.89-8.74-15.3-12.17a191.66,191.66,0,0,0-26-13.63A154.62,154.62,0,0,0,792,858.67c-10.4-2.19-20.77-2.2-31.33-1.29-24.09,2.07-47.32,9.25-68.94,19.94a291.75,291.75,0,0,0-32.28,18.78c-5.2,3.45-10.21,7.17-15.44,10.58-30.13,19.62-60.27,39.65-91.71,57.14-21.65,12-45,22.18-70,24.49-24.31,2.26-51.28-2.2-72.15-15.36-19.41-12.23-33.14-32.78-31.74-56.32.67-11.32,5-22.58,13.3-30.52,9.9-9.52,23.31-15.44,36.2-19.65,12.68-4.14,25.76-6.9,38.39-11.18,1.08-.37,3.89-2.7,2.11-3.89-6.55-4.37-13.75-9.2-17.64-16.27a13.79,13.79,0,0,1-1.31-11.24c1.51-4.43,5.36-6.93,9.62-8.37,9.94-3.34,21.81-2.29,31.77.37,11.09,3,20,9.89,30.54,14,16.79,6.56,35.61,2.76,51.8-3.7,17.59-7,33.58-17.45,49.53-27.53,18.84-11.9,38.23-22.95,57.3-34.47q16-9.66,32-19.35,7.71-4.68,15.44-9.34a37,37,0,0,0,8.3-6.36c9.4-10.14,11.57-25.6,12.78-38.78,1.34-14.44.83-29,2.14-43.4.82-9.12,2-18.2,2.83-27.32.94-10.7,1.73-21.41,2.61-32.12,1.72-20.89,3.66-41.87,8-62.41q1.51-7.26,3.49-14.4c.82-2.94-4.92-1-5.53,1.17Z"/><path class="cls-1" d="M651.48,275c5.87,23,24.41,42.76,43.59,55.87,9.23,6.3,19.34,10.24,29.51,14.7C735,350.19,745.4,355,756,359.34c22.8,9.41,46.41,18.24,66.43,33,22,16.19,35.56,40.72,45.83,65.53a291,291,0,0,1,13.46,41.45c3.06,12.39,5.7,24.89,6.49,37.65,1.8,29,0,58.14-1.24,87.12-1.35,31.45-1.21,62.83-5.16,94.12-1.58,12.51-4.07,25.21-11.14,35.89-4.79,7.26-10.79,13.72-17,19.79-16.09,15.77-34.26,29.42-52.56,42.5-18.73,13.39-38,26.07-57.22,38.65q-6,3.94-12.07,7.89c-.91.59,1.77,1.39,2,1.44,1.12.26,2.82.53,3.86-.15,38-24.87,77-49.18,111.2-79.2C863,772.57,878,758.5,883.75,740c4.23-13.64,5.25-28.44,6.41-42.61,1.31-15.82,1.82-31.7,2.16-47.58.66-30.69,2.89-61.32,2.61-92-.11-12.15-.33-24.45-2.55-36.43A342.92,342.92,0,0,0,882.14,480a258.36,258.36,0,0,0-15.93-39.2c-6.18-12.15-13.24-24.46-22.5-34.55-16.51-18-39-29-61.08-38.48-10.83-4.63-21.82-8.9-32.61-13.64-10.55-4.63-21-9.49-31.67-13.87C696,331.1,676,313,664.21,291.94a67.05,67.05,0,0,1-6.6-16.1c-.44-1.74-6.32-1.54-6.13-.81Z"/><path class="cls-1" d="M440.17,714.36a296.59,296.59,0,0,0-51.43,1.73c-8.11,1-16.2,2.26-24.19,4-6.89,1.47-13.81,3.38-20.06,6.7a33.9,33.9,0,0,0-14,13.07,32.32,32.32,0,0,0-3.94,16.66c.26,12.51,6.82,24.76,16.14,32.92,10.73,9.4,24.56,14.1,38.47,16.28,15.49,2.42,31.5,2.16,47.07.66a230.84,230.84,0,0,0,25.33-3.87,148,148,0,0,0,21.78-6c6.71-2.53,13.24-6,18.28-11.2a34.9,34.9,0,0,0,9.09-17.13c2.85-13.77-3.78-26.87-14.07-35.78-11.44-9.9-26.2-13.95-40.83-16.34-4-.65-7.93-1.19-11.91-1.72-1.1-.15.2,2.22.35,2.46.6.93,1.66,2.43,2.88,2.59,14.58,2,30,3.91,42.91,11.48,4.94,2.89,9.71,6.59,12.89,11.42a27.45,27.45,0,0,1,4.33,17,33.63,33.63,0,0,1-6.37,17.54A40.87,40.87,0,0,1,477.68,789a95.46,95.46,0,0,1-19.75,6.72,230.84,230.84,0,0,1-24,4.56,214.94,214.94,0,0,1-45.84,1.55c-13.28-1.06-27.06-3.75-38.63-10.7A39.56,39.56,0,0,1,337,780.06a36.4,36.4,0,0,1-5.91-15.21,33,33,0,0,1,1.58-16.39,30.08,30.08,0,0,1,10.71-13.74c5.33-3.87,11.58-6.29,17.88-8a190.54,190.54,0,0,1,22.12-4.38A297.92,297.92,0,0,1,431.45,719q6,.09,11.95.4c1.11.06-.16-2.16-.35-2.45-.55-.87-1.7-2.53-2.88-2.59Z"/><path class="cls-1" d="M325,799.83a220,220,0,0,0,3.71,27.76c1.87,8.81,4.51,17.86,9,25.72A42.9,42.9,0,0,0,367.23,875c10.18,2.33,20.72,2.18,31.06,3.35,1.28.14,3.23-.7,3.51-2.09.32-1.55-1.39-2.1-2.56-2.23-14.19-1.6-30.93-.46-43-8.65-12.26-8.3-17.74-22.64-20.94-36.54a210.33,210.33,0,0,1-4.2-30c-.24-2.8-6.35-1.88-6.11,1Z"/><path class="cls-1" d="M491.32,815.57c2.55,2.07,5.09-.12,6-2.49a41.6,41.6,0,0,0,1.71-6.42,214,214,0,0,0,3.53-23.49c.48-4.78.81-9.57.89-14.37,0-3.44-6.14-3.21-6.19.25a193.15,193.15,0,0,1-2.68,28c-.59,3.62-1.24,7.25-2.1,10.83-.28,1.16-.58,2.32-1,3.44-.07.21-.16.41-.22.62-.22.66.24-.32,0,0-.08.1-.11.24-.19.34.91-1,2.4-2.15,4.39-.54-2.65-2.14-7.28,1.42-4.23,3.9Z"/><path class="cls-1" d="M496.66,779.39a5.6,5.6,0,0,0,3.94-1.9c.77-1,.42-1.71-.82-1.71a5.65,5.65,0,0,0-3.95,1.89c-.77,1-.41,1.72.83,1.72Z"/><path class="cls-1" d="M331.24,767C322.75,753.35,309.1,742,293,739a44.16,44.16,0,0,0-14.42,0A74.35,74.35,0,0,0,265,742.11a28.79,28.79,0,0,0-11.37,6.83c-3.11,3.24-4.77,7.44-5.86,11.72-4.41,17.24-4.31,37.05,5.76,52.39,8.62,13.14,23.88,21.94,39.78,21.08,14.88-.8,31.13-10.51,36.22-25a28,28,0,0,0,1.25-5.26c.19-1.33-2.28-.62-2.79-.39-1.18.53-2.5,1.5-2.7,2.87-1.9,13.06-14.45,22-26.92,23.52-14.35,1.75-28.66-5.81-37.35-17-10.23-13.12-12.09-30.55-9.46-46.55,1.18-7.16,2.63-16.12,9.9-19.53a47.16,47.16,0,0,1,10.76-3.15,49,49,0,0,1,13.5-1.11c16.92,1.39,31.61,13.78,40.27,27.71,1.07,1.73,6.35-1.51,5.26-3.25Z"/><path class="cls-1" d="M308.18,776.22c-3.94-8-10.88-14.61-19.78-16.43a23.15,23.15,0,0,0-16.48,2.59c-5.08,3.16-7.52,8.85-8.2,14.63-1.29,11,3,23.16,13.2,28.55a22.15,22.15,0,0,0,15.94,2,22.63,22.63,0,0,0,12.62-9.39,30.87,30.87,0,0,0,3.82-7.93,8.51,8.51,0,0,0,.7-3.42c-.06-.48-.14-.95-.22-1.42l-1.34-8.59c-.45-2.91-6.44-1.38-6,1.62l1,6.37a23.17,23.17,0,0,1,.51,3.29c0,.6,0,0-.16.49-.45,1-.68,2.17-1.11,3.21-1.57,3.88-4,7.63-7.62,9.92A13.2,13.2,0,0,1,284,802.91c-9.21-2.91-14.11-12.27-14.43-21.5-.16-4.75.5-10.25,3.71-14,2.64-3.07,7.32-3.78,11.14-3.37,8.43.92,14.7,7.64,18.28,14.89.67,1.34,3,1.06,4.09.53C308.13,778.81,308.85,777.58,308.18,776.22Z"/><path class="cls-1" d="M558.14,363.32c26.07,14.33,58,16.54,86.07,6.74a101.07,101.07,0,0,0,22.49-11.18c1.3-.87-1.83-6.19-2.94-5.45-24.5,16.3-55.84,21.09-84.26,13.78a99.26,99.26,0,0,1-23-9.08c-1.15-.64-.88,1-.69,1.63.36,1.17,1.18,2.93,2.33,3.56Z"/><path class="cls-1" d="M574.26,858.72a160.65,160.65,0,0,1,24.31,64.89c.1.72,5.69-1.2,5.45-3a161,161,0,0,0-24.31-64.89c-.78-1.2-6.11,1.92-5.45,3Z"/><path class="cls-1" d="M519,143.49c-10.88-5.3-20.09-4.14-26.53-3.23s-10.12,1.57-13.4,2.59-6.18,2.39-9.84,3.85-8.08,3-15.47,6.44c3.81-.27,7.62-1.58,11.75-2.92A123.08,123.08,0,0,1,478,146.69a65,65,0,0,1,11.26-1.23,61.87,61.87,0,0,1,10.67.4,35.11,35.11,0,0,1,8.42,2.43,40,40,0,0,0,6.57,2.52,7.48,7.48,0,0,0,5.58-.74c1.49-.95,2.44-2.64-1.49-6.53l0,0Z"/><path class="cls-1" d="M568.84,150.42c5-2,12-2.42,17.93-2.59a84.61,84.61,0,0,1,15.49.63c5,.75,10.15,2.2,25.93,10.5-14.13-3.07-22.93-5.09-28.88-5.57s-9,.58-12.62,1.28S579.06,155.72,568.84,150.42Z"/><path class="cls-1" d="M556.22,221.08a28.54,28.54,0,0,1-9.71,14.22c-.72.56-1-1.36-1-1.68,0-.85,0-2.25.75-2.84a25.35,25.35,0,0,0,5.31-5.58,23.18,23.18,0,0,0,1.87-3.14c.29-.58.55-1.18.8-1.78.11-.28.22-.57.32-.86.21-.57-.1.34.09-.23.05-.18.11-.36.17-.53.15-.51.69-1.66,1.24-.79a4.55,4.55,0,0,1,.17,3.21Z"/><path class="cls-1" d="M516.81,224.09a28.43,28.43,0,0,0,13,11.33c.84.36.62-1.57.56-1.88-.18-.83-.55-2.19-1.44-2.56a25.33,25.33,0,0,1-6.54-4.07,24.43,24.43,0,0,1-2.61-2.57c-.42-.49-.82-1-1.21-1.52l-.53-.75c-.35-.5.18.3-.14-.21l-.3-.47c-.28-.45-1.09-1.43-1.4-.45a4.49,4.49,0,0,0,.65,3.15Z"/><path class="cls-1" d="M573.55,273.65a14.27,14.27,0,0,1-9.38-3.31c-.89-.73-1.78-1.49-2.68-2.26-3.51-3-7.13-6.09-11.36-7.78a16.45,16.45,0,0,0-7.48-.95,42.25,42.25,0,0,0-4.5,1.52c-2.82,1-2.83,1-3.14.86a14.33,14.33,0,0,0-11-.76,34.13,34.13,0,0,0-10.14,5.61l-.72.54a24.2,24.2,0,0,1-7.16,4.19c-3,.92-8.41.61-10.51-2l1-.77c1.74,2.17,6.6,2.4,9.17,1.6a23.31,23.31,0,0,0,6.79-4l.72-.54a34.88,34.88,0,0,1,10.53-5.8,15.61,15.61,0,0,1,11.8.75c.4-.13,1.41-.5,2.31-.83a30.62,30.62,0,0,1,4.84-1.59,17.58,17.58,0,0,1,8,1c4.42,1.77,8.12,4.93,11.7,8,.89.76,1.78,1.52,2.67,2.25a13.42,13.42,0,0,0,10.18,2.95l.11,1.23C574.67,273.62,574.1,273.65,573.55,273.65Z"/><path class="cls-1" d="M536.28,286.62h-1.06c-16.49-.27-28.14-7.82-38.27-15.94l.77-1c10,8,21.4,15.41,37.52,15.68a60,60,0,0,0,37.61-12.2l.75,1A61.17,61.17,0,0,1,536.28,286.62Z"/><path class="cls-1" d="M568.12,275.2a18.6,18.6,0,0,1-7.44-1.54c-.8-.34-1.57-.75-2.32-1.14A17.79,17.79,0,0,0,554,270.7c-2.91-.63-5.79.25-8.84,1.18a29,29,0,0,1-6.58,1.45,27.61,27.61,0,0,1-8.76-1.41,38.92,38.92,0,0,0-5.69-1.28,39.66,39.66,0,0,0-9,.29L501,272.46l-.13-1.23L515,269.7a40.29,40.29,0,0,1,9.26-.29,43,43,0,0,1,5.87,1.31,26.18,26.18,0,0,0,8.36,1.37,27.42,27.42,0,0,0,6.29-1.4c3.07-.93,6.24-1.9,9.46-1.2a19,19,0,0,1,4.67,1.93c.73.39,1.49.78,2.24,1.11a17.48,17.48,0,0,0,12.09.65l.37,1.18A18.32,18.32,0,0,1,568.12,275.2Z"/><path class="cls-1" d="M569.05,176c13.39,7.27,28.79,4.16,42.87.94.71-.16,1.69-.87,1.46-1.71s-1.42-.91-2.12-.75c-12.81,2.92-27.21,6.09-39.45-.56a2.4,2.4,0,0,0-2.57.22c-.53.41-1,1.41-.19,1.86Z"/><path class="cls-1" d="M469.7,175.54c2.82,1.88,6.15,2.34,9.47,2.51a105.2,105.2,0,0,0,11.78.12c7-.42,14.05-2.3,19.35-7.08.65-.58-.55-.79-.89-.79a3.72,3.72,0,0,0-2.39.91c-4.49,4-10.51,5.18-16.37,5.35-3.15.09-6.32,0-9.46-.19-2.85-.16-5.7-.52-8.13-2.13a2.78,2.78,0,0,0-2.34.1c-.23.09-1.63.79-1,1.2Z"/><path class="cls-1" d="M124.46,1012.76a117.49,117.49,0,0,0-6.76,12.86c-1.9,4.35-3.58,9.11-3.68,13.91-.19,9.56,2.57,19.16,6.85,27.63,9,17.87,24.66,31.35,41.75,41.23a169.3,169.3,0,0,0,56,20.1,150.89,150.89,0,0,0,28.86,2.23c11.36-.25,22.31-2.34,33.35-4.89a321.28,321.28,0,0,1,35.51-6.24c12-1.38,24-2.2,36-2.9l9-.51c1.28-.07,3.16-1,3.59-2.32s-.9-1.73-2-1.67c-23.63,1.32-47.35,2.67-70.6,7.42-11.38,2.32-22.61,5.62-34.22,6.64a137.28,137.28,0,0,1-27.86-.54,166.05,166.05,0,0,1-55.21-16.6c-17.14-8.63-33.47-20.6-44.15-36.8-5.24-8-9.24-17-10.61-26.45a33.83,33.83,0,0,1,.25-13.45,64.41,64.41,0,0,1,5.62-13.58c1-1.92,2.1-3.82,3.21-5.7,1.83-3.1-3.87-2.27-5-.37Z"/><path class="cls-1" d="M253.63,749.87c-32.47-2-65.25-4.45-97.77-2.08C126,750,96,755.81,68.47,767.88,55.21,773.7,42.17,781,31.17,790.5a92.09,92.09,0,0,0-25.3,35.41C0,840.56-1.16,856.14,1,871.68c2.26,16.05,6.4,32.54,13,47.4C20.11,933,29.51,944.34,40.18,955A285.53,285.53,0,0,0,74.79,984.2,280.74,280.74,0,0,0,114,1008a212.58,212.58,0,0,0,39.08,14.49,630.93,630.93,0,0,0,82,16.71,531.79,531.79,0,0,0,87.1,4.68A414.12,414.12,0,0,0,410,1032.08a327.75,327.75,0,0,0,83-32.95q9.6-5.49,18.8-11.65c.89-.59,2-2,1-3s-3-.11-4,.52a307.15,307.15,0,0,1-78.5,37.41,381.55,381.55,0,0,1-84.84,16.07,494.12,494.12,0,0,1-85.49-1,602.82,602.82,0,0,1-81.63-13.58c-12.7-3-25.55-6.08-37.89-10.36a214,214,0,0,1-39.3-18.76C76.34,980,52.84,961.52,34,939.52c-10.11-11.8-16.42-26-20.76-40.78-4.7-16-8.57-33.23-7.27-50a82.21,82.21,0,0,1,14-39.46c8.13-12.05,19.14-21.19,31.54-28.59,25-14.94,53.94-22.7,82.62-26.56,30.32-4.08,60.61-3,91.07-1.42q12.81.66,25.61,1.46a4.57,4.57,0,0,0,3.94-1.92,1.41,1.41,0,0,0-1.14-2.33Z"/><path class="cls-1" d="M842.62,782.6a304.49,304.49,0,0,1-3.44,72.93q-1.74,10.26-4.19,20.4c-.25,1.05,5.48,3,5.54,2.76A304.91,304.91,0,0,0,849,806.17q-.06-10.41-.82-20.81c0-.75-2-1.51-2.56-1.8-.2-.1-3-1.2-3-1Z"/><path class="cls-1" d="M149,832.46c1.27,0-.68-.86-.89-.94a12.3,12.3,0,0,0-4.13-.95c-1.27,0,.67.86.89.94a12.3,12.3,0,0,0,4.13,1Z"/><path class="cls-1" d="M147.41,832.58c24.61,0,48.92,4.91,72.48,11.71,12.05,3.49,24,7.46,35.79,11.59,11.28,3.93,22.6,7.82,33.72,12.19,11.89,4.67,23.56,10.23,33.76,18,1.1.84,3,1.41,4.25.62s.78-2.21-.21-3c-19.29-14.71-43-22.08-65.57-30-24-8.46-48.32-16.47-73.4-21.2a231.16,231.16,0,0,0-42.72-4.19c-1.25,0-2.42,1-1.9,2.28s2.44,2,3.8,2Z"/><path class="cls-1" d="M353.07,1046.42c-10.92,16.21-6.08,36.26.4,53.16.39,1,6.11-1.34,5.65-2.55-6.25-16.29-11.44-36.31-.83-52,.7-1-.92-.72-1.48-.57-1.12.3-3,1-3.74,2Z"/><path class="cls-1" d="M562.7,78.56a41.17,41.17,0,0,1,27-1.46c1.68.49,4,1,4.89,2.65,1,1.82.4,4.46.27,6.44a73.48,73.48,0,0,0,0,12.76,26,26,0,0,0,4,11.73,22.5,22.5,0,0,0,9.17,7.5c8,3.78,17.2,3.51,25.83,2.91,9-.62,18.59-1.58,26.54,3.46a17.42,17.42,0,0,1,7.08,7.94c1.6,4,1,8.23-.3,12.28-1.34,4.22-3.27,8.28-4,12.68a22.06,22.06,0,0,0,1.27,11.81,23.37,23.37,0,0,0,7,9.59A33,33,0,0,0,682,184c6.56,2.16,14.72,3.88,17.48,11.12,2.91,7.63.2,16.1,1.65,24a20.72,20.72,0,0,0,1.93,5.61c1.11,2.19,6.94.32,5.6-2.34-3.77-7.44-1-16.4-2.09-24.33a17.18,17.18,0,0,0-5-10.25,26.68,26.68,0,0,0-10-5.52c-3.61-1.25-7.32-2.19-10.82-3.75a19.65,19.65,0,0,1-8.73-7.6,20,20,0,0,1-3-11.35c.23-4.58,2.13-8.85,3.63-13.11s2.56-8.48,1.66-12.85a18.28,18.28,0,0,0-5.95-9.75c-6.86-6.21-16.36-7.5-25.26-7.25-9.21.26-18.75,2.16-27.76-.65a20.33,20.33,0,0,1-9.68-6.05A22.14,22.14,0,0,1,601,98.29a65.31,65.31,0,0,1-.09-12.89c.15-2.2.61-4.73-.2-6.84a7.69,7.69,0,0,0-4.4-4.1,40.36,40.36,0,0,0-14.07-2.94,50.18,50.18,0,0,0-22,3.72c-1.06.43-2.36,1.61-1.58,2.83s2.93.94,4,.49Z"/><path class="cls-1" d="M548.08,75.16c-17.72-2.15-37.61-1-51.52,11.55a36.9,36.9,0,0,0-7.34,9c-2.09,3.68-3,7.81-4.85,11.6a14,14,0,0,1-7.5,7.25,32.23,32.23,0,0,1-10.31,1.87c-4.05.24-8.12.28-12.16.77a61.46,61.46,0,0,0-13.29,3.19,58.9,58.9,0,0,0-12.31,6.12c-3.34,2.19-6.48,5-7.73,8.93-2.33,7.28,3.76,13.88,6.87,19.85a15.89,15.89,0,0,1,1.63,11.39c-1,4.19-3.52,7.93-6.32,11.14-5.55,6.36-13,11.07-17.19,18.57-3.27,5.82-4.06,14,.12,19.62a14.67,14.67,0,0,0,3.95,3.54,4.14,4.14,0,0,0,4.28,0c1.16-1,.3-2.08-.68-2.71-5.33-3.4-5-11.78-2.77-16.88,3.24-7.43,10.37-12.33,15.89-17.93s10.71-13.47,9-21.82c-1.46-7-7.58-12.06-8.94-19.05-1.61-8.25,7.91-13.09,14.1-15.86,7.6-3.39,15.44-4.56,23.68-4.92,7.05-.3,15.14-.61,20.88-5.28,3.09-2.52,4.74-5.94,6.09-9.6a43.9,43.9,0,0,1,5.18-10.78c11.49-16,32.61-18.06,50.66-15.87,1.09.13,3.09.07,3.35-1.35s-1.74-2.22-2.75-2.34Z"/><path class="cls-1" d="M529.86,13.44a72.89,72.89,0,0,0-55.8,1.67,68.06,68.06,0,0,0-12.68,7.44c-4.09,3.06-7.13,6.52-7.66,11.78s.7,10.49-1.11,15.53a22,22,0,0,1-7.88,10c-8.57,6.34-19.4,7.13-29.48,9.31-9.28,2-17.68,6.11-24.12,13.21-5.55,6.11-9.33,14.33-7.82,22.71.87,4.87,4.1,8.76,5.28,13.5,1.14,4.54-.17,9.07-2.55,13-5.09,8.35-13.64,13.63-20.23,20.63s-11.53,16.3-9.29,26.13c1.91,8.39,9.66,13.87,16.41,18.38,2.26,1.51,5.05,2.92,6.6,5.22a10.66,10.66,0,0,1,.16,11.2c-2.24,4.08-6,7-9.12,10.39a57.31,57.31,0,0,0-8.5,11.88c-3.88,7.36-5.93,16.38-1.5,24,4.9,8.42,14,12.59,22.66,16,3.66,1.43,8.65,3.08,11.17,6.08,3.19,3.78,3.63,8.65,2.07,13.23-3.34,9.85-11.43,17.32-17,25.9-4.6,7.12-7.76,16.29-5.2,24.74s10.59,12.76,17.47,17.11a17.1,17.1,0,0,1,2.12,1.43c.19.17.16.19-.08-.09a6.26,6.26,0,0,1,.53.74,8.13,8.13,0,0,1,1,5.58c-.61,3.61-3.16,6.56-5.17,9.49s-3.59,5.85-2.91,9.36c.2,1,1.87,2.16,2.62,2.78.22.18,2.07,1.53,2,1-1.5-7.7,8-12.35,8.21-19.82.1-3.89-2.46-6.85-5.16-9.34a58.62,58.62,0,0,0-9.66-6.81,21.06,21.06,0,0,1-3.69-2.44,12.34,12.34,0,0,1-2.7-5.21,24.65,24.65,0,0,1,.12-13.28c2.46-9.44,9.23-16.7,14.86-24.38,5.43-7.43,11.57-17.17,5.45-26-5.46-7.83-13.95-11.8-22.51-15.17-3.67-1.45-8.7-3-11.1-6.35a18.36,18.36,0,0,1-2.91-12.94c1.12-9,6.67-17.32,12.76-23.82,3.24-3.47,7.23-6.55,9.23-11a11.12,11.12,0,0,0-.39-10.12c-3.75-6.75-11.31-10.59-17.36-14.94-7.26-5.24-7.72-15.3-4.56-23.1,3.79-9.35,11.88-15.39,19.06-22,6.23-5.72,13.47-13.41,11.87-22.63-.84-4.85-4.2-8.79-5.31-13.58a22.43,22.43,0,0,1,1-12.71c3-8.09,9.55-14.67,16.93-18.89,9.23-5.3,20-5.64,30.05-8.29,8.6-2.26,17.95-7.1,21.15-16,1.73-4.84.69-9.91,1.05-14.9.41-5.54,3.41-9.2,7.72-12.42,15.41-11.49,35.66-16,54.56-12.84a69.53,69.53,0,0,1,13.59,3.77c.49.18-1.13-1.76-1.23-1.86a10,10,0,0,0-3-2.32Z"/><path class="cls-1" d="M567,28.44A28.67,28.67,0,0,1,583.45,7.22a27,27,0,0,1,26.9,3.18,19,19,0,0,1,4.22,4.23,37.07,37.07,0,0,1,3.2,6.47c2.12,4.76,5.21,9.36,9.9,11.91,8.35,4.54,18.4.83,26.65-1.94,5-1.7,10.36-3.28,15.73-2.87a15,15,0,0,1,7.2,2.31,9.21,9.21,0,0,1,1.51,1.25,4.49,4.49,0,0,1,.75,1c1.8,2.95,2.54,6.55,3.18,9.91.71,3.74,1.18,7.53,1.92,11.27,1.51,7.53,4.85,15.16,11.68,19.31,4.62,2.81,10.09,2.64,15.3,3A26.52,26.52,0,0,1,725,80.88c7.53,5.3,10.82,14.58,9.42,23.56-1.62,10.38-8.13,20.13-5.93,30.94,3.13,15.33,19,22.93,31,30.38a69.62,69.62,0,0,1,8.69,6.16,20.67,20.67,0,0,1,5.55,6.64c3.56,7.05,2.38,15.16-.3,22.27-3,8.06-7.75,15.37-11.65,23-3.72,7.28-7.07,15.2-6.85,23.53.23,9.23,4.85,17.54,9.17,25.44,4.13,7.57,8.83,15.8,7.49,24.76-1.62,10.87-11.36,17.56-17.53,25.82-3,4-5.59,8.81-5.68,13.92-.08,4.82,2.33,9.43,5.47,12.95,2.85,3.19,6.69,5.83,11.15,5.05,1.06-.18-1.93-5.2-3.35-4.95-4,.69-7.56-1.09-8.71-5-1.49-5.08.58-10.47,3.33-14.74,5.63-8.76,15.26-14.94,18.57-25.17,2.85-8.83-.72-17.75-4.74-25.58-4.13-8-9.55-15.89-10.87-25C758,246.4,761,238,764.66,230.57c3.77-7.72,8.44-15,11.81-22.9,3.07-7.19,4.78-15.07,2.33-22.71s-8-13.82-14.19-18.62c-5.92-4.55-12.58-8-18.85-12a55.1,55.1,0,0,1-8.27-6.23,19.12,19.12,0,0,1-2.43-2.76,16.17,16.17,0,0,1-1.95-3.9c-3.46-10.06,2.55-20.12,4.8-29.74,2.32-9.89-.56-19.42-6.75-27.32a36.77,36.77,0,0,0-10.88-9.52,31.41,31.41,0,0,0-13.83-3.62C701.8,71,696.21,71,692.51,67.7a3.25,3.25,0,0,1-.77-.86,11.79,11.79,0,0,1-.9-1.62,27.32,27.32,0,0,1-1.65-4.89c-1.84-7.36-2-15.11-4.8-22.23-3.24-8.26-10.32-15-19.58-14.91-10.31.09-19.35,6.16-29.57,6.85-3.88.26-9.22,0-12.08-3.09-1.53-1.63-2.21-4.27-3.11-6.27a36.34,36.34,0,0,0-3.78-6.57C610.52,6.23,601.64.46,591.72,0A28.24,28.24,0,0,0,568,11.82,28.36,28.36,0,0,0,562.92,24c-.18,1.11,1.23,2.61,1.91,3.35.21.23,2,2,2.14,1.06Z"/><path class="cls-1" d="M582.52,50.22c7.92-12.77,27.16-17.6,38.94-7,5.65,5.08,5.95,13.57,8.66,20.19A27.27,27.27,0,0,0,646,78.54c13,4.5,28-.8,40.26,6.77,1.82,1.12,2.66,2.39,3.3,5,.9,3.75,0,7.48-1.45,11-2.67,6.53-6.79,12.9-5.11,20.26,1.6,7.06,7.45,12.85,12.94,17.15,5.82,4.56,12.43,7.47,18.85,11,5.52,3.07,11.45,6.69,13.73,12.92a16.61,16.61,0,0,1,.33,10.27c-1.05,3.69-3.07,7-4.81,10.39a26.52,26.52,0,0,0-3.41,11.12,24.24,24.24,0,0,0,2.55,11.11c3.73,7.91,10.25,13.88,16.78,19.46,2.74,2.36,4.64,5,5.13,8.7.52,4.05-.84,8-2.79,11.54-4.06,7.32-10.83,12.35-16,18.81-4.55,5.71-7.59,12.71-5.09,20,2.16,6.27,6.92,11.12,10.7,16.41a25.1,25.1,0,0,1,4.23,8.3c1.05,4.09.23,8.14-.77,12.15-.95,3.82-2.14,7.87-1.25,11.81a18.7,18.7,0,0,0,5.74,9.22c2.31,2.17,4.93,3.94,8.22,3.21.34-.07-1.65-2.42-1.8-2.57-.49-.5-1.72-2-2.55-1.83a6.1,6.1,0,0,1-2.37.08c-.55-.1-1.37-.71-1.86-.7s1,1.35.71.7c-.14-.31-.4-.63-.56-.94a12.12,12.12,0,0,1-1-2.72c-1-4,.15-8,1.11-11.85s1.86-8.05.91-12.13a26.76,26.76,0,0,0-4-8.48c-3.55-5.4-8.67-10.08-10.93-16.24-2.67-7.28.34-14.26,4.92-20,5.15-6.46,11.91-11.5,16-18.81a20.16,20.16,0,0,0,2.9-11.18c-.33-4.12-2.56-7.62-5.23-10.64a101.37,101.37,0,0,0-9.08-8.38,32.79,32.79,0,0,1-7.26-9.14A23.86,23.86,0,0,1,725,199c.05-4,1.56-7.72,3.37-11.25,3.36-6.53,7.2-13.11,4.66-20.64-2.37-7-8.51-12.7-14.34-16.93S706,143.1,699.77,139.4c-5.3-3.13-10.45-6.8-12.18-13-2.14-7.69,2.34-14.25,5-21.1a18.61,18.61,0,0,0,1.47-10.16,17.51,17.51,0,0,0-4.61-8.45,30.92,30.92,0,0,0-17.3-9.49c-6.87-1.36-13.9-.65-20.84-1.26a36.61,36.61,0,0,1-10.51-2.25,13.58,13.58,0,0,1-3.92-2.18A10.18,10.18,0,0,1,634.77,68c-1.67-3.65-2.39-7.65-3.61-11.46a31.94,31.94,0,0,0-5.43-10.24c-4.73-6-11.17-11-18.67-12.74a27.25,27.25,0,0,0-28.89,12.21c-.62,1,4.17,4.7,4.35,4.41Z"/><path class="cls-1" d="M565.42,46.21C550.84,34.68,530.09,30.36,512,34.59c-4.19,1-9,2.3-12.61,4.79a6.13,6.13,0,0,0-2.87,5.44c.09,2.46.73,4.72.32,7.2-1.53,9.37-10.88,14.89-19.33,17-9.76,2.44-20.21,2.32-29.28,7.15A23.51,23.51,0,0,0,439,84.51C436.33,89,436.67,94,435.9,99c-2.11,13.73-17.14,18.92-27.61,25.12-5.11,3-10.32,6.72-13.06,12.17-4,7.95-.59,16.35,2.3,24,1.69,4.51,3.18,9.11,3.11,14a39.67,39.67,0,0,1-2.59,12.62c-2.9,8.2-7.37,15.93-9,24.55a27.1,27.1,0,0,0,4.31,20.66c3.83,5.64,9.1,10.16,14.23,14.57,9.84,8.46,21.95,18.33,18.95,32.89-1.77,8.6-7.5,15.93-8.73,24.68-1.16,8.21,3.41,14.78,8.26,20.9,4.38,5.51,10,11.81,8.73,19.4-1.53,9.34-11.64,13.82-16.3,21.35-2.34,3.79-3.48,8.21-1.54,12.41.42.92,2.76,1.17,3.62,1.28.38.05,2.69.32,2.31-.51-2-4.37-.27-9.13,2.28-12.88,2.66-3.91,6.48-6.77,9.73-10.15,2.87-3,5.47-6.47,6-10.69a16.33,16.33,0,0,0-2-9.71c-3.42-6.59-9.23-11.58-12.74-18.12a19.28,19.28,0,0,1-2.37-11.35c.46-4.27,2.16-8.29,3.88-12.18,3.19-7.22,6.77-14.72,4.87-22.79-1.43-6.08-5.34-11.09-9.69-15.41-9.1-9.05-21.9-16.38-26.72-28.87-6.38-16.55,8-31.76,10.28-47.58a29.74,29.74,0,0,0-1.07-12.85c-1.36-4.56-3.39-8.88-4.72-13.45-2.09-7.19-1.35-14.46,3.84-20.09,8.57-9.26,21.95-12,31-20.7a22.69,22.69,0,0,0,5-6.79c1.91-4.16,1.69-8.68,2.35-13.11,1.39-9.18,9.24-14.72,17.63-17.25,9.8-3,20.56-2.42,29.9-7,7.52-3.66,13.82-10.93,12.61-19.72-.36-2.56-.61-5,1.51-6.89a19,19,0,0,1,5.81-3,51.92,51.92,0,0,1,13.33-3.22A49.1,49.1,0,0,1,548.65,39,52.41,52.41,0,0,1,560,45.93,7.58,7.58,0,0,0,564.12,47c.52,0,2.32,0,1.3-.83Z"/><path class="cls-1" d="M440,199.69c-4,2-5.38,6.26-4.93,10.54.5,4.89,3.14,8.9,6.52,12.32,3.73,3.78,8.28,7,10.74,11.86,3,5.83,1.42,12.74.27,18.84-2,10.52-2.52,22.88,6.33,30.58,3.68,3.2,8.31,5.19,11.79,8.62,4.38,4.31,3.56,10.27,1.29,15.46-2.61,6-7.41,11.88-6.57,18.82a12.41,12.41,0,0,0,12.41,10.86c1.07,0,2.3-.62,1.66-1.82s-2.68-1.71-3.92-1.7c-.52,0-.61-.05-1.14-.45a7.49,7.49,0,0,1-2-2.58,10.73,10.73,0,0,1-.87-7c1.1-5.8,5-10.53,7-16,1.94-5.18,1.94-10.75-1.72-15.16-3.05-3.65-7.34-5.85-11.17-8.55A18.75,18.75,0,0,1,458,272.76a39.64,39.64,0,0,1,.11-15.65c1-5.89,2.65-12,1.47-18-1.05-5.34-4.59-9.43-8.43-13.06s-7.93-6.8-9.49-11.88c-1.22-3.95-1.21-9.33,3-11.47,1.25-.64.35-1.88-.48-2.42a4.73,4.73,0,0,0-4.23-.59Z"/><path class="cls-1" d="M693.56,221.65c.62-.27.16-.34.08-.27-.27.24-.41-.54.09.21a4.89,4.89,0,0,1,1,2.21c.28,2.16-1.2,4.26-2.45,5.88-2.66,3.43-5.2,6.6-6.85,10.68-3,7.47-3.07,16.72,2.59,23,2.63,2.92,6.11,4.82,9.27,7.08,2.55,1.82,5.11,4.09,4.85,7.52-.31,4.11-4.24,7.15-6.82,10a19.06,19.06,0,0,0-5.46,11.84,12.18,12.18,0,0,0,6.83,11.66c4.2,2.18,9.44,2.24,13.08-1,1.12-1-.59-2.55-1.41-2.95a3.61,3.61,0,0,0-4,.3c-2.2,1.94-5.16.89-6.82-1.14-2.64-3.23-1.75-8.23,0-11.65,3.42-6.68,13.81-11.64,9.82-20.52-3.12-6.94-12.09-8.28-15.8-14.65-4-6.84-1.89-15.9,2.14-22.22,2.52-4,7.23-7.5,7.14-12.61-.08-4.94-6-9.34-10.72-7.27-3.42,1.52,1.08,5,3.45,3.91Z"/><path class="cls-1" d="M701.83,42c12.94-4.67,31.52-5.83,39.37,8.06a15.57,15.57,0,0,1,2.12,8.29c-.16,3.84-1.65,7.46-2.67,11.13-1.77,6.29-1.85,12.59,1.52,18.36,5.43,9.28,15.89,13.93,23.85,20.64,4,3.4,7,7,8.41,12.33,1.62,6.26,1,13,1.15,19.36.18,6.67,1.21,13.4,5.2,18.93,3.23,4.49,8.14,7.33,13.05,9.64,4.55,2.15,9.63,3.9,13.55,6.9a11.14,11.14,0,0,1,2.19,2.05l.38.48c.6.78-.28-.5.23.34.16.26.32.53.46.81.05.1.39.9.19.39,1.19,3,.53,6.37-.64,9.57-2.78,7.58-7.46,14.26-11.16,21.4-3.48,6.71-5.92,14-5.61,21.67.3,7.33,3.72,13.36,8.86,18.39,3.89,3.8,9.51,7.76,9.57,13.69.07,6.53-5.44,12.29-8.85,17.36A37.16,37.16,0,0,0,796.49,299a41.56,41.56,0,0,0,12,33.53,35.85,35.85,0,0,0,7.28,5.45,1.88,1.88,0,0,0,2.77-1.53,4,4,0,0,0-2.12-3.83c-9.82-5.63-15.31-17-15.28-28.12A31.08,31.08,0,0,1,805.88,288c3.7-5.86,8.75-11.21,10.41-18.12s-1.49-13.2-6.23-18.07c-4.34-4.45-9.72-8.23-11.25-14.61-1.64-6.89.6-14.29,3.55-20.5,3.46-7.28,8.17-13.91,11.37-21.32,1.62-3.77,2.94-7.8,2.65-12a16.41,16.41,0,0,0-3.09-8.3c-3-4.24-7.83-6.76-12.44-8.88s-9.85-4-14-7.36c-4.34-3.51-5.86-8.91-6.26-14.54-.48-6.66.19-13.38-.79-20a30.15,30.15,0,0,0-7.73-16.51c-3.78-4-8.32-7.22-12.84-10.38-4.15-2.91-8.5-5.84-11.6-9.58a14.33,14.33,0,0,1-2.92-5.27,17.22,17.22,0,0,1,.21-8.68c.95-3.76,2.43-7.37,3-11.21a22.19,22.19,0,0,0-.92-10.48,28.78,28.78,0,0,0-13.41-15.57c-6.88-3.84-15.21-4.44-22.87-3.28a63.13,63.13,0,0,0-11.94,3.17c-1.43.51-1,2.83-.47,3.79A2.88,2.88,0,0,0,701.83,42Z"/></g><g id="matitas"><path class="cls-2" d="M798.79,407.81c14.46-33.49,25.81-48.69,33.82-62.69s12.68-26.78,19.78-41.83,16.65-32.38,26-45.7C897.05,231,914.92,220.35,926,213.91a95,95,0,0,1,15-7.6c5.7-2.2,13.3-4.43,25.77-8.71S996.53,187,1020,185.75s53.15,2.64,70.32,6.51S1112.23,200,1119,209c-1.3,17.61-27,35.77-50.66,51.7s-45.27,29.64-66.58,44S959.4,334,942.08,343.82a150.1,150.1,0,0,1-46.7,17.66c-15.77,3.28-33.7,5.25-50.71,11.08S811.57,388.1,798.79,407.81Z"/><path class="cls-3" d="M799.05,408l-.55-.29A365.92,365.92,0,0,1,826,355.53c2.29-3.69,4.44-7.19,6.37-10.56a275.32,275.32,0,0,0,13.16-27.15c2.07-4.7,4.2-9.56,6.61-14.66,7.94-16.82,17.42-33.49,26-45.75,18.93-27,36.92-37.49,47.67-43.77A95.24,95.24,0,0,1,940.86,206c3.22-1.25,7.1-2.51,12-4.12,3.9-1.28,8.33-2.73,13.76-4.59l1.88-.65c12.29-4.24,29.12-10,51.5-11.21,23.11-1.21,52.7,2.52,70.41,6.5s22.3,8.17,28.78,16.81l.07.1V209c-1.28,17.23-24.76,34.4-50.8,51.94-12.1,8.15-23.7,15.74-34.92,23.08-10.93,7.15-21.25,13.9-31.66,20.91-5.17,3.49-10.37,7-15.4,10.49-16,10.93-31.12,21.27-44.24,28.7a151.44,151.44,0,0,1-46.79,17.69c-4.67,1-9.43,1.81-14.47,2.7-11.92,2.1-24.25,4.27-36.21,8.38C824.64,379.76,810.11,390.92,799.05,408Zm230.31-222.15c-3.19,0-6.31.08-9.32.23-22.29,1.17-39.07,7-51.32,11.18l-1.88.65c-5.44,1.87-9.87,3.32-13.78,4.6-4.9,1.6-8.77,2.87-12,4.11a95.36,95.36,0,0,0-15,7.57c-10.7,6.26-28.62,16.72-47.47,43.6-8.58,12.23-18,28.87-26,45.65-2.4,5.1-4.54,9.95-6.6,14.65a278.74,278.74,0,0,1-13.19,27.21c-1.94,3.38-4.09,6.88-6.38,10.58a362.86,362.86,0,0,0-26.06,48.95c10.89-15.59,25-26,44.13-32.54,12-4.12,24.36-6.29,36.3-8.4,5-.89,9.8-1.73,14.45-2.69a150.8,150.8,0,0,0,46.61-17.63c13.1-7.42,28.21-17.74,44.2-28.68,5-3.44,10.24-7,15.41-10.48,10.41-7,20.73-13.77,31.66-20.92,11.22-7.34,22.82-14.93,34.92-23.07C1094,243,1117.28,226,1118.63,209c-6.48-8.64-10.91-12.56-28.34-16.48A306.15,306.15,0,0,0,1029.36,185.83Z"/><path class="cls-4" d="M852.06,340.62l-.42-.46c54-49.35,88.06-71,111.68-84.34,24.56-13.87,45.22-22.74,71.31-30.63,26.63-8,52.62-13.15,84.29-16.55l.06.62c-31.62,3.39-57.58,8.49-84.17,16.52a329.66,329.66,0,0,0-71.18,30.58C940,269.69,906,291.31,852.06,340.62Z"/><path class="cls-5" d="M881.15,260.94c-4.5-2.18-9.23-4.4-14.23-4.18s-10.21,3.79-10.44,8.78a15.27,15.27,0,0,0,1.07,5.35q6.42,19.58,12.86,39.16c1.78,5.44,3.6,11,6.77,15.73,9.38,14.12,29.28,18.55,45.43,13.42s28.82-18,38-32.24c5.12-7.95,9.18-19,3.13-26.27-4.2-5.06-12.74-5.7-17.65-1.31,8.14-.85,14.27-10.05,11.92-17.89s-12.53-12.14-19.79-8.38"/><path class="cls-6" d="M908.9,342c-14.3,0-26.35-7-32.24-15.86-3.23-4.87-5.07-10.46-6.84-15.88L857,271.08a15.91,15.91,0,0,1-1.09-5.57c.24-5.5,5.91-9.15,11-9.37s10.18,2.15,14.52,4.24l-.54,1.12c-4.21-2-9-4.34-13.93-4.13-4.59.2-9.64,3.54-9.85,8.2a14.63,14.63,0,0,0,1,5.13L871,309.86c1.75,5.33,3.57,10.85,6.71,15.58,7.45,11.23,25.21,19.36,44.72,13.17,17.75-5.63,30.28-20.5,37.66-32,3.2-5,9.92-17.42,3.18-25.54a11.63,11.63,0,0,0-8.13-4,12.87,12.87,0,0,0-2.06,0,13.49,13.49,0,0,1-6.92,2.88l-1.91.2,1.43-1.28a12.49,12.49,0,0,1,6.91-3,14.84,14.84,0,0,0,2.88-3.21,13.27,13.27,0,0,0-17-19l-.57-1.1a14.33,14.33,0,0,1,18.57,20.84,16.41,16.41,0,0,1-2,2.44l.72,0a12.88,12.88,0,0,1,9,4.43c7.26,8.75.26,21.8-3.09,27-7.49,11.65-20.23,26.75-38.32,32.49A46,46,0,0,1,908.9,342Z"/><path class="cls-5" d="M934.34,262.45c5.26-7.62,1.37-19.76-7.33-22.91a24.64,24.64,0,0,0-8.33-1.18,65.49,65.49,0,0,0-26.47,5.45c-4.28,1.87-8.53,4.36-10.94,8.35s-2.35,9.78,1.23,12.77"/><path class="cls-6" d="M882.1,265.41c-4-3.33-3.81-9.52-1.36-13.57,2.72-4.5,7.71-7.06,11.22-8.59a66.85,66.85,0,0,1,26.73-5.51,25,25,0,0,1,8.53,1.22,16.53,16.53,0,0,1,7.63,23.85l-1-.71a15.3,15.3,0,0,0-7-22,24.3,24.3,0,0,0-8.12-1.15,65.23,65.23,0,0,0-26.23,5.41c-3.35,1.47-8.11,3.9-10.65,8.1-2.14,3.53-2.33,9.12,1.09,12Z"/><path class="cls-5" d="M918.81,270.79a11.14,11.14,0,0,1,2.21,4.26,3.82,3.82,0,0,1-1.7,4.16c-1.22.6-2.68.23-4-.16q-5-1.51-10-3.36a8.85,8.85,0,0,1-4.27-2.64c-1.93-2.59-.48-6.55,2.18-8.38s6-2.08,9.28-2.19c4.78-.17,9.68-.13,14.2,1.47A21.59,21.59,0,0,1,940,277.78a4.56,4.56,0,0,1,.24,2.42,4.78,4.78,0,0,1-1.4,2.07,29.73,29.73,0,0,1-49-11.06,5.55,5.55,0,0,1-.44-2.8c.27-1.62,1.74-2.73,3.13-3.6,7.13-4.5,15.39-7.51,23.82-7.33s17,3.86,21.95,10.65c2.75,3.76,4.36,8.61,3.31,13.15,6.4,14-1.11,32.63-8,44.51-1.11,1.9-1.7,4.1-3,5.92-2.55,3.66-7.21,5.07-11.52,6.23a22.09,22.09,0,0,1-6.32,1.06,52,52,0,0,1-13.93-2.77c-4.05-1.69-5.72-5.9-7.51-10-7.41-17.12-15-40.57-1.06-56.69"/><path class="cls-6" d="M913.05,339.63h-.32a52.52,52.52,0,0,1-14.14-2.82c-4.12-1.72-5.9-5.86-7.63-9.86l-.22-.51c-7.07-16.33-14.84-39.75-1.88-56.21a4.78,4.78,0,0,1-.1-1.92c.31-1.84,1.9-3.06,3.41-4,8-5,16.35-7.59,24.16-7.42,9.19.2,17.58,4.28,22.44,10.91,3.12,4.26,4.37,9.14,3.46,13.44,7,15.8-3.33,36.64-8.14,44.89a22.88,22.88,0,0,0-1.23,2.54,20.14,20.14,0,0,1-1.76,3.42c-2.59,3.72-7.09,5.19-11.87,6.48A24.06,24.06,0,0,1,913.05,339.63Zm-23.74-68c-11.81,15.92-4.27,38.47,2.57,54.28l.22.51c1.7,3.95,3.31,7.68,7,9.21a52,52,0,0,0,13.71,2.72,21.48,21.48,0,0,0,6.14-1c4.55-1.23,8.82-2.61,11.17-6a18.91,18.91,0,0,0,1.65-3.2,23.46,23.46,0,0,1,1.29-2.68c4.73-8.11,15-28.64,8-43.93l-.09-.2.05-.2c.92-4-.25-8.6-3.21-12.64-4.64-6.32-12.66-10.21-21.47-10.4-7.64-.16-15.71,2.33-23.47,7.23-1.28.81-2.62,1.82-2.85,3.18a2.9,2.9,0,0,0,0,.72l.77.67-.5.6c0,.17.11.34.17.5a29.12,29.12,0,0,0,48,10.84,4.36,4.36,0,0,0,1.24-1.79,4.13,4.13,0,0,0-.23-2.09,21,21,0,0,0-12.83-13.43c-4.55-1.61-9.6-1.59-14-1.43-3.16.1-6.45.35-8.95,2.08a6.64,6.64,0,0,0-2.72,4.26,4.15,4.15,0,0,0,.68,3.24,8.4,8.4,0,0,0,4,2.43c3.25,1.22,6.59,2.34,9.94,3.35,1.23.37,2.53.69,3.54.19a3.24,3.24,0,0,0,1.36-3.49,10.76,10.76,0,0,0-2.1-4l1-.73a11.75,11.75,0,0,1,2.32,4.5c.33,1.74-.26,4-2,4.83-1.42.7-3,.31-4.45-.12-3.37-1-6.74-2.15-10-3.37a9.37,9.37,0,0,1-4.55-2.85,5.37,5.37,0,0,1-.92-4.18,8,8,0,0,1,3.25-5.08c2.78-1.92,6.27-2.19,9.61-2.3,4.49-.16,9.68-.18,14.42,1.51a22.21,22.21,0,0,1,13.6,14.23,4.94,4.94,0,0,1,.24,2.75,5.2,5.2,0,0,1-1.55,2.36,30.36,30.36,0,0,1-49.92-11Z"/></g></g></svg>