<svg xmlns="http://www.w3.org/2000/svg" viewBox="0 0 598.54 261.93"><defs><style>.cls-1{fill:#f6c651;}.cls-2{fill:#304f25;}.cls-3{fill:#7f7e35;}.cls-4{fill:#fff;}.cls-5{fill:none;}</style></defs><g id="Layer_2" data-name="Layer 2"><g id="drawing"><path class="cls-1" d="M358,84.2a20.42,20.42,0,0,0,7.88,16.28,9.67,9.67,0,0,0,2.32,1.36,10.72,10.72,0,0,0,2.37.54c18.58,2.74,37.41-2.12,55.25-8a51.72,51.72,0,0,0,11.85-5.1c3.63-2.33,6.77-5.67,8.05-9.78,1.11-3.57.76-7.41.29-11.11a15.22,15.22,0,0,0-1.13-4.73c-1.36-2.87-4.3-4.65-7.24-5.85-12.12-4.91-25.83-2.39-38.63.3-4.41.92-8.81,1.86-13.13,3.13A87.49,87.49,0,0,0,365.78,70C360.63,73.09,358.12,78.09,358,84.2Z"/><path d="M369.43,78.45A2.16,2.16,0,1,0,372,80.1,2.15,2.15,0,0,0,369.43,78.45Z"/><path d="M453.92,63.63a18.51,18.51,0,0,1-10.22-2.12c-7.46-9.43-22.9-8.39-39.37-5.25l.07-.08c7.86-9.5,8-32.52,4.61-44.2-1.2-4.17-2.69-7.17-4.56-9.18C402,.09,398.66-.72,395.86.67l0,0c-3.57,1.81-5.66,6.76-6.42,10.79a50.75,50.75,0,0,0-.26,13.3c.16,2.06.62,7.37,1.55,13.19-3.59-8.79-9.31-17.45-14.23-22.34-3.07-3.06-5.83-5-8.44-5.81-3.52-1.15-6.8-.25-8.57,2.36-2.24,3.31-1.66,8.65-.37,12.54a51.42,51.42,0,0,0,6.24,11.76c2.45,3.7,13.36,19.77,21.11,23.85-17.41,4.83-33,12.75-29.64,28.42,1.95,9.11,7.71,14.11,17.61,15.29,8.31,1,18.91-.71,32.27-3.57,12.07-2.59,21.22-5,28.12-8.39q1.45-.73,2.79-1.53c7.68-4.59,11-10.66,10.23-18.47a15.73,15.73,0,0,1,2-2.75c1.51-1.71,3.24-3.21,4.63-5a.52.52,0,0,0,.15-.42C454.51,63.64,454.17,63.61,453.92,63.63Zm-25.44,9.86c1.08,5.06.32,14.67-1.7,19.31q-2.85,1-5.9,1.84c.43-3.81.08-15.26-.79-19.34-1.35-6.29-4.18-14.08-8-17.92,2.66-.38,5.18-.65,7.56-.79C423.4,58.22,427.25,67.73,428.48,73.49Zm-37-48.89a49.49,49.49,0,0,1,.23-12.69c.83-4.37,2.86-7.95,5.17-9.12h0c1.85-.93,4-.32,5.82,1.61,1.6,1.74,2.92,4.44,4,8.24,3.15,10.93,3.1,33.27-4.16,42.05-1.11,1.34-2.08,1.9-2.87,1.64C395.85,55.1,392.59,39.06,391.48,24.6ZM361.32,24c-1.41-4.22-1.38-8.34.08-10.49,1.17-1.72,3.37-2.26,5.89-1.43,2.25.73,4.71,2.45,7.52,5.24,8.07,8,18.88,27.57,16.8,38.77-.32,1.71-.89,2.66-1.71,2.83-4,.81-14.62-11.62-22.61-23.72A49,49,0,0,1,361.32,24Zm32.6,32.52a19.33,19.33,0,0,0,.28-4.23,14.13,14.13,0,0,0,3.28,5.38c-1.38.3-2.78.61-4.17.93A9.3,9.3,0,0,0,393.92,56.5ZM359.09,88.26C357.54,81,360.45,75.14,368,70.33a42.25,42.25,0,0,1,4-2.24,91.28,91.28,0,0,1,17.73-6.2c3.56,2.7,7.19,12.27,8.46,18.18,1.1,5.15.69,14.54-.93,19.89-9,1.66-16.49,2.47-22.58,1.74C365.78,100.64,360.83,96.37,359.09,88.26Zm46,10.14c.4-4,0-15.61-.9-19.78-1.37-6.38-4.19-14.27-7.94-18.28L398,60c2.84-.61,5.56-1.15,8.18-1.62a3.61,3.61,0,0,1-1.13.29c3.77,1.76,7.76,12,9.08,18.13,1.11,5.18.58,14.8-1.2,19.92-2.28.53-4.54,1-6.75,1.5Zm31.33-9.87c-.55.33-1.11.64-1.7,1,.59-2.92.61-13.46-.24-17.43-1.25-5.82-3.7-12-7.33-15.46,9.56.7,15.78,4.51,18,13.28C446.82,78,444.05,83.94,436.38,88.53Z"/></g><g id="matitas"><path class="cls-2" d="M251.54,108.06c.75-4.23,3.55-10.54,5.36-16.27a46.74,46.74,0,0,0,2.4-16.13A33.59,33.59,0,0,0,255,60a39.64,39.64,0,0,0-11.4-12.32c-3.89-2.59-7.07-3.06-9-2.53s-2.58,2-2.46,5.27,1,8.14,1.83,13.61,1.57,11.5,2.31,16.26,1.48,8.28.25,10.94-4.41,4.49-7,4.93A4.81,4.81,0,0,1,224,93.62c-1-2-1.19-5.11-1.31-9.17s-.18-9.06-.26-13.82-.18-9.28-1.38-13.92a48.57,48.57,0,0,0-6.19-13.57,51.76,51.76,0,0,0-9.66-11.2,102.23,102.23,0,0,0-12.59-9.27,42.15,42.15,0,0,0-8.46-4.28,47.3,47.3,0,0,0-6-1.68c-1.37-.29-1.86-.31-2,0s0,.86.59,2.26a66.64,66.64,0,0,0,3.57,6.85A88.16,88.16,0,0,1,187,38.57,100.05,100.05,0,0,1,191.6,56c1.05,5.65,1.66,10.55,2.24,15s1.13,8.51.55,11.82-2.27,5.89-4.18,6.91-4,.49-6.11-.92a14.63,14.63,0,0,1-5.58-7.4c-1.36-3.7-2-8.82-2.43-12.77s-.8-6.74-1.47-12.47-1.7-14.41-3.84-21A37.28,37.28,0,0,0,161.65,20,66.24,66.24,0,0,0,149,10a71.26,71.26,0,0,0-14.6-7.23A38.52,38.52,0,0,0,120.89.69c-4.15.1-8,.86-9.94,2.19s-2.13,3.21.06,5.78,6.72,5.81,10.85,9.62a79.09,79.09,0,0,1,11,12.66C136,35.42,138.52,40,141,44.33s4.83,8.46,6.28,12.84,2,9,1.24,12.23a8.18,8.18,0,0,1-5.34,6,11.59,11.59,0,0,1-8.12.43c-2.49-1-4.4-3.18-5.91-6.88s-2.64-8.89-4.69-13.66-5.05-9.13-8.36-14A137.08,137.08,0,0,0,105.14,26.8,49.25,49.25,0,0,0,92.31,16.56a31.77,31.77,0,0,0-14-4.06,26.12,26.12,0,0,0-12,2.52c-2.84,1.47-4,3.2-1.71,6.75s8,8.94,12.6,13.79,8,9.19,11.42,12.66,6.78,6.05,9.63,8.84,5.17,5.76,6.19,9.36.76,7.83-1.15,10.3-5.45,3.21-8.52,2.57-5.66-2.64-8.21-5.58A83.29,83.29,0,0,1,78.9,62.59c-2.62-4.31-5.35-9.07-8.38-12.3s-6.37-4.94-11.07-6.45-10.78-2.81-16-1.66S33.94,46.92,30.11,50,23,55.65,19.41,56.94,12.09,58.26,9,58.83,3.55,60.52,2,62.71-.45,68.15.25,73.58s2.91,13,3.83,20,.56,13.56,1.17,18.31a18.37,18.37,0,0,0,5.13,11,70.05,70.05,0,0,0,10.89,9.31,51.35,51.35,0,0,0,11.19,6.18,38.78,38.78,0,0,0,14.37,3.1c5.16,0,10.44-1.57,15.55-2.82A126.06,126.06,0,0,1,76.48,136a63.05,63.05,0,0,1,10.06-.41c2.89.09,5.54.27,6.78,1.39s1.1,3.17-.2,5.42a14.71,14.71,0,0,1-7.45,6.18C82,150,77,150.5,71.08,150.77s-12.62.33-19.13,1.31-12.81,2.86-15.83,5.58-2.76,6.27-1.93,9.4,2.25,5.84,6.26,8.79S51.09,182,56.93,182.7s10.89-1.07,17.66-3.64,15.29-5.94,22.49-8A56.68,56.68,0,0,1,116,168.45c5.81.27,11.52,1.61,13.92,3.26s1.48,3.59-.06,5.49-3.71,3.74-8.62,4.88-12.57,1.54-19.93,3a104.13,104.13,0,0,0-21,6.88c-6.62,2.89-12.78,6.13-16.11,9.75s-3.81,7.59-1.18,11.16,8.39,6.71,15.93,7.93a61.5,61.5,0,0,0,24.94-1.76c8.09-2.26,15-6.06,21.79-10.25s13.58-8.77,18.12-11.64,6.85-4,8.58-3.61,2.86,2.39,2.45,5.07-2.37,6.07-4.88,9.52a52,52,0,0,1-9.51,10.15A41.68,41.68,0,0,1,127,225.75c-4.64,1.39-9,1.31-13.71,1.82s-9.62,1.61-12.47,5S97.2,241.62,99,245.25s6,5.22,11.09,5.75A65.26,65.26,0,0,0,127.26,250a75.57,75.57,0,0,0,18.18-5.24A43.91,43.91,0,0,0,160,234.31c3.82-4.27,6.42-9.26,8.78-12.69s4.48-5.29,6.39-5.81a3.53,3.53,0,0,1,4.42,2.32c.81,2,.72,5.18.29,8.29a18.92,18.92,0,0,1-3.33,9,29.39,29.39,0,0,1-8.94,7.58c-3.34,1.9-6.54,2.9-10,4.49a53.13,53.13,0,0,0-8.67,5.05c-1.65,1.28-1.32,1.67.55,3a27,27,0,0,0,10.62,4.81,49.2,49.2,0,0,0,17.78.06,20.15,20.15,0,0,0,11.09-5.79,67.39,67.39,0,0,0,7.64-9.69c2.32-3.38,4.45-6.59,5.37-10.77s.62-9.33.66-13.62.41-7.71,1.36-10.19,2.5-4,3.9-4.47,2.67.17,3.92,1.47a9.81,9.81,0,0,1,2.75,5.83c.24,2.56-.5,5.72-.82,9.16a96.08,96.08,0,0,0-.14,10.08c0,2.88,0,4.9,1.21,6.18s3.62,1.79,7.19,1.22a39.46,39.46,0,0,0,13.65-5.46c5.36-3.24,11.34-8.05,15.11-13.45a34.84,34.84,0,0,0,5.84-16.3c.52-4.92,0-8.77-1.9-12.69a42.48,42.48,0,0,0-8.44-11,93.74,93.74,0,0,0-9.29-7.64c-3-2.28-5.93-4.6-8.21-6.66s-3.9-3.9-.53-4.45,11.74.16,19.25-1.48a38.31,38.31,0,0,0,19.3-10.94,45.86,45.86,0,0,0,10.82-19.52,73.33,73.33,0,0,0,2.6-21.89,27,27,0,0,0-3.59-12.87,70.15,70.15,0,0,0-7-10.73c-2.21-2.63-3.89-3.57-4.9-3.26s-1.37,1.87-1.18,4.93.93,7.6,1.32,11.15a24,24,0,0,1-.29,9.09c-.73,3-2.26,6.44-4.27,8.15a5.51,5.51,0,0,1-6.41.62C252.11,114.42,250.8,112.28,251.54,108.06ZM165.07,86.33c.26-1.53.55-2.89.83-4.21a44.76,44.76,0,0,0,1.12-7.3,42.23,42.23,0,0,0-1.76-13.65c-1.3-4.27-3.26-7.84-6.64-13.32-1-1.59-2.06-3.32-3.39-5.44-3-4.82-7.17-11.43-14.23-23l.28-.17c7.06,11.57,11.2,18.18,14.22,23,1.33,2.12,2.42,3.85,3.4,5.44,3.39,5.51,5.36,9.09,6.67,13.4a42.63,42.63,0,0,1,1.77,13.76,44.14,44.14,0,0,1-1.13,7.35c-.28,1.31-.56,2.67-.82,4.2a70.65,70.65,0,0,0-.86,15.46c.36,5.66,1.62,10.81,7.47,23.27l-.29.13c-5.84-12.44-7.14-17.81-7.5-23.38A70.75,70.75,0,0,1,165.07,86.33Zm-16.15,5.83c.16-2.48.69-4.37,1.66-5.07s2.38-.23,3.86.54a10.54,10.54,0,0,1,3.9,3.11,5.65,5.65,0,0,1,.61,4.57,18.8,18.8,0,0,1-2.53,5.82c-1.22,1.9-2.72,3.61-4,3.52s-2.28-2-2.88-4.46A28,28,0,0,1,148.92,92.16Zm-27-20.28c-.14-1.14-.26-2.12-.4-3-.93-5.86-2.77-8.84-4.62-11.19a77.07,77.07,0,0,0-7.89-8l-2.22-2.1L105.2,46c-5.11-4.86-11.47-10.9-15.14-13.35l.18-.27c3.69,2.47,10.06,8.52,15.18,13.38L107,47.26c.79.76,1.53,1.45,2.22,2.1a80,80,0,0,1,7.93,8.09c1.87,2.38,3.74,5.41,4.67,11.34.15.92.27,1.91.41,3.06.7,5.58,1.86,14.92,8.3,38.53l-.31.08C123.77,86.83,122.6,77.48,121.9,71.88ZM30.6,59.61c-.78-1.61-.54-2.72.61-3.25a9,9,0,0,1,4.94-.11,12.57,12.57,0,0,1,4.51,2,16.11,16.11,0,0,1,3.61,3.33c1,1.27,1.73,2.69,1.25,4a4.42,4.42,0,0,1-4.14,2.57c-2,0-4.18-1.38-6.19-3.11A19.94,19.94,0,0,1,30.6,59.61Zm-1,44.63A5.22,5.22,0,0,1,32.67,100a20.3,20.3,0,0,1,7.76-1.59,51,51,0,0,1,9,.22A17.7,17.7,0,0,1,56,100.48,3,3,0,0,1,57.47,104a8.69,8.69,0,0,1-2.24,4.29c-1.06,1-2.28,1.29-4.13,1.48s-4.33.32-6.76.38-4.79,0-7-.14a11.5,11.5,0,0,1-5.55-1.48A5,5,0,0,1,29.56,104.24ZM165.49,205c-.82,1.8-1.6,3.51-2.43,5.11a41.07,41.07,0,0,1-8.38,11.34c-.52.51-1.06,1-1.67,1.54-3.58,3-9.37,6.45-25.31,11.62l-.1-.31c18.59-6,23.31-9.63,26.86-13.08a41.19,41.19,0,0,0,8.32-11.26c.82-1.6,1.59-3.3,2.42-5.1a81.22,81.22,0,0,1,4.71-9.25,73.66,73.66,0,0,1,6.79-8.83c1.15-1.36,2.34-2.77,3.53-4.26,3.75-4.67,7.55-10.3,12.91-27.67l.31.1c-5.38,17.42-9.2,23.08-13,27.78-1.2,1.49-2.39,2.9-3.55,4.26a76.83,76.83,0,0,0-6.76,8.79A80.63,80.63,0,0,0,165.49,205ZM192.94,188a9.75,9.75,0,0,1,2.08,5.8,11.93,11.93,0,0,1-2.32,6.66,4.93,4.93,0,0,1-4.67,2.16c-1.65-.27-3.26-1.54-4.26-3.86a17.58,17.58,0,0,1-1.08-8.34,9.2,9.2,0,0,1,2.52-5.62,3.17,3.17,0,0,1,3.78-.68A11.86,11.86,0,0,1,192.94,188Zm5.33,17.09c-1.63,9.13-3.46,15-6.75,21.64-3.66,7.37-8.67,14.49-21.26,25.23l-.22-.25C182.6,241,187.59,234,191.23,226.62c3.27-6.61,5.1-12.45,6.72-21.55,1.94-10.81,3.22-24.63,4.29-46.2l.33,0C201.5,180.48,200.21,194.31,198.27,205.13ZM231,212.47l-.32,0c-3-27.37-7.15-37.52-19.94-49.37l.22-.24C223.77,174.81,227.89,185,231,212.47Zm-46.69-68.81c-7.09,6.31-13.44,11.86-19.11,16.69-10.6,9-18.86,15.63-25.34,20.22a126.35,126.35,0,0,1-19,11.21l-3.41,1.73c-1.38.7-2.82,1.46-4.33,2.25a223.22,223.22,0,0,1-22.72,10.72l-.12-.3a222.47,222.47,0,0,0,22.69-10.71l4.33-2.25,3.42-1.73a126.53,126.53,0,0,0,19-11.18c9.92-7,24-18.75,44.31-36.79l-30.82-13.19a43.45,43.45,0,0,1-17.43,8.45,58.76,58.76,0,0,1-7,1.11,33.43,33.43,0,0,0-7.38,1.41c-3.85,1.33-7.91,4.13-12.22,7.1l-1.91,1.31a170.19,170.19,0,0,1-17.93,10.8c-7.5,3.89-16.8,8-32.42,6.93l0-.32c15.54,1,24.79-3,32.24-6.9A168.26,168.26,0,0,0,107,149.44l1.91-1.31c4.32-3,8.4-5.79,12.29-7.14a33.7,33.7,0,0,1,7.45-1.42,59.6,59.6,0,0,0,7-1.1,43.22,43.22,0,0,0,17.17-8.29l-59-25.26C87,107.64,82.21,110,79.15,112.05a30,30,0,0,0-2.71,2.08,10.5,10.5,0,0,1-2.87,1.94c-1.5.66-4.87,1.69-10.69,1.21l-1.57-.15c-4.73-.49-11.88-1.22-31.71,3.42l-.08-.32c19.89-4.65,27.07-3.91,31.82-3.42l1.57.15c4.19.34,8-.09,10.52-1.18a10.76,10.76,0,0,0,2.8-1.89A29.12,29.12,0,0,1,79,111.78c3-2,7.77-4.37,14.38-7L22.2,74.28C57.07,86,76.36,94.77,96.93,103.33l.15-.06.06.15,3.53,1.46c14.33,5.89,29.76,11.73,54.53,23.2l.05,0,.12.12c8.65,4,18.44,8.7,29.72,14.32l0,0,.11.12c6,3,12.4,6.23,19.28,9.78Zm-59.75,10c-.23-1.25.56-2.8,1.6-4.05a9.36,9.36,0,0,1,4.2-2.9,26.88,26.88,0,0,1,6.37-1.31,12,12,0,0,1,5.3.37,4.79,4.79,0,0,1,3.11,3.2,5,5,0,0,1-1.6,5c-1.6,1.44-4.4,2.32-7.3,2.71a22.83,22.83,0,0,1-8.06-.24C126,155.88,124.74,154.91,124.51,153.65ZM178.37,118c-1.2-2.27-1.91-4.55-1.28-7.08a14.17,14.17,0,0,1,4.86-7.11,11.55,11.55,0,0,1,7.1-2.61,6.73,6.73,0,0,1,4.88,2.12,5.61,5.61,0,0,1,1.42,4.19,47.31,47.31,0,0,1-.94,5.94c-.37,2.17-.62,4.45-.82,6.62s-.35,4.22-1,5.42-1.72,1.54-3.41,1.28a13.63,13.63,0,0,1-6-2.7A19.18,19.18,0,0,1,178.37,118Zm17.29,20a248.81,248.81,0,0,0,12.27-37.21c1.91-7.68,2.72-11.56,2.48-16.51S209,73.45,203.09,44.91l.32-.06c5.87,28.56,7.09,34.5,7.33,39.43s-.58,8.89-2.5,16.6A249.61,249.61,0,0,1,196,138.13Zm29.43-19.33a10.33,10.33,0,0,1-2.4,5.19,7.58,7.58,0,0,1-4,2.93,6.55,6.55,0,0,1-4.94-1.07,5.18,5.18,0,0,1-2.32-4.53,10.75,10.75,0,0,1,2.44-5.93,8.27,8.27,0,0,1,4.56-2.69c1.8-.5,3.93-.81,5.22.31S225.37,116.57,225.09,118.68Zm34.47,13.78c-9.29,7.92-13.93,11-19,12.95-3.66,1.41-7.62,2.21-14.18,3.55-3.92.8-8.79,1.8-15.13,3.23l-.08-.32c6.34-1.43,11.22-2.42,15.14-3.22,6.54-1.34,10.49-2.15,14.14-3.54,5.75-2.2,11-6,23.37-16.8l.22.25Q261.64,130.68,259.56,132.46Zm-25.29-11.83c-5,5.71-13.32,13.69-26.92,25.89l-.21-.24C220.72,134.09,229,126.12,234,120.42c5.66-6.44,7.53-10.56,9.57-17.36,2.15-7.16,4.56-17.74,4.87-25.94h.32c-.31,8.24-2.72,18.84-4.88,26C241.86,110,240,114.15,234.27,120.63Z"/><path class="cls-3" d="M219.08,153.9c30.86,19.9,48.87,26.26,63.41,33.47s25.61,15.3,40,23.91,32.07,17.75,47.34,23.65c30.55,11.82,51.44,10.68,64.27,9.88a96.46,96.46,0,0,0,16.82-2.06c6-1.35,13.61-3.75,26.43-7.16s30.87-7.82,51.21-20,43-32,55.17-44.85,14-18.71,14.57-30c-11-14-42.64-14.78-71.35-14.85s-54.47.58-80.34.51-51.85-.85-71.82.66a150.93,150.93,0,0,0-48.95,11.4c-15,6.09-31.13,14.49-48.63,19.14S240.81,163.22,219.08,153.9Z"/><path class="cls-2" d="M421.69,245.53c-12.49,0-29.61-1.72-52-10.36-14.06-5.44-31.32-14.07-47.38-23.68-4.87-2.92-9.38-5.78-13.74-8.56-8.55-5.43-16.63-10.57-26.23-15.33-3.5-1.74-7.26-3.46-11.25-5.27a367.88,367.88,0,0,1-52.19-28.22l.24-.44c18.82,8.07,37.24,9.26,58,3.75,12.31-3.27,23.84-8.36,35-13.28,4.72-2.09,9.17-4,13.61-5.85a152,152,0,0,1,49-11.42c15.13-1.14,33.55-1,53.06-.79,6.14.06,12.49.12,18.77.13,12.65,0,25.06-.1,38.2-.25,13.5-.14,27.46-.3,42.14-.26,31.59.07,60.84,1.27,71.54,14.94l.06.08v.09c-.59,11.08-2.08,16.91-14.64,30.15s-35.22,32.95-55.22,44.89C509.31,227.41,492,232,479.34,235.32l-1.93.51c-5.59,1.49-10.1,2.76-14.09,3.88-5,1.41-9,2.52-12.35,3.28a96.57,96.57,0,0,1-16.86,2.07C430.63,245.28,426.5,245.53,421.69,245.53ZM221.57,155.2a365.69,365.69,0,0,0,49.77,26.67c4,1.82,7.75,3.54,11.26,5.28a278.46,278.46,0,0,1,26.28,15.36c4.36,2.77,8.86,5.64,13.73,8.55,16,9.6,33.27,18.22,47.3,23.64,30.84,11.93,51.7,10.63,64.17,9.86a94.61,94.61,0,0,0,16.78-2.06c3.38-.76,7.33-1.87,12.33-3.27,4-1.12,8.5-2.39,14.09-3.88l1.93-.51c12.62-3.33,29.9-7.9,49.21-19.42,20-11.91,42.57-31.58,55.12-44.81C596,157.54,597.45,151.77,598,140.88c-10.61-13.43-39.68-14.61-71.09-14.68-14.68,0-28.64.12-42.13.26-13.15.15-25.56.29-38.21.25-6.28,0-12.63-.07-18.78-.13-19.49-.18-37.91-.35-53,.79a151.82,151.82,0,0,0-48.88,11.38c-4.43,1.8-8.88,3.76-13.59,5.84-11.17,4.93-22.71,10-35.06,13.32C257.38,163.19,239.6,162.34,221.57,155.2Z"/><path class="cls-4" d="M407.88,190.06c-25.32,0-59.13-2.08-106.68-9.27l.08-.49c72.78,11,113.34,10,140.54,7.95,28.26-2.16,50.48-6.31,76.68-14.32,26.75-8.18,51.32-18.47,79.67-33.35l.23.44c-28.38,14.9-53,25.19-79.75,33.39-26.24,8-48.49,12.18-76.8,14.34C432.4,189.47,421.34,190.06,407.88,190.06Z"/><rect class="cls-5" x="2.63" width="595.65" height="261.93"/></g></g></svg>