<svg xmlns="http://www.w3.org/2000/svg" viewBox="0 0 595.91 275.7"><defs><style>.cls-1{fill:#353e18;}.cls-2{fill:#fff;}.cls-3{fill:#7f7e35;}.cls-4{fill:#304f25;}.cls-5{fill:#f7d1e4;}.cls-6{fill:#eb5ea0;}.cls-7{fill:none;}</style></defs><g id="Layer_2" data-name="Layer 2"><g id="matitas"><path class="cls-1" d="M175.91,213.58c-2.95,11.54-.17,18.66,3.59,23.89a36.43,36.43,0,0,0,12.57,10.74,24.45,24.45,0,0,0,11.05,3.34c3.55.11,7.25-.69,13.47-2.75s15-5.39,23.74-7,17.51-1.5,26.11-.85,17.05,1.84,22.48,2.08A30.64,30.64,0,0,0,300,241.71c3.26-.86,7.39-1.86,10.17-3.37s4.2-3.5,4.39-5-.88-2.42-1.83-4-1.79-3.88-3.13-6.88-3.21-6.73-3.45-10.86,1.15-8.65,2.84-10.1c3.89,4.26,7.22,6.3,9.42,8.16A14.06,14.06,0,0,1,322.5,215a15.23,15.23,0,0,1,1.36,6.16c0,2.33-.53,5,2.37,12.17,46.53,2.92,81.76,1.22,105.27-3.2s35.29-11.57,43.44-16.52S487.63,206,489.38,204s.71-3.2-.24-3.69-1.84-.24-4.41-3a89.08,89.08,0,0,1-10.1-14.42,104.19,104.19,0,0,1-7.21-16c-1.6-4.45-2.49-7.58-2.21-9.39s1.71-2.28,3.78-1.72a15.65,15.65,0,0,1,6.7,4.23c1.93,2.06,3.07,4.58,6.26,10.08a198.21,198.21,0,0,1,14.94,30.33c28.47-12,42.16-17.83,54.46-28s23.23-24.56,31.32-36.42,13.37-21.16,13.24-32.63S590.23,78.2,581.1,66.65s-21.85-21-35.54-25.22-28.35-3.19-43.16-.57-29.78,6.83-45.25,11.88S425.68,63.67,414,66.92a122,122,0,0,1-24.49,4.36c-5.56.5-9.38.88-12.39,1.92S372,75.94,371,78.73s-.68,6.7,1.32,11.26,5.71,9.78,8.81,13.8,5.61,6.81,9.45,11.52,9,11.33,9.91,12.33c-7.54,3.19-17.24-4-23.76-9.83s-9.83-10.36-11.46-14.12-1.6-6.77-2-9.87A34.28,34.28,0,0,0,361,85.45c-.91-2.1-1.84-3.12-5.06-1.76s-8.72,5.11-15.3,8.6a103.11,103.11,0,0,1-20.38,8.34c-6.18,1.62-10.89,1.63-14.4,2.32s-5.81,2.08-6.07,5.38,1.53,8.52,3.92,12.81,5.39,7.66,8.75,11.76,7.08,8.94,9.32,12,3,4.2,2.41,4.7-2.62.31-4.67-.58a40.82,40.82,0,0,1-6.61-4.19,46.46,46.46,0,0,1-9.06-7.77,131.44,131.44,0,0,1-11.11-14.66,53.47,53.47,0,0,1-4-7.29c-.77-1.5-1.77-2.78-3.77-.43S280,123,277.58,129s-4.23,12-6.55,16-5.16,5.93-9.48,7.82-10.13,3.72-17.13,6.75a164.07,164.07,0,0,0-22.59,12c-7.38,4.73-14,10-22.9,17.75S178.65,207.3,175.91,213.58Z"/><path class="cls-2" d="M189.78,217v-.5c44.16-1.29,62.45-12.28,80.14-22.91l4.6-2.76C292,180.36,310,169.5,328.72,161.58c20.35-8.61,41.53-13.71,73.59-21.44l.15,0c32-7.69,75.71-18.24,182.75-67.8l.21.45c-107.08,49.59-150.87,60.14-182.84,67.84l-.15,0c-32,7.72-53.21,12.82-73.52,21.41-18.68,7.9-36.71,18.76-54.14,29.26l-4.6,2.76C252.43,204.72,234.08,215.74,189.78,217Z"/><path class="cls-3" d="M301.21,252.09c-36.07-2-54.09-7.36-69.83-10s-29.24-2.63-45.66-4.09-35.8-4.42-51.37-8.55c-31.15-8.26-47.12-21.25-56.87-29.3a94.73,94.73,0,0,1-12.2-11.37c-4-4.55-8.66-10.86-16.9-21s-20.05-24.08-29.22-45.51S3.45,71.94,1.17,54.65s-.29-23,5.75-32.29C23.74,17.56,49.41,35.25,72.3,51.8s43,32,63.66,46.87,41.76,29.31,56.79,42.05a148.87,148.87,0,0,1,32.38,37.39c8.44,13.55,16.4,29.54,27.64,43.36S278.52,246.94,301.21,252.09Z"/><path class="cls-4" d="M301.2,252.34a360.76,360.76,0,0,1-57.86-7.72c-4.23-.86-8.21-1.67-12-2.31a273.53,273.53,0,0,0-29.75-3c-5.07-.31-10.32-.64-15.89-1.14-18.34-1.63-37.07-4.74-51.41-8.55-31.55-8.37-47.46-21.5-57-29.35a94.49,94.49,0,0,1-12.23-11.4c-2.26-2.57-4.77-5.75-7.94-9.76-2.52-3.2-5.38-6.82-9-11.22l-1.24-1.53c-8.14-10-19.28-23.64-28-44-9-21.07-15.66-49.85-18-67.67S.77,31.39,6.71,22.22l0-.07.09,0c16.43-4.7,40.41,11.26,65.6,29.48,11.7,8.46,22.72,16.65,33.37,24.57,10.39,7.72,20.2,15,30.28,22.3,5,3.62,10.11,7.25,15,10.76,15.63,11.13,30.39,21.65,41.77,31.3A149.58,149.58,0,0,1,225.34,178c2.5,4,4.91,8.14,7.46,12.53,6,10.36,12.25,21.08,20.16,30.81,13.31,16.36,28.66,26.06,48.31,30.53ZM7.08,22.57C-.39,34.12-.39,40.88,1.42,54.62c2.34,17.79,9,46.52,18,67.55,8.7,20.33,19.82,34,27.94,43.91l1.24,1.53c3.59,4.41,6.45,8,9,11.23,3.17,4,5.68,7.18,7.93,9.74a93.59,93.59,0,0,0,12.17,11.34c9.47,7.82,25.33,20.92,56.77,29.26,14.31,3.8,33,6.91,51.33,8.54,5.56.49,10.8.82,15.87,1.13a272.42,272.42,0,0,1,29.81,3c3.8.64,7.79,1.45,12,2.31a361.53,361.53,0,0,0,55,7.55c-18.47-4.75-33.1-14.35-45.87-30.05-7.93-9.75-14.17-20.49-20.21-30.87-2.54-4.38-5-8.52-7.44-12.52a149.6,149.6,0,0,0-32.33-37.33c-11.37-9.64-26.12-20.15-41.74-31.27-4.93-3.51-10-7.14-15-10.77-10.09-7.29-19.9-14.58-30.28-22.3C94.87,68.65,83.86,60.46,72.16,52,47.11,33.9,23.29,18,7.08,22.57Z"/><path class="cls-2" d="M220.28,226c-64.34-33.36-96.09-57.61-116.56-75-21.29-18.09-36.6-34.26-52.84-55.83C34.3,73.17,20.67,50.75,6.7,22.47l.44-.22c14,28.25,27.58,50.65,44.14,72.62,16.22,21.54,31.5,37.69,52.76,55.75,20.46,17.38,52.18,41.61,116.47,74.95Z"/><path class="cls-5" d="M264.3,137c-3.07-3.46-6.34-7.06-10.69-8.65s-10.1-.39-12.07,3.8a14.16,14.16,0,0,0-1,5l-2.94,38.12c-.41,5.3-.82,10.67.2,15.88,3,15.44,18.46,26.33,34.12,27.69s31.1-5.12,44-14.07c7.22-5,14.62-13,12-21.38A11.87,11.87,0,0,0,313.35,176c7.27,2.17,15.8-3.53,16.58-11.07s-6.4-14.87-14-14.24"/><path class="cls-6" d="M276.1,219.51c-1.4,0-2.8,0-4.22-.18-19.45-1.7-32.11-15.41-34.58-28.09-1-5.32-.61-10.76-.2-16L240,137.1a14.73,14.73,0,0,1,1-5.14c2.16-4.59,8.27-5.68,12.7-4.06s7.93,5.45,10.9,8.79l-.75.66c-2.88-3.24-6.15-6.93-10.49-8.51-4-1.48-9.6-.4-11.45,3.54a13.85,13.85,0,0,0-1,4.79L238.1,175.3c-.41,5.19-.82,10.57.19,15.75,2.39,12.31,14.72,25.63,33.68,27.29,17.23,1.51,33.27-6.78,43.7-14,4.53-3.13,14.75-11.42,11.85-20.83a10.86,10.86,0,0,0-5.58-6.35,11.81,11.81,0,0,0-1.79-.73,12.5,12.5,0,0,1-6.94,0l-1.48-.44,1.46-.51a11.46,11.46,0,0,1,7-.1,13.85,13.85,0,0,0,3.65-1.74,12.38,12.38,0,0,0-7.79-22.5l-.08-1a13.21,13.21,0,0,1,8.42,24.32,14.79,14.79,0,0,1-2.71,1.45c.25.1.5.22.75.35a11.91,11.91,0,0,1,6.09,6.95c3.09,10-7.53,18.69-12.24,21.94C306.53,211.89,292,219.51,276.1,219.51Zm40-43.59a9.14,9.14,0,0,0,1.17,0A11.42,11.42,0,0,0,316.1,175.92Z"/><path class="cls-5" d="M309.33,157.28c7.21-4.66,8.21-16.44,1.88-22.24a22.62,22.62,0,0,0-6.71-4,60.81,60.81,0,0,0-24.62-4.77c-4.32.08-8.86.7-12.34,3.25s-5.5,7.55-3.51,11.38"/><path class="cls-6" d="M309.6,157.7l-.54-.84a14.29,14.29,0,0,0,1.82-21.46,22.61,22.61,0,0,0-6.57-3.88,60.4,60.4,0,0,0-24.42-4.73c-3.41.06-8.37.45-12.06,3.16-3.11,2.28-5.28,7-3.35,10.74l-.89.46c-2.2-4.23.13-9.43,3.65-12,3.92-2.87,9.09-3.29,12.63-3.35a61.39,61.39,0,0,1,24.83,4.81,23.12,23.12,0,0,1,6.85,4.07,15.26,15.26,0,0,1-1.95,23Z"/><path class="cls-5" d="M293.05,158.89a10.43,10.43,0,0,1,.38,4.43,3.57,3.57,0,0,1-2.94,3,5.16,5.16,0,0,1-3.37-1.56q-3.78-3.1-7.35-6.44a8.33,8.33,0,0,1-2.72-3.78c-.72-2.9,1.94-5.78,4.86-6.4s5.93.37,8.73,1.43c4.16,1.56,8.34,3.34,11.64,6.32a20,20,0,0,1,6.39,16.55,4.25,4.25,0,0,1-.66,2.16,4.44,4.44,0,0,1-1.94,1.28,27.59,27.59,0,0,1-38-26.94,5.31,5.31,0,0,1,.62-2.55c.82-1.29,2.47-1.71,4-2,7.71-1.31,15.86-.94,23,2.21s13.16,9.36,15,16.95c1,4.2.67,8.92-1.84,12.44.48,14.28-12.58,27.56-22.74,35.26-1.63,1.24-2.93,2.91-4.65,4-3.49,2.23-8,1.77-12.09,1.23a20.69,20.69,0,0,1-5.79-1.34,48.05,48.05,0,0,1-10.94-7.34c-2.87-2.89-2.8-7.09-2.86-11.28-.24-17.3,1.64-40.08,19.3-48.93"/><path class="cls-6" d="M274.72,217.43a42.84,42.84,0,0,1-5.44-.44,20.94,20.94,0,0,1-5.94-1.38,48.61,48.61,0,0,1-11.08-7.45c-2.9-2.92-2.95-7.08-3-11.1v-.52c-.23-16.5,1.46-39.33,18.42-48.78a4.23,4.23,0,0,1,.59-1.68c.91-1.44,2.69-1.92,4.31-2.19,8.6-1.46,16.65-.69,23.29,2.25,7.78,3.43,13.49,9.9,15.29,17.28,1.15,4.75.49,9.37-1.83,12.71.43,16-15.89,30.16-22.94,35.51a21.67,21.67,0,0,0-2,1.75,18.22,18.22,0,0,1-2.72,2.29A12.59,12.59,0,0,1,274.72,217.43ZM267.56,149c-15.94,9.4-17.53,31.5-17.31,47.55v.52c.05,4,.1,7.78,2.71,10.41a47.58,47.58,0,0,0,10.78,7.24,20.52,20.52,0,0,0,5.66,1.29c4.34.58,8.51.92,11.75-1.15a17.23,17.23,0,0,0,2.56-2.17,24.21,24.21,0,0,1,2.06-1.83c7-5.27,23.07-19.22,22.54-34.84v-.17l.1-.14c2.22-3.11,2.87-7.5,1.77-12-1.72-7.09-7.23-13.3-14.72-16.61-6.46-2.85-14.32-3.61-22.73-2.18-1.4.24-2.92.63-3.63,1.74a2.85,2.85,0,0,0-.26.56l.44.87-.68.36c0,.18,0,.36,0,.53a27.09,27.09,0,0,0,37.32,26.45,4.12,4.12,0,0,0,1.73-1.12,3.85,3.85,0,0,0,.56-1.91,19.54,19.54,0,0,0-6.23-16.13c-3.32-3-7.67-4.79-11.47-6.23-2.76-1-5.68-2-8.46-1.4a6.25,6.25,0,0,0-3.89,2.71,4,4,0,0,0-.58,3.08,7.9,7.9,0,0,0,2.57,3.54c2.36,2.2,4.83,4.36,7.33,6.41a4.72,4.72,0,0,0,3,1.45,3.09,3.09,0,0,0,2.48-2.57,10,10,0,0,0-.38-4.21l1-.23a10.92,10.92,0,0,1,.38,4.65,4.06,4.06,0,0,1-3.4,3.36,5.63,5.63,0,0,1-3.71-1.68c-2.52-2.06-5-4.23-7.38-6.45a8.62,8.62,0,0,1-2.86-4,4.89,4.89,0,0,1,.7-3.85,7.3,7.3,0,0,1,4.54-3.16c3-.64,6.12.36,9,1.45,3.89,1.46,8.34,3.29,11.79,6.42a20.58,20.58,0,0,1,6.56,17,4.66,4.66,0,0,1-.76,2.41,4.82,4.82,0,0,1-2.15,1.44A28.08,28.08,0,0,1,267.56,149Z"/><rect class="cls-7" x="0.25" width="595.65" height="275.7"/></g></g></svg>