<svg width="988" height="989" viewBox="0 0 988 989" fill="none" xmlns="http://www.w3.org/2000/svg">
<g clip-path="url(#clip0_8906_60025)">
<path d="M503.8 900.09C742.332 900.09 935.7 706.722 935.7 468.19C935.7 229.658 742.332 36.29 503.8 36.29C265.268 36.29 71.8999 229.658 71.8999 468.19C71.8999 706.722 265.268 900.09 503.8 900.09Z" fill="#E9D8FF"/>
<path d="M487.5 533.9C473.63 524.58 460.81 524.43 451.84 524.46C442.87 524.49 437.7 524.68 433.02 525.46C428.34 526.24 424.12 527.56 418.85 528.87C413.58 530.18 407.23 531.47 396.48 534.75C401.73 535.09 407.2 534.02 413.09 532.97C418.99 531.846 424.945 531.031 430.93 530.53C436.143 530.223 441.373 530.37 446.56 530.97C451.466 531.406 456.324 532.269 461.08 533.55C464.956 534.714 468.668 536.364 472.13 538.46C475.25 540.3 477.9 542.17 480.63 543.16C483.123 544.161 485.907 544.161 488.4 543.16C490.62 542.16 492.24 540 487.6 533.94C487.584 533.936 487.566 533.936 487.55 533.94L487.5 533.9Z" fill="black"/>
<path d="M544.54 547.87C551.88 546.68 561.54 548.36 569.45 549.97C577.36 551.58 583.68 553.09 590.09 555.64C596.5 558.19 603.09 561.75 621.7 577.82C603.65 569.29 592.44 563.82 584.59 561.34C576.74 558.86 572.24 559.34 567.22 559.14C562.2 558.94 556.64 558.18 544.54 547.87Z" fill="black"/>
<path d="M497.57 420.57C461.57 415.89 426.24 430.57 395.97 448.81C382.68 456.81 369.68 465.92 359.67 477.91C354.705 483.729 350.76 490.346 348 497.48C344.86 505.84 344 514.92 340.28 523.07C333.34 538.2 318.78 548.2 305.18 556.84C290.33 566.26 274.64 574.67 261.39 586.37C249.67 596.74 239.78 610.26 236.45 625.78C234.846 633.216 235.044 640.927 237.03 648.27C238.94 654.791 241.654 661.049 245.11 666.9C251.89 678.9 260.59 690.22 264.95 703.46C267.073 709.555 267.731 716.064 266.87 722.46C265.63 730.71 261.62 738.31 260.75 746.63C260.254 750.429 260.902 754.29 262.61 757.72C263.25 758.97 267.87 757.48 267.52 756.81C263.67 749.35 266.28 741.11 268.63 733.62C270.84 726.62 272.74 719.71 272 712.31C270.67 698.99 263 687.31 256.1 676.17C249.1 664.76 241.63 652.69 240.43 639.02C239.03 623.02 246.43 607.78 256.5 595.85C267.41 582.91 281.98 573.85 296.27 565.07C310.27 556.52 325.08 548.15 336.17 535.86C341.652 529.863 345.664 522.674 347.89 514.86C350.2 506.73 351.66 498.52 355.51 490.86C362.42 477.23 373.96 466.66 386.26 457.93C400.204 448.04 415.174 439.682 430.91 433C446.91 426.23 463.97 421.49 481.44 421.45C485.74 421.442 490.037 421.719 494.3 422.28C495.499 422.424 496.714 422.197 497.78 421.63C498.53 421.18 498.55 420.63 497.57 420.55V420.57Z" fill="black"/>
<path d="M518 428.41C546.55 430.65 575.19 435.54 601.9 446.17C625.31 455.48 647.1 469.38 664.05 488.17C673.275 498.293 680.79 509.851 686.3 522.39C686.72 523.39 691.36 522.02 691.3 521.8C681.46 499.12 664.54 480.12 644.54 465.8C622.31 449.91 596.39 440.06 569.83 434.22C553.887 430.821 537.729 428.529 521.47 427.36C520.28 427.269 519.085 427.412 517.95 427.78C517.18 428.04 517.09 428.34 518.03 428.41H518Z" fill="black"/>
<path d="M505.93 431.33C516.279 443.624 529.413 453.271 544.24 459.47C551.701 462.517 559.474 464.734 567.42 466.08C575.54 467.53 583.76 468.49 591.77 470.49C599.45 472.41 606.85 475.49 612.93 480.67C619.01 485.85 623.41 492.18 627.67 498.67C631.93 505.16 636.14 511.95 641.29 517.92C646.551 523.947 652.494 529.343 659 534C672 543.46 686.67 550.45 701.32 557L706.86 559.47C707.445 559.65 708.068 559.667 708.662 559.519C709.256 559.371 709.798 559.064 710.23 558.63C710.91 557.98 711.29 556.8 710.23 556.31C695.57 549.8 680.79 543.2 667.4 534.31C660.776 529.969 654.629 524.941 649.06 519.31C643.696 513.552 638.91 507.282 634.77 500.59C630.54 494.08 626.34 487.45 620.96 481.81C615.49 476.096 608.727 471.782 601.24 469.23C585.86 463.87 569.24 464.01 553.78 458.75C538.642 453.566 524.99 444.78 514 433.15C512.62 431.69 511.287 430.19 510 428.65C508.73 427.14 504.39 429.51 505.9 431.33H505.93Z" fill="black"/>
<path d="M503 438.31C510.3 452.96 524.18 462.66 538.6 469.53C554.14 476.95 570.81 481.53 586.47 488.7C594.402 492.168 601.889 496.576 608.77 501.83C615.77 507.3 621.28 514.05 626.18 521.38C631.27 528.99 635.84 536.94 641.47 544.18C646.828 551.07 653.341 556.978 660.72 561.64C675.33 570.89 692.39 575.51 709.21 578.86C711.37 579.29 713.54 579.7 715.7 580.1C716.004 580.134 716.312 580.107 716.605 580.019C716.898 579.931 717.17 579.784 717.405 579.588C717.64 579.391 717.832 579.149 717.97 578.876C718.109 578.603 718.19 578.305 718.21 578C718.21 576.56 716.99 575.8 715.75 575.57C699.33 572.57 682.56 568.69 667.82 560.57C660.44 556.596 653.81 551.364 648.23 545.11C642.37 538.43 637.83 530.73 633.04 523.28C628.25 515.83 623.04 508.43 616.44 502.37C609.985 496.593 602.784 491.71 595.03 487.85C579.64 479.97 563.03 475.22 547.12 468.47C533.12 462.47 518.75 454.47 510.24 441.47C509.173 439.836 508.205 438.14 507.34 436.39C506.04 433.78 501.58 435.49 503 438.34V438.31Z" fill="black"/>
<path d="M499.48 431.92C466.59 432.44 434.86 445.5 408.12 464.07C395.69 472.7 384.12 482.93 375.67 495.6C371.593 501.966 368.264 508.781 365.75 515.91C363.11 522.96 360.67 530.17 356.75 536.65C352.5 543.65 346.47 548.65 339.49 552.8C333.17 556.58 326.68 559.98 320.89 564.58C310.582 572.926 302.278 583.479 296.59 595.46C290.822 607.584 287.237 620.631 286 634C285.32 640.872 285.21 647.789 285.67 654.68C286.33 662.414 287.492 670.097 289.15 677.68C290.88 686.31 292.55 695.11 291.86 703.95C291.14 712.95 287.36 721.26 284.2 729.65C276.501 749.791 275.449 771.868 281.2 792.65C281.39 793.35 284.29 792.58 284.09 791.87C279.541 775.248 279.3 757.741 283.39 741C285.44 732.66 289.02 724.92 291.79 716.82C294.554 708.757 295.497 700.181 294.55 691.71C293.63 682.91 291.38 674.34 289.95 665.62C288.871 659.008 288.33 652.319 288.33 645.62C288.28 632.051 290.536 618.573 295 605.76C299.25 593.302 306.063 581.874 315 572.21C319.623 567.321 324.852 563.043 330.56 559.48C337.06 555.42 344.05 552.11 350.04 547.26C361.8 537.74 365.34 522.96 370.86 509.58C376.72 495.4 386.4 483.58 398 473.66C410.327 463.304 423.969 454.622 438.57 447.84C453.57 440.74 469.74 435.67 486.32 433.89C490.267 433.47 494.23 433.23 498.21 433.17C499.05 433.17 501.36 431.89 499.45 431.92H499.48Z" fill="black"/>
<path d="M490.39 444.51C472.09 447.43 454.92 454.51 438.03 461.87C430.3 465.24 422.36 468.46 415.79 473.87C410.922 477.982 406.772 482.876 403.51 488.35C389.23 511.76 387.42 541.92 366.45 561.27C354.26 572.53 338.69 579.27 326.45 590.51C320.8 595.69 315.72 601.81 312.71 608.93C309.799 615.828 309.1 623.459 310.71 630.77C314.16 646.82 325.71 659.55 331.88 674.46C335.333 682.486 337.077 691.143 337 699.88C336.792 708.471 334.168 716.83 329.43 724C324.86 731 319.11 737.18 314.75 744.34C310.566 751.349 307.581 759.008 305.92 767C302.43 783.12 303.5 799.93 305.73 816.15C306.29 820.25 306.94 824.33 307.64 828.41C307.84 829.61 310.75 828.9 310.53 827.64C307.74 811.22 305.53 794.44 307.14 777.78C307.822 769.733 309.668 761.827 312.62 754.31C315.76 746.55 320.48 739.92 325.56 733.31C330.56 726.88 335.38 720.31 337.86 712.5C340.22 704.572 340.632 696.191 339.06 688.07C337.524 680.066 334.711 672.361 330.73 665.25C326.89 658.1 322.43 651.25 318.82 644.01C315.34 637.01 312.58 629.37 312.82 621.45C313.06 613.53 316.09 606.39 320.69 600.17C330.45 586.98 345.34 579.52 358.47 570.26C364.9 565.73 371.02 560.64 375.87 554.4C379.798 549.236 383.11 543.631 385.74 537.7C391.35 525.48 394.96 512.48 400.35 500.17C405.86 487.59 413.5 476.17 425.88 469.55C433.73 465.34 442.17 462.03 450.38 458.62C458.945 454.96 467.737 451.853 476.7 449.32C481.116 448.116 485.592 447.145 490.11 446.41C490.65 446.33 491.69 446.02 491.72 445.32C491.75 444.62 490.97 444.41 490.42 444.5L490.39 444.51Z" fill="black"/>
<path d="M494.82 457.85C480.127 460.635 465.864 465.342 452.4 471.85C445.813 475.048 439.437 478.662 433.31 482.67C427.51 486.48 421.8 490.62 418.68 497.01C415.68 503.22 414.82 510.18 413.17 516.83C411.488 523.481 409.118 529.939 406.1 536.1C400.1 548.53 391.76 559.74 382.55 569.99C377.87 575.19 372.94 580.17 367.87 584.99C362.8 589.81 357.63 594.23 352.65 598.99C347.67 603.75 343.14 608.84 340.47 615.12C337.64 621.76 337.22 629.06 338.22 636.12C340.34 651.24 348.53 664.35 353.65 678.5C356.419 685.719 357.819 693.389 357.78 701.12C357.466 709.113 355.97 717.016 353.34 724.57C348.85 738.17 340.69 752.57 346.83 766.98C351.27 777.4 360.88 785.27 363.9 796.33C364.618 798.934 364.792 801.657 364.41 804.33C364.23 805.57 367.17 805.09 367.32 804.01C368.94 792.65 360.46 783.52 354.59 774.78C351.27 769.86 348.36 764.57 347.65 758.58C346.75 750.94 349.22 743.34 351.83 736.27C354.56 728.9 357.43 721.63 359.08 713.92C360.791 706.403 361.13 698.638 360.08 691C357.83 676.26 349.72 663.45 344.77 649.6C342.25 642.54 340.41 635.02 340.65 627.47C340.859 620.227 343.335 613.232 347.73 607.47C351.9 601.94 357.25 597.47 362.36 592.82C367.47 588.17 372.36 583.6 377.11 578.76C386.66 569.08 395.59 558.66 402.78 547.08C409.778 535.789 414.74 523.357 417.44 510.35C418.91 503.43 420.55 496.29 425.6 491.01C430.65 485.73 437.26 482.01 443.43 478.51C456.324 471.1 470.159 465.463 484.56 461.75C488.1 460.84 491.66 460.06 495.25 459.37C497.05 459.03 496.58 457.42 494.82 457.76V457.85Z" fill="black"/>
<path d="M357.68 601.68C352.96 627.68 363.9 652.98 375.29 675.68C386.29 697.68 398.8 720.23 399.56 745.44C399.94 758.2 397.28 771.1 390.07 781.8C389.66 782.41 390.42 782.86 390.93 782.93C391.294 782.972 391.664 782.914 391.997 782.76C392.33 782.607 392.615 782.365 392.82 782.06C406 762.52 404.13 736.93 396.82 715.58C388.37 690.99 373.28 669.29 365.06 644.58C360.44 630.7 358 615.9 360.64 601.37C360.89 600 357.93 600.37 357.71 601.62L357.68 601.68Z" fill="black"/>
<path d="M501.58 450.71C507.18 465.08 517.34 476.96 529.58 486.12C542.24 495.57 556.89 502.22 571.9 506.96C579.62 509.4 587.64 510.88 595.26 513.64C599.172 514.97 602.833 516.948 606.09 519.49C609.478 522.399 612.18 526.022 614 530.1C616 534.19 617.51 538.47 619.22 542.67C620.93 546.87 622.81 551.21 624.8 555.39C628.598 563.714 633.364 571.562 639 578.77C649.57 591.9 665.29 602.29 682.61 602.55C684.726 602.584 686.841 602.467 688.94 602.2C689.52 602.13 690.49 601.8 690.56 601.1C690.63 600.4 689.78 600.2 689.25 600.26C672.07 602.45 655.46 593.17 644.31 580.67C638.333 573.778 633.289 566.129 629.31 557.92C625.23 549.81 622.01 541.35 618.51 532.98C616.995 528.989 614.914 525.238 612.33 521.84C609.702 518.693 606.446 516.128 602.77 514.31C595.52 510.6 587.43 509.11 579.65 506.93C564.65 502.76 550.09 496.79 537.1 488.22C524.47 479.89 513.34 468.84 506.7 455.09C505.89 453.4 505.15 451.68 504.46 449.93C504 448.73 501.12 449.56 501.57 450.71H501.58Z" fill="black"/>
<path d="M497.52 465.74C507.395 485.293 523.027 501.347 542.31 511.74C551.779 516.887 561.981 520.553 572.56 522.61C578.06 523.68 583.98 523.83 589.11 526.26C594.24 528.69 596.9 533.54 597.28 539.05C597.66 544.56 596.28 550.21 595.28 555.67C594.21 561.007 594.02 566.482 594.72 571.88C595.572 577.516 597.471 582.943 600.32 587.88C601.688 590.247 603.272 592.483 605.05 594.56C606.88 596.7 609.05 598.49 611.05 600.48C613.05 602.47 614.82 605.12 614.23 608.18C613.64 611.24 611.35 613.64 608.87 615.3C604.03 618.54 598.65 620.3 595.43 625.5C592.69 629.9 591.9 635.3 592.18 640.4C592.51 646.4 593.91 652.34 595.04 658.19C597.25 669.58 599.74 681.19 598.95 692.85C598.554 698.873 597.165 704.79 594.84 710.36C592.107 716.447 588.572 722.141 584.33 727.29C580.27 732.47 575.88 737.38 571.6 742.37C567.75 746.85 564.16 751.53 560.02 755.75C551.633 764.227 541.978 771.345 531.4 776.85C521.12 782.22 509.79 786.18 498.15 786.91C486.15 787.67 474.25 784.28 463.77 778.54C441.2 766.27 426.6 744.45 414 722.83C407.15 711.11 400.38 699.34 393.89 687.42C387.27 675.27 380.75 662.89 375.69 650C373.308 644.147 371.665 638.02 370.8 631.76C370.232 626.899 370.038 622.001 370.22 617.11C370.468 606.32 372.332 595.628 375.75 585.39C377.206 580.974 379.222 576.763 381.75 572.86C382.37 571.95 379.54 572.32 379.1 572.97C373.44 581.38 370.63 591.56 368.95 601.46C367.095 611.711 366.735 622.176 367.88 632.53C369.53 645.87 375.71 658.3 381.59 670.21C387.86 682.89 394.78 695.21 401.81 707.51C414.65 729.95 427.3 754.04 447.71 770.64C456.96 778.16 467.76 784.1 479.42 786.82C490.66 789.43 502.17 788.6 513.22 785.48C524.68 782.132 535.524 776.952 545.33 770.14C550.151 766.833 554.72 763.173 559 759.19C563.229 755.155 567.185 750.842 570.84 746.28C579.21 736.17 588.84 726.69 595.18 715.08C600.99 704.43 602.64 692.54 601.6 680.56C600.6 668.38 597.36 656.56 595.6 644.43C594.76 638.84 594.6 633.08 596.89 627.78C598.001 625.063 599.817 622.692 602.15 620.91C604.72 618.99 607.71 617.75 610.41 616.05C614.82 613.27 619.26 607.93 616.2 602.59C614.84 600.23 612.66 598.54 610.72 596.69C608.659 594.72 606.8 592.549 605.17 590.21C598.457 580.417 595.853 568.382 597.92 556.69C599.52 547.14 603.77 533.69 594.34 526.69C589.86 523.38 584.03 522.8 578.7 521.99C573.057 521.129 567.497 519.791 562.08 517.99C540.798 510.886 522.268 497.31 509.08 479.16C505.814 474.683 502.918 469.947 500.42 465C500.01 464.18 497.21 465.16 497.52 465.78V465.74Z" fill="black"/>
<path d="M613.26 575.19L627.73 599.59L634.96 611.79C637.22 615.6 639.58 619.37 641.62 623.3C645.4 630.58 647.62 638.6 644.21 646.46C641.27 653.24 635.59 658.46 630.44 663.53C625.11 668.82 619.8 674.99 618.07 682.53C617.194 686.048 617.475 689.754 618.87 693.1C620.48 696.76 623.31 699.73 624.73 703.5C626.012 706.967 626.37 710.707 625.768 714.354C625.167 718.001 623.627 721.428 621.3 724.3C617.36 729.05 611.13 732.81 609.3 739.02C607.23 746.12 612.94 751.64 617.2 756.48C622.456 762.303 625.536 769.765 625.92 777.6C626 779.605 625.893 781.614 625.6 783.6C625.48 784.46 628.36 783.93 628.47 783.14C629.608 775.38 627.995 767.465 623.91 760.77C621.897 757.787 619.639 754.978 617.16 752.37C614.89 749.78 612.63 746.91 611.95 743.45C610.58 736.45 616.8 731.54 621.22 727.14C623.706 724.827 625.723 722.057 627.16 718.98C628.562 715.685 629.149 712.1 628.87 708.53C628.517 704.719 627.199 701.06 625.04 697.9C622.87 694.55 620.78 691.34 620.49 687.25C619.93 679.41 624.97 672.07 630.03 666.57C635.09 661.07 640.83 656.42 644.85 650.14C646.826 647.193 648.13 643.847 648.67 640.34C649.128 636.371 648.62 632.35 647.19 628.62C645.648 624.63 643.729 620.796 641.46 617.17C639.08 613.13 636.69 609.097 634.29 605.07L619.69 580.46L616.14 574.46C615.66 573.66 612.92 574.71 613.24 575.24L613.26 575.19Z" fill="black"/>
<path d="M664.06 608.86C672.06 617.51 674.82 629.42 673.97 640.94C673.488 647.03 672.141 653.02 669.97 658.73C667.77 664.61 664.55 669.86 661.45 675.29C658.35 680.72 655.57 686.86 656.14 693.42C656.58 698.61 658.75 703.47 661.14 708.04C665.59 716.6 673.02 726.46 670.48 736.68C668.76 743.6 662.77 747.88 659.19 753.73C656.31 758.45 654.96 765.9 659.92 769.73C660.54 770.22 663.08 769.07 662.65 768.73C658.04 765.13 659.2 758.25 661.72 753.73C664.72 748.3 670.07 744.45 672.5 738.63C676.67 728.63 670.28 718.63 665.62 710.16C663.07 705.48 660.52 700.64 659.45 695.38C658.19 689.14 659.83 683.24 662.7 677.68C665.7 671.91 669.38 666.58 671.89 660.55C674.144 655.166 675.687 649.512 676.48 643.73C678.21 630.96 675.74 617.49 666.78 607.8C666.28 607.27 663.6 608.31 664.05 608.8L664.06 608.86Z" fill="black"/>
<path d="M695.78 612.72C699.06 621.91 702.39 631.29 703.19 641.08C703.538 645.916 703.202 650.778 702.19 655.52C701.19 660.3 699.83 664.97 698.74 669.72C696.706 679.375 695.333 689.158 694.63 699C694.064 703.81 694.256 708.679 695.2 713.43C696.2 717.88 698.2 722 699.9 726.23C703.857 736.183 704.183 747.211 700.82 757.38C700.28 758.99 703.18 759.04 703.61 757.75C706.634 748.833 706.906 739.213 704.39 730.14C703.11 725.6 700.97 721.37 699.39 716.93C697.785 712.335 697.085 707.471 697.33 702.61C697.53 697.67 698.19 692.74 698.77 687.83C699.35 682.92 700.01 677.94 700.98 673.06C702.87 663.41 706.45 654.06 706.3 644.11C706.12 632.97 702.39 622.33 698.69 611.95C698.21 610.58 695.32 611.38 695.79 612.72H695.78Z" fill="black"/>
<path d="M523.73 647C520.344 654.38 514.754 660.528 507.73 664.6C506.64 665.23 506.63 662.6 506.67 662.12C506.78 660.95 507.08 659.03 508.22 658.37C511.319 656.602 514.128 654.37 516.55 651.75C517.703 650.52 518.76 649.203 519.71 647.81C520.21 647.06 520.71 646.31 521.12 645.53C521.33 645.16 521.54 644.79 521.74 644.41C522.13 643.67 521.53 644.86 521.89 644.11C522.01 643.88 522.12 643.65 522.22 643.41C522.54 642.75 523.49 641.28 524.07 642.58C524.497 644.049 524.361 645.625 523.69 647H523.73Z" fill="black"/>
<path d="M469.28 643.68C472.501 651.125 477.947 657.391 484.87 661.62C485.94 662.27 486.01 659.62 485.98 659.16C485.89 657.99 485.64 656.06 484.5 655.38C481.446 653.542 478.688 651.253 476.32 648.59C475.194 647.338 474.168 646.001 473.25 644.59C472.77 643.84 472.31 643.07 471.88 642.29C471.68 641.91 471.48 641.54 471.29 641.16C470.91 640.41 471.49 641.61 471.14 640.85C471.03 640.62 470.93 640.38 470.83 640.15C470.53 639.48 469.61 637.98 469 639.28C468.546 640.737 468.645 642.311 469.28 643.7V643.68Z" fill="black"/>
<path d="M541 705.54C535.927 705.671 531.001 703.828 527.26 700.4C526.08 699.32 524.91 698.21 523.73 697.1C519.08 692.71 514.28 688.16 508.51 685.51C505.235 684.091 501.674 683.455 498.11 683.65C495.944 684.111 493.81 684.708 491.72 685.44C487.9 686.64 487.88 686.62 487.6 686.44C483.48 683.85 477.85 683.17 472.16 684.58C466.7 685.93 461.77 688.92 457.67 691.66L456.67 692.35C453.55 694.45 450.32 696.63 446.61 697.58C442.54 698.58 435.26 697.84 432.61 694.21L433.42 693.62C435.76 696.87 442.63 697.56 446.33 696.62C449.87 695.71 453.03 693.62 456.08 691.53L457.08 690.84C461.26 688.05 466.28 685.01 471.89 683.62C477.78 682.16 483.62 682.85 487.96 685.51C488.43 685.41 489.96 684.92 491.39 684.51C493.563 683.73 495.793 683.118 498.06 682.68C501.779 682.497 505.491 683.181 508.9 684.68C514.82 687.4 519.68 692 524.38 696.45C525.56 697.56 526.73 698.67 527.9 699.74C529.803 701.451 532.035 702.758 534.459 703.579C536.883 704.401 539.448 704.721 542 704.52V705.52C541.65 705.54 541.3 705.54 541 705.54Z" fill="black"/>
<path d="M491.8 720.91C489.85 720.91 487.9 720.85 485.95 720.71C463.34 719.2 447.86 708.01 434.51 696.16L435.18 695.41C448.4 707.15 463.7 718.22 486.01 719.72C504.753 721.074 523.404 716.048 538.93 705.46L539.5 706.29C525.453 715.894 508.815 720.993 491.8 720.91V720.91Z" fill="black"/>
<path d="M533.39 707.3C529.467 707.308 525.596 706.408 522.08 704.67C521 704.15 520 703.54 519 703C517.138 701.783 515.12 700.824 513 700.15C508.95 699.05 504.88 700.07 500.57 701.15C497.607 702.017 494.553 702.53 491.47 702.68C487.39 702.68 483.42 701.4 479.61 700.14C477.062 699.23 474.452 698.505 471.8 697.97C467.662 697.419 463.475 697.342 459.32 697.74L439.67 698.86L439.61 697.86L459.26 696.73C463.492 696.324 467.757 696.408 471.97 696.98C474.67 697.519 477.327 698.255 479.92 699.18C483.62 700.41 487.44 701.67 491.34 701.67H491.47C494.469 701.52 497.439 701.017 500.32 700.17C504.57 699.11 508.96 698 513.26 699.17C515.461 699.888 517.556 700.897 519.49 702.17C520.49 702.75 521.49 703.35 522.49 703.86C527.722 706.432 533.698 707.059 539.35 705.63L539.6 706.63C537.566 707.114 535.48 707.339 533.39 707.3V707.3Z" fill="black"/>
<path d="M537.71 582C549.08 592.16 564.52 595.2 579.31 595.9C584.08 596.12 588.85 596.13 593.63 596.15C594.27 596.15 595.22 595.96 595.53 595.31C595.84 594.66 595.28 594.31 594.69 594.31C576.06 594.26 555.12 594 540.38 580.83C539.52 580.06 536.79 581.21 537.71 582.03V582Z" fill="black"/>
<path d="M415.16 568.43C420.39 573.17 428.16 573.83 434.81 574.92C442.52 576.17 450.43 576.86 458.12 575.11C462.052 574.23 465.783 572.618 469.12 570.36C469.62 570.01 469.85 569.36 469.3 568.95C468.97 568.791 468.602 568.725 468.237 568.76C467.872 568.795 467.523 568.93 467.23 569.15C459.99 574.15 450.92 574.69 442.43 573.82C437.84 573.35 433.27 572.55 428.73 571.68C424.86 570.94 420.81 569.9 417.82 567.19C416.91 566.36 414.18 567.54 415.16 568.43V568.43Z" fill="black"/>
<path d="M561.21 755.89C570.59 773.95 580.49 791.727 590.91 809.22L591.03 808.22C577.36 822.04 558.63 829.88 539.94 834.22C529.474 836.701 518.756 837.969 508 838C498.191 837.889 488.416 836.831 478.81 834.84C474.483 833.967 470.18 833 465.9 831.94C462.842 831.302 459.834 830.443 456.9 829.37L457.51 829.94C455.844 825.073 454.586 820.076 453.75 815C451.75 804.49 450.38 793.85 448.75 783.28L445.88 765C445.68 763.7 442.77 764.42 442.98 765.77C444.313 774.484 445.677 783.187 447.07 791.88C448.4 800.39 449.5 808.97 451.18 817.42C451.938 821.839 453.062 826.187 454.54 830.42C454.97 831.54 456.75 831.78 457.81 832.09C460.19 832.79 462.59 833.4 465 833.99C478.25 837.23 491.71 839.72 505.38 839.99C521.084 840.176 536.714 837.812 551.66 832.99C565.45 828.63 578.89 822.14 589.76 812.45C591.02 811.32 592.25 810.16 593.45 808.95C593.58 808.822 593.663 808.653 593.684 808.471C593.706 808.29 593.666 808.106 593.57 807.95C583.15 790.457 573.247 772.68 563.86 754.62C563.29 753.52 560.52 754.56 561.21 755.88V755.89Z" fill="black"/>
<path d="M594.5 809.43C613.24 823.23 637.97 822.51 659.95 826.13C686.22 830.45 711.69 838.86 736.95 846.92C760.58 854.44 784.33 862.76 805.2 876.44C823.162 888.352 838.703 903.56 851 921.26C863.425 939.076 872.881 958.789 879 979.63C879.76 982.203 880.47 984.787 881.13 987.38C881.46 988.64 884.36 987.87 884.03 986.6C878.673 965.522 870.009 945.425 858.36 927.06C846.894 908.886 832.206 892.959 815.02 880.06C795.25 865.41 772.28 856.15 749.09 848.42C736.75 844.32 724.32 840.42 711.88 836.68C699.06 832.79 686.15 829.15 673.04 826.4C661.04 823.87 648.88 822.55 636.71 820.96C625.47 819.5 613.96 817.51 603.81 812.22C601.366 810.937 599.026 809.466 596.81 807.82C595.81 807.11 593.27 808.48 594.56 809.44L594.5 809.43Z" fill="black"/>
<path d="M452.6 828.18C448.06 834.23 440.7 837.37 434.31 841.02C426.043 845.74 417.607 850.15 409 854.25C404.805 856.283 400.498 858.076 396.1 859.62C391.84 861.09 387.51 862.38 383.22 863.77C374.388 866.732 365.813 870.411 357.58 874.77C349.22 879.08 341.09 883.77 333.02 888.63C325.33 893.23 317.63 897.81 310.11 902.63C295.29 912.17 281.4 922.91 269.62 936.07C257.849 949.118 247.999 963.779 240.37 979.61C239.457 981.537 238.587 983.483 237.76 985.45C237.48 986.09 240.28 985.81 240.63 984.99C247.657 968.775 257.064 953.699 268.54 940.26C274.118 933.574 280.217 927.341 286.78 921.62C293.529 915.866 300.633 910.542 308.05 905.68C315.51 900.68 323.18 896.08 330.87 891.48C338.87 886.69 346.87 881.92 355.1 877.48C363.266 872.919 371.783 869.016 380.57 865.81C389.13 862.81 397.94 860.6 406.21 856.87C414.94 852.95 423.48 848.52 431.85 843.87C435.317 841.943 438.787 840.007 442.26 838.06C445.573 836.304 448.702 834.22 451.6 831.84C452.956 830.704 454.18 829.419 455.25 828.01C455.9 827.15 453.07 827.5 452.6 828.12V828.18Z" fill="black"/>
<path d="M283.39 922.78C284.04 922.78 284.98 922.6 285.29 921.93C285.6 921.26 285.05 920.84 284.44 920.84C283.83 920.84 282.85 921.02 282.54 921.69C282.23 922.36 282.78 922.78 283.39 922.78Z" fill="black"/>
<path d="M607.29 358.1C607.159 358.1 607.033 358.049 606.94 357.957C606.846 357.865 606.793 357.741 606.79 357.61C605.68 302.54 623.7 249.87 641.13 198.93C646.31 183.78 652.19 166.61 664.37 154.34C664.416 154.293 664.47 154.256 664.53 154.231C664.59 154.206 664.655 154.193 664.72 154.193C664.785 154.193 664.85 154.206 664.91 154.231C664.97 154.256 665.024 154.293 665.07 154.34C665.117 154.386 665.154 154.442 665.179 154.503C665.205 154.564 665.218 154.629 665.218 154.695C665.218 154.761 665.205 154.826 665.179 154.887C665.154 154.948 665.117 155.003 665.07 155.05C653.07 167.15 647.21 184.21 642.07 199.25C624.67 250.11 606.68 302.7 607.79 357.59C607.793 357.656 607.782 357.722 607.759 357.784C607.735 357.845 607.7 357.902 607.654 357.949C607.608 357.997 607.553 358.035 607.492 358.061C607.431 358.087 607.366 358.1 607.3 358.1H607.29Z" fill="#655422"/>
<path d="M816.16 199.25C782.8 207.09 770.84 210.72 756.74 212.83C742.64 214.94 726.4 215.5 712 217.3C697.6 219.1 684.9 222.11 675.44 226.21C665.98 230.31 659.7 235.47 650.53 245.12C641.36 254.77 629.31 268.89 622.78 278.47C616.25 288.05 615.24 293.09 611.78 298.47C608.32 303.85 602.53 309.74 595.25 320.15C585.253 334.265 578.118 350.202 574.25 367.06C569.25 388.58 567.9 416.65 568.63 433.17C569.36 449.69 572.15 454.68 579.33 462.38C595.83 464.08 616.88 443.32 635.53 424.08C654.18 404.84 670.42 387.08 687.64 369.7C704.86 352.32 723 335.2 736.06 320.57C747.31 308.157 756.848 294.294 764.42 279.35C771.92 264.9 779.05 248.13 785.03 233.86C791.01 219.59 795.82 207.81 816.16 199.25Z" fill="#655422"/>
<path d="M579.54 462.5L579.06 462.36C587.44 433.64 596.46 410.45 608.31 387.16C619.24 365.361 632.707 344.93 648.43 326.29C664.67 306.66 690.32 278.76 744.89 236.97L745.19 237.37C690.66 279.13 665 307 648.81 326.61C633.111 345.223 619.665 365.624 608.75 387.39C596.92 410.64 587.92 433.81 579.54 462.5Z" fill="white"/>
<path d="M375.17 49.4302C378.58 58.1402 383.36 62.9202 387.61 72.6802Z" fill="#F6ECFB"/>
<path d="M387.15 72.8802C385.332 68.8271 383.213 64.9161 380.81 61.1802C378.418 57.522 376.372 53.6485 374.7 49.6102L375.63 49.2402C377.27 53.2252 379.279 57.0484 381.63 60.6602C384.061 64.4333 386.204 68.3845 388.04 72.4802L387.15 72.8802Z" fill="#B985D1"/>
<path d="M431.33 97.5202C431.908 98.8787 432.369 100.284 432.71 101.72C433.78 106.29 433.45 111.72 432.25 117.93C431.05 124.14 428.96 130.93 429.45 138.29L427.05 142.21C417.98 137.67 413.89 132.68 410.24 128.38C406.59 124.08 403.36 120.44 401.75 117.62C400.14 114.8 400.14 112.78 399.23 110.41C398.008 107.499 396.149 104.899 393.79 102.8C392.607 101.706 391.344 100.703 390.01 99.8002C392.25 90.3402 390.24 87.3702 389.01 84.4402C387.84 81.3986 387.326 78.1443 387.5 74.8902C387.5 71.1702 388.03 66.6202 388.14 63.1402C388.25 59.6602 387.98 57.2502 388.35 55.7702C388.72 54.2902 389.75 53.7702 391.03 54.2702C392.31 54.7702 393.87 56.3402 396.03 58.2102C398.19 60.0802 400.82 62.2802 403.55 64.4202C406.286 66.4553 408.897 68.6525 411.37 71.0002C413.638 73.2754 415.537 75.8901 417 78.7502C418.53 81.7502 419.76 85.0702 422.35 87.6502C424.94 90.2302 428.9 92.0002 431.33 97.5202Z" fill="#F6ECFB"/>
<path d="M427.23 142.86L426.82 142.65C417.9 138.19 413.82 133.33 410.15 129.05L408.35 126.93C405.777 124.103 403.436 121.073 401.35 117.87C400.512 116.364 399.899 114.744 399.53 113.06C399.339 112.221 399.092 111.396 398.79 110.59C397.596 107.751 395.782 105.216 393.48 103.17C392.318 102.099 391.074 101.119 389.76 100.24L389.47 100.05L389.55 99.71C391.55 91.38 390.19 88.3 389 85.57C388.87 85.26 388.74 84.96 388.62 84.66C387.399 81.5639 386.847 78.2446 387 74.92C387 72.84 387.19 70.52 387.34 68.28C387.47 66.44 387.59 64.7 387.64 63.15C387.64 61.84 387.64 60.68 387.64 59.66C387.56 58.3226 387.634 56.9805 387.86 55.66C387.93 55.2773 388.083 54.9145 388.307 54.5967C388.532 54.279 388.823 54.0139 389.16 53.82C389.481 53.6713 389.831 53.5942 390.185 53.5942C390.539 53.5942 390.889 53.6713 391.21 53.82C392.689 54.6095 394.038 55.6213 395.21 56.82C395.57 57.15 395.94 57.49 396.34 57.82C398.34 59.58 400.92 61.72 403.84 64.01L405 65C407.349 66.7536 409.589 68.647 411.71 70.67C414.024 72.9836 415.961 75.646 417.45 78.56C417.8 79.23 418.13 79.91 418.45 80.56C419.468 83.0346 420.906 85.3149 422.7 87.3C423.447 88.0088 424.231 88.6765 425.05 89.3C427.35 91.13 429.96 93.21 431.77 97.3C432.35 98.6871 432.818 100.118 433.17 101.58C434.17 105.89 434.02 111.26 432.71 117.99C432.45 119.31 432.15 120.66 431.85 121.99C430.71 127.15 429.54 132.48 429.92 138.19V138.35L427.23 142.86ZM390.57 99.61C391.825 100.464 393.015 101.41 394.13 102.44C396.542 104.591 398.444 107.252 399.7 110.23C400.005 111.075 400.262 111.936 400.47 112.81C400.818 114.406 401.397 115.942 402.19 117.37C404.255 120.52 406.569 123.499 409.11 126.28L410.92 128.4C414.43 132.55 418.41 137.24 426.86 141.55L428.94 138.17C428.58 132.37 429.81 126.78 430.94 121.85C431.24 120.48 431.54 119.14 431.79 117.85C433.08 111.26 433.24 106.03 432.27 101.85C431.931 100.438 431.476 99.0569 430.91 97.72C429.474 94.6645 427.26 92.0401 424.49 90.11C423.625 89.4494 422.794 88.7451 422 88C420.125 85.9418 418.623 83.5732 417.56 81C417.23 80.31 416.9 79.64 416.56 79C415.117 76.1727 413.241 73.5882 411 71.34C408.903 69.344 406.689 67.474 404.37 65.74L403.22 64.85C400.29 62.54 397.68 60.39 395.67 58.61L394.54 57.61C393.46 56.4971 392.224 55.5471 390.87 54.79C390.677 54.7018 390.467 54.6561 390.255 54.6561C390.043 54.6561 389.833 54.7018 389.64 54.79C389.433 54.9242 389.257 55.1004 389.123 55.3071C388.988 55.5138 388.899 55.7465 388.86 55.99C388.66 57.2192 388.596 58.4668 388.67 59.71C388.67 60.71 388.67 61.91 388.67 63.24C388.62 64.81 388.5 66.56 388.37 68.41C388.22 70.64 388.06 72.95 388.03 74.99C387.852 78.1756 388.353 81.3626 389.5 84.34C389.62 84.64 389.75 84.93 389.88 85.23C391.06 87.86 392.51 91.2 390.57 99.61Z" fill="#B985D1"/>
<path d="M429.45 138.29C428.96 130.95 431.04 124.09 432.25 117.93C433.46 111.77 433.78 106.29 432.71 101.72C431.64 97.1502 429.2 93.4802 428.1 89.8502C427.267 86.5858 427.043 83.1958 427.44 79.8502C427.63 77.0602 427.76 75.0702 429.5 72.2002C431.24 69.3302 434.59 65.5802 435.57 58.7202C439 63.1302 439.49 65.4602 440.84 67.5602C442.19 69.6602 444.39 71.5602 446.14 74.7202C448.186 78.8345 449.447 83.2939 449.86 87.8702C450.558 93.9514 450.447 100.098 449.53 106.15C448.591 112.706 446.409 119.023 443.1 124.76C439.61 130.7 434.59 136.33 429.45 138.29Z" fill="#F6ECFB"/>
<path d="M429 139L428.95 138.33C428.56 132.47 429.8 126.83 430.9 121.85C431.2 120.48 431.5 119.14 431.75 117.85C433.04 111.26 433.2 106.03 432.23 101.85C431.588 99.4084 430.697 97.0392 429.57 94.78C428.817 93.2306 428.166 91.6339 427.62 90C426.763 86.6749 426.533 83.2194 426.94 79.81C427.13 76.96 427.27 74.91 429.08 71.93C429.4 71.39 429.78 70.83 430.2 70.21C432.751 66.8118 434.427 62.8384 435.08 58.64L435.24 57.48L435.97 58.41C437.597 60.4647 438.976 62.7034 440.08 65.08C440.428 65.8366 440.822 66.5713 441.26 67.28C441.844 68.1485 442.485 68.9771 443.18 69.76C444.47 71.2111 445.609 72.7891 446.58 74.47C448.654 78.6405 449.933 83.161 450.35 87.8C451.055 93.9276 450.944 100.122 450.02 106.22C449.081 112.838 446.878 119.214 443.53 125C439.53 131.82 434.34 137 429.63 138.76L429 139ZM435.87 59.93C435.055 63.8516 433.393 67.5477 431 70.76C430.59 71.36 430.22 71.92 429.9 72.44C428.22 75.21 428.1 77.06 427.9 79.87C427.501 83.158 427.718 86.4915 428.54 89.7C429.07 91.2902 429.705 92.8436 430.44 94.35C431.595 96.6696 432.506 99.1026 433.16 101.61C434.16 105.92 434.01 111.29 432.7 118.02C432.44 119.34 432.14 120.69 431.84 122.02C430.75 127.02 429.62 132.07 429.84 137.52C434.17 135.6 438.9 130.77 442.6 124.45C445.888 118.781 448.061 112.536 449 106.05C449.906 100.044 450.013 93.9443 449.32 87.91C448.925 83.3856 447.684 78.9757 445.66 74.91C444.726 73.2848 443.627 71.7601 442.38 70.36C441.655 69.5437 440.986 68.6783 440.38 67.77C439.921 67.0289 439.507 66.2609 439.14 65.47C438.239 63.5182 437.143 61.6621 435.87 59.93V59.93Z" fill="#B985D1"/>
<path d="M427.05 142.21C417.98 137.67 413.89 132.68 410.24 128.38C406.59 124.08 403.36 120.44 401.75 117.62C400.14 114.8 400.14 112.78 399.23 110.41C398.008 107.499 396.149 104.898 393.79 102.8C391.084 100.286 387.92 98.3173 384.47 97C381.47 96 379.18 96.29 376.41 96.19C373.643 96.1329 370.903 95.6402 368.29 94.73C366.18 93.87 365.17 92.67 362.47 91.83C359.77 90.99 355.39 90.55 352.98 94.18C363.86 106.27 370.51 117.76 378.07 125.92C384.616 133.087 392.874 138.475 402.07 141.58C410 144.19 417.41 144.66 427.05 142.21Z" fill="#F6ECFB"/>
<path d="M415.29 144.31C410.724 144.286 406.193 143.509 401.88 142.01C392.61 138.885 384.289 133.451 377.7 126.22C373.925 121.936 370.386 117.45 367.1 112.78C362.587 106.429 357.748 100.318 352.6 94.4701L352.34 94.1801L352.56 93.8601C355.38 89.6301 360.56 90.6701 362.62 91.3201C363.908 91.7233 365.134 92.3056 366.26 93.0501C366.966 93.5048 367.708 93.8996 368.48 94.2301C371.035 95.1179 373.715 95.5971 376.42 95.6501C377.07 95.6501 377.69 95.6501 378.3 95.6501C380.441 95.543 382.584 95.8173 384.63 96.4601C388.154 97.828 391.38 99.8655 394.13 102.46C396.541 104.611 398.444 107.272 399.7 110.25C400.005 111.095 400.262 111.956 400.47 112.83C400.817 114.426 401.397 115.962 402.19 117.39C404.255 120.54 406.569 123.519 409.11 126.3L410.92 128.42C414.49 132.63 418.53 137.42 427.27 141.78L428.47 142.38L427.17 142.71C423.293 143.742 419.301 144.279 415.29 144.31V144.31ZM353.61 94.1001C358.676 99.8868 363.449 105.924 367.91 112.19C371.171 116.831 374.686 121.288 378.44 125.54C384.91 132.651 393.088 137.993 402.2 141.06C409.741 143.694 417.892 144.042 425.63 142.06C417.53 137.77 413.63 133.16 410.15 129.06L408.35 126.94C405.776 124.113 403.435 121.084 401.35 117.88C400.512 116.374 399.899 114.754 399.53 113.07C399.339 112.231 399.091 111.406 398.79 110.6C397.596 107.761 395.782 105.226 393.48 103.18C390.829 100.7 387.726 98.7509 384.34 97.4401C382.399 96.843 380.368 96.5892 378.34 96.6901C377.72 96.6901 377.08 96.6901 376.43 96.6901C373.608 96.6356 370.813 96.1327 368.15 95.2001C367.322 94.8481 366.526 94.4266 365.77 93.9401C364.716 93.2442 363.572 92.6958 362.37 92.3101C360.51 91.7101 356.11 90.8001 353.61 94.1001Z" fill="#B985D1"/>
<path d="M390 99.83C392.24 90.37 390.23 87.4 389 84.47C388.009 81.9503 387.497 79.2677 387.49 76.56C380 74.46 376.59 72.42 374.76 71.92C372.93 71.42 372.71 72.47 372.67 73.78C372.63 75.09 372.77 76.66 372.83 78.78C372.89 80.9 372.83 83.49 373.68 85.57C374.53 87.65 376.16 89.18 376.16 96.17H376.36C379.13 96.27 381.45 95.97 384.42 96.98C386.397 97.6809 388.273 98.6391 390 99.83V99.83Z" fill="#F6ECFB"/>
<path d="M390.33 100.64L389.73 100.24C388.047 99.0814 386.226 98.1374 384.31 97.4301C382.369 96.833 380.338 96.5792 378.31 96.6801C377.69 96.6801 377.05 96.6801 376.4 96.6801H375.72V96.2001C375.72 90.7501 374.72 88.7001 373.87 87.0701C373.65 86.6301 373.44 86.2101 373.27 85.7801C372.623 83.7451 372.328 81.6143 372.4 79.4801V78.8201C372.4 78.0101 372.34 77.2801 372.31 76.6101C372.26 75.6101 372.22 74.6101 372.24 73.8201C372.198 73.4247 372.245 73.025 372.376 72.6498C372.508 72.2746 372.721 71.9331 373 71.6501C373.298 71.4705 373.634 71.3626 373.981 71.3348C374.328 71.307 374.677 71.3602 375 71.4901C375.859 71.7729 376.7 72.1069 377.52 72.4901C380.828 73.9616 384.24 75.1849 387.73 76.1501L388.08 76.2501V76.6201C388.084 79.2658 388.583 81.8875 389.55 84.3501C389.67 84.6501 389.8 84.9401 389.93 85.2401C391.11 87.9701 392.59 91.3601 390.54 100.01L390.33 100.64ZM376.7 95.6401C377.25 95.6401 377.78 95.6401 378.3 95.6401C380.441 95.533 382.584 95.8073 384.63 96.4501C386.409 97.0955 388.104 97.9516 389.68 99.0001C391.42 91.2001 390.12 88.2101 388.97 85.5601C388.84 85.2501 388.71 84.9501 388.59 84.6501C387.61 82.1923 387.088 79.5758 387.05 76.9301C383.636 75.9661 380.295 74.7632 377.05 73.3301C376.272 72.9703 375.474 72.6564 374.66 72.3901C374.29 72.2901 373.8 72.2001 373.56 72.3901C373.32 72.5801 373.22 73.2101 373.2 73.7901C373.2 74.5701 373.2 75.4601 373.27 76.4901C373.27 77.1701 373.34 77.9101 373.36 78.7201V79.3801C373.289 81.4107 373.559 83.4389 374.16 85.3801C374.32 85.7901 374.51 86.1701 374.72 86.5901C375.6 88.2401 376.65 90.3201 376.7 95.6601V95.6401Z" fill="#B985D1"/>
<path d="M411.08 70.6998C411.18 70.7898 411.27 70.8898 411.37 70.9898C413.639 73.2681 415.538 75.8862 417 78.7498C418.53 81.7498 419.76 85.0698 422.35 87.6498C424.94 90.2298 428.88 92.0298 431.35 97.5198C430.22 94.7698 428.87 92.2998 428.12 89.8498C427.287 86.5854 427.063 83.1954 427.46 79.8498C427.65 77.0598 427.78 75.0698 429.52 72.1998C429.84 71.6798 430.21 71.1298 430.61 70.5398C428.74 65.3298 428.06 64.8798 427.01 64.1798C425.497 63.2327 424.146 62.0475 423.01 60.6698C421.44 58.7898 419.73 55.9698 418.28 56.3098C414.78 59.0398 414.65 61.6098 413.75 63.7398C412.85 65.8698 411.13 67.5598 411.08 70.6998Z" fill="#F6ECFB"/>
<path d="M430.88 97.7199C429.443 94.659 427.225 92.0308 424.45 90.0999C423.598 89.4415 422.781 88.7406 422 87.9999C420.125 85.9417 418.623 83.5731 417.56 80.9999C417.23 80.3099 416.9 79.6399 416.56 78.9999C415.117 76.1726 413.241 73.5881 411 71.3399L410.55 70.9099V70.6899C410.639 68.7703 411.24 66.9094 412.29 65.2999C412.628 64.7287 412.932 64.1377 413.2 63.5299C413.39 63.0799 413.54 62.6099 413.7 62.1299C414.342 59.6371 415.816 57.4388 417.88 55.8999L418.07 55.8099C419.53 55.4599 420.88 57.2199 422.31 59.0799C422.65 59.5099 422.98 59.9399 423.31 60.3299C424.429 61.6691 425.756 62.8203 427.24 63.7399C428.47 64.5599 429.24 65.2199 431.04 70.3499L431.12 70.5899L430.98 70.7999C430.59 71.3799 430.22 71.9299 429.91 72.4399C428.23 75.2099 428.11 77.0599 427.91 79.8699C427.511 83.1579 427.728 86.4914 428.55 89.6999C429.08 91.2901 429.715 92.8435 430.45 94.3499C430.89 95.3499 431.34 96.3499 431.77 97.3499L430.88 97.7199ZM411.58 70.4999L411.72 70.6299C414.034 72.9436 415.971 75.6059 417.46 78.5199C417.81 79.1899 418.14 79.8699 418.46 80.5199C419.478 82.9946 420.916 85.2748 422.71 87.2599C423.456 87.9687 424.241 88.6364 425.06 89.2599C426.271 90.1762 427.414 91.1788 428.48 92.2599C428.15 91.4951 427.86 90.7141 427.61 89.9199C426.753 86.5948 426.522 83.1393 426.93 79.7299C427.12 76.8799 427.26 74.8299 429.07 71.8499C429.35 71.3899 429.67 70.8499 430.02 70.3799C428.28 65.5499 427.65 65.1299 426.7 64.5099C425.149 63.5623 423.755 62.378 422.57 60.9999C422.23 60.5999 421.89 60.1599 421.57 59.7099C420.57 58.3799 419.28 56.7099 418.44 56.7899C416.59 58.2085 415.272 60.2097 414.7 62.4699C414.53 62.9799 414.37 63.4699 414.17 63.9399C413.889 64.5842 413.572 65.2119 413.22 65.8199C412.289 67.2175 411.725 68.8269 411.58 70.4999V70.4999Z" fill="#B985D1"/>
<path d="M435.82 438.22C435.715 438.221 435.612 438.186 435.53 438.12C435.425 438.042 435.355 437.926 435.334 437.798C435.314 437.669 435.344 437.537 435.42 437.43C457.15 407.24 451 377.74 446 354C445.22 350.29 444.49 346.78 443.89 343.42C441.01 327.11 441.53 314.78 442.14 300.52C442.47 292.77 442.81 284.75 442.7 275.01C442.35 242.23 437.06 198.8 426.51 142.26C426.486 142.13 426.515 141.996 426.59 141.888C426.665 141.779 426.78 141.704 426.91 141.68C426.975 141.666 427.042 141.665 427.108 141.677C427.174 141.69 427.236 141.715 427.291 141.753C427.346 141.79 427.393 141.839 427.429 141.895C427.465 141.951 427.489 142.014 427.5 142.08C438.05 198.68 443.35 242.16 443.7 275C443.81 284.77 443.45 293.16 443.14 300.56C442.53 314.77 442.01 327.04 444.88 343.25C445.47 346.59 446.2 350.09 446.98 353.8C451.98 377.69 458.18 407.42 436.19 437.97C436.152 438.038 436.099 438.096 436.035 438.14C435.971 438.183 435.897 438.211 435.82 438.22V438.22Z" fill="#655422"/>
<path d="M91.6997 297.94C125.96 298.43 143.24 302.8 158.27 304.71C173.3 306.62 186.07 306.06 201.69 306.8C217.31 307.54 235.78 309.58 250.69 312.89C280.53 319.5 296.17 331.18 305.69 338.43C309.983 341.506 313.998 344.953 317.69 348.73C321.69 352.88 326.32 358.67 334.52 367.95C342.72 377.23 354.46 389.95 363.99 409.95C373.52 429.95 380.9 457 383.73 473.28C386.56 489.56 384.91 495.04 379.55 504.11C363.8 509.32 338.79 493.56 316.44 478.77C294.09 463.98 274.44 450.17 254.29 436.85C234.14 423.53 213.57 410.71 198.83 399.22C186.281 389.708 175.414 378.162 166.68 365.06C158.16 352.56 149.99 337.71 138.8 325.06C127.61 312.41 113.4 301.93 91.6997 297.94Z" fill="#7F7E35"/>
<path d="M372.66 505.4C357.66 505.4 337.43 492.96 316.3 478.98C304.88 471.42 294.11 464.08 283.71 456.98C273.57 450.08 263.99 443.55 254.15 437.05C249.27 433.81 244.3 430.58 239.5 427.45C224.25 417.5 209.84 408.11 198.68 399.45C186.119 389.913 175.236 378.348 166.48 365.23C163.96 361.54 161.48 357.71 158.93 353.65C152.81 344.07 146.49 334.15 138.61 325.25C125.36 310.25 110.44 301.67 91.6099 298.25V297.76C110.096 297.951 128.537 299.64 146.75 302.81C150.75 303.46 154.59 304.07 158.21 304.53C167.61 305.592 177.06 306.139 186.52 306.17C191.34 306.27 196.32 306.37 201.61 306.62C219.06 307.45 236.94 309.67 250.66 312.72C280.89 319.41 296.48 331.24 305.8 338.3C310.092 341.385 314.107 344.838 317.8 348.62C320.04 350.97 322.54 353.88 325.7 357.56C328.22 360.49 331.07 363.81 334.64 367.85L335.88 369.25C343.98 378.38 355.07 390.89 364.15 409.88C373.53 429.5 380.94 456.51 383.86 473.31C386.78 490.11 384.92 495.39 379.64 504.31V504.39H379.55C377.321 505.091 374.996 505.431 372.66 505.4V505.4ZM94.4699 298.24C112.11 302.03 126.31 310.55 138.99 324.89C146.89 333.82 153.22 343.75 159.35 353.35C161.93 357.41 164.35 361.23 166.89 364.92C175.626 377.985 186.478 389.503 199 399C210.15 407.7 224.55 417.08 239.79 427C244.59 430.13 249.56 433.37 254.45 436.6C264.29 443.11 273.87 449.6 284.01 456.54C294.41 463.63 305.18 470.96 316.6 478.54C341.03 494.71 364.23 508.81 379.4 503.88C386.02 492.66 385.76 486.25 383.51 473.3C380.59 456.54 373.19 429.58 363.84 410.01C354.79 391.08 343.73 378.6 335.65 369.49L334.41 368.09C330.83 364.09 327.98 360.73 325.46 357.8C322.3 354.12 319.81 351.22 317.58 348.88C313.892 345.108 309.877 341.671 305.58 338.61C296.3 331.61 280.77 319.79 250.64 313.11C234.497 309.77 218.11 307.737 201.64 307.03C196.35 306.78 191.37 306.68 186.56 306.58C177.095 306.572 167.637 306.044 158.23 305C154.61 304.54 150.79 303.93 146.76 303.28C129.485 300.26 112.003 298.575 94.4699 298.24V298.24Z" fill="#304F25"/>
<path d="M379.33 504.23C365 478 351.22 457.32 334.67 437.14C319.335 418.225 301.82 401.188 282.49 386.38C262.43 370.71 231.43 349 169.2 319.92L169.41 319.47C231.68 348.57 262.72 370.3 282.8 385.99C302.159 400.818 319.701 417.879 335.06 436.82C351.63 457 365.42 477.74 379.77 504L379.33 504.23Z" fill="white"/>
<path d="M571.72 10.34C563.42 2.51004 556.72 1.81004 551.25 2.85004C546.442 3.84167 541.98 6.07981 538.31 9.34004C535.496 11.5813 533.28 14.4843 531.86 17.79C530.55 20.94 529.94 24.62 529.48 31.15C529.02 37.68 528.71 47.05 527.02 55.65C525.26 63.9144 522.5 71.9335 518.8 79.53C515.35 86.98 511.51 94.05 509.46 98.83C507.967 102.182 507.051 105.763 506.75 109.42C506.33 112.75 505.75 116.91 506 120.09C506.25 123.27 507.39 125.44 508.51 126.27C509.63 127.1 510.76 126.57 512.38 126.43C514 126.29 516.12 126.57 518.99 126.7C521.86 126.83 525.51 126.83 528.91 128.47C532.31 130.11 535.49 133.38 536.08 135.56C531.32 137.15 528.55 139.23 526.3 140.37C524.55 141.32 522.566 141.751 520.58 141.61C518.678 141.523 516.823 140.996 515.16 140.07C513.27 139.07 511.29 137.34 504.55 136.75C486.33 177.31 475.69 209.75 471.24 232.93C466.79 256.11 468.54 269.88 469.74 279.44C470.94 289 471.62 294.3 472.62 296.77C473.62 299.24 474.95 298.85 475.67 298.21C476.63 296.898 478.027 295.972 479.61 295.6C484.517 294.158 489.573 293.285 494.68 293C499.814 292.738 504.961 292.973 510.05 293.7C514.18 294.26 517 294.86 518.36 295.92C519.72 296.98 519.62 298.49 518.46 300.1C516.996 301.991 515.021 303.424 512.77 304.23C510.45 305.04 508.03 304.94 502.51 305.34C492.689 306.256 482.801 306.202 472.99 305.18C472.99 336.18 472.99 351.12 476.94 366.74C480.89 382.36 488.81 398.66 495.61 411.27C502.41 423.88 508.1 432.79 517.39 437.81C526.68 442.83 539.58 444 552 440.92C564.815 437.845 576.232 430.569 584.43 420.25C592.48 409.82 596.66 396.17 599.6 381.66C602.501 366.446 604.454 351.066 605.45 335.61C606.66 319.41 607.37 302.39 608.72 290.45C609.58 282.317 611.197 274.282 613.55 266.45C615.05 261.22 616.04 257.61 616.23 254.45C616.42 251.29 615.79 248.54 613.86 246.45C611.93 244.36 608.7 242.84 604.35 242.59C600 242.34 594.52 243.34 590.23 244.33C585.94 245.32 582.82 246.33 577.72 247.66C572.62 248.99 565.53 250.66 564.41 251.05C564.41 242.84 573.5 237.32 580.41 234.05C587.32 230.78 592.1 229.85 595.69 230.05C599.28 230.25 601.69 231.66 604.33 232.67C606.74 233.598 609.268 234.183 611.84 234.41C613.84 234.53 614.98 234.15 614.98 230.64C614.98 227.13 613.84 220.5 613.27 213.02C612.654 205.666 612.731 198.27 613.5 190.93C614.3 184.64 615.89 180.4 616.5 176.93C617.11 173.46 616.81 170.77 614.24 169.05C611.67 167.33 606.85 166.6 602.58 166.83C598.31 167.06 594.58 168.25 590.12 169.43C585.66 170.61 580.51 171.79 577.31 172.43C574.11 173.07 572.89 173.27 572.7 172.49C572.51 171.71 573.35 169.99 574.76 168.54C576.486 166.986 578.373 165.621 580.39 164.47C583.259 162.466 586.406 160.893 589.73 159.8C594.83 158.245 600.047 157.105 605.33 156.39C607.725 156.064 610.146 155.963 612.56 156.09C614.03 156.09 615.4 155.74 614.19 152.88C612.98 150.02 609.19 144.63 605.19 139.76C601.19 134.89 596.95 130.56 594.53 126.69C592.11 122.82 591.53 119.38 591.45 114.69C591.37 110 591.91 103.91 591.86 96.25C591.816 87.6481 591.195 79.0587 590 70.54C588.7 61.78 586.71 53.54 583.51 41.97C580.31 30.4 575.84 15.62 571.72 10.34Z" fill="#353E18"/>
<path d="M545.57 442.09C542.12 323.48 548.57 279.34 553.24 247.09V246.92C557.94 214.62 561.04 193.29 561.04 171.16C561.04 150.79 558.44 129.7 555.93 109.3L555.26 103.92C552.73 83.17 550.1 61.71 564.15 21.27L564.63 21.44C550.63 61.77 553.23 83.16 555.76 103.86L556.42 109.24C558.94 129.65 561.54 150.76 561.54 171.16C561.54 193.32 558.44 214.67 553.74 246.99V247.16C549.05 279.37 542.64 323.49 546.08 442.06L545.57 442.09Z" fill="white"/>
<path d="M485.59 378C489.53 374.8 496.93 371.29 502.98 367.55C508.549 364.253 513.498 360.006 517.6 355C521.712 349.994 524.52 344.047 525.77 337.69C526.927 331.139 526.654 324.415 524.97 317.98C523.44 312.71 520.97 309.87 518.79 308.88C516.61 307.89 514.87 308.75 512.5 311.71C510.13 314.67 507.13 319.71 503.66 325.27C500.19 330.83 496.21 336.74 493.2 341.57C490.19 346.4 488.15 350.09 484.99 351.57C481.83 353.05 477.54 352.21 474.89 350.66C472.24 349.11 471.22 346.8 471.84 344.2C472.46 341.6 474.7 338.71 477.73 335C480.76 331.29 484.56 326.77 488.15 322.45C491.74 318.13 495.15 314.02 497.64 308.95C500.138 303.589 501.782 297.87 502.51 292C503.316 286.232 503.282 280.378 502.41 274.62C501.461 268.557 500.047 262.576 498.18 256.73C497.121 253.154 495.662 249.709 493.83 246.46C492.598 244.353 491.225 242.331 489.72 240.41C488.72 239.11 488.28 238.72 487.91 238.84C487.54 238.96 487.23 239.6 486.7 241.32C485.843 244.224 485.155 247.176 484.64 250.16C483.812 255.747 482.52 261.256 480.78 266.63C478.296 273.252 475.217 279.634 471.58 285.7C468.17 291.56 464.94 296.39 462.02 300.83C459.1 305.27 456.48 309.29 453.41 311.83C450.34 314.37 446.81 315.36 444.3 314.83C441.79 314.3 440.3 312.21 439.47 309.35C438.495 305.751 438.731 301.932 440.14 298.48C441.76 294.13 445.14 289.1 447.79 285.21L456.08 272.94C459.89 267.31 465.65 258.77 468.84 251.22C471.602 244.773 472.761 237.753 472.22 230.76C471.744 224.415 470.481 218.153 468.46 212.12C466.605 205.983 464.048 200.081 460.84 194.53C458.058 189.902 454.476 185.805 450.26 182.43C446.42 179.35 442.39 177.13 439.58 176.8C436.77 176.47 435.18 178.05 435.18 182.02C435.18 185.99 436.77 192.34 437.57 198.9C438.331 205.438 438.388 212.039 437.74 218.59C437.12 224.98 435.88 230.99 434.74 236.75C433.6 242.51 432.6 248 430.53 253C428.46 258 425.36 262.59 422.22 264.87C420.883 265.86 419.316 266.495 417.667 266.715C416.018 266.936 414.34 266.734 412.79 266.13C409.614 265.187 406.888 263.122 405.12 260.32C403.59 257.57 403.59 254.13 405.12 249.67C406.65 245.21 409.59 239.67 411.41 233.88C413.23 228.09 413.89 221.88 414.62 215.03C415.35 208.18 416.14 200.67 415.91 193.75C415.761 187.276 414.51 180.874 412.21 174.82C410.198 169.383 406.945 164.49 402.71 160.53C399.042 157.249 394.649 154.884 389.89 153.63C386.19 152.77 383.81 153.43 383.14 158.35C382.47 163.27 383.5 172.45 383.9 180.29C384.3 188.13 384.05 194.61 384.46 200.29C384.87 205.97 385.93 210.87 386.36 215.54C386.79 220.21 386.59 224.63 384.74 228.63C382.89 232.63 379.38 236.2 375.74 236.96C372.1 237.72 368.34 235.67 366.06 232.76C363.78 229.85 362.98 226.08 362.94 221.51C363.055 216.211 363.603 210.93 364.58 205.72C365.58 199.87 366.74 193.54 366.49 188.33C366.24 183.12 364.54 179.07 361.49 174.13C358.44 169.19 353.91 163.4 348.32 160.46C342.73 157.52 336.04 157.46 330.21 157.28C324.38 157.1 319.38 156.87 315.21 155.28C311.04 153.69 307.57 150.88 304.35 149.04C301.13 147.2 298.1 146.39 294.97 147.13C291.84 147.87 288.61 150.13 285.06 155.54C281.51 160.95 277.65 169.38 273.06 176.38C268.47 183.38 263 189 259.88 193.71C257.078 197.71 255.727 202.547 256.05 207.42C256.363 213.041 257.258 218.614 258.72 224.05C259.912 228.922 261.709 233.625 264.07 238.05C266.698 243.262 270.299 247.923 274.68 251.78C279.38 255.68 285.33 258.33 290.91 261.11C296.014 263.599 300.972 266.377 305.76 269.43C309.087 271.612 312.237 274.053 315.18 276.73C317.72 279.01 319.97 281.2 320.24 283.15C320.51 285.1 318.78 286.82 315.87 287.84C312.125 289.066 308.079 289.01 304.37 287.68C299.87 286.16 294.98 282.78 289.46 278.55C283.94 274.32 277.79 269.23 271.14 265.13C264.49 261.03 257.36 257.92 252.53 258.05C247.7 258.18 245.19 261.56 243.53 264.99C241.87 268.42 241.06 271.92 242.42 277.62C243.78 283.32 247.3 291.22 252.03 296.3C256.76 301.38 262.7 303.64 270.82 306.51C278.94 309.38 289.22 312.85 297.33 316.51C305.44 320.17 311.4 323.94 316.43 328.61C321.46 333.28 325.6 338.84 326.5 342.13C327.4 345.42 325.07 346.47 322.22 347C319.37 347.53 315.97 347.52 310.66 344.79C305.35 342.06 298.1 336.59 290.31 332.29C282.578 328.156 274.429 324.855 266 322.44C257.8 319.97 249.71 318.18 243.92 318.87C238.13 319.56 234.61 322.75 234.25 327.95C233.89 333.15 236.65 340.34 242.53 347.18C248.41 354.02 257.38 360.47 266.44 364.62C275.5 368.77 284.65 370.62 294.05 372.07C303.45 373.52 313.05 374.59 319.42 375.48C325.79 376.37 328.72 377.11 329.96 378.79C331.2 380.47 330.7 383.11 328.26 385.19C325.82 387.27 321.44 388.81 316.51 389.98C311.138 391.312 305.613 391.927 300.08 391.81C293.938 391.717 287.864 390.5 282.16 388.22C276.9 385.93 272.98 382.51 268.36 379.4C263.74 376.29 258.42 373.5 253.24 374.4C248.06 375.3 243.01 379.76 241.79 384.34C240.57 388.92 243.18 393.57 247.39 397.93C251.6 402.29 257.39 406.38 263.77 410.12C270.189 414.018 277.069 417.101 284.25 419.3C291.126 421.344 298.346 421.963 305.47 421.12C312.22 420.22 318.41 417.74 323.19 416.48C327.97 415.22 331.32 415.16 333.45 416.15C333.954 416.361 334.412 416.669 334.797 417.058C335.181 417.447 335.485 417.908 335.691 418.414C335.896 418.921 335.999 419.463 335.994 420.01C335.989 420.557 335.875 421.097 335.66 421.6C334.85 424 332.32 426.78 329.53 429.23C326.725 431.901 323.282 433.808 319.53 434.77C314.932 435.685 310.198 435.685 305.6 434.77C301.12 433.91 297.44 432.36 293.13 431.18C289.296 430.09 285.369 429.36 281.4 429C278.92 428.89 278.92 429.49 279.56 432.13C280.593 436.644 282.604 440.877 285.45 444.53C289.915 449.996 295.336 454.604 301.45 458.13C305.827 460.744 310.924 461.897 316 461.42C320.873 460.918 325.69 459.97 330.39 458.59C335.09 457.34 339.5 456.09 343.55 453.05C347.6 450.01 351.31 445.19 354.65 441.39C357.99 437.59 360.96 434.81 363.74 433.32C366.52 431.83 369.09 431.64 370.74 432.32C372.39 433 373.02 434.5 373.16 436.61C373.345 439.203 372.639 441.782 371.16 443.92C369.41 446.4 366.3 448.65 363.36 451.49C360.573 454.313 357.936 457.28 355.46 460.38C353.27 463 351.69 464.78 351.79 466.83C351.89 468.88 353.67 471.19 357.34 473.41C361.01 475.63 366.56 477.74 373.9 478.93C381.24 480.12 390.37 480.38 397.9 478.43C404.601 476.603 410.737 473.127 415.75 468.32C420.01 464.32 422.53 460.48 423.82 455.52C425.11 450.56 425.17 444.52 424.68 439.26C424.142 434.57 423.3 429.92 422.16 425.34C421.16 421.01 420.34 416.71 419.88 413.13C419.42 409.55 419.36 406.67 422.83 408.75C426.3 410.83 433.32 417.84 441.38 422.1C449.335 426.229 458.326 427.933 467.24 427C476.147 426.014 484.676 422.859 492.08 417.81C499.342 412.948 505.828 407.018 511.32 400.22C514.717 396.123 517.015 391.23 518 386C519.13 381.107 519.8 376.118 520 371.1C520 367.1 519.24 364.96 518.09 364.46C516.94 363.96 515.41 365.09 513.23 367.96C511.05 370.83 508.23 375.47 505.82 378.96C503.915 382.027 501.449 384.707 498.55 386.86C495.55 388.98 491.55 390.86 488.4 390.86C487.031 390.887 485.689 390.484 484.562 389.707C483.435 388.93 482.581 387.819 482.12 386.53C481.19 384.12 481.66 381.21 485.59 378ZM424.15 292.66C425.57 291.48 426.88 290.49 428.15 289.53C430.518 287.825 432.739 285.925 434.79 283.85C438.492 279.861 441.513 275.29 443.73 270.32C445.85 265.5 446.83 260.82 448 253.32C448.34 251.14 448.7 248.78 449.13 245.87C450.13 239.25 451.47 230.19 454 214.46L454.38 214.52C451.84 230.25 450.49 239.31 449.51 245.92C449.07 248.83 448.72 251.2 448.38 253.38C447.2 260.89 446.21 265.59 444.08 270.44C441.855 275.456 438.813 280.068 435.08 284.09C433.01 286.173 430.772 288.083 428.39 289.8C427.12 290.8 425.82 291.75 424.39 292.92C419.683 296.83 415.42 301.247 411.68 306.09C407.68 311.42 404.81 316.98 400.49 332.58L400.12 332.47C404.43 316.91 407.4 311.11 411.38 305.86C415.134 301 419.417 296.572 424.15 292.66V292.66ZM405.05 285.55C407.11 283.46 409.05 282.18 410.46 282.29C411.87 282.4 412.79 283.89 413.54 285.71C414.371 287.512 414.758 289.487 414.67 291.47C414.517 292.396 414.171 293.28 413.654 294.064C413.137 294.848 412.461 295.515 411.67 296.02C409.612 297.481 407.323 298.586 404.9 299.29C402.33 300.07 399.65 300.44 398.58 299.4C397.51 298.36 398.04 295.89 399.41 293.21C400.911 290.398 402.811 287.818 405.05 285.55V285.55ZM396.26 246.84C397.01 245.71 397.66 244.73 398.26 243.84C401.95 237.9 402.58 233.84 402.72 230.32C402.86 226.8 402.46 223.16 401.79 217.11C401.67 216 401.54 214.82 401.4 213.54L401.13 211.01C400.26 202.78 399.13 192.53 397.74 187.54L398.11 187.43C399.54 192.43 400.63 202.72 401.51 210.97L401.78 213.5C401.92 214.78 402.05 215.96 402.17 217.07C402.84 223.14 403.25 226.8 403.1 230.34C402.95 233.88 402.32 238.03 398.58 244.04C398 244.98 397.35 245.96 396.58 247.09C392.9 252.61 386.75 261.85 374.36 287.86L374.02 287.69C386.42 261.62 392.58 252.36 396.26 246.84V246.84ZM323.16 166.25C323.7 164.25 324.77 163.42 326.16 163.82C327.55 164.22 329.43 165.82 330.72 167.49C331.907 169.043 332.771 170.818 333.26 172.71C333.786 174.573 334.022 176.505 333.96 178.44C333.88 180.34 333.45 182.16 331.96 182.99C331.025 183.421 329.984 183.569 328.966 183.416C327.948 183.263 326.997 182.816 326.23 182.13C324.48 180.61 323.52 177.71 323.04 174.64C322.567 171.859 322.608 169.016 323.16 166.25V166.25ZM287.8 205.35C288.603 204.609 289.584 204.089 290.648 203.842C291.713 203.595 292.823 203.628 293.87 203.94C296.41 204.53 299.28 206.31 302.12 208.43C304.955 210.529 307.602 212.871 310.03 215.43C311.969 217.328 313.512 219.591 314.57 222.09C314.866 222.841 314.898 223.67 314.662 224.442C314.426 225.214 313.935 225.883 313.27 226.34C311.724 227.534 309.874 228.272 307.93 228.47C306.17 228.58 304.87 227.88 303.05 226.65C301.23 225.42 298.88 223.65 296.65 221.83C294.42 220.01 292.29 218.21 290.47 216.41C288.65 214.61 287.13 212.83 286.59 210.86C286.311 209.914 286.275 208.913 286.487 207.949C286.698 206.986 287.15 206.092 287.8 205.35V205.35ZM333 399C330.86 400 328.84 400.92 326.86 401.72C321.668 403.884 316.146 405.152 310.53 405.47C309.67 405.53 308.79 405.57 307.84 405.57C302.25 405.57 294.39 404.19 275.98 396.66L276.13 396.31C297.59 405.09 304.64 405.47 310.51 405.09C316.081 404.773 321.558 403.515 326.71 401.37C328.71 400.57 330.71 399.64 332.84 398.65C336.538 396.852 340.345 395.289 344.24 393.97C348.501 392.75 352.846 391.844 357.24 391.26C359.33 390.92 361.49 390.57 363.72 390.15C370.72 388.83 378.49 386.69 396.72 375.26L396.92 375.59C378.62 387.05 370.8 389.2 363.78 390.53C361.55 390.95 359.38 391.3 357.29 391.63C352.93 392.22 348.619 393.126 344.39 394.34C340.497 395.648 336.693 397.204 333 399ZM370.88 404.8C370.772 407.279 369.859 409.656 368.28 411.57C366.345 413.658 363.825 415.115 361.05 415.75C360.013 416.042 358.916 416.044 357.877 415.757C356.839 415.47 355.899 414.903 355.16 414.12C353.88 412.62 353.4 410.26 354.28 407.42C355.402 404.261 357.276 401.423 359.74 399.15C361.523 397.382 363.861 396.284 366.36 396.04C367.174 395.939 367.999 396.108 368.708 396.519C369.418 396.931 369.973 397.563 370.29 398.32C371.017 400.405 371.23 402.635 370.91 404.82L370.88 404.8ZM362.52 424.14C353.99 431.05 347.81 434.9 339.72 438.33C330.72 442.14 320.72 444.67 301.03 444.67V444.29C320.64 444.29 330.62 441.77 339.57 437.98C347.63 434.56 353.78 430.73 362.27 423.84C372.36 415.66 384.18 404.28 401.79 385.84L402.06 386.1C384.47 404.58 372.65 416 362.55 424.16L362.52 424.14ZM386.41 455.61L386.09 455.39C404.45 428.6 408.57 416.39 406.14 396.07H406.52C409 416.5 404.86 428.75 386.44 455.63L386.41 455.61ZM397.26 358.51C385.98 358.74 375.96 358.86 367.1 358.86C350.55 358.86 338 358.45 328.59 357.62C319.868 356.873 311.226 355.378 302.76 353.15L298.34 352.08C296.54 351.66 294.66 351.24 292.69 350.8C282.949 348.761 273.331 346.177 263.88 343.06L264 342.7C273.437 345.811 283.043 348.388 292.77 350.42L298.43 351.71L302.85 352.77C311.295 355.002 319.917 356.497 328.62 357.24C343.02 358.51 364.81 358.8 397.07 358.13L379.37 322.84C371.61 322.617 363.998 320.663 357.09 317.12C354.606 315.809 352.202 314.353 349.89 312.76C347.473 311.021 344.87 309.556 342.13 308.39C337.63 306.65 331.79 306.06 325.61 305.39L322.88 305.11C314.619 304.279 306.417 302.943 298.32 301.11C288.54 298.88 276.99 295.43 263.66 282.59L263.93 282.31C277.18 295.08 288.68 298.52 298.41 300.73C306.489 302.569 314.675 303.905 322.92 304.73L325.65 305.01C331.85 305.65 337.72 306.25 342.27 308.01C345.036 309.179 347.663 310.655 350.1 312.41C352.4 314 354.794 315.45 357.27 316.75C364.065 320.235 371.547 322.175 379.18 322.43L345.31 254.87C337.11 252.15 330.96 250.58 326.59 250.09C325.241 249.948 323.886 249.881 322.53 249.89C321.147 249.956 319.763 249.801 318.43 249.43C316.58 248.88 312.73 247.23 307.84 242.36L306.54 241.03C302.63 237.03 296.73 230.89 275.22 219.91L275.39 219.57C296.96 230.57 302.89 236.71 306.81 240.76L308.11 242.09C311.64 245.6 315.44 248.15 318.54 249.09C319.843 249.441 321.192 249.59 322.54 249.53C323.909 249.516 325.278 249.583 326.64 249.73C330.97 250.21 337.03 251.73 345.08 254.41L304.25 173C326.78 210 337.42 232.62 349.42 255.94L349.61 256.01L349.54 256.19C350.23 257.52 350.91 258.85 351.61 260.19C360.03 276.38 369.47 293.36 383.03 322.51H383.11V322.71C387.84 332.88 393.11 344.55 398.94 358.17H399V358.36C402.11 365.6 405.4 373.36 408.89 381.8L397.26 358.51ZM335.52 321.89C336.28 320.59 338.19 319.81 340.1 319.48C342.118 319.143 344.19 319.354 346.1 320.09C348.497 321.043 350.77 322.282 352.87 323.78C354.686 324.879 356.228 326.377 357.38 328.16C357.859 328.938 358.141 329.82 358.202 330.732C358.263 331.643 358.101 332.555 357.73 333.39C357.226 334.359 356.466 335.172 355.534 335.741C354.602 336.31 353.532 336.614 352.44 336.62C349.88 336.68 346.67 335.34 343.74 333.47C341.02 331.789 338.619 329.639 336.65 327.12C335.18 325 334.79 323.21 335.55 321.91L335.52 321.89ZM411.71 331.1C412.37 328.16 413.49 325.58 416.01 323.8C418.953 321.923 422.403 320.998 425.89 321.15C428.965 321.204 431.934 322.289 434.32 324.23C435.143 324.927 435.814 325.785 436.292 326.752C436.77 327.719 437.045 328.773 437.1 329.85C437.121 330.744 436.958 331.633 436.623 332.461C436.288 333.29 435.786 334.042 435.15 334.67C433.441 336.318 431.627 337.855 429.72 339.27C427.72 340.92 425.72 342.77 423.87 344.56C422.02 346.35 420.3 348.06 418.87 348.66C417.44 349.26 416.12 348.72 414.8 347.2C413.145 345.192 412.008 342.809 411.49 340.26C410.951 337.228 411.036 334.118 411.74 331.12L411.71 331.1ZM411.93 362.15C425.792 355.226 439.095 347.235 451.72 338.25C459.37 332.84 463.1 329.99 466.72 325.39C470.34 320.79 473.72 314.58 490.47 284.6L490.81 284.78C474.09 314.78 470.61 321.03 467.02 325.62C463.43 330.21 459.64 333.13 451.96 338.56C439.323 347.562 426.003 355.563 412.12 362.49L411.93 362.15ZM453.45 367.32C451.689 368.808 449.55 369.777 447.27 370.12C445.316 370.632 443.248 370.481 441.39 369.69C440.499 369.183 439.719 368.504 439.094 367.691C438.469 366.879 438.012 365.951 437.75 364.96C437.452 363.953 437.424 362.886 437.668 361.864C437.912 360.843 438.419 359.904 439.14 359.14C441.003 357.339 443.366 356.14 445.92 355.7C448.048 355.374 450.224 355.749 452.12 356.77C454.12 357.7 456.3 359.05 456.6 361.03C456.9 363.01 455.35 365.66 453.48 367.34L453.45 367.32ZM474 405.92C459.49 405.92 452.9 405.17 446.86 403.05C442.46 401.51 438.26 399.21 431.29 395.4C427.13 393.13 421.95 390.31 415.12 386.75L415.3 386.41C422.13 389.97 427.3 392.8 431.47 395.07C438.42 398.86 442.62 401.15 446.98 402.69C453.88 405.11 461.53 405.74 481.08 405.49V405.87C478.55 405.91 476.2 405.92 474 405.92ZM460.25 376.08C451.31 377.35 437.64 378.16 415.95 378.69V378.31C437.63 377.78 451.28 376.97 460.21 375.7C470.3 374.26 475.16 372.01 482.21 367.48C489.68 362.72 500.02 355.1 506.62 348.01L506.9 348.27C500.27 355.39 489.9 363.03 482.42 367.81C475.33 372.36 470.43 374.63 460.27 376.08H460.25Z" fill="#304F25"/>
<path d="M675.29 99.0001C673.23 96.2601 671.04 93.4301 667.93 92.0001C664.82 90.5701 660.51 91.1101 658.81 94.0901C658.261 95.2195 657.922 96.4393 657.81 97.6901L653.4 125.59C652.79 129.46 652.17 133.39 652.61 137.29C653.91 148.84 664.61 157.76 676.12 159.69C687.63 161.62 699.32 157.74 709.37 151.91C714.98 148.66 720.9 143.2 719.49 136.91C718.911 134.726 717.512 132.85 715.583 131.673C713.655 130.495 711.347 130.108 709.14 130.59C714.36 132.59 720.98 128.92 722 123.41C723.02 117.9 718.14 112 712.53 112" fill="#F7D1E4"/>
<path d="M682.13 160.65C680.08 160.656 678.032 160.489 676.01 160.15C661.73 157.75 653.17 146.85 652.09 137.32C651.64 133.32 652.27 129.32 652.89 125.48L657.29 97.5801C657.424 96.2683 657.794 94.9913 658.38 93.8101C660.27 90.5001 664.92 90.0401 668.13 91.5101C671.34 92.9801 673.69 96.0201 675.69 98.6701L674.89 99.2701C672.97 96.7201 670.79 93.8301 667.72 92.4201C664.89 91.1201 660.81 91.5701 659.25 94.3101C658.713 95.3803 658.374 96.5391 658.25 97.7301L653.84 125.63C653.24 129.43 652.62 133.35 653.06 137.21C654.06 146.36 662.35 156.84 676.15 159.21C688.71 161.32 700.98 156.21 709.06 151.49C712.56 149.49 720.51 144 718.95 136.99C718.708 135.956 718.26 134.981 717.633 134.124C717.006 133.266 716.212 132.544 715.3 132C714.911 131.76 714.503 131.553 714.08 131.38C712.361 131.726 710.58 131.58 708.94 130.96L707.5 130.4L709 130C710.72 129.576 712.528 129.691 714.18 130.33C715.128 130.11 716.041 129.757 716.89 129.28C718.586 128.295 719.914 126.783 720.671 124.974C721.429 123.165 721.575 121.158 721.087 119.259C720.599 117.359 719.504 115.671 717.968 114.451C716.433 113.231 714.541 112.546 712.58 112.5V111.5C714.809 111.457 716.987 112.167 718.761 113.516C720.536 114.865 721.804 116.773 722.359 118.932C722.914 121.091 722.725 123.374 721.821 125.412C720.918 127.449 719.353 129.122 717.38 130.16C716.799 130.485 716.19 130.756 715.56 130.97L715.84 131.14C716.865 131.744 717.759 132.547 718.468 133.502C719.177 134.457 719.688 135.544 719.97 136.7C721.67 144.35 713.29 150.14 709.61 152.28C702.69 156.32 692.75 160.65 682.13 160.65Z" fill="#EB5EA0"/>
<path d="M707.25 116.53C712.84 113.53 714.25 104.91 709.95 100.26C708.582 98.8912 706.989 97.7681 705.24 96.9399C699.702 94.0506 693.623 92.3477 687.39 91.9399C684.2 91.7399 680.83 91.9399 678.11 93.6099C675.39 95.2799 673.62 98.8399 674.86 101.79" fill="#F7D1E4"/>
<path d="M707.49 117L707.02 116.12C708.285 115.338 709.368 114.294 710.195 113.058C711.023 111.823 711.577 110.424 711.82 108.957C712.062 107.49 711.988 105.987 711.601 104.551C711.215 103.115 710.526 101.778 709.58 100.63C708.251 99.2924 706.701 98.1931 705 97.3803C699.518 94.5442 693.509 92.8757 687.35 92.4803C684.86 92.3203 681.21 92.3203 678.35 94.0803C675.97 95.5503 674.13 98.8503 675.35 101.63L674.43 102.02C673.03 98.7103 675.09 94.9503 677.88 93.2303C680.96 91.3203 684.82 91.3203 687.45 91.4803C693.747 91.8832 699.893 93.5856 705.5 96.4803C707.298 97.3421 708.938 98.5017 710.35 99.9103C711.391 101.169 712.15 102.638 712.575 104.215C713 105.793 713.081 107.444 712.812 109.056C712.544 110.668 711.933 112.203 711.019 113.558C710.106 114.913 708.913 116.056 707.52 116.91L707.49 117Z" fill="#EB5EA0"/>
<path d="M695.17 116.76C695.41 117.84 695.41 118.96 695.17 120.04C695.041 120.578 694.745 121.061 694.324 121.42C693.904 121.779 693.381 121.996 692.83 122.04C691.897 121.9 691.049 121.419 690.45 120.69C688.71 119.017 687.043 117.294 685.45 115.52C684.59 114.728 683.973 113.709 683.67 112.58C683.31 110.4 685.43 108.43 687.67 108.15C689.91 107.87 692.01 108.77 694.01 109.71C697.053 110.962 699.834 112.774 702.21 115.05C703.754 116.719 704.894 118.721 705.541 120.9C706.187 123.08 706.324 125.379 705.94 127.62C705.879 128.182 705.668 128.718 705.33 129.17C704.908 129.574 704.387 129.86 703.82 130C700.55 131.043 697.07 131.244 693.702 130.583C690.334 129.922 687.188 128.421 684.555 126.22C681.922 124.019 679.887 121.188 678.64 117.991C677.393 114.794 676.973 111.333 677.42 107.93C677.462 107.272 677.672 106.635 678.03 106.08C678.421 105.684 678.888 105.372 679.404 105.164C679.92 104.956 680.474 104.856 681.03 104.87C686.78 104.36 692.76 105.1 697.84 107.87C702.92 110.64 706.98 115.53 707.84 121.23C708.151 122.801 708.125 124.419 707.765 125.979C707.405 127.539 706.718 129.005 705.75 130.28C705.27 140.83 694.87 149.83 686.93 154.91C685.66 155.73 684.61 156.91 683.27 157.59C680.58 159.03 677.27 158.43 674.27 157.79C672.816 157.553 671.404 157.105 670.08 156.46C667.279 154.816 664.715 152.797 662.46 150.46C660.52 148.16 660.82 145.07 661.02 141.98C661.86 129.23 664.58 112.56 678.11 107.08" fill="#F7D1E4"/>
<path d="M679.38 159C677.644 158.946 675.918 158.712 674.23 158.3C672.727 158.055 671.268 157.59 669.9 156.92C667.044 155.231 664.433 153.159 662.14 150.76C660.14 148.4 660.35 145.3 660.55 142.31V141.93C661.38 129.72 664 113 677 107C677.096 106.57 677.28 106.165 677.54 105.81C677.974 105.35 678.501 104.987 679.085 104.744C679.669 104.501 680.298 104.384 680.93 104.4C686.801 103.712 692.744 104.755 698.03 107.4C703.59 110.4 707.44 115.54 708.33 121.12C708.652 122.733 708.632 124.396 708.272 126.001C707.912 127.607 707.22 129.119 706.24 130.44C705.58 142.3 692.72 151.77 687.24 155.3C686.705 155.656 686.194 156.047 685.71 156.47C685.042 157.049 684.318 157.562 683.55 158C682.267 158.681 680.832 159.025 679.38 159V159ZM676.83 108.22C664.83 114.22 662.35 130.27 661.58 142V142.38C661.39 145.3 661.2 148.06 662.93 150.11C665.146 152.416 667.662 154.414 670.41 156.05C671.696 156.666 673.063 157.093 674.47 157.32C677.61 157.99 680.63 158.49 683.1 157.17C683.812 156.76 684.482 156.281 685.1 155.74C685.62 155.3 686.164 154.889 686.73 154.51C692.15 151.05 704.79 141.75 705.32 130.28V130.11L705.43 129.98C706.358 128.763 707.017 127.362 707.362 125.871C707.707 124.379 707.73 122.831 707.43 121.33C706.891 118.561 705.728 115.952 704.03 113.7C702.332 111.447 700.143 109.611 697.63 108.33C692.524 105.76 686.777 104.745 681.1 105.41C680.609 105.391 680.12 105.47 679.66 105.641C679.2 105.813 678.778 106.074 678.42 106.41C678.309 106.561 678.218 106.726 678.15 106.9L678.4 107.52L677.95 107.71C677.95 107.81 677.95 107.91 677.95 108.02C677.511 111.34 677.919 114.717 679.134 117.837C680.35 120.957 682.334 123.72 684.903 125.868C687.472 128.016 690.542 129.479 693.829 130.123C697.115 130.767 700.51 130.57 703.7 129.55C704.178 129.436 704.618 129.202 704.98 128.87C705.256 128.483 705.428 128.032 705.48 127.56C705.848 125.395 705.714 123.175 705.088 121.07C704.462 118.965 703.361 117.032 701.87 115.42C699.549 113.201 696.836 111.431 693.87 110.2C691.87 109.28 689.87 108.41 687.8 108.67C686.633 108.836 685.577 109.454 684.86 110.39C684.622 110.686 684.448 111.028 684.348 111.395C684.248 111.761 684.225 112.144 684.28 112.52C684.561 113.559 685.134 114.496 685.93 115.22C687.54 116.98 689.23 118.71 690.93 120.36C691.445 120.998 692.173 121.428 692.98 121.57C693.415 121.512 693.822 121.324 694.147 121.029C694.473 120.734 694.7 120.347 694.8 119.92C695.02 118.909 695.02 117.862 694.8 116.85L695.8 116.7C696.055 117.853 696.055 119.047 695.8 120.2C695.643 120.836 695.29 121.407 694.792 121.833C694.293 122.258 693.673 122.516 693.02 122.57V122.57C691.955 122.434 690.98 121.902 690.29 121.08C688.56 119.41 686.86 117.67 685.23 115.89C684.304 115.027 683.645 113.916 683.33 112.69C683.251 112.182 683.278 111.663 683.409 111.166C683.54 110.669 683.772 110.204 684.09 109.8C684.974 108.649 686.273 107.888 687.71 107.68C690.02 107.39 692.25 108.31 694.33 109.29C697.43 110.568 700.263 112.416 702.68 114.74C704.277 116.466 705.455 118.536 706.125 120.79C706.794 123.044 706.936 125.422 706.54 127.74C706.498 128.407 706.234 129.041 705.79 129.541C705.346 130.041 704.748 130.379 704.09 130.5C700.766 131.561 697.229 131.772 693.803 131.114C690.376 130.455 687.169 128.949 684.475 126.732C681.781 124.515 679.685 121.658 678.379 118.423C677.073 115.187 676.599 111.676 677 108.21L676.83 108.22Z" fill="#EB5EA0"/>
<path d="M316.35 284.93C316.25 284.929 316.152 284.898 316.07 284.84L288.68 266.84C274.32 257.37 258.05 246.64 239.68 245C225.68 243.75 211.35 248 198.74 251.81C198.678 251.83 198.612 251.837 198.547 251.831C198.481 251.825 198.418 251.807 198.36 251.776C198.302 251.745 198.251 251.703 198.21 251.652C198.169 251.601 198.138 251.543 198.12 251.48C198.082 251.354 198.096 251.218 198.158 251.102C198.22 250.986 198.324 250.899 198.45 250.86C211.16 247.05 225.55 242.74 239.77 244C258.43 245.67 274.77 256.47 289.27 266L316.62 284C316.731 284.072 316.809 284.185 316.838 284.314C316.866 284.443 316.841 284.578 316.77 284.69C316.725 284.761 316.664 284.821 316.59 284.863C316.517 284.905 316.434 284.928 316.35 284.93Z" fill="#655422"/>
<path d="M254.07 246.45C253.956 246.454 253.845 246.414 253.76 246.34C248.05 241.7 241.57 236.44 238.08 229.28C236.216 225.194 235.04 220.829 234.6 216.36C232.86 203.06 234.16 189.55 235.42 176.48C235.433 176.347 235.498 176.225 235.602 176.141C235.705 176.057 235.837 176.017 235.97 176.03C236.102 176.043 236.224 176.109 236.309 176.212C236.393 176.315 236.433 176.447 236.42 176.58C235.16 189.58 233.87 203.05 235.59 216.23C236.026 220.592 237.178 224.853 239 228.84C242.4 235.84 248.78 240.99 254.41 245.57C254.511 245.654 254.576 245.774 254.589 245.905C254.602 246.037 254.563 246.167 254.48 246.27C254.43 246.33 254.367 246.377 254.296 246.408C254.225 246.44 254.147 246.454 254.07 246.45Z" fill="#655422"/>
<path d="M233.8 155.73C235.58 153.45 238.56 151.06 241.01 152.58C241.697 155.133 241.957 157.782 241.78 160.42C241.46 163.04 240.13 165.68 237.78 166.87C240.183 167.764 242.444 169.004 244.49 170.55C246.17 171.83 247.72 174.44 246.1 175.79C245.586 176.158 244.981 176.38 244.35 176.43C239.844 177.07 235.259 176.05 231.45 173.56C231.207 176.511 229.978 179.294 227.961 181.462C225.944 183.629 223.256 185.055 220.33 185.51C219.847 183.245 219.898 180.898 220.477 178.656C221.057 176.414 222.15 174.337 223.67 172.59C219.07 170.33 214.5 166.78 213.61 161.73C213.539 161.484 213.52 161.227 213.554 160.974C213.589 160.72 213.676 160.477 213.81 160.26C214.111 159.969 214.496 159.78 214.91 159.72C217.243 159.027 219.681 158.756 222.11 158.92C229.29 159.76 228.6 162.4 233.8 155.73Z" fill="#F8EBFB"/>
<path d="M219.93 186.06L219.83 185.62C219.349 183.387 219.369 181.074 219.887 178.849C220.406 176.624 221.411 174.541 222.83 172.75C218.77 170.66 214 167.13 213.07 161.81C212.985 161.496 212.969 161.167 213.023 160.847C213.076 160.526 213.198 160.22 213.38 159.95C213.741 159.568 214.22 159.318 214.74 159.24C217.132 158.534 219.631 158.256 222.12 158.42C223.578 158.6 225.021 158.881 226.44 159.26C229.28 159.99 229.72 160.1 233.37 155.42C235.44 152.77 238.59 150.51 241.24 152.16L241.42 152.27V152.48C242.121 155.085 242.384 157.789 242.2 160.48C242.094 161.705 241.739 162.894 241.156 163.976C240.573 165.058 239.774 166.009 238.81 166.77C240.909 167.645 242.889 168.784 244.7 170.16C245.369 170.639 245.934 171.248 246.362 171.951C246.79 172.654 247.072 173.436 247.19 174.25C247.206 174.617 247.136 174.982 246.987 175.316C246.838 175.651 246.613 175.947 246.33 176.18C245.746 176.61 245.053 176.867 244.33 176.92C239.987 177.536 235.564 176.654 231.79 174.42C231.378 177.318 230.047 180.006 227.993 182.091C225.939 184.175 223.271 185.546 220.38 186L219.93 186.06ZM220.67 159.34C218.758 159.401 216.861 159.693 215.02 160.21C214.713 160.249 214.424 160.377 214.19 160.58C214.102 160.741 214.047 160.918 214.03 161.1C214.013 161.282 214.033 161.466 214.09 161.64C215 166.79 219.92 170.2 223.88 172.14L224.47 172.43L224.04 172.92C222.625 174.546 221.592 176.467 221.016 178.543C220.44 180.619 220.335 182.798 220.71 184.92C223.425 184.388 225.895 182.99 227.75 180.937C229.605 178.884 230.745 176.285 231 173.53L231.05 172.67L231.77 173.15C235.476 175.572 239.938 176.56 244.32 175.93C244.858 175.898 245.377 175.718 245.82 175.41C245.989 175.274 246.122 175.1 246.209 174.901C246.296 174.703 246.334 174.486 246.32 174.27C246.206 173.606 245.961 172.971 245.601 172.401C245.241 171.831 244.771 171.338 244.22 170.95C242.218 169.432 240.005 168.215 237.65 167.34L236.58 166.94L237.58 166.43C238.643 165.792 239.537 164.907 240.186 163.851C240.835 162.794 241.221 161.597 241.31 160.36C241.483 157.855 241.244 155.338 240.6 152.91C238.54 151.83 235.9 153.91 234.22 156.04C230.31 161.04 229.49 161.04 226.27 160.23C224.892 159.856 223.488 159.586 222.07 159.42C221.605 159.367 221.138 159.341 220.67 159.34Z" fill="#D8A8F3"/>
<path d="M202.2 238.67C203.98 236.39 206.96 234 209.42 235.52C210.1 238.075 210.356 240.723 210.18 243.36C209.86 245.98 208.53 248.62 206.18 249.81C208.583 250.705 210.844 251.944 212.89 253.49C214.57 254.77 216.12 257.38 214.5 258.73C213.985 259.096 213.38 259.314 212.75 259.36C208.248 260.009 203.665 258.992 199.86 256.5C199.612 259.45 198.38 262.231 196.362 264.397C194.343 266.562 191.655 267.986 188.73 268.44C188.247 266.176 188.298 263.83 188.88 261.59C189.461 259.349 190.557 257.274 192.08 255.53C187.47 253.27 182.9 249.71 182.01 244.66C181.938 244.417 181.919 244.161 181.954 243.909C181.988 243.657 182.075 243.416 182.21 243.2C182.511 242.91 182.896 242.721 183.31 242.66C185.642 241.963 188.081 241.692 190.51 241.86C197.69 242.69 197 245.34 202.2 238.67Z" fill="#F8EBFB"/>
<path d="M188.33 269L188.23 268.55C187.75 266.318 187.769 264.007 188.288 261.784C188.807 259.56 189.811 257.479 191.23 255.69C187.17 253.6 182.41 250.06 181.47 244.75C181.386 244.434 181.37 244.104 181.424 243.782C181.477 243.459 181.599 243.152 181.78 242.88C182.147 242.505 182.623 242.256 183.14 242.17C185.532 241.462 188.032 241.187 190.52 241.36C191.979 241.53 193.424 241.811 194.84 242.2C197.69 242.92 198.12 243.03 201.77 238.36C203.84 235.7 206.99 233.45 209.64 235.1L209.82 235.21V235.42C210.513 238.027 210.773 240.729 210.59 243.42C210.484 244.644 210.129 245.834 209.546 246.916C208.963 247.998 208.165 248.949 207.2 249.71C209.299 250.581 211.279 251.717 213.09 253.09C213.764 253.564 214.332 254.172 214.761 254.876C215.189 255.58 215.468 256.364 215.58 257.18C215.597 257.547 215.529 257.912 215.379 258.247C215.23 258.582 215.004 258.878 214.72 259.11C214.134 259.537 213.442 259.796 212.72 259.86C208.376 260.477 203.952 259.591 200.18 257.35C199.767 260.261 198.426 262.961 196.356 265.05C194.286 267.138 191.598 268.502 188.69 268.94L188.33 269ZM189.07 242.28C187.159 242.338 185.262 242.626 183.42 243.14C183.114 243.183 182.826 243.311 182.59 243.51C182.502 243.673 182.449 243.851 182.433 244.036C182.418 244.22 182.441 244.405 182.5 244.58C183.4 249.73 188.32 253.13 192.29 255.08L192.87 255.37L192.44 255.86C191.025 257.485 189.991 259.406 189.415 261.483C188.839 263.559 188.735 265.738 189.11 267.86C191.819 267.317 194.28 265.912 196.126 263.856C197.971 261.8 199.102 259.202 199.35 256.45L199.4 255.58L200.12 256.06C203.825 258.484 208.287 259.476 212.67 258.85C213.208 258.815 213.726 258.635 214.17 258.33C214.338 258.193 214.47 258.018 214.557 257.82C214.644 257.622 214.683 257.406 214.67 257.19C214.56 256.525 214.319 255.889 213.96 255.319C213.601 254.749 213.132 254.256 212.58 253.87C210.576 252.35 208.359 251.133 206 250.26L204.93 249.86L205.93 249.34C206.993 248.702 207.887 247.819 208.537 246.765C209.188 245.711 209.577 244.516 209.67 243.28C209.835 240.771 209.592 238.251 208.95 235.82C206.89 234.74 204.25 236.82 202.58 238.95C198.66 243.95 197.84 243.95 194.58 243.15C193.202 242.776 191.798 242.505 190.38 242.34C189.945 242.292 189.508 242.272 189.07 242.28V242.28Z" fill="#D8A8F3"/>
</g>
<defs>
<clipPath id="clip0_8906_60025">
<rect width="987.8" height="988.02" fill="white"/>
</clipPath>
</defs>
</svg>
