<svg width="250" height="286" viewBox="0 0 250 286" fill="none" xmlns="http://www.w3.org/2000/svg">
<path d="M125 260.217C194.036 260.217 250 204.252 250 135.217C250 66.1812 194.036 10.2168 125 10.2168C55.9644 10.2168 0 66.1812 0 135.217C0 204.252 55.9644 260.217 125 260.217Z" fill="url(#paint0_linear_10681_64014)"/>
<path d="M120.285 154.232C116.268 151.538 112.561 151.495 109.962 151.5C107.363 151.506 105.872 151.567 104.518 151.79C103.163 152.013 101.942 152.398 100.414 152.777C98.8856 153.156 97.0536 153.529 93.9395 154.475C95.4618 154.577 97.042 154.267 98.7467 153.963C100.455 153.638 102.18 153.402 103.913 153.257C105.421 153.168 106.933 153.211 108.433 153.384C109.853 153.51 111.259 153.76 112.636 154.131C113.758 154.469 114.834 154.946 115.837 155.552C116.737 156.082 117.504 156.626 118.294 156.909C119.015 157.201 119.821 157.201 120.543 156.909C121.185 156.62 121.654 155.995 120.311 154.241C120.306 154.242 120.302 154.242 120.297 154.24C120.293 154.238 120.288 154.236 120.285 154.232V154.232Z" fill="black"/>
<path d="M136.791 158.278C138.915 157.934 141.711 158.42 144 158.886C146.039 159.248 148.039 159.796 149.977 160.524C151.832 161.262 153.739 162.295 159.123 166.946C153.913 164.478 150.657 162.895 148.382 162.177C146.107 161.459 144.811 161.598 143.355 161.54C141.899 161.482 140.293 161.262 136.791 158.278Z" fill="black"/>
<path d="M123.2 121.434C112.766 120.08 102.553 124.328 93.792 129.607C89.9485 131.923 86.186 134.559 83.2889 138.029C81.8546 139.714 80.7147 141.629 79.9172 143.693C79.0113 146.113 78.7595 148.741 77.6829 151.099C75.6743 155.475 71.4633 158.372 67.5243 160.873C63.2177 163.599 58.6854 166.033 54.8535 169.428C51.4587 172.43 48.5992 176.342 47.6354 180.834C47.1686 182.986 47.2252 185.218 47.8004 187.343C48.3555 189.23 49.1419 191.041 50.1418 192.735C52.1012 196.208 54.622 199.484 55.8839 203.316C56.4959 205.081 56.6853 206.964 56.4367 208.815C56.0807 211.203 54.9201 213.403 54.6654 215.811C54.5219 216.91 54.7093 218.028 55.2037 219.02C55.3919 219.382 56.729 218.951 56.6277 218.757C55.5134 216.598 56.2659 214.21 56.9489 212.045C57.5856 210.019 58.1355 208.019 57.9214 205.875C57.5365 202.023 55.3021 198.639 53.3225 195.418C51.2966 192.116 49.1346 188.623 48.7873 184.663C48.3821 180.033 50.5238 175.625 53.4354 172.172C56.5958 168.427 60.8098 165.805 64.9456 163.264C68.9974 160.789 73.2837 158.367 76.4963 154.81C78.0829 153.075 79.2433 150.994 79.8854 148.732C80.5539 146.379 80.9794 144.003 82.0936 141.8C84.0906 137.856 87.4334 134.796 90.9933 132.27C95.026 129.408 99.3557 126.99 103.907 125.058C108.538 123.098 113.475 121.723 118.529 121.712C119.773 121.712 121.016 121.792 122.25 121.952C122.597 121.996 122.949 121.931 123.258 121.767C123.478 121.637 123.481 121.477 123.2 121.454V121.434Z" fill="black"/>
<path d="M129.104 123.702C137.37 124.35 145.656 125.765 153.389 128.842C160.161 131.536 166.471 135.559 171.376 140.997C174.05 143.929 176.229 147.276 177.828 150.907C177.946 151.196 179.292 150.8 179.275 150.736C176.427 144.172 171.533 138.673 165.741 134.529C159.311 129.93 151.806 127.079 144.122 125.389C139.499 124.407 134.814 123.747 130.1 123.412C129.756 123.386 129.411 123.427 129.084 123.534C128.858 123.609 128.835 123.696 129.104 123.716V123.702Z" fill="black"/>
<path d="M125.619 124.547C128.612 128.107 132.413 130.9 136.704 132.694C138.864 133.575 141.113 134.217 143.413 134.607C145.763 135.026 148.145 135.304 150.463 135.883C152.683 136.439 154.828 137.33 156.584 138.829C158.341 140.329 159.62 142.161 160.853 144.039C162.086 145.917 163.302 147.882 164.795 149.607C166.319 151.344 168.039 152.898 169.921 154.238C173.698 156.973 177.929 158.999 182.172 160.895L183.775 161.61C183.944 161.661 184.124 161.665 184.295 161.622C184.466 161.58 184.623 161.491 184.748 161.366C184.944 161.175 185.054 160.834 184.748 160.695C180.505 158.811 176.224 156.901 172.352 154.328C170.434 153.071 168.654 151.616 167.041 149.986C165.489 148.32 164.103 146.505 162.905 144.569C161.681 142.684 160.465 140.766 158.911 139.13C157.326 137.478 155.368 136.231 153.201 135.492C148.75 133.941 143.94 133.982 139.468 132.459C135.093 130.965 131.147 128.432 127.967 125.076C127.567 124.654 127.181 124.22 126.809 123.774C126.441 123.337 125.182 124.023 125.622 124.547H125.619Z" fill="black"/>
<path d="M124.78 126.57C126.89 130.81 130.91 133.617 135.08 135.606C139.578 137.753 144.403 139.079 148.938 141.154C151.233 142.157 153.399 143.433 155.389 144.954C157.415 146.537 159.012 148.49 160.431 150.612C161.901 152.814 163.224 155.115 164.853 157.211C166.403 159.205 168.288 160.914 170.424 162.261C174.656 164.941 179.593 166.278 184.458 167.248C185.083 167.371 185.71 167.491 186.339 167.607C186.427 167.617 186.516 167.609 186.601 167.583C186.686 167.558 186.764 167.515 186.832 167.458C186.899 167.401 186.955 167.331 186.995 167.252C187.034 167.173 187.058 167.087 187.063 166.999C187.063 166.582 186.71 166.362 186.351 166.296C181.602 165.427 176.748 164.304 172.479 161.954C170.344 160.804 168.427 159.29 166.812 157.48C165.113 155.547 163.799 153.318 162.416 151.162C161.033 149.006 159.522 146.855 157.609 145.119C155.741 143.448 153.658 142.034 151.415 140.916C146.958 138.636 142.154 137.261 137.549 135.307C133.497 133.571 129.335 131.256 126.873 127.493C126.56 127.019 126.275 126.526 126.022 126.017C125.645 125.262 124.357 125.757 124.768 126.596L124.78 126.57Z" fill="black"/>
<path d="M123.75 124.72C114.234 124.87 105.047 128.65 97.3084 134.025C93.7138 136.519 90.3624 139.483 87.9168 143.15C86.7379 144.993 85.7746 146.965 85.0457 149.028C84.2817 151.054 83.5755 153.155 82.441 155.031C81.2138 157.057 79.4686 158.504 77.4456 159.705C75.6165 160.799 73.7382 161.783 72.0653 163.111C69.0816 165.527 66.6774 168.581 65.0295 172.049C63.3644 175.56 62.3298 179.336 61.9733 183.206C61.777 185.196 61.7441 187.198 61.8749 189.194C62.0653 191.432 62.4028 193.656 62.885 195.85C63.3828 198.348 63.869 200.895 63.6664 203.45C63.4609 206.073 62.3669 208.463 61.4523 210.891C59.228 216.722 58.9238 223.11 60.5841 229.125C60.6391 229.327 61.4784 229.105 61.4234 228.899C60.1052 224.089 60.0355 219.021 61.2208 214.176C61.8141 211.763 62.8473 209.522 63.649 207.178C64.4505 204.845 64.7233 202.363 64.4478 199.911C64.1815 197.364 63.5304 194.884 63.1194 192.36C62.8072 190.446 62.6504 188.51 62.6505 186.572C62.6342 182.643 63.286 178.74 64.5781 175.03C65.8134 171.423 67.7912 168.115 70.3838 165.32C71.7225 163.904 73.2357 162.665 74.8871 161.632C76.7684 160.46 78.7914 159.502 80.5221 158.099C83.9257 155.343 84.9502 151.066 86.5507 147.193C88.2438 143.089 91.0454 139.668 94.4055 136.794C97.9723 133.798 101.919 131.286 106.144 129.324C110.486 127.27 115.168 125.802 119.964 125.287C121.122 125.163 122.256 125.096 123.408 125.079C123.648 125.079 124.317 124.708 123.764 124.717L123.75 124.72Z" fill="black"/>
<path d="M121.119 128.363C115.823 129.208 110.853 131.257 105.965 133.387C103.728 134.36 101.43 135.295 99.5313 136.86C98.1203 138.054 96.919 139.475 95.9772 141.066C91.8443 147.841 91.3176 156.57 85.2514 162.17C81.7204 165.426 77.2171 167.38 73.6746 170.633C72.0394 172.132 70.5662 173.903 69.698 175.964C68.854 177.96 68.6517 180.169 69.1192 182.285C70.1205 186.915 73.4604 190.614 75.2461 194.929C76.2475 197.251 76.7532 199.756 76.7309 202.284C76.6667 204.773 75.9024 207.195 74.5255 209.27C73.2057 211.296 71.5387 213.085 70.2768 215.157C69.0667 217.183 68.203 219.396 67.7213 221.707C66.7112 226.372 67.0209 231.237 67.6663 235.931C67.8283 237.118 68.0194 238.299 68.2191 239.48C68.2769 239.827 69.1191 239.619 69.0584 239.257C68.2509 234.505 67.6113 229.648 68.0772 224.826C68.2744 222.498 68.8076 220.21 69.6604 218.034C70.572 215.788 71.9381 213.869 73.4083 211.956C74.841 210.095 76.2475 208.194 76.9682 205.933C77.6496 203.638 77.7687 201.213 77.3155 198.863C76.8683 196.547 76.0544 194.317 74.9046 192.258C73.7904 190.189 72.4996 188.206 71.4548 186.111C70.4505 184.085 69.6517 181.874 69.7182 179.579C69.7848 177.284 70.6618 175.237 71.9931 173.423C74.8207 169.605 79.1301 167.446 82.9273 164.766C84.7883 163.452 86.5595 161.982 87.9632 160.176C89.1009 158.681 90.0605 157.059 90.8227 155.343C92.4434 151.806 93.4911 148.044 95.0482 144.481C96.6429 140.837 98.8569 137.535 102.437 135.619C104.709 134.4 107.152 133.442 109.531 132.455C112.008 131.396 114.552 130.497 117.145 129.764C118.424 129.41 119.72 129.125 121.029 128.91C121.188 128.884 121.487 128.797 121.498 128.595C121.51 128.392 121.281 128.331 121.119 128.357V128.363Z" fill="black"/>
<path d="M122.401 132.224C118.15 133.031 114.023 134.393 110.127 136.276C108.22 137.201 106.375 138.249 104.605 139.414C102.926 140.513 101.276 141.729 100.37 143.564C99.5022 145.361 99.2562 147.375 98.7758 149.3C98.2886 151.225 97.6039 153.094 96.7325 154.877C94.996 158.475 92.5822 161.719 89.9138 164.686C88.5593 166.191 87.1324 167.632 85.668 169.027C84.2035 170.422 82.7043 171.701 81.2601 173.079C79.8159 174.456 78.5106 175.93 77.735 177.747C76.9159 179.669 76.7973 181.782 77.0838 183.825C77.6887 188.212 80.0619 192.004 81.5466 196.102C82.3472 198.191 82.7516 200.411 82.7391 202.649C82.646 204.962 82.212 207.249 81.4511 209.436C80.1516 213.372 77.7871 217.539 79.567 221.707C80.852 224.726 83.6334 227 84.5045 230.204C84.7133 230.958 84.7646 231.746 84.655 232.52C84.6029 232.879 85.4509 232.74 85.4943 232.427C85.9632 229.139 83.5118 226.497 81.81 223.967C80.852 222.543 80.0098 221.012 79.8043 219.279C79.541 217.068 80.2587 214.868 81.0141 212.822C81.8013 210.686 82.6349 208.585 83.1095 206.353C83.6074 204.177 83.7055 201.928 83.3989 199.717C82.7506 195.454 80.4005 191.746 78.9708 187.738C78.2386 185.692 77.7061 183.518 77.7784 181.333C77.8361 179.236 78.5531 177.211 79.8275 175.545C81.0315 173.944 82.5828 172.65 84.0588 171.302C85.5348 169.953 86.953 168.636 88.3306 167.25C91.0917 164.448 93.6762 161.433 95.7571 158.081C97.7876 154.809 99.2258 151.205 100.006 147.433C100.431 145.431 100.909 143.361 102.367 141.836C103.826 140.311 105.745 139.231 107.531 138.215C111.262 136.071 115.267 134.441 119.435 133.368C120.456 133.104 121.489 132.876 122.526 132.679C123.046 132.58 122.913 132.114 122.401 132.213V132.224Z" fill="black"/>
<path d="M82.7132 173.851C81.3472 181.376 84.5105 188.698 87.807 195.268C90.9906 201.635 94.6113 208.161 94.8312 215.46C94.9441 219.153 94.1713 222.887 92.0846 225.984C91.966 226.157 92.1888 226.291 92.3335 226.311C92.439 226.323 92.5459 226.306 92.6424 226.262C92.7388 226.217 92.8212 226.147 92.8805 226.059C96.6951 220.401 96.1568 212.998 94.0382 206.818C91.5897 199.702 87.2224 193.421 84.8434 186.27C83.5062 182.25 82.8001 177.969 83.5641 173.764C83.6365 173.367 82.7827 173.474 82.719 173.836L82.7132 173.851Z" fill="black"/>
<path d="M124.357 130.157C125.978 134.316 128.919 137.755 132.461 140.406C136.122 143.141 140.362 145.065 144.707 146.437C146.941 147.143 149.265 147.572 151.467 148.371C152.601 148.754 153.662 149.327 154.605 150.064C155.581 150.907 156.36 151.956 156.885 153.134C157.464 154.318 157.898 155.557 158.396 156.769C158.894 157.982 159.435 159.244 160.011 160.454C161.111 162.862 162.491 165.134 164.121 167.22C167.183 171.02 171.733 174.028 176.742 174.103C177.356 174.112 177.969 174.079 178.577 174.001C178.742 173.981 179.023 173.886 179.043 173.683C179.063 173.481 178.82 173.423 178.664 173.44C173.695 174.074 168.885 171.388 165.658 167.77C163.928 165.776 162.468 163.562 161.316 161.186C160.135 158.839 159.204 156.39 158.193 153.968C157.756 152.814 157.155 151.728 156.411 150.744C155.65 149.834 154.709 149.091 153.647 148.564C151.546 147.488 149.204 147.06 146.952 146.429C142.611 145.222 138.397 143.494 134.638 141.014C130.982 138.6 127.761 135.402 125.842 131.425C125.605 130.936 125.391 130.438 125.194 129.932C125.058 129.584 124.224 129.825 124.355 130.157H124.357Z" fill="black"/>
<path d="M123.182 134.508C126.041 140.168 130.567 144.814 136.148 147.822C138.888 149.311 141.839 150.372 144.9 150.968C146.492 151.277 148.205 151.321 149.693 152.024C151.181 152.727 151.948 154.131 152.055 155.726C152.162 157.32 151.765 158.956 151.476 160.536C151.167 162.08 151.113 163.663 151.317 165.224C151.561 166.856 152.111 168.427 152.937 169.855C153.331 170.542 153.789 171.19 154.303 171.791C154.833 172.411 155.461 172.929 156.025 173.505C156.59 174.081 157.117 174.848 156.946 175.733C156.775 176.619 156.115 177.313 155.397 177.794C153.997 178.729 152.437 179.241 151.505 180.746C150.712 182.019 150.486 183.582 150.567 185.058C150.663 186.795 151.065 188.514 151.392 190.207C152.031 193.504 152.755 196.864 152.523 200.238C152.412 201.981 152.01 203.693 151.334 205.303C150.551 207.076 149.532 208.736 148.307 210.238C147.132 211.737 145.861 213.155 144.622 214.602C143.511 215.899 142.472 217.253 141.271 218.475C138.837 220.926 136.035 222.982 132.967 224.57C129.992 226.124 126.716 227.27 123.347 227.481C119.874 227.701 116.427 226.717 113.394 225.059C106.873 221.485 102.648 215.172 98.9867 208.912C97.0042 205.523 95.0477 202.117 93.1665 198.667C91.2535 195.15 89.3636 191.567 87.902 187.837C87.2105 186.143 86.7341 184.37 86.4838 182.558C86.319 181.151 86.2638 179.733 86.3189 178.318C86.3904 175.195 86.9329 172.101 87.928 169.14C88.3483 167.862 88.932 166.643 89.6646 165.514C89.8411 165.25 89.022 165.358 88.8976 165.546C87.2566 167.98 86.4433 170.926 85.9571 173.788C85.4199 176.756 85.3165 179.786 85.6503 182.784C86.1279 186.644 87.9136 190.242 89.6182 193.689C91.43 197.359 93.4357 200.924 95.4674 204.484C99.1864 210.979 102.848 217.948 108.755 222.755C111.429 224.932 114.543 226.651 117.932 227.438C121.185 228.193 124.514 227.953 127.712 227.05C131.034 226.082 134.177 224.581 137.019 222.608C138.421 221.645 139.75 220.581 140.996 219.424C142.218 218.255 143.362 217.007 144.42 215.688C146.845 212.762 149.629 210.018 151.464 206.658C153.146 203.575 153.623 200.134 153.325 196.667C153.018 193.142 152.095 189.721 151.589 186.21C151.348 184.592 151.299 182.925 151.965 181.389C152.285 180.603 152.81 179.918 153.484 179.403C154.228 178.847 155.094 178.489 155.875 177.997C157.151 177.192 158.436 175.646 157.551 174.101C157.16 173.415 156.526 172.926 155.965 172.393C155.368 171.824 154.831 171.196 154.361 170.518C152.416 167.685 151.662 164.201 152.26 160.817C152.723 158.053 153.953 154.16 151.224 152.149C149.93 151.191 148.24 151.023 146.697 150.788C145.065 150.539 143.457 150.152 141.89 149.631C135.73 147.576 130.367 143.647 126.551 138.392C125.606 137.085 124.771 135.702 124.053 134.257C123.938 134.019 123.127 134.303 123.214 134.482L123.182 134.508Z" fill="black"/>
<path d="M156.68 166.184L160.868 173.246L162.963 176.777C163.617 177.879 164.297 178.97 164.891 180.108C165.982 182.212 166.627 184.536 165.637 186.811C164.789 188.773 163.143 190.284 161.652 191.751C160.11 193.282 158.576 195.068 158.075 197.25C157.82 198.269 157.901 199.343 158.306 200.312C158.772 201.371 159.591 202.231 160 203.322C160.371 204.325 160.474 205.408 160.3 206.463C160.126 207.519 159.68 208.511 159.007 209.342C157.869 210.717 156.066 211.805 155.534 213.599C154.935 215.657 156.59 217.255 157.82 218.655C159.341 220.341 160.233 222.5 160.344 224.768C160.368 225.348 160.338 225.93 160.254 226.504C160.217 226.753 161.05 226.603 161.085 226.374C161.414 224.127 160.947 221.836 159.765 219.897C159.181 219.035 158.526 218.223 157.809 217.469C157.155 216.716 156.498 215.889 156.304 214.884C155.904 212.858 157.707 211.44 158.984 210.167C159.709 209.499 160.299 208.697 160.72 207.805C161.125 206.851 161.294 205.814 161.212 204.781C161.111 203.678 160.729 202.619 160.104 201.704C159.479 200.735 158.874 199.806 158.787 198.622C158.625 196.353 160.083 194.228 161.548 192.637C163.012 191.045 164.674 189.699 165.84 187.882C166.41 187.028 166.788 186.06 166.946 185.045C167.077 183.897 166.93 182.733 166.517 181.653C166.068 180.499 165.513 179.388 164.859 178.337L162.778 174.817L158.547 167.692L157.519 165.955C157.38 165.724 156.59 166.028 156.68 166.181V166.184Z" fill="black"/>
<path d="M171.382 175.93C173.697 178.43 174.496 181.88 174.253 185.214C174.113 186.977 173.724 188.71 173.095 190.363C172.462 192.065 171.53 193.584 170.632 195.156C169.735 196.727 168.931 198.504 169.093 200.403C169.223 201.905 169.851 203.311 170.54 204.634C171.831 207.112 173.978 209.965 173.243 212.923C172.745 214.926 171.012 216.165 169.978 217.858C169.145 219.224 168.754 221.38 170.187 222.488C170.369 222.627 171.101 222.297 170.977 222.199C169.643 221.157 169.978 219.166 170.708 217.858C171.576 216.286 173.124 215.172 173.83 213.484C175.034 210.59 173.185 207.696 171.839 205.248C171.098 203.893 170.363 202.492 170.054 200.97C169.686 199.164 170.161 197.457 170.991 195.847C171.86 194.175 172.927 192.635 173.651 190.89C174.303 189.331 174.75 187.695 174.982 186.022C175.48 182.326 174.765 178.424 172.172 175.623C172.03 175.469 171.252 175.768 171.382 175.912V175.93Z" fill="black"/>
<path d="M180.565 177.047C181.512 179.707 182.478 182.421 182.71 185.255C182.809 186.655 182.712 188.061 182.42 189.434C182.131 190.817 181.737 192.169 181.422 193.544C180.827 196.337 180.427 199.169 180.224 202.018C180.058 203.41 180.114 204.82 180.389 206.194C180.678 207.482 181.257 208.675 181.749 209.899C182.897 212.78 182.994 215.974 182.024 218.92C181.865 219.386 182.704 219.398 182.828 219.027C183.705 216.447 183.784 213.662 183.057 211.036C182.684 209.719 182.067 208.498 181.61 207.213C181.141 205.882 180.937 204.472 181.011 203.063C181.066 201.633 181.26 200.206 181.425 198.785C181.59 197.364 181.787 195.923 182.064 194.508C182.614 191.718 183.65 189.009 183.604 186.132C183.552 182.908 182.472 179.825 181.404 176.821C181.263 176.428 180.426 176.659 180.565 177.047Z" fill="black"/>
<path d="M130.771 186.974C129.79 189.11 128.173 190.89 126.14 192.07C125.825 192.253 125.822 191.492 125.833 191.35C125.865 191.014 125.952 190.458 126.285 190.267C127.18 189.754 127.991 189.108 128.693 188.351C129.028 187.99 129.334 187.603 129.607 187.194C129.752 186.979 129.897 186.76 130.018 186.537C130.079 186.43 130.137 186.32 130.195 186.212C130.311 185.998 130.134 186.34 130.241 186.123L130.337 185.923C130.426 185.732 130.701 185.304 130.869 185.683C130.992 186.107 130.954 186.562 130.762 186.959L130.771 186.974Z" fill="black"/>
<path d="M115.024 186.008C115.954 188.163 117.529 189.977 119.533 191.2C119.845 191.388 119.865 190.621 119.854 190.488C119.831 190.149 119.755 189.59 119.428 189.394C118.544 188.863 117.745 188.201 117.061 187.429C116.734 187.067 116.437 186.68 116.172 186.271C116.031 186.054 115.898 185.831 115.776 185.605C115.715 185.495 115.66 185.385 115.605 185.275C115.495 185.061 115.66 185.406 115.562 185.188C115.53 185.122 115.498 185.052 115.469 184.986C115.382 184.789 115.116 184.358 114.942 184.731C114.81 185.154 114.839 185.611 115.024 186.013V186.008Z" fill="black"/>
<path d="M135.752 203.912C134.284 203.95 132.858 203.416 131.775 202.424C131.434 202.114 131.095 201.793 130.754 201.472C129.411 200.198 128.022 198.884 126.349 198.115C125.401 197.705 124.372 197.522 123.342 197.579C122.714 197.713 122.095 197.886 121.489 198.097C120.387 198.442 120.378 198.439 120.297 198.387C119.105 197.64 117.478 197.443 115.828 197.851C114.248 198.242 112.824 199.104 111.635 199.9L111.345 200.1C110.442 200.708 109.507 201.339 108.434 201.614C107.259 201.903 105.152 201.689 104.382 200.638L104.616 200.468C105.294 201.405 107.279 201.605 108.35 201.336C109.421 201.067 110.289 200.468 111.172 199.863L111.461 199.663C112.668 198.855 114.124 197.976 115.744 197.573C117.449 197.151 119.142 197.35 120.395 198.12C120.534 198.091 120.974 197.95 121.388 197.831C122.017 197.604 122.664 197.426 123.321 197.301C124.397 197.249 125.47 197.447 126.456 197.88C128.169 198.667 129.579 199.999 130.939 201.287C131.277 201.608 131.616 201.929 131.958 202.236C132.505 202.736 133.149 203.119 133.85 203.361C134.55 203.603 135.293 203.7 136.033 203.645V203.935L135.752 203.912Z" fill="black"/>
<path d="M121.53 208.359C120.964 208.359 120.399 208.339 119.834 208.301C113.29 207.864 108.812 204.625 104.949 201.193L105.14 200.979C108.966 204.376 113.397 207.58 119.854 208.014C125.279 208.405 130.676 206.951 135.17 203.887L135.335 204.124C131.27 206.906 126.455 208.383 121.53 208.359V208.359Z" fill="black"/>
<path d="M133.564 204.419C132.43 204.422 131.31 204.161 130.294 203.658C129.987 203.508 129.686 203.331 129.397 203.16C128.858 202.807 128.274 202.53 127.66 202.335C126.502 202.017 125.31 202.312 124.063 202.625C123.206 202.876 122.323 203.025 121.432 203.068C120.248 203.068 119.116 202.697 117.996 202.333C117.259 202.069 116.504 201.859 115.736 201.705C114.539 201.545 113.328 201.523 112.127 201.638L106.437 201.962L106.422 201.673L112.13 201.349C113.354 201.231 114.587 201.255 115.805 201.421C116.592 201.576 117.365 201.789 118.121 202.058C119.189 202.414 120.297 202.778 121.423 202.778H121.461C122.329 202.735 123.19 202.589 124.025 202.344C125.252 202.034 126.525 201.716 127.77 202.055C128.407 202.261 129.012 202.553 129.57 202.923C129.86 203.091 130.149 203.264 130.438 203.412C131.953 204.157 133.683 204.337 135.318 203.921L135.39 204.211C134.793 204.358 134.179 204.428 133.564 204.419V204.419Z" fill="black"/>
<path d="M134.814 168.141C138.104 171.081 142.576 171.961 146.854 172.161C148.234 172.227 149.618 172.23 150.998 172.236C151.183 172.236 151.458 172.181 151.548 171.993C151.638 171.805 151.479 171.703 151.308 171.703C145.913 171.689 139.855 171.614 135.589 167.802C135.341 167.579 134.55 167.912 134.814 168.149V168.141Z" fill="black"/>
<path d="M99.346 164.22C100.863 165.592 103.108 165.783 105.033 166.098C107.265 166.46 109.554 166.66 111.78 166.15C112.918 165.899 113.998 165.433 114.963 164.778C115.108 164.677 115.174 164.489 115.015 164.37C114.92 164.324 114.813 164.305 114.708 164.315C114.602 164.325 114.501 164.365 114.416 164.428C112.321 165.875 109.696 166.032 107.241 165.78C105.91 165.644 104.587 165.409 103.276 165.16C102.156 164.946 100.984 164.645 100.119 163.861C99.8554 163.621 99.0624 163.962 99.346 164.22V164.22Z" fill="black"/>
<path d="M141.615 218.482C144.33 223.709 147.196 228.853 150.214 233.914L150.249 233.625C146.29 237.624 140.869 239.893 135.462 241.15C132.428 241.871 129.32 242.24 126.201 242.249C123.362 242.217 120.533 241.911 117.753 241.335C116.503 241.083 115.255 240.802 114.019 240.495C113.135 240.31 112.264 240.061 111.415 239.752L111.588 239.917C111.105 238.508 110.74 237.062 110.494 235.593C109.93 232.551 109.522 229.471 109.047 226.412L108.222 221.139C108.162 220.763 107.322 220.971 107.383 221.362L108.564 228.919C108.949 231.382 109.267 233.865 109.753 236.31C109.972 237.59 110.298 238.848 110.729 240.073C110.853 240.4 111.368 240.467 111.672 240.559C112.361 240.762 113.059 240.938 113.753 241.109C117.588 242.047 121.483 242.767 125.44 242.846C129.985 242.899 134.508 242.215 138.834 240.82C142.825 239.561 146.718 237.682 149.861 234.878C150.229 234.551 150.585 234.215 150.929 233.865C150.967 233.828 150.99 233.779 150.997 233.726C151.003 233.674 150.991 233.621 150.964 233.575C147.95 228.516 145.085 223.372 142.368 218.144C142.2 217.825 141.398 218.126 141.598 218.508L141.615 218.482Z" fill="black"/>
<path d="M151.253 233.969C156.677 237.963 163.834 237.755 170.193 238.802C177.799 240.053 185.167 242.484 192.478 244.817C199.32 246.996 206.191 249.404 212.234 253.363C217.421 256.814 221.909 261.215 225.46 266.335C229.056 271.491 231.793 277.196 233.564 283.228C233.784 283.973 233.99 284.72 234.183 285.468C234.276 285.836 235.115 285.613 235.02 285.245C233.474 279.149 230.972 273.336 227.608 268.022C224.289 262.762 220.037 258.152 215.061 254.419C209.345 250.177 202.694 247.494 195.986 245.256C192.414 244.07 188.817 242.941 185.214 241.859C181.506 240.733 177.77 239.679 173.973 238.883C170.499 238.151 166.98 237.766 163.458 237.309C160.205 236.886 156.877 236.311 153.939 234.78C153.233 234.407 152.555 233.981 151.913 233.506C151.624 233.301 150.886 233.697 151.262 233.975L151.253 233.969Z" fill="black"/>
<path d="M110.185 239.404C108.871 241.155 106.741 242.064 104.892 243.117C102.495 244.487 100.052 245.764 97.5635 246.949C96.3504 247.537 95.1048 248.056 93.8329 248.503C92.597 248.928 91.3468 249.302 90.1051 249.704C87.5481 250.561 85.0653 251.626 82.6815 252.888C80.262 254.135 77.909 255.492 75.5734 256.899C73.3507 258.227 71.1221 259.553 68.9428 260.951C64.6536 263.712 60.6365 266.817 57.2271 270.629C53.8187 274.404 50.968 278.648 48.7616 283.23C48.4954 283.789 48.2436 284.35 48.0033 284.921C47.9252 285.106 48.7356 285.025 48.834 284.787C50.8676 280.094 53.5902 275.731 56.9117 271.842C58.5262 269.906 60.2924 268.102 62.1936 266.447C64.1458 264.782 66.2009 263.241 68.3466 261.834C70.5057 260.387 72.7255 259.055 74.9512 257.724C77.2665 256.338 79.5819 254.957 81.9638 253.672C84.3283 252.353 86.7942 251.224 89.3382 250.297C91.8127 249.429 94.3625 248.787 96.7589 247.71C99.2855 246.576 101.757 245.293 104.177 243.948C105.184 243.39 106.188 242.829 107.19 242.266C108.148 241.757 109.053 241.154 109.893 240.466C110.285 240.136 110.64 239.764 110.952 239.357C111.137 239.109 110.321 239.21 110.185 239.389V239.404Z" fill="black"/>
<path d="M61.209 266.784C61.4001 266.784 61.6721 266.732 61.7589 266.538C61.8458 266.344 61.6895 266.223 61.5129 266.223C61.3364 266.223 61.0528 266.275 60.9659 266.469C60.8791 266.662 61.0325 266.784 61.209 266.784V266.784Z" fill="black"/>
<path d="M154.964 103.355C154.945 103.355 154.926 103.352 154.909 103.345C154.891 103.338 154.875 103.328 154.862 103.315C154.848 103.301 154.837 103.286 154.83 103.268C154.823 103.251 154.819 103.232 154.819 103.213C154.495 87.275 159.713 72.0313 164.755 57.2883C166.257 52.9036 167.956 47.9343 171.481 44.3832C171.508 44.3592 171.544 44.3466 171.58 44.3477C171.617 44.3489 171.651 44.3637 171.677 44.3893C171.703 44.4149 171.719 44.4494 171.72 44.4858C171.722 44.5222 171.71 44.5579 171.686 44.5857C168.213 48.0906 166.52 53.0252 165.03 57.3809C159.994 72.1008 154.787 87.3213 155.108 103.208C155.109 103.227 155.105 103.245 155.099 103.263C155.092 103.281 155.081 103.297 155.068 103.311C155.055 103.324 155.039 103.335 155.022 103.343C155.004 103.351 154.986 103.355 154.967 103.355H154.964Z" fill="#655422"/>
<path d="M215.406 57.3809C205.751 59.6499 202.29 60.7005 198.209 61.3083C194.128 61.9161 189.425 62.0839 185.243 62.602C181.061 63.12 177.4 63.997 174.662 65.1836C171.924 66.3702 170.106 67.8636 167.455 70.6565C164.804 73.4494 161.314 77.536 159.424 80.3086C157.534 83.0813 157.239 84.5399 156.24 86.1115C155.242 87.683 153.563 89.3732 151.459 92.3861C148.564 96.4705 146.499 101.083 145.381 105.963C143.934 112.191 143.543 120.312 143.755 125.096C143.966 129.88 144.776 131.319 146.86 133.541C151.635 134.036 157.725 128.042 163.122 122.46C168.52 116.877 173.223 111.751 178.207 106.718C183.191 101.685 188.458 96.7187 192.226 92.4845C195.479 88.8986 198.239 84.8943 200.431 80.5778C202.599 76.3957 204.666 71.5421 206.394 67.4121C208.121 63.2821 209.519 59.8583 215.406 57.3809Z" fill="#655422"/>
<path d="M146.924 133.567L146.785 133.526C149.21 125.217 151.821 118.505 155.247 111.765C158.411 105.456 162.308 99.5424 166.859 94.1478C171.562 88.4636 178.983 80.3917 194.776 68.2969L194.866 68.4126C179.081 80.4959 171.666 88.562 166.972 94.2404C162.427 99.6278 158.536 105.533 155.378 111.834C151.954 118.56 149.346 125.266 146.924 133.567Z" fill="white"/>
<path d="M87.772 14.0117C88.7618 16.5326 90.1452 17.916 91.3724 20.7407Z" fill="#F6ECFB"/>
<path d="M91.2424 20.8067C90.7154 19.6335 90.1011 18.5016 89.4046 17.4205C88.7128 16.3619 88.1217 15.2408 87.6392 14.0719L87.9083 13.9648C88.3827 15.1184 88.964 16.2249 89.6448 17.27C90.3474 18.3621 90.9665 19.5057 91.4971 20.6909L91.2424 20.8067Z" fill="#B985D1"/>
<path d="M104.025 27.9384C104.19 28.3324 104.324 28.7389 104.425 29.154C104.732 30.4767 104.636 32.0482 104.289 33.8426C103.941 35.637 103.337 37.605 103.478 39.7381L102.784 40.8726C100.159 39.5586 98.9779 38.1144 97.9216 36.867C96.8652 35.6196 95.9217 34.5604 95.4673 33.7558C95.0129 32.9512 94.9984 32.355 94.738 31.6691C94.3841 30.8258 93.845 30.0731 93.1606 29.4666C92.819 29.1493 92.4532 28.859 92.0666 28.5983C92.7149 25.8604 92.1361 25.0008 91.7772 24.1529C91.44 23.2722 91.2912 22.3306 91.3402 21.3889C91.3546 20.3123 91.4965 18.9954 91.5254 17.9882C91.5543 16.9811 91.4791 16.2807 91.5891 15.8552C91.5962 15.7677 91.6248 15.6833 91.6722 15.6094C91.7197 15.5355 91.7846 15.4744 91.8612 15.4315C91.9379 15.3886 92.0239 15.3652 92.1117 15.3634C92.1995 15.3616 92.2864 15.3814 92.3647 15.4211C92.7352 15.5687 93.1838 16.0173 93.7973 16.5614C94.4109 17.1055 95.1837 17.7393 95.9738 18.3587C96.7651 18.9431 97.5208 19.5742 98.237 20.2486C98.8975 20.9071 99.4494 21.6661 99.8722 22.4974C100.315 23.3656 100.671 24.3265 101.421 25.0732C102.17 25.8199 103.322 26.3495 104.025 27.9384Z" fill="#F6ECFB"/>
<path d="M102.842 41.0598L102.723 40.999C100.142 39.7082 98.961 38.3016 97.8988 37.06L97.3779 36.4465C96.6319 35.6294 95.9543 34.7524 95.3519 33.8243C95.1098 33.3896 94.9332 32.9215 94.8281 32.4351C94.77 32.193 94.6986 31.9544 94.6139 31.7202C94.2674 30.8985 93.7413 30.1647 93.0742 29.5728C92.7378 29.2627 92.3778 28.9792 91.9976 28.7248L91.9166 28.6698L91.9397 28.5714C92.5185 26.1605 92.122 25.2662 91.7805 24.479C91.74 24.3893 91.7024 24.3024 91.6677 24.2156C91.3224 23.3167 91.1696 22.3554 91.2191 21.3938C91.2191 20.7947 91.2741 20.1232 91.3204 19.4749C91.358 18.9424 91.3927 18.4388 91.4043 17.9902C91.4043 17.6111 91.4043 17.2754 91.4043 16.9801C91.3789 16.5932 91.3993 16.2046 91.4651 15.8225C91.4861 15.712 91.5306 15.6073 91.5955 15.5154C91.6604 15.4236 91.7442 15.3467 91.8413 15.2899C91.9343 15.2469 92.0355 15.2246 92.138 15.2246C92.2404 15.2246 92.3416 15.2469 92.4346 15.2899C92.8636 15.5169 93.2543 15.8099 93.5923 16.1582L93.9193 16.4476C94.4982 16.957 95.2449 17.5763 96.09 18.2391L96.4228 18.4967C97.1028 19.006 97.7522 19.555 98.3677 20.1406C99.0357 20.8117 99.596 21.582 100.029 22.4241C100.127 22.6151 100.223 22.8148 100.318 23.003C100.614 23.7188 101.03 24.3786 101.548 24.9536C101.766 25.158 101.994 25.3512 102.231 25.5325C103.072 26.1187 103.742 26.9177 104.173 27.8478C104.343 28.2489 104.479 28.6632 104.581 29.0865C104.871 30.3339 104.827 31.8881 104.445 33.8359C104.37 34.2179 104.286 34.6086 104.197 34.9936C103.87 36.487 103.528 38.0296 103.638 39.6822V39.769L102.842 41.0598ZM92.232 28.5395C92.5933 28.7849 92.9367 29.0557 93.2595 29.3499C93.959 29.9711 94.5099 30.7417 94.8715 31.6045C94.9621 31.8485 95.0375 32.0979 95.0973 32.3512C95.1958 32.8132 95.3626 33.258 95.5922 33.6709C96.1901 34.5832 96.8609 35.4456 97.5978 36.2497L98.1188 36.8632C99.1375 38.0643 100.287 39.4217 102.732 40.6691L103.334 39.6879C103.233 38.0122 103.589 36.3944 103.913 34.9675C104 34.571 104.084 34.1832 104.159 33.8099C104.532 31.9026 104.576 30.3889 104.295 29.1792C104.196 28.7721 104.065 28.3734 103.904 27.9867C103.488 27.103 102.847 26.3437 102.046 25.7843C101.8 25.596 101.564 25.3941 101.34 25.1794C100.797 24.5832 100.362 23.8978 100.052 23.1534C99.9566 22.9566 99.864 22.7627 99.7627 22.5746C99.3445 21.7584 98.8016 21.0124 98.1535 20.3635C97.5471 19.7851 96.9063 19.2438 96.2347 18.7427L95.9047 18.4822C95.0538 17.8166 94.2985 17.1943 93.7196 16.6792L93.3897 16.3897C93.0777 16.067 92.7198 15.792 92.3275 15.5736C92.2717 15.548 92.211 15.5348 92.1495 15.5348C92.0881 15.5348 92.0274 15.548 91.9716 15.5736C91.912 15.6121 91.8612 15.6626 91.8223 15.7219C91.7834 15.7813 91.7574 15.848 91.7458 15.918C91.6891 16.2748 91.6716 16.6368 91.6937 16.9975C91.6937 17.2869 91.6937 17.6342 91.6937 18.0192C91.6792 18.4735 91.6445 18.98 91.6098 19.5155C91.5635 20.1609 91.5172 20.8294 91.5085 21.4198C91.4564 22.3421 91.6025 23.2648 91.9368 24.1259L92.0468 24.3835C92.3709 25.1418 92.7906 26.1084 92.232 28.5395Z" fill="#B985D1"/>
<path d="M103.482 39.739C103.34 37.6118 103.945 35.6292 104.292 33.8435C104.64 32.0578 104.735 30.4776 104.428 29.1549C104.121 27.8323 103.412 26.7701 103.094 25.7166C102.852 24.7721 102.786 23.7909 102.9 22.8225C102.955 22.015 102.996 21.439 103.499 20.6084C104.003 19.7778 104.972 18.6924 105.256 16.707C106.246 17.9834 106.388 18.6577 106.778 19.2655C107.169 19.8733 107.806 20.4232 108.315 21.3377C108.906 22.5278 109.27 23.8174 109.389 25.1407C109.591 26.9017 109.559 28.6816 109.293 30.4342C109.023 32.3315 108.392 34.1596 107.435 35.8203C106.425 37.5423 104.972 39.1717 103.482 39.739Z" fill="#F6ECFB"/>
<path d="M103.352 39.9421V39.7453C103.239 38.0522 103.598 36.4199 103.916 34.9786C104.003 34.5821 104.087 34.1942 104.162 33.8209C104.535 31.9136 104.579 30.4 104.298 29.1902C104.113 28.4846 103.856 27.7999 103.531 27.1469C103.312 26.699 103.123 26.2368 102.967 25.7635C102.716 24.8015 102.649 23.8012 102.767 22.8143C102.825 21.9894 102.862 21.3961 103.386 20.5337C103.482 20.3774 103.592 20.2124 103.71 20.0359C104.451 19.0537 104.936 17.9031 105.123 16.6873L105.172 16.3516L105.38 16.6207C105.852 17.2155 106.252 17.8634 106.573 18.5511C106.673 18.7701 106.786 18.9827 106.911 19.1879C107.082 19.4379 107.268 19.6776 107.467 19.9056C107.841 20.3255 108.172 20.7822 108.454 21.2688C109.045 22.4749 109.408 23.7799 109.525 25.1181C109.727 26.8925 109.695 28.686 109.429 30.4521C109.157 32.3674 108.519 34.2125 107.551 35.8873C106.393 37.8641 104.888 39.3604 103.525 39.8726L103.352 39.9421ZM105.343 17.0577C105.107 18.1918 104.628 19.2613 103.939 20.1922C103.823 20.3658 103.713 20.525 103.624 20.6784C103.137 21.4801 103.1 22.0155 103.045 22.8288C102.93 23.7805 102.994 24.7453 103.233 25.6737C103.384 26.1344 103.567 26.5841 103.78 27.0195C104.115 27.6908 104.38 28.3949 104.57 29.1207C104.859 30.3681 104.816 31.9223 104.434 33.8701C104.359 34.2521 104.275 34.6428 104.185 35.0278C103.87 36.4749 103.545 37.9364 103.606 39.5138C104.862 38.9581 106.228 37.5602 107.299 35.7311C108.252 34.0873 108.877 32.2752 109.143 30.3942C109.404 28.6587 109.435 26.8964 109.235 25.1528C109.12 23.844 108.762 22.5681 108.179 21.3903C107.906 20.9208 107.587 20.4797 107.227 20.0735C107.019 19.8369 106.825 19.5875 106.648 19.3268C106.516 19.1123 106.397 18.89 106.292 18.6611C106.028 18.0973 105.71 17.5603 105.343 17.0577V17.0577Z" fill="#B985D1"/>
<path d="M102.787 40.8713C100.162 39.5573 98.9815 38.1131 97.9251 36.8657C96.8687 35.6183 95.9223 34.5591 95.4679 33.7545C95.0136 32.9499 94.9991 32.3537 94.7386 31.6678C94.3848 30.8245 93.8457 30.0718 93.1613 29.4653C92.3797 28.7331 91.4637 28.1591 90.4639 27.7751C89.5956 27.4857 88.9329 27.5696 88.1312 27.5406C87.3314 27.5241 86.5393 27.3815 85.784 27.1181C85.1704 26.8692 84.8781 26.519 84.0996 26.2788C83.321 26.0386 82.0505 25.9083 81.3501 26.9589C84.499 30.458 86.4265 33.7834 88.6116 36.1451C90.506 38.2188 92.8961 39.7774 95.5577 40.6745C97.8499 41.4443 100 41.5804 102.787 40.8713Z" fill="#F6ECFB"/>
<path d="M99.3952 41.4805C98.0737 41.4738 96.7623 41.2489 95.5141 40.8149C92.8309 39.911 90.4224 38.3382 88.5159 36.2449C87.4215 35.0059 86.3963 33.7073 85.4452 32.3551C84.1394 30.5178 82.7396 28.749 81.2515 27.0559L81.1763 26.9719L81.2371 26.8793C82.0532 25.6551 83.5524 25.9561 84.1515 26.1442C84.5229 26.2612 84.8764 26.4287 85.2021 26.642C85.4069 26.7752 85.6228 26.8905 85.8475 26.9864C86.587 27.2436 87.3626 27.3823 88.1455 27.3974H88.6867C89.3062 27.3666 89.9263 27.445 90.5187 27.6289C91.5387 28.0248 92.4724 28.6145 93.2682 29.3654C93.9677 29.9867 94.5186 30.7572 94.8802 31.62C94.9708 31.864 95.0462 32.1134 95.106 32.3667C95.2046 32.8287 95.3714 33.2735 95.6009 33.6865C96.1989 34.5987 96.8696 35.4611 97.6066 36.2652L98.1275 36.8788C99.1608 38.0972 100.333 39.4835 102.86 40.7454L103.207 40.9191L102.831 41.0146C101.71 41.3141 100.555 41.4707 99.3952 41.4805ZM81.5352 26.9488C83.0007 28.6235 84.381 30.3709 85.6709 32.1844C86.6157 33.5268 87.633 34.8167 88.7185 36.0481C90.5916 38.1057 92.9583 39.6516 95.5951 40.5399C97.7779 41.301 100.137 41.4016 102.376 40.8293C100.032 39.5877 98.9032 38.2535 97.8989 37.0669L97.3779 36.4533C96.6319 35.6362 95.9544 34.7592 95.352 33.8312C95.1098 33.3965 94.9333 32.9283 94.8282 32.442C94.7701 32.1999 94.6986 31.9612 94.614 31.7271C94.2674 30.9054 93.7413 30.1716 93.0743 29.5796C92.3065 28.8559 91.4064 28.2869 90.4232 27.9039C89.8614 27.7311 89.2737 27.6576 88.6867 27.6868H88.1339C87.3172 27.6699 86.5083 27.5234 85.7375 27.2527C85.4988 27.1523 85.2693 27.0312 85.0516 26.8909C84.7456 26.6895 84.4136 26.5308 84.0647 26.4191C83.5292 26.2571 82.2558 25.9937 81.5352 26.9488Z" fill="#B985D1"/>
<path d="M92.067 28.6075C92.7153 25.8696 92.1365 25.0101 91.7776 24.1621C91.4903 23.433 91.343 22.6564 91.3435 21.8728C89.1757 21.265 88.1859 20.6717 87.6592 20.5299C87.1324 20.3881 87.0659 20.6891 87.0543 21.0682C87.0427 21.4473 87.0832 21.8988 87.0977 22.5153C87.1122 23.1317 87.0977 23.8784 87.3437 24.4804C87.5897 25.0824 88.0615 25.5252 88.0615 27.5483H88.1194C88.9211 27.5772 89.5925 27.4904 90.4521 27.7827C91.0243 27.9856 91.5673 28.2629 92.067 28.6075V28.6075Z" fill="#F6ECFB"/>
<path d="M92.1597 28.8409L91.9861 28.7251C91.5021 28.386 90.9769 28.1098 90.4233 27.9032C89.8615 27.7304 89.2738 27.6569 88.6868 27.6861H88.134H87.9372V27.5472C87.9372 25.967 87.6478 25.3766 87.4018 24.9019C87.3381 24.7746 87.2802 24.6559 87.2281 24.5315C87.0415 23.9414 86.9573 23.3237 86.9792 22.7052V22.5171C86.9792 22.2827 86.9647 22.0714 86.9532 21.8775C86.9532 21.5736 86.9271 21.2987 86.9358 21.07C86.9232 20.9555 86.9364 20.8397 86.9744 20.731C87.0125 20.6223 87.0745 20.5235 87.1558 20.442C87.2418 20.3894 87.3391 20.3577 87.4396 20.3497C87.5402 20.3417 87.6412 20.3574 87.7346 20.3957C87.9832 20.4775 88.2268 20.5742 88.4639 20.6851C89.4217 21.11 90.4093 21.464 91.4188 21.7444L91.523 21.7733V21.8804C91.5214 22.6464 91.6658 23.4057 91.9485 24.1176L92.0584 24.3752C92.4 25.1653 92.8254 26.1464 92.2321 28.6499L92.1597 28.8409ZM88.2179 27.3938C88.3742 27.3938 88.5276 27.3938 88.6781 27.3938C89.2976 27.363 89.9177 27.4414 90.5101 27.6253C91.025 27.8116 91.5165 28.0574 91.9745 28.3576C92.4781 26.0972 92.1019 25.2347 91.769 24.4678C91.7285 24.3781 91.6909 24.2912 91.6562 24.2044C91.3735 23.4929 91.2235 22.7356 91.2134 21.9701C90.2251 21.6921 89.2579 21.3439 88.3192 20.9282C88.0943 20.8238 87.8633 20.7329 87.6275 20.6561C87.5204 20.6272 87.3786 20.6012 87.3063 20.6561C87.2339 20.7111 87.2108 20.8935 87.205 21.0613C87.205 21.2871 87.205 21.5447 87.2223 21.8428C87.2223 22.0396 87.2426 22.2537 87.2484 22.4882V22.6792C87.2255 23.2668 87.3028 23.854 87.477 24.4157C87.5262 24.5344 87.5812 24.6443 87.642 24.7659C87.8967 25.2521 88.2005 25.8541 88.2179 27.3996V27.3938Z" fill="#B985D1"/>
<path d="M98.165 20.1758L98.249 20.2568C98.9095 20.9153 99.4614 21.6743 99.8842 22.5056C100.327 23.3738 100.683 24.3347 101.433 25.0814C102.182 25.8281 103.322 26.3491 104.037 27.938C103.71 27.1421 103.317 26.4272 103.103 25.7152C102.86 24.7707 102.795 23.7895 102.909 22.8211C102.964 22.0136 103.004 21.4376 103.508 20.607C103.597 20.4565 103.705 20.2973 103.82 20.1266C103.282 18.6187 103.082 18.4885 102.778 18.2859C102.342 18.0101 101.951 17.6673 101.621 17.27C101.169 16.7259 100.671 15.9097 100.252 16.0081C99.2388 16.7982 99.2012 17.5392 98.9407 18.1585C98.6802 18.7779 98.1795 19.267 98.165 20.1758Z" fill="#F6ECFB"/>
<path d="M103.895 27.9963C103.48 27.1106 102.84 26.3499 102.037 25.7909C101.791 25.6027 101.555 25.4007 101.331 25.186C100.788 24.5898 100.353 23.9045 100.043 23.1601C99.9475 22.9633 99.8549 22.7694 99.7536 22.5812C99.3354 21.765 98.7925 21.019 98.1444 20.3701L98.0171 20.2456V20.182C98.0431 19.6229 98.219 19.081 98.5265 18.6133C98.6224 18.4474 98.7094 18.2764 98.7869 18.101C98.8419 17.9708 98.8853 17.8348 98.9317 17.6959C99.1187 16.975 99.5453 16.3391 100.141 15.8928L100.199 15.8638C100.622 15.7654 101.013 16.2748 101.426 16.8102C101.522 16.9376 101.617 17.062 101.716 17.1749C102.04 17.5616 102.423 17.8947 102.85 18.1618C103.209 18.3991 103.429 18.5902 103.95 20.0749L103.976 20.1443L103.936 20.2051C103.82 20.373 103.716 20.5322 103.626 20.6798C103.14 21.4815 103.102 22.0169 103.047 22.8302C102.933 23.7819 102.997 24.7467 103.235 25.6751C103.386 26.1358 103.569 26.5855 103.782 27.0209C103.913 27.3104 104.043 27.5998 104.164 27.8892L103.895 27.9963ZM98.3123 20.1154L98.3528 20.1559C99.0208 20.827 99.5812 21.5973 100.014 22.4394C100.112 22.6305 100.208 22.8301 100.304 23.0183C100.599 23.7341 101.015 24.3939 101.534 24.969C101.751 25.1733 101.979 25.3665 102.217 25.5478C102.566 25.8131 102.896 26.1032 103.203 26.416C103.109 26.1947 103.026 25.9686 102.955 25.7388C102.704 24.7769 102.637 23.7765 102.755 22.7896C102.813 21.9648 102.85 21.3715 103.374 20.509C103.455 20.3759 103.551 20.2196 103.649 20.0836C103.146 18.6857 102.963 18.5641 102.688 18.3847C102.236 18.1019 101.832 17.7492 101.49 17.3399C101.395 17.2241 101.296 17.0968 101.201 16.9665C100.911 16.5816 100.535 16.0983 100.295 16.1214C99.757 16.5304 99.3743 17.1101 99.2095 17.7653C99.1632 17.9129 99.114 18.0547 99.059 18.1908C98.9719 18.377 98.8753 18.5586 98.7696 18.7349C98.5014 19.1483 98.344 19.6237 98.3123 20.1154V20.1154Z" fill="#B985D1"/>
<path d="M105.328 126.542C105.297 126.543 105.268 126.533 105.244 126.514C105.228 126.503 105.215 126.489 105.205 126.473C105.195 126.457 105.188 126.44 105.185 126.421C105.181 126.402 105.182 126.383 105.186 126.365C105.19 126.347 105.198 126.329 105.209 126.314C111.501 117.576 109.718 109.038 108.283 102.179C108.06 101.105 107.846 100.09 107.675 99.1171C106.839 94.3967 106.992 90.8282 107.166 86.6982C107.261 84.4552 107.36 82.1369 107.331 79.318C107.229 69.8309 105.695 57.2614 102.645 40.8977C102.638 40.8597 102.646 40.8206 102.668 40.7887C102.69 40.7568 102.723 40.7346 102.761 40.7269C102.798 40.7201 102.837 40.7285 102.868 40.7502C102.9 40.7719 102.922 40.8051 102.929 40.8427C105.982 57.2267 107.519 69.8106 107.62 79.3151C107.649 82.1427 107.548 84.571 107.455 86.7127C107.281 90.8253 107.131 94.3765 107.959 99.068C108.132 100.035 108.344 101.048 108.566 102.121C110.014 109.036 111.811 117.64 105.444 126.482C105.431 126.501 105.414 126.516 105.393 126.527C105.373 126.537 105.351 126.543 105.328 126.542Z" fill="#655422"/>
<path d="M5.73047 85.9434C15.6489 86.0852 20.6471 87.3499 24.9971 87.8998C29.347 88.4497 33.0429 88.2934 37.5637 88.5076C42.0844 88.7218 47.4299 89.3122 51.7452 90.2702C60.3814 92.1832 64.9079 95.5636 67.6632 97.6619C68.9069 98.5508 70.0691 99.5484 71.1362 100.643C72.2939 101.844 73.6368 103.52 76.0101 106.206C78.3833 108.891 81.7811 112.573 84.5392 118.361C87.2974 124.15 89.4159 131.981 90.2379 136.699C91.0598 141.416 90.5765 142.997 89.0252 145.619C84.4698 147.127 77.2285 142.568 70.7629 138.288C64.2973 134.007 58.6073 130.007 52.7755 126.155C46.9437 122.303 40.9875 118.59 36.7214 115.264C33.0911 112.511 29.9471 109.169 27.4195 105.378C24.9508 101.76 22.5891 97.4622 19.3505 93.8011C16.1119 90.1399 12.0109 87.0981 5.73047 85.9434Z" fill="#7F7E35"/>
<path d="M87.0482 145.986C82.7069 145.986 76.8491 142.388 70.7365 138.342C67.4285 136.151 64.3143 134.03 61.3015 131.975C58.3668 129.978 55.597 128.088 52.7492 126.207C51.3339 125.269 49.8955 124.331 48.5063 123.425C44.0926 120.549 39.925 117.831 36.6922 115.322C33.0582 112.56 29.9088 109.213 27.3729 105.418C26.6436 104.35 25.9258 103.241 25.1878 102.066C23.4195 99.2907 21.5874 96.4226 19.3097 93.8468C15.4749 89.5055 11.1568 87.0223 5.70703 86.0324V85.8906C11.056 85.9408 16.392 86.4248 21.6627 87.3377C22.8204 87.5229 23.9317 87.7024 24.9794 87.8355C27.6999 88.1425 30.4351 88.301 33.1729 88.3102C34.5679 88.3391 36.0092 88.3681 37.5431 88.4404C42.3148 88.6452 47.0622 89.2346 51.7391 90.203C60.4882 92.1421 65.0003 95.5659 67.6947 97.6092C68.9382 98.5005 70.1004 99.5 71.1678 100.596C71.8161 101.276 72.5396 102.118 73.4571 103.183C74.1835 104.031 75.0084 104.992 76.0445 106.162L76.4005 106.567C78.7448 109.209 81.9573 112.83 84.5823 118.326C87.2971 124.004 89.4417 131.821 90.2868 136.684C91.1319 141.546 90.5936 143.074 89.0683 145.656L89.0538 145.679H89.0278C88.3882 145.885 87.7201 145.988 87.0482 145.986V145.986ZM6.53477 86.0267C11.6372 87.1264 15.747 89.5923 19.4168 93.7426C21.7032 96.3271 23.5381 99.201 25.3094 101.979C26.059 103.152 26.7565 104.26 27.4916 105.328C30.0187 109.111 33.1584 112.446 36.7819 115.197C40.0089 117.715 44.1766 120.43 48.5873 123.301C49.9765 124.207 51.412 125.142 52.8273 126.079C55.6752 127.963 58.4478 129.842 61.3825 131.85C64.3954 133.902 67.5095 136.024 70.8147 138.218C77.8881 142.897 84.5997 146.978 88.9902 145.551C90.9061 142.304 90.8309 140.449 90.1797 136.701C89.3375 131.85 87.1958 124.048 84.4868 118.384C81.8821 112.905 78.6666 109.293 76.3281 106.656L75.9692 106.251C74.936 105.094 74.1083 104.121 73.3818 103.273C72.4673 102.208 71.7437 101.369 71.0983 100.692C70.0306 99.6002 68.8684 98.6056 67.6253 97.7192C64.9395 95.6933 60.4419 92.2723 51.7246 90.339C47.0524 89.3726 42.3099 88.7841 37.5431 88.5793C36.015 88.507 34.5737 88.478 33.1787 88.4491C30.436 88.4404 27.6959 88.2809 24.9707 87.9715C23.9202 87.8384 22.8175 87.6619 21.6482 87.4737C16.655 86.6043 11.6023 86.1205 6.53477 86.0267V86.0267Z" fill="#304F25"/>
<path d="M88.9762 145.644C84.8289 138.058 80.8407 132.07 76.0537 126.23C71.6136 120.759 66.5448 115.83 60.9518 111.545C55.1461 107.01 46.1712 100.726 28.1606 92.3099L28.2214 92.1797C46.2464 100.602 55.2271 106.891 61.0415 111.432C66.643 115.724 71.7187 120.662 76.1637 126.143C80.9593 131.989 84.9504 137.986 89.1036 145.58L88.9762 145.644Z" fill="white"/>
<path d="M144.657 2.70671C142.258 0.437664 140.316 0.237965 138.733 0.538961C137.343 0.826912 136.054 1.47462 134.993 2.41729C134.18 3.06763 133.539 3.90734 133.126 4.86288C132.75 5.77455 132.571 6.83961 132.438 8.72952C132.305 10.6194 132.215 13.3313 131.726 15.8203C131.217 18.2119 130.419 20.5327 129.35 22.7316C128.348 24.8878 127.237 26.934 126.646 28.3174C126.212 29.2849 125.944 30.3194 125.856 31.3765C125.735 32.3403 125.567 33.5443 125.636 34.4646C125.706 35.385 126.039 36.013 126.366 36.2533C126.693 36.4935 127.014 36.3401 127.483 36.2996C127.952 36.259 128.565 36.3401 129.399 36.3777C130.232 36.4153 131.283 36.4153 132.267 36.89C133.251 37.3646 134.171 38.311 134.345 38.942C132.967 39.3992 132.163 40.0041 131.512 40.3341C131.005 40.6094 130.431 40.7339 129.856 40.6929C129.306 40.6672 128.769 40.5147 128.287 40.2472C127.743 39.9578 127.167 39.4571 125.217 39.2864C119.943 51.0252 116.864 60.414 115.579 67.1227C114.294 73.8314 114.795 77.8312 115.145 80.5835C115.495 83.3359 115.686 84.8843 115.976 85.5992C116.265 86.314 116.653 86.2012 116.844 86.0131C117.127 85.632 117.538 85.365 118.001 85.2606C119.42 84.8412 120.883 84.5867 122.36 84.5023C123.846 84.4264 125.336 84.4942 126.808 84.7049C128.004 84.8641 128.82 85.0406 129.214 85.3474C129.607 85.6542 129.578 86.0912 129.245 86.5572C128.82 87.1045 128.248 87.5191 127.596 87.7525C126.924 87.9869 126.227 87.9579 124.629 88.0737C121.786 88.3388 118.923 88.3233 116.083 88.0274C116.083 96.9994 116.083 101.323 117.24 105.844C118.398 110.365 120.676 115.082 122.644 118.732C124.612 122.381 126.259 124.96 128.947 126.413C131.636 127.866 135.367 128.199 138.961 127.319C142.67 126.429 145.974 124.323 148.347 121.337C150.68 118.318 151.887 114.367 152.737 110.168C153.58 105.764 154.145 101.312 154.431 96.8373C154.769 92.1545 154.963 87.2344 155.365 83.7758C155.613 81.4216 156.082 79.096 156.766 76.8298C157.197 75.3161 157.487 74.2713 157.539 73.3568C157.591 72.4422 157.414 71.6463 156.856 71.0414C156.297 70.4365 155.363 69.9966 154.101 69.9243C152.839 69.8519 151.256 70.1413 150.014 70.4278C148.772 70.7144 147.872 71.0067 146.396 71.3916C144.92 71.7765 142.865 72.2599 142.541 72.3727C142.541 69.9966 145.172 68.399 147.172 67.4526C149.172 66.5062 150.558 66.2371 151.597 66.2949C152.636 66.3528 153.334 66.7609 154.095 67.0503C154.792 67.3207 155.524 67.4912 156.268 67.5568C156.847 67.5915 157.177 67.4816 157.177 66.4657C157.177 65.4498 156.847 63.531 156.682 61.3661C156.504 59.2377 156.526 57.0972 156.749 54.9729C156.98 53.1524 157.443 51.9253 157.617 50.921C157.791 49.9167 157.707 49.1353 156.963 48.6404C156.219 48.1455 154.824 47.9313 153.588 47.9979C152.353 48.0644 151.273 48.406 149.985 48.7504C148.697 49.0948 147.201 49.4334 146.278 49.6186C145.354 49.8039 144.998 49.8588 144.941 49.636C144.883 49.4131 145.129 48.9124 145.54 48.4928C146.039 48.0436 146.584 47.6488 147.166 47.3149C147.998 46.7351 148.909 46.2798 149.872 45.9633C151.352 45.5146 152.866 45.1856 154.399 44.9792C155.093 44.8879 155.794 44.8588 156.494 44.8924C156.92 44.8924 157.316 44.794 156.966 43.9663C156.616 43.1385 155.519 41.5786 154.361 40.1691C153.203 38.7596 151.976 37.5064 151.276 36.3835C150.576 35.2606 150.408 34.2707 150.387 32.9105C150.367 31.5502 150.518 29.7905 150.503 27.5736C150.478 25.084 150.285 22.599 149.924 20.1355C149.548 17.5973 148.975 15.2154 148.046 11.8668C147.117 8.51824 145.852 4.23484 144.657 2.70671Z" fill="#353E18"/>
<path d="M137.092 127.663C136.093 93.3354 137.96 80.5605 139.309 71.2267V71.1804C140.666 61.8322 141.566 55.6589 141.566 49.254C141.566 43.3586 140.814 37.2547 140.085 31.3506L139.894 29.7935C139.158 23.7881 138.4 17.5771 142.466 5.87305L142.602 5.91935C138.551 17.5945 139.303 23.7852 140.038 29.7761L140.229 31.3332C140.956 37.2403 141.711 43.3499 141.711 49.254C141.711 55.6676 140.811 61.8466 139.451 71.2007V71.2499C138.093 80.572 136.235 93.3412 137.234 127.658L137.092 127.663Z" fill="white"/>
<path d="M119.733 109.115C120.87 108.189 123.012 107.173 124.763 106.09C126.377 105.133 127.809 103.898 128.994 102.444C130.184 100.994 130.997 99.2733 131.362 97.4338C131.696 95.5376 131.616 93.5917 131.127 91.7293C130.687 90.2041 129.97 89.3821 129.339 89.0956C128.708 88.8091 128.207 89.0551 127.518 89.9147C126.829 90.7743 125.967 92.23 124.96 93.8392C123.953 95.4484 122.804 97.1588 121.935 98.5567C121.067 99.9546 120.488 101.023 119.556 101.451C118.624 101.879 117.403 101.636 116.636 101.188C115.869 100.739 115.574 100.07 115.75 99.3179C115.927 98.5654 116.581 97.729 117.455 96.6552C118.329 95.5815 119.432 94.2733 120.474 93.023C121.516 91.7727 122.5 90.5832 123.217 89.1159C123.938 87.5734 124.413 85.9281 124.627 84.2392C124.863 82.5701 124.853 80.8753 124.598 79.2091C124.323 77.4552 123.914 75.7252 123.374 74.0343C123.067 72.9992 122.645 72.0021 122.115 71.0619C121.758 70.4572 121.362 69.877 120.928 69.3254C120.639 68.9492 120.511 68.8363 120.404 68.871C120.297 68.9057 120.205 69.091 120.051 69.5888C119.811 70.4302 119.618 71.2843 119.472 72.1472C119.231 73.7632 118.858 75.3565 118.355 76.9111C117.636 78.8288 116.744 80.6771 115.69 82.4332C114.703 84.1263 113.771 85.5271 112.926 86.8121C112.081 88.0971 111.319 89.2606 110.431 89.9957C109.542 90.7308 108.521 91.0174 107.794 90.864C107.068 90.7106 106.637 90.1057 106.399 89.2751C106.117 88.2347 106.184 87.1305 106.59 86.132C107.062 84.873 108.037 83.4172 108.807 82.2914L111.204 78.7402C112.306 77.1079 113.976 74.6391 114.897 72.454C115.695 70.5879 116.032 68.5565 115.878 66.5325C115.739 64.6963 115.373 62.8843 114.79 61.1377C114.251 59.362 113.511 57.6539 112.584 56.0469C111.777 54.6923 110.734 53.4926 109.505 52.5044C108.393 51.6158 107.23 50.9733 106.414 50.8778C105.598 50.7823 105.14 51.2396 105.14 52.3886C105.14 53.5376 105.6 55.3754 105.832 57.274C106.055 59.1661 106.072 61.0768 105.884 62.9727C105.705 64.822 105.346 66.5614 105.016 68.2285C104.686 69.8956 104.391 71.4816 103.795 72.9345C103.198 74.3873 102.295 75.71 101.387 76.3699C101 76.6564 100.547 76.8402 100.07 76.904C99.5936 76.9678 99.1084 76.9095 98.6602 76.7345C97.7401 76.4617 96.9503 75.8642 96.4375 75.053C95.9976 74.2571 95.9976 73.2615 96.4375 71.9678C96.8774 70.6741 97.7312 69.0881 98.2579 67.4008C98.7847 65.7135 98.9757 63.9277 99.187 61.9423C99.3982 59.9569 99.6269 57.7892 99.5603 55.7835C99.5159 53.9105 99.1528 52.0587 98.4866 50.3077C97.9053 48.7342 96.9648 47.318 95.74 46.1719C94.6785 45.2215 93.407 44.5362 92.0296 44.172C90.9559 43.9231 90.2671 44.117 90.0732 45.5409C89.8793 46.9649 90.1803 49.6217 90.296 51.8908C90.4118 54.1598 90.3394 56.0353 90.4581 57.6792C90.5768 59.3231 90.8807 60.7412 91.0051 62.0899C91.1296 63.4386 91.0717 64.7236 90.5363 65.8813C90.0008 67.039 88.985 68.0722 87.9315 68.2922C86.878 68.5121 85.7869 67.9188 85.127 67.0766C84.4671 66.2344 84.2385 65.1433 84.2269 63.8207C84.2591 62.287 84.4168 60.7586 84.6987 59.2507C84.9881 57.5547 85.3238 55.7227 85.2544 54.2177C85.1849 52.7127 84.69 51.5348 83.8073 50.108C82.9245 48.6811 81.5961 47.0054 79.9783 46.1603C78.3604 45.3152 76.4271 45.292 74.7369 45.2399C73.0467 45.1878 71.6054 45.1213 70.3956 44.6611C69.1858 44.2009 68.1873 43.3848 67.2525 42.8551C66.3177 42.3255 65.4465 42.0853 64.5407 42.3023C63.6348 42.5194 62.6971 43.1706 61.6696 44.7364C60.6422 46.3021 59.5279 48.7419 58.1966 50.7678C56.8653 52.7938 55.3169 54.4001 54.4168 55.7661C53.6006 56.9239 53.2054 58.3262 53.2968 59.7398C53.3885 61.3657 53.6484 62.9777 54.0724 64.55C54.4135 65.9663 54.9328 67.3336 55.6179 68.6192C56.3786 70.1275 57.422 71.4756 58.6915 72.59C60.0489 73.7217 61.7709 74.4886 63.3888 75.2903C64.8646 76.0127 66.2985 76.8176 67.6838 77.7012C68.6472 78.3319 69.5589 79.0384 70.4101 79.8139C71.1481 80.4738 71.7993 81.1077 71.8745 81.672C71.9498 82.2364 71.4549 82.7342 70.6127 83.0294C69.5278 83.3844 68.3554 83.3671 67.2815 82.9802C65.982 82.5403 64.5638 81.5649 62.9662 80.3407C61.3686 79.1164 59.5887 77.6433 57.667 76.4567C55.7452 75.2701 53.6759 74.37 52.2809 74.4076C50.8859 74.4452 50.1566 75.4235 49.6761 76.4162C49.1957 77.4089 48.9613 78.4218 49.3549 80.0715C49.7485 81.7212 50.7701 84.0076 52.1391 85.4779C53.508 86.9481 55.2272 87.6022 57.5744 88.4329C59.9215 89.2635 62.8997 90.2678 65.2497 91.327C67.5998 92.3863 69.319 93.4774 70.7776 94.829C72.2363 96.1806 73.4316 97.7898 73.6921 98.742C73.9526 99.6942 73.2782 99.998 72.4505 100.151C71.6227 100.305 70.6445 100.302 69.1048 99.5089C67.5651 98.7159 65.4726 97.1386 63.218 95.8941C60.9792 94.6902 58.6188 93.7277 56.1765 93.023C53.8003 92.3082 51.4618 91.7872 49.7832 91.9898C48.1046 92.1924 47.0916 93.1128 46.9845 94.6148C46.8774 96.1169 47.682 98.2036 49.3809 100.183C51.0798 102.163 53.6817 104.03 56.3038 105.231C58.9259 106.432 61.5712 106.967 64.2918 107.387C67.0123 107.807 69.8052 108.116 71.6343 108.374C73.4634 108.631 74.3259 108.846 74.6877 109.332C75.0495 109.818 74.9019 110.582 74.1957 111.184C73.4895 111.786 72.2189 112.232 70.795 112.57C69.2392 112.956 67.6394 113.134 66.037 113.1C64.2602 113.073 62.5033 112.721 60.8535 112.061C59.3282 111.398 58.1937 110.406 56.8566 109.508C55.5195 108.611 53.9798 107.801 52.4806 108.061C50.9814 108.322 49.5198 109.613 49.1668 110.935C48.8137 112.258 49.5719 113.607 50.7875 114.871C52.003 116.136 53.6817 117.317 55.5282 118.399C57.3871 119.527 59.3791 120.42 61.4584 121.056C63.4474 121.648 65.5362 121.827 67.5969 121.583C69.5534 121.322 71.3449 120.605 72.7254 120.237C74.106 119.87 75.0813 119.858 75.6978 120.145C75.8434 120.206 75.9756 120.295 76.0867 120.407C76.1978 120.519 76.2855 120.652 76.345 120.799C76.4044 120.945 76.4343 121.102 76.433 121.26C76.4317 121.418 76.3992 121.574 76.3374 121.719C76.1 122.416 75.3678 123.221 74.5632 123.93C73.751 124.703 72.7547 125.255 71.6691 125.533C70.3373 125.798 68.9664 125.798 67.6346 125.533C66.338 125.285 65.2758 124.836 64.0284 124.494C62.9162 124.187 61.7777 123.983 60.6277 123.887C59.91 123.855 59.91 124.029 60.0981 124.793C60.3949 126.099 60.9759 127.325 61.7999 128.381C63.0928 129.963 64.6617 131.296 66.4306 132.317C67.6995 133.068 69.1743 133.395 70.6416 133.252C72.0479 133.108 73.4381 132.836 74.7948 132.439C76.1579 132.077 77.4314 131.715 78.6064 130.836C79.7815 129.956 80.8726 128.561 81.8276 127.464C82.7827 126.367 83.6539 125.56 84.4585 125.128C85.263 124.697 86.0097 124.639 86.4844 124.839C86.959 125.039 87.1443 125.47 87.1819 126.08C87.2368 126.831 87.0325 127.578 86.603 128.196C86.0966 128.914 85.1965 129.565 84.3456 130.387C83.539 131.204 82.7758 132.063 82.0592 132.96C81.4282 133.715 80.9681 134.233 80.997 134.827C81.0259 135.42 81.544 136.089 82.6062 136.731C83.6683 137.374 85.2746 137.984 87.3989 138.329C89.5233 138.673 92.1628 138.748 94.345 138.184C96.2846 137.656 98.0608 136.65 99.5111 135.258C100.747 134.1 101.473 132.989 101.847 131.553C102.189 130.009 102.274 128.419 102.096 126.847C101.941 125.49 101.698 124.144 101.369 122.819C101.08 121.566 100.842 120.321 100.709 119.285C100.576 118.249 100.556 117.415 101.578 118.017C102.599 118.619 104.605 120.639 106.92 121.872C109.223 123.072 111.828 123.568 114.41 123.299C116.988 123.013 119.456 122.1 121.6 120.639C123.706 119.234 125.587 117.518 127.18 115.549C128.164 114.361 128.829 112.943 129.113 111.427C129.437 110.01 129.631 108.567 129.692 107.115C129.692 105.957 129.472 105.335 129.136 105.193C128.8 105.051 128.36 105.375 127.729 106.206C127.099 107.037 126.282 108.38 125.585 109.39C125.034 110.278 124.32 111.054 123.481 111.676C122.612 112.29 121.455 112.834 120.543 112.834C120.147 112.842 119.759 112.725 119.432 112.5C119.106 112.275 118.859 111.954 118.726 111.581C118.459 110.886 118.592 110.044 119.733 109.115ZM101.951 84.4128C102.359 84.0742 102.738 83.7877 103.109 83.5069C103.795 83.0162 104.438 82.4671 105.03 81.8659C106.108 80.7127 106.988 79.3896 107.635 77.9501C108.246 76.5551 108.529 75.2006 108.871 73.03C108.969 72.399 109.071 71.7131 109.195 70.8738C109.484 68.9578 109.872 66.3357 110.607 61.7831L110.715 61.8005C109.982 66.3502 109.592 68.9723 109.305 70.8883C109.181 71.7305 109.079 72.4164 108.978 73.0473C108.639 75.218 108.353 76.5811 107.736 77.9848C107.091 79.4359 106.211 80.7706 105.132 81.9354C104.533 82.5389 103.885 83.0917 103.195 83.588C102.831 83.8774 102.452 84.1523 102.038 84.491C100.676 85.6219 99.4428 86.9002 98.3621 88.3026C97.2044 89.8452 96.3709 91.4544 95.1235 95.9664L95.0164 95.9375C96.2638 91.4341 97.1234 89.7555 98.2724 88.236C99.355 86.8309 100.589 85.5488 101.951 84.4128V84.4128ZM96.423 82.3579C97.0192 81.7531 97.5807 81.3826 97.9888 81.4115C98.3969 81.4405 98.6602 81.8775 98.8773 82.4042C99.1178 82.9259 99.23 83.4975 99.2043 84.0713C99.161 84.3397 99.0612 84.5959 98.9115 84.8229C98.7619 85.0499 98.5657 85.2426 98.3361 85.3882C97.7394 85.8109 97.0761 86.1308 96.3738 86.3346C95.63 86.5603 94.8544 86.6674 94.5447 86.3664C94.235 86.0654 94.3913 85.3505 94.7849 84.5749C95.2214 83.7609 95.7731 83.0142 96.423 82.3579V82.3579ZM93.8761 71.1545C94.0961 70.8275 94.2842 70.5439 94.455 70.2863C95.5229 68.5671 95.7082 67.3921 95.7487 66.3733C95.7892 65.3546 95.6705 64.3011 95.4795 62.5501C95.4419 62.2288 95.4043 61.8873 95.3666 61.5169L95.2885 60.7846C95.0338 58.4027 94.7097 55.4362 94.3045 53.992L94.4116 53.9601C94.8283 55.4072 95.1438 58.3854 95.3985 60.7731L95.4766 61.5053C95.5142 61.8729 95.5519 62.2173 95.5895 62.5356C95.7834 64.2924 95.8992 65.3546 95.8587 66.3791C95.8181 67.4037 95.63 68.6048 94.5505 70.3442C94.3826 70.6162 94.1945 70.8998 93.9716 71.2124C92.9095 72.81 91.1267 75.4813 87.5437 83.012L87.4424 82.9628C91.0283 75.4321 92.8111 72.7637 93.8761 71.1545V71.1545ZM72.7225 47.8302C72.8759 47.2514 73.1856 47.0083 73.6053 47.127C74.0249 47.2456 74.5517 47.7058 74.9221 48.1862C75.2677 48.6359 75.5187 49.1507 75.6601 49.6999C75.8101 50.2394 75.8774 50.7986 75.8598 51.3583C75.8367 51.9082 75.7122 52.4349 75.281 52.6751C75.0104 52.7998 74.7093 52.8427 74.4146 52.7985C74.12 52.7542 73.8447 52.6249 73.6226 52.4262C73.119 51.9863 72.8383 51.147 72.6994 50.2556C72.5571 49.4527 72.565 48.6303 72.7225 47.8302V47.8302ZM62.4887 59.161C62.7205 58.9457 63.0046 58.7948 63.3128 58.7233C63.6209 58.6517 63.9425 58.6619 64.2455 58.7529C64.9806 58.9237 65.8083 59.4388 66.6303 60.0524C67.4511 60.6606 68.218 61.3384 68.9225 62.0783C69.5737 62.7816 70.0801 63.4733 70.2335 64.0059C70.3207 64.223 70.3309 64.4635 70.2625 64.6873C70.194 64.9111 70.051 65.1047 69.8573 65.2359C69.4097 65.5816 68.8744 65.7951 68.3118 65.8524C67.8053 65.8813 67.4291 65.6816 66.8994 65.3227C66.3698 64.9639 65.6954 64.4545 65.05 63.9306C64.4046 63.4068 63.7882 62.8829 63.2585 62.362C62.7289 61.841 62.2919 61.3259 62.1356 60.7528C62.0554 60.4792 62.0458 60.1898 62.1075 59.9115C62.1692 59.6332 62.3004 59.375 62.4887 59.161ZM75.5762 115.198C74.9568 115.488 74.3722 115.751 73.7992 115.986C72.2974 116.612 70.7003 116.979 69.0759 117.071C68.827 117.085 68.5694 117.097 68.2944 117.097C66.6766 117.097 64.4017 116.7 59.0764 114.521L59.117 114.417C65.3308 116.961 67.3683 117.071 69.0672 116.961C70.6803 116.87 72.2664 116.507 73.7587 115.887C74.3375 115.653 74.9163 115.386 75.5299 115.1C76.6003 114.58 77.7023 114.128 78.8293 113.745C80.0579 113.393 81.3105 113.131 82.5772 112.961C83.1821 112.863 83.8073 112.761 84.4527 112.64C86.4786 112.258 88.7274 111.638 94.0035 108.33L94.0643 108.423C88.7679 111.743 86.5046 112.365 84.47 112.75C83.8246 112.871 83.1966 112.973 82.5917 113.068C81.3314 113.241 80.0855 113.506 78.864 113.861C77.7404 114.236 76.6422 114.682 75.5762 115.198ZM86.5423 116.877C86.5091 117.594 86.2452 118.281 85.7898 118.836C85.2293 119.44 84.5003 119.862 83.6973 120.046C82.968 120.194 82.3631 120.008 81.9926 119.574C81.6222 119.14 81.4803 118.457 81.735 117.635C82.0614 116.721 82.6046 115.9 83.3181 115.242C83.8335 114.731 84.509 114.413 85.2312 114.342C85.4672 114.313 85.7061 114.362 85.9118 114.481C86.1176 114.6 86.2789 114.783 86.3715 115.002C86.577 115.604 86.6355 116.247 86.5423 116.877V116.877ZM84.1198 122.474C81.654 124.474 79.8654 125.588 77.5211 126.581C74.9163 127.684 72.0221 128.416 66.3264 128.416V128.306C72.0019 128.306 74.8874 127.577 77.4777 126.48C79.8104 125.49 81.5932 124.382 84.0504 122.388C86.9706 120.02 90.3886 116.726 95.4853 111.39L95.5663 111.465C90.4668 116.808 87.043 120.101 84.1198 122.474V122.474ZM91.034 131.582L90.9443 131.519C96.2552 123.765 97.4476 120.231 96.7472 114.347H96.8572C97.5633 120.254 96.3651 123.803 91.034 131.582V131.582ZM94.1858 103.48C90.9212 103.546 88.0212 103.581 85.4598 103.581C80.6671 103.581 77.0349 103.462 74.3114 103.222C71.7871 103.006 69.286 102.573 66.8358 101.928C66.419 101.824 65.9993 101.723 65.5565 101.619C65.0385 101.497 64.4915 101.376 63.9213 101.248C61.1023 100.658 58.3185 99.91 55.5832 99.0082L55.6179 98.904C58.3466 99.8005 61.1236 100.543 63.9358 101.127L65.571 101.5L66.8502 101.807C69.2956 102.451 71.7919 102.884 74.3114 103.101C78.4791 103.468 84.7826 103.552 94.1192 103.358L88.9994 93.1446C86.7537 93.079 84.5508 92.5135 82.5512 91.4891C81.832 91.1105 81.1362 90.6891 80.4674 90.2272C79.7677 89.724 79.0145 89.2999 78.2215 88.9625C76.9162 88.4589 75.226 88.2881 73.4374 88.0942L72.6473 88.0132C70.2575 87.7725 67.8846 87.3859 65.5421 86.8555C62.7115 86.213 59.3659 85.2145 55.5108 81.4984L55.5861 81.4173C59.4237 85.1132 62.7492 86.1088 65.5652 86.7484C67.9039 87.2789 70.2729 87.6655 72.6589 87.9061L73.449 87.9871C75.2463 88.1724 76.9423 88.346 78.2591 88.8554C79.0599 89.1965 79.8208 89.6245 80.5281 90.1317C81.1959 90.5963 81.8908 91.0205 82.6091 91.4023C84.5768 92.411 86.7432 92.9723 88.9531 93.0462L79.136 73.493C76.7628 72.7058 74.9829 72.2514 73.7181 72.1096C73.3289 72.0671 72.9375 72.0478 72.546 72.0517C72.1459 72.0708 71.7453 72.0259 71.3594 71.9186C70.8211 71.7594 69.7097 71.2819 68.2944 69.8724C68.17 69.7509 68.0455 69.6235 67.9153 69.4875C66.7866 68.3298 65.079 66.5528 58.8507 63.3749L58.9028 63.2765C65.1456 66.4602 66.8589 68.2343 67.9963 69.4093C68.1266 69.5454 68.2481 69.6727 68.3726 69.7943C69.3942 70.8101 70.494 71.5481 71.3912 71.8202C71.7678 71.9243 72.1585 71.9683 72.5489 71.9504C72.9452 71.9465 73.3414 71.9658 73.7355 72.0083C74.9858 72.1472 76.7426 72.5872 79.0695 73.3628L67.2467 49.7809C73.7673 60.4894 76.8496 67.0361 80.3198 73.7854L80.3748 73.8056L80.3574 73.8577C80.5503 74.2436 80.7491 74.6295 80.9536 75.0154C83.3905 79.7011 86.1226 84.6154 90.0471 93.0491H90.0703V93.1041C91.4392 96.0504 92.9645 99.4279 94.6518 103.37H94.6749V103.425C95.5779 105.52 96.5301 107.766 97.5402 110.209L94.1858 103.48ZM76.3171 92.8812C76.5371 92.505 77.0899 92.2792 77.6426 92.1837C78.2269 92.0866 78.8264 92.1476 79.3792 92.3603C80.0727 92.6366 80.7305 92.9951 81.3385 93.4282C81.8641 93.7464 82.3104 94.1798 82.6438 94.6959C82.7824 94.921 82.8641 95.1764 82.8817 95.4402C82.8994 95.7039 82.8525 95.968 82.7451 96.2095C82.5989 96.4904 82.3788 96.7259 82.1084 96.8907C81.838 97.0555 81.5278 97.1432 81.2112 97.1444C80.4703 97.1617 79.5412 96.7739 78.6961 96.2327C77.9081 95.7462 77.2124 95.124 76.6413 94.3949C76.1984 93.7842 76.0856 93.2575 76.3055 92.8812H76.3171ZM98.3679 95.5468C98.5589 94.6959 98.886 93.9492 99.6124 93.434C100.464 92.8909 101.463 92.6231 102.472 92.667C103.362 92.6821 104.221 92.9949 104.912 93.5556C105.15 93.7573 105.344 94.0057 105.482 94.2855C105.621 94.5652 105.7 94.8704 105.716 95.1821C105.724 95.4414 105.677 95.6995 105.58 95.9401C105.483 96.1806 105.337 96.3985 105.152 96.58C104.658 97.057 104.134 97.5017 103.583 97.9113C103.004 98.3889 102.426 98.9243 101.89 99.4424C101.355 99.9604 100.857 100.455 100.426 100.629C99.9944 100.803 99.6327 100.646 99.2477 100.206C98.7687 99.6258 98.4406 98.9358 98.2927 98.1979C98.1316 97.3192 98.1533 96.4167 98.3563 95.5468H98.3679ZM98.4316 104.519C102.445 102.516 106.295 100.202 109.948 97.5988C112.164 96.0359 113.244 95.211 114.289 93.8797C115.334 92.5484 116.329 90.7511 121.165 82.0743L121.261 82.1264C116.422 90.809 115.415 92.6179 114.376 93.9463C113.337 95.2747 112.243 96.1198 110.017 97.6914C106.36 100.297 102.505 102.612 98.4866 104.617L98.4316 104.519ZM110.448 106.012C109.941 106.444 109.322 106.725 108.663 106.823C108.096 106.974 107.496 106.93 106.958 106.698C106.7 106.552 106.474 106.356 106.293 106.122C106.112 105.887 105.98 105.619 105.904 105.332C105.82 105.04 105.813 104.732 105.883 104.437C105.954 104.141 106.1 103.87 106.307 103.648C106.847 103.128 107.53 102.781 108.269 102.652C108.886 102.556 109.517 102.665 110.066 102.962C110.645 103.231 111.273 103.619 111.36 104.195C111.447 104.771 110.972 105.543 110.437 106.027L110.448 106.012ZM116.396 117.181C112.196 117.181 110.286 116.964 108.538 116.35C107.268 115.902 106.049 115.239 104.032 114.136C102.828 113.479 101.332 112.663 99.3519 111.633L99.3953 111.546C101.375 112.576 102.868 113.395 104.078 114.052C106.09 115.149 107.302 115.812 108.567 116.258C110.564 116.958 112.775 117.126 118.433 117.068V117.178C117.692 117.192 117.012 117.195 116.384 117.195L116.396 117.181ZM112.419 108.559C109.829 108.927 105.875 109.161 99.595 109.314V109.204C105.87 109.048 109.82 108.817 112.405 108.449C115.325 108.032 116.746 107.378 118.786 106.07C120.948 104.692 123.938 102.487 125.851 100.432L125.932 100.507C124.013 102.571 121.012 104.782 118.844 106.163C116.76 107.494 115.345 108.139 112.419 108.559Z" fill="#304F25"/>
<path d="M174.644 28.3571C174.048 27.5641 173.414 26.7422 172.514 26.3312C171.614 25.9202 170.366 26.0736 169.877 26.9361C169.719 27.2621 169.621 27.6141 169.588 27.9751L168.312 36.0499C168.135 37.1728 167.959 38.3103 168.086 39.439C168.462 42.7789 171.573 45.3634 174.887 45.922C178.201 46.4806 181.602 45.3576 184.51 43.6703C186.134 42.7297 187.847 41.1495 187.439 39.329C187.272 38.6966 186.867 38.1532 186.309 37.8123C185.751 37.4714 185.083 37.3595 184.444 37.4999C185.957 38.0787 187.87 37.0166 188.166 35.4219C188.461 33.8272 187.054 32.1456 185.434 32.1514" fill="#F7D1E4"/>
<path d="M176.615 46.2092C176.021 46.211 175.429 46.1626 174.844 46.0645C170.708 45.3699 168.23 42.2124 167.921 39.4571C167.79 38.2994 167.973 37.1417 168.149 36.0304L169.426 27.9556C169.464 27.5761 169.569 27.2065 169.738 26.8645C170.285 25.9036 171.631 25.7705 172.563 26.1988C173.495 26.6271 174.172 27.5041 174.748 28.2681L174.519 28.4447C173.961 27.7067 173.33 26.8703 172.441 26.4622C171.622 26.0859 170.441 26.2162 169.99 27.0063C169.835 27.3171 169.737 27.6534 169.701 27.999L168.424 36.0738C168.251 37.1707 168.071 38.3052 168.196 39.4252C168.485 42.0734 170.887 45.1065 174.878 45.778C178.516 46.3916 182.065 44.9097 184.406 43.5466C185.416 42.9677 187.72 41.3788 187.268 39.35C187.195 39.0536 187.063 38.7749 186.88 38.5304C186.697 38.2859 186.467 38.0804 186.203 37.9261C186.09 37.8577 185.972 37.7977 185.85 37.7466C185.352 37.8452 184.836 37.8031 184.36 37.6251L183.943 37.463L184.377 37.3501C184.874 37.2259 185.397 37.2592 185.873 37.4456C186.149 37.3821 186.414 37.2797 186.661 37.1417C187.152 36.8565 187.536 36.4187 187.755 35.8948C187.974 35.371 188.016 34.7899 187.875 34.24C187.733 33.6901 187.416 33.2015 186.971 32.8486C186.526 32.4958 185.978 32.2979 185.41 32.2853V32.2853V31.9959C186.056 31.9819 186.687 32.1865 187.201 32.5765C187.716 32.9665 188.083 33.5189 188.244 34.1441C188.405 34.7693 188.35 35.4305 188.088 36.0204C187.825 36.6103 187.371 37.0942 186.799 37.3935C186.632 37.4897 186.456 37.5692 186.273 37.6309L186.354 37.6801C186.65 37.8541 186.909 38.0859 187.114 38.3619C187.32 38.6378 187.468 38.9522 187.549 39.2863C188.044 41.5033 185.616 43.179 184.551 43.7984C182.562 44.956 179.688 46.2092 176.615 46.2092Z" fill="#EB5EA0"/>
<path d="M183.885 33.4399C185.5 32.5716 185.911 30.0768 184.666 28.731C184.269 28.3362 183.808 28.0113 183.303 27.7702C181.699 26.9341 179.939 26.4413 178.134 26.3231C177.214 26.2652 176.236 26.3231 175.451 26.8064C174.667 27.2897 174.149 28.3201 174.511 29.1709" fill="#F7D1E4"/>
<path d="M183.951 33.5677L183.815 33.313C184.182 33.0871 184.496 32.7853 184.736 32.4278C184.977 32.0704 185.137 31.6656 185.208 31.2407C185.278 30.8158 185.257 30.3808 185.145 29.9649C185.033 29.5491 184.833 29.162 184.559 28.8298C184.174 28.4466 183.727 28.1315 183.237 27.8979C181.649 27.0771 179.909 26.5942 178.125 26.4798C177.405 26.4334 176.348 26.4334 175.521 26.9428C174.832 27.3683 174.296 28.3234 174.652 29.1279L174.386 29.2408C173.981 28.2828 174.574 27.1946 175.382 26.6968C176.276 26.144 177.39 26.144 178.154 26.1903C179.972 26.3092 181.745 26.8019 183.364 27.6374C183.884 27.8869 184.357 28.2226 184.765 28.6301C185.066 28.9946 185.286 29.4195 185.409 29.8761C185.532 30.3328 185.555 30.8105 185.477 31.277C185.4 31.7435 185.223 32.1879 184.959 32.5801C184.694 32.9723 184.349 33.3031 183.946 33.5503L183.951 33.5677Z" fill="#EB5EA0"/>
<path d="M180.389 33.5065C180.457 33.8192 180.457 34.143 180.389 34.4558C180.351 34.6109 180.265 34.7503 180.143 34.8541C180.022 34.9579 179.871 35.0211 179.712 35.0346C179.441 34.994 179.195 34.8549 179.02 34.6439C178.518 34.1596 178.036 33.6608 177.573 33.1476C177.323 32.9185 177.144 32.622 177.058 32.2938C176.954 31.6658 177.567 31.0956 178.201 31.0146C178.835 30.9335 179.457 31.194 180.036 31.4661C180.917 31.8285 181.722 32.3527 182.409 33.0115C182.857 33.4941 183.187 34.0733 183.375 34.7042C183.563 35.3351 183.603 36.0008 183.492 36.6495C183.485 36.8173 183.42 36.9775 183.308 37.1026C183.196 37.2278 183.044 37.3101 182.878 37.3355C181.931 37.6401 180.923 37.7004 179.947 37.5109C178.971 37.3213 178.058 36.888 177.294 36.2512C176.53 35.6144 175.94 34.7949 175.578 33.8687C175.216 32.9425 175.094 31.9398 175.223 30.9538C175.237 30.7635 175.297 30.5796 175.399 30.4184C175.513 30.3043 175.648 30.2144 175.798 30.1542C175.947 30.0941 176.107 30.0648 176.268 30.0682C177.939 29.8758 179.631 30.1776 181.133 30.9364C182.603 31.7294 183.778 33.1534 184.027 34.8031C184.117 35.2574 184.11 35.7257 184.007 36.1772C183.903 36.6286 183.705 37.053 183.425 37.4223C183.283 40.4757 180.273 43.0804 177.978 44.5507C177.608 44.788 177.304 45.1295 176.919 45.3263C176.137 45.7431 175.182 45.5694 174.314 45.3842C173.894 45.315 173.487 45.1853 173.104 44.9993C172.306 44.5157 171.577 43.9245 170.939 43.2425C170.361 42.5797 170.462 41.6854 170.52 40.7911C170.763 37.101 171.55 32.2764 175.466 30.6904" fill="#F7D1E4"/>
<path d="M175.817 45.723C175.314 45.7075 174.814 45.6396 174.326 45.5204C173.892 45.4496 173.471 45.315 173.076 45.121C172.248 44.6321 171.492 44.0323 170.827 43.3382C170.248 42.6552 170.312 41.758 170.37 40.8926V40.7827C170.601 37.2575 171.351 32.4156 175.131 30.6762C175.16 30.5523 175.213 30.4353 175.287 30.3317C175.413 30.1986 175.566 30.0936 175.736 30.0233C175.905 29.953 176.087 29.919 176.271 29.9237C177.969 29.723 179.689 30.0249 181.217 30.7919C181.984 31.1853 182.651 31.7485 183.167 32.4386C183.683 33.1288 184.035 33.9276 184.195 34.7743C184.288 35.2413 184.282 35.7224 184.178 36.1869C184.073 36.6514 183.873 37.089 183.59 37.4717C183.396 40.9042 179.677 43.645 178.091 44.6667C177.937 44.7704 177.788 44.8825 177.646 45.0024C177.453 45.1719 177.244 45.3212 177.021 45.4481C176.649 45.6401 176.235 45.7347 175.817 45.723V45.723ZM175.079 31.0263C171.606 32.7629 170.888 37.408 170.665 40.8029V40.9129C170.607 41.758 170.555 42.5568 171.056 43.1501C171.696 43.818 172.424 44.3954 173.22 44.8664C173.591 45.0459 173.986 45.1706 174.393 45.2368C175.301 45.4307 176.175 45.5754 176.89 45.1934C177.096 45.0745 177.29 44.9359 177.469 44.7795C177.619 44.6515 177.777 44.5326 177.941 44.4235C179.507 43.4193 183.168 40.7306 183.321 37.4109V37.3617L183.353 37.3241C183.623 36.9724 183.814 36.5669 183.914 36.1351C184.014 35.7033 184.02 35.255 183.932 34.8206C183.689 33.2925 182.627 31.8859 181.096 31.0582C179.614 30.314 177.946 30.0222 176.3 30.2189C176.158 30.2137 176.016 30.2366 175.883 30.2863C175.75 30.3359 175.628 30.4114 175.524 30.5083C175.492 30.5517 175.467 30.5994 175.449 30.6501L175.521 30.8295L175.391 30.8845C175.385 30.9142 175.38 30.9441 175.377 30.9743C175.25 31.9352 175.369 32.9125 175.721 33.8155C176.073 34.7185 176.648 35.5178 177.391 36.1394C178.135 36.761 179.024 37.1846 179.975 37.371C180.926 37.5573 181.909 37.5004 182.832 37.2054C182.969 37.1725 183.096 37.1047 183.2 37.0086C183.282 36.898 183.332 36.7668 183.344 36.6295C183.452 36.0032 183.414 35.3604 183.234 34.751C183.053 34.1417 182.734 33.5822 182.302 33.116C181.625 32.4729 180.835 31.9598 179.973 31.6023C179.408 31.3389 178.815 31.0871 178.216 31.1624C177.877 31.2125 177.572 31.3933 177.365 31.666C177.297 31.752 177.247 31.851 177.218 31.957C177.189 32.0629 177.182 32.1737 177.197 32.2824C177.281 32.5825 177.448 32.8531 177.678 33.0639C178.141 33.5732 178.63 34.0739 179.125 34.5515C179.271 34.7318 179.476 34.8556 179.703 34.9017V34.9017C179.83 34.8848 179.948 34.8301 180.042 34.7449C180.137 34.6597 180.203 34.5479 180.233 34.4241C180.295 34.1312 180.295 33.8285 180.233 33.5356L180.522 33.4922C180.596 33.8258 180.596 34.1715 180.522 34.5052C180.476 34.6894 180.373 34.8545 180.229 34.9775C180.084 35.1004 179.904 35.1751 179.715 35.1911V35.1911C179.407 35.1525 179.126 34.9983 178.928 34.7599C178.424 34.2765 177.932 33.7729 177.463 33.2578C177.194 33.0088 177.002 32.6872 176.911 32.3316C176.888 32.1839 176.897 32.0333 176.935 31.8889C176.973 31.7446 177.041 31.6096 177.133 31.4923C177.388 31.1599 177.763 30.9406 178.178 30.8816C178.847 30.7977 179.495 31.064 180.097 31.3476C180.994 31.7188 181.813 32.2537 182.514 32.9249C182.976 33.4241 183.318 34.0232 183.512 34.6757C183.705 35.3282 183.746 36.0166 183.631 36.6874C183.61 36.8777 183.536 37.0583 183.417 37.2083C183.281 37.3492 183.108 37.4494 182.919 37.4978C181.957 37.8048 180.933 37.8658 179.942 37.6753C178.95 37.4848 178.022 37.0488 177.242 36.4072C176.462 35.7656 175.856 34.9388 175.478 34.0024C175.1 33.066 174.963 32.0497 175.079 31.0466V31.0263Z" fill="#EB5EA0"/>
<path d="M70.7425 82.1761C70.7147 82.1769 70.6873 82.1688 70.6644 82.1529L62.7343 76.926C58.5811 74.1881 53.8694 71.0827 48.5528 70.608C44.5009 70.2462 40.3536 71.4763 36.704 72.5789C36.6671 72.5899 36.6275 72.5861 36.5934 72.5682C36.5594 72.5504 36.5336 72.52 36.5217 72.4834C36.5159 72.4652 36.5139 72.446 36.5158 72.427C36.5177 72.408 36.5234 72.3895 36.5326 72.3727C36.5418 72.356 36.5543 72.3413 36.5693 72.3294C36.5843 72.3176 36.6016 72.309 36.6201 72.304C40.2957 71.2013 44.4633 69.9539 48.5788 70.3186C53.9765 70.8019 58.7085 73.9276 62.9051 76.6858L70.8322 81.9127C70.8574 81.9302 70.8763 81.9553 70.8862 81.9843C70.8962 82.0133 70.8967 82.0446 70.8877 82.0739C70.8787 82.1032 70.8606 82.1289 70.8361 82.1473C70.8116 82.1656 70.7818 82.1757 70.7512 82.1761H70.7425Z" fill="#655422"/>
<path d="M52.7263 71.0419C52.6925 71.0435 52.6594 71.0321 52.6337 71.0101C50.9811 69.6672 49.1086 68.1449 48.0956 66.0697C47.5581 64.8919 47.2188 63.6333 47.0913 62.3449C46.5877 58.4956 46.964 54.5856 47.3286 50.8029C47.3301 50.784 47.3353 50.7656 47.344 50.7487C47.3527 50.7318 47.3647 50.7169 47.3793 50.7047C47.3938 50.6926 47.4107 50.6835 47.4288 50.678C47.447 50.6725 47.4661 50.6707 47.4849 50.6727C47.5038 50.6741 47.5223 50.6793 47.5391 50.688C47.556 50.6967 47.5709 50.7087 47.5831 50.7233C47.5952 50.7378 47.6043 50.7547 47.6098 50.7729C47.6153 50.791 47.6172 50.8101 47.6152 50.8289C47.2534 54.5914 46.8771 58.4899 47.3778 62.3073C47.4995 63.5687 47.8301 64.801 48.3561 65.954C49.3401 67.9799 51.1866 69.4733 52.816 70.7988C52.8313 70.8104 52.844 70.8249 52.8533 70.8416C52.8626 70.8583 52.8684 70.8767 52.8704 70.8957C52.8723 70.9147 52.8702 70.9339 52.8644 70.9521C52.8585 70.9703 52.849 70.9871 52.8363 71.0014C52.822 71.0158 52.8048 71.0269 52.7858 71.0339C52.7668 71.0409 52.7465 71.0436 52.7263 71.0419V71.0419Z" fill="#655422"/>
<path d="M46.8572 44.7845C47.3723 44.1246 48.2377 43.4329 48.9468 43.8728C49.143 44.6122 49.2182 45.3784 49.1696 46.1418C49.1409 46.5231 49.0207 46.8919 48.8191 47.2168C48.6176 47.5418 48.3407 47.8134 48.012 48.0086C48.7067 48.2675 49.3599 48.6263 49.9511 49.0737C50.4373 49.4441 50.8859 50.1995 50.417 50.5902C50.2664 50.6963 50.0888 50.7575 49.9048 50.7668C48.6019 50.9542 47.2755 50.6599 46.1741 49.939C46.1057 50.7957 45.7506 51.6044 45.1662 52.2345C44.5818 52.8646 43.8021 53.2795 42.9529 53.4121C42.8149 52.7562 42.8307 52.0774 42.9989 51.4286C43.1671 50.7799 43.4832 50.1789 43.9225 49.6728C42.5912 49.0187 41.2656 47.9912 41.0109 46.5297C40.9902 46.4587 40.9846 46.3841 40.9946 46.3108C41.0045 46.2375 41.0298 46.1671 41.0688 46.1042C41.1552 46.0206 41.2654 45.966 41.3843 45.9479C42.0606 45.7475 42.7672 45.6691 43.471 45.7164C45.5635 45.9508 45.3522 46.7149 46.8572 44.7845Z" fill="#F8EBFB"/>
<path d="M42.8431 53.5636L42.8142 53.4362C42.6771 52.7887 42.6851 52.1188 42.8377 51.4748C42.9903 50.8307 43.2838 50.2285 43.6969 49.7114C42.519 49.1065 41.1414 48.0849 40.8693 46.5452C40.8448 46.4542 40.8401 46.3591 40.8556 46.2662C40.8711 46.1734 40.9064 46.0849 40.959 46.0068C41.0635 45.8962 41.2021 45.8239 41.3526 45.8013C42.0448 45.5956 42.7681 45.5152 43.4885 45.564C43.9113 45.6164 44.33 45.6976 44.7417 45.8071C45.5637 46.0184 45.6881 46.0502 46.7445 44.6958C47.3436 43.9288 48.2582 43.2747 49.0222 43.7523L49.0743 43.7841L49.0888 43.8449C49.2892 44.5993 49.3645 45.3814 49.3117 46.1602C49.2811 46.5146 49.1782 46.8589 49.0095 47.172C48.8408 47.4851 48.6097 47.7603 48.3305 47.9807C48.9382 48.2339 49.511 48.5636 50.0352 48.9618C50.2296 49.0999 50.394 49.276 50.5183 49.4795C50.6427 49.683 50.7245 49.9095 50.7588 50.1455C50.7627 50.2518 50.7421 50.3575 50.6984 50.4544C50.6547 50.5513 50.5892 50.6367 50.507 50.7041C50.3376 50.8278 50.1372 50.9019 49.9281 50.9183C48.6703 51.0965 47.3894 50.8413 46.2959 50.1947C46.1759 51.0368 45.7875 51.8176 45.1884 52.4214C44.5893 53.0251 43.8115 53.4196 42.9705 53.5462L42.8431 53.5636ZM43.0573 45.8303C42.5041 45.8481 41.955 45.9326 41.4221 46.0821C41.3332 46.0931 41.2495 46.1304 41.1819 46.1892C41.1329 46.2839 41.1235 46.3943 41.1558 46.496C41.4163 47.9865 42.8402 48.9734 43.9892 49.5349L44.16 49.6188L44.0327 49.7606C43.6236 50.2312 43.3249 50.7873 43.1587 51.3882C42.9924 51.9892 42.9627 52.6197 43.0718 53.2336C43.8555 53.0763 44.5673 52.6697 45.101 52.0745C45.6346 51.4794 45.9614 50.7275 46.0325 49.9314L46.047 49.6825L46.2554 49.8185C47.3278 50.5201 48.619 50.8071 49.8876 50.626C50.0434 50.6167 50.1936 50.5646 50.3217 50.4755C50.3707 50.4361 50.4096 50.3857 50.4353 50.3283C50.461 50.2709 50.4726 50.2083 50.4693 50.1455C50.4014 49.7576 50.1829 49.4123 49.8616 49.1847C49.2813 48.7451 48.6397 48.3931 47.9572 48.1399L47.6475 48.0241L47.9369 47.8736C48.246 47.6935 48.5073 47.4417 48.6987 47.1395C48.8901 46.8373 49.006 46.4935 49.0367 46.1371C49.0855 45.412 49.0161 44.6837 48.8312 43.9809C48.2321 43.6683 47.4681 44.2703 46.9847 44.8868C45.8531 46.3339 45.6158 46.3339 44.6694 46.0994C44.2716 45.9912 43.8662 45.9128 43.4567 45.865C43.3245 45.8448 43.1911 45.8332 43.0573 45.8303V45.8303Z" fill="#D8A8F3"/>
<path d="M37.714 68.7867C38.2263 68.1297 39.0917 67.4351 39.8007 67.8779C39.9969 68.6173 40.0722 69.3835 40.0236 70.1469C39.931 70.9023 39.5432 71.6693 38.8659 72.0137C39.5612 72.2712 40.2147 72.6301 40.805 73.0788C41.2913 73.4463 41.7399 74.2046 41.271 74.5953C41.1222 74.7016 40.9469 74.7647 40.7645 74.7777C39.4617 74.9651 38.1352 74.6708 37.0339 73.9499C36.9601 74.8022 36.6022 75.6051 36.0175 76.2296C35.4329 76.8542 34.6554 77.2642 33.8098 77.394C33.6707 76.7387 33.6859 76.06 33.8541 75.4115C34.0224 74.7631 34.3391 74.1626 34.7793 73.6576C33.448 73.0035 32.1254 71.9732 31.8678 70.5116C31.8471 70.4411 31.8415 70.367 31.8515 70.2941C31.8615 70.2213 31.8868 70.1514 31.9257 70.0891C32.012 70.0055 32.1223 69.9509 32.2411 69.9328C32.9172 69.7309 33.624 69.6525 34.3278 69.7012C36.4059 69.953 36.2062 70.72 37.714 68.7867Z" fill="#F8EBFB"/>
<path d="M33.697 77.5691L33.6681 77.4388C33.529 76.7928 33.5347 76.124 33.6848 75.4805C33.835 74.837 34.1258 74.2347 34.5363 73.7169C33.3613 73.112 31.9808 72.0875 31.7087 70.5507C31.6842 70.4593 31.6795 70.3637 31.695 70.2704C31.7104 70.177 31.7457 70.0881 31.7984 70.0095C31.9038 69.8999 32.042 69.8278 32.1921 69.804C32.8844 69.5992 33.6077 69.5198 34.328 69.5696C34.7512 69.6191 35.1701 69.7003 35.5811 69.8127C36.4031 70.0211 36.5304 70.0529 37.5839 68.7013C38.183 67.9315 39.0976 67.2803 39.8617 67.7549L39.9166 67.7897V67.8504C40.1171 68.6048 40.1924 69.387 40.1395 70.1658C40.1089 70.5201 40.0061 70.8644 39.8373 71.1775C39.6686 71.4906 39.4375 71.7658 39.1584 71.9862C39.7659 72.2384 40.3388 72.5671 40.863 72.9644C41.0574 73.1025 41.2218 73.2786 41.3462 73.4821C41.4705 73.6856 41.5523 73.9122 41.5866 74.1482C41.5916 74.2542 41.5717 74.36 41.5285 74.457C41.4852 74.554 41.4199 74.6395 41.3377 74.7067C41.168 74.8302 40.9679 74.9052 40.7589 74.9238C39.5109 75.1006 38.2398 74.8496 37.1527 74.2118C37.0334 75.054 36.6457 75.8351 36.0471 76.4394C35.4486 77.0437 34.6711 77.4388 33.8302 77.5662L33.697 77.5691ZM33.9112 69.8358C33.3581 69.8527 32.8091 69.9363 32.276 70.0847C32.1883 70.0972 32.106 70.1343 32.0387 70.1918C32.0132 70.2388 31.9975 70.2905 31.9926 70.3437C31.9876 70.3969 31.9934 70.4506 32.0097 70.5015C32.2731 71.992 33.6941 72.976 34.8431 73.5404L35.0139 73.6243L34.8865 73.7661C34.4778 74.2369 34.1794 74.793 34.0132 75.3939C33.8469 75.9948 33.817 76.6252 33.9257 77.2391C34.707 77.0801 35.4164 76.6736 35.9487 76.0799C36.4809 75.4861 36.8077 74.7367 36.8806 73.9427V73.6909L37.0919 73.8298C38.1631 74.5317 39.4535 74.8188 40.7212 74.6373C40.8768 74.627 41.0268 74.575 41.1554 74.4868C41.2042 74.4473 41.243 74.3968 41.2686 74.3395C41.2943 74.2821 41.306 74.2196 41.303 74.1568C41.2701 73.9645 41.1994 73.7806 41.0951 73.6157C40.9908 73.4508 40.8549 73.3081 40.6952 73.196C40.1152 72.7559 39.4735 72.4039 38.7908 72.1512L38.4811 72.0354L38.7705 71.8849C39.0788 71.7013 39.3382 71.446 39.5267 71.1406C39.7151 70.8353 39.8271 70.4889 39.853 70.131C39.9016 69.405 39.8322 68.6758 39.6475 67.972C39.0484 67.6594 38.2843 68.2614 37.801 68.8779C36.6694 70.325 36.432 70.3249 35.4856 70.0934C35.0876 69.9854 34.6824 69.9061 34.273 69.8561C34.1528 69.8434 34.0321 69.8367 33.9112 69.8358Z" fill="#D8A8F3"/>
<defs>
<linearGradient id="paint0_linear_10681_64014" x1="24.1477" y1="10.2168" x2="302.304" y2="168.022" gradientUnits="userSpaceOnUse">
<stop stop-color="#E063FF"/>
<stop offset="1" stop-color="#F9B666"/>
</linearGradient>
</defs>
</svg>
