<svg xmlns="http://www.w3.org/2000/svg" viewBox="0 0 1152.8 1151.55"><defs><style>.cls-1{fill:#f6c651;}.cls-2{fill:none;}.cls-3{fill:#7f7e35;}.cls-4{fill:#304f25;}.cls-5{fill:#fff;}</style></defs><g id="Layer_2" data-name="Layer 2"><g id="background"><path class="cls-1" d="M1138.27,734.26c24-183,3.92-387.15-123.13-521.06-77.65-81.85-139.09-139-243.39-181.95C719.26,9.62,618.84-.47,562.07,0,529.5.3,435.15,19.84,404.32,30.34c-128.2,43.65-192,101.41-280.47,204C72.37,293.94,43.94,380.63,20.41,455.84-2.82,530.09-2.16,609.58,2.8,687.22c7.55,118.38,31.39,248.62,125,321.42,40.37,31.38,89.73,48.5,138.2,64.76,132.2,44.36,269.58,86.86,408.47,74.48C898.94,1127.88,1108.61,960.42,1138.27,734.26Z"/><path d="M594.44,985.71c-60.07,0-160.5-5.72-206-18.94-28.34-8.24-53.51-16.11-74.68-29-25.48-15.49-39.54-35.37-43-60.79-1.79-13.12,1.33-24.27,9.25-33.15,9-10.05,23.76-17,44-20.55a154.39,154.39,0,0,1,27.44-2.4c4.49-.16,191.54-6.83,247-6.83,57.23,0,214.41,3.07,240.67,3.89,52,1.63,72.3,15.08,72.24,48-.05,29.09-16.51,53.86-48.94,73.63-20.26,12.36-45.87,22.37-78.28,30.6C747.94,979.34,660,985.38,599.18,985.7Zm-243.81-160c-6.26,0-48.63.78-67,21.34-6.93,7.77-9.64,17.61-8.05,29.25h0c7.45,54.72,66.65,71.94,114.22,85.77,27.82,8.09,111.15,19.24,209.33,18.74,60.49-.32,147.94-6.3,183.75-15.4,31.93-8.11,57.11-17.94,77-30,30.88-18.83,46.57-42.21,46.61-69.49.07-34.13-25.79-41.8-67.53-43.11-26.24-.82-183.32-3.88-240.52-3.88-55.74,0-245,6.76-246.88,6.83h-.91Z"/><path d="M296.57,836.82a148.25,148.25,0,0,1-45.63-12.24c-29.93-13.89-44.79-36.5-43-65.4,3-47.65,39.37-60.89,56.84-67.25,20-7.3,67-15.09,125.71-20.86,64.23-6.32,132.14-9.33,191.24-8.51,27.89.4,57.94.46,87,.51,99.2.2,201.79.4,243,13.93,21.16,6.94,35.44,15.83,44.93,28s14.51,28,15.89,49.81c1.65,26.18-12.27,47.91-40.25,62.84a150.39,150.39,0,0,1-42.63,14.64l-.76-4.79A148.84,148.84,0,0,0,930.2,813.3c26.48-14.16,39.12-33.74,37.58-58.19-2.56-40.67-18.14-60.59-57.49-73.5-40.52-13.29-142.7-13.49-241.53-13.68-29.07,0-59.14-.11-87.06-.51-125.5-1.78-275,14.44-315.14,29.05-17.84,6.49-50.91,18.54-53.73,63-1.71,27.07,11.76,47.47,40,60.63,21.48,10,43.84,11.83,44.06,11.85Z"/><path d="M257.39,698.47a113.4,113.4,0,0,1-37.58-20.14c-17-13.73-37.08-38.67-35.85-79.52.59-19.74,8.92-39.11,23.45-54.54,16-17,39.28-29.18,67.23-35.13,43.67-9.28,271.42-12.76,314.61-12.76,40.72,0,271.53,1.47,313.67,8,15.18,2.35,36.9,8.12,54.18,22.36,18.28,15.06,27.55,36.08,27.55,62.48,0,35.48-13.22,60.94-24.31,76.06-12,16.41-24,24.33-24.47,24.66l-2.66-4.07c.2-.13,11.85-7.93,23.34-23.64,10.6-14.5,23.24-38.94,23.24-73,0-25.42-10.08-69.62-77.61-80-41.74-6.44-278.63-7.92-312.93-7.92-43.11,0-270.3,3.45-313.6,12.66-27,5.73-49.35,17.39-64.71,33.7-13.71,14.57-21.57,32.81-22.13,51.35-.93,31.14,10.47,56.53,33.91,75.49a110.74,110.74,0,0,0,35.94,19.34Zm677.15-10.6-1.33-2h0Z"/><path d="M260.5,517.47a57.44,57.44,0,0,1-20.42-14.6c-8.88-9.73-18.81-27.19-15.68-55.16,6.68-59.69,51.77-70.15,88-78.55,3-.69,5.89-1.37,8.73-2.06C361.76,357.23,510,343,584.33,343.9c148.8,1.67,240.26,7.41,271.83,17.05,24.24,7.4,43.88,14,57.66,26,15.08,13.11,21.35,31.51,19.72,57.9-2.59,42-28.38,62.94-29.48,63.82l-3-3.81,1.51,1.91-1.52-1.9c.26-.2,25.21-20.6,27.66-60.32,3.26-52.64-26-64.29-74-78.94-31.13-9.51-122.12-15.18-270.47-16.84-74-.84-221.6,13.25-262,23.06-2.86.7-5.8,1.38-8.78,2.07-36.55,8.48-78,18.08-84.27,74.37-2.34,20.9,2.46,38.11,14.29,51.16a53.51,53.51,0,0,0,18.66,13.49Z"/><path d="M320.22,371.39c-.87-.67-21.2-16.82-6.05-53.82,8.53-20.84,46.54-52.87,92.43-77.89,33.54-18.29,101.25-49,177.79-49.36h1.23c72.92,0,138.28,28.58,170.86,45.68,44.59,23.41,81.24,52.86,89.11,71.61,14.11,33.58-1.09,53.6-1.74,54.43L840,359c.57-.75,14-18.74,1.1-49.55-6.32-15-38.19-43.63-86.9-69.2-32.36-17-97.47-45.48-169.81-45.12-129.48.58-251.19,88.68-265.75,124.24-13.67,33.4,3.78,47.54,4.53,48.13Z"/><path d="M359.5,677.22s.74-57.73.37-64.73,11.21-34.1,45.74-35.87c33.86-1.75,45.49,21.55,46,29.74l3.61,61.3Z"/><rect class="cls-2" x="1.25" y="1.49" width="1150.06" height="1150.06"/></g><g id="drawing"><path class="cls-1" d="M996.48,770a33.29,33.29,0,0,0,.14,29.5,15.46,15.46,0,0,0,2.44,3.64,18.16,18.16,0,0,0,3.11,2.47c25.4,17.11,56.51,23.23,86.89,27.15,7,.9,14,1.7,21,.84s14-3.56,18.74-8.71c4.14-4.46,6.33-10.36,8.25-16.14a25,25,0,0,0,1.67-7.74c0-5.18-3-9.87-6.54-13.7-14.36-15.77-36.3-21.72-57-26.79-7.12-1.75-14.26-3.47-21.5-4.64a142.58,142.58,0,0,0-35.8-1.27C1008.15,755.45,1000.93,761,996.48,770Z"/><path d="M1017.31,769.53a3.52,3.52,0,1,0,2.6,4.25A3.52,3.52,0,0,0,1017.31,769.53Z"/><path d="M1152,807.27A30.24,30.24,0,0,1,1138.46,797c-4.31-19.12-27.75-28.48-54.18-35.47l.15-.06c18.26-8.43,34.65-42.21,37.92-61.76,1.17-7,1.09-12.45-.23-16.72-1.78-5.75-6-9.26-11.14-9.18h-.07c-6.53.14-13.09,6-17.05,11.34-4.35,5.93-7.21,12.83-9.75,19.39-1.22,3.14-4.28,11.26-7,20.47.92-15.45-1.39-32.22-5.18-42.87-2.37-6.66-5.09-11.4-8.32-14.49-4.37-4.18-9.83-5.16-14.27-2.57-5.63,3.29-8.54,11.56-9.38,18.19-.92,7.3-.06,14.72.9,21.69,1,7.16,5.72,38.48,14.23,50-29-5.17-57.5-4.5-63.6,20.92-3.55,14.76,1.4,26.17,15.12,34.88,11.53,7.32,28.32,12.28,50,17.49,19.57,4.7,34.71,7.65,47.26,7.47,1.78,0,3.5-.12,5.19-.27,14.53-1.35,23.74-7.9,28-20a25.94,25.94,0,0,1,4.86-2.64c3.41-1.45,7-2.45,10.33-4.13.23-.12.48-.26.53-.51C1152.88,807.7,1152.4,807.42,1152,807.27Zm-44.36-3.43c-2,8.21-9.87,21.81-16.12,27.21-3.24-.37-6.58-.86-10-1.45,3.31-5.3,10.86-22.39,12.45-29,2.46-10.19,3.78-23.64.91-32,4.17,1.33,8.08,2.71,11.68,4.17C1110.94,777.82,1109.89,794.51,1107.65,803.84Zm-20-98c2.46-6.32,5.19-13,9.27-18.51,4.3-5.85,9.81-9.69,14-9.78h0c3.38-.05,6.15,2.37,7.42,6.48,1.14,3.69,1.18,8.58.12,14.95-3.06,18.3-18.88,51.12-35.74,58.91-2.59,1.2-4.4,1.33-5.39.4C1072.62,753.8,1079.12,727.93,1087.68,705.89Zm-43.93-22.17c.91-7.21,3.86-13.24,7.51-15.37,2.94-1.72,6.55-1,9.67,2,2.79,2.67,5.2,6.93,7.37,13,6.22,17.48,8.35,53.85-2.6,68.86-1.68,2.29-3.2,3.29-4.51,3-6.42-1.62-13.32-27.39-16.55-50.82C1043.71,697.68,1042.88,690.55,1043.75,683.72Zm25,70.79a31.89,31.89,0,0,0,3.38-6c-.3,4.14,0,7.7,1,10.22-2.25-.53-4.52-1.06-6.8-1.57A15.51,15.51,0,0,0,1068.8,754.51Zm-73.6,22.17c2.82-11.76,11.24-18.33,25.72-20.09a71.79,71.79,0,0,1,7.46-.48c8.34-.12,18.33,1,30.45,3.37,3.33,6.48,1.94,23.12-.37,32.71-2,8.34-9.23,21.86-15.37,28.59-14.44-3.9-26-8-34.44-13.35C996.31,799.61,992,789.84,995.2,776.68ZM1055.64,824c3.37-5.53,11-23,12.61-29.75,2.49-10.33,3.9-23.93,1.21-32.47l2.9.68q6.9,1.66,13.17,3.39a6.16,6.16,0,0,1-1.86-.37c4.29,5.25,3,23.08.58,33.06-2,8.41-9.58,22.18-15.8,28.45-3.72-.83-7.4-1.69-11-2.55Zm53,7.55c-1,.09-2.08.15-3.15.19,2.92-3.88,10.37-19.37,11.92-25.81,2.26-9.42,3-20.2.11-27.89,13.57,7.76,20,17.75,17.08,32.2C1131.44,823.42,1123.19,830.19,1108.66,831.54Z"/><path class="cls-1" d="M14.75,423.1a33.3,33.3,0,0,0,11.1,27.33,15.57,15.57,0,0,0,3.62,2.47,18.66,18.66,0,0,0,3.8,1.13c29.95,6.43,61.11.54,90.77-7.13,6.8-1.76,13.66-3.64,19.82-7s11.62-8.49,14.15-15.05c2.18-5.69,2-12,1.66-18.06a25.05,25.05,0,0,0-1.34-7.8c-1.91-4.82-6.5-8-11.17-10.29C128,379.37,105.39,382,84.27,385c-7.26,1-14.53,2.09-21.69,3.69a143.37,143.37,0,0,0-33.7,12.15C20.18,405.29,15.56,413.16,14.75,423.1Z"/><path d="M33.92,415a3.52,3.52,0,1,0,4,3A3.52,3.52,0,0,0,33.92,415Z"/><path d="M173,399.86a30.27,30.27,0,0,1-16.41-4.54c-11.12-16.14-36.36-16.1-63.49-12.75l.12-.12c13.8-14.61,16.45-52.07,12.21-71.44-1.51-6.9-3.62-11.95-6.43-15.42-3.79-4.68-9-6.35-13.76-4.38l-.07,0c-6,2.55-9.93,10.39-11.6,16.87-1.83,7.12-1.91,14.59-1.84,21.62,0,3.37.22,12,1.11,21.62-4.9-14.69-13.28-29.39-20.76-37.87-4.68-5.3-9-8.69-13.12-10.35-5.61-2.26-11-1.14-14.2,2.92-4,5.15-3.62,13.9-1.93,20.38,1.86,7.12,5.41,13.68,8.9,19.79,3.58,6.28,19.62,33.59,31.8,41.07-28.85,6-55,17.22-51.26,43.08,2.2,15,11,23.78,27,26.75,13.43,2.5,30.86.87,52.9-2.36,19.91-2.92,35.06-5.82,46.64-10.66q2.46-1,4.71-2.18c13-6.65,19.1-16.16,18.61-29a26.27,26.27,0,0,1,3.53-4.27c2.63-2.62,5.61-4.88,8.06-7.67a.91.91,0,0,0,.3-.68C174,399.93,173.41,399.85,173,399.86Zm-42.45,13.32c1.22,8.35-1,23.91-4.83,31.26q-4.74,1.29-9.79,2.35c1.11-6.15,1.76-24.83.77-31.56-1.51-10.37-5.29-23.35-11-30,4.37-.32,8.51-.49,12.39-.48C123.91,387.8,129.15,403.69,130.54,413.18Zm-55-83.49c-.07-6.78,0-14,1.72-20.63,1.81-7,5.49-12.64,9.39-14.29l0,0c3.12-1.3,6.59-.09,9.3,3.25,2.43,3,4.28,7.53,5.66,13.84,4,18.11,1.51,54.47-11.25,68-2,2.07-3.58,2.87-4.85,2.37C79.41,379.77,75.81,353.34,75.56,329.69Zm-49-4.23c-1.84-7-1.34-13.72,1.25-17.06,2.09-2.69,5.73-3.33,9.74-1.71,3.58,1.44,7.4,4.49,11.68,9.33C61.47,329.93,77,362.9,72.41,380.9c-.71,2.76-1.75,4.24-3.09,4.43-6.56.89-22.55-20.47-34.27-41C31.69,338.43,28.27,332.12,26.53,325.46Zm49.59,56.39A32.2,32.2,0,0,0,77,375c1.26,4,2.83,7.17,4.77,9.11-2.28.33-4.59.69-6.9,1.07A15,15,0,0,0,76.12,381.85Zm-60.06,48c-1.76-12,3.61-21.21,16.4-28.22a67.47,67.47,0,0,1,6.75-3.23c7.69-3.22,17.37-5.9,29.51-8.2,5.5,4.77,10.4,20.73,11.83,30.5,1.25,8.49-.43,23.73-3.63,32.26-14.85,1.74-27.11,2.25-36.93.42C25.62,450.68,18,443.2,16.06,429.82Zm73.7,21.41c1.07-6.39,1.65-25.42.64-32.3-1.54-10.52-5.29-23.66-11-30.59l3-.44q7-1,13.48-1.76a6.41,6.41,0,0,1-1.86.35c5.93,3.27,11.35,20.31,12.84,30.47,1.25,8.55-.65,24.15-4.09,32.28-3.76.62-7.5,1.19-11.14,1.72Zm52-12.72c-.92.47-1.88.92-2.86,1.35,1.27-4.69,2.42-21.83,1.46-28.38-1.4-9.6-4.73-19.88-10.27-25.94,15.48,2.16,25.19,9,27.83,23.53C159.91,422.5,154.77,431.86,141.79,438.51Z"/></g><g id="matitas"><path class="cls-3" d="M283.15,690.61c-30.9-2.65-46.85-.27-60.55.09s-25.16-1.29-39.29-2-30.95-.57-44.68,1.06C111.16,693,96,702.1,86.76,707.76A80.79,80.79,0,0,0,75,716c-4,3.38-8.68,8.17-16.9,15.79s-19.94,18-30.32,35.13S8.38,807.73,4.36,822.15s-3,19.49,1,28.13c13.71,6.12,37.66-5.82,59.12-17.12s40.41-22,59.74-32.14,39-19.86,53.34-28.87a127.61,127.61,0,0,0,32-27.86c8.81-10.49,17.5-23.12,28.72-33.51S263.25,692.25,283.15,690.61Z"/><path class="cls-4" d="M18.45,851.94c-5,.61-9.45.24-13.2-1.44l-.09,0,0-.08c-3.86-8.33-5.12-13.52-1-28.31s13.26-38.52,23.47-55.34c9.89-16.28,21-26.54,29.13-34L58,731.56c3.57-3.31,6.44-6,9-8.45,3.19-3,5.7-5.43,7.94-7.35a80.68,80.68,0,0,1,11.77-8.21c9-5.47,23.9-14.62,51.32-18l.64-.07a277.19,277.19,0,0,1,44.72-1.06c4.79.25,9.28.61,13.63,1a233.4,233.4,0,0,0,25.64,1.08c3.3-.09,6.79-.3,10.48-.52a311.37,311.37,0,0,1,50.1.43v.49c-17.23,1.41-31.44,7.8-44.72,20.1-7.89,7.3-14.47,15.66-20.84,23.73-2.7,3.42-5.25,6.65-7.85,9.76a128.77,128.77,0,0,1-32.09,27.9c-10.84,6.84-24.66,14-39.29,21.57-4.61,2.38-9.37,4.85-14.06,7.32-9.45,5-18.65,10-28.4,15.28-10,5.45-20.38,11.08-31.35,16.86C47.58,842.33,31.26,850.36,18.45,851.94ZM5.53,850.1c13.22,5.81,35.36-4.8,58.81-17.15,11-5.78,21.33-11.41,31.34-16.86,9.76-5.3,19-10.31,28.41-15.28,4.7-2.47,9.46-4.94,14.07-7.32,14.62-7.57,28.43-14.73,39.25-21.55a128.09,128.09,0,0,0,32-27.81c2.59-3.09,5.14-6.32,7.83-9.74,6.39-8.09,13-16.46,20.9-23.79,12.5-11.57,25.81-17.94,41.67-19.89l.66-.07a307.93,307.93,0,0,0-47.35-.21c-3.7.22-7.19.43-10.5.51a234.32,234.32,0,0,1-25.69-1.08c-4.34-.34-8.83-.7-13.62-1A277.21,277.21,0,0,0,138.66,690l-.64.08C110.7,693.4,95.81,702.51,86.89,708a81.15,81.15,0,0,0-11.71,8.16c-2.22,1.91-4.73,4.3-7.91,7.33-2.53,2.41-5.4,5.14-9,8.45l-1.24,1.15C49,740.53,37.87,750.77,28,767,17.83,783.77,8.73,807.38,4.59,822.21.51,836.86,1.66,841.75,5.53,850.1Z"/><path class="cls-5" d="M5.54,850.42l-.4-.27c15.3-22.35,29.59-39.75,46.33-56.45a280.56,280.56,0,0,1,51.64-41.06c19.5-12.31,49.41-29.08,108.12-49.66l.16.46c-58.66,20.56-88.54,37.31-108,49.61a279.72,279.72,0,0,0-51.56,41C35.09,810.72,20.82,828.1,5.54,850.42Z"/><path class="cls-3" d="M914.73,509c6.55-30.31,13.51-44.86,17.88-57.85s6.16-24.43,9.61-38.16a279.59,279.59,0,0,1,14.14-42.39c11.19-25.3,24.34-37.09,32.48-44.28a81.29,81.29,0,0,1,11.28-8.81c4.39-2.77,10.36-5.88,20-11.51s23.11-13.76,42.5-18.66,44.76-6.55,59.73-6.16,19.51,2.84,26.6,9.21c1.81,14.9-16.63,34.28-33.74,51.47S1082.39,374,1067,389.49,1036.53,421,1023.7,432a127.56,127.56,0,0,1-36,22.42c-12.61,5.34-27.24,9.93-40.47,17.6S922.15,490.43,914.73,509Z"/><path class="cls-4" d="M915,509.06l-.46-.14a310.48,310.48,0,0,1,14.32-48c1.29-3.46,2.52-6.73,3.57-9.86a234,234,0,0,0,6.5-24.82c1-4.26,1.93-8.66,3.1-13.32a277.82,277.82,0,0,1,14.16-42.43c11.33-25.63,24.61-37.35,32.54-44.36a80.86,80.86,0,0,1,11.31-8.83c2.48-1.57,5.5-3.27,9.33-5.42,3-1.71,6.5-3.65,10.73-6.1l1.46-.85c9.55-5.55,22.63-13.17,41.1-17.83,19.07-4.82,44.37-6.58,59.79-6.17s19.94,3.13,26.76,9.27l.07.06v.09c1.77,14.57-15,32.76-33.81,51.67-8.74,8.79-17.17,17-25.31,25-7.94,7.77-15.44,15.1-23,22.67-3.74,3.76-7.5,7.59-11.13,11.29-11.54,11.76-22.44,22.87-32.16,31.22a128.52,128.52,0,0,1-36.1,22.47c-3.73,1.57-7.57,3.06-11.63,4.63-9.59,3.72-19.51,7.56-28.82,13C931.66,481.3,921.37,493,915,509.06Zm127.13-214.4a196.86,196.86,0,0,0-20.33,10.67l-1.46.85c-4.23,2.46-7.68,4.4-10.74,6.11-3.82,2.14-6.83,3.84-9.31,5.4A80.41,80.41,0,0,0,989,326.48c-7.9,7-21.13,18.66-32.42,44.18A276.93,276.93,0,0,0,942.45,413c-1.16,4.65-2.14,9.05-3.09,13.31a233.1,233.1,0,0,1-6.52,24.86c-1.06,3.14-2.28,6.41-3.58,9.88a310.58,310.58,0,0,0-13.72,45.32c6.52-14.89,16.59-25.92,31.53-34.59,9.33-5.41,19.27-9.26,28.89-13,4-1.57,7.88-3.06,11.61-4.63a127.84,127.84,0,0,0,36-22.39c9.71-8.34,20.6-19.44,32.13-31.19,3.64-3.7,7.4-7.53,11.14-11.29,7.53-7.57,15-14.91,23-22.67,8.14-8,16.57-16.21,25.31-25,18.7-18.79,35.34-36.84,33.68-51.18-8.77-7.86-14.5-8.78-26.38-9.09-15.4-.4-40.63,1.35-59.66,6.16A130,130,0,0,0,1042.08,294.66Z"/><path class="cls-5" d="M948.08,444.14l-.39-.29c36.92-50.06,61.74-73.72,79.24-88.74a280.36,280.36,0,0,1,54.43-37.29c20.87-11.1,41.71-19.64,67.56-27.69l.15.46c-25.82,8.05-46.64,16.58-67.48,27.66a279.45,279.45,0,0,0-54.34,37.23C1009.77,370.48,985,394.12,948.08,444.14Z"/></g></g></svg>