<svg xmlns="http://www.w3.org/2000/svg" viewBox="0 0 1050.14 1050.14"><defs><style>.cls-1{fill:none;}.cls-2{fill:#655422;}.cls-3{fill:#fff;}.cls-4{fill:#f6ecfb;}.cls-5{fill:#b985d1;}.cls-6{fill:#7f7e35;}.cls-7{fill:#304f25;}.cls-8{fill:#353e18;}.cls-9{fill:#f7d1e4;}.cls-10{fill:#eb5ea0;}.cls-11{fill:#f8ebfb;}.cls-12{fill:#d8a8f3;}</style></defs><g id="Layer_2" data-name="Layer 2"><g id="background"><rect class="cls-1" width="1050.14" height="1050.14"/></g><g id="drawing"><path d="M519.18,581.49c-13.88-9.31-26.69-9.46-35.67-9.44s-14.13.23-18.81,1-8.9,2.1-14.18,3.41-11.61,2.6-22.37,5.87c5.26.35,10.72-.72,16.61-1.77a171.83,171.83,0,0,1,17.85-2.44,89.89,89.89,0,0,1,15.62.44,84.48,84.48,0,0,1,14.52,2.58,48.33,48.33,0,0,1,11.06,4.91c3.11,1.83,5.76,3.71,8.49,4.69a10.38,10.38,0,0,0,7.77,0c2.22-1,3.84-3.16-.8-9.22a.08.08,0,0,0,0,0A.1.1,0,0,1,519.18,581.49Z"/><path d="M576.21,595.47c7.34-1.19,17,.49,24.91,2.1a116.6,116.6,0,0,1,20.65,5.66c6.41,2.55,13,6.12,31.6,22.19-18-8.53-29.25-14-37.11-16.48s-12.34-2-17.37-2.2S588.31,605.78,576.21,595.47Z"/><path d="M529.25,468.17c-36.05-4.68-71.34,10-101.61,28.24-13.28,8-26.28,17.11-36.29,29.1a68,68,0,0,0-11.65,19.57c-3.13,8.36-4,17.44-7.72,25.59-6.94,15.12-21.49,25.13-35.1,33.77C322,613.86,306.34,622.27,293.1,634c-11.73,10.37-21.61,23.89-24.94,39.41a47.52,47.52,0,0,0,.57,22.49,82.39,82.39,0,0,0,8.09,18.63c6.77,12,15.48,23.32,19.84,36.56a41.23,41.23,0,0,1,1.91,19c-1.23,8.25-5.24,15.85-6.12,24.17a19.28,19.28,0,0,0,1.86,11.09c.65,1.25,5.27-.24,4.92-.91-3.85-7.46-1.25-15.71,1.11-23.19,2.2-7,4.1-13.91,3.36-21.32-1.33-13.31-9.05-25-15.89-36.13-7-11.41-14.47-23.48-15.67-37.16-1.4-16,6-31.23,16.06-43.16,10.92-12.94,25.48-22,39.77-30.78,14-8.55,28.81-16.92,39.91-29.21a52.27,52.27,0,0,0,11.71-21c2.31-8.13,3.78-16.34,7.63-23.95,6.9-13.63,18.45-24.2,30.75-32.93a237.58,237.58,0,0,1,44.62-24.92c16-6.77,33.06-11.52,50.52-11.56a100.37,100.37,0,0,1,12.86.83,5.83,5.83,0,0,0,3.48-.64c.76-.45.77-1-.2-1.08Z"/><path d="M549.65,476c28.56,2.24,57.19,7.13,83.91,17.76,23.4,9.31,45.2,23.21,62.15,42A126.36,126.36,0,0,1,718,570c.41,1,5.06-.37,5-.59-9.84-22.68-26.75-41.68-46.76-56-22.22-15.89-48.15-25.74-74.7-31.58A353.78,353.78,0,0,0,553.09,475a9.07,9.07,0,0,0-3.51.42c-.78.26-.86.56.07.63Z"/><path d="M537.61,478.92a100.85,100.85,0,0,0,38.3,28.15,110,110,0,0,0,23.18,6.61c8.12,1.45,16.35,2.41,24.36,4.41,7.67,1.92,15.08,5,21.15,10.18s10.49,11.51,14.75,18,8.46,13.28,13.62,19.24a103.34,103.34,0,0,0,17.71,16c13.05,9.45,27.67,16.45,42.33,23l5.54,2.47a3.37,3.37,0,0,0,3.36-.84c.68-.66,1.06-1.84,0-2.32-14.66-6.51-29.45-13.11-42.83-22a112.64,112.64,0,0,1-18.35-15,120.33,120.33,0,0,1-14.29-18.72c-4.23-6.51-8.43-13.14-13.8-18.79a49.45,49.45,0,0,0-19.73-12.57c-15.38-5.36-32-5.22-47.45-10.48a98.7,98.7,0,0,1-39.74-25.51q-2.07-2.19-4-4.5c-1.27-1.51-5.62.86-4.1,2.67Z"/><path d="M534.71,485.91c7.29,14.65,21.18,24.35,35.59,31.22,15.54,7.42,32.21,12,47.88,19.17a107.89,107.89,0,0,1,22.29,13.13c7,5.47,12.52,12.22,17.42,19.55,5.08,7.61,9.65,15.56,15.28,22.8a75.18,75.18,0,0,0,19.25,17.45c14.62,9.26,31.68,13.88,48.49,17.23q3.24.64,6.5,1.24a2.25,2.25,0,0,0,2.5-2.1c0-1.44-1.22-2.2-2.46-2.43-16.41-3-33.18-6.88-47.93-15a72,72,0,0,1-19.58-15.46c-5.87-6.68-10.41-14.38-15.19-21.83S654.75,556,648.14,550a96.92,96.92,0,0,0-21.4-14.52c-15.4-7.88-32-12.63-47.91-19.38-14-6-28.38-14-36.89-27A49,49,0,0,1,539,484c-1.3-2.61-5.75-.9-4.33,2Z"/><path d="M531.15,479.52c-32.88.52-64.62,13.58-91.36,32.15-12.42,8.62-24,18.86-32.45,31.53a98.73,98.73,0,0,0-9.92,20.31c-2.64,7-5.08,14.26-9,20.74-4.24,7-10.27,12-17.26,16.15-6.32,3.78-12.81,7.18-18.59,11.77a88.75,88.75,0,0,0-24.31,30.88A114.47,114.47,0,0,0,317.7,681.6a126.5,126.5,0,0,0-.34,20.69,177.12,177.12,0,0,0,3.49,23c1.72,8.63,3.4,17.43,2.7,26.26-.71,9.06-4.49,17.32-7.65,25.71a101.2,101.2,0,0,0-3,63c.19.7,3.09-.07,2.9-.78a101.35,101.35,0,0,1-.7-50.87c2.05-8.34,5.62-16.08,8.39-24.18a57.52,57.52,0,0,0,2.76-25.11c-.92-8.8-3.17-17.37-4.59-26.09a124.16,124.16,0,0,1-1.62-20,119.75,119.75,0,0,1,6.66-39.88,94.24,94.24,0,0,1,20.06-33.55,79.36,79.36,0,0,1,15.56-12.74c6.5-4.05,13.49-7.36,19.47-12.21,11.76-9.52,15.3-24.3,20.83-37.68,5.85-14.18,15.53-26,27.14-35.93a182.67,182.67,0,0,1,40.56-25.81c15-7.1,31.18-12.17,47.75-13.95,4-.43,7.92-.66,11.9-.72.83,0,3.14-1.28,1.23-1.25Z"/><path d="M522.06,492.11c-18.3,2.92-35.47,10-52.36,17.36-7.73,3.36-15.67,6.59-22.23,12A57.23,57.23,0,0,0,435.19,536c-14.28,23.41-16.1,53.57-37.06,72.92-12.2,11.25-27.76,18-40,29.24-5.65,5.18-10.74,11.3-13.74,18.42a36.09,36.09,0,0,0-2,21.84c3.46,16,15,28.78,21.17,43.69a62.75,62.75,0,0,1,5.13,25.41,45.8,45.8,0,0,1-7.62,24.14c-4.56,7-10.32,13.18-14.68,20.34a73.31,73.31,0,0,0-8.83,22.63c-3.49,16.12-2.42,32.93-.19,49.15.56,4.1,1.22,8.18,1.91,12.26.2,1.2,3.11.48,2.9-.77-2.79-16.42-5-33.2-3.39-49.86a83.67,83.67,0,0,1,5.47-23.47c3.15-7.76,7.87-14.39,12.95-21,4.95-6.43,9.81-13,12.3-20.81a51.54,51.54,0,0,0,1.2-24.43,76.6,76.6,0,0,0-8.33-22.82c-3.85-7.15-8.31-14-11.92-21.24-3.47-7-6.23-14.64-6-22.57s3.26-15,7.86-21.27c9.77-13.19,24.66-20.65,37.78-29.91,6.43-4.54,12.55-9.62,17.4-15.86a83.54,83.54,0,0,0,9.88-16.7c5.6-12.22,9.22-25.22,14.6-37.53,5.51-12.59,13.16-24,25.53-30.62,7.85-4.21,16.29-7.52,24.51-10.93a216.77,216.77,0,0,1,26.31-9.3A128.11,128.11,0,0,1,521.75,494c.55-.09,1.58-.39,1.62-1.09s-.75-.91-1.31-.82Z"/><path d="M526.49,505.45a170.48,170.48,0,0,0-42.41,14A168.58,168.58,0,0,0,465,530.29c-5.8,3.8-11.5,8-14.63,14.34-3,6.21-3.85,13.17-5.51,19.82a99.56,99.56,0,0,1-7.06,19.27c-6,12.43-14.34,23.64-23.56,33.89-4.68,5.2-9.61,10.18-14.67,15s-10.24,9.24-15.23,14-9.5,9.85-12.18,16.13c-2.83,6.64-3.24,13.94-2.25,21C372,698.9,380.2,712,385.33,726.16a62.24,62.24,0,0,1,4.12,22.62A81.3,81.3,0,0,1,385,772.23c-4.49,13.6-12.66,28-6.51,42.4,4.44,10.43,14.05,18.29,17.06,29.36a19.64,19.64,0,0,1,.52,8c-.18,1.24,2.75.76,2.9-.32,1.62-11.36-6.85-20.49-12.73-29.23-3.31-4.92-6.22-10.21-6.93-16.2-.91-7.64,1.57-15.24,4.18-22.31,2.72-7.38,5.6-14.64,7.24-22.35a63.64,63.64,0,0,0,1-22.93c-2.24-14.73-10.36-27.54-15.3-41.39-2.53-7.07-4.37-14.58-4.12-22.13a34.48,34.48,0,0,1,7.08-20c4.16-5.53,9.52-10,14.62-14.66s10-9.21,14.76-14c9.54-9.68,18.47-20.1,25.66-31.68A113.3,113.3,0,0,0,449.11,558c1.47-6.92,3.12-14.07,8.16-19.34s11.67-9,17.84-12.51a165.26,165.26,0,0,1,41.13-16.75c3.53-.91,7.1-1.7,10.68-2.38,1.8-.34,1.34-1.95-.43-1.61Z"/><path d="M389.36,649.28c-4.72,26,6.21,51.3,17.6,74,11,22,23.51,44.55,24.27,69.77.39,12.76-2.28,25.66-9.49,36.36-.41.6.36,1.06.86,1.13a2,2,0,0,0,1.89-.87c13.18-19.55,11.32-45.13,4-66.48-8.46-24.59-23.55-46.29-31.77-71-4.62-13.89-7.06-28.68-4.42-43.21.25-1.37-2.7-1-2.92.25Z"/><path d="M533.25,498.31c5.6,14.37,15.76,26.25,28,35.41,12.65,9.45,27.3,16.1,42.31,20.84,7.72,2.44,15.75,3.92,23.36,6.68a36.72,36.72,0,0,1,10.84,5.85,30.35,30.35,0,0,1,7.88,10.61c2,4.09,3.5,8.37,5.22,12.56s3.59,8.55,5.58,12.73a116.84,116.84,0,0,0,14.2,23.38c10.58,13.13,26.3,23.52,43.61,23.78a44.84,44.84,0,0,0,6.34-.35c.57-.07,1.54-.4,1.61-1.1s-.77-.9-1.31-.84c-17.17,2.19-33.79-7.09-44.94-19.59a103.86,103.86,0,0,1-15-22.75c-4.08-8.11-7.3-16.57-10.79-24.94A44.82,44.82,0,0,0,644,569.44a29.55,29.55,0,0,0-9.55-7.53c-7.26-3.72-15.35-5.2-23.13-7.38-15-4.17-29.56-10.14-42.55-18.71-12.63-8.34-23.76-19.39-30.39-33.13-.82-1.69-1.56-3.41-2.24-5.16-.47-1.2-3.35-.37-2.9.78Z"/><path d="M529.19,513.34a107.13,107.13,0,0,0,44.8,46,105.45,105.45,0,0,0,30.24,10.87c5.5,1.07,11.42,1.22,16.56,3.65s7.79,7.28,8.16,12.79-1,11.16-2,16.62a49.8,49.8,0,0,0-.55,16.2,45.34,45.34,0,0,0,5.6,16,43.88,43.88,0,0,0,4.72,6.69c1.83,2.14,4,3.93,5.95,5.92s3.77,4.64,3.18,7.7-2.87,5.46-5.35,7.12c-4.84,3.23-10.23,5-13.45,10.2-2.74,4.4-3.52,9.8-3.24,14.9.33,6,1.72,11.94,2.85,17.79,2.21,11.39,4.71,23,3.91,34.66a54.14,54.14,0,0,1-4.11,17.5A74.68,74.68,0,0,1,616,775c-4.06,5.18-8.45,10.08-12.73,15.08-3.84,4.48-7.43,9.16-11.58,13.38A114.72,114.72,0,0,1,563,824.52c-10.28,5.37-21.6,9.33-33.24,10.06-12,.76-23.91-2.64-34.39-8.37-22.53-12.35-37.13-34.16-49.78-55.79-6.85-11.71-13.61-23.48-20.11-35.4-6.61-12.15-13.14-24.53-18.19-37.42a75.61,75.61,0,0,1-4.9-18.24,94.39,94.39,0,0,1-.57-14.65A107.25,107.25,0,0,1,407.38,633a54,54,0,0,1,6-12.53c.61-.91-2.22-.54-2.65.11-5.67,8.41-8.48,18.59-10.16,28.48a107.62,107.62,0,0,0-1.06,31.08c1.65,13.34,7.82,25.77,13.71,37.68,6.26,12.68,13.19,25,20.21,37.3,12.85,22.44,25.5,46.52,45.91,63.13,9.24,7.52,20,13.46,31.71,16.18,11.24,2.61,22.74,1.78,33.79-1.34A110.7,110.7,0,0,0,577,817.74a119.74,119.74,0,0,0,13.74-11,132.61,132.61,0,0,0,11.83-12.91c8.38-10.11,18-19.59,24.34-31.2,5.81-10.65,7.46-22.54,6.43-34.52-1.06-12.18-4.25-24-6-36.13-.83-5.59-1-11.35,1.3-16.66a16.44,16.44,0,0,1,5.25-6.86c2.57-1.92,5.56-3.16,8.26-4.86,4.41-2.78,8.85-8.12,5.79-13.46-1.35-2.37-3.54-4.06-5.48-5.9a42.25,42.25,0,0,1-5.54-6.48,45.29,45.29,0,0,1-7.26-33.52c1.6-9.55,5.85-23-3.58-29.95-4.47-3.31-10.31-3.89-15.64-4.7a100.86,100.86,0,0,1-16.61-4,107.57,107.57,0,0,1-53-38.83,101.23,101.23,0,0,1-8.63-14.29c-.4-.82-3.2.16-2.9.78Z"/><path d="M644.93,622.79l14.47,24.4,7.24,12.2c2.26,3.81,4.61,7.58,6.66,11.51,3.77,7.27,6,15.3,2.58,23.16-2.93,6.78-8.62,12-13.77,17.07-5.33,5.29-10.63,11.46-12.36,19a16.83,16.83,0,0,0,.8,10.58c1.61,3.66,4.44,6.63,5.85,10.4a21.3,21.3,0,0,1-3.43,20.8c-3.93,4.75-10.16,8.51-12,14.71-2.07,7.11,3.65,12.63,7.9,17.47a34,34,0,0,1,8.72,21.12,32.07,32.07,0,0,1-.31,6c-.13.86,2.75.34,2.87-.45a33.63,33.63,0,0,0-4.56-22.38,65.49,65.49,0,0,0-6.76-8.39c-2.26-2.6-4.53-5.46-5.2-8.93-1.38-7,4.85-11.9,9.26-16.3a26.43,26.43,0,0,0,6-8.16,22.26,22.26,0,0,0,1.7-10.45,22.49,22.49,0,0,0-3.83-10.63c-2.16-3.35-4.25-6.56-4.55-10.65-.56-7.84,4.48-15.18,9.54-20.68s10.8-10.15,14.83-16.43a24.41,24.41,0,0,0,3.82-9.8,24.91,24.91,0,0,0-1.48-11.72,69.28,69.28,0,0,0-5.73-11.46L666,652.62,651.38,628l-3.55-6c-.48-.8-3.21.25-2.9.78Z"/><path d="M695.73,656.46c8,8.64,10.76,20.56,9.92,32.08a64.37,64.37,0,0,1-4,17.79c-2.19,5.88-5.41,11.13-8.51,16.56s-5.88,11.57-5.32,18.13c.45,5.19,2.62,10.05,5,14.62,4.46,8.56,11.88,18.42,9.34,28.64-1.72,6.92-7.71,11.2-11.28,17.05-2.88,4.72-4.23,12.17.72,16,.63.48,3.16-.66,2.73-1-4.61-3.6-3.45-10.48-.93-15,3-5.43,8.35-9.28,10.79-15.11,4.16-10-2.23-20-6.88-28.46-2.56-4.68-5.1-9.52-6.17-14.78-1.27-6.24.37-12.14,3.24-17.7,3-5.78,6.69-11.1,9.19-17.13a67.67,67.67,0,0,0,4.6-16.82c1.72-12.77-.75-26.25-9.71-35.93-.49-.53-3.18.5-2.73,1Z"/><path d="M727.46,660.32c3.27,9.19,6.61,18.57,7.41,28.36a51.86,51.86,0,0,1-1,14.44c-1,4.78-2.36,9.45-3.45,14.2a213.84,213.84,0,0,0-4.14,29.28,46,46,0,0,0,.57,14.43c1,4.45,3,8.57,4.7,12.8A45.64,45.64,0,0,1,732.5,805c-.55,1.61,2.35,1.65,2.78.37a46.92,46.92,0,0,0,.79-27.61c-1.29-4.55-3.42-8.77-5-13.21A37.28,37.28,0,0,1,729,750.21c.19-4.94.86-9.87,1.43-14.78s1.25-9.89,2.21-14.78c1.9-9.64,5.48-19,5.32-28.94-.18-11.14-3.91-21.79-7.6-32.17-.49-1.36-3.38-.56-2.9.78Z"/><path d="M555.41,694.62a39.33,39.33,0,0,1-16,17.61c-1.09.63-1.1-2-1.06-2.49.11-1.16.41-3.08,1.56-3.74a35.27,35.27,0,0,0,8.32-6.62,32,32,0,0,0,3.16-4c.5-.74,1-1.5,1.42-2.27.21-.37.41-.75.61-1.12.4-.74-.21.44.16-.31l.33-.69c.31-.66,1.26-2.14,1.84-.83a6.18,6.18,0,0,1-.37,4.41Z"/><path d="M501,691.28a39.24,39.24,0,0,0,15.58,17.94c1.08.65,1.15-2,1.11-2.46-.08-1.17-.34-3.1-1.47-3.78a34.9,34.9,0,0,1-8.18-6.79,31.5,31.5,0,0,1-3.07-4c-.49-.75-.95-1.52-1.37-2.3-.21-.38-.4-.76-.59-1.14-.38-.74.19.45-.15-.3-.11-.23-.22-.47-.32-.7-.3-.68-1.22-2.17-1.82-.88a6.18,6.18,0,0,0,.28,4.43Z"/><path d="M572.62,753.14A19.59,19.59,0,0,1,558.88,748c-1.18-1.07-2.35-2.18-3.53-3.29-4.64-4.4-9.44-8.94-15.22-11.6a23,23,0,0,0-10.39-1.85,52.7,52.7,0,0,0-6.4,1.79c-3.81,1.19-3.84,1.18-4.12,1-4.12-2.58-9.74-3.26-15.44-1.85-5.46,1.35-10.38,4.33-14.49,7.08l-1,.69c-3.12,2.1-6.35,4.28-10.06,5.23-4.06,1-11.34.26-14-3.37l.81-.59c2.34,3.24,9.2,3.93,12.9,3s6.7-3,9.75-5.09l1-.69c4.17-2.79,9.2-5.83,14.8-7.22,5.89-1.46,11.74-.77,16.07,1.89.48-.1,2-.59,3.43-1a43.73,43.73,0,0,1,6.68-1.83,24,24,0,0,1,10.83,2c5.92,2.72,10.79,7.32,15.49,11.77,1.17,1.11,2.34,2.22,3.52,3.28a18.82,18.82,0,0,0,14.08,4.87l0,1Z"/><path d="M523.48,768.51q-2.93,0-5.86-.2c-22.61-1.51-38.08-12.7-51.43-24.56l.66-.74c13.22,11.74,28.53,22.81,50.84,24.31a83.32,83.32,0,0,0,52.92-14.26l.57.82A83.73,83.73,0,0,1,523.48,768.51Z"/><path d="M565.06,754.9a25.34,25.34,0,0,1-11.3-2.63c-1.06-.52-2.1-1.13-3.1-1.72a24.41,24.41,0,0,0-6-2.85c-4-1.1-8.12-.08-12.43,1a39,39,0,0,1-9.09,1.53c-4.09,0-8-1.28-11.87-2.54a55.82,55.82,0,0,0-7.81-2.17,54.77,54.77,0,0,0-12.47-.23l-19.66,1.12-.05-1L491,744.29a55.13,55.13,0,0,1,12.7.25,56.78,56.78,0,0,1,8,2.2c3.69,1.23,7.52,2.49,11.41,2.49h.13a38.22,38.22,0,0,0,8.86-1.5c4.24-1.07,8.64-2.17,12.94-1a25.4,25.4,0,0,1,6.22,3c1,.58,2,1.18,3,1.69a24.51,24.51,0,0,0,16.86,1.76l.25,1A24.79,24.79,0,0,1,565.06,754.9Z"/><path d="M569.38,629.55c11.37,10.16,26.82,13.2,41.6,13.89,4.77.23,9.55.24,14.32.26.64,0,1.59-.19,1.9-.84s-.24-1-.83-1c-18.64-.05-39.57-.31-54.31-13.48-.86-.77-3.59.38-2.68,1.2Z"/><path d="M446.83,616c5.24,4.74,13,5.4,19.65,6.49,7.71,1.25,15.62,1.94,23.31.18a31.79,31.79,0,0,0,11-4.74c.5-.35.73-1,.18-1.41a2,2,0,0,0-2.07.2c-7.24,5-16.31,5.54-24.79,4.67-4.6-.47-9.17-1.28-13.7-2.14-3.87-.74-7.92-1.78-10.91-4.49-.91-.83-3.65.35-2.67,1.24Z"/><path d="M592.88,803.49q14.07,27.09,29.71,53.32l.12-1c-13.68,13.82-32.41,21.66-51.09,26a140.34,140.34,0,0,1-32,3.8,152.34,152.34,0,0,1-29.19-3.16c-4.32-.87-8.63-1.84-12.9-2.9a65.83,65.83,0,0,1-9-2.57l.6.57a93.68,93.68,0,0,1-3.78-14.94c-1.95-10.51-3.36-21.15-5-31.72l-2.85-18.22c-.21-1.3-3.11-.58-2.9.77l4.08,26.11c1.33,8.51,2.43,17.09,4.11,25.54a79.61,79.61,0,0,0,3.37,13c.43,1.13,2.21,1.36,3.26,1.68,2.38.7,4.79,1.31,7.19,1.9,13.25,3.24,26.71,5.73,40.38,6a145.11,145.11,0,0,0,46.28-7c13.79-4.35,27.24-10.84,38.1-20.53,1.27-1.13,2.5-2.29,3.69-3.5a.81.81,0,0,0,.12-1q-15.62-26.22-29.7-53.32c-.58-1.1-3.35-.06-2.66,1.26Z"/><path d="M626.18,857c18.74,13.8,43.47,13.08,65.44,16.7,26.28,4.32,51.74,12.72,77,20.78,23.64,7.53,47.38,15.85,68.26,29.53a170.63,170.63,0,0,1,45.7,44.82,201.05,201.05,0,0,1,28,58.37q1.14,3.86,2.14,7.74c.32,1.27,3.22.5,2.89-.77A205.75,205.75,0,0,0,890,974.66a176.42,176.42,0,0,0-43.35-47C826.9,913,803.92,903.73,780.74,896c-12.34-4.1-24.77-8-37.22-11.74-12.81-3.89-25.72-7.53-38.84-10.28-12-2.53-24.16-3.86-36.33-5.44-11.24-1.46-22.74-3.45-32.89-8.74a54.84,54.84,0,0,1-7-4.4c-1-.71-3.55.66-2.25,1.62Z"/><path d="M484.28,875.78c-4.54,6.05-11.9,9.19-18.29,12.83q-12.42,7.1-25.32,13.24a122.91,122.91,0,0,1-12.89,5.37c-4.27,1.47-8.59,2.76-12.88,4.15a171.14,171.14,0,0,0-25.65,11c-8.36,4.31-16.49,9-24.56,13.86-7.68,4.59-15.38,9.17-22.91,14-14.82,9.54-28.7,20.27-40.48,33.44a184.23,184.23,0,0,0-29.25,43.54c-.92,1.93-1.79,3.87-2.62,5.84-.27.64,2.53.36,2.87-.46a177.65,177.65,0,0,1,27.91-44.73,163.92,163.92,0,0,1,18.25-18.64,211.48,211.48,0,0,1,21.26-15.94c7.46-5,15.13-9.6,22.82-14.2,8-4.79,16-9.56,24.23-14a175.88,175.88,0,0,1,25.48-11.66c8.55-3,17.36-5.22,25.64-8.94,8.73-3.92,17.27-8.35,25.63-13q5.22-2.89,10.41-5.81a56.82,56.82,0,0,0,9.34-6.22,24.56,24.56,0,0,0,3.66-3.83c.64-.86-2.18-.51-2.65.11Z"/><path d="M315.06,970.38c.66,0,1.6-.18,1.9-.85s-.24-1.09-.85-1.09-1.59.18-1.89.85.23,1.09.84,1.09Z"/><path class="cls-2" d="M639,405.7a.49.49,0,0,1-.5-.49c-1.12-55.07,16.91-107.74,34.33-158.68,5.19-15.15,11.06-32.32,23.24-44.59a.5.5,0,0,1,.71.7c-12,12.11-17.85,29.16-23,44.21-17.4,50.86-35.39,103.45-34.28,158.34a.5.5,0,0,1-.49.51Z"/><path class="cls-2" d="M847.84,246.85c-33.36,7.84-45.32,11.47-59.42,13.57s-30.35,2.68-44.8,4.47-27.1,4.82-36.56,8.92-15.74,9.26-24.9,18.91-21.22,23.77-27.75,33.35-7.55,14.62-11,20.05-9.25,11.27-16.52,21.68a132.21,132.21,0,0,0-21,46.91c-5,21.52-6.35,49.58-5.62,66.11S603.8,502.32,611,510c16.5,1.71,37.54-19,56.19-38.29s34.9-37,52.12-54.39,35.42-34.55,48.44-49.18A187.87,187.87,0,0,0,796.1,327c7.49-14.45,14.63-31.22,20.6-45.49S827.5,255.41,847.84,246.85Z"/><path class="cls-3" d="M611.22,510.09l-.48-.14c8.38-28.71,17.4-51.9,29.24-75.19a309.67,309.67,0,0,1,40.12-60.87c16.25-19.64,41.89-47.53,96.46-89.32l.31.4c-54.54,41.75-80.16,69.62-96.38,89.24A309.14,309.14,0,0,0,640.43,435C628.6,458.24,619.59,481.41,611.22,510.09Z"/><path class="cls-4" d="M406.84,97c3.42,8.71,8.2,13.49,12.44,23.25"/><path class="cls-5" d="M418.83,120.48a88.73,88.73,0,0,0-6.35-11.7,69.9,69.9,0,0,1-6.1-11.57l.93-.37a69,69,0,0,0,6,11.42,89.21,89.21,0,0,1,6.4,11.82Z"/><path class="cls-4" d="M463,145.12a27.93,27.93,0,0,1,1.38,4.2c1.06,4.57.73,10-.47,16.2s-3.29,13-2.8,20.37l-2.4,3.92c-9.07-4.54-13.15-9.53-16.8-13.84S435,168,433.43,165.22s-1.62-4.84-2.52-7.21a21.05,21.05,0,0,0-5.45-7.61,31.14,31.14,0,0,0-3.78-3c2.24-9.46.24-12.43-1-15.36a23.32,23.32,0,0,1-1.51-9.55c.05-3.72.54-8.27.64-11.75s-.16-5.9.22-7.37a1.85,1.85,0,0,1,2.68-1.5c1.28.51,2.83,2.06,4.95,3.94s4.79,4.07,7.52,6.21a85.51,85.51,0,0,1,7.82,6.53,30.49,30.49,0,0,1,5.65,7.77c1.53,3,2.76,6.32,5.35,8.9S460.57,139.63,463,145.12Z"/><path class="cls-5" d="M458.91,190.46l-.41-.21c-8.92-4.46-13-9.32-16.67-13.61l-1.8-2.12a69.79,69.79,0,0,1-7-9.06,17.43,17.43,0,0,1-1.81-4.8,23.15,23.15,0,0,0-.74-2.47,20.65,20.65,0,0,0-5.32-7.42,30.62,30.62,0,0,0-3.72-2.93l-.28-.19.08-.34c2-8.33.63-11.42-.55-14.14-.14-.31-.27-.61-.39-.91a23.78,23.78,0,0,1-1.55-9.75c0-2.07.19-4.39.35-6.63.13-1.84.25-3.58.29-5.13,0-1.31,0-2.47,0-3.49a17,17,0,0,1,.21-4,2.72,2.72,0,0,1,1.3-1.84,2.44,2.44,0,0,1,2.05,0,16,16,0,0,1,4,3l1.13,1c2,1.76,4.58,3.9,7.5,6.19l1.15.89a74.81,74.81,0,0,1,6.72,5.68,31.78,31.78,0,0,1,5.74,7.89c.34.66.67,1.35,1,2a23.37,23.37,0,0,0,4.25,6.74,30.59,30.59,0,0,0,2.36,2,20,20,0,0,1,6.71,8h0a27.65,27.65,0,0,1,1.41,4.28c1,4.31.85,9.68-.47,16.41-.26,1.32-.55,2.67-.86,4-1.13,5.16-2.31,10.49-1.93,16.2V186ZM422.25,147.2A31.77,31.77,0,0,1,425.8,150a21.57,21.57,0,0,1,5.57,7.79,21.84,21.84,0,0,1,.78,2.58,16.45,16.45,0,0,0,1.71,4.56,69.9,69.9,0,0,0,6.93,8.91l1.8,2.12c3.52,4.15,7.49,8.84,15.94,13.15l2.08-3.39c-.35-5.79.88-11.38,2-16.31.3-1.37.59-2.71.85-4,1.29-6.59,1.44-11.82.47-16a27.64,27.64,0,0,0-1.35-4.12,19.34,19.34,0,0,0-6.42-7.61,28.59,28.59,0,0,1-2.44-2.09,24.21,24.21,0,0,1-4.45-7c-.33-.68-.65-1.35-1-2a30.48,30.48,0,0,0-5.56-7.64,71.93,71.93,0,0,0-6.63-5.6l-1.14-.9c-2.94-2.3-5.55-4.45-7.55-6.23l-1.14-1a15.79,15.79,0,0,0-3.67-2.82,1.48,1.48,0,0,0-1.23,0,1.76,1.76,0,0,0-.78,1.19,17.11,17.11,0,0,0-.18,3.73c0,1,0,2.2,0,3.53-.05,1.57-.17,3.32-.29,5.17-.16,2.23-.32,4.54-.35,6.58a22.35,22.35,0,0,0,1.48,9.35l.38.89C422.73,135.46,424.18,138.8,422.25,147.2Z"/><path class="cls-4" d="M461.12,185.89c-.49-7.35,1.6-14.2,2.8-20.37s1.53-11.63.47-16.2-3.51-8.24-4.61-11.88a27.36,27.36,0,0,1-.67-10c.19-2.79.33-4.78,2.07-7.65s5.09-6.62,6.07-13.48c3.42,4.41,3.91,6.74,5.26,8.84s3.55,4,5.31,7.16a37,37,0,0,1,3.71,13.14,69.34,69.34,0,0,1-.33,18.29,52,52,0,0,1-6.42,18.61C471.29,178.3,466.27,183.93,461.12,185.89Z"/><path class="cls-5" d="M460.67,186.6l0-.68c-.39-5.85.85-11.49,1.95-16.47.3-1.37.59-2.71.85-4,1.29-6.59,1.44-11.82.47-16a36.72,36.72,0,0,0-2.65-7.06,38.18,38.18,0,0,1-1.95-4.78,27.49,27.49,0,0,1-.69-10.19c.2-2.85.33-4.9,2.14-7.88.33-.54.71-1.11,1.12-1.72a25.69,25.69,0,0,0,4.88-11.57l.17-1.16.72.93a33.62,33.62,0,0,1,4.12,6.67,20.48,20.48,0,0,0,1.17,2.2,26.45,26.45,0,0,0,1.92,2.48,28.74,28.74,0,0,1,3.41,4.71A37.63,37.63,0,0,1,482,135.38a70.26,70.26,0,0,1-.33,18.43,52.2,52.2,0,0,1-6.49,18.78c-4,6.83-9.2,12-13.91,13.77Zm6.88-79.07a27.64,27.64,0,0,1-4.85,10.83c-.4.6-.78,1.15-1.09,1.68-1.68,2.77-1.81,4.62-2,7.43a26.68,26.68,0,0,0,.65,9.83,36.37,36.37,0,0,0,1.89,4.65,37.55,37.55,0,0,1,2.73,7.26c1,4.31.85,9.68-.47,16.41-.26,1.32-.55,2.67-.86,4-1.09,5-2.21,10.05-2,15.5,4.34-1.92,9.06-6.75,12.76-13.07a51,51,0,0,0,6.37-18.44A69,69,0,0,0,481,135.5a36.58,36.58,0,0,0-3.65-13,28.2,28.2,0,0,0-3.29-4.55,26.1,26.1,0,0,1-2-2.58,21.65,21.65,0,0,1-1.23-2.3A33.29,33.29,0,0,0,467.55,107.53Z"/><path class="cls-4" d="M458.72,189.81c-9.07-4.54-13.15-9.53-16.8-13.84S435,168,433.43,165.22s-1.62-4.84-2.52-7.21a21.05,21.05,0,0,0-5.45-7.61,28.67,28.67,0,0,0-9.32-5.84c-3-1-5.29-.71-8.06-.81a26.28,26.28,0,0,1-8.11-1.46c-2.12-.86-3.13-2.07-5.82-2.9s-7.08-1.28-9.5,2.35c10.88,12.09,17.54,23.58,25.09,31.74a57.29,57.29,0,0,0,24,15.65C441.66,191.79,449.09,192.26,458.72,189.81Z"/><path class="cls-5" d="M447,191.91a41.47,41.47,0,0,1-13.41-2.3,57.56,57.56,0,0,1-24.18-15.79,155,155,0,0,1-10.61-13.44,226.47,226.47,0,0,0-14.49-18.31l-.26-.29.21-.32c2.82-4.23,8-3.19,10.07-2.54a14.67,14.67,0,0,1,3.63,1.72,14.61,14.61,0,0,0,2.23,1.19,25.67,25.67,0,0,0,7.94,1.42l1.87,0a18.29,18.29,0,0,1,6.33.8,29.28,29.28,0,0,1,9.5,6,21.57,21.57,0,0,1,5.57,7.79,21.84,21.84,0,0,1,.78,2.58,16.45,16.45,0,0,0,1.71,4.56,69.9,69.9,0,0,0,6.93,8.91l1.8,2.12c3.57,4.21,7.62,9,16.35,13.36l1.2.6-1.3.33A47.53,47.53,0,0,1,447,191.91ZM385.29,141.7a229.31,229.31,0,0,1,14.29,18.09,155.69,155.69,0,0,0,10.53,13.35,56.54,56.54,0,0,0,23.76,15.52,40.62,40.62,0,0,0,23.43,1c-8.1-4.29-12-8.9-15.47-13l-1.8-2.12a69.79,69.79,0,0,1-7-9.06,17.43,17.43,0,0,1-1.81-4.8,23.15,23.15,0,0,0-.74-2.47,20.65,20.65,0,0,0-5.32-7.42A28.37,28.37,0,0,0,416,145a17.46,17.46,0,0,0-6-.75l-1.91,0a26.65,26.65,0,0,1-8.28-1.5,15.37,15.37,0,0,1-2.37-1.25,13.92,13.92,0,0,0-3.41-1.63C392.18,139.31,387.78,138.4,385.29,141.7Z"/><path class="cls-4" d="M421.68,147.43c2.24-9.46.24-12.43-1-15.36a21.54,21.54,0,0,1-1.5-7.91c-7.49-2.1-10.91-4.15-12.73-4.64s-2.05.55-2.09,1.86.1,2.87.15,5,0,4.71.85,6.79,2.48,3.61,2.48,10.6h.2c2.77.1,5.09-.2,8.06.81A23.89,23.89,0,0,1,421.68,147.43Z"/><path class="cls-5" d="M422,148.24l-.6-.4A24.1,24.1,0,0,0,416,145a17.46,17.46,0,0,0-6-.75l-1.91,0-.68,0v-.48c0-5.46-1-7.5-1.85-9.14-.22-.44-.42-.85-.6-1.28a18.73,18.73,0,0,1-.86-6.31l0-.65c0-.81-.05-1.54-.09-2.21,0-1.05-.09-2-.06-2.79a2.66,2.66,0,0,1,.76-2.17,2.22,2.22,0,0,1,2-.16,22.72,22.72,0,0,1,2.52,1,74,74,0,0,0,10.21,3.66l.36.1v.37a20.83,20.83,0,0,0,1.47,7.73l.38.89c1.18,2.73,2.65,6.12.6,14.77Zm-13.62-5c.54,0,1.07,0,1.59,0a18.29,18.29,0,0,1,6.33.8,24.33,24.33,0,0,1,5.06,2.53c1.74-7.81.44-10.79-.71-13.44-.14-.31-.27-.61-.39-.91a21.69,21.69,0,0,1-1.53-7.72,74.52,74.52,0,0,1-10-3.6,21.44,21.44,0,0,0-2.39-.94c-.37-.1-.86-.19-1.11,0s-.33.82-.35,1.4c0,.78,0,1.67.06,2.7,0,.68.07,1.42.09,2.23l0,.66a17.9,17.9,0,0,0,.79,6c.17.41.36.79.57,1.21C407.27,135.84,408.32,137.92,408.38,143.26Z"/><path class="cls-4" d="M442.75,118.3l.29.28a30.49,30.49,0,0,1,5.65,7.77c1.53,3,2.76,6.32,5.35,8.9s6.53,4.38,9,9.87c-1.13-2.75-2.49-5.22-3.23-7.68a27.36,27.36,0,0,1-.67-10c.19-2.79.33-4.78,2.07-7.65.31-.52.68-1.07,1.08-1.66-1.86-5.21-2.55-5.66-3.6-6.36a17,17,0,0,1-4-3.51c-1.56-1.88-3.28-4.7-4.73-4.36-3.5,2.73-3.63,5.29-4.53,7.43S442.8,115.16,442.75,118.3Z"/><path class="cls-5" d="M462.55,145.32a19.22,19.22,0,0,0-6.42-7.62,28.59,28.59,0,0,1-2.44-2.09,24.21,24.21,0,0,1-4.45-7c-.33-.68-.65-1.35-1-2a30.48,30.48,0,0,0-5.56-7.64l-.44-.43v-.22A10.78,10.78,0,0,1,444,112.9a18.44,18.44,0,0,0,.9-1.77c.19-.45.34-.92.5-1.4a11.34,11.34,0,0,1,4.18-6.23l.2-.1c1.46-.34,2.81,1.42,4.24,3.27.33.44.66.87,1,1.26a16.53,16.53,0,0,0,3.92,3.41c1.24.82,2,1.48,3.8,6.61l.09.24-.14.21c-.4.58-.76,1.13-1.07,1.64-1.68,2.77-1.81,4.62-2,7.43a26.68,26.68,0,0,0,.65,9.83,36.37,36.37,0,0,0,1.89,4.65c.45,1,.9,2,1.32,3Zm-19.29-27.23.14.14a31.78,31.78,0,0,1,5.74,7.89c.34.66.67,1.35,1,2a23.37,23.37,0,0,0,4.25,6.74,30.59,30.59,0,0,0,2.36,2,31.46,31.46,0,0,1,3.41,3,24.54,24.54,0,0,1-.86-2.34,27.49,27.49,0,0,1-.69-10.19c.2-2.85.33-4.9,2.14-7.88.28-.46.61-1,.95-1.47-1.74-4.83-2.37-5.25-3.32-5.87a17.44,17.44,0,0,1-4.14-3.61c-.33-.4-.67-.84-1-1.29-1-1.33-2.3-3-3.13-2.92a10.29,10.29,0,0,0-3.75,5.68c-.16.51-.33,1-.52,1.47a20.69,20.69,0,0,1-1,1.88A9.94,9.94,0,0,0,443.26,118.09Z"/><path class="cls-2" d="M467.5,485.82a.45.45,0,0,1-.29-.1.49.49,0,0,1-.12-.69c21.74-30.19,15.58-59.69,10.62-83.39-.77-3.71-1.51-7.22-2.1-10.58-2.89-16.31-2.36-28.64-1.76-42.91.33-7.75.67-15.76.57-25.5-.35-32.78-5.65-76.21-16.19-132.75a.51.51,0,0,1,.4-.59.5.5,0,0,1,.58.4c10.55,56.61,15.86,100.09,16.21,132.93.1,9.77-.25,18.16-.57,25.56-.6,14.21-1.12,26.48,1.74,42.69.6,3.34,1.33,6.84,2.1,10.55,5,23.89,11.21,53.62-10.79,84.17A.48.48,0,0,1,467.5,485.82Z"/><path class="cls-6" d="M123.37,345.54c34.27.49,51.54,4.86,66.57,6.76s27.8,1.36,43.42,2.1,34.09,2.78,49,6.09c29.84,6.61,45.48,18.29,55,25.54a89.2,89.2,0,0,1,12,10.3c4,4.15,8.64,9.94,16.84,19.22s19.94,22,29.47,42,16.85,47.06,19.69,63.36,1.17,21.76-4.19,30.82c-15.74,5.21-40.76-10.54-63.1-25.33s-42-28.61-62.15-41.92-40.73-26.14-55.47-37.63a141.15,141.15,0,0,1-32.14-34.16c-8.53-12.5-16.69-27.35-27.88-40S145.07,349.53,123.37,345.54Z"/><path class="cls-7" d="M404.34,553c-15,0-35.24-12.43-56.36-26.41-11.43-7.57-22.19-14.9-32.6-22-10.14-6.9-19.71-13.43-29.55-19.93-4.89-3.24-9.86-6.48-14.66-9.61-15.25-9.94-29.65-19.33-40.82-28a142.23,142.23,0,0,1-32.2-34.22c-2.52-3.69-5-7.52-7.55-11.58-6.11-9.59-12.44-19.5-20.31-28.4-13.25-15-28.17-23.58-47-27l0-.49a341.82,341.82,0,0,1,55.13,5c4,.64,7.84,1.26,11.46,1.72a260.26,260.26,0,0,0,28.31,1.64c4.82.1,9.8.2,15.1.45a306.79,306.79,0,0,1,49.05,6.09c30.23,6.7,45.82,18.53,55.13,25.59a89.68,89.68,0,0,1,12,10.32c2.24,2.35,4.74,5.26,7.91,8.94,2.51,2.93,5.36,6.25,8.94,10.29l1.23,1.4c8.1,9.13,19.2,21.64,28.27,40.63,9.38,19.62,16.79,46.63,19.71,63.43s1.06,22.08-4.21,31l-.05.08-.09,0A22,22,0,0,1,404.34,553ZM126.15,345.83c17.63,3.8,31.83,12.32,44.51,26.66,7.9,8.93,14.24,18.86,20.36,28.46,2.59,4.05,5,7.88,7.54,11.57a141.49,141.49,0,0,0,32.1,34.1c11.15,8.7,25.55,18.08,40.79,28,4.8,3.13,9.76,6.36,14.65,9.6,9.84,6.51,19.42,13,29.56,19.94,10.41,7.09,21.17,14.42,32.59,22,24.44,16.17,47.63,30.27,62.8,25.34,6.62-11.22,6.36-17.63,4.11-30.58-2.91-16.76-10.31-43.72-19.67-63.29-9-18.93-20.11-31.41-28.19-40.52l-1.24-1.4c-3.57-4-6.43-7.36-8.94-10.29-3.16-3.68-5.66-6.58-7.89-8.92a89.42,89.42,0,0,0-12-10.27c-9.28-7-24.82-18.82-54.94-25.5a306.94,306.94,0,0,0-49-6.08c-5.28-.25-10.26-.35-15.08-.45a258.72,258.72,0,0,1-28.36-1.65c-3.63-.46-7.44-1.07-11.48-1.72A341.26,341.26,0,0,0,126.15,345.83Z"/><path class="cls-3" d="M411,551.82c-14.33-26.21-28.11-46.9-44.65-67.08A310.09,310.09,0,0,0,314.17,434c-20.06-15.67-51.07-37.38-113.3-66.46l.21-.45c62.28,29.1,93.31,50.83,113.4,66.52a310.16,310.16,0,0,1,52.25,50.83c16.57,20.2,30.36,40.92,44.71,67.16Z"/><path class="cls-8" d="M603.39,57.94c-8.29-7.84-15-8.53-20.47-7.49A28,28,0,0,0,570,56.94a22,22,0,0,0-6.45,8.45c-1.3,3.15-1.92,6.83-2.38,13.36s-.77,15.9-2.46,24.5a104.16,104.16,0,0,1-8.21,23.88c-3.46,7.45-7.3,14.52-9.34,19.3A32.33,32.33,0,0,0,538.43,157c-.42,3.33-1,7.49-.76,10.67s1.39,5.35,2.52,6.18,2.24.3,3.86.16,3.74.14,6.62.27,6.51.13,9.91,1.77,6.58,4.91,7.18,7.09c-4.76,1.58-7.54,3.67-9.79,4.81a10.42,10.42,0,0,1-5.72,1.24,12.35,12.35,0,0,1-5.42-1.54c-1.88-1-3.87-2.73-10.61-3.32-18.22,40.56-28.86,73-33.3,96.18s-2.71,37-1.5,46.51,1.87,14.86,2.87,17.33,2.34,2.08,3,1.43a6.87,6.87,0,0,1,4-2.6,66.52,66.52,0,0,1,15.06-2.62,79.79,79.79,0,0,1,15.37.7c4.13.55,6.95,1.16,8.31,2.22s1.26,2.57.11,4.18a12.58,12.58,0,0,1-5.7,4.13c-2.32.81-4.73.71-10.25,1.11a150.33,150.33,0,0,1-29.53-.16c0,31,0,45.94,4,61.56s11.87,31.92,18.67,44.53,12.49,21.52,21.78,26.54,22.18,6.17,34.6,3.13a59,59,0,0,0,32.43-20.67c8.06-10.43,12.23-24.08,15.17-38.59a370.5,370.5,0,0,0,5.85-46.06C638.33,367,639,350,640.39,338.05a130.25,130.25,0,0,1,4.84-24c1.49-5.23,2.49-8.84,2.67-12s-.43-5.91-2.36-8-5.16-3.61-9.52-3.86-9.83.75-14.12,1.74-7.4,2-12.5,3.33-12.2,3-13.32,3.39c0-8.21,9.09-13.73,16-17s11.7-4.2,15.29-4,6,1.61,8.63,2.61a27.43,27.43,0,0,0,7.51,1.75c2,.12,3.14-.26,3.14-3.77s-1.14-10.14-1.71-17.62a117.74,117.74,0,0,1,.23-22.09c.8-6.29,2.4-10.53,3-14s.31-6.17-2.26-7.88-7.39-2.45-11.66-2.22-8,1.41-12.45,2.6-9.62,2.36-12.81,3-4.42.83-4.62.06.65-2.5,2.07-3.95a32.74,32.74,0,0,1,5.62-4.07,36,36,0,0,1,9.35-4.67A99.84,99.84,0,0,1,637.05,204a40.6,40.6,0,0,1,7.24-.3c1.47,0,2.84-.34,1.63-3.2s-5-8.25-9-13.12-8.24-9.2-10.66-13.08-3-7.3-3.07-12,.45-10.78.4-18.44a190.47,190.47,0,0,0-2-25.7c-1.3-8.77-3.28-17-6.49-28.57S607.52,63.22,603.39,57.94Z"/><path class="cls-3" d="M577.25,489.69c-3.45-118.61,3-162.75,7.66-195l0-.16c4.69-32.3,7.8-53.63,7.8-75.76,0-20.37-2.6-41.46-5.12-61.86l-.66-5.38c-2.54-20.75-5.16-42.21,8.89-82.65l.47.16c-14,40.34-11.4,61.73-8.86,82.43l.66,5.38c2.51,20.41,5.12,41.52,5.12,61.92,0,22.16-3.11,43.51-7.81,75.83l0,.17c-4.69,32.21-11.11,76.33-7.66,194.9Z"/><path class="cls-7" d="M517.27,425.6c3.93-3.2,11.33-6.71,17.38-10.45a55.2,55.2,0,0,0,14.62-12.6,39.31,39.31,0,0,0,8.18-17.31,46.14,46.14,0,0,0-.81-19.71c-1.52-5.27-4-8.11-6.18-9.1s-3.91-.14-6.29,2.83-5.36,8-8.84,13.56-7.45,11.47-10.45,16.3-5,8.52-8.22,10-7.44.64-10.09-.91-3.67-3.86-3.06-6.46,2.87-5.49,5.89-9.2,6.83-8.23,10.43-12.55,7-8.43,9.48-13.5a56.62,56.62,0,0,0,4.87-16.85,59.61,59.61,0,0,0-.1-17.38,119.44,119.44,0,0,0-4.23-17.88,49.53,49.53,0,0,0-4.35-10.27,54.21,54.21,0,0,0-4.1-6c-1-1.3-1.44-1.69-1.81-1.57s-.69.76-1.22,2.48a81.41,81.41,0,0,0-2,8.84,102.77,102.77,0,0,1-3.86,16.46,116.71,116.71,0,0,1-9.21,19.08c-3.41,5.85-6.63,10.69-9.55,15.13s-5.55,8.46-8.62,11-6.6,3.53-9.11,3-4-2.62-4.82-5.49a17,17,0,0,1,.66-10.86c1.63-4.35,5-9.38,7.66-13.27l8.28-12.27c3.81-5.64,9.58-14.17,12.76-21.72a43.58,43.58,0,0,0,3.39-20.46,77.22,77.22,0,0,0-3.76-18.64,83.85,83.85,0,0,0-7.62-17.59A45.81,45.81,0,0,0,481.93,230c-3.84-3.07-7.86-5.29-10.68-5.62s-4.4,1.25-4.4,5.22,1.59,10.32,2.39,16.88a91.38,91.38,0,0,1,.18,19.69c-.62,6.39-1.86,12.4-3,18.16s-2.16,11.24-4.22,16.26-5.18,9.59-8.32,11.87a9.82,9.82,0,0,1-9.42,1.26,13.69,13.69,0,0,1-7.68-5.81c-1.52-2.75-1.52-6.19,0-10.66s4.47-9.95,6.29-15.78,2.48-12,3.21-18.86,1.52-14.35,1.29-21.28a57,57,0,0,0-3.71-18.92,37.25,37.25,0,0,0-9.49-14.29,31.16,31.16,0,0,0-12.82-6.91c-3.71-.86-6.09-.19-6.76,4.73s.37,14.1.77,21.94.15,14.32.56,20,1.46,10.58,1.89,15.24.23,9.1-1.62,13.1-5.36,7.57-9,8.33-7.41-1.29-9.69-4.2-3.07-6.68-3.11-11.25a97,97,0,0,1,1.63-15.79c1-5.86,2.16-12.19,1.92-17.39s-1.95-9.27-5-14.2S385.5,211,379.91,208.08s-12.27-3-18.11-3.18-10.82-.41-15-2-7.63-4.41-10.86-6.24-6.24-2.66-9.37-1.91-6.37,3-9.92,8.41-7.4,13.84-12,20.84-9.95,12.55-13.06,17.27A21.43,21.43,0,0,0,287.72,255a81.47,81.47,0,0,0,2.68,16.62,59.53,59.53,0,0,0,5.34,14.06,45.55,45.55,0,0,0,10.62,13.72c4.69,3.91,10.64,6.56,16.23,9.33a151.17,151.17,0,0,1,14.84,8.33,74.91,74.91,0,0,1,9.42,7.3c2.55,2.28,4.8,4.47,5.06,6.42s-1.45,3.67-4.36,4.69a17.71,17.71,0,0,1-11.51-.17c-4.49-1.52-9.39-4.89-14.91-9.12s-11.67-9.32-18.31-13.42-13.79-7.21-18.61-7.08-7.34,3.51-9,6.94-2.47,6.93-1.11,12.63,4.89,13.6,9.62,18.68,10.67,7.34,18.78,10.21,18.4,6.34,26.52,10,14.06,7.43,19.1,12.1,9.17,10.23,10.07,13.52-1.43,4.34-4.29,4.87-6.24.52-11.56-2.22-12.55-8.19-20.34-12.49A123.89,123.89,0,0,0,297.67,370c-8.21-2.47-16.29-4.27-22.09-3.57s-9.3,3.88-9.67,9.07,2.41,12.4,8.28,19.24,14.86,13.29,23.92,17.44,18.2,6,27.6,7.45,19.05,2.52,25.37,3.41,9.3,1.63,10.55,3.31.74,4.32-1.7,6.4-6.83,3.62-11.75,4.79a62.86,62.86,0,0,1-16.44,1.83,50.24,50.24,0,0,1-17.91-3.59c-5.27-2.29-9.19-5.72-13.81-8.82s-9.94-5.9-15.12-5-10.23,5.36-11.45,9.93,1.4,9.23,5.6,13.6,10,8.45,16.38,12.19a90.59,90.59,0,0,0,20.49,9.18,52.68,52.68,0,0,0,21.21,1.82c6.76-.9,12.95-3.38,17.72-4.65s8.14-1.31,10.27-.32a4.14,4.14,0,0,1,2.21,5.44c-.82,2.41-3.35,5.19-6.13,7.64a22.71,22.71,0,0,1-10,5.54,35.74,35.74,0,0,1-13.94,0c-4.48-.86-8.15-2.41-12.46-3.59a64.21,64.21,0,0,0-11.75-2.1c-2.48-.11-2.48.49-1.83,3.13a31.52,31.52,0,0,0,5.88,12.4,58.36,58.36,0,0,0,16,13.6A24,24,0,0,0,347.65,509,80.09,80.09,0,0,0,362,506.19c4.71-1.25,9.11-2.5,13.17-5.54S383,492.79,386.3,489s6.31-6.58,9.09-8.07,5.36-1.69,7-1,2.28,2.18,2.41,4.29a11.36,11.36,0,0,1-2,7.31c-1.75,2.48-4.86,4.73-7.8,7.57a113.39,113.39,0,0,0-7.9,8.89c-2.18,2.61-3.77,4.4-3.67,6.45s1.89,4.36,5.56,6.58,9.22,4.33,16.56,5.52,16.46,1.45,24-.5a41.53,41.53,0,0,0,17.85-10.11c4.27-4,6.78-7.84,8.07-12.8a49.4,49.4,0,0,0,.86-16.26,108.81,108.81,0,0,0-2.51-13.92c-1-4.33-1.82-8.63-2.28-12.21s-.53-6.46,3-4.38S465,465.42,473,469.68a45.78,45.78,0,0,0,25.88,4.93,54.86,54.86,0,0,0,24.84-9.19A86.6,86.6,0,0,0,543,447.83a31.34,31.34,0,0,0,6.68-14.24,82.15,82.15,0,0,0,2-14.9c0-4-.76-6.15-1.92-6.64s-2.68.63-4.86,3.5-5,7.51-7.41,11a28.55,28.55,0,0,1-7.27,7.9c-3,2.12-7,4-10.15,4a6.53,6.53,0,0,1-6.28-4.33C512.87,431.72,513.33,428.81,517.27,425.6Zm-61.44-85.35c1.41-1.17,2.72-2.16,4-3.13a50.74,50.74,0,0,0,6.64-5.67,49.62,49.62,0,0,0,9-13.53c2.11-4.82,3.09-9.5,4.27-17,.34-2.18.69-4.55,1.12-7.45,1-6.62,2.34-15.68,4.88-31.41l.37.06c-2.53,15.72-3.88,24.78-4.87,31.4-.43,2.91-.78,5.28-1.13,7.46-1.17,7.5-2.16,12.21-4.29,17.06a49.93,49.93,0,0,1-9,13.65,53,53,0,0,1-6.69,5.71c-1.26,1-2.57,1.95-4,3.12a82.82,82.82,0,0,0-12.7,13.17c-4,5.33-6.88,10.89-11.19,26.48l-.37-.1c4.31-15.56,7.28-21.36,11.25-26.61A83.74,83.74,0,0,1,455.83,340.25Zm-19.1-7.1c2.06-2.09,4-3.37,5.41-3.27s2.32,1.61,3.07,3.43a12.43,12.43,0,0,1,1.13,5.76,6.64,6.64,0,0,1-3,4.55,22.64,22.64,0,0,1-6.78,3.27c-2.57.78-5.25,1.15-6.32.11s-.53-3.51.83-6.19A33.15,33.15,0,0,1,436.73,333.15Zm-8.8-38.71c.76-1.13,1.41-2.11,2-3,3.69-5.94,4.33-10,4.47-13.52s-.27-7.16-.93-13.21c-.13-1.11-.26-2.29-.39-3.57l-.27-2.53c-.88-8.23-2-18.48-3.4-23.47l.37-.11c1.44,5,2.53,15.29,3.41,23.54l.27,2.53c.13,1.27.26,2.46.39,3.56.67,6.07,1.07,9.74.93,13.28s-.79,7.69-4.52,13.7c-.58.94-1.23,1.92-2,3-3.67,5.52-9.83,14.75-22.21,40.77l-.35-.17C418.09,309.22,424.25,300,427.93,294.44Zm-73.09-80.59c.53-2,1.6-2.84,3.05-2.43s3.27,2,4.55,3.66a14.53,14.53,0,0,1,2.55,5.23,19.15,19.15,0,0,1,.69,5.73c-.08,1.9-.51,3.72-2,4.55a5.28,5.28,0,0,1-5.73-.86c-1.74-1.52-2.71-4.42-3.19-7.5A22.79,22.79,0,0,1,354.84,213.85ZM319.48,253a6.27,6.27,0,0,1,6.07-1.41c2.54.59,5.4,2.37,8.24,4.49a61.44,61.44,0,0,1,7.92,7c2.25,2.43,4,4.82,4.53,6.66a3.54,3.54,0,0,1-1.3,4.25,10.47,10.47,0,0,1-5.34,2.13c-1.75.1-3.05-.59-4.88-1.83s-4.16-3-6.39-4.81-4.36-3.62-6.19-5.42-3.34-3.58-3.88-5.56A5.84,5.84,0,0,1,319.48,253ZM364.7,446.62c-2.14,1-4.16,1.91-6.14,2.72a49.74,49.74,0,0,1-16.32,3.75c-.86.05-1.75.09-2.7.09-5.59,0-13.45-1.37-31.85-8.9l.14-.36c21.47,8.79,28.51,9.17,34.38,8.79A49.57,49.57,0,0,0,358.42,449c2-.81,4-1.73,6.12-2.72a98.48,98.48,0,0,1,11.4-4.68,90.85,90.85,0,0,1,12.95-2.71c2.09-.34,4.25-.69,6.48-1.11,7-1.32,14.77-3.46,33-14.89l.21.32c-18.3,11.47-26.12,13.62-33.15,14.95-2.23.42-4.4.77-6.49,1.1A89.73,89.73,0,0,0,376.06,442,95.06,95.06,0,0,0,364.7,446.62Zm37.89,5.8a11.51,11.51,0,0,1-2.6,6.77,14.2,14.2,0,0,1-7.23,4.18c-2.52.51-4.61-.13-5.89-1.63s-1.77-3.86-.89-6.7a20.73,20.73,0,0,1,5.47-8.27,10.91,10.91,0,0,1,6.61-3.11,3.78,3.78,0,0,1,3.94,2.28A13.81,13.81,0,0,1,402.59,452.42Zm-8.37,19.34c-8.52,6.91-14.7,10.76-22.8,14.19-9,3.81-19,6.34-38.68,6.34v-.38c19.61,0,29.58-2.52,38.53-6.31,8.06-3.42,14.22-7.25,22.71-14.14,10.09-8.18,21.9-19.56,39.51-38l.28.26C416.15,452.18,404.32,463.56,394.22,471.76Zm23.89,31.47-.31-.22c18.35-26.79,22.47-39,20.05-59.33l.38,0C440.67,464.09,436.53,476.35,418.11,503.23ZM429,406.13c-11.28.23-21.3.35-30.15.35-16.56,0-29.11-.41-38.52-1.24a152.84,152.84,0,0,1-25.83-4.47c-1.44-.36-2.89-.71-4.42-1.07-1.79-.42-3.68-.84-5.65-1.28a266.45,266.45,0,0,1-28.81-7.74l.12-.36A264.34,264.34,0,0,0,324.48,398l5.65,1.29,4.42,1.06a152.3,152.3,0,0,0,25.78,4.47c14.4,1.27,36.18,1.56,68.44.89l-17.69-35.29a52.21,52.21,0,0,1-22.28-5.72,70.34,70.34,0,0,1-7.2-4.36,40.33,40.33,0,0,0-7.76-4.37c-4.51-1.74-10.35-2.33-16.53-3l-2.73-.28a203.55,203.55,0,0,1-24.55-4c-9.78-2.22-21.34-5.67-34.66-18.51l.26-.28c13.26,12.77,24.75,16.21,34.48,18.42a202.75,202.75,0,0,0,24.51,4l2.73.28c6.21.64,12.07,1.24,16.62,3a41.08,41.08,0,0,1,7.84,4.41A70.64,70.64,0,0,0,389,364.4a51.85,51.85,0,0,0,21.92,5.68L377,302.52c-8.2-2.72-14.35-4.29-18.72-4.78a34.09,34.09,0,0,0-4.05-.2,13,13,0,0,1-4.1-.46c-1.86-.55-5.7-2.2-10.59-7.07-.43-.42-.86-.86-1.31-1.33-3.9-4-9.8-10.14-31.32-21.12l.18-.34c21.57,11,27.49,17.13,31.42,21.19.45.47.87.91,1.3,1.33,3.53,3.51,7.33,6.06,10.43,7a12.82,12.82,0,0,0,4,.45,35,35,0,0,1,4.1.2c4.32.48,10.39,2,18.43,4.68l-40.85-81.48c22.53,37,33.18,59.62,45.17,82.94l.19.07-.06.18q1,2,2.06,4c8.42,16.19,17.86,33.17,31.42,62.31h.08v.19c4.73,10.18,10,21.85,15.83,35.47h.08v.19c3.12,7.24,6.41,15,9.9,23.44Zm-61.74-36.62c.76-1.3,2.67-2.08,4.58-2.41a11.47,11.47,0,0,1,6,.61,32.23,32.23,0,0,1,6.77,3.69,14,14,0,0,1,4.51,4.38,5.62,5.62,0,0,1,.35,5.23,6,6,0,0,1-5.3,3.23c-2.56.06-5.77-1.28-8.69-3.15a27.11,27.11,0,0,1-7.1-6.35C366.85,372.63,366.46,370.81,367.22,369.51Zm76.19,9.21c.66-2.94,1.79-5.52,4.3-7.3a17,17,0,0,1,9.88-2.65,13.75,13.75,0,0,1,8.43,3.07,7.89,7.89,0,0,1,2.78,5.62,6.5,6.5,0,0,1-1.95,4.83,55.25,55.25,0,0,1-5.42,4.6c-2,1.65-4,3.5-5.85,5.29s-3.57,3.5-5.06,4.1-2.74.06-4.07-1.46a15.78,15.78,0,0,1-3.3-6.94A22.47,22.47,0,0,1,443.41,378.72Zm.22,31a297.08,297.08,0,0,0,39.79-23.91c7.66-5.4,11.39-8.25,15-12.85s7.05-10.81,23.76-40.79l.33.18c-16.72,30-20.2,36.25-23.79,40.84s-7.37,7.51-15.06,12.94a297.91,297.91,0,0,1-39.84,23.93Zm41.52,5.16a12.28,12.28,0,0,1-6.17,2.8,9,9,0,0,1-5.89-.43,7.66,7.66,0,0,1-3.64-4.72,6.06,6.06,0,0,1,1.39-5.82,13,13,0,0,1,6.78-3.44,9.86,9.86,0,0,1,6.21,1.07c2,.93,4.17,2.27,4.47,4.26S487,413.26,485.15,414.93Zm20.55,38.59c-14.51,0-21.11-.75-27.15-2.87-4.39-1.55-8.6-3.84-15.57-7.65-4.16-2.27-9.33-5.09-16.17-8.65L447,434c6.84,3.56,12,6.39,16.18,8.66,6.95,3.79,11.14,6.08,15.51,7.62,6.9,2.42,14.54,3,34.09,2.8v.38C510.22,453.51,507.87,453.52,505.7,453.52ZM492,423.68c-8.95,1.27-22.61,2.08-44.31,2.61v-.38c21.68-.54,35.33-1.34,44.26-2.61,10.09-1.44,15-3.7,22.05-8.22,7.47-4.76,17.8-12.38,24.41-19.48l.28.26c-6.63,7.13-17,14.77-24.49,19.54C507,420,502.11,422.23,492,423.68Z"/><path class="cls-9" d="M707,146.57c-2.06-2.74-4.25-5.58-7.36-7s-7.42-.89-9.11,2.09a10.37,10.37,0,0,0-1,3.59l-4.41,27.9c-.61,3.88-1.22,7.81-.78,11.71,1.3,11.54,12.05,20.47,23.5,22.4s23.2-1.95,33.25-7.78c5.61-3.25,11.53-8.71,10.12-15a8.76,8.76,0,0,0-10.35-6.32c5.23,2,11.84-1.67,12.86-7.18s-3.84-11.32-9.44-11.3"/><path class="cls-10" d="M713.81,208.25a36.35,36.35,0,0,1-6.12-.5c-14.29-2.4-22.85-13.31-23.92-22.83-.45-4,.18-8,.79-11.84l4.41-27.9a11,11,0,0,1,1.08-3.77c1.89-3.32,6.54-3.78,9.76-2.3s5.56,4.51,7.55,7.15l-.79.61c-1.93-2.55-4.11-5.44-7.18-6.85-2.83-1.3-6.91-.85-8.47,1.88a10,10,0,0,0-1,3.43l-4.41,27.9c-.6,3.79-1.22,7.71-.79,11.58,1,9.15,9.3,19.63,23.09,21.95,12.57,2.12,24.83-3,32.92-7.71,3.49-2,11.45-7.49,9.89-14.5a7.91,7.91,0,0,0-3.68-4.92,9.34,9.34,0,0,0-1.22-.62,9.46,9.46,0,0,1-5.15-.42l-1.44-.56,1.5-.39a8.52,8.52,0,0,1,5.17.33,10.33,10.33,0,0,0,2.72-1.05,9,9,0,0,0-4.32-16.78h0v-1h0a9.89,9.89,0,0,1,4.8,18.65,10.17,10.17,0,0,1-1.82.82l.28.17a8.87,8.87,0,0,1,4.13,5.55c1.71,7.66-6.68,13.45-10.36,15.59C734.36,203.92,724.43,208.25,713.81,208.25Z"/><path class="cls-9" d="M738.93,164.13c5.58-3,7-11.62,2.7-16.27a17.16,17.16,0,0,0-4.71-3.32,45,45,0,0,0-17.86-5c-3.18-.2-6.56,0-9.27,1.67s-4.5,5.23-3.25,8.17"/><path class="cls-10" d="M739.16,164.57l-.47-.88a10.41,10.41,0,0,0,2.57-15.49,16.59,16.59,0,0,0-4.57-3.22,44.68,44.68,0,0,0-17.66-4.9c-2.49-.16-6.14-.16-9,1.6-2.38,1.47-4.23,4.77-3,7.55l-.92.39c-1.4-3.31.65-7.07,3.44-8.79,3.09-1.91,6.94-1.91,9.58-1.75a45.75,45.75,0,0,1,18,5,17.65,17.65,0,0,1,4.84,3.43,11.41,11.41,0,0,1-2.83,17Z"/><path class="cls-9" d="M726.85,164.36a7.72,7.72,0,0,1,0,3.28,2.64,2.64,0,0,1-2.34,2,3.84,3.84,0,0,1-2.39-1.35q-2.6-2.51-5-5.17a6.09,6.09,0,0,1-1.78-2.95c-.36-2.17,1.76-4.14,3.95-4.42s4.34.62,6.34,1.56a26.34,26.34,0,0,1,8.2,5.34,14.81,14.81,0,0,1,3.74,12.57,2.5,2.5,0,0,1-2.12,2.37A20.38,20.38,0,0,1,709,155.54a4,4,0,0,1,.61-1.85,4.11,4.11,0,0,1,3-1.21,29.74,29.74,0,0,1,16.81,3c5.08,2.74,9.14,7.66,10,13.36a11.33,11.33,0,0,1-2.08,9.05c-.49,10.55-10.89,19.55-18.82,24.63-1.28.82-2.33,2-3.66,2.68-2.7,1.44-6,.84-9,.2a15.22,15.22,0,0,1-4.18-1.33A35.2,35.2,0,0,1,694.2,198c-2-2.29-1.65-5.38-1.45-8.47.84-12.75,3.56-29.42,17.09-34.9"/><path class="cls-10" d="M711.05,206.57a25,25,0,0,1-5.15-.7,15.44,15.44,0,0,1-4.32-1.38,36.4,36.4,0,0,1-7.77-6.16c-2-2.36-1.78-5.46-1.58-8.45l0-.38c.8-12.18,3.39-28.91,16.45-34.92a3.37,3.37,0,0,1,.54-1.19,4.53,4.53,0,0,1,3.4-1.41,30.2,30.2,0,0,1,17.09,3A19.56,19.56,0,0,1,740,168.74a11.81,11.81,0,0,1-2.09,9.32c-.67,11.86-13.52,21.33-19,24.86a17.73,17.73,0,0,0-1.54,1.16,13,13,0,0,1-2.16,1.54A8.54,8.54,0,0,1,711.05,206.57Zm-2.55-50.78c-12,6-14.48,22.05-15.25,33.78l0,.38c-.2,2.92-.38,5.68,1.35,7.73a35.13,35.13,0,0,0,7.48,5.93,14.72,14.72,0,0,0,4.05,1.28c3.14.67,6.16,1.17,8.63-.15a12.68,12.68,0,0,0,2-1.43,17,17,0,0,1,1.63-1.23c5.41-3.47,18.06-12.76,18.59-24.23v-.17l.11-.13a10.72,10.72,0,0,0,2-8.65c-.84-5.28-4.51-10.14-9.8-13A29.2,29.2,0,0,0,712.72,153a3.73,3.73,0,0,0-2.68,1,1.91,1.91,0,0,0-.26.49l.25.62-.45.19a2.87,2.87,0,0,0-.05.31,19.88,19.88,0,0,0,25.76,21.53,2.84,2.84,0,0,0,1.27-.68,2.58,2.58,0,0,0,.5-1.31,14.29,14.29,0,0,0-3.6-12.14,26.33,26.33,0,0,0-8.05-5.23c-1.95-.91-4-1.78-6.07-1.52A4.52,4.52,0,0,0,716.4,158a2.8,2.8,0,0,0-.58,2.13,5.79,5.79,0,0,0,1.66,2.7c1.6,1.76,3.29,3.49,5,5.14a3.46,3.46,0,0,0,2,1.21h0a2.18,2.18,0,0,0,1.83-1.65,7.39,7.39,0,0,0,0-3.07l1-.15a8.1,8.1,0,0,1,0,3.5,3.15,3.15,0,0,1-2.79,2.37h0a4.22,4.22,0,0,1-2.72-1.49c-1.74-1.67-3.44-3.41-5.06-5.19a6.58,6.58,0,0,1-1.91-3.2,3.78,3.78,0,0,1,.77-2.9,5.53,5.53,0,0,1,3.61-2.11c2.31-.29,4.55.63,6.63,1.61a27,27,0,0,1,8.35,5.45,15.31,15.31,0,0,1,3.86,13,3.52,3.52,0,0,1-.74,1.8,3.64,3.64,0,0,1-1.72,1,20.88,20.88,0,0,1-27.09-22.29Z"/><path class="cls-2" d="M348,332.52a.45.45,0,0,1-.27-.08l-27.4-18.06c-14.35-9.46-30.63-20.19-49-21.83-14-1.25-28.33,3-40.94,6.81a.51.51,0,0,1-.63-.33.49.49,0,0,1,.34-.62c12.7-3.81,27.1-8.12,41.32-6.86,18.65,1.67,35,12.47,49.5,22l27.39,18.06a.5.5,0,0,1-.28.91Z"/><path class="cls-2" d="M285.75,294.05a.46.46,0,0,1-.32-.11c-5.71-4.64-12.18-9.9-15.68-17.07A40.64,40.64,0,0,1,266.28,264c-1.74-13.3-.44-26.81.82-39.88a.49.49,0,0,1,.54-.45.49.49,0,0,1,.45.54c-1.25,13-2.55,26.47-.82,39.66a39.49,39.49,0,0,0,3.38,12.6c3.4,7,9.78,12.16,15.41,16.74a.48.48,0,0,1,.07.7A.48.48,0,0,1,285.75,294.05Z"/><path class="cls-11" d="M265.47,203.33c1.78-2.28,4.77-4.67,7.22-3.15a24.5,24.5,0,0,1,.77,7.84,8.22,8.22,0,0,1-4,6.45,26.35,26.35,0,0,1,6.7,3.68c1.68,1.28,3.23,3.89,1.61,5.24A3.37,3.37,0,0,1,276,224a18.68,18.68,0,0,1-12.89-2.86,13.21,13.21,0,0,1-11.13,12,15,15,0,0,1,3.35-12.92c-4.6-2.26-9.18-5.81-10.06-10.86a1.82,1.82,0,0,1,.2-1.47,2,2,0,0,1,1.09-.54,20.53,20.53,0,0,1,7.21-.8C261,207.36,260.27,210,265.47,203.33Z"/><path class="cls-12" d="M251.6,233.66l-.1-.44a15.48,15.48,0,0,1,3.05-12.87c-4.07-2.09-8.83-5.62-9.77-10.94a2.27,2.27,0,0,1,.31-1.86,2.35,2.35,0,0,1,1.36-.71,20.93,20.93,0,0,1,7.38-.82,32.28,32.28,0,0,1,4.33.84c2.84.73,3.27.84,6.92-3.84,2.07-2.65,5.23-4.91,7.87-3.26l.18.11.05.21a24.65,24.65,0,0,1,.77,8,9,9,0,0,1-3.39,6.29,26.74,26.74,0,0,1,5.89,3.39,6.09,6.09,0,0,1,2.5,4.09,2.38,2.38,0,0,1-.87,1.93,3.91,3.91,0,0,1-2,.74,19.33,19.33,0,0,1-12.55-2.5,13.66,13.66,0,0,1-11.49,11.58Zm.74-26.72a23.76,23.76,0,0,0-5.65.87,1.56,1.56,0,0,0-.83.37,1.39,1.39,0,0,0-.09,1.06c.9,5.15,5.82,8.56,9.79,10.5l.59.29-.44.49a14.44,14.44,0,0,0-3.32,12,12.8,12.8,0,0,0,10.23-11.41l.05-.86.72.47a18.22,18.22,0,0,0,12.55,2.79,2.93,2.93,0,0,0,1.5-.52,1.37,1.37,0,0,0,.51-1.14,5.16,5.16,0,0,0-2.1-3.32,25.71,25.71,0,0,0-6.58-3.61l-1.07-.4,1-.52A7.71,7.71,0,0,0,273,208a23.17,23.17,0,0,0-.71-7.45c-2.07-1.08-4.71,1-6.38,3.13h0c-3.91,5-4.73,5-8,4.19a28.58,28.58,0,0,0-4.19-.81A10.64,10.64,0,0,0,252.34,206.94Z"/><path class="cls-11" d="M233.88,286.26c1.77-2.27,4.76-4.67,7.21-3.14a24.5,24.5,0,0,1,.77,7.84c-.32,2.61-1.66,5.26-4,6.45a26,26,0,0,1,6.7,3.68c1.68,1.27,3.23,3.89,1.61,5.24a3.43,3.43,0,0,1-1.75.63,18.68,18.68,0,0,1-12.89-2.86A13.19,13.19,0,0,1,220.39,316a14.93,14.93,0,0,1,3.35-12.91c-4.6-2.26-9.17-5.82-10.06-10.87a1.8,1.8,0,0,1,.2-1.46,2,2,0,0,1,1.09-.54,20.3,20.3,0,0,1,7.21-.8C229.36,290.29,228.67,292.94,233.88,286.26Z"/><path class="cls-12" d="M220,316.6l-.1-.45a15.46,15.46,0,0,1,3-12.86c-4.06-2.09-8.83-5.63-9.77-10.94a2.29,2.29,0,0,1,.31-1.87,2.41,2.41,0,0,1,1.36-.71,20.93,20.93,0,0,1,7.38-.81,29.37,29.37,0,0,1,4.33.84c2.84.72,3.28.83,6.92-3.84,2.07-2.66,5.23-4.91,7.87-3.27l.19.12,0,.21a24.65,24.65,0,0,1,.77,8,9,9,0,0,1-3.39,6.29,26.7,26.7,0,0,1,5.89,3.38,6.09,6.09,0,0,1,2.5,4.09,2.35,2.35,0,0,1-.86,1.93,4,4,0,0,1-2,.75A19.28,19.28,0,0,1,231.94,305a13.66,13.66,0,0,1-11.48,11.59Zm.74-26.72a23.76,23.76,0,0,0-5.65.86,1.61,1.61,0,0,0-.82.37,1.37,1.37,0,0,0-.1,1.07c.91,5.15,5.82,8.55,9.79,10.5l.59.29-.44.49a14.46,14.46,0,0,0-3.32,12A12.82,12.82,0,0,0,231,304.07l0-.87.73.48a18.18,18.18,0,0,0,12.54,2.79,3,3,0,0,0,1.5-.52,1.38,1.38,0,0,0,.51-1.14,5.11,5.11,0,0,0-2.1-3.32,25.57,25.57,0,0,0-6.58-3.61l-1.07-.4,1-.52a7.7,7.7,0,0,0,3.74-6.06,23.26,23.26,0,0,0-.71-7.46c-2.07-1.08-4.71,1-6.38,3.13h0c-3.91,5-4.73,5-8,4.2a29.75,29.75,0,0,0-4.19-.82A12.75,12.75,0,0,0,220.74,289.88Z"/></g></g></svg>