<svg xmlns="http://www.w3.org/2000/svg" viewBox="0 0 987.8 988.02"><defs><style>.cls-1{fill:none;}.cls-2{fill:#f6c651;}.cls-3{fill:#655422;}.cls-4{fill:#fff;}.cls-5{fill:#f6ecfb;}.cls-6{fill:#b985d1;}.cls-7{fill:#7f7e35;}.cls-8{fill:#304f25;}.cls-9{fill:#353e18;}.cls-10{fill:#f7d1e4;}.cls-11{fill:#eb5ea0;}.cls-12{fill:#f8ebfb;}.cls-13{fill:#d8a8f3;}</style></defs><g id="Layer_2" data-name="Layer 2"><g id="background"><rect class="cls-1" width="987.8" height="987.8"/></g><g id="drawing"><circle class="cls-2" cx="503.8" cy="468.19" r="431.9"/><path d="M487.5,533.9c-13.87-9.32-26.69-9.47-35.66-9.44s-14.14.22-18.82,1-8.9,2.1-14.17,3.41-11.62,2.6-22.37,5.88c5.25.34,10.72-.73,16.61-1.78a172,172,0,0,1,17.84-2.44,90,90,0,0,1,15.63.44,84.65,84.65,0,0,1,14.52,2.58,48,48,0,0,1,11.05,4.91c3.12,1.84,5.77,3.71,8.5,4.7a10.43,10.43,0,0,0,7.77,0c2.22-1,3.84-3.16-.8-9.22a.1.1,0,0,0-.05,0Z"/><path d="M544.54,547.87c7.34-1.19,17,.49,24.91,2.1s14.23,3.12,20.64,5.67,13,6.11,31.61,22.18c-18.05-8.53-29.26-14-37.11-16.48s-12.35-2-17.37-2.2S556.64,558.18,544.54,547.87Z"/><path d="M497.57,420.57c-36-4.68-71.33,10-101.6,28.24-13.29,8-26.29,17.11-36.3,29.1A67.89,67.89,0,0,0,348,497.48c-3.14,8.36-4,17.44-7.72,25.59-6.94,15.13-21.5,25.13-35.1,33.77-14.85,9.42-30.54,17.83-43.79,29.53-11.72,10.37-21.61,23.89-24.94,39.41a47.65,47.65,0,0,0,.58,22.49,81.91,81.91,0,0,0,8.08,18.63c6.78,12,15.48,23.32,19.84,36.56a41.1,41.1,0,0,1,1.92,19c-1.24,8.25-5.25,15.85-6.12,24.17a19.28,19.28,0,0,0,1.86,11.09c.64,1.25,5.26-.24,4.91-.91-3.85-7.46-1.24-15.7,1.11-23.19,2.21-7,4.11-13.91,3.37-21.31-1.33-13.32-9-25-15.9-36.14-7-11.41-14.47-23.48-15.67-37.15-1.4-16,6-31.24,16.07-43.17,10.91-12.94,25.48-22,39.77-30.78,14-8.55,28.81-16.92,39.9-29.21a52.41,52.41,0,0,0,11.72-21c2.31-8.13,3.77-16.34,7.62-24,6.91-13.63,18.45-24.2,30.75-32.93A237.89,237.89,0,0,1,430.91,433c16-6.77,33.06-11.51,50.53-11.55a97.1,97.1,0,0,1,12.86.83,5.91,5.91,0,0,0,3.48-.65c.75-.45.77-1-.21-1.08Z"/><path d="M518,428.41c28.55,2.24,57.19,7.13,83.9,17.76,23.41,9.31,45.2,23.21,62.15,42a126.13,126.13,0,0,1,22.25,34.22c.42,1,5.06-.37,5-.59-9.84-22.68-26.76-41.68-46.76-56-22.23-15.89-48.15-25.74-74.71-31.58a353.42,353.42,0,0,0-48.36-6.86,9.14,9.14,0,0,0-3.52.42c-.77.26-.86.56.08.63Z"/><path d="M505.93,431.33a101,101,0,0,0,38.31,28.14,109.8,109.8,0,0,0,23.18,6.61c8.12,1.45,16.34,2.41,24.35,4.41,7.68,1.92,15.08,5,21.16,10.18s10.48,11.51,14.74,18,8.47,13.28,13.62,19.25A103.38,103.38,0,0,0,659,534c13,9.46,27.67,16.45,42.32,23l5.54,2.47a3.36,3.36,0,0,0,3.37-.84c.68-.65,1.06-1.83,0-2.32-14.66-6.51-29.44-13.11-42.83-22a112.56,112.56,0,0,1-18.34-15,120.33,120.33,0,0,1-14.29-18.72c-4.23-6.51-8.43-13.14-13.81-18.78a49.33,49.33,0,0,0-19.72-12.58c-15.38-5.36-32-5.22-47.46-10.48A98.74,98.74,0,0,1,514,433.15q-2.07-2.19-4-4.5c-1.27-1.51-5.61.86-4.1,2.68Z"/><path d="M503,438.31c7.3,14.65,21.18,24.35,35.6,31.22,15.54,7.42,32.21,12,47.87,19.17a108.14,108.14,0,0,1,22.3,13.13c7,5.47,12.51,12.22,17.41,19.55,5.09,7.61,9.66,15.56,15.29,22.8a75.41,75.41,0,0,0,19.25,17.46c14.61,9.25,31.67,13.87,48.49,17.22,2.16.43,4.33.84,6.49,1.24a2.26,2.26,0,0,0,2.51-2.1c0-1.44-1.22-2.2-2.46-2.43-16.42-3-33.19-6.88-47.93-15a72,72,0,0,1-19.59-15.46c-5.86-6.68-10.4-14.38-15.19-21.83s-10-14.85-16.6-20.91a96.75,96.75,0,0,0-21.41-14.52c-15.39-7.88-32-12.63-47.91-19.38-14-6-28.37-14-36.88-27a49,49,0,0,1-2.9-5.08c-1.3-2.61-5.76-.9-4.34,1.95Z"/><path d="M499.48,431.92c-32.89.52-64.62,13.58-91.36,32.15-12.43,8.63-24,18.86-32.45,31.53a98.22,98.22,0,0,0-9.92,20.31c-2.64,7.05-5.08,14.26-9,20.74-4.25,7-10.28,12-17.26,16.15-6.32,3.78-12.81,7.18-18.6,11.78a88.66,88.66,0,0,0-24.3,30.88A114.19,114.19,0,0,0,286,634a125.26,125.26,0,0,0-.33,20.68,178.83,178.83,0,0,0,3.48,23c1.73,8.63,3.4,17.43,2.71,26.27-.72,9-4.5,17.31-7.66,25.7a101,101,0,0,0-3,63c.19.7,3.09-.07,2.89-.78a101.47,101.47,0,0,1-.7-50.87c2.05-8.34,5.63-16.08,8.4-24.18a57.67,57.67,0,0,0,2.76-25.11c-.92-8.8-3.17-17.37-4.6-26.09a124.16,124.16,0,0,1-1.62-20A119.8,119.8,0,0,1,295,605.76a94.22,94.22,0,0,1,20-33.55,79,79,0,0,1,15.56-12.73c6.5-4.06,13.49-7.37,19.48-12.22,11.76-9.52,15.3-24.3,20.82-37.68,5.86-14.18,15.54-26,27.14-35.92a182.78,182.78,0,0,1,40.57-25.82c15-7.1,31.17-12.17,47.75-13.95q5.92-.63,11.89-.72c.84,0,3.15-1.28,1.24-1.25Z"/><path d="M490.39,444.51c-18.3,2.92-35.47,10-52.36,17.36-7.73,3.37-15.67,6.59-22.24,12a57.44,57.44,0,0,0-12.28,14.48c-14.28,23.41-16.09,53.57-37.06,72.92-12.19,11.26-27.76,18-40,29.24-5.65,5.18-10.73,11.3-13.74,18.42a36.17,36.17,0,0,0-2,21.84c3.45,16.05,15,28.78,21.17,43.69A62.91,62.91,0,0,1,337,699.88,45.76,45.76,0,0,1,329.43,724c-4.57,7-10.32,13.18-14.68,20.34A73.31,73.31,0,0,0,305.92,767c-3.49,16.12-2.42,32.93-.19,49.15.56,4.1,1.21,8.18,1.91,12.26.2,1.2,3.11.49,2.89-.77-2.79-16.42-5-33.2-3.39-49.86a83.5,83.5,0,0,1,5.48-23.47c3.14-7.76,7.86-14.39,12.94-21,5-6.43,9.82-13,12.3-20.81a51.4,51.4,0,0,0,1.2-24.43,76.05,76.05,0,0,0-8.33-22.82c-3.84-7.15-8.3-14-11.91-21.24-3.48-7-6.24-14.64-6-22.56s3.27-15.06,7.87-21.28c9.76-13.19,24.65-20.65,37.78-29.91,6.43-4.53,12.55-9.62,17.4-15.86a83.5,83.5,0,0,0,9.87-16.7c5.61-12.22,9.22-25.22,14.61-37.53,5.51-12.58,13.15-24,25.53-30.62,7.85-4.21,16.29-7.52,24.5-10.93a217.51,217.51,0,0,1,26.32-9.3,130.71,130.71,0,0,1,13.41-2.91c.54-.08,1.58-.39,1.61-1.09s-.75-.91-1.3-.82Z"/><path d="M494.82,457.85a170.41,170.41,0,0,0-42.42,14,172.48,172.48,0,0,0-19.09,10.82c-5.8,3.81-11.51,7.95-14.63,14.34-3,6.21-3.86,13.17-5.51,19.82a98.94,98.94,0,0,1-7.07,19.27c-6,12.43-14.34,23.64-23.55,33.89-4.68,5.2-9.61,10.18-14.68,15s-10.24,9.24-15.22,14-9.51,9.85-12.18,16.13c-2.83,6.64-3.25,13.94-2.25,21,2.12,15.12,10.31,28.23,15.43,42.38a62.28,62.28,0,0,1,4.13,22.62,81,81,0,0,1-4.44,23.45c-4.49,13.6-12.65,28-6.51,42.41,4.44,10.42,14.05,18.29,17.07,29.35a19.64,19.64,0,0,1,.51,8c-.18,1.24,2.76.76,2.91-.32,1.62-11.36-6.86-20.49-12.73-29.23-3.32-4.92-6.23-10.21-6.94-16.2-.9-7.64,1.57-15.24,4.18-22.31,2.73-7.37,5.6-14.64,7.25-22.35a64,64,0,0,0,1-22.92c-2.25-14.74-10.36-27.55-15.31-41.4-2.52-7.06-4.36-14.58-4.12-22.13a34.62,34.62,0,0,1,7.08-20c4.17-5.53,9.52-10,14.63-14.65s10-9.22,14.75-14.06c9.55-9.68,18.48-20.1,25.67-31.68a113.53,113.53,0,0,0,14.66-36.73c1.47-6.92,3.11-14.06,8.16-19.34s11.66-9,17.83-12.5a165.44,165.44,0,0,1,41.13-16.76c3.54-.91,7.1-1.69,10.69-2.38,1.8-.34,1.33-1.95-.43-1.61Z"/><path d="M357.68,601.68c-4.72,26,6.22,51.3,17.61,74,11,22,23.51,44.55,24.27,69.76.38,12.76-2.28,25.66-9.49,36.36-.41.61.35,1.06.86,1.13a2,2,0,0,0,1.89-.87c13.18-19.54,11.31-45.13,4-66.48-8.45-24.59-23.54-46.29-31.76-71-4.62-13.88-7.06-28.68-4.42-43.21.25-1.37-2.71-1-2.93.25Z"/><path d="M501.58,450.71c5.6,14.37,15.76,26.25,28,35.41,12.66,9.45,27.31,16.1,42.32,20.84,7.72,2.44,15.74,3.92,23.36,6.68a36.9,36.9,0,0,1,10.83,5.85A30.22,30.22,0,0,1,614,530.1c2,4.09,3.51,8.37,5.22,12.57s3.59,8.54,5.58,12.72A116.42,116.42,0,0,0,639,578.77c10.57,13.13,26.29,23.52,43.61,23.78a44.62,44.62,0,0,0,6.33-.35c.58-.07,1.55-.4,1.62-1.1s-.78-.9-1.31-.84c-17.18,2.19-33.79-7.09-44.94-19.59a103.86,103.86,0,0,1-15-22.75c-4.08-8.11-7.3-16.57-10.8-24.94a44.47,44.47,0,0,0-6.18-11.14,29.48,29.48,0,0,0-9.56-7.53c-7.25-3.71-15.34-5.2-23.12-7.38-15-4.17-29.56-10.14-42.55-18.71-12.63-8.33-23.76-19.38-30.4-33.13-.81-1.69-1.55-3.41-2.24-5.16-.46-1.2-3.34-.37-2.89.78Z"/><path d="M497.52,465.74a107.11,107.11,0,0,0,44.79,46,105.51,105.51,0,0,0,30.25,10.87c5.5,1.07,11.42,1.22,16.55,3.65s7.79,7.28,8.17,12.79-1,11.16-2,16.62a49.86,49.86,0,0,0-.56,16.21,45.67,45.67,0,0,0,5.6,16,44.56,44.56,0,0,0,4.73,6.68c1.83,2.14,4,3.93,6,5.92s3.77,4.64,3.18,7.7-2.88,5.46-5.36,7.12c-4.84,3.24-10.22,5-13.44,10.2-2.74,4.4-3.53,9.8-3.25,14.9.33,6,1.73,11.94,2.86,17.79,2.21,11.39,4.7,23,3.91,34.66a54.78,54.78,0,0,1-4.11,17.51,74.83,74.83,0,0,1-10.51,16.93c-4.06,5.18-8.45,10.09-12.73,15.08-3.85,4.48-7.44,9.16-11.58,13.38a114.83,114.83,0,0,1-28.62,21.1c-10.28,5.37-21.61,9.33-33.25,10.06-12,.76-23.9-2.63-34.38-8.37C441.2,766.27,426.6,744.45,414,722.83c-6.85-11.72-13.62-23.49-20.11-35.41-6.62-12.15-13.14-24.53-18.2-37.42a76,76,0,0,1-4.89-18.24,95.55,95.55,0,0,1-.58-14.65,108,108,0,0,1,5.53-31.72,54.37,54.37,0,0,1,6-12.53c.62-.91-2.21-.54-2.65.11-5.66,8.41-8.47,18.59-10.15,28.49a107.9,107.9,0,0,0-1.07,31.07c1.65,13.34,7.83,25.77,13.71,37.68,6.27,12.68,13.19,25,20.22,37.3,12.84,22.44,25.49,46.53,45.9,63.13,9.25,7.52,20.05,13.46,31.71,16.18,11.24,2.61,22.75,1.78,33.8-1.34a110.7,110.7,0,0,0,32.11-15.34A118.34,118.34,0,0,0,559,759.19a131.46,131.46,0,0,0,11.84-12.91c8.37-10.11,18-19.59,24.34-31.2,5.81-10.65,7.46-22.54,6.42-34.52-1-12.18-4.24-24-6-36.13-.84-5.59-1-11.35,1.29-16.65a16.51,16.51,0,0,1,5.26-6.87c2.57-1.92,5.56-3.16,8.26-4.86,4.41-2.78,8.85-8.12,5.79-13.46-1.36-2.36-3.54-4.05-5.48-5.9a42.88,42.88,0,0,1-5.55-6.48,45.33,45.33,0,0,1-7.25-33.52c1.6-9.55,5.85-23-3.58-30-4.48-3.31-10.31-3.89-15.64-4.7a101,101,0,0,1-16.62-4,107.65,107.65,0,0,1-53-38.83A102.11,102.11,0,0,1,500.42,465c-.41-.82-3.21.16-2.9.78Z"/><path d="M613.26,575.19l14.47,24.4,7.23,12.2c2.26,3.81,4.62,7.58,6.66,11.51,3.78,7.28,6,15.3,2.59,23.16-2.94,6.78-8.62,12-13.77,17.07-5.33,5.29-10.64,11.46-12.37,19a16.88,16.88,0,0,0,.8,10.57c1.61,3.66,4.44,6.63,5.86,10.4a21.3,21.3,0,0,1-3.43,20.8c-3.94,4.75-10.17,8.51-12,14.72-2.07,7.1,3.64,12.62,7.9,17.46a34,34,0,0,1,8.72,21.12,32.22,32.22,0,0,1-.32,6c-.12.86,2.76.33,2.87-.46a33.59,33.59,0,0,0-4.56-22.37,64.83,64.83,0,0,0-6.75-8.4c-2.27-2.59-4.53-5.46-5.21-8.92-1.37-7,4.85-11.91,9.27-16.31a26.4,26.4,0,0,0,5.94-8.16,22.26,22.26,0,0,0,1.71-10.45,22.53,22.53,0,0,0-3.83-10.63c-2.17-3.35-4.26-6.56-4.55-10.65-.56-7.84,4.48-15.18,9.54-20.68s10.8-10.15,14.82-16.43a24.21,24.21,0,0,0,3.82-9.8,24.79,24.79,0,0,0-1.48-11.72,67.29,67.29,0,0,0-5.73-11.45q-3.57-6.06-7.17-12.1l-14.6-24.61-3.55-6c-.48-.8-3.22.25-2.9.78Z"/><path d="M664.06,608.86c8,8.65,10.76,20.56,9.91,32.08a64.36,64.36,0,0,1-4,17.79c-2.2,5.88-5.42,11.13-8.52,16.56s-5.88,11.57-5.31,18.13c.44,5.19,2.61,10.05,5,14.62,4.45,8.56,11.88,18.42,9.34,28.64-1.72,6.92-7.71,11.2-11.29,17.05-2.88,4.72-4.23,12.17.73,16,.62.49,3.16-.66,2.73-1-4.61-3.6-3.45-10.48-.93-15,3-5.43,8.35-9.28,10.78-15.1,4.17-10-2.22-20-6.88-28.47-2.55-4.68-5.1-9.52-6.17-14.78-1.26-6.24.38-12.14,3.25-17.7,3-5.77,6.68-11.1,9.19-17.13a67.22,67.22,0,0,0,4.59-16.82c1.73-12.77-.74-26.24-9.7-35.93-.5-.53-3.18.51-2.73,1Z"/><path d="M695.78,612.72c3.28,9.19,6.61,18.57,7.41,28.36a51.48,51.48,0,0,1-1,14.44c-1,4.78-2.36,9.45-3.45,14.2A217,217,0,0,0,694.63,699a46.26,46.26,0,0,0,.57,14.43c1,4.45,3,8.57,4.7,12.8a45.58,45.58,0,0,1,.92,31.15c-.54,1.61,2.36,1.66,2.79.37a46.92,46.92,0,0,0,.78-27.61c-1.28-4.54-3.42-8.77-5-13.21a37.67,37.67,0,0,1-2.06-14.32c.2-4.94.86-9.87,1.44-14.78s1.24-9.89,2.21-14.77c1.89-9.65,5.47-19,5.32-28.95-.18-11.14-3.91-21.78-7.61-32.16-.48-1.37-3.37-.57-2.9.77Z"/><path d="M523.73,647a39.27,39.27,0,0,1-16,17.6c-1.09.63-1.1-2-1.06-2.48.11-1.17.41-3.09,1.55-3.75a34.87,34.87,0,0,0,8.33-6.62,32.66,32.66,0,0,0,3.16-3.94c.5-.75,1-1.5,1.41-2.28.21-.37.42-.74.62-1.12.39-.74-.21.45.15-.3.12-.23.23-.46.33-.7.32-.66,1.27-2.13,1.85-.83a6.16,6.16,0,0,1-.38,4.42Z"/><path d="M469.28,643.68a39.32,39.32,0,0,0,15.59,17.94c1.07.65,1.14-2,1.11-2.46-.09-1.17-.34-3.1-1.48-3.78a35.31,35.31,0,0,1-8.18-6.79,32.45,32.45,0,0,1-3.07-4c-.48-.75-.94-1.52-1.37-2.3-.2-.38-.4-.75-.59-1.13-.38-.75.2.45-.15-.31-.11-.23-.21-.47-.31-.7-.3-.67-1.22-2.17-1.83-.87a6.2,6.2,0,0,0,.28,4.42Z"/><path d="M541,705.54a19.59,19.59,0,0,1-13.74-5.14c-1.18-1.08-2.35-2.19-3.53-3.3-4.65-4.39-9.45-8.94-15.22-11.59a23,23,0,0,0-10.4-1.86,52.19,52.19,0,0,0-6.39,1.79c-3.82,1.2-3.84,1.18-4.12,1-4.12-2.59-9.75-3.27-15.44-1.86-5.46,1.35-10.39,4.34-14.49,7.08l-1,.69c-3.12,2.1-6.35,4.28-10.06,5.23-4.07,1-11.35.26-14-3.37l.81-.59c2.34,3.25,9.21,3.94,12.91,3,3.54-.91,6.7-3,9.75-5.09l1-.69c4.18-2.79,9.2-5.83,14.81-7.22,5.89-1.46,11.73-.77,16.07,1.89.47-.1,2-.59,3.43-1a45,45,0,0,1,6.67-1.83,24,24,0,0,1,10.84,2c5.92,2.72,10.78,7.32,15.48,11.77,1.18,1.11,2.35,2.22,3.52,3.29A18.87,18.87,0,0,0,542,704.52l0,1C541.65,705.54,541.3,705.54,541,705.54Z"/><path d="M491.8,720.91c-1.95,0-3.9-.06-5.85-.2-22.61-1.51-38.09-12.7-51.44-24.55l.67-.75c13.22,11.74,28.52,22.81,50.83,24.31a83.28,83.28,0,0,0,52.92-14.26l.57.83A83.79,83.79,0,0,1,491.8,720.91Z"/><path d="M533.39,707.3a25.41,25.41,0,0,1-11.31-2.63C521,704.15,520,703.54,519,703a24.58,24.58,0,0,0-6-2.85c-4.05-1.1-8.12-.08-12.43,1a39.2,39.2,0,0,1-9.1,1.53c-4.08,0-8.05-1.28-11.86-2.54a56.2,56.2,0,0,0-7.81-2.17,54.87,54.87,0,0,0-12.48-.23l-19.65,1.12-.06-1,19.65-1.13a55.23,55.23,0,0,1,12.71.25,56.65,56.65,0,0,1,7.95,2.2c3.7,1.23,7.52,2.49,11.42,2.49h.13a38.13,38.13,0,0,0,8.85-1.5c4.25-1.06,8.64-2.17,12.94-1a26,26,0,0,1,6.23,3c1,.58,2,1.18,3,1.69a24.57,24.57,0,0,0,16.86,1.77l.25,1A24.85,24.85,0,0,1,533.39,707.3Z"/><path d="M537.71,582c11.37,10.16,26.81,13.2,41.6,13.9,4.77.22,9.54.23,14.32.25.64,0,1.59-.19,1.9-.84s-.25-1-.84-1c-18.63-.05-39.57-.31-54.31-13.48-.86-.77-3.59.38-2.67,1.2Z"/><path d="M415.16,568.43c5.23,4.74,13,5.4,19.65,6.49,7.71,1.25,15.62,1.94,23.31.19a32.17,32.17,0,0,0,11-4.75c.5-.35.73-1,.18-1.41a2,2,0,0,0-2.07.2c-7.24,5-16.31,5.54-24.8,4.67-4.59-.47-9.16-1.27-13.7-2.14-3.87-.74-7.92-1.78-10.91-4.49-.91-.83-3.64.35-2.66,1.24Z"/><path d="M561.21,755.89q14.07,27.09,29.7,53.33l.12-1c-13.67,13.82-32.4,21.66-51.09,26A140.25,140.25,0,0,1,508,838a152.34,152.34,0,0,1-29.19-3.16q-6.49-1.31-12.91-2.9a64.83,64.83,0,0,1-9-2.57l.61.57A92.63,92.63,0,0,1,453.75,815c-2-10.51-3.37-21.15-5-31.72L445.88,765c-.2-1.3-3.11-.58-2.9.77q2,13.07,4.09,26.11c1.33,8.51,2.43,17.09,4.11,25.54a81,81,0,0,0,3.36,13c.43,1.12,2.21,1.36,3.27,1.67,2.38.7,4.78,1.31,7.19,1.9,13.25,3.24,26.71,5.73,40.38,6a145.15,145.15,0,0,0,46.28-7c13.79-4.36,27.23-10.85,38.1-20.54,1.26-1.13,2.49-2.29,3.69-3.5a.81.81,0,0,0,.12-1q-15.63-26.24-29.71-53.33c-.57-1.1-3.34-.06-2.65,1.26Z"/><path d="M594.5,809.43c18.74,13.8,43.47,13.08,65.45,16.7,26.27,4.32,51.74,12.73,77,20.79,23.63,7.52,47.38,15.84,68.25,29.52A170.53,170.53,0,0,1,851,921.26a201.05,201.05,0,0,1,28,58.37q1.14,3.86,2.13,7.75c.33,1.26,3.23.49,2.9-.78a205.77,205.77,0,0,0-25.67-59.54,176.54,176.54,0,0,0-43.34-47c-19.77-14.65-42.74-23.91-65.93-31.64-12.34-4.1-24.77-8-37.21-11.74-12.82-3.89-25.73-7.53-38.84-10.28-12-2.53-24.16-3.85-36.33-5.44-11.24-1.46-22.75-3.45-32.9-8.74a53.36,53.36,0,0,1-7-4.4c-1-.71-3.54.66-2.25,1.62Z"/><path d="M452.6,828.18c-4.54,6.05-11.9,9.19-18.29,12.84q-12.4,7.08-25.31,13.23a123.07,123.07,0,0,1-12.9,5.37c-4.26,1.47-8.59,2.76-12.88,4.15a171,171,0,0,0-25.64,11c-8.36,4.31-16.49,9-24.56,13.86-7.69,4.6-15.39,9.18-22.91,14-14.82,9.54-28.71,20.28-40.49,33.44a184.74,184.74,0,0,0-29.25,43.54q-1.37,2.89-2.61,5.84c-.28.64,2.52.36,2.87-.46a177.65,177.65,0,0,1,27.91-44.73,164.68,164.68,0,0,1,18.24-18.64,211.61,211.61,0,0,1,21.27-15.94c7.46-5,15.13-9.6,22.82-14.2,8-4.79,16-9.56,24.23-14a175.82,175.82,0,0,1,25.47-11.67c8.56-3,17.37-5.21,25.64-8.94,8.73-3.92,17.27-8.35,25.64-13q5.2-2.89,10.41-5.81a56.19,56.19,0,0,0,9.34-6.22,23.62,23.62,0,0,0,3.65-3.83c.65-.86-2.18-.51-2.65.11Z"/><path d="M283.39,922.78c.65,0,1.59-.18,1.9-.85s-.24-1.09-.85-1.09-1.59.18-1.9.85.24,1.09.85,1.09Z"/><path class="cls-3" d="M607.29,358.1a.5.5,0,0,1-.5-.49c-1.11-55.07,16.91-107.74,34.34-158.68,5.18-15.15,11.06-32.32,23.24-44.59a.49.49,0,0,1,.7,0,.5.5,0,0,1,0,.71c-12,12.1-17.86,29.16-23,44.2-17.4,50.86-35.39,103.45-34.28,158.34a.49.49,0,0,1-.49.51Z"/><path class="cls-3" d="M816.16,199.25c-33.36,7.84-45.32,11.47-59.42,13.58S726.4,215.5,712,217.3s-27.1,4.81-36.56,8.91-15.74,9.26-24.91,18.91-21.22,23.77-27.75,33.35-7.54,14.62-11,20-9.25,11.27-16.53,21.68a132.39,132.39,0,0,0-21,46.91c-5,21.52-6.35,49.59-5.62,66.11s3.52,21.51,10.7,29.21c16.5,1.7,37.55-19.06,56.2-38.3s34.89-37,52.11-54.38S723,335.2,736.06,320.57a187.74,187.74,0,0,0,28.36-41.22c7.5-14.45,14.63-31.22,20.61-45.49S795.82,207.81,816.16,199.25Z"/><path class="cls-4" d="M579.54,462.5l-.48-.14c8.38-28.72,17.4-51.91,29.25-75.2a309.67,309.67,0,0,1,40.12-60.87c16.24-19.63,41.89-47.53,96.46-89.32l.3.4C690.66,279.13,665,307,648.81,326.61a309.36,309.36,0,0,0-40.06,60.78C596.92,410.64,587.92,433.81,579.54,462.5Z"/><path class="cls-5" d="M375.17,49.43c3.41,8.71,8.19,13.49,12.44,23.25"/><path class="cls-6" d="M387.15,72.88a88.76,88.76,0,0,0-6.34-11.7,70.27,70.27,0,0,1-6.11-11.57l.93-.37a69.31,69.31,0,0,0,6,11.42,89.18,89.18,0,0,1,6.41,11.82Z"/><path class="cls-5" d="M431.33,97.52a26.16,26.16,0,0,1,1.38,4.2c1.07,4.57.74,10-.46,16.21s-3.29,13-2.8,20.36l-2.4,3.92c-9.07-4.54-13.16-9.53-16.81-13.83s-6.88-7.94-8.49-10.76-1.61-4.84-2.52-7.21a21.13,21.13,0,0,0-5.44-7.61,31.94,31.94,0,0,0-3.78-3c2.24-9.46.23-12.43-1-15.36a23.15,23.15,0,0,1-1.51-9.55c0-3.72.53-8.27.64-11.75s-.16-5.89.21-7.37,1.4-2,2.68-1.5,2.84,2.07,5,3.94,4.79,4.07,7.52,6.21A85.32,85.32,0,0,1,411.37,71,30.92,30.92,0,0,1,417,78.75c1.53,3,2.76,6.32,5.35,8.9S428.9,92,431.33,97.52Z"/><path class="cls-6" d="M427.23,142.86l-.41-.21c-8.92-4.46-13-9.32-16.67-13.6l-1.8-2.12a71,71,0,0,1-7-9.06,17.66,17.66,0,0,1-1.82-4.81,19.3,19.3,0,0,0-.74-2.47,20.62,20.62,0,0,0-5.31-7.42,30.62,30.62,0,0,0-3.72-2.93l-.29-.19.08-.34c2-8.33.64-11.41-.55-14.14-.13-.31-.26-.61-.38-.91A23.59,23.59,0,0,1,387,74.92c0-2.08.19-4.4.34-6.64.13-1.84.25-3.58.3-5.13,0-1.31,0-2.47,0-3.49a17.52,17.52,0,0,1,.22-4,2.68,2.68,0,0,1,1.3-1.84,2.44,2.44,0,0,1,2.05,0,16.39,16.39,0,0,1,4,3c.36.33.73.67,1.13,1,2,1.76,4.58,3.9,7.5,6.19L405,65a73,73,0,0,1,6.71,5.67,31.29,31.29,0,0,1,5.74,7.89c.35.67.68,1.35,1,2a23.23,23.23,0,0,0,4.25,6.74,28.35,28.35,0,0,0,2.35,2c2.3,1.83,4.91,3.91,6.72,8h0a28.24,28.24,0,0,1,1.4,4.28c1,4.31.85,9.68-.46,16.41-.26,1.32-.56,2.67-.86,4-1.14,5.16-2.31,10.49-1.93,16.2v.16ZM390.57,99.61a30.73,30.73,0,0,1,3.56,2.83,21.78,21.78,0,0,1,5.57,7.79,23.76,23.76,0,0,1,.77,2.58,16.72,16.72,0,0,0,1.72,4.56,70.61,70.61,0,0,0,6.92,8.91l1.81,2.12c3.51,4.15,7.49,8.84,15.94,13.15l2.08-3.38c-.36-5.8.87-11.39,2-16.32.3-1.37.6-2.71.85-4,1.29-6.59,1.45-11.82.48-16a26.4,26.4,0,0,0-1.36-4.13,19.26,19.26,0,0,0-6.42-7.61A32.06,32.06,0,0,1,422,88a24,24,0,0,1-4.44-7c-.33-.69-.66-1.36-1-2A30.48,30.48,0,0,0,411,71.34a73.29,73.29,0,0,0-6.63-5.6l-1.15-.89c-2.93-2.31-5.54-4.46-7.55-6.24l-1.13-1a16,16,0,0,0-3.67-2.82,1.48,1.48,0,0,0-1.23,0,1.76,1.76,0,0,0-.78,1.2,16.89,16.89,0,0,0-.19,3.72c0,1,0,2.2,0,3.53-.05,1.57-.17,3.32-.3,5.17-.15,2.23-.31,4.54-.34,6.58a22.52,22.52,0,0,0,1.47,9.35c.12.3.25.59.38.89C391.06,87.86,392.51,91.2,390.57,99.61Z"/><path class="cls-5" d="M429.45,138.29c-.49-7.34,1.59-14.2,2.8-20.36s1.53-11.64.46-16.21-3.51-8.24-4.61-11.87a27.4,27.4,0,0,1-.66-10c.19-2.79.32-4.78,2.06-7.65s5.09-6.62,6.07-13.48c3.43,4.41,3.92,6.74,5.27,8.84s3.55,4,5.3,7.16a37,37,0,0,1,3.72,13.15,69.26,69.26,0,0,1-.33,18.28,52,52,0,0,1-6.43,18.61C439.61,130.7,434.59,136.33,429.45,138.29Z"/><path class="cls-6" d="M429,139l-.05-.67c-.39-5.86.85-11.5,1.95-16.48.3-1.37.6-2.71.85-4,1.29-6.59,1.45-11.82.48-16a36.83,36.83,0,0,0-2.66-7.07A39.76,39.76,0,0,1,427.62,90a27.68,27.68,0,0,1-.68-10.19c.19-2.85.33-4.9,2.14-7.88.32-.54.7-1.1,1.12-1.72a25.91,25.91,0,0,0,4.88-11.57l.16-1.16.73.93a33.46,33.46,0,0,1,4.11,6.67,20.48,20.48,0,0,0,1.18,2.2,23.46,23.46,0,0,0,1.92,2.48,28.73,28.73,0,0,1,3.4,4.71,37.48,37.48,0,0,1,3.77,13.33,69.77,69.77,0,0,1-.33,18.42A52.12,52.12,0,0,1,443.53,125c-4,6.82-9.19,12-13.9,13.76Zm6.87-79.07A27.5,27.5,0,0,1,431,70.76c-.41.6-.78,1.16-1.1,1.68-1.68,2.77-1.8,4.62-2,7.43a26.66,26.66,0,0,0,.64,9.83,38,38,0,0,0,1.9,4.65,37.54,37.54,0,0,1,2.72,7.26c1,4.31.85,9.68-.46,16.41-.26,1.32-.56,2.67-.86,4-1.09,5-2.22,10.05-2,15.5,4.33-1.92,9.06-6.75,12.76-13.07A51.34,51.34,0,0,0,449,106.05a68.92,68.92,0,0,0,.32-18.14,36.24,36.24,0,0,0-3.66-13,27.33,27.33,0,0,0-3.28-4.55,23.75,23.75,0,0,1-2-2.59,21.68,21.68,0,0,1-1.24-2.3A32,32,0,0,0,435.87,59.93Z"/><path class="cls-5" d="M427.05,142.21c-9.07-4.54-13.16-9.53-16.81-13.83s-6.88-7.94-8.49-10.76-1.61-4.84-2.52-7.21a21.13,21.13,0,0,0-5.44-7.61A28.77,28.77,0,0,0,384.47,97c-3-1-5.29-.71-8.06-.81a26.34,26.34,0,0,1-8.12-1.46c-2.11-.86-3.12-2.06-5.82-2.9s-7.08-1.28-9.49,2.35c10.88,12.09,17.53,23.58,25.09,31.74a57.35,57.35,0,0,0,24,15.66C410,144.19,417.41,144.66,427.05,142.21Z"/><path class="cls-6" d="M415.29,144.31a41.51,41.51,0,0,1-13.41-2.3,57.62,57.62,0,0,1-24.18-15.79,157,157,0,0,1-10.6-13.44,224.55,224.55,0,0,0-14.5-18.31l-.26-.29.22-.32c2.82-4.23,8-3.19,10.06-2.54a14.4,14.4,0,0,1,3.64,1.73,15,15,0,0,0,2.22,1.18,25.73,25.73,0,0,0,7.94,1.42c.65,0,1.27,0,1.88,0a18.1,18.1,0,0,1,6.33.81,29.28,29.28,0,0,1,9.5,6,21.78,21.78,0,0,1,5.57,7.79,23.76,23.76,0,0,1,.77,2.58,16.72,16.72,0,0,0,1.72,4.56,70.61,70.61,0,0,0,6.92,8.91l1.81,2.12c3.57,4.21,7.61,9,16.35,13.36l1.2.6-1.3.33A47.6,47.6,0,0,1,415.29,144.31ZM353.61,94.1a229.6,229.6,0,0,1,14.3,18.09,153.75,153.75,0,0,0,10.53,13.35,56.48,56.48,0,0,0,23.76,15.52,40.54,40.54,0,0,0,23.43,1c-8.1-4.29-12-8.9-15.48-13l-1.8-2.12a71,71,0,0,1-7-9.06,17.66,17.66,0,0,1-1.82-4.81,19.3,19.3,0,0,0-.74-2.47,20.62,20.62,0,0,0-5.31-7.42,28.37,28.37,0,0,0-9.14-5.74,17.46,17.46,0,0,0-6-.75c-.62,0-1.26,0-1.91,0a26.61,26.61,0,0,1-8.28-1.49,15.91,15.91,0,0,1-2.38-1.26,13.84,13.84,0,0,0-3.4-1.63C360.51,91.71,356.11,90.8,353.61,94.1Z"/><path class="cls-5" d="M390,99.83c2.24-9.46.23-12.43-1-15.36a21.75,21.75,0,0,1-1.51-7.91c-7.49-2.1-10.9-4.14-12.73-4.64s-2.05.55-2.09,1.86.1,2.88.16,5,0,4.71.85,6.79,2.48,3.61,2.48,10.6h.2c2.77.1,5.09-.2,8.06.81A23.89,23.89,0,0,1,390,99.83Z"/><path class="cls-6" d="M390.33,100.64l-.6-.4a24.53,24.53,0,0,0-5.42-2.81,17.46,17.46,0,0,0-6-.75c-.62,0-1.26,0-1.91,0l-.68,0v-.48c0-5.45-1-7.5-1.85-9.13-.22-.44-.43-.86-.6-1.29a18.72,18.72,0,0,1-.87-6.3v-.66c0-.81-.06-1.54-.09-2.21-.05-1-.09-2-.07-2.79a2.69,2.69,0,0,1,.76-2.17,2.25,2.25,0,0,1,2-.16,22.72,22.72,0,0,1,2.52,1,73,73,0,0,0,10.21,3.66l.35.1v.37a21.24,21.24,0,0,0,1.47,7.73c.12.3.25.59.38.89,1.18,2.73,2.66,6.12.61,14.77Zm-13.63-5c.55,0,1.08,0,1.6,0a18.1,18.1,0,0,1,6.33.81A23.71,23.71,0,0,1,389.68,99c1.74-7.8.44-10.79-.71-13.44-.13-.31-.26-.61-.38-.91a21.68,21.68,0,0,1-1.54-7.72,75.61,75.61,0,0,1-10-3.6,21.92,21.92,0,0,0-2.39-.94c-.37-.1-.86-.19-1.1,0s-.34.82-.36,1.4c0,.78,0,1.67.07,2.7,0,.68.07,1.42.09,2.23v.66a18.16,18.16,0,0,0,.8,6c.16.41.35.79.56,1.21C375.6,88.24,376.65,90.32,376.7,95.66Z"/><path class="cls-5" d="M411.08,70.7c.1.09.19.19.29.29A30.92,30.92,0,0,1,417,78.75c1.53,3,2.76,6.32,5.35,8.9s6.53,4.38,9,9.87c-1.13-2.75-2.48-5.22-3.23-7.67a27.4,27.4,0,0,1-.66-10c.19-2.79.32-4.78,2.06-7.65.32-.52.69-1.07,1.09-1.66-1.87-5.21-2.55-5.66-3.6-6.36a16.59,16.59,0,0,1-4-3.51c-1.57-1.88-3.28-4.7-4.73-4.36-3.5,2.73-3.63,5.3-4.53,7.43S411.13,67.56,411.08,70.7Z"/><path class="cls-6" d="M430.88,97.72a19.24,19.24,0,0,0-6.43-7.62A32.06,32.06,0,0,1,422,88a24,24,0,0,1-4.44-7c-.33-.69-.66-1.36-1-2A30.48,30.48,0,0,0,411,71.34l-.45-.43v-.22a10.78,10.78,0,0,1,1.74-5.39,16.51,16.51,0,0,0,.91-1.77c.19-.45.34-.92.5-1.4a11.28,11.28,0,0,1,4.18-6.23l.19-.09c1.46-.35,2.81,1.41,4.24,3.27.34.43.67.86,1,1.25a16.35,16.35,0,0,0,3.93,3.41c1.23.82,2,1.48,3.8,6.61l.08.24-.14.21c-.39.58-.76,1.13-1.07,1.64-1.68,2.77-1.8,4.62-2,7.43a26.66,26.66,0,0,0,.64,9.83,38,38,0,0,0,1.9,4.65c.44,1,.89,2,1.32,3ZM411.58,70.5l.14.13a31.29,31.29,0,0,1,5.74,7.89c.35.67.68,1.35,1,2a23.23,23.23,0,0,0,4.25,6.74,28.35,28.35,0,0,0,2.35,2,31.52,31.52,0,0,1,3.42,3,24.64,24.64,0,0,1-.87-2.34,27.68,27.68,0,0,1-.68-10.19c.19-2.85.33-4.9,2.14-7.88.28-.46.6-1,.95-1.47-1.74-4.83-2.37-5.25-3.32-5.87A17.44,17.44,0,0,1,422.57,61c-.34-.4-.68-.84-1-1.29-1-1.33-2.29-3-3.13-2.92a10.36,10.36,0,0,0-3.74,5.68c-.17.51-.33,1-.53,1.47a18.36,18.36,0,0,1-.95,1.88A10,10,0,0,0,411.58,70.5Z"/><path class="cls-3" d="M435.82,438.22a.46.46,0,0,1-.29-.1.5.5,0,0,1-.11-.69C457.15,407.24,451,377.74,446,354c-.78-3.71-1.51-7.22-2.11-10.58-2.88-16.31-2.36-28.64-1.75-42.9.33-7.75.67-15.77.56-25.51-.35-32.78-5.64-76.21-16.19-132.75a.5.5,0,0,1,.4-.58.49.49,0,0,1,.59.4c10.55,56.6,15.85,100.08,16.2,132.92.11,9.77-.25,18.16-.56,25.56-.61,14.21-1.13,26.48,1.74,42.69.59,3.34,1.32,6.84,2.1,10.55,5,23.89,11.2,53.62-10.79,84.17A.49.49,0,0,1,435.82,438.22Z"/><path class="cls-7" d="M91.7,297.94c34.26.49,51.54,4.86,66.57,6.77s27.8,1.35,43.42,2.09,34.09,2.78,49,6.09c29.84,6.61,45.48,18.29,55,25.54a90.46,90.46,0,0,1,12,10.3c4,4.15,8.63,9.94,16.83,19.22s19.94,22,29.47,42S380.9,457,383.73,473.28s1.18,21.76-4.18,30.83c-15.75,5.21-40.76-10.55-63.11-25.34s-42-28.6-62.15-41.92-40.72-26.14-55.46-37.63a141,141,0,0,1-32.15-34.16c-8.52-12.5-16.69-27.35-27.88-40S113.4,301.93,91.7,297.94Z"/><path class="cls-8" d="M372.66,505.4c-15,0-35.23-12.44-56.36-26.42-11.42-7.56-22.19-14.9-32.59-22-10.14-6.9-19.72-13.43-29.56-19.93-4.88-3.24-9.85-6.47-14.65-9.6-15.25-9.95-29.66-19.34-40.82-28a141.84,141.84,0,0,1-32.2-34.22c-2.52-3.69-5-7.52-7.55-11.58-6.12-9.58-12.44-19.5-20.32-28.4-13.25-15-28.17-23.58-47-27l0-.49a342.09,342.09,0,0,1,55.14,5.05c4,.65,7.84,1.26,11.46,1.72a260,260,0,0,0,28.31,1.64c4.82.1,9.8.2,15.09.45,17.45.83,35.33,3.05,49.05,6.1,30.23,6.69,45.82,18.52,55.14,25.58a90.94,90.94,0,0,1,12,10.32c2.24,2.35,4.74,5.26,7.9,8.94,2.52,2.93,5.37,6.25,8.94,10.29l1.24,1.4c8.1,9.13,19.19,21.64,28.27,40.63,9.38,19.62,16.79,46.63,19.71,63.43s1.06,22.08-4.22,31l0,.08-.09,0A22,22,0,0,1,372.66,505.4ZM94.47,298.24c17.64,3.79,31.84,12.31,44.52,26.65,7.9,8.93,14.23,18.86,20.36,28.46,2.58,4.06,5,7.88,7.54,11.57A141.45,141.45,0,0,0,199,399c11.15,8.7,25.55,18.08,40.79,28,4.8,3.13,9.77,6.37,14.66,9.6,9.84,6.51,19.42,13,29.56,19.94,10.4,7.09,21.17,14.42,32.59,22,24.43,16.17,47.63,30.27,62.8,25.34,6.62-11.22,6.36-17.63,4.11-30.58-2.92-16.76-10.32-43.72-19.67-63.29-9.05-18.93-20.11-31.41-28.19-40.52l-1.24-1.4c-3.58-4-6.43-7.36-8.95-10.29-3.16-3.68-5.65-6.58-7.88-8.92a88.9,88.9,0,0,0-12-10.27c-9.28-7-24.81-18.82-54.94-25.5a306.66,306.66,0,0,0-49-6.08c-5.29-.25-10.27-.35-15.08-.45A259,259,0,0,1,158.23,305c-3.62-.46-7.44-1.07-11.47-1.72A341.55,341.55,0,0,0,94.47,298.24Z"/><path class="cls-4" d="M379.33,504.23C365,478,351.22,457.32,334.67,437.14a309.34,309.34,0,0,0-52.18-50.76C262.43,370.71,231.43,349,169.2,319.92l.21-.45c62.27,29.1,93.31,50.83,113.39,66.52a309.85,309.85,0,0,1,52.26,50.83C351.63,457,365.42,477.74,379.77,504Z"/><path class="cls-9" d="M571.72,10.34c-8.3-7.83-15-8.53-20.47-7.49a28,28,0,0,0-12.94,6.49,21.8,21.8,0,0,0-6.45,8.45c-1.31,3.15-1.92,6.83-2.38,13.36s-.77,15.9-2.46,24.5a104,104,0,0,1-8.22,23.88c-3.45,7.45-7.29,14.52-9.34,19.3a32.59,32.59,0,0,0-2.71,10.59c-.42,3.33-1,7.49-.75,10.67s1.39,5.35,2.51,6.18,2.25.3,3.87.16,3.74.14,6.61.27,6.52.13,9.92,1.77,6.58,4.91,7.17,7.09c-4.76,1.59-7.53,3.67-9.78,4.81a10.44,10.44,0,0,1-5.72,1.24,12.31,12.31,0,0,1-5.42-1.54c-1.89-1-3.87-2.73-10.61-3.32-18.22,40.56-28.86,73-33.31,96.18s-2.7,36.95-1.5,46.51,1.88,14.86,2.88,17.33,2.33,2.08,3.05,1.44a6.81,6.81,0,0,1,3.94-2.61A66.62,66.62,0,0,1,494.68,293a79.88,79.88,0,0,1,15.37.7c4.13.56,6.95,1.16,8.31,2.22s1.26,2.57.1,4.18a12.55,12.55,0,0,1-5.69,4.13c-2.32.81-4.74.71-10.26,1.11a150.21,150.21,0,0,1-29.52-.16c0,31,0,45.94,3.95,61.56s11.87,31.92,18.67,44.53,12.49,21.52,21.78,26.54S539.58,444,552,440.92a59,59,0,0,0,32.43-20.67c8.05-10.43,12.23-24.08,15.17-38.59a374.4,374.4,0,0,0,5.85-46.05c1.21-16.2,1.92-33.22,3.27-45.16a131.52,131.52,0,0,1,4.83-24c1.5-5.23,2.49-8.84,2.68-12s-.44-5.91-2.37-8-5.16-3.61-9.51-3.86-9.83.75-14.12,1.74-7.41,2-12.51,3.33-12.19,3-13.31,3.39c0-8.21,9.09-13.73,16-17s11.69-4.2,15.28-4,6,1.61,8.64,2.62a27.66,27.66,0,0,0,7.51,1.74c2,.12,3.14-.26,3.14-3.77s-1.14-10.14-1.71-17.62a117.74,117.74,0,0,1,.23-22.09c.8-6.29,2.39-10.53,3-14s.31-6.16-2.26-7.88-7.39-2.45-11.66-2.22-8,1.42-12.46,2.6-9.61,2.36-12.81,3-4.42.84-4.61.06.65-2.5,2.06-3.95a32.47,32.47,0,0,1,5.63-4.07,35.9,35.9,0,0,1,9.34-4.67,99,99,0,0,1,15.6-3.41,38.58,38.58,0,0,1,7.23-.3c1.47,0,2.84-.35,1.63-3.21s-5-8.25-9-13.12-8.24-9.2-10.66-13.07-3-7.31-3.08-12,.46-10.78.41-18.44A192.12,192.12,0,0,0,590,70.54c-1.3-8.76-3.29-17-6.49-28.57S575.84,15.62,571.72,10.34Z"/><path class="cls-4" d="M545.57,442.09c-3.45-118.61,3-162.75,7.67-195l0-.17c4.7-32.3,7.8-53.63,7.8-75.76,0-20.37-2.6-41.46-5.11-61.86l-.67-5.38c-2.53-20.75-5.16-42.21,8.89-82.65l.48.17c-14,40.33-11.4,61.72-8.87,82.42l.66,5.38c2.52,20.41,5.12,41.52,5.12,61.92,0,22.16-3.1,43.51-7.8,75.83l0,.17c-4.69,32.21-11.1,76.33-7.66,194.9Z"/><path class="cls-8" d="M485.59,378c3.94-3.2,11.34-6.71,17.39-10.45A55.36,55.36,0,0,0,517.6,355a39.18,39.18,0,0,0,8.17-17.31,46.15,46.15,0,0,0-.8-19.71c-1.53-5.27-4-8.11-6.18-9.1s-3.92-.13-6.29,2.83-5.37,8-8.84,13.56-7.45,11.47-10.46,16.3-5.05,8.52-8.21,10-7.45.64-10.1-.91-3.67-3.86-3.05-6.46,2.86-5.49,5.89-9.2,6.83-8.23,10.42-12.55,7-8.43,9.49-13.5A56.64,56.64,0,0,0,502.51,292a60.32,60.32,0,0,0-.1-17.38,119.59,119.59,0,0,0-4.23-17.89,49.53,49.53,0,0,0-4.35-10.27,54.06,54.06,0,0,0-4.11-6.05c-1-1.3-1.44-1.69-1.81-1.57s-.68.76-1.21,2.48a78.41,78.41,0,0,0-2.06,8.84,102,102,0,0,1-3.86,16.47,117,117,0,0,1-9.2,19.07c-3.41,5.86-6.64,10.69-9.56,15.13s-5.54,8.46-8.61,11-6.6,3.53-9.11,3-4-2.62-4.83-5.48a17,17,0,0,1,.67-10.87c1.62-4.35,5-9.38,7.65-13.27l8.29-12.27c3.81-5.63,9.57-14.17,12.76-21.72a43.44,43.44,0,0,0,3.38-20.46,76.75,76.75,0,0,0-3.76-18.64,83.33,83.33,0,0,0-7.62-17.59,45.58,45.58,0,0,0-10.58-12.1c-3.84-3.08-7.87-5.3-10.68-5.63s-4.4,1.25-4.4,5.22,1.59,10.32,2.39,16.88a92,92,0,0,1,.17,19.69c-.62,6.39-1.86,12.4-3,18.16S432.6,248,430.53,253s-5.17,9.59-8.31,11.87a9.84,9.84,0,0,1-9.43,1.26,13.67,13.67,0,0,1-7.67-5.81c-1.53-2.75-1.53-6.19,0-10.65s4.47-10,6.29-15.79,2.48-12,3.21-18.85,1.52-14.36,1.29-21.28a57,57,0,0,0-3.7-18.93,37.27,37.27,0,0,0-9.5-14.29,31.13,31.13,0,0,0-12.82-6.9c-3.7-.86-6.08-.2-6.75,4.72s.36,14.1.76,21.94.15,14.32.56,20,1.47,10.58,1.9,15.25.23,9.09-1.62,13.09-5.36,7.57-9,8.33-7.4-1.29-9.68-4.2-3.08-6.68-3.12-11.25a97.16,97.16,0,0,1,1.64-15.79c1-5.85,2.16-12.18,1.91-17.39s-1.95-9.26-5-14.2-7.58-10.73-13.17-13.67-12.28-3-18.11-3.18-10.83-.41-15-2-7.64-4.4-10.86-6.24-6.25-2.65-9.38-1.91-6.36,3-9.91,8.41-7.41,13.84-12,20.84S263,189,259.88,193.71a21.43,21.43,0,0,0-3.83,13.71,81.53,81.53,0,0,0,2.67,16.63,60.08,60.08,0,0,0,5.35,14,45.71,45.71,0,0,0,10.61,13.73c4.7,3.9,10.65,6.55,16.23,9.33a149.46,149.46,0,0,1,14.85,8.32,75.65,75.65,0,0,1,9.42,7.3c2.54,2.28,4.79,4.47,5.06,6.42s-1.46,3.67-4.37,4.69a17.73,17.73,0,0,1-11.5-.16c-4.5-1.52-9.39-4.9-14.91-9.13s-11.67-9.32-18.32-13.42-13.78-7.21-18.61-7.08-7.34,3.51-9,6.94-2.47,6.93-1.11,12.63,4.88,13.6,9.61,18.68,10.67,7.34,18.79,10.21,18.4,6.34,26.51,10,14.07,7.43,19.1,12.1,9.17,10.23,10.07,13.52-1.43,4.34-4.28,4.87-6.25.52-11.56-2.21-12.56-8.2-20.35-12.5A124,124,0,0,0,266,322.44c-8.2-2.47-16.29-4.26-22.08-3.57s-9.31,3.88-9.67,9.08,2.4,12.39,8.28,19.23,14.85,13.29,23.91,17.44,18.21,6,27.61,7.45,19,2.52,25.37,3.41,9.3,1.63,10.54,3.31.74,4.32-1.7,6.4-6.82,3.62-11.75,4.79a62.73,62.73,0,0,1-16.43,1.83,50.34,50.34,0,0,1-17.92-3.59c-5.26-2.29-9.18-5.71-13.8-8.82s-9.94-5.9-15.12-5-10.23,5.36-11.45,9.94,1.39,9.23,5.6,13.59,10,8.45,16.38,12.19a90.51,90.51,0,0,0,20.48,9.18,52.71,52.71,0,0,0,21.22,1.82c6.75-.9,12.94-3.38,17.72-4.64s8.13-1.32,10.26-.33a4.14,4.14,0,0,1,2.21,5.45c-.81,2.4-3.34,5.18-6.13,7.63a22.66,22.66,0,0,1-10,5.54,35.69,35.69,0,0,1-13.93,0c-4.48-.86-8.16-2.41-12.47-3.59A64.12,64.12,0,0,0,281.4,429c-2.48-.11-2.48.49-1.84,3.13a31.67,31.67,0,0,0,5.89,12.4,58.22,58.22,0,0,0,16,13.6A24,24,0,0,0,316,461.42a80.26,80.26,0,0,0,14.39-2.83c4.7-1.25,9.11-2.5,13.16-5.54s7.76-7.86,11.1-11.66,6.31-6.58,9.09-8.07,5.35-1.68,7-1,2.28,2.18,2.42,4.29a11.42,11.42,0,0,1-2,7.31c-1.75,2.48-4.86,4.73-7.8,7.57a113.39,113.39,0,0,0-7.9,8.89c-2.19,2.62-3.77,4.4-3.67,6.45s1.88,4.36,5.55,6.58,9.22,4.33,16.56,5.52,16.47,1.45,24-.5a41.59,41.59,0,0,0,17.85-10.11c4.26-4,6.78-7.84,8.07-12.8s1.35-11,.86-16.26a109.06,109.06,0,0,0-2.52-13.92c-1-4.33-1.82-8.63-2.28-12.21s-.52-6.46,2.95-4.38,10.49,9.09,18.55,13.35A45.79,45.79,0,0,0,467.24,427a54.79,54.79,0,0,0,24.84-9.19,86.82,86.82,0,0,0,19.24-17.59A31.37,31.37,0,0,0,518,386a80.42,80.42,0,0,0,2-14.9c0-4-.76-6.14-1.91-6.64s-2.68.63-4.86,3.5-5,7.51-7.41,11a28.7,28.7,0,0,1-7.27,7.9c-3,2.12-7,4-10.15,4a6.53,6.53,0,0,1-6.28-4.33C481.19,384.12,481.66,381.21,485.59,378Zm-61.44-85.34c1.42-1.18,2.73-2.17,4-3.13a52.3,52.3,0,0,0,6.64-5.68,49.59,49.59,0,0,0,8.94-13.53c2.12-4.82,3.1-9.5,4.27-17,.34-2.18.7-4.54,1.13-7.45,1-6.62,2.34-15.68,4.87-31.41l.38.06c-2.54,15.73-3.89,24.79-4.87,31.4-.44,2.91-.79,5.28-1.13,7.46-1.18,7.51-2.17,12.21-4.3,17.06a49.67,49.67,0,0,1-9,13.65,53.67,53.67,0,0,1-6.69,5.71c-1.27,1-2.57,1.95-4,3.12a83.34,83.34,0,0,0-12.71,13.17c-4,5.33-6.87,10.89-11.19,26.49l-.37-.11c4.31-15.56,7.28-21.36,11.26-26.61A82.75,82.75,0,0,1,424.15,292.66Zm-19.1-7.11c2.06-2.09,4-3.37,5.41-3.26s2.33,1.6,3.08,3.42a12.43,12.43,0,0,1,1.13,5.76,6.69,6.69,0,0,1-3,4.55,22.58,22.58,0,0,1-6.77,3.27c-2.57.78-5.25,1.15-6.32.11s-.54-3.51.83-6.19A33.11,33.11,0,0,1,405.05,285.55Zm-8.79-38.71c.75-1.13,1.4-2.11,2-3,3.69-5.94,4.32-10,4.46-13.52s-.26-7.16-.93-13.21c-.12-1.11-.25-2.29-.39-3.57l-.27-2.53c-.87-8.23-2-18.48-3.39-23.47l.37-.11c1.43,5,2.52,15.29,3.4,23.54l.27,2.53c.14,1.28.27,2.46.39,3.57.67,6.07,1.08,9.73.93,13.27s-.78,7.69-4.52,13.7c-.58.94-1.23,1.92-2,3.05-3.68,5.52-9.83,14.76-22.22,40.77l-.34-.17C386.42,261.62,392.58,252.36,396.26,246.84Zm-73.1-80.59c.54-2,1.61-2.83,3-2.43s3.27,2,4.56,3.67a14.62,14.62,0,0,1,2.54,5.22,18.84,18.84,0,0,1,.7,5.73c-.08,1.9-.51,3.72-2,4.55a5.28,5.28,0,0,1-5.73-.86c-1.75-1.52-2.71-4.42-3.19-7.49A23.09,23.09,0,0,1,323.16,166.25Zm-35.36,39.1a6.3,6.3,0,0,1,6.07-1.41c2.54.59,5.41,2.37,8.25,4.49a60.68,60.68,0,0,1,7.91,7,20.51,20.51,0,0,1,4.54,6.66,3.57,3.57,0,0,1-1.3,4.25,10.47,10.47,0,0,1-5.34,2.13c-1.76.11-3.06-.59-4.88-1.82s-4.17-3-6.4-4.82-4.36-3.62-6.18-5.42-3.34-3.58-3.88-5.55A5.85,5.85,0,0,1,287.8,205.35ZM333,399c-2.14,1-4.16,1.92-6.14,2.72a49.74,49.74,0,0,1-16.33,3.75c-.86.06-1.74.1-2.69.1-5.59,0-13.45-1.38-31.86-8.91l.15-.35c21.46,8.78,28.51,9.16,34.38,8.78a49.46,49.46,0,0,0,16.2-3.72c2-.8,4-1.73,6.13-2.72a97.76,97.76,0,0,1,11.4-4.68,90.56,90.56,0,0,1,13-2.71c2.09-.34,4.25-.69,6.48-1.11,7-1.32,14.77-3.46,33-14.89l.2.33c-18.3,11.46-26.12,13.61-33.14,14.94-2.23.42-4.4.77-6.49,1.1a91,91,0,0,0-12.9,2.71A95.9,95.9,0,0,0,333,399Zm37.88,5.8a11.42,11.42,0,0,1-2.6,6.77,14.16,14.16,0,0,1-7.23,4.18,5.9,5.9,0,0,1-5.89-1.63c-1.28-1.5-1.76-3.86-.88-6.7a20.67,20.67,0,0,1,5.46-8.27,10.91,10.91,0,0,1,6.62-3.11,3.76,3.76,0,0,1,3.93,2.28A13.7,13.7,0,0,1,370.91,404.82Zm-8.36,19.34c-8.53,6.91-14.71,10.76-22.8,14.19-9,3.81-19,6.34-38.69,6.34v-.38c19.61,0,29.59-2.52,38.54-6.31,8.06-3.42,14.21-7.25,22.7-14.14,10.09-8.18,21.91-19.56,39.52-38l.27.26C384.47,404.58,372.65,416,362.55,424.16Zm23.89,31.47-.32-.22c18.36-26.79,22.48-39,20.05-59.32l.38,0C409,416.5,404.86,428.75,386.44,455.63Zm10.85-97.1c-11.28.23-21.3.35-30.16.35-16.55,0-29.1-.41-38.51-1.24a152.66,152.66,0,0,1-25.83-4.47l-4.42-1.07c-1.8-.42-3.68-.84-5.65-1.28a265.84,265.84,0,0,1-28.81-7.74l.12-.36a264.83,264.83,0,0,0,28.77,7.72l5.66,1.29,4.42,1.06a151.16,151.16,0,0,0,25.77,4.47c14.4,1.27,36.19,1.56,68.45.89l-17.7-35.29a52.1,52.1,0,0,1-22.28-5.72,71.45,71.45,0,0,1-7.2-4.36,40.33,40.33,0,0,0-7.76-4.37c-4.5-1.74-10.34-2.33-16.52-3l-2.73-.28a203.31,203.31,0,0,1-24.56-4c-9.78-2.23-21.33-5.68-34.66-18.52l.27-.28c13.25,12.77,24.75,16.21,34.48,18.42a200.16,200.16,0,0,0,24.51,4l2.73.28c6.2.64,12.07,1.24,16.62,3a40.13,40.13,0,0,1,7.83,4.4,69.07,69.07,0,0,0,7.17,4.34,51.8,51.8,0,0,0,21.91,5.68l-33.87-67.56c-8.2-2.72-14.35-4.29-18.72-4.78a36.64,36.64,0,0,0-4.06-.2,13,13,0,0,1-4.1-.46c-1.85-.55-5.7-2.2-10.59-7.07l-1.3-1.33c-3.91-4-9.81-10.14-31.32-21.12l.17-.34c21.57,11,27.5,17.14,31.42,21.19l1.3,1.33c3.53,3.51,7.33,6.06,10.43,7a13.14,13.14,0,0,0,4,.44,34.86,34.86,0,0,1,4.1.2c4.33.48,10.39,2,18.44,4.68L304.25,173c22.53,37,33.17,59.62,45.17,82.94l.19.07-.07.18c.69,1.33,1.37,2.66,2.07,4,8.42,16.19,17.86,33.17,31.42,62.32h.08v.2c4.73,10.17,10,21.84,15.83,35.46H399v.19c3.11,7.24,6.4,15,9.89,23.44Zm-61.74-36.62c.76-1.3,2.67-2.08,4.58-2.41a11.44,11.44,0,0,1,6,.61,32,32,0,0,1,6.77,3.69,14,14,0,0,1,4.51,4.38,5.62,5.62,0,0,1,.35,5.23,6,6,0,0,1-5.29,3.23c-2.56.06-5.77-1.28-8.7-3.15a27.05,27.05,0,0,1-7.09-6.35C335.18,325,334.79,323.21,335.55,321.91Zm76.19,9.21c.66-2.94,1.78-5.52,4.3-7.3a17,17,0,0,1,9.88-2.65,13.74,13.74,0,0,1,8.43,3.08,7.89,7.89,0,0,1,2.78,5.62,6.56,6.56,0,0,1-1.95,4.82,55.27,55.27,0,0,1-5.43,4.6c-2,1.65-4,3.5-5.85,5.29s-3.57,3.5-5,4.1-2.75.06-4.07-1.46a15.89,15.89,0,0,1-3.31-6.94A22.65,22.65,0,0,1,411.74,331.12Zm.22,31.05a299.22,299.22,0,0,0,39.79-23.9c7.65-5.41,11.38-8.26,15-12.86s7-10.81,23.75-40.79l.34.18c-16.72,30-20.2,36.25-23.79,40.84s-7.38,7.51-15.06,12.94a297.91,297.91,0,0,1-39.84,23.93Zm41.52,5.17a12.44,12.44,0,0,1-6.18,2.8,9.11,9.11,0,0,1-5.88-.43,7.71,7.71,0,0,1-3.64-4.73,6,6,0,0,1,1.39-5.82,12.91,12.91,0,0,1,6.78-3.44,9.91,9.91,0,0,1,6.2,1.07c2,.93,4.18,2.28,4.48,4.26S455.35,365.66,453.48,367.34ZM474,405.92c-14.51,0-21.1-.75-27.14-2.87-4.4-1.54-8.6-3.84-15.57-7.65-4.16-2.27-9.34-5.09-16.17-8.65l.18-.34c6.83,3.56,12,6.39,16.17,8.66,6.95,3.79,11.15,6.08,15.51,7.62,6.9,2.42,14.55,3.05,34.1,2.8v.38C478.55,405.91,476.2,405.92,474,405.92Zm-13.75-29.84c-8.94,1.27-22.61,2.08-44.3,2.61v-.38c21.68-.53,35.33-1.34,44.26-2.61,10.09-1.44,14.95-3.69,22-8.22,7.47-4.76,17.81-12.38,24.41-19.47l.28.26c-6.63,7.12-17,14.76-24.48,19.54C475.33,372.36,470.43,374.63,460.27,376.08Z"/><path class="cls-10" d="M675.29,99c-2.06-2.74-4.25-5.57-7.36-7s-7.42-.89-9.12,2.09a10.35,10.35,0,0,0-1,3.6l-4.41,27.9c-.61,3.87-1.23,7.8-.79,11.7,1.3,11.55,12,20.47,23.51,22.4s23.2-1.95,33.25-7.78c5.61-3.25,11.53-8.71,10.12-15a8.77,8.77,0,0,0-10.35-6.32c5.22,2,11.84-1.67,12.86-7.18S718.14,112,712.53,112"/><path class="cls-11" d="M682.13,160.65a36.43,36.43,0,0,1-6.12-.5c-14.28-2.4-22.84-13.3-23.92-22.83-.45-4,.18-8,.8-11.84l4.4-27.9a11,11,0,0,1,1.09-3.77c1.89-3.31,6.54-3.77,9.75-2.3s5.56,4.51,7.56,7.16l-.8.6c-1.92-2.55-4.1-5.44-7.17-6.85-2.83-1.3-6.91-.85-8.47,1.89a9.91,9.91,0,0,0-1,3.42l-4.41,27.9c-.6,3.8-1.22,7.72-.78,11.58,1,9.15,9.29,19.63,23.09,22,12.56,2.11,24.83-3,32.91-7.72,3.5-2,11.45-7.49,9.89-14.5A7.91,7.91,0,0,0,715.3,132a8.23,8.23,0,0,0-1.22-.62,9.33,9.33,0,0,1-5.14-.42l-1.44-.56L709,130a8.63,8.63,0,0,1,5.18.33,10.27,10.27,0,0,0,2.71-1.05,9,9,0,0,0-4.31-16.78h0v-1h0a9.9,9.9,0,0,1,4.8,18.66,10.88,10.88,0,0,1-1.82.81l.28.17a8.9,8.9,0,0,1,4.13,5.56c1.7,7.65-6.68,13.44-10.36,15.58C702.69,156.32,692.75,160.65,682.13,160.65Z"/><path class="cls-10" d="M707.25,116.53c5.59-3,7-11.62,2.7-16.27a16.86,16.86,0,0,0-4.71-3.32,44.93,44.93,0,0,0-17.85-5c-3.19-.2-6.56,0-9.28,1.67s-4.49,5.23-3.25,8.18"/><path class="cls-11" d="M707.49,117l-.47-.88a10.42,10.42,0,0,0,2.56-15.49A16.45,16.45,0,0,0,705,97.38a44.63,44.63,0,0,0-17.65-4.9c-2.49-.16-6.14-.16-9,1.6-2.38,1.47-4.22,4.77-3,7.55l-.92.39c-1.4-3.31.66-7.07,3.45-8.79,3.08-1.91,6.94-1.91,9.57-1.75a45.71,45.71,0,0,1,18.05,5,17.69,17.69,0,0,1,4.85,3.43,11.41,11.41,0,0,1-2.83,17Z"/><path class="cls-10" d="M695.17,116.76a7.56,7.56,0,0,1,0,3.28,2.62,2.62,0,0,1-2.34,2,3.82,3.82,0,0,1-2.38-1.35q-2.61-2.51-5-5.17a6.18,6.18,0,0,1-1.78-2.94c-.36-2.18,1.76-4.15,4-4.43s4.34.62,6.34,1.56a26.34,26.34,0,0,1,8.2,5.34,14.82,14.82,0,0,1,3.73,12.57,3.15,3.15,0,0,1-.61,1.55,3.34,3.34,0,0,1-1.51.83,20.38,20.38,0,0,1-26.4-22.07,3.87,3.87,0,0,1,.61-1.85,4.07,4.07,0,0,1,3-1.21c5.75-.51,11.73.23,16.81,3s9.14,7.66,10,13.36a11.33,11.33,0,0,1-2.09,9.05c-.48,10.55-10.88,19.55-18.82,24.63-1.27.82-2.32,2-3.66,2.68-2.69,1.44-6,.84-9,.2a15.18,15.18,0,0,1-4.19-1.33,35.71,35.71,0,0,1-7.62-6c-1.94-2.3-1.64-5.39-1.44-8.48.84-12.75,3.56-29.42,17.09-34.9"/><path class="cls-11" d="M679.38,159a25,25,0,0,1-5.15-.7,15.5,15.5,0,0,1-4.33-1.38,36.28,36.28,0,0,1-7.76-6.16c-2-2.36-1.79-5.46-1.59-8.45l0-.38C661.38,129.72,664,113,677,107a3.2,3.2,0,0,1,.54-1.19,4.5,4.5,0,0,1,3.39-1.41,30.32,30.32,0,0,1,17.1,3c5.56,3,9.41,8.14,10.3,13.72a11.78,11.78,0,0,1-2.09,9.32c-.66,11.86-13.52,21.33-19,24.86a14.8,14.8,0,0,0-1.53,1.17,13.53,13.53,0,0,1-2.16,1.53A8.59,8.59,0,0,1,679.38,159Zm-2.55-50.78c-12,6-14.48,22.05-15.25,33.78l0,.38c-.19,2.92-.38,5.68,1.35,7.73a35.75,35.75,0,0,0,7.48,5.94,14.88,14.88,0,0,0,4.06,1.27c3.14.67,6.16,1.17,8.63-.15a12.61,12.61,0,0,0,2-1.43,18.29,18.29,0,0,1,1.63-1.23c5.42-3.46,18.06-12.76,18.59-24.23v-.17l.11-.13a10.78,10.78,0,0,0,2-8.65,18.58,18.58,0,0,0-9.8-13,29.21,29.21,0,0,0-16.53-2.92,3.71,3.71,0,0,0-2.68,1,2.12,2.12,0,0,0-.27.49l.25.62-.45.19c0,.1,0,.2,0,.31a19.87,19.87,0,0,0,25.75,21.53,2.88,2.88,0,0,0,1.28-.68,2.77,2.77,0,0,0,.5-1.31,14.34,14.34,0,0,0-3.61-12.14,26,26,0,0,0-8-5.22c-2-.92-4-1.79-6.07-1.53a4.5,4.5,0,0,0-2.94,1.72,2.76,2.76,0,0,0-.58,2.13,5.64,5.64,0,0,0,1.65,2.7c1.61,1.76,3.3,3.49,5,5.14a3.39,3.39,0,0,0,2.05,1.21h0a2.16,2.16,0,0,0,1.82-1.65,7.23,7.23,0,0,0,0-3.07l1-.15a8.1,8.1,0,0,1,0,3.5,3.13,3.13,0,0,1-2.78,2.37h0a4.27,4.27,0,0,1-2.73-1.49c-1.73-1.67-3.43-3.41-5.06-5.19a6.63,6.63,0,0,1-1.9-3.2,3.74,3.74,0,0,1,.76-2.89,5.57,5.57,0,0,1,3.62-2.12c2.31-.29,4.54.63,6.62,1.61a26.77,26.77,0,0,1,8.35,5.45,15.34,15.34,0,0,1,3.86,13,3,3,0,0,1-2.45,2.76,20.88,20.88,0,0,1-27.09-22.29Z"/><path class="cls-3" d="M316.35,284.93a.49.49,0,0,1-.28-.09l-27.39-18c-14.36-9.47-30.63-20.2-49-21.84-14-1.25-28.33,3-40.94,6.81a.49.49,0,0,1-.62-.33.5.5,0,0,1,.33-.62c12.71-3.81,27.1-8.12,41.32-6.86,18.66,1.67,35,12.47,49.5,22L316.62,284a.5.5,0,0,1,.15.69A.51.51,0,0,1,316.35,284.93Z"/><path class="cls-3" d="M254.07,246.45a.45.45,0,0,1-.31-.11c-5.71-4.64-12.19-9.9-15.68-17.06a40.77,40.77,0,0,1-3.48-12.92c-1.74-13.3-.44-26.81.82-39.88a.5.5,0,0,1,1,.1c-1.26,13-2.55,26.47-.83,39.65A39.88,39.88,0,0,0,239,228.84c3.4,7,9.78,12.15,15.41,16.73a.5.5,0,0,1,.07.7A.5.5,0,0,1,254.07,246.45Z"/><path class="cls-12" d="M233.8,155.73c1.78-2.28,4.76-4.67,7.21-3.15a24,24,0,0,1,.77,7.84c-.32,2.62-1.65,5.26-4,6.45a26.41,26.41,0,0,1,6.71,3.68c1.68,1.28,3.23,3.89,1.61,5.24a3.48,3.48,0,0,1-1.75.64,18.75,18.75,0,0,1-12.9-2.87,13.19,13.19,0,0,1-11.12,11.95,14.94,14.94,0,0,1,3.34-12.92c-4.6-2.26-9.17-5.81-10.06-10.86a1.83,1.83,0,0,1,.2-1.47,2,2,0,0,1,1.1-.54,20.47,20.47,0,0,1,7.2-.8C229.29,159.76,228.6,162.4,233.8,155.73Z"/><path class="cls-13" d="M219.93,186.06l-.1-.44a15.48,15.48,0,0,1,3-12.87c-4.06-2.09-8.83-5.62-9.76-10.94a2.27,2.27,0,0,1,.31-1.86,2.35,2.35,0,0,1,1.36-.71,21.14,21.14,0,0,1,7.38-.82,31.76,31.76,0,0,1,4.32.84c2.84.73,3.28.84,6.93-3.84,2.07-2.65,5.22-4.91,7.87-3.26l.18.11,0,.21a24.38,24.38,0,0,1,.78,8,9,9,0,0,1-3.39,6.29,26.74,26.74,0,0,1,5.89,3.39,6.11,6.11,0,0,1,2.49,4.09,2.37,2.37,0,0,1-.86,1.93,3.85,3.85,0,0,1-2,.74,19.3,19.3,0,0,1-12.54-2.5A13.67,13.67,0,0,1,220.38,186Zm.74-26.72a23.68,23.68,0,0,0-5.65.87,1.56,1.56,0,0,0-.83.37,1.34,1.34,0,0,0-.1,1.06c.91,5.15,5.83,8.56,9.79,10.5l.59.29-.43.49a14.45,14.45,0,0,0-3.33,12A12.81,12.81,0,0,0,231,173.53l.05-.86.72.48a18.21,18.21,0,0,0,12.55,2.78,2.93,2.93,0,0,0,1.5-.52,1.35,1.35,0,0,0,.5-1.14,5.12,5.12,0,0,0-2.1-3.32,25.65,25.65,0,0,0-6.57-3.61l-1.07-.4,1-.51a7.73,7.73,0,0,0,3.73-6.07,22.89,22.89,0,0,0-.71-7.45c-2.06-1.08-4.7,1-6.38,3.13h0c-3.91,5-4.73,5-7.95,4.19a28.76,28.76,0,0,0-4.2-.81A12.44,12.44,0,0,0,220.67,159.34Z"/><path class="cls-12" d="M202.2,238.67c1.78-2.28,4.76-4.67,7.22-3.15a24.21,24.21,0,0,1,.76,7.84c-.32,2.62-1.65,5.26-4,6.45a26.41,26.41,0,0,1,6.71,3.68c1.68,1.28,3.23,3.89,1.61,5.24a3.46,3.46,0,0,1-1.75.63,18.67,18.67,0,0,1-12.89-2.86,13.2,13.2,0,0,1-11.13,11.94,14.9,14.9,0,0,1,3.35-12.91c-4.61-2.26-9.18-5.82-10.07-10.87a1.8,1.8,0,0,1,.2-1.46,2,2,0,0,1,1.1-.54,20.27,20.27,0,0,1,7.2-.8C197.69,242.69,197,245.34,202.2,238.67Z"/><path class="cls-13" d="M188.33,269l-.1-.45a15.46,15.46,0,0,1,3-12.86c-4.06-2.09-8.82-5.63-9.76-10.94a2.3,2.3,0,0,1,.31-1.87,2.47,2.47,0,0,1,1.36-.71,20.9,20.9,0,0,1,7.38-.81,28.93,28.93,0,0,1,4.32.84c2.85.72,3.28.83,6.93-3.84,2.07-2.66,5.22-4.91,7.87-3.26l.18.11,0,.21a24.65,24.65,0,0,1,.77,8,9,9,0,0,1-3.39,6.29,26.7,26.7,0,0,1,5.89,3.38,6,6,0,0,1,2.49,4.09,2.35,2.35,0,0,1-.86,1.93,4,4,0,0,1-2,.75,19.25,19.25,0,0,1-12.54-2.51,13.66,13.66,0,0,1-11.49,11.59Zm.74-26.72a23.68,23.68,0,0,0-5.65.86,1.64,1.64,0,0,0-.83.37,1.34,1.34,0,0,0-.09,1.07c.9,5.15,5.82,8.55,9.79,10.5l.58.29-.43.49a14.44,14.44,0,0,0-3.33,12,12.81,12.81,0,0,0,10.24-11.41l.05-.87.72.48a18.22,18.22,0,0,0,12.55,2.79,3,3,0,0,0,1.5-.52,1.37,1.37,0,0,0,.5-1.14,5.06,5.06,0,0,0-2.09-3.32,25.57,25.57,0,0,0-6.58-3.61l-1.07-.4,1-.52a7.75,7.75,0,0,0,3.74-6.06,23.26,23.26,0,0,0-.72-7.46c-2.06-1.08-4.7,1-6.37,3.13h0c-3.92,5-4.74,5-8,4.2a28.76,28.76,0,0,0-4.2-.81A10.39,10.39,0,0,0,189.07,242.28Z"/></g></g></svg>