<svg width="247" height="247" viewBox="0 0 247 247" fill="none" xmlns="http://www.w3.org/2000/svg">
<path d="M120.316 93.9258C119.863 93.6256 119.365 93.4001 118.84 93.2579C116.263 92.4929 111.784 92.9885 109.844 95.0759C107.609 97.4838 107.183 103.21 108.991 105.871C109.869 107.167 111.229 108.026 112.514 108.928C117.856 112.643 122.467 117.312 126.113 122.702C127.233 118.433 130.422 115.05 133.619 112.004C136.816 108.958 140.229 105.922 142.044 101.898C143.859 97.8743 143.574 92.501 140.115 89.7565C138.23 88.2589 135.642 87.7687 133.269 88.2024C128.259 89.1154 124.432 93.5137 123.912 98.5261L121.819 95.593C121.429 94.9827 120.946 94.4374 120.386 93.977L120.316 93.9258Z" fill="#FAB9A1"/>
<path d="M140.326 90.3283C139.717 89.6622 138.972 89.1349 138.141 88.7823C137.261 88.4637 136.329 88.3147 135.394 88.3433C130.398 88.3999 125.523 91.3599 123.333 95.6154C121.658 94.0024 119.668 92.7526 117.488 91.9444C114.714 90.9693 111.784 91.2953 109.844 92.7982C108.037 94.1933 106.973 96.6416 106.917 99.5316C106.871 101.988 107.544 104.226 108.816 105.829C110.036 107.369 111.7 108.296 113.319 109.19C113.54 109.314 113.761 109.441 113.984 109.562C118.77 112.29 122.974 115.931 126.358 120.279L127.47 121.717L128.092 120.009C128.598 118.658 129.359 117.417 130.336 116.355C131.311 115.295 132.347 114.293 133.439 113.354C134.76 112.232 135.995 111.012 137.134 109.705C139.289 107.087 141.427 104.189 142.389 100.728C143.477 96.8167 142.685 92.8305 140.326 90.3283ZM137.39 90.6461C137.952 90.8911 138.456 91.2528 138.868 91.7073C140.344 93.2695 141.538 96.3184 140.463 100.194C139.604 103.289 137.613 105.98 135.591 108.425C134.511 109.663 133.341 110.819 132.089 111.884C130.943 112.867 129.858 113.918 128.838 115.032C128.096 115.861 127.452 116.772 126.918 117.747C123.559 113.753 119.52 110.385 114.986 107.8L114.302 107.415C112.858 106.607 111.366 105.783 110.397 104.563C109.427 103.343 108.896 101.544 108.937 99.5505C108.974 97.2853 109.758 95.4027 111.091 94.3792C112.016 93.7022 113.141 93.3543 114.286 93.3907C115.157 93.3942 116.022 93.5435 116.845 93.8324C119.516 94.7751 121.644 96.6416 122.956 98.0422L124.09 99.2542L124.628 97.6894C126.104 93.4931 130.643 90.4172 135.426 90.3553C136.092 90.3165 136.759 90.4155 137.384 90.6461H137.39Z" fill="#231F20"/>
<path d="M162.98 76.0429C161.816 74.8767 160.257 74.3973 158.721 74.0687C151 72.3692 143.081 72.8136 135.378 73.2472C131.26 73.4761 127.007 73.7159 122.872 73.6081C114.369 73.3873 105.796 73.6081 97.5061 73.8451L96.0328 73.8828C95.3272 73.9098 94.5515 73.8613 93.6088 73.8128C90.3579 73.6485 86.3366 73.4357 84.2547 75.911C82.1727 78.3862 82.0757 87.6407 82.1565 96.8844V97.6466C82.1565 98.2446 82.1565 98.7644 82.1565 99.1738C82.108 108.452 82.6332 117.885 83.1477 127.002V127.18C83.2312 128.664 83.3362 130.509 84.3678 132.028C86.7568 135.586 92.0332 135.75 95.979 135.513C95.979 135.65 95.979 135.782 95.9924 135.912V136.318C96.0059 136.725 96.0167 137.07 96.0086 137.299L95.6423 147.076L101.751 138.958C102.232 138.346 102.673 137.704 103.071 137.035C103.254 136.714 103.424 136.378 103.623 135.979C103.822 135.553 104.047 135.139 104.296 134.74C109.637 134.589 115.097 134.864 120.373 135.117H120.502C123.344 135.252 125.913 135.373 128.55 135.454C138.179 135.75 147.943 135.427 157.369 135.114H157.582C159.769 135.042 162.794 134.648 163.796 132.076C164.042 131.351 164.149 130.586 164.111 129.822C164.135 122.736 164.316 115.393 164.475 108.918C164.685 100.27 164.903 91.3225 164.827 82.4586C164.835 80.2635 164.674 77.7559 162.98 76.0429ZM98.3088 139.669L98.3976 137.393C98.3976 137.099 98.3976 136.639 98.3761 136.108V135.912C98.3626 135.392 98.3465 134.815 98.3545 134.269L98.3734 132.965L97.0752 133.075C93.0513 133.434 88.187 133.469 86.3501 130.716C85.6795 129.72 85.596 128.268 85.5259 126.964C85.0169 117.855 84.4863 108.436 84.5348 99.1792C84.5348 98.759 84.5348 98.2338 84.5348 97.6224V96.8548C84.4917 92.0955 84.3759 79.4555 86.0862 77.4139C87.4086 75.8329 90.7915 76.0106 93.5118 76.1561C94.4006 76.1992 95.3353 76.2503 96.1271 76.2288L97.6004 76.1884C105.85 75.9541 114.41 75.7359 122.819 75.9541C127.128 76.051 131.607 75.8086 135.556 75.5878C143.059 75.1622 150.811 74.7232 158.215 76.3581C159.562 76.6597 160.618 77.0018 161.307 77.7048C162.385 78.7821 162.484 80.6675 162.503 82.4882C162.578 91.3145 162.36 100.238 162.15 108.87V109.347C161.986 116.059 161.822 122.997 161.797 129.816C161.827 130.292 161.775 130.77 161.644 131.228C161.267 132.195 159.963 132.685 157.474 132.768C148.021 133.081 138.246 133.407 128.655 133.11C126.032 133.032 123.478 132.914 120.634 132.774C115.266 132.518 109.715 132.259 104.223 132.389L103.766 132.418L103.046 132.569L102.675 133.016C102.621 133.084 102.567 133.154 102.516 133.226C102.137 133.786 101.805 134.375 101.522 134.988C101.374 135.284 101.228 135.586 101.061 135.871C100.714 136.453 100.329 137.012 99.9086 137.544L98.3088 139.669Z" fill="#231F20"/>
<path d="M123.5 205.325C126.903 205.325 129.662 202.566 129.662 199.162C129.662 195.759 126.903 193 123.5 193C120.096 193 117.337 195.759 117.337 199.162C117.337 202.566 120.096 205.325 123.5 205.325Z" fill="#231F20"/>
<path d="M172.646 28.7266H74.3617C70.1673 28.7316 66.1461 30.4 63.1801 33.3659C60.2142 36.3319 58.5458 40.3531 58.5408 44.5475V202.445C58.545 206.64 60.2131 210.662 63.179 213.629C66.145 216.596 70.1666 218.265 74.3617 218.271H172.646C176.842 218.266 180.865 216.597 183.832 213.63C186.799 210.663 188.468 206.641 188.473 202.445V44.5475C188.467 40.3524 186.797 36.3307 183.831 33.3648C180.864 30.3989 176.841 28.7308 172.646 28.7266ZM185.389 202.45C185.387 205.83 184.045 209.071 181.655 211.462C179.266 213.852 176.026 215.197 172.646 215.201H74.3617C70.9836 215.197 67.7448 213.853 65.3564 211.464C62.9679 209.075 61.6249 205.836 61.622 202.458V44.5475C61.6263 41.1703 62.97 37.9327 65.3583 35.5449C67.7466 33.157 70.9845 31.8141 74.3617 31.8105H95.1763C95.7446 34.4877 97.2636 39.2335 100.989 39.8449H146.011C150.119 39.15 151.473 34.4581 151.918 31.8105H172.646C176.024 31.8141 179.262 33.157 181.651 35.5447C184.039 37.9324 185.384 41.1701 185.389 44.5475V202.45Z" fill="#231F20"/>
</svg>
