<svg width="192" height="191" viewBox="0 0 192 191" fill="none" xmlns="http://www.w3.org/2000/svg">
<path d="M126.941 188.213C94.1758 192.606 61.469 189.885 33.2377 171.827C12.1799 158.361 -0.513444 128.856 0.354317 100.293C1.22208 71.7302 14.6432 44.985 33.8323 28.5935C44.6918 19.3167 57.1969 13.135 69.9751 8.51497C94.1309 -0.21504 120.645 -3.45222 144.653 6.76596C168.66 16.9841 189.336 42.8916 191.39 73.4307C192.698 92.8872 186.642 111.822 179.311 129.05C171.87 146.538 162.714 163.495 149.626 175.144L126.941 188.213Z" fill="#FFBFA4"/>
<path d="M94.5198 75.3085C94.2499 75.1296 93.9531 74.9953 93.6406 74.9106C92.105 74.4549 89.4367 74.7501 88.2815 75.9936C86.9498 77.428 86.6962 80.8392 87.7729 82.4245C88.2959 83.1962 89.1062 83.7081 89.8716 84.2456C93.0543 86.4584 95.8008 89.2402 97.9727 92.4511C98.6402 89.9079 100.54 87.8926 102.445 86.0779C104.349 84.2632 106.382 82.455 107.463 80.0578C108.545 77.6607 108.375 74.4597 106.315 72.8247C105.191 71.9326 103.649 71.6406 102.236 71.8989C99.2515 72.4428 96.9715 75.063 96.6619 78.049L95.4151 76.3017C95.1827 75.9381 94.8947 75.6133 94.5616 75.339L94.5198 75.3085Z" fill="#F3D6D8"/>
<path d="M106.451 73.165C106.088 72.7682 105.644 72.4541 105.149 72.2441C104.625 72.0543 104.07 71.9655 103.513 71.9825C100.536 72.0162 97.6321 73.7796 96.3277 76.3147C95.33 75.3538 94.1446 74.6093 92.8459 74.1278C91.1932 73.5469 89.4475 73.7411 88.2923 74.6364C87.2157 75.4675 86.5819 76.926 86.5482 78.6477C86.5209 80.111 86.922 81.4443 87.6794 82.399C88.4062 83.3168 89.3978 83.8687 90.3621 84.4014C90.4937 84.4752 90.6252 84.5506 90.7584 84.6228C93.6096 86.2481 96.114 88.4172 98.1295 91.0072L98.7922 91.864L99.1628 90.8467C99.4639 90.0416 99.9177 89.3023 100.499 88.6694C101.08 88.0381 101.697 87.4412 102.348 86.882C103.135 86.2133 103.871 85.4865 104.549 84.7079C105.833 83.1483 107.107 81.4219 107.68 79.3601C108.328 77.0303 107.856 74.6556 106.451 73.165ZM104.702 73.3544C105.037 73.5003 105.337 73.7158 105.582 73.9866C106.462 74.9172 107.173 76.7335 106.532 79.0424C106.02 80.8859 104.835 82.4888 103.63 83.9457C102.987 84.6834 102.289 85.372 101.544 86.0059C100.861 86.5917 100.215 87.2181 99.6073 87.8816C99.1653 88.3751 98.7814 88.9178 98.4633 89.4989C96.4626 87.1194 94.056 85.1133 91.3553 83.5735L90.9477 83.3441C90.0877 82.8627 89.1988 82.3717 88.6212 81.6449C88.0436 80.918 87.7275 79.8462 87.7516 78.6589C87.774 77.3095 88.2409 76.1879 89.0352 75.5782C89.5859 75.175 90.2558 74.9677 90.9381 74.9894C91.4573 74.9914 91.9725 75.0804 92.4624 75.2525C94.0541 75.8141 95.3216 76.926 96.103 77.7604L96.7785 78.4824L97.0994 77.5502C97.9787 75.0503 100.682 73.218 103.532 73.1811C103.929 73.158 104.326 73.217 104.698 73.3544H104.702Z" fill="#231F20"/>
<path d="M119.94 64.6551C119.247 63.9603 118.318 63.6747 117.404 63.479C112.804 62.4665 108.086 62.7313 103.497 62.9896C101.044 63.126 98.5106 63.2688 96.0477 63.2046C90.9822 63.073 85.8751 63.2046 80.9364 63.3458L80.0587 63.3683C79.6384 63.3843 79.1763 63.3554 78.6147 63.3265C76.678 63.2287 74.2825 63.1019 73.0422 64.5765C71.8019 66.051 71.7442 71.5641 71.7923 77.0708V77.5248C71.7923 77.881 71.7923 78.1907 71.7923 78.4346C71.7634 83.9621 72.0763 89.5811 72.3828 95.0124V95.1183C72.4325 96.0024 72.4951 97.1015 73.1096 98.0064C74.5328 100.126 77.676 100.224 80.0266 100.083C80.0266 100.164 80.0266 100.243 80.0347 100.32V100.562C80.0427 100.805 80.0491 101.01 80.0443 101.146L79.8261 106.971L83.4651 102.135C83.7516 101.77 84.0142 101.388 84.2513 100.989C84.3604 100.798 84.4615 100.598 84.5802 100.36C84.699 100.106 84.8329 99.8599 84.9814 99.6221C88.1631 99.5323 91.4155 99.6959 94.5587 99.8468H94.6357C96.3285 99.927 97.8592 99.9992 99.43 100.047C105.166 100.224 110.982 100.031 116.598 99.8452H116.725C118.028 99.8018 119.83 99.5676 120.427 98.0353C120.573 97.6035 120.637 97.1478 120.614 96.6923C120.629 92.4708 120.736 88.097 120.831 84.2397C120.956 79.0876 121.086 73.7575 121.041 68.477C121.046 67.1693 120.95 65.6755 119.94 64.6551ZM81.4145 102.558L81.4675 101.203C81.4675 101.028 81.4675 100.753 81.4547 100.437V100.32C81.4466 100.01 81.437 99.6671 81.4418 99.3414L81.4531 98.5648L80.6797 98.6305C78.2825 98.8439 75.3848 98.8648 74.2905 97.225C73.891 96.6313 73.8413 95.7665 73.7995 94.9899C73.4963 89.5635 73.1802 83.9525 73.2091 78.4378C73.2091 78.1875 73.2091 77.8746 73.2091 77.5104V77.0531C73.1834 74.218 73.1144 66.688 74.1333 65.4718C74.9211 64.5299 76.9364 64.6358 78.5569 64.7225C79.0864 64.7481 79.6432 64.7786 80.1149 64.7658L80.9926 64.7417C85.9072 64.6021 91.0063 64.4722 96.0156 64.6021C98.5828 64.6599 101.251 64.5155 103.603 64.3839C108.073 64.1304 112.691 63.8689 117.102 64.8428C117.904 65.0225 118.533 65.2263 118.944 65.6451C119.586 66.2869 119.645 67.41 119.656 68.4947C119.701 73.7526 119.571 79.0684 119.446 84.2108V84.4948C119.348 88.4933 119.25 92.6265 119.236 96.6891C119.254 96.9725 119.223 97.2569 119.145 97.5299C118.92 98.1059 118.143 98.3979 116.661 98.4476C111.029 98.6338 105.206 98.8279 99.4926 98.6514C97.9298 98.6049 96.4087 98.5343 94.7143 98.4508C91.5165 98.2984 88.2096 98.1444 84.938 98.2214L84.6653 98.2391L84.2369 98.3289L84.0155 98.5952C83.9834 98.6354 83.9513 98.6771 83.9208 98.7204C83.6953 99.0536 83.4973 99.4045 83.3287 99.7698C83.2405 99.9462 83.1538 100.126 83.0544 100.296C82.8474 100.643 82.618 100.976 82.3676 101.292L81.4145 102.558Z" fill="#231F20"/>
<path d="M96.4211 141.674C98.4486 141.674 100.092 140.031 100.092 138.003C100.092 135.976 98.4486 134.332 96.4211 134.332C94.3936 134.332 92.75 135.976 92.75 138.003C92.75 140.031 94.3936 141.674 96.4211 141.674Z" fill="#231F20"/>
<path d="M125.694 36.4688H67.1436C64.6449 36.4717 62.2494 37.4657 60.4825 39.2325C58.7157 40.9994 57.7217 43.3949 57.7188 45.8936V139.956C57.7213 142.455 58.715 144.852 60.4819 146.619C62.2487 148.387 64.6445 149.381 67.1436 149.384H125.694C128.193 149.381 130.59 148.387 132.357 146.62C134.125 144.852 135.119 142.456 135.122 139.956V45.8936C135.118 43.3945 134.124 40.9987 132.356 39.2319C130.589 37.465 128.193 36.4713 125.694 36.4688ZM133.285 139.96C133.284 141.973 132.484 143.904 131.061 145.328C129.637 146.752 127.707 147.553 125.694 147.555H67.1436C65.1312 147.553 63.2018 146.753 61.7789 145.33C60.3561 143.906 59.556 141.977 59.5543 139.964V45.8936C59.5569 43.8817 60.3573 41.953 61.7801 40.5306C63.2029 39.1081 65.1317 38.308 67.1436 38.3059H79.5433C79.8818 39.9008 80.7868 42.7279 83.0058 43.0922H109.827C112.274 42.6782 113.081 39.8831 113.345 38.3059H125.694C127.706 38.308 129.635 39.108 131.058 40.5305C132.481 41.9529 133.282 43.8816 133.285 45.8936V139.96Z" fill="#231F20"/>
</svg>
