<svg viewBox="0 0 20 16" fill="none" xmlns="http://www.w3.org/2000/svg">
<path d="M7.94692 -0.206192C7.16469 -0.223487 6.43827 0.202421 6.08573 0.900924C5.01519 3.02207 2.81307 7.38166 2.60938 7.75576C2.34878 8.23439 0.887185 10.1033 0.972322 12.4617C0.978545 12.6341 1.01648 12.8027 1.08 12.963C1.31461 13.5555 1.96212 15.0453 2.60944 15.2392C3.42005 15.4819 4.53657 15.5744 5.58242 15.0548C6.35222 14.6723 6.78822 14.3128 7.20398 13.5489C7.71908 12.6024 7.79791 11.8213 7.47431 10.7902C7.375 10.4738 7.16637 10.15 6.93083 9.85781C6.3676 9.15905 6.08948 8.22021 6.43306 7.39108C7.49356 4.83186 9.63648 -0.328988 9.63648 -0.244244C9.63648 -0.182797 8.75128 -0.188409 7.94692 -0.206192Z" fill="#C8102E"/>
<path d="M17.8911 -0.406052C17.4718 -0.418334 17.0833 -0.188908 16.8913 0.191659C15.9791 1.99966 13.3726 7.16275 13.1501 7.57135C12.8853 8.05763 11.3809 9.979 11.5183 12.3908C11.5238 12.4875 11.5446 12.5821 11.5793 12.6724C11.7686 13.1657 12.4595 14.848 13.1502 15.0548C13.9608 15.2975 15.0773 15.39 16.1232 14.8704C16.893 14.4879 17.3289 14.1284 17.7447 13.3644C18.2598 12.418 18.3386 11.6369 18.015 10.6058C17.8537 10.0919 17.4041 9.55869 17.0191 9.17258C16.6682 8.82059 16.5257 8.28863 16.7172 7.82603C17.6333 5.61393 20.1772 -0.520988 20.1772 -0.428654C20.1772 -0.351156 18.7691 -0.380327 17.8911 -0.406052Z" fill="#C8102E"/>
</svg>
