<svg width="240" height="247" viewBox="0 0 240 247" fill="none" xmlns="http://www.w3.org/2000/svg">
<path d="M93.2309 211.144C89.0968 211.144 85.5895 209.651 83.1603 203.112C82.8213 202.195 82.4871 201.264 82.153 200.325C79.8262 193.824 77.4213 187.102 72.114 183.771C67.4287 180.832 61.7361 181.11 56.2191 181.389C46.924 181.851 37.3168 182.325 36.551 165.023C36.49 163.645 36.529 162.237 36.5681 160.831C36.6656 157.382 36.7583 154.121 35.3486 151.393C33.8681 148.531 31.2023 146.405 28.6023 144.347C25.4316 141.837 22.4536 139.46 22.2877 135.988C22.1682 133.433 23.5877 130.802 26.7584 127.705C34.0486 121.517 38.4656 107.774 36.2705 98.2431C31.5315 77.5997 43.3168 59.7074 48.6045 52.9652C57.602 41.5089 73.1653 34.9073 94.8626 33.3359L95.026 35.8812C74.0067 37.3999 59.0093 43.6978 50.4484 54.5993C45.3948 61.0428 34.1242 78.1243 38.6095 97.6457C41.0363 108.188 36.3242 122.855 28.3194 129.645C25.8511 132.06 24.6072 134.163 24.6877 135.863C24.795 138.122 27.2267 140.067 30.0535 142.306C32.7144 144.422 35.7339 146.824 37.4632 150.168C39.1924 153.511 39.0827 157.266 38.9802 160.909C38.9412 162.247 38.9022 163.589 38.9607 164.902C39.6119 179.657 46.5216 179.303 56.1191 178.841C61.7093 178.565 68.0434 178.251 73.3457 181.575C79.3774 185.36 81.9335 192.509 84.4066 199.417C84.7318 200.349 85.0651 201.269 85.4066 202.178C88.1261 209.51 91.9212 208.988 98.2065 208.127C99.2723 207.981 100.384 207.828 101.548 207.708C111.364 206.696 121.256 206.753 131.06 207.878L131.701 207.954C134.594 208.293 137.584 208.641 140.274 207.831L140.928 210.288C137.787 211.229 134.56 210.855 131.438 210.489L130.801 210.414C121.159 209.305 111.43 209.249 101.777 210.248C100.641 210.363 99.5504 210.514 98.5089 210.655C96.665 210.903 94.8967 211.144 93.2309 211.144Z" fill="#010101"/>
<path d="M40.9239 155.168C39.5909 155.171 38.2685 154.925 37.0215 154.44L37.8507 152.048C39.2025 152.561 40.6549 152.731 42.084 152.542C43.5132 152.352 44.8766 151.81 46.058 150.961L47.4141 153.067C45.5113 154.436 43.2455 155.169 40.9239 155.168Z" fill="#010101"/>
<path d="M48.6286 116.315C46.1286 116.347 43.7102 115.4 41.8628 113.667L43.475 111.779C44.9798 113.225 47.1335 113.943 49.4091 113.727C51.6846 113.511 53.6871 112.417 54.931 110.715L56.8309 112.274C55.1773 114.533 52.548 115.999 49.6188 116.272C49.2871 116.3 48.9578 116.315 48.6286 116.315Z" fill="#010101"/>
<path d="M144.828 197.904L142.655 197.065C155.511 159.413 151.623 140.256 147.582 129.126L149.738 128.242C158.457 152.247 151.113 179.497 144.828 197.904Z" fill="#010101"/>
<path d="M164.086 150.675C160.211 150.675 156.784 149.653 154.833 147.123C153.091 144.864 151.94 140.531 156.343 132.705C160.718 124.923 170.138 111.419 184.04 108.329C194.823 105.932 205.908 110.402 214.818 113.994C220.649 116.344 226.664 118.763 232.53 121.304L235.966 122.787L232.344 123.638C219.654 126.624 207.402 131.319 195.906 137.602C194.076 138.606 192.228 139.66 190.442 140.687C185.457 143.546 180.306 146.503 174.833 148.556C171.394 149.854 167.559 150.675 164.086 150.675ZM184.515 110.731C171.474 113.63 162.508 126.532 158.325 133.965C156.277 137.609 154.316 142.58 156.618 145.569C159.123 148.817 166.462 149.101 174.064 146.242C179.359 144.251 184.432 141.342 189.337 138.526C191.135 137.497 192.996 136.43 194.842 135.418C205.426 129.635 216.644 125.174 228.256 122.129C223.503 120.121 218.688 118.184 214.003 116.296C205.364 112.809 194.632 108.482 184.515 110.731Z" fill="#010101"/>
<path d="M151.055 176.141C148.174 171.945 143.752 169.665 139.477 167.459C137.73 166.555 135.923 165.624 134.23 164.57C126.282 159.612 120.265 151.72 114.445 144.085C113.355 142.654 112.267 141.228 111.167 139.817C99.4307 124.797 91.5869 121.591 86.065 120.489L82.1772 119.704L85.9138 118.273C94.9893 114.796 105.914 116.014 115.896 121.589C123.904 126.069 131.282 133.02 139.121 143.465C142.26 147.649 146.194 153.297 148.816 159.901C149.669 162.06 150.086 164.547 150.489 166.954C150.991 169.967 151.464 172.798 152.703 174.791L151.055 176.141ZM90.2845 119.317C99.6063 122.746 107.072 131.102 112.706 138.309C113.811 139.722 114.901 141.158 116.001 142.596C121.701 150.076 127.596 157.81 135.225 162.564C136.847 163.568 138.618 164.492 140.33 165.376C143.35 166.932 146.428 168.526 149.111 170.807C148.867 169.678 148.674 168.518 148.481 167.374C148.101 165.097 147.708 162.742 146.95 160.827C144.438 154.487 140.608 149.007 137.56 144.94C129.908 134.742 122.735 127.974 114.989 123.637C106.828 119.071 98.0307 117.567 90.2845 119.317Z" fill="#010101"/>
<path d="M170.367 81.2136C169.757 78.6783 168.628 76.9714 168.101 75.2645C167.574 73.5576 167.647 71.8457 166.15 68.1558C164.664 71.9361 162.491 73.9668 160.857 75.508L160.872 75.493C160.53 71.5244 160.157 71.0852 159.586 70.4124C158.743 69.4713 158.05 68.3988 157.533 67.2346C156.823 65.6432 156.174 63.369 155.164 63.3464C152.401 64.6191 151.884 66.3812 150.933 67.709C149.981 69.0369 148.599 69.9255 148.033 72.1018L148.174 72.3528C147.055 70.3321 145.579 68.3742 144.15 66.3887C142.721 64.4032 141.335 62.3875 140.264 60.7007C139.194 59.0139 138.438 57.6509 137.682 57.0635C136.925 56.4762 136.165 56.6669 135.669 57.6258C135.174 58.5847 134.938 60.3142 134.277 62.7214C133.616 65.1286 132.528 68.2161 131.86 70.8015C131.708 71.3914 131.582 71.9537 131.474 72.5009C131.508 72.3176 131.545 72.1319 131.587 71.9436C127.023 69.1323 125.13 67.089 124.026 66.4213C122.921 65.7536 122.587 66.4414 122.335 67.3451C122.084 68.2487 121.913 69.3682 121.604 70.8367C121.294 72.3051 120.823 74.1249 121.006 75.7214C121.189 77.3178 122.023 78.6884 120.835 83.5606C119.065 82.9882 117.101 82.0796 115.887 81.1232C114.672 80.1668 114.179 79.1151 112.557 78.0558C110.935 76.9965 108.128 75.8846 105.926 77.9755C110.996 88.3574 113.414 97.5696 116.992 104.623C120.57 111.677 125.304 116.574 130.069 119.857C134.835 123.14 139.633 124.807 146.372 124.832L148.616 122.535C152.323 122.096 156.576 119.076 159.879 115.55C163.181 112.023 165.533 107.997 167.257 103.735C168.89 99.6701 170.005 95.405 170.574 91.0458C171.074 87.1149 170.974 83.7513 170.367 81.2136ZM131.196 74.2956C131.216 74.1024 131.24 73.9066 131.267 73.7083C131.24 73.9066 131.218 74.1023 131.196 74.3007V74.2956ZM131.123 75.385C131.123 75.5482 131.123 75.7139 131.123 75.8871C131.116 75.7139 131.118 75.5557 131.123 75.385ZM131.172 74.5818C131.157 74.7491 131.145 74.9165 131.135 75.0838C131.145 74.9181 131.157 74.7508 131.172 74.5818ZM131.228 77.732C131.196 77.4684 131.172 77.2074 131.152 76.9488C131.172 77.2074 131.196 77.4684 131.218 77.732H131.228ZM131.138 76.6978C131.138 76.5221 131.121 76.3439 131.118 76.1682C131.121 76.3439 131.128 76.5221 131.138 76.6978ZM128.626 87.9006C128.53 87.7951 128.433 87.6897 128.338 87.5893C128.433 87.6922 128.535 87.7951 128.626 87.9006ZM129.252 88.6109L129.379 88.7691C129.282 88.6486 129.179 88.5306 129.077 88.4126L129.252 88.6109ZM127.082 86.3895C127.001 86.3192 126.918 86.2439 126.838 86.1761C126.921 86.2439 127.001 86.3192 127.072 86.3895H127.082ZM129.601 89.0452C129.728 89.2058 129.845 89.3665 129.977 89.5297C129.855 89.3615 129.728 89.2058 129.601 89.0452ZM130.73 90.5864C130.904 90.8374 131.072 91.106 131.218 91.3671C131.072 91.1186 130.904 90.845 130.73 90.5864ZM130.187 89.8108C130.313 89.984 130.43 90.1622 130.56 90.3379C130.438 90.1622 130.313 89.984 130.187 89.8108ZM155.955 88.5181C155.967 88.8268 155.994 89.1381 156.025 89.4543C155.994 89.1406 155.967 88.8268 155.955 88.5181ZM156.05 89.6953C156.084 89.989 156.12 90.2852 156.164 90.5864C156.12 90.2852 156.096 89.989 156.05 89.6953ZM156.457 92.3887C156.481 92.5393 156.508 92.6874 156.533 92.838C156.508 92.6949 156.481 92.5443 156.457 92.3962V92.3887ZM156.686 93.8345C156.701 93.9249 156.713 94.0128 156.725 94.1006C156.713 94.0203 156.701 93.9299 156.686 93.8421V93.8345ZM156.845 95.067C156.845 95.1047 156.845 95.1398 156.845 95.18C156.855 95.1473 156.85 95.1122 156.845 95.0746V95.067ZM156.94 96.2393C156.94 96.3271 156.94 96.4125 156.94 96.5028C156.947 96.42 156.945 96.3346 156.94 96.2468V96.2393Z" fill="#E0E5F4"/>
<path d="M171.152 81.0013C170.796 79.6243 170.306 78.288 169.688 77.0127C169.376 76.3608 169.103 75.6903 168.869 75.0046C168.71 74.4435 168.582 73.8737 168.486 73.2977C168.157 71.4105 167.62 69.5679 166.886 67.8055L166.13 65.943L165.398 67.8156C164.525 70.0466 163.194 72.057 161.496 73.7094C161.184 71.139 160.801 70.5591 160.179 69.8262C159.39 68.9482 158.741 67.9467 158.257 66.8592C158.113 66.5329 157.972 66.1815 157.828 65.825C157.172 64.1934 156.494 62.5066 155.174 62.4765H154.996L154.833 62.5518C152.44 63.6563 151.542 65.1398 150.823 66.3321C150.637 66.6358 150.464 66.9245 150.279 67.183C150.01 67.5419 149.723 67.8854 149.418 68.2122C148.822 68.8308 148.303 69.523 147.872 70.273C147.091 69.0556 146.23 67.8582 145.384 66.6885L144.786 65.8627C143.267 63.7517 141.933 61.7988 140.93 60.2174C140.73 59.9036 140.54 59.5999 140.362 59.3087C139.535 57.9834 138.884 56.9341 138.15 56.3668C137.914 56.1626 137.637 56.0159 137.338 55.9377C137.039 55.8594 136.727 55.8517 136.425 55.915C136.006 56.0154 135.411 56.3191 134.95 57.2102C134.591 57.903 134.369 58.8594 134.091 60.0668C133.925 60.7771 133.74 61.5728 133.491 62.479C133.213 63.4956 132.857 64.6302 132.482 65.8275C131.994 63.5684 131.428 61.5779 130.869 59.6476C130.035 56.7659 129.247 54.0424 128.865 50.6914L127.255 50.8997C127.655 54.4139 128.474 57.1952 129.318 60.1521C130.101 62.858 130.908 65.6568 131.45 69.1886C131.316 69.6555 131.186 70.1174 131.072 70.5617C131.071 70.575 131.071 70.5884 131.072 70.6018C129.294 69.4594 127.589 68.2018 125.967 66.8366C125.478 66.4083 124.962 66.0134 124.423 65.6543C123.767 65.2552 123.204 65.1674 122.699 65.3807C121.933 65.7096 121.687 66.6007 121.552 67.0801C121.391 67.665 121.265 68.3176 121.116 69.0706C121.026 69.54 120.923 70.0546 120.801 70.6219L120.701 71.0762C120.391 72.4769 120.006 74.2189 120.189 75.8053C120.23 76.1668 120.299 76.5006 120.372 76.8521C120.601 77.9866 120.882 79.3798 120.24 82.4296C118.699 81.8548 117.238 81.1042 116.357 80.4215C115.924 80.0671 115.522 79.6749 115.155 79.2492C114.513 78.5032 113.774 77.8512 112.96 77.3114C111.611 76.4278 108.167 74.6607 105.362 77.324L104.894 77.7683L105.184 78.3632C107.867 83.8428 109.838 89.0764 111.572 93.6926C113.116 97.7966 114.574 101.675 116.274 105.026C119.56 111.504 124.05 116.736 129.625 120.574C132.233 122.42 135.124 123.802 138.177 124.663C140.752 125.34 143.399 125.682 146.057 125.679L146.398 125.996L146.696 125.689H148.542L147.567 124.788L148.986 123.335C152.481 122.813 156.637 120.212 160.45 116.146C163.603 112.78 166.059 108.829 167.998 104.062C169.657 99.9246 170.792 95.585 171.376 91.1498C171.881 87.2089 171.803 83.6972 171.152 81.0013ZM150.594 69.407C150.939 69.0331 151.265 68.6401 151.569 68.2297C151.794 67.9185 151.994 67.5871 152.186 67.2658C152.82 66.2191 153.474 65.1398 155.213 64.2537C155.559 64.5624 156.057 65.8049 156.337 66.4977C156.484 66.8667 156.637 67.2508 156.791 67.5947C157.344 68.835 158.085 69.9771 158.986 70.9783C159.428 71.4979 159.718 71.8494 160.028 75.1326L159.986 75.1703C159.742 75.3962 159.52 75.6171 159.313 75.8329C157.542 77.6653 157.062 79.1965 156.454 81.1394C156.381 81.3728 156.303 81.6188 156.225 81.8748L156.164 82.0832C156.106 82.274 156.047 82.4672 155.991 82.668C155.962 82.771 155.933 82.8814 155.903 82.9868C155.855 83.1625 155.806 83.3357 155.759 83.519L155.672 83.893C155.63 84.0662 155.589 84.2394 155.55 84.4201C155.52 84.5532 155.496 84.6937 155.469 84.8318C155.442 84.9698 155.401 85.1832 155.369 85.3664C155.347 85.5095 155.328 85.6576 155.308 85.8057C155.289 85.9538 155.254 86.1672 155.235 86.3504C155.215 86.5337 155.211 86.6592 155.196 86.8148C155.181 86.9704 155.167 87.1838 155.157 87.372C155.147 87.5603 155.157 87.6933 155.157 87.854C155.157 88.0146 155.157 88.1552 155.157 88.3083C155.12 88.2531 155.084 88.2029 155.045 88.1502C154.847 87.8565 154.647 87.5728 154.452 87.2967C154.03 86.7229 153.637 86.1263 153.276 85.5095C152.369 83.8779 152.023 82.0104 151.686 80.2056C151.589 79.6709 151.486 79.1187 151.372 78.5866C151.24 77.9841 151.091 77.3984 150.925 76.8295C150.874 76.6538 150.811 76.4881 150.757 76.3149C150.633 75.9208 150.513 75.5242 150.369 75.1427C150.291 74.9268 150.194 74.7184 150.108 74.5051C149.974 74.1762 149.847 73.8424 149.698 73.5211C149.594 73.2952 149.474 73.0768 149.362 72.8534C149.218 72.5647 149.084 72.2736 148.928 71.9899C149.267 70.8679 149.918 70.155 150.594 69.407ZM133.972 66.5354C134.372 65.2628 134.75 64.0604 135.05 62.966C135.294 62.0322 135.499 61.2089 135.667 60.4835C135.911 59.3991 136.118 58.5406 136.374 58.0436C136.451 57.8494 136.595 57.6918 136.779 57.6018C136.934 57.5979 137.084 57.6555 137.199 57.7625C137.686 58.1465 138.306 59.128 139.011 60.2726L139.589 61.1963C140.608 62.8053 141.962 64.7858 143.491 66.9245L144.091 67.7528C145.342 69.4798 146.53 71.1089 147.462 72.8032C148.53 74.7331 149.306 76.8197 149.762 78.9907C149.816 79.2417 149.867 79.4927 149.918 79.7613C149.969 80.0299 150.018 80.2859 150.067 80.5595C150.203 81.29 150.34 82.028 150.516 82.7685C150.791 84.0401 151.241 85.2649 151.852 86.4056C152.242 87.0779 152.668 87.7273 153.128 88.351C153.42 88.7652 153.715 89.1819 154.003 89.6211L154.035 89.6763C154.167 89.8772 154.296 90.083 154.42 90.2964C154.459 90.3616 154.494 90.4319 154.53 90.4972C154.628 90.6678 154.725 90.836 154.815 91.0168C154.874 91.1322 154.928 91.2678 154.984 91.3757C155.04 91.4836 155.115 91.6493 155.176 91.7924C155.237 91.9355 155.296 92.1087 155.355 92.2693C155.401 92.3923 155.452 92.5203 155.494 92.6383C155.559 92.8341 155.613 93.045 155.669 93.2533C155.698 93.3612 155.733 93.4591 155.759 93.5671C155.813 93.7905 155.854 94.0289 155.898 94.2674C155.913 94.3502 155.933 94.4305 155.947 94.5184C155.962 94.6063 155.972 94.6866 155.981 94.7694C155.991 94.8523 156.003 94.9451 156.013 95.033C156.057 95.4246 156.096 95.8212 156.118 96.2228C156.119 96.2428 156.119 96.263 156.118 96.283C156.142 96.7198 156.154 97.1641 156.142 97.6159C156.096 100.623 155.12 104.172 153.169 108.472C152.781 109.331 152.369 110.194 151.933 111.105C151.737 111.515 151.54 111.926 151.342 112.348L151.159 112.737C151.02 113.033 150.881 113.329 150.742 113.636C150.669 113.799 150.596 113.967 150.523 114.138C150.398 114.414 150.279 114.687 150.152 114.968C150.077 115.149 150.003 115.332 149.928 115.513C149.813 115.787 149.684 116.06 149.586 116.342C149.511 116.532 149.44 116.731 149.367 116.926C149.262 117.2 149.157 117.474 149.057 117.752C148.986 117.958 148.92 118.171 148.85 118.38C148.759 118.656 148.667 118.927 148.581 119.208C148.516 119.426 148.457 119.65 148.396 119.871C148.32 120.147 148.24 120.423 148.172 120.704C148.116 120.935 148.069 121.171 148.018 121.402C147.967 121.633 147.906 121.871 147.862 122.11L146.345 123.661L146.172 123.495L145.781 123.109C145.638 122.963 145.494 122.818 145.355 122.672C145.216 122.527 145.111 122.421 144.994 122.291C144.877 122.16 144.73 122.004 144.601 121.864L144.267 121.487L143.906 121.066L143.596 120.694L143.264 120.277L142.981 119.913C142.877 119.775 142.774 119.64 142.674 119.502L142.413 119.145C142.316 119.007 142.22 118.872 142.128 118.736L141.884 118.39L141.633 117.978C141.56 117.865 141.486 117.752 141.418 117.639C141.35 117.526 141.25 117.368 141.174 117.235C141.099 117.102 141.04 117.014 140.977 116.904C140.913 116.793 140.821 116.635 140.733 116.502C140.645 116.369 140.611 116.289 140.552 116.181C140.494 116.073 140.406 115.912 140.333 115.777L140.169 115.471C140.096 115.335 140.028 115.197 139.96 115.061C139.908 114.966 139.857 114.868 139.811 114.77C139.74 114.632 139.674 114.497 139.608 114.359C139.562 114.266 139.516 114.173 139.472 114.08C139.401 113.934 139.333 113.789 139.264 113.646L139.152 113.395C139.069 113.219 138.989 113.043 138.908 112.87C138.889 112.822 138.867 112.777 138.845 112.729L138.545 112.072L138.411 111.776L137.716 110.257C136.362 107.305 135.194 104.755 134.716 102.895C134.452 101.803 134.342 100.678 134.389 99.5537C134.401 98.8835 134.377 98.2131 134.316 97.5456C134.121 95.7132 133.44 93.675 132.386 91.7246C132.235 91.446 132.077 91.1674 131.911 90.8938C131.745 90.6202 131.586 90.3767 131.423 90.1156C131.365 90.0253 131.304 89.9374 131.243 89.847C131.123 89.6713 130.999 89.4981 130.874 89.3274C130.75 89.1567 130.667 89.0438 130.562 88.9032L130.235 88.479C130.279 88.3861 130.316 88.3008 130.357 88.2104C130.435 88.0448 130.511 87.8816 130.582 87.7209C130.652 87.5603 130.733 87.3846 130.804 87.2189L130.991 86.7671C131.057 86.6065 131.121 86.4483 131.179 86.2927C131.238 86.1371 131.289 86.0115 131.338 85.8735C131.386 85.7354 131.445 85.5748 131.496 85.4267C131.547 85.2786 131.584 85.1757 131.625 85.0376C131.667 84.8996 131.713 84.7565 131.752 84.6159C131.791 84.4753 131.825 84.3649 131.857 84.2595C131.889 84.154 131.928 83.9909 131.96 83.8604C131.991 83.7298 132.013 83.637 132.038 83.5315C132.062 83.4261 132.091 83.2805 132.116 83.155C132.14 83.0295 132.157 82.9492 132.174 82.8488C132.191 82.7484 132.213 82.6103 132.23 82.4948C132.247 82.3794 132.26 82.3041 132.272 82.2112C132.284 82.1183 132.296 81.9853 132.306 81.8748C132.316 81.7644 132.323 81.6991 132.33 81.6238C132.338 81.5485 132.343 81.4105 132.347 81.305C132.352 81.1996 132.347 81.1419 132.347 81.054C132.347 80.9662 132.347 80.8482 132.347 80.7478V80.5294C132.347 80.4265 132.347 80.3286 132.347 80.2307C132.347 80.1328 132.347 80.0977 132.347 80.0349C132.347 79.932 132.333 79.8366 132.325 79.7387L132.311 79.5655C132.311 79.4651 132.291 79.3697 132.279 79.2718C132.279 79.2216 132.279 79.1689 132.262 79.1187C132.247 79.0108 132.233 78.9079 132.221 78.8049C132.221 78.7673 132.221 78.7296 132.204 78.692L132.145 78.2828C132.111 78.0544 132.077 77.8285 132.05 77.6051C132.023 77.3817 131.999 77.1457 131.979 76.9148C131.979 76.8019 131.979 76.6889 131.962 76.5785C131.945 76.468 131.95 76.3525 131.945 76.2396C131.94 76.1266 131.945 75.9534 131.945 75.8104C131.945 75.7275 131.945 75.6447 131.945 75.5593C131.945 75.4037 131.945 75.2481 131.964 75.0899C131.964 75.0121 131.964 74.9368 131.979 74.8615C131.991 74.6984 132.004 74.5377 132.021 74.372C132.021 74.2892 132.04 74.2039 132.05 74.121C132.069 73.9629 132.086 73.8022 132.111 73.6391C132.135 73.4759 132.164 73.3052 132.194 73.137C132.216 73.009 132.24 72.886 132.264 72.7455C132.369 72.2033 132.496 71.636 132.655 71.0235C132.999 69.6279 133.494 68.0565 133.972 66.5354ZM122.265 71.4854L122.367 71.021C122.491 70.4412 122.594 69.9165 122.689 69.4371C122.83 68.7192 122.95 68.0992 123.094 67.5821C123.139 67.3861 123.207 67.1964 123.296 67.0173C123.405 67.0512 123.508 67.1001 123.604 67.1629C124.074 67.4845 124.526 67.834 124.957 68.2097C126.762 69.7299 128.667 71.1204 130.657 72.3715C130.657 72.4091 130.657 72.4417 130.64 72.4794C130.562 72.8961 130.496 73.3002 130.445 73.6918C130.43 73.8048 130.421 73.9152 130.408 74.0256C130.369 74.3695 130.34 74.7059 130.323 75.0297C130.323 75.1025 130.311 75.1753 130.308 75.2481C130.294 75.6346 130.294 76.0187 130.308 76.3977L130.323 76.6713C130.343 77.0604 130.372 77.4495 130.421 77.8385C130.45 78.0745 130.486 78.313 130.521 78.5564C130.54 78.6794 130.557 78.8075 130.577 78.9279C130.577 78.9606 130.577 78.9932 130.589 79.0258C130.589 79.1187 130.616 79.2116 130.628 79.307L130.643 79.4551L130.672 79.7061L130.686 79.8768C130.686 79.9571 130.686 80.0374 130.704 80.1278C130.721 80.2181 130.704 80.2508 130.704 80.311C130.704 80.3713 130.704 80.4767 130.704 80.562V80.7603C130.704 80.8457 130.704 80.931 130.704 81.0114V81.2247C130.704 81.3151 130.704 81.4054 130.686 81.4958C130.669 81.5862 130.686 81.6489 130.667 81.7267C130.647 81.8046 130.647 81.9175 130.635 82.0154C130.623 82.1133 130.616 82.1761 130.604 82.2664C130.591 82.3568 130.569 82.4748 130.552 82.5802C130.535 82.6856 130.523 82.7484 130.506 82.8312C130.489 82.914 130.457 83.0546 130.433 83.1701C130.408 83.2855 130.394 83.3458 130.372 83.4361C130.35 83.5265 130.306 83.6872 130.269 83.8177C130.233 83.9482 130.223 83.9959 130.196 84.0863C130.152 84.2344 130.104 84.3875 130.055 84.5406C130.028 84.6234 130.006 84.7013 129.977 84.7916C129.901 85.0125 129.821 85.2409 129.733 85.4769L129.711 85.5396C129.613 85.7907 129.506 86.0668 129.389 86.3429C129.352 86.4282 129.311 86.5161 129.274 86.5939C129.199 86.7696 129.123 86.9453 129.03 87.1286L128.865 86.9579C128.747 86.8349 128.621 86.7069 128.511 86.5939C128.401 86.4809 128.267 86.3579 128.147 86.2425C128.028 86.127 127.952 86.0567 127.852 85.9664C127.706 85.8333 127.56 85.7153 127.413 85.5873C127.338 85.5246 127.262 85.4568 127.186 85.3966C126.965 85.2183 126.743 85.0502 126.526 84.8945C126.015 84.54 125.475 84.2342 124.911 83.9808C124.086 83.6289 123.237 83.3427 122.369 83.1249C122.174 83.0722 121.972 83.0094 121.772 82.9517C122.528 79.4375 122.187 77.7532 121.93 76.5057C121.865 76.1768 121.806 75.8932 121.774 75.6095C121.643 74.3294 121.977 72.8183 122.272 71.4854H122.265ZM130.511 119.135C125.167 115.468 120.857 110.448 117.704 104.215C116.048 100.952 114.606 97.1164 113.082 93.06C111.399 88.5844 109.499 83.5366 106.935 78.2151C108.767 76.9776 110.928 78.0067 112.113 78.7824C112.809 79.2477 113.438 79.8094 113.984 80.4516C114.412 80.9453 114.88 81.3997 115.384 81.8096C116.604 82.7609 118.35 83.5667 119.84 84.1239V84.1365L120.716 84.4226C121.152 84.5607 121.574 84.6736 121.982 84.7916C123.284 85.1506 124.408 85.4643 125.66 86.3328C125.882 86.4885 126.111 86.6642 126.343 86.8575C126.408 86.9102 126.474 86.9729 126.543 87.0307C126.711 87.1737 126.879 87.3218 127.05 87.485C127.133 87.5603 127.213 87.6431 127.294 87.7209C127.447 87.8741 127.604 88.0297 127.76 88.1929C127.85 88.2882 127.94 88.3861 128.028 88.484C128.177 88.6472 128.326 88.8154 128.472 88.9861C128.567 89.099 128.665 89.2095 128.76 89.3249C128.855 89.4404 128.904 89.5006 128.974 89.591C129.094 89.7391 129.218 89.8922 129.325 90.0453L129.545 90.3365C129.66 90.4947 129.772 90.6553 129.882 90.816C129.945 90.9038 130.006 90.9942 130.067 91.0845C130.233 91.3355 130.394 91.5866 130.555 91.8376C131.75 93.8156 132.506 95.9165 132.711 97.7565C132.766 98.3538 132.787 98.9539 132.774 99.5537C132.727 100.836 132.859 102.118 133.164 103.362C133.296 103.864 133.466 104.405 133.674 104.986C134.296 106.713 135.23 108.751 136.272 111.025L136.967 112.531L137.101 112.825C137.199 113.041 137.296 113.259 137.396 113.477L137.484 113.668C137.557 113.826 137.63 113.987 137.706 114.148C137.745 114.233 137.786 114.318 137.825 114.399L138.03 114.83C138.074 114.923 138.118 115.014 138.164 115.107L138.372 115.531L138.516 115.817L138.735 116.246L138.886 116.532L139.13 116.982L139.281 117.258L139.572 117.76L139.706 117.991C139.999 118.493 140.316 118.995 140.657 119.497C140.708 119.575 140.764 119.65 140.816 119.728C140.938 119.906 141.06 120.084 141.191 120.262L141.403 120.551C141.523 120.714 141.647 120.877 141.772 121.053C141.85 121.156 141.933 121.261 142.016 121.364C142.14 121.525 142.26 121.686 142.401 121.846L142.669 122.17C142.806 122.333 142.947 122.494 143.089 122.657C143.184 122.767 143.279 122.875 143.377 122.983C143.528 123.154 143.686 123.322 143.845 123.485L144.138 123.799L144.235 123.905C139.023 123.581 134.823 122.105 130.511 119.135ZM169.779 90.9314C169.216 95.2131 168.121 99.4026 166.52 103.397C164.674 107.958 162.315 111.735 159.311 114.943C156.14 118.34 152.62 120.699 149.677 121.47C149.677 121.427 149.694 121.384 149.703 121.342C149.745 121.169 149.794 120.995 149.837 120.825C149.911 120.538 149.986 120.255 150.067 119.974C150.12 119.793 150.179 119.612 150.235 119.429C150.318 119.165 150.403 118.902 150.479 118.641C150.542 118.458 150.606 118.277 150.672 118.096C150.764 117.845 150.859 117.594 150.957 117.331C151.025 117.152 151.096 116.977 151.167 116.801C151.269 116.55 151.374 116.299 151.479 116.048C151.552 115.88 151.623 115.711 151.694 115.546C151.808 115.295 151.925 115.024 152.042 114.763L152.247 114.308C152.381 114.015 152.518 113.726 152.652 113.437C152.708 113.322 152.762 113.204 152.815 113.088C153.003 112.692 153.194 112.298 153.381 111.904C153.823 110.98 154.24 110.109 154.635 109.233C155.779 106.782 156.666 104.213 157.281 101.569C157.567 100.289 157.73 98.9838 157.769 97.6711C157.769 97.4201 157.769 97.1691 157.769 96.9181C157.769 96.8754 157.769 96.8327 157.769 96.7901C157.769 96.5692 157.754 96.3508 157.742 96.1324C157.742 96.0847 157.742 96.032 157.742 95.9843C157.728 95.7584 157.711 95.535 157.689 95.3141L157.674 95.156C157.65 94.9175 157.623 94.679 157.591 94.4431V94.3628V94.305C157.542 93.9361 157.489 93.5721 157.433 93.2131L157.411 93.0851C157.354 92.7337 157.296 92.3823 157.237 92.0359C157.016 90.8753 156.867 89.7016 156.789 88.5217C156.689 85.9488 157.42 83.6093 158.008 81.7267C158.596 79.8441 158.984 78.6543 160.447 77.1131C160.591 76.965 160.747 76.8119 160.913 76.6512L161.045 76.5257L161.435 76.1542L161.486 76.1091L161.73 75.8857C163.067 74.618 164.725 72.9664 166.086 70.3458C166.441 71.4372 166.718 72.5538 166.915 73.6868C167.025 74.323 167.17 74.9524 167.35 75.5719C167.603 76.3317 167.903 77.0745 168.247 77.7959C168.817 78.9696 169.271 80.199 169.603 81.4657C170.181 83.9106 170.242 87.1963 169.771 90.9314H169.779Z" fill="#010101"/>
</svg>
