<svg width="22" height="23" viewBox="0 0 22 23" fill="none" xmlns="http://www.w3.org/2000/svg">
<g clip-path="url(#clip0_7595:63804)">
<path d="M20.6194 9.21818C18.7277 9.2227 16.8824 8.63275 15.3441 7.53166V15.211C15.3436 16.6333 14.9089 18.0216 14.0981 19.1901C13.2873 20.3587 12.139 21.2519 10.8069 21.7502C9.47476 22.2486 8.02223 22.3284 6.64352 21.9789C5.26481 21.6295 4.02565 20.8675 3.09172 19.7947C2.15779 18.722 1.57362 17.3897 1.41731 15.9761C1.261 14.5624 1.54001 13.1346 2.21703 11.8838C2.89405 10.633 3.9368 9.61863 5.20586 8.97643C6.47493 8.33422 7.90981 8.09475 9.31864 8.29005V12.1525C8.67395 11.9497 7.98168 11.9558 7.34067 12.17C6.69967 12.3841 6.14271 12.7953 5.74935 13.3448C5.35598 13.8944 5.14632 14.5542 5.1503 15.23C5.15428 15.9058 5.3717 16.5631 5.77151 17.1079C6.17133 17.6528 6.73309 18.0574 7.37657 18.264C8.02005 18.4706 8.71235 18.4685 9.3546 18.2581C9.99685 18.0478 10.5562 17.6399 10.9528 17.0926C11.3494 16.5454 11.5629 15.8869 11.5629 15.211V0.198608H15.3441C15.3415 0.517926 15.3683 0.836809 15.4241 1.15123C15.5555 1.85311 15.8287 2.52081 16.227 3.11349C16.6253 3.70617 17.1403 4.21137 17.7405 4.59818C18.5945 5.16283 19.5957 5.46378 20.6194 5.46357V9.21818Z" fill="#6A6A6A"/>
</g>
<defs>
<clipPath id="clip0_7595:63804">
<rect width="22" height="22" fill="white" transform="translate(0 0.198608)"/>
</clipPath>
</defs>
</svg>
