<svg width="290" height="105" viewBox="0 0 290 105" fill="none" xmlns="http://www.w3.org/2000/svg">
<path d="M40.44 1.512L26.904 26.712H24.096L21 5.328L9.264 26.712H6.456L3 1.512H5.628L8.616 23.22L20.46 1.512H22.944L26.004 23.256L37.776 1.512H40.44Z" fill="#16100D"/>
<path d="M41.3991 17.964C41.3751 18.132 41.3631 18.384 41.3631 18.72C41.3631 20.64 41.9031 22.104 42.9831 23.112C44.0871 24.12 45.7191 24.624 47.8791 24.624C49.1271 24.624 50.2911 24.42 51.3711 24.012C52.4751 23.58 53.3751 22.992 54.0711 22.248L55.2231 24.084C54.3351 24.972 53.2191 25.668 51.8751 26.172C50.5551 26.652 49.1511 26.892 47.6631 26.892C44.9271 26.892 42.7671 26.172 41.1831 24.732C39.6231 23.292 38.8431 21.324 38.8431 18.828C38.8431 16.716 39.2871 14.808 40.1751 13.104C41.0871 11.4 42.3351 10.068 43.9191 9.108C45.5271 8.124 47.3271 7.632 49.3191 7.632C51.8391 7.632 53.8431 8.352 55.3311 9.792C56.8191 11.208 57.5631 13.164 57.5631 15.66C57.5631 16.356 57.4791 17.124 57.3111 17.964H41.3991ZM49.2471 9.792C47.3511 9.792 45.7311 10.356 44.3871 11.484C43.0431 12.612 42.1311 14.136 41.6511 16.056H55.1511C55.1751 15.888 55.1871 15.66 55.1871 15.372C55.1871 13.596 54.6471 12.228 53.5671 11.268C52.4871 10.284 51.0471 9.792 49.2471 9.792Z" fill="#16100D"/>
<path d="M66.7976 0H69.3536L64.0256 26.712H61.4696L66.7976 0Z" fill="#16100D"/>
<path d="M80.4256 26.892C78.6496 26.892 77.1016 26.568 75.7816 25.92C74.4616 25.248 73.4416 24.312 72.7216 23.112C72.0256 21.888 71.6776 20.472 71.6776 18.864C71.6776 16.728 72.1456 14.808 73.0816 13.104C74.0176 11.4 75.3256 10.068 77.0056 9.108C78.6856 8.124 80.5816 7.632 82.6936 7.632C84.4456 7.632 85.9456 7.956 87.1936 8.604C88.4656 9.228 89.4496 10.164 90.1456 11.412L87.9856 12.672C86.9056 10.8 85.0696 9.864 82.4776 9.864C80.9176 9.864 79.5016 10.248 78.2296 11.016C76.9816 11.784 75.9976 12.84 75.2776 14.184C74.5816 15.528 74.2336 17.052 74.2336 18.756C74.2336 20.604 74.7736 22.044 75.8536 23.076C76.9576 24.108 78.5176 24.624 80.5336 24.624C81.7576 24.624 82.8856 24.396 83.9176 23.94C84.9736 23.46 85.8376 22.776 86.5096 21.888L88.3456 23.292C87.5056 24.42 86.3776 25.308 84.9616 25.956C83.5696 26.58 82.0576 26.892 80.4256 26.892Z" fill="#16100D"/>
<path d="M100.97 26.892C99.2423 26.892 97.7303 26.568 96.4343 25.92C95.1383 25.248 94.1303 24.312 93.4103 23.112C92.7143 21.888 92.3663 20.472 92.3663 18.864C92.3663 16.728 92.8343 14.808 93.7703 13.104C94.7063 11.4 96.0023 10.068 97.6583 9.108C99.3383 8.124 101.222 7.632 103.31 7.632C105.95 7.632 108.038 8.352 109.574 9.792C111.134 11.232 111.914 13.176 111.914 15.624C111.914 17.76 111.446 19.692 110.51 21.42C109.574 23.124 108.266 24.468 106.586 25.452C104.93 26.412 103.058 26.892 100.97 26.892ZM101.15 24.624C102.71 24.624 104.114 24.252 105.362 23.508C106.61 22.74 107.582 21.684 108.278 20.34C108.998 18.972 109.358 17.448 109.358 15.768C109.358 13.92 108.806 12.48 107.702 11.448C106.622 10.392 105.098 9.864 103.13 9.864C101.57 9.864 100.166 10.248 98.9183 11.016C97.6703 11.784 96.6863 12.852 95.9663 14.22C95.2703 15.564 94.9223 17.076 94.9223 18.756C94.9223 20.604 95.4623 22.044 96.5423 23.076C97.6463 24.108 99.1823 24.624 101.15 24.624Z" fill="#16100D"/>
<path d="M142.765 7.632C144.901 7.632 146.545 8.172 147.697 9.252C148.873 10.308 149.461 11.796 149.461 13.716C149.461 14.268 149.377 15.012 149.209 15.948L147.049 26.712H144.493L146.653 15.912C146.773 15.36 146.833 14.772 146.833 14.148C146.833 12.804 146.437 11.772 145.645 11.052C144.853 10.308 143.689 9.936 142.153 9.936C140.233 9.936 138.637 10.476 137.365 11.556C136.093 12.612 135.241 14.184 134.809 16.272L132.721 26.712H130.165L132.325 15.912C132.445 15.24 132.505 14.664 132.505 14.184C132.505 12.816 132.109 11.772 131.317 11.052C130.549 10.308 129.385 9.936 127.825 9.936C125.881 9.936 124.273 10.5 123.001 11.628C121.729 12.732 120.865 14.376 120.409 16.56L118.393 26.712H115.837L119.581 7.776H122.029L121.417 10.8C123.145 8.688 125.533 7.632 128.581 7.632C130.165 7.632 131.485 7.956 132.541 8.604C133.621 9.252 134.365 10.188 134.773 11.412C135.709 10.164 136.849 9.228 138.193 8.604C139.561 7.956 141.085 7.632 142.765 7.632Z" fill="#16100D"/>
<path d="M157.183 17.964C157.159 18.132 157.147 18.384 157.147 18.72C157.147 20.64 157.687 22.104 158.767 23.112C159.871 24.12 161.503 24.624 163.663 24.624C164.911 24.624 166.075 24.42 167.155 24.012C168.259 23.58 169.159 22.992 169.855 22.248L171.007 24.084C170.119 24.972 169.003 25.668 167.659 26.172C166.339 26.652 164.935 26.892 163.447 26.892C160.711 26.892 158.551 26.172 156.967 24.732C155.407 23.292 154.627 21.324 154.627 18.828C154.627 16.716 155.071 14.808 155.959 13.104C156.871 11.4 158.119 10.068 159.703 9.108C161.311 8.124 163.111 7.632 165.103 7.632C167.623 7.632 169.627 8.352 171.115 9.792C172.603 11.208 173.347 13.164 173.347 15.66C173.347 16.356 173.263 17.124 173.095 17.964H157.183ZM165.031 9.792C163.135 9.792 161.515 10.356 160.171 11.484C158.827 12.612 157.915 14.136 157.435 16.056H170.935C170.959 15.888 170.971 15.66 170.971 15.372C170.971 13.596 170.431 12.228 169.351 11.268C168.271 10.284 166.831 9.792 165.031 9.792Z" fill="#16100D"/>
<path d="M191.499 20.988C191.403 21.564 191.355 21.96 191.355 22.176C191.355 23.856 192.267 24.696 194.091 24.696C195.171 24.696 196.143 24.372 197.007 23.724L197.619 25.668C196.539 26.484 195.135 26.892 193.407 26.892C191.991 26.892 190.863 26.508 190.023 25.74C189.207 24.972 188.799 23.916 188.799 22.572C188.799 22.044 188.847 21.552 188.943 21.096L191.139 9.936H187.791L188.187 7.776H191.571L192.399 3.636H194.955L194.127 7.776H199.887L199.455 9.936H193.695L191.499 20.988Z" fill="#16100D"/>
<path d="M210.496 26.892C208.768 26.892 207.256 26.568 205.96 25.92C204.664 25.248 203.656 24.312 202.936 23.112C202.24 21.888 201.892 20.472 201.892 18.864C201.892 16.728 202.36 14.808 203.296 13.104C204.232 11.4 205.528 10.068 207.184 9.108C208.864 8.124 210.748 7.632 212.836 7.632C215.476 7.632 217.564 8.352 219.1 9.792C220.66 11.232 221.44 13.176 221.44 15.624C221.44 17.76 220.972 19.692 220.036 21.42C219.1 23.124 217.792 24.468 216.112 25.452C214.456 26.412 212.584 26.892 210.496 26.892ZM210.676 24.624C212.236 24.624 213.64 24.252 214.888 23.508C216.136 22.74 217.108 21.684 217.804 20.34C218.524 18.972 218.884 17.448 218.884 15.768C218.884 13.92 218.332 12.48 217.228 11.448C216.148 10.392 214.624 9.864 212.656 9.864C211.096 9.864 209.692 10.248 208.444 11.016C207.196 11.784 206.212 12.852 205.492 14.22C204.796 15.564 204.448 17.076 204.448 18.756C204.448 20.604 204.988 22.044 206.068 23.076C207.172 24.108 208.708 24.624 210.676 24.624Z" fill="#16100D"/>
<g clip-path="url(#clip0_8487_67440)">
<path d="M77.8176 94.3708H77.7478L77.8176 101.387H73.541V57.125H77.8176L77.7478 76.2859H77.8176C79.5507 71.7927 84.2955 69.0744 89.767 69.0744C99.4523 69.0744 105.728 76.0274 105.728 85.517C105.728 95.0696 99.4523 102.085 89.767 102.085C84.3654 102.085 79.7533 99.1785 77.8176 94.3708ZM77.4822 85.2026V85.9643C77.4822 93.4274 82.5555 98.6124 89.6343 98.6124C96.9786 98.6124 101.584 93.05 101.584 85.524C101.584 78.0609 96.9786 72.5614 89.6343 72.5614C82.6254 72.5614 77.5521 77.6835 77.4822 85.2026Z" fill="#F0244D"/>
<path d="M129.144 101.771C124.504 101.771 121.674 98.5496 121.674 93.9934V57.125H125.797V93.672C125.797 96.3903 127.341 98.2281 129.598 98.2281C130.5 98.2281 131.722 98.0394 133.4 97.2149V100.946C131.785 101.582 130.304 101.771 129.144 101.771Z" fill="#F0244D"/>
<path d="M221.19 85.5856C221.19 95.0683 214.74 102.091 205.061 102.091C195.32 102.091 188.863 95.0753 188.863 85.5856C188.863 76.103 195.313 69.0801 205.061 69.0801C214.74 69.0801 221.19 76.096 221.19 85.5856ZM192.944 85.5856C192.944 93.1116 197.682 98.6112 205.054 98.6112C212.364 98.6112 217.102 93.1116 217.102 85.5856C217.102 78.0596 212.364 72.5601 205.054 72.5601C197.689 72.5601 192.944 78.0596 192.944 85.5856Z" fill="#F0244D"/>
<path d="M176.257 85.5856C176.257 95.0683 169.807 102.091 160.129 102.091C150.388 102.091 143.931 95.0753 143.931 85.5856C143.931 76.103 150.381 69.0801 160.129 69.0801C169.8 69.0801 176.257 76.096 176.257 85.5856ZM148.012 85.5856C148.012 93.1116 152.749 98.6112 160.122 98.6112C167.431 98.6112 172.169 93.1116 172.169 85.5856C172.169 78.0596 167.431 72.5601 160.122 72.5601C152.749 72.5601 148.012 78.0596 148.012 85.5856Z" fill="#F0244D"/>
<path d="M289.944 82.5459V101.392H285.464V82.7974C285.464 75.9702 282.033 72.6789 276.436 72.6789C269.301 72.6789 265.94 76.9136 265.94 83.8736V101.392H261.461V82.7974C261.461 75.9702 257.89 72.6789 252.293 72.6789C245.151 72.6789 241.797 76.9136 241.797 83.8736V101.392H237.317V69.7719H241.797V75.5928C243.823 71.2324 247.604 69.0801 252.712 69.0801C258.519 69.0801 262.858 71.5468 264.822 76.2218C266.918 71.2883 271.398 69.0801 276.855 69.0801C284.905 69.0801 289.944 73.755 289.944 82.5459Z" fill="#F0244D"/>
<path d="M24.8635 104.334C38.4561 104.334 49.4751 93.3155 49.4751 79.7229C49.4751 66.1303 38.4561 55.1113 24.8635 55.1113C11.2709 55.1113 0.251953 66.1303 0.251953 79.7229C0.251953 93.3155 11.2709 104.334 24.8635 104.334Z" fill="#F0244D"/>
</g>
<defs>
<clipPath id="clip0_8487_67440">
<rect width="290" height="49.6145" fill="white" transform="translate(0 55)"/>
</clipPath>
</defs>
</svg>
