<svg width="512" height="512" viewBox="0 0 512 512" fill="none" xmlns="http://www.w3.org/2000/svg">
<g clip-path="url(#clip0_8746_56809)">
<path d="M256 512C397.385 512 512 397.385 512 256C512 114.615 397.385 0 256 0C114.615 0 0 114.615 0 256C0 397.385 114.615 512 256 512Z" fill="#F3D6D8"/>
<path d="M169.045 354.603H168.533L169.045 407.253H136.96V75.008H169.045L168.533 218.837H169.045C182.059 185.131 217.685 164.693 258.645 164.693C331.179 164.693 378.453 216.917 378.453 288.128C378.453 359.339 331.52 412.501 258.645 412.501C218.197 412.501 183.467 390.656 169.045 354.603ZM166.4 285.867V291.584C166.4 347.52 204.8 386.432 257.749 386.432C312.875 386.432 347.349 344.661 347.349 288.299C347.349 231.936 312.789 191.019 257.749 191.019C205.141 190.891 167.083 229.333 166.4 285.867Z" fill="#DC3D52"/>
<path d="M326.784 482.475C343.23 475.364 359.094 466.976 374.229 457.387C384.853 451.413 394.496 447.957 405.888 442.709C417.932 437.226 429.506 430.761 440.491 423.381C454.192 414.312 465.54 402.116 473.6 387.797C475.876 384.229 477.819 380.458 479.403 376.533C481.109 372.267 482.816 366.549 486.144 357.163C491.216 344.331 494.337 330.812 495.403 317.056C496.119 299.27 494.687 281.464 491.136 264.021C488.32 251.221 485.461 247.467 478.72 242.347C465.451 243.243 451.584 262.485 439.424 280.235C427.264 297.984 416.811 314.155 405.888 330.155C394.965 346.155 383.488 361.856 376.021 374.869C369.547 385.713 364.945 397.569 362.411 409.941C360.406 422.829 357.555 435.572 353.877 448.085C349.209 462.398 339.607 474.586 326.784 482.475Z" fill="#7F7E35"/>
<path d="M326.656 482.133C339.319 474.256 348.805 462.172 353.451 448C356.33 439.095 358.512 429.979 359.979 420.736C360.704 416.939 361.344 413.355 362.112 409.856C364.665 397.462 369.265 385.581 375.723 374.699C381.397 364.885 389.291 353.365 397.611 341.547C400.256 337.792 402.987 333.867 405.632 329.984C410.965 322.176 416.128 314.453 421.589 306.261C427.051 298.069 432.981 289.195 439.211 280.064C452.565 260.565 465.664 242.987 478.635 242.133C485.248 247.168 488.235 250.667 491.093 263.893C494.727 281.34 496.231 299.162 495.573 316.971C494.587 330.246 491.64 343.301 486.827 355.712L486.315 357.163C484.864 361.429 483.755 364.544 482.773 367.488C481.536 371.157 480.555 374.101 479.573 376.533C477.972 380.464 476.03 384.247 473.771 387.84C465.652 402.181 454.246 414.391 440.491 423.467C429.476 430.823 417.891 437.286 405.845 442.795C401.963 444.587 398.293 446.165 394.752 447.701C387.724 450.566 380.859 453.814 374.187 457.429C371.627 458.88 368.981 460.501 366.208 462.165C353.621 470.011 340.423 476.831 326.741 482.56L326.656 482.133ZM439.467 280.32C433.237 289.408 427.477 298.112 421.845 306.517C416.213 314.923 411.264 322.432 405.888 330.24C403.243 334.123 400.512 338.048 397.909 341.803C389.376 353.792 381.696 365.141 376.021 374.955C369.652 385.807 365.139 397.646 362.667 409.984C361.899 413.483 361.216 417.067 360.533 420.864C359.068 430.125 356.871 439.256 353.963 448.171C349.536 461.759 340.69 473.474 328.832 481.451C341.799 475.918 354.323 469.4 366.293 461.952C369.109 460.245 371.755 458.624 374.315 457.216C380.988 453.561 387.869 450.299 394.923 447.445C398.464 445.909 402.133 444.331 405.973 442.539C418.004 437.044 429.575 430.595 440.576 423.253C454.248 414.195 465.568 402.012 473.6 387.712C475.868 384.139 477.81 380.369 479.403 376.448C480.341 374.059 481.323 371.157 482.603 367.445C483.584 364.501 484.693 361.173 486.144 357.12L486.613 355.669C491.35 343.365 494.227 330.422 495.147 317.269C495.854 299.498 494.421 281.706 490.88 264.277C488.619 253.952 486.912 249.131 478.592 242.944C465.792 243.456 452.821 260.949 439.467 280.32Z" fill="#304F25"/>
<path d="M378.069 443.008C415.573 402.603 432.128 377.088 442.325 359.339C452.24 342.476 460.131 324.503 465.835 305.792C472.124 285.117 476.41 263.885 478.635 242.389H478.251C476.011 263.855 471.724 285.057 465.451 305.707C459.747 324.404 451.856 342.363 441.941 359.211C431.744 376.917 415.232 402.432 377.941 442.795L378.069 443.008Z" fill="white"/>
</g>
<defs>
<clipPath id="clip0_8746_56809">
<rect width="512" height="512" fill="white"/>
</clipPath>
</defs>
</svg>
